<?xml version="1.0" encoding="UTF-8"?>
<!--Generator: Apple Native CoreSVG 175.5-->
<!DOCTYPE svg
PUBLIC "-//W3C//DTD SVG 1.1//EN"
       "http://www.w3.org/Graphics/SVG/1.1/DTD/svg11.dtd">
<svg version="1.1" xmlns="http://www.w3.org/2000/svg" xmlns:xlink="http://www.w3.org/1999/xlink" width="3300" height="2200">
 <!--glyph: "uni100FB1.medium", point size: 100.0, font version: "18.0d12e2", template writer version: "101"-->
 <g id="Notes">
  <rect height="2200" id="artboard" style="fill:white;opacity:1" width="3300" x="0" y="0"/>
  <line style="fill:none;stroke:black;opacity:1;stroke-width:0.5;" x1="263" x2="3036" y1="292" y2="292"/>
  <text style="stroke:none;fill:black;font-family:sans-serif;font-size:13;font-weight:bold;" transform="matrix(1 0 0 1 263 322)">Weight/Scale Variations</text>
  <text style="stroke:none;fill:black;font-family:sans-serif;font-size:13;text-anchor:middle;" transform="matrix(1 0 0 1 559.711 322)">Ultralight</text>
  <text style="stroke:none;fill:black;font-family:sans-serif;font-size:13;text-anchor:middle;" transform="matrix(1 0 0 1 856.422 322)">Thin</text>
  <text style="stroke:none;fill:black;font-family:sans-serif;font-size:13;text-anchor:middle;" transform="matrix(1 0 0 1 1153.13 322)">Light</text>
  <text style="stroke:none;fill:black;font-family:sans-serif;font-size:13;text-anchor:middle;" transform="matrix(1 0 0 1 1449.84 322)">Regular</text>
  <text style="stroke:none;fill:black;font-family:sans-serif;font-size:13;text-anchor:middle;" transform="matrix(1 0 0 1 1746.56 322)">Medium</text>
  <text style="stroke:none;fill:black;font-family:sans-serif;font-size:13;text-anchor:middle;" transform="matrix(1 0 0 1 2043.27 322)">Semibold</text>
  <text style="stroke:none;fill:black;font-family:sans-serif;font-size:13;text-anchor:middle;" transform="matrix(1 0 0 1 2339.98 322)">Bold</text>
  <text style="stroke:none;fill:black;font-family:sans-serif;font-size:13;text-anchor:middle;" transform="matrix(1 0 0 1 2636.69 322)">Heavy</text>
  <text style="stroke:none;fill:black;font-family:sans-serif;font-size:13;text-anchor:middle;" transform="matrix(1 0 0 1 2933.4 322)">Black</text>
  <line style="fill:none;stroke:black;opacity:1;stroke-width:0.5;" x1="263" x2="3036" y1="1903" y2="1903"/>
  <g transform="matrix(1 0 0 1 263 1933)">
   <path d="M9.24805 0.830078C13.5547 0.830078 17.1387-2.74414 17.1387-7.05078C17.1387-11.3574 13.5449-14.9316 9.23828-14.9316C4.94141-14.9316 1.36719-11.3574 1.36719-7.05078C1.36719-2.74414 4.95117 0.830078 9.24805 0.830078ZM9.24805-0.654297C5.70312-0.654297 2.87109-3.49609 2.87109-7.05078C2.87109-10.6055 5.69336-13.4473 9.23828-13.4473C12.793-13.4473 15.6445-10.6055 15.6445-7.05078C15.6445-3.49609 12.8027-0.654297 9.24805-0.654297ZM5.6543-7.05078C5.6543-6.62109 5.95703-6.32812 6.40625-6.32812L8.50586-6.32812L8.50586-4.20898C8.50586-3.76953 8.79883-3.4668 9.22852-3.4668C9.67773-3.4668 9.9707-3.76953 9.9707-4.20898L9.9707-6.32812L12.0898-6.32812C12.5293-6.32812 12.832-6.62109 12.832-7.05078C12.832-7.49023 12.5293-7.79297 12.0898-7.79297L9.9707-7.79297L9.9707-9.90234C9.9707-10.3516 9.67773-10.6543 9.22852-10.6543C8.79883-10.6543 8.50586-10.3516 8.50586-9.90234L8.50586-7.79297L6.40625-7.79297C5.95703-7.79297 5.6543-7.49023 5.6543-7.05078Z"/>
  </g>
  <g transform="matrix(1 0 0 1 281.867 1933)">
   <path d="M11.709 2.91016C17.1582 2.91016 21.6699-1.61133 21.6699-7.05078C21.6699-12.5 17.1484-17.0117 11.6992-17.0117C6.25977-17.0117 1.74805-12.5 1.74805-7.05078C1.74805-1.61133 6.26953 2.91016 11.709 2.91016ZM11.709 1.25C7.09961 1.25 3.41797-2.44141 3.41797-7.05078C3.41797-11.6602 7.08984-15.3516 11.6992-15.3516C16.3086-15.3516 20.0098-11.6602 20.0098-7.05078C20.0098-2.44141 16.3184 1.25 11.709 1.25ZM7.17773-7.05078C7.17773-6.57227 7.50977-6.25 8.00781-6.25L10.8789-6.25L10.8789-3.36914C10.8789-2.88086 11.2109-2.53906 11.6895-2.53906C12.1777-2.53906 12.5195-2.87109 12.5195-3.36914L12.5195-6.25L15.4004-6.25C15.8887-6.25 16.2305-6.57227 16.2305-7.05078C16.2305-7.53906 15.8887-7.88086 15.4004-7.88086L12.5195-7.88086L12.5195-10.752C12.5195-11.25 12.1777-11.5918 11.6895-11.5918C11.2109-11.5918 10.8789-11.25 10.8789-10.752L10.8789-7.88086L8.00781-7.88086C7.50977-7.88086 7.17773-7.53906 7.17773-7.05078Z"/>
  </g>
  <g transform="matrix(1 0 0 1 305.646 1933)">
   <path d="M14.9707 5.66406C21.9336 5.66406 27.6953-0.0976562 27.6953-7.05078C27.6953-14.0137 21.9238-19.7754 14.9609-19.7754C8.00781-19.7754 2.25586-14.0137 2.25586-7.05078C2.25586-0.0976562 8.01758 5.66406 14.9707 5.66406ZM14.9707 3.84766C8.93555 3.84766 4.08203-1.01562 4.08203-7.05078C4.08203-13.0957 8.92578-17.9492 14.9609-17.9492C21.0059-17.9492 25.8691-13.0957 25.8691-7.05078C25.8691-1.01562 21.0156 3.84766 14.9707 3.84766ZM9.19922-7.05078C9.19922-6.5332 9.57031-6.17188 10.1172-6.17188L14.0625-6.17188L14.0625-2.2168C14.0625-1.67969 14.4336-1.29883 14.9512-1.29883C15.4883-1.29883 15.8594-1.66992 15.8594-2.2168L15.8594-6.17188L19.8145-6.17188C20.3516-6.17188 20.7324-6.5332 20.7324-7.05078C20.7324-7.59766 20.3613-7.96875 19.8145-7.96875L15.8594-7.96875L15.8594-11.9141C15.8594-12.4609 15.4883-12.8418 14.9512-12.8418C14.4336-12.8418 14.0625-12.4609 14.0625-11.9141L14.0625-7.96875L10.1172-7.96875C9.57031-7.96875 9.19922-7.59766 9.19922-7.05078Z"/>
  </g>
  <text style="stroke:none;fill:black;font-family:sans-serif;font-size:13;font-weight:bold;" transform="matrix(1 0 0 1 263 1953)">Design Variations</text>
  <text style="stroke:none;fill:black;font-family:sans-serif;font-size:13;" transform="matrix(1 0 0 1 263 1971)">Symbols are supported in up to nine weights and three scales.</text>
  <text style="stroke:none;fill:black;font-family:sans-serif;font-size:13;" transform="matrix(1 0 0 1 263 1989)">For optimal layout with text and other symbols, vertically align</text>
  <text style="stroke:none;fill:black;font-family:sans-serif;font-size:13;" transform="matrix(1 0 0 1 263 2007)">symbols with the adjacent text.</text>
  <line style="fill:none;stroke:#00AEEF;stroke-width:0.5;opacity:1.0;" x1="776" x2="776" y1="1919" y2="1933"/>
  <g transform="matrix(1 0 0 1 776 1933)">
   <path d="M3.31055 0.15625C3.82812 0.15625 4.08203-0.0390625 4.26758-0.585938L5.52734-4.0332L11.2891-4.0332L12.5488-0.585938C12.7344-0.0390625 12.9883 0.15625 13.4961 0.15625C14.0137 0.15625 14.3457-0.15625 14.3457-0.644531C14.3457-0.810547 14.3164-0.966797 14.2383-1.17188L9.6582-13.3691C9.43359-13.9648 9.0332-14.2676 8.4082-14.2676C7.80273-14.2676 7.39258-13.9746 7.17773-13.3789L2.59766-1.16211C2.51953-0.957031 2.49023-0.800781 2.49023-0.634766C2.49023-0.146484 2.80273 0.15625 3.31055 0.15625ZM6.00586-5.51758L8.37891-12.0898L8.42773-12.0898L10.8008-5.51758Z"/>
  </g>
  <line style="fill:none;stroke:#00AEEF;stroke-width:0.5;opacity:1.0;" x1="793.197" x2="793.197" y1="1919" y2="1933"/>
  <text style="stroke:none;fill:black;font-family:sans-serif;font-size:13;font-weight:bold;" transform="matrix(1 0 0 1 776 1953)">Margins</text>
  <text style="stroke:none;fill:black;font-family:sans-serif;font-size:13;" transform="matrix(1 0 0 1 776 1971)">Leading and trailing margins on the left and right side of each symbol</text>
  <text style="stroke:none;fill:black;font-family:sans-serif;font-size:13;" transform="matrix(1 0 0 1 776 1989)">can be adjusted by modifying the x-location of the margin guidelines.</text>
  <text style="stroke:none;fill:black;font-family:sans-serif;font-size:13;" transform="matrix(1 0 0 1 776 2007)">Modifications are automatically applied proportionally to all</text>
  <text style="stroke:none;fill:black;font-family:sans-serif;font-size:13;" transform="matrix(1 0 0 1 776 2025)">scales and weights.</text>
  <g transform="matrix(1 0 0 1 1289 1933)">
   <path d="M2.8418 1.86523L4.54102 3.57422C5.40039 4.44336 6.38672 4.38477 7.31445 3.35938L18.0078-8.42773L17.041-9.4043L6.42578 2.27539C6.07422 2.67578 5.74219 2.77344 5.27344 2.30469L4.10156 1.14258C3.63281 0.683594 3.74023 0.341797 4.14062-0.0195312L15.6152-10.8203L14.6387-11.7871L3.04688-0.898438C2.06055 0.0195312 1.98242 0.996094 2.8418 1.86523ZM9.25781-16.3281C8.83789-15.918 8.80859-15.3418 9.04297-14.9512C9.27734-14.5898 9.73633-14.3555 10.3809-14.5215C11.8457-14.8633 13.3691-14.9219 14.7949-13.9844L14.209-12.5293C13.8672-11.6992 14.043-11.1133 14.5801-10.5664L16.875-8.25195C17.3633-7.76367 17.7734-7.74414 18.3398-7.8418L19.4043-8.03711L20.0684-7.36328L20.0293-6.80664C19.9902-6.30859 20.1172-5.92773 20.6055-5.44922L21.3672-4.70703C21.8457-4.22852 22.4609-4.19922 22.9297-4.66797L25.8398-7.58789C26.3086-8.05664 26.2891-8.65234 25.8105-9.13086L25.0391-9.89258C24.5605-10.3711 24.1895-10.5273 23.7109-10.4883L23.1348-10.4395L22.4902-11.0742L22.7344-12.1973C22.8613-12.7637 22.7051-13.2031 22.1191-13.7891L19.9219-15.9766C16.582-19.2969 12.1484-19.2188 9.25781-16.3281ZM10.752-15.957C13.1836-17.7344 16.4746-17.4316 18.7012-15.2051L21.1328-12.793C21.3672-12.5586 21.4062-12.373 21.3379-12.0312L21.0156-10.5469L22.5195-9.0625L23.5059-9.12109C23.7598-9.13086 23.8379-9.11133 24.0332-8.91602L24.6094-8.33984L22.168-5.89844L21.5918-6.47461C21.3965-6.66992 21.3672-6.74805 21.377-7.01172L21.4453-7.98828L19.9512-9.47266L18.4277-9.21875C18.1055-9.15039 17.959-9.17969 17.7148-9.41406L15.7129-11.416C15.459-11.6504 15.4297-11.8164 15.5859-12.1875L16.4648-14.2773C14.9023-15.7324 12.8711-16.3574 10.8398-15.7617C10.6836-15.7227 10.625-15.8496 10.752-15.957Z"/>
  </g>
  <text style="stroke:none;fill:black;font-family:sans-serif;font-size:13;font-weight:bold;" transform="matrix(1 0 0 1 1289 1953)">Exporting</text>
  <text style="stroke:none;fill:black;font-family:sans-serif;font-size:13;" transform="matrix(1 0 0 1 1289 1971)">Symbols should be outlined when exporting to ensure the</text>
  <text style="stroke:none;fill:black;font-family:sans-serif;font-size:13;" transform="matrix(1 0 0 1 1289 1989)">design is preserved when submitting to Xcode.</text>
  <text id="template-version" style="stroke:none;fill:black;font-family:sans-serif;font-size:13;text-anchor:end;" transform="matrix(1 0 0 1 3036 1933)">Template v.4.0</text>
  <text style="stroke:none;fill:black;font-family:sans-serif;font-size:13;text-anchor:end;" transform="matrix(1 0 0 1 3036 1951)">Requires Xcode 14 or greater</text>
  <text id="descriptive-name" style="stroke:none;fill:black;font-family:sans-serif;font-size:13;text-anchor:end;" transform="matrix(1 0 0 1 3036 1969)">Generated from engine.combustion.fill</text>
  <text style="stroke:none;fill:black;font-family:sans-serif;font-size:13;text-anchor:end;" transform="matrix(1 0 0 1 3036 1987)">Typeset at 100 points</text>
  <text style="stroke:none;fill:black;font-family:sans-serif;font-size:13;" transform="matrix(1 0 0 1 263 726)">Small</text>
  <text style="stroke:none;fill:black;font-family:sans-serif;font-size:13;" transform="matrix(1 0 0 1 263 1156)">Medium</text>
  <text style="stroke:none;fill:black;font-family:sans-serif;font-size:13;" transform="matrix(1 0 0 1 263 1586)">Large</text>
 </g>
 <g id="Guides">
  <g id="H-reference" style="fill:#27AAE1;stroke:none;" transform="matrix(1 0 0 1 339 696)">
   <path d="M0.993654 0L3.63775 0L29.3281-67.1323L30.0303-67.1323L30.0303-70.459L28.1226-70.459ZM11.6885-24.4799L46.9815-24.4799L46.2315-26.7285L12.4385-26.7285ZM55.1196 0L57.7637 0L30.6382-70.459L29.4326-70.459L29.4326-67.1323Z"/>
  </g>
  <line id="Baseline-S" style="fill:none;stroke:#27AAE1;opacity:1;stroke-width:0.5;" x1="263" x2="3036" y1="696" y2="696"/>
  <line id="Capline-S" style="fill:none;stroke:#27AAE1;opacity:1;stroke-width:0.5;" x1="263" x2="3036" y1="625.541" y2="625.541"/>
  <g id="H-reference" style="fill:#27AAE1;stroke:none;" transform="matrix(1 0 0 1 339 1126)">
   <path d="M0.993654 0L3.63775 0L29.3281-67.1323L30.0303-67.1323L30.0303-70.459L28.1226-70.459ZM11.6885-24.4799L46.9815-24.4799L46.2315-26.7285L12.4385-26.7285ZM55.1196 0L57.7637 0L30.6382-70.459L29.4326-70.459L29.4326-67.1323Z"/>
  </g>
  <line id="Baseline-M" style="fill:none;stroke:#27AAE1;opacity:1;stroke-width:0.5;" x1="263" x2="3036" y1="1126" y2="1126"/>
  <line id="Capline-M" style="fill:none;stroke:#27AAE1;opacity:1;stroke-width:0.5;" x1="263" x2="3036" y1="1055.54" y2="1055.54"/>
  <g id="H-reference" style="fill:#27AAE1;stroke:none;" transform="matrix(1 0 0 1 339 1556)">
   <path d="M0.993654 0L3.63775 0L29.3281-67.1323L30.0303-67.1323L30.0303-70.459L28.1226-70.459ZM11.6885-24.4799L46.9815-24.4799L46.2315-26.7285L12.4385-26.7285ZM55.1196 0L57.7637 0L30.6382-70.459L29.4326-70.459L29.4326-67.1323Z"/>
  </g>
  <line id="Baseline-L" style="fill:none;stroke:#27AAE1;opacity:1;stroke-width:0.5;" x1="263" x2="3036" y1="1556" y2="1556"/>
  <line id="Capline-L" style="fill:none;stroke:#27AAE1;opacity:1;stroke-width:0.5;" x1="263" x2="3036" y1="1485.54" y2="1485.54"/>
  <line id="left-margin-Regular-M" style="fill:none;stroke:#00AEEF;stroke-width:0.5;opacity:1.0;" x1="1368.03" x2="1368.03" y1="1030.79" y2="1150.12"/>
  <line id="right-margin-Regular-M" style="fill:none;stroke:#00AEEF;stroke-width:0.5;opacity:1.0;" x1="1531.65" x2="1531.65" y1="1030.79" y2="1150.12"/>
 </g>
 <g id="Symbols">
  <g id="Black-L" transform="matrix(1 0 0 1 2817.69 1556)">
   <path d="M93.1345 28.4143L155.263 28.4143C165.595 28.4143 172.405 21.8456 172.405 11.5746L172.405 2.60944C172.405 2.19056 172.683 1.91291 173.101 1.91291L177.459 1.91291C177.878 1.91291 178.155 2.19056 178.155 2.60944L178.155 6.30273C178.155 16.2815 184.839 22.7438 195.085 22.7438L198.405 22.7438C208.652 22.7438 215.335 16.3023 215.335 6.30273L215.335-37.4989C215.335-47.5957 208.827-53.9399 198.405-53.9399L195.085-53.9399C184.663-53.9399 178.155-47.5749 178.155-37.4989L178.155-33.9467C178.155-33.507 177.878-33.2293 177.459-33.2293L173.101-33.2293C172.683-33.2293 172.405-33.507 172.405-33.9467L172.405-42.8376C172.405-53.1413 165.776-59.6105 155.309-59.6105L152.271-59.6105L142.546-70.1636C139.575-73.3752 136.118-74.9611 132.033-74.9611L82.2093-74.9611C78.1248-74.9611 74.626-73.3544 71.6753-70.1636L61.9716-59.6105L57.1128-59.6105C46.8419-59.6105 40.0378-53.0245 40.0378-42.8376L40.0378-3.86768C40.0378 6.26087 46.821 12.9053 57.1128 12.9053L72.9563 12.9053L82.6808 23.6168C85.7108 26.9036 89.0471 28.4143 93.1345 28.4143ZM24.6143 4.71988C29.3138 4.71988 33.1447 0.848572 33.1447-3.86768L33.1447-15.8814L50.2541-15.8814L50.2541-30.7434L33.1447-30.7434L33.1447-42.7583C33.1447-47.437 29.293-51.2875 24.6143-51.2875C19.9345-51.2875 16.084-47.4162 16.084-42.7583L16.084-3.86768C16.084 0.869389 19.9553 4.71988 24.6143 4.71988ZM105.618-62.2216L120.48-62.2216L120.48-81.8919L139.3-81.8919C144.037-81.8919 147.83-85.6863 147.83-90.4234C147.83-95.1033 144.037-98.9537 139.3-98.9537L86.7793-98.9526C81.9618-98.9526 78.249-95.1021 78.249-90.4222C78.249-85.6059 82.041-81.8919 86.7793-81.8919L105.618-81.8919Z"/>
  </g>
  <g id="Heavy-L" transform="matrix(1 0 0 1 2523.7 1556)">
   <path d="M90.858 26.7237L152.76 26.7237C162.544 26.7237 168.868 20.6409 168.868 10.9127L168.868 1.21145C168.868 0.825096 169.118 0.575011 169.504 0.575011L174.631 0.575011C175.017 0.575011 175.268 0.825096 175.268 1.21145L175.268 5.81331C175.268 15.048 181.428 20.9687 190.986 20.9687L194.178 20.9687C203.735 20.9687 209.896 15.0782 209.896 5.81331L209.896-38.3328C209.896-47.6623 203.869-53.4881 194.178-53.4881L190.986-53.4881C181.294-53.4881 175.268-47.6321 175.268-38.3328L175.268-34.0957C175.268-33.6792 175.017-33.4291 174.631-33.4291L169.504-33.4291C169.118-33.4291 168.868-33.6792 168.868-34.0957L168.868-43.6104C168.868-53.2362 162.706-59.2431 152.908-59.2431L149.341-59.2431L139.397-70.0383C136.562-73.1093 133.351-74.5584 129.504-74.5584L79.9771-74.5584C76.1302-74.5584 72.8586-73.0791 70.0535-70.0383L60.1397-59.2431L54.6984-59.2431C45.0646-59.2431 38.7686-53.147 38.7686-43.6104L38.7686-4.37394C38.7686 5.11798 45.0344 11.2588 54.6984 11.2588L71.071 11.2588L81.0149 22.2036C83.8948 25.3034 86.9709 26.7237 90.858 26.7237ZM23.7186 3.2997C27.9272 3.2997 31.3533-0.181094 31.3533-4.37394L31.3533-17.1501L47.5528-17.1501L47.5528-30.7539L31.3533-30.7539L31.3533-43.5356C31.3533-47.714 27.897-51.1646 23.7186-51.1646C19.5346-51.1646 16.084-47.6838 16.084-43.5356L16.084-4.37394C16.084-0.150909 19.5648 3.2997 23.7186 3.2997ZM103.505-63.4365L117.109-63.4365L117.109-81.9882L136.216-81.9882C140.439-81.9882 143.851-85.4054 143.851-89.6285C143.851-93.8125 140.439-97.2631 136.216-97.2631L84.374-97.2575C80.0705-97.2575 76.7393-93.8069 76.7393-89.6228C76.7393-85.325 80.1453-81.9882 84.374-81.9882L103.505-81.9882Z"/>
  </g>
  <g id="Bold-L" transform="matrix(1 0 0 1 2230.63 1556)">
   <path d="M87.8592 24.4845L149.395 24.4845C158.443 24.4845 164.138 19.0309 164.138 10.0385L164.138-0.748541C164.138-1.10387 164.357-1.32312 164.712-1.32312L170.74-1.32312C171.095-1.32312 171.314-1.10387 171.314-0.748541L171.314 5.09452C171.314 13.355 176.8 18.5922 185.438 18.5922L188.49 18.5922C197.128 18.5922 202.614 13.393 202.614 5.09452L202.614-39.37C202.614-47.7021 197.216-52.8676 188.49-52.8676L185.438-52.8676C176.712-52.8676 171.314-47.6641 171.314-39.37L171.314-34.0938C171.314-33.7005 171.095-33.4813 170.74-33.4813L164.712-33.4813C164.357-33.4813 164.138-33.7005 164.138-34.0938L164.138-44.6677C164.138-53.3664 158.597-58.7599 149.711-58.7599L145.416-58.7599L135.211-69.8473C132.552-72.7342 129.648-74.0143 126.086-74.0143L77.0544-74.0143C73.4921-74.0143 70.5122-72.6962 67.8914-69.8473L57.7239-58.7599L51.4783-58.7599C42.7178-58.7599 37.0891-53.308 37.0891-44.6677L37.0891-4.99649C37.0891 3.61465 42.6799 9.09574 51.4783 9.09574L68.5711 9.09574L78.7767 20.3175C81.4646 23.1868 84.2254 24.4845 87.8592 24.4845ZM22.5748 1.51028C26.154 1.51028 29.0656-1.46408 29.0656-4.99649L29.0656-18.837L44.1804-18.837L44.1804-30.7468L29.0656-30.7468L29.0656-44.6005C29.0656-48.1417 26.116-51.0781 22.5748-51.0781C19.0204-51.0781 16.084-48.1037 16.084-44.6005L16.084-4.99649C16.084-1.42609 19.0583 1.51028 22.5748 1.51028ZM100.58-64.9052L112.49-64.9052L112.49-82.0291L132.017-82.0291C135.587-82.0291 138.508-84.9627 138.508-88.5331C138.508-92.0875 135.587-95.0239 132.017-95.0239L81.0275-95.0107C77.3767-95.0107 74.5367-92.0743 74.5367-88.5199C74.5367-84.8823 77.4439-82.0291 81.0275-82.0291L100.58-82.0291Z"/>
  </g>
  <g id="Semibold-L" transform="matrix(1 0 0 1 1936.43 1556)">
   <path d="M85.7918 22.9408L147.075 22.9408C155.616 22.9408 160.877 17.921 160.877 9.43573L160.877-2.09975C160.877-2.43369 161.075-2.63167 161.409-2.63167L168.057-2.63167C168.391-2.63167 168.589-2.43369 168.589-2.09975L168.589 4.59899C168.589 12.1878 173.609 16.9539 181.612 16.9539L184.569 16.9539C192.573 16.9539 197.593 12.2312 197.593 4.59899L197.593-40.085C197.593-47.7295 192.629-52.4399 184.569-52.4399L181.612-52.4399C173.553-52.4399 168.589-47.6861 168.589-40.085L168.589-34.0925C168.589-33.7152 168.391-33.5172 168.057-33.5172L161.409-33.5172C161.075-33.5172 160.877-33.7152 160.877-34.0925L160.877-45.3966C160.877-53.4562 155.764-58.4268 147.507-58.4268L142.71-58.4268L132.324-69.7157C129.787-72.4756 127.095-73.6392 123.729-73.6392L75.0395-73.6392C71.6735-73.6392 68.8946-72.4322 66.4009-69.7157L56.0584-58.4268L49.2584-58.4268C41.1-58.4268 35.9313-53.4191 35.9313-45.3966L35.9313-5.42566C35.9313 2.57827 41.0566 7.60456 49.2584 7.60456L66.8477 7.60456L77.2336 19.0173C79.7893 21.7276 82.3327 22.9408 85.7918 22.9408ZM21.7862 0.276668C24.9315 0.276668 27.4885-2.34856 27.4885-5.42566L27.4885-19.9999L41.8555-19.9999L41.8555-30.7419L27.4885-30.7419L27.4885-45.3346C27.4885-48.4365 24.8881-51.0184 21.7862-51.0184C18.6658-51.0184 16.084-48.3932 16.084-45.3346L16.084-5.42566C16.084-2.30519 18.7092 0.276668 21.7862 0.276668ZM98.5628-65.9178L109.305-65.9178L109.305-82.0572L129.122-82.0572C132.243-82.0572 134.825-84.6575 134.825-87.778C134.825-90.8983 132.243-93.4802 129.122-93.4802L78.7205-93.4617C75.5196-93.4617 73.0182-90.8799 73.0182-87.7595C73.0182-84.5771 75.5815-82.0572 78.7205-82.0572L98.5628-82.0572Z"/>
  </g>
  <g id="Medium-L" transform="matrix(1 0 0 1 1641.62 1556)">
   <path d="M84.2242 21.7703L145.316 21.7703C153.472 21.7703 158.404 17.0794 158.404 8.97872L158.404-3.12429C158.404-3.44201 158.586-3.62388 158.904-3.62388L166.023-3.62388C166.341-3.62388 166.523-3.44201 166.523-3.12429L166.523 4.22326C166.523 11.3029 171.189 15.7116 178.712 15.7116L181.596 15.7116C189.119 15.7116 193.786 11.3503 193.786 4.22326L193.786-40.6272C193.786-47.7503 189.151-52.1155 181.596-52.1155L178.712-52.1155C171.158-52.1155 166.523-47.7028 166.523-40.6272L166.523-34.0916C166.523-33.7264 166.341-33.5445 166.023-33.5445L158.904-33.5445C158.586-33.5445 158.404-33.7264 158.404-34.0916L158.404-45.9492C158.404-53.5243 153.616-58.1742 145.835-58.1742L140.659-58.1742L130.136-69.6158C127.691-72.2795 125.16-73.3547 121.942-73.3547L73.5117-73.3547C70.2945-73.3547 67.6681-72.2321 65.2707-69.6158L54.7955-58.1742L47.5751-58.1742C39.8733-58.1742 35.0534-53.5033 35.0534-45.9492L35.0534-5.75108C35.0534 1.79244 39.8258 6.47389 47.5751 6.47389L65.541 6.47389L76.0636 18.0314C78.519 20.6212 80.8976 21.7703 84.2242 21.7703ZM21.1883-0.658709C24.0046-0.658709 26.2926-3.01921 26.2926-5.75108L26.2926-20.8817L40.0926-20.8817L40.0926-30.7382L26.2926-30.7382L26.2926-45.8913C26.2926-48.6601 23.9571-50.9731 21.1883-50.9731C18.397-50.9731 16.084-48.6126 16.084-45.8913L16.084-5.75108C16.084-2.97177 18.4445-0.658709 21.1883-0.658709ZM97.0335-66.6856L106.89-66.6856L106.89-82.0786L126.927-82.0786C129.707-82.0786 132.032-84.4261 132.032-87.2054C132.032-89.9967 129.707-92.3097 126.927-92.3097L76.9712-92.2872C74.1114-92.2872 71.8669-89.9742 71.8669-87.1829C71.8669-84.3456 74.1694-82.0786 76.9712-82.0786L97.0335-82.0786Z"/>
  </g>
  <g id="Regular-L" transform="matrix(1 0 0 1 1347.39 1556)">
   <path d="M82.1795 20.2436L143.022 20.2436C150.676 20.2436 155.179 15.9817 155.179 8.38262L155.179-4.46064C155.179-4.75722 155.34-4.91806 155.637-4.91806L163.37-4.91806C163.666-4.91806 163.827-4.75722 163.827-4.46064L163.827 3.73317C163.827 10.1485 168.034 14.0913 174.929 14.0913L177.719 14.0913C184.614 14.0913 188.82 10.2013 188.82 3.73317L188.82-41.3343C188.82-47.7774 184.614-51.6924 177.719-51.6924L174.929-51.6924C168.034-51.6924 163.827-47.7246 163.827-41.3343L163.827-34.0903C163.827-33.7409 163.666-33.5801 163.37-33.5801L155.637-33.5801C155.34-33.5801 155.179-33.7409 155.179-34.0903L155.179-46.6701C155.179-53.6131 150.814-57.8447 143.655-57.8447L137.983-57.8447L127.282-69.4856C124.957-72.0238 122.635-72.9837 119.612-72.9837L71.519-72.9837C68.4958-72.9837 66.0683-71.971 63.7965-69.4856L53.1483-57.8447L45.3796-57.8447C38.2732-57.8447 33.9084-53.6131 33.9084-46.6701L33.9084-6.17554C33.9084 0.76744 38.2204 4.9991 45.3796 4.9991L63.8365 4.9991L74.5375 16.7455C76.862 19.1781 79.0257 20.2436 82.1795 20.2436ZM20.4084-1.87877C22.7955-1.87877 24.7328-3.89397 24.7328-6.17554L24.7328-22.0318L37.7932-22.0318L37.7932-30.7334L24.7328-30.7334L24.7328-46.6173C24.7328-48.9517 22.7427-50.9141 20.4084-50.9141C18.0464-50.9141 16.084-48.8989 16.084-46.6173L16.084-6.17554C16.084-3.84121 18.0992-1.87877 20.4084-1.87877ZM95.0387-67.687L103.74-67.687L103.74-82.1065L124.064-82.1065C126.399-82.1065 128.389-84.1242 128.389-86.4585C128.389-88.8205 126.399-90.783 124.064-90.783L74.6895-90.7553C72.2747-90.7553 70.3651-88.7929 70.3651-86.4309C70.3651-84.0438 72.3275-82.1065 74.6895-82.1065L95.0387-82.1065Z"/>
  </g>
  <g id="Light-L" transform="matrix(1 0 0 1 1054.96 1556)">
   <path d="M78.9541 17.7625L138.995 17.7625C145.771 17.7625 149.664 14.1114 149.664 7.42836L149.664-7.28526C149.664-7.62001 149.824-7.78085 150.159-7.78085L158.179-7.78085C158.513-7.78085 158.674-7.62001 158.674-7.28526L158.674 2.51171C158.674 7.91554 162.232 11.3048 168.058 11.3048L170.886 11.3048C176.713 11.3048 180.27 7.94922 180.27 2.51171L180.27-42.0787C180.27-47.5292 176.713-50.8718 170.886-50.8718L168.058-50.8718C162.232-50.8718 158.674-47.4956 158.674-42.0787L158.674-32.8879C158.674-32.5195 158.513-32.3586 158.179-32.3586L150.159-32.3586C149.824-32.3586 149.664-32.5195 149.664-32.8879L149.664-48.0443C149.664-53.7849 146.005-57.3294 140.01-57.3294L133.364-57.3294L122.548-69.123C120.396-71.4703 118.303-72.3157 115.413-72.3157L68.4844-72.3157C65.5948-72.3157 63.4345-71.4366 61.3154-69.123L50.5337-57.3294L41.677-57.3294C35.7158-57.3294 32.0571-53.7849 32.0571-48.0443L32.0571-6.57633C32.0571-0.835723 35.6821 2.70886 41.677 2.70886L61.0501 2.70886L71.8656 14.5698C74.0183 16.8497 76.0102 17.7625 78.9541 17.7625ZM19.3969-3.31016C21.2114-3.31016 22.7098-4.82915 22.7098-6.57633L22.7098-23.9403L35.2931-23.9403L35.2931-30.5998L22.7098-30.5998L22.7098-48.0106C22.7098-49.7914 21.1778-51.2767 19.3969-51.2767C17.5693-51.2767 16.084-49.7578 16.084-48.0106L16.084-6.57633C16.084-4.79547 17.603-3.31016 19.3969-3.31016ZM91.0308-68.4695L97.6903-68.4695L97.6903-81.6293L118.721-81.6293C120.501-81.6293 122.033-83.2081 122.033-84.989C122.033-86.8166 120.501-88.3019 118.721-88.3019L70.0136-88.2551C68.1523-88.2551 66.7007-86.7698 66.7007-84.9422C66.7007-83.1277 68.186-81.6293 70.0136-81.6293L91.0308-81.6293Z"/>
  </g>
  <g id="Thin-L" transform="matrix(1 0 0 1 763.899 1556)">
   <path d="M74.6883 14.4811L133.669 14.4811C139.284 14.4811 142.369 11.6377 142.369 6.16627L142.369-11.0211C142.369-11.4063 142.53-11.5671 142.915-11.5671L151.313-11.5671C151.698-11.5671 151.859-11.4063 151.859-11.0211L151.859 0.896237C151.859 4.96225 154.558 7.6195 158.971 7.6195L161.849 7.6195C166.262 7.6195 168.962 4.97069 168.962 0.896237L168.962-43.0631C168.962-47.2011 166.262-49.7864 161.849-49.7864L158.971-49.7864C154.558-49.7864 151.859-47.1927 151.859-43.0631L151.859-31.2977C151.859-30.904 151.698-30.7432 151.313-30.7432L142.915-30.7432C142.53-30.7432 142.369-30.904 142.369-31.2977L142.369-49.8617C142.369-54.012 139.644-56.6479 135.189-56.6479L127.255-56.6479L116.288-68.6434C114.363-70.7383 112.573-71.4323 109.86-71.4323L64.471-71.4323C61.7581-71.4323 59.9512-70.7298 58.034-68.6434L47.0755-56.6479L36.7801-56.6479C32.3334-56.6479 29.6086-54.012 29.6086-49.8617L29.6086-7.10641C29.6086-2.95604 32.3249-0.320156 36.7801-0.320156L57.3648-0.320156L68.3317 11.6922C70.2573 13.7702 72.022 14.4811 74.6883 14.4811ZM18.0591-5.2033C19.1164-5.2033 20.0342-6.066 20.0342-7.10641L20.0342-26.4645L31.9864-26.4645L31.9864-30.4231L20.0342-30.4231L20.0342-49.8532C20.0342-50.9021 19.1079-51.7563 18.0591-51.7563C16.9382-51.7563 16.084-50.8936 16.084-49.8532L16.084-7.10641C16.084-6.05756 16.9467-5.2033 18.0591-5.2033ZM85.73-69.5044L89.6886-69.5044L89.6886-80.9983L111.653-80.9983C112.702-80.9983 113.628-81.9965 113.628-83.0454C113.628-84.1662 112.702-85.0205 111.653-85.0205L63.8294-84.9485C62.7001-84.9485 61.8543-84.0942 61.8543-82.9734C61.8543-81.9161 62.7085-80.9983 63.8294-80.9983L85.73-80.9983Z"/>
  </g>
  <g id="Ultralight-L" transform="matrix(1 0 0 1 470.084 1556)">
   <path d="M72.5033 12.8003L130.941 12.8003C135.961 12.8003 138.632 10.3706 138.632 5.51983L138.632-12.9345C138.632-13.3456 138.793-13.5064 139.204-13.5064L147.796-13.5064C148.207-13.5064 148.368-13.3456 148.368-12.9345L148.368 0.0687981C148.368 3.44959 150.628 5.7319 154.317 5.7319L157.221 5.7319C160.91 5.7319 163.17 3.4451 163.17 0.0687981L163.17-43.5673C163.17-47.033 160.91-49.2304 157.221-49.2304L154.317-49.2304C150.628-49.2304 148.368-47.0375 148.368-43.5673L148.368-30.4832C148.368-30.0766 148.207-29.9157 147.796-29.9157L139.204-29.9157C138.793-29.9157 138.632-30.0766 138.632-30.4832L138.632-50.7925C138.632-54.1284 136.386-56.2988 132.719-56.2988L124.127-56.2988L113.082-68.3978C111.273-70.3633 109.638-70.9797 107.016-70.9797L62.4153-70.9797C59.7929-70.9797 58.167-70.3678 56.3533-68.3978L45.3043-56.2988L34.2719-56.2988C30.6009-56.2988 28.3546-54.1284 28.3546-50.7925L28.3546-7.37791C28.3546-4.04205 30.6054-1.8716 34.2719-1.8716L55.4772-1.8716L66.5217 10.2183C68.3309 12.1929 69.9793 12.8003 72.5033 12.8003ZM17.3739-6.17295C18.0433-6.17295 18.6637-6.69951 18.6637-7.37791L18.6637-27.7574L30.2927-27.7574L30.2927-30.3326L18.6637-30.3326L18.6637-50.797C18.6637-51.4709 18.0478-52.002 17.3739-52.002C16.615-52.002 16.084-51.4754 16.084-50.797L16.084-7.37791C16.084-6.704 16.6105-6.17295 17.3739-6.17295ZM83.015-70.0345L85.5902-70.0345L85.5902-80.6751L108.033-80.6751C108.707-80.6751 109.323-81.3759 109.323-82.0498C109.323-82.8087 108.707-83.3397 108.033-83.3397L60.6618-83.2548C59.9075-83.2548 59.3719-82.7238 59.3719-81.9649C59.3719-81.2955 59.903-80.6751 60.6618-80.6751L83.015-80.6751Z"/>
  </g>
  <g id="Black-M" transform="matrix(1 0 0 1 2842 1126)">
   <path d="M73.6746 15.1949L121.895 15.1949C130.251 15.1949 135.862 9.77094 135.862 1.47122L135.862-5.09531C135.862-5.45295 136.101-5.69175 136.458-5.69175L139.212-5.69175C139.569-5.69175 139.808-5.45295 139.808-5.09531L139.808-2.79761C139.808 5.43582 145.347 10.8329 153.732 10.8329L156.421 10.8329C164.806 10.8329 170.344 5.44131 170.344-2.79761L170.344-36.3719C170.344-44.7192 164.977-50.0024 156.421-50.0024L153.732-50.0024C145.176-50.0024 139.808-44.7137 139.808-36.3719L139.808-33.9446C139.808-33.5815 139.569-33.3427 139.212-33.3427L136.458-33.3427C136.101-33.3427 135.862-33.5815 135.862-33.9446L135.862-40.6457C135.862-49.0483 130.421-54.3644 121.894-54.3644L119.863-54.3644L112.502-62.3529C110.106-64.9361 107.247-66.2668 103.896-66.2668L65.1983-66.2668C61.8477-66.2668 58.9779-64.9306 56.5874-62.3529L49.2321-54.3644L45.8211-54.3644C37.4713-54.3644 31.859-48.9341 31.859-40.6457L31.859-10.5514C31.859-2.32014 37.4658 3.16727 45.8211 3.16727L57.7652 3.16727L65.126 11.281C67.5791 13.9674 70.3643 15.1949 73.6746 15.1949ZM19.7025-3.25244C23.6877-3.25244 26.9441-6.52008 26.9441-10.5514L26.9441-19.4079L40.9168-19.4079L40.9168-31.7269L26.9441-31.7269L26.9441-40.5831C26.9441-44.5628 23.6822-47.825 19.7025-47.825C15.7231-47.825 12.4609-44.5573 12.4609-40.5831L12.4609-10.5514C12.4609-6.51459 15.7286-3.25244 19.7025-3.25244ZM83.0998-55.2033L95.4188-55.2033L95.4188-71.2333L109.848-71.2333C113.884-71.2333 117.089-74.4378 117.089-78.4746C117.089-82.454 113.884-85.7162 109.848-85.7162L68.6652-85.7165C64.5662-85.7165 61.4237-82.4543 61.4237-78.4749C61.4237-74.3755 64.6287-71.2333 68.6652-71.2333L83.0998-71.2333Z"/>
  </g>
  <g id="Heavy-M" transform="matrix(1 0 0 1 2547.55 1126)">
   <path d="M71.7468 13.7711L119.819 13.7711C127.721 13.7711 132.913 8.76578 132.913 0.912183L132.913-6.20136C132.913-6.52369 133.125-6.73554 133.447-6.73554L136.926-6.73554C137.249-6.73554 137.461-6.52369 137.461-6.20136L137.461-3.16337C137.461 4.43598 142.548 9.35467 150.359 9.35467L152.918 9.35467C160.729 9.35467 165.817 4.45239 165.817-3.16337L165.817-37.1184C165.817-44.8072 160.86-49.6364 152.918-49.6364L150.359-49.6364C142.418-49.6364 137.461-44.7908 137.461-37.1184L137.461-34.2013C137.461-33.8625 137.249-33.6507 136.926-33.6507L133.447-33.6507C133.125-33.6507 132.913-33.8625 132.913-34.2013L132.913-41.2745C132.913-49.1252 127.863-54.0528 119.883-54.0528L117.425-54.0528L109.86-62.2639C107.581-64.7272 104.942-65.9348 101.811-65.9348L63.2961-65.9348C60.1655-65.9348 57.4932-64.7108 55.231-62.2639L47.6825-54.0528L43.8024-54.0528C35.9698-54.0528 30.789-49.0379 30.789-41.2745L30.789-11.0093C30.789-3.2895 35.9534 1.76899 43.8024 1.76899L56.1791 1.76899L63.744 10.1002C66.0662 12.6179 68.6129 13.7711 71.7468 13.7711ZM18.9202-4.5087C22.4783-4.5087 25.3795-7.44038 25.3795-11.0093L25.3795-20.4721L38.5068-20.4721L38.5068-31.7494L25.3795-31.7494L25.3795-41.2145C25.3795-44.7562 22.4619-47.6715 18.9202-47.6715C15.3762-47.6715 12.4609-44.7398 12.4609-41.2145L12.4609-11.0093C12.4609-7.42397 15.3926-4.5087 18.9202-4.5087ZM81.404-56.3188L92.6814-56.3188L92.6814-71.3715L107.326-71.3715C110.911-71.3715 113.785-74.2477 113.785-77.8331C113.785-81.3771 110.911-84.2923 107.326-84.2923L66.7452-84.2901C63.0976-84.2901 60.286-81.3748 60.286-77.8308C60.286-74.1854 63.1576-71.3715 66.7452-71.3715L81.404-71.3715Z"/>
  </g>
  <g id="Bold-M" transform="matrix(1 0 0 1 2253.37 1126)">
   <path d="M69.5903 12.1783L117.497 12.1783C124.891 12.1783 129.614 7.64137 129.614 0.286823L129.614-7.43864C129.614-7.72147 129.796-7.90317 130.079-7.90317L134.37-7.90317C134.653-7.90317 134.834-7.72147 134.834-7.43864L134.834-3.57252C134.834 3.31752 139.418 7.70106 146.586 7.70106L149 7.70106C156.168 7.70106 160.752 3.34614 160.752-3.57252L160.752-37.9534C160.752-44.9057 156.254-49.227 149-49.227L146.586-49.227C139.332-49.227 134.834-44.8771 134.834-37.9534L134.834-34.4883C134.834-34.1769 134.653-33.9952 134.37-33.9952L130.079-33.9952C129.796-33.9952 129.614-34.1769 129.614-34.4883L129.614-41.9779C129.614-49.2112 125.002-53.7043 117.634-53.7043L114.698-53.7043L106.905-62.1644C104.757-64.4935 102.363-65.5634 99.4787-65.5634L61.1682-65.5634C58.2837-65.5634 55.8323-64.4649 53.7136-62.1644L45.9491-53.7043L41.5442-53.7043C34.2902-53.7043 29.5921-49.1541 29.5921-41.9779L29.5921-11.5216C29.5921-4.37387 34.2616 0.20482 41.5442 0.20482L54.4049 0.20482L62.198 8.77928C64.3739 11.1083 66.6536 12.1783 69.5903 12.1783ZM18.0451-5.91402C21.1255-5.91402 23.6292-8.46986 23.6292-11.5216L23.6292-21.6625L35.8108-21.6625L35.8108-31.7746L23.6292-31.7746L23.6292-41.9207C23.6292-44.9725 21.0969-47.4997 18.0451-47.4997C14.9882-47.4997 12.4609-44.9439 12.4609-41.9207L12.4609-11.5216C12.4609-8.44124 15.0168-5.91402 18.0451-5.91402ZM79.5071-57.5665L89.6192-57.5665L89.6192-71.5261L104.505-71.5261C107.586-71.5261 110.089-74.0351 110.089-77.1154C110.089-80.1724 107.586-82.6996 104.505-82.6996L64.5974-82.6944C61.4548-82.6944 59.0133-80.1672 59.0133-77.1103C59.0133-73.9728 61.512-71.5261 64.5974-71.5261L79.5071-71.5261Z"/>
  </g>
  <g id="Semibold-M" transform="matrix(1 0 0 1 1958.41 1126)">
   <path d="M68.1036 11.0802L115.897 11.0802C122.939 11.0802 127.34 6.8662 127.34-0.144297L127.34-8.29161C127.34-8.5472 127.501-8.70813 127.757-8.70813L132.607-8.70813C132.863-8.70813 133.024-8.5472 133.024-8.29161L133.024-3.85459C133.024 2.54646 137.26 6.56107 143.985 6.56107L146.299 6.56107C153.024 6.56107 157.26 2.5835 157.26-3.85459L157.26-38.5291C157.26-44.9736 153.079-48.9448 146.299-48.9448L143.985-48.9448C137.205-48.9448 133.024-44.9366 133.024-38.5291L133.024-34.6863C133.024-34.3936 132.863-34.2327 132.607-34.2327L127.757-34.2327C127.501-34.2327 127.34-34.3936 127.34-34.6863L127.34-42.4627C127.34-49.2705 123.029-53.464 116.083-53.464L112.818-53.464L104.867-62.0957C102.81-64.3324 100.585-65.3073 97.8707-65.3073L59.7012-65.3073C56.9864-65.3073 54.6873-64.2954 52.6675-62.0957L44.7542-53.464L39.9874-53.464C33.1323-53.464 28.7669-49.2342 28.7669-42.4627L28.7669-11.8747C28.7669-5.12142 33.0953-0.873511 39.9874-0.873511L53.1818-0.873511L61.1322 7.86865C63.2072 10.0676 65.3029 11.0802 68.1036 11.0802ZM17.4418-6.88284C20.1929-6.88284 22.4226-9.17958 22.4226-11.8747L22.4226-22.4832L33.9522-22.4832L33.9522-31.792L22.4226-31.792L22.4226-42.4075C22.4226-45.1216 20.1558-47.3813 17.4418-47.3813C14.7206-47.3813 12.4609-45.0845 12.4609-42.4075L12.4609-11.8747C12.4609-9.14254 14.7577-6.88284 17.4418-6.88284ZM78.1993-58.4268L87.5081-58.4268L87.5081-71.6327L102.561-71.6327C105.293-71.6327 107.542-73.8885 107.542-76.6207C107.542-79.3418 105.293-81.6015 102.561-81.6015L63.1168-81.5944C60.3223-81.5944 58.1359-79.3347 58.1359-76.6136C58.1359-73.8262 60.3775-71.6327 63.1168-71.6327L78.1993-71.6327Z"/>
  </g>
  <g id="Medium-M" transform="matrix(1 0 0 1 1663.02 1126)">
   <path d="M66.9763 10.2476L114.683 10.2476C121.46 10.2476 125.616 6.27844 125.616-0.47119L125.616-8.93837C125.616-9.17331 125.761-9.31848 125.996-9.31848L131.271-9.31848C131.506-9.31848 131.651-9.17331 131.651-8.93837L131.651-4.06847C131.651 1.96181 135.623 5.69668 142.013 5.69668L144.251 5.69668C150.64 5.69668 154.613 2.00523 154.613-4.06847L154.613-38.9657C154.613-45.0251 150.671-48.7308 144.251-48.7308L142.013-48.7308C135.593-48.7308 131.651-44.9817 131.651-38.9657L131.651-34.8363C131.651-34.5579 131.506-34.4128 131.271-34.4128L125.996-34.4128C125.761-34.4128 125.616-34.5579 125.616-34.8363L125.616-42.8304C125.616-49.3155 121.534-53.2818 114.907-53.2818L111.392-53.2818L103.323-62.0437C101.334-64.2103 99.2375-65.1132 96.6514-65.1132L58.5889-65.1132C56.0027-65.1132 53.8191-64.1669 51.8743-62.0437L43.8481-53.2818L38.807-53.2818C32.2544-53.2818 28.1413-49.2949 28.1413-42.8304L28.1413-12.1425C28.1413-5.68825 32.211-1.69115 38.807-1.69115L52.2544-1.69115L60.324 7.17817C62.3226 9.27847 64.2788 10.2476 66.9763 10.2476ZM16.9843-7.61743C19.4857-7.61743 21.5077-9.71772 21.5077-12.1425L21.5077-23.1055L32.5429-23.1055L32.5429-31.8052L21.5077-31.8052L21.5077-42.7767C21.5077-45.2346 19.4423-47.2915 16.9843-47.2915C14.5178-47.2915 12.4609-45.1912 12.4609-42.7767L12.4609-12.1425C12.4609-9.67429 14.5612-7.61743 16.9843-7.61743ZM77.2077-59.079L85.9074-59.079L85.9074-71.7135L101.086-71.7135C103.555-71.7135 105.61-73.7773 105.61-76.2455C105.61-78.7121 103.555-80.7689 101.086-80.7689L61.9941-80.7603C59.4635-80.7603 57.4707-78.7035 57.4707-76.2369C57.4707-73.715 59.5172-71.7135 61.9941-71.7135L77.2077-71.7135Z"/>
  </g>
  <g id="Regular-M" transform="matrix(1 0 0 1 1368.03 1126)">
   <path d="M65.5059 9.16167L113.1 9.16167C119.53 9.16167 123.367 5.5118 123.367-0.897571L123.367-9.78196C123.367-9.98998 123.492-10.1146 123.7-10.1146L129.528-10.1146C129.736-10.1146 129.86-9.98998 129.86-9.78196L129.86-4.34743C129.86 1.19922 133.489 4.56922 139.44 4.56922L141.58 4.56922C147.531 4.56922 151.159 1.25097 151.159-4.34743L151.159-39.535C151.159-45.0922 147.531-48.4517 141.58-48.4517L139.44-48.4517C133.489-48.4517 129.86-45.0405 129.86-39.535L129.86-35.0321C129.86-34.7723 129.736-34.6477 129.528-34.6477L123.7-34.6477C123.492-34.6477 123.367-34.7723 123.367-35.0321L123.367-43.31C123.367-49.3742 119.583-53.0441 113.373-53.0441L109.533-53.0441L101.308-61.9758C99.4088-64.051 97.4793-64.8599 95.061-64.8599L57.138-64.8599C54.7197-64.8599 52.6867-63.9992 50.8397-61.9758L42.6662-53.0441L37.2674-53.0441C31.1092-53.0441 27.3252-49.3742 27.3252-43.31L27.3252-12.4918C27.3252-6.4276 31.0575-2.75763 37.2674-2.75763L51.0447-2.75763L59.2699 6.27755C61.1687 8.2492 62.9429 9.16167 65.5059 9.16167ZM16.3877-8.57561C18.5633-8.57561 20.3144-10.4196 20.3144-12.4918L20.3144-23.9171L30.7047-23.9171L30.7047-31.8223L20.3144-31.8223L20.3144-43.2582C20.3144-45.3821 18.5116-47.1744 16.3877-47.1744C14.2532-47.1744 12.4609-45.3304 12.4609-43.2582L12.4609-12.4918C12.4609-10.3679 14.305-8.57561 16.3877-8.57561ZM75.9144-59.9298L83.8196-59.9298L83.8196-71.8189L99.1631-71.8189C101.287-71.8189 103.09-73.6323 103.09-75.7562C103.09-77.8907 101.287-79.683 99.1631-79.683L60.5296-79.6724C58.3434-79.6724 56.6029-77.8801 56.6029-75.7457C56.6029-73.57 58.3952-71.8189 60.5296-71.8189L75.9144-71.8189Z"/>
  </g>
  <g id="Light-M" transform="matrix(1 0 0 1 1075.16 1126)">
   <path d="M62.6142 6.93724L109.489 6.93724C115.133 6.93724 118.422 3.83493 118.422-1.75312L118.422-12.3144C118.422-12.5566 118.547-12.6812 118.789-12.6812L124.873-12.6812C125.116-12.6812 125.24-12.5566 125.24-12.3144L125.24-5.44253C125.24-0.80276 128.287 2.07102 133.28 2.07102L135.454 2.07102C140.447 2.07102 143.494-0.768117 143.494-5.44253L143.494-40.2024C143.494-44.8698 140.447-47.7159 135.454-47.7159L133.28-47.7159C128.287-47.7159 125.24-44.8351 125.24-40.2024L125.24-33.9541C125.24-33.6772 125.116-33.5526 124.873-33.5526L118.789-33.5526C118.547-33.5526 118.422-33.6772 118.422-33.9541L118.422-44.542C118.422-49.5282 115.271-52.5821 110.105-52.5821L105.392-52.5821L97.064-61.6507C95.3193-63.5547 93.5951-64.261 91.2966-64.261L54.4174-64.261C52.1188-64.261 50.3254-63.5201 48.6153-61.6507L40.322-52.5821L33.9478-52.5821C28.8163-52.5821 25.6654-49.5282 25.6654-44.542L25.6654-12.8511C25.6654-7.86491 28.7817-4.81094 33.9478-4.81094L48.5465-4.81094L56.8744 4.32691C58.6192 6.16166 60.2394 6.93724 62.6142 6.93724ZM15.4808-9.85893C17.1431-9.85893 18.5006-11.2581 18.5006-12.8511L18.5006-25.6282L28.4632-25.6282L28.4632-31.7026L18.5006-31.7026L18.5006-44.5073C18.5006-46.135 17.1085-47.4995 15.4808-47.4995C13.8254-47.4995 12.4609-46.1004 12.4609-44.5073L12.4609-12.8511C12.4609-11.2234 13.8601-9.85893 15.4808-9.85893ZM72.3211-60.6313L78.3954-60.6313L78.3954-71.3912L94.372-71.3912C95.9997-71.3912 97.3919-72.811 97.3919-74.4387C97.3919-76.094 95.9997-77.4585 94.372-77.4585L56.3375-77.4309C54.6475-77.4309 53.3176-76.0664 53.3176-74.411C53.3176-72.7487 54.6821-71.3912 56.3375-71.3912L72.3211-71.3912Z"/>
  </g>
  <g id="Thin-M" transform="matrix(1 0 0 1 783.514 1126)">
   <path d="M58.7896 3.99527L104.714 3.99527C109.317 3.99527 111.882 1.61713 111.882-2.88465L111.882-15.6637C111.882-15.9512 112.006-16.0758 112.294-16.0758L118.718-16.0758C119.005-16.0758 119.13-15.9512 119.13-15.6637L119.13-6.89089C119.13-3.45054 121.408-1.23305 125.133-1.23305L127.352-1.23305C131.078-1.23305 133.355-3.43853 133.355-6.89089L133.355-41.0849C133.355-44.5756 131.078-46.7428 127.352-46.7428L125.133-46.7428C121.408-46.7428 119.13-44.5636 119.13-41.0849L119.13-32.5283C119.13-32.2288 119.005-32.1042 118.718-32.1042L112.294-32.1042C112.006-32.1042 111.882-32.2288 111.882-32.5283L111.882-46.1714C111.882-49.7318 109.568-51.9711 105.782-51.9711L99.9153-51.9711L91.4517-61.2207C89.9105-62.8984 88.458-63.469 86.3179-63.469L50.8191-63.469C48.679-63.469 47.2024-62.8864 45.6733-61.2207L37.2216-51.9711L29.5575-51.9711C25.7838-51.9711 23.4703-49.7318 23.4703-46.1714L23.4703-13.3264C23.4703-9.76588 25.7718-7.52661 29.5575-7.52661L45.2424-7.52661L53.7061 1.74702C55.2472 3.40073 56.6637 3.99527 58.7896 3.99527ZM14.2814-11.5562C15.2648-11.5562 16.1018-12.367 16.1018-13.3264L16.1018-27.8913L25.4986-27.8913L25.4986-31.5441L16.1018-31.5441L16.1018-46.1593C16.1018-47.1307 15.2528-47.9295 14.2814-47.9295C13.2597-47.9295 12.4609-47.1187 12.4609-46.1593L12.4609-13.3264C12.4609-12.355 13.2717-11.5562 14.2814-11.5562ZM67.5686-61.5592L71.2215-61.5592L71.2215-70.8254L88.0355-70.8254C89.0069-70.8254 89.8559-71.7247 89.8559-72.6961C89.8559-73.7178 89.0069-74.5166 88.0355-74.5166L50.793-74.4663C49.7593-74.4663 48.9725-73.6675 48.9725-72.6458C48.9725-71.6624 49.7713-70.8254 50.793-70.8254L67.5686-70.8254Z"/>
  </g>
  <g id="Ultralight-M" transform="matrix(1 0 0 1 489.399 1126)">
   <path d="M56.8307 2.4884L102.268 2.4884C106.338 2.4884 108.532 0.481183 108.532-3.46421L108.532-17.3792C108.532-17.6899 108.656-17.8145 108.967-17.8145L115.565-17.8145C115.876-17.8145 116-17.6899 116-17.3792L116-7.63273C116-4.80672 117.884-2.92537 120.96-2.92537L123.202-2.92537C126.279-2.92537 128.162-4.8063 128.162-7.63273L128.162-41.537C128.162-44.4249 126.279-46.2444 123.202-46.2444L120.96-46.2444C117.884-46.2444 116-44.4245 116-41.537L116-31.7981C116-31.487 115.876-31.3624 115.565-31.3624L108.967-31.3624C108.656-31.3624 108.532-31.487 108.532-31.7981L108.532-47.0059C108.532-49.8362 106.647-51.6581 103.568-51.6581L97.1102-51.6581L88.577-61.0005C87.1402-62.5623 85.8268-63.0633 83.7678-63.0633L48.9761-63.0633C46.9171-63.0633 45.6028-62.5619 44.1664-61.0005L35.6336-51.6581L27.3088-51.6581C24.2306-51.6581 22.3459-49.8362 22.3459-47.0059L22.3459-13.5698C22.3459-10.7396 24.2302-8.91757 27.3088-8.91757L43.5501-8.91757L52.0833 0.425612C53.5201 1.9866 54.8323 2.4884 56.8307 2.4884ZM13.667-12.4256C14.3027-12.4256 14.8731-12.9349 14.8731-13.5698L14.8731-29.0504L23.9801-29.0504L23.9801-31.463L14.8731-31.463L14.8731-47.0055C14.8731-47.6408 14.3023-48.1497 13.667-48.1497C12.9699-48.1497 12.4609-47.6403 12.4609-47.0055L12.4609-13.5698C12.4609-12.9345 12.9703-12.4256 13.667-12.4256ZM65.1345-62.0344L67.5471-62.0344L67.5471-70.5356L84.7899-70.5356C85.4252-70.5356 85.996-71.1683 85.996-71.8036C85.996-72.5007 85.4252-73.0097 84.7899-73.0097L47.9531-72.9478C47.2555-72.9478 46.747-72.4388 46.747-71.7417C46.747-71.106 47.256-70.5356 47.9531-70.5356L65.1345-70.5356Z"/>
  </g>
  <g id="Black-S" transform="matrix(1 0 0 1 2861.31 696)">
   <path d="M58.1543 4.58984L95.9473 4.58984C102.588 4.58984 107.08 0.244141 107.08-6.34766L107.08-11.4258C107.08-11.7188 107.275-11.9141 107.568-11.9141L109.521-11.9141C109.814-11.9141 110.01-11.7188 110.01-11.4258L110.01-9.76562C110.01-3.17383 114.453 1.17188 121.143 1.17188L123.291 1.17188C129.98 1.17188 134.424-3.17383 134.424-9.76562L134.424-35.9375C134.424-42.627 130.127-46.875 123.291-46.875L121.143-46.875C114.307-46.875 110.01-42.627 110.01-35.9375L110.01-34.082C110.01-33.7891 109.814-33.5938 109.521-33.5938L107.568-33.5938C107.275-33.5938 107.08-33.7891 107.08-34.082L107.08-39.3555C107.08-46.0449 102.734-50.293 95.9473-50.293L94.4336-50.293L88.7207-56.4941C86.8164-58.5449 84.5215-59.6191 81.8359-59.6191L51.5137-59.6191C48.8281-59.6191 46.5332-58.5449 44.6289-56.4941L38.916-50.293L36.3281-50.293C29.6875-50.293 25.1953-45.9473 25.1953-39.3555L25.1953-15.7715C25.1953-9.22852 29.6875-4.83398 36.3281-4.83398L45.6055-4.83398L51.3184 1.46484C53.2715 3.61328 55.5176 4.58984 58.1543 4.58984ZM15.625-9.86328C18.8477-9.86328 21.4844-12.5 21.4844-15.7715L21.4844-22.6074L32.666-22.6074L32.666-32.4707L21.4844-32.4707L21.4844-39.3066C21.4844-42.5293 18.8477-45.166 15.625-45.166C12.4023-45.166 9.76562-42.5293 9.76562-39.3066L9.76562-15.7715C9.76562-12.5 12.4023-9.86328 15.625-9.86328ZM65.4297-50.5859L75.293-50.5859L75.293-63.3789L86.5723-63.3789C89.8438-63.3789 92.4316-65.9668 92.4316-69.2383C92.4316-72.4609 89.8438-75.0977 86.5723-75.0977L54.1504-75.0977C50.8301-75.0977 48.291-72.4609 48.291-69.2383C48.291-65.918 50.8789-63.3789 54.1504-63.3789L65.4297-63.3789Z"/>
  </g>
  <g id="Heavy-S" transform="matrix(1 0 0 1 2566.04 696)">
   <path d="M56.8751 3.65636L94.6335 3.65636C100.986 3.65636 105.19-0.401229 105.19-6.71644L105.19-12.0481C105.19-12.3065 105.362-12.4788 105.621-12.4788L108.162-12.4788C108.42-12.4788 108.592-12.3065 108.592-12.0481L108.592-9.93849C108.592-3.7731 112.724 0.226869 119.045 0.226869L121.078 0.226869C127.399 0.226869 131.531-3.76158 131.531-9.93849L131.531-36.4907C131.531-42.7307 127.511-46.656 121.078-46.656L119.045-46.656C112.613-46.656 108.592-42.7191 108.592-36.4907L108.592-34.4393C108.592-34.1694 108.42-33.9971 108.162-33.9971L105.621-33.9971C105.362-33.9971 105.19-34.1694 105.19-34.4393L105.19-39.7358C105.19-46.091 101.098-50.0855 94.645-50.0855L92.8778-50.0855L87.0036-56.4596C85.1799-58.4297 83.0464-59.4117 80.5337-59.4117L50.2345-59.4117C47.7218-59.4117 45.5651-58.4182 43.753-56.4596L37.8903-50.0855L35.0259-50.0855C28.6964-50.0855 24.4923-46.0164 24.4923-39.7358L24.4923-16.1172C24.4923-9.87389 28.6849-5.76747 35.0259-5.76747L44.5683-5.76747L50.4425 0.704229C52.3034 2.7259 54.3651 3.65636 56.8751 3.65636ZM15.0718-10.7737C17.9948-10.7737 20.378-13.1799 20.378-16.1172L20.378-23.2989L30.8912-23.2989L30.8912-32.5053L20.378-32.5053L20.378-39.6869C20.378-42.5984 17.9833-44.9931 15.0718-44.9931C12.1603-44.9931 9.76562-42.5869 9.76562-39.6869L9.76562-16.1172C9.76562-13.1684 12.1719-10.7737 15.0718-10.7737ZM64.4386-51.4503L73.645-51.4503L73.645-63.5518L85.028-63.5518C87.9768-63.5518 90.3342-65.9092 90.3342-68.858C90.3342-71.7695 87.9768-74.1642 85.028-74.1642L53.044-74.1642C50.0464-74.1642 47.7378-71.7695 47.7378-68.858C47.7378-65.8603 50.0952-63.5518 53.044-63.5518L64.4386-63.5518Z"/>
  </g>
  <g id="Bold-S" transform="matrix(1 0 0 1 2270.95 696)">
   <path d="M55.4443 2.6123L93.1641 2.6123C99.1943 2.6123 103.076-1.12305 103.076-7.12891L103.076-12.7441C103.076-12.9639 103.223-13.1104 103.442-13.1104L106.641-13.1104C106.86-13.1104 107.007-12.9639 107.007-12.7441L107.007-10.1318C107.007-4.44336 110.791-0.830078 116.699-0.830078L118.604-0.830078C124.512-0.830078 128.296-4.41895 128.296-10.1318L128.296-37.1094C128.296-42.8467 124.585-46.4111 118.604-46.4111L116.699-46.4111C110.718-46.4111 107.007-42.8223 107.007-37.1094L107.007-34.8389C107.007-34.5947 106.86-34.4482 106.641-34.4482L103.442-34.4482C103.223-34.4482 103.076-34.5947 103.076-34.8389L103.076-40.1611C103.076-46.1426 99.2676-49.8535 93.1885-49.8535L91.1377-49.8535L85.083-56.4209C83.3496-58.3008 81.3965-59.1797 79.0771-59.1797L48.8037-59.1797C46.4844-59.1797 44.4824-58.2764 42.7734-56.4209L36.7432-49.8535L33.5693-49.8535C27.5879-49.8535 23.7061-46.0938 23.7061-40.1611L23.7061-16.5039C23.7061-10.5957 27.5635-6.81152 33.5693-6.81152L43.4082-6.81152L49.4629-0.146484C51.2207 1.7334 53.0762 2.6123 55.4443 2.6123ZM14.4531-11.792C17.041-11.792 19.1406-13.9404 19.1406-16.5039L19.1406-24.0723L28.9062-24.0723L28.9062-32.5439L19.1406-32.5439L19.1406-40.1123C19.1406-42.6758 17.0166-44.7998 14.4531-44.7998C11.8896-44.7998 9.76562-42.6514 9.76562-40.1123L9.76562-16.5039C9.76562-13.916 11.9141-11.792 14.4531-11.792ZM63.3301-52.417L71.8018-52.417L71.8018-63.7451L83.3008-63.7451C85.8887-63.7451 87.9883-65.8447 87.9883-68.4326C87.9883-70.9961 85.8887-73.1201 83.3008-73.1201L51.8066-73.1201C49.1699-73.1201 47.1191-70.9961 47.1191-68.4326C47.1191-65.7959 49.2188-63.7451 51.8066-63.7451L63.3301-63.7451Z"/>
  </g>
  <g id="Semibold-S" transform="matrix(1 0 0 1 1975.35 696)">
   <path d="M54.4579 1.89248L92.151 1.89248C97.9591 1.89248 101.619-1.6207 101.619-7.41328L101.619-13.224C101.619-13.4171 101.747-13.5458 101.941-13.5458L105.592-13.5458C105.785-13.5458 105.914-13.4171 105.914-13.224L105.914-10.2651C105.914-4.90547 109.458-1.55879 115.082-1.55879L116.897-1.55879C122.521-1.55879 126.065-4.87217 126.065-10.2651L126.065-37.5359C126.065-42.9267 122.568-46.2423 116.897-46.2423L115.082-46.2423C109.411-46.2423 105.914-42.8934 105.914-37.5359L105.914-35.1144C105.914-34.888 105.785-34.7593 105.592-34.7593L101.941-34.7593C101.747-34.7593 101.619-34.888 101.619-35.1144L101.619-40.4544C101.619-46.1781 98.0057-49.6936 92.1843-49.6936L89.938-49.6936L83.7589-56.3942C82.0877-58.2119 80.259-59.0197 78.0729-59.0197L47.8173-59.0197C45.6313-59.0197 43.7359-58.1786 42.098-56.3942L35.9522-49.6936L32.5651-49.6936C26.8236-49.6936 23.164-46.1471 23.164-40.4544L23.164-16.7705C23.164-11.0934 26.7903-7.53135 32.5651-7.53135L42.6084-7.53135L48.7875-0.733008C50.4742 1.04912 52.1875 1.89248 54.4579 1.89248ZM14.0266-12.494C16.3834-12.494 18.2875-14.4647 18.2875-16.7705L18.2875-24.6055L27.5377-24.6055L27.5377-32.5706L18.2875-32.5706L18.2875-40.4056C18.2875-42.7291 16.3501-44.6665 14.0266-44.6665C11.703-44.6665 9.76562-42.6958 9.76562-40.4056L9.76562-16.7705C9.76562-14.4314 11.7363-12.494 14.0266-12.494ZM62.5658-53.0835L70.531-53.0835L70.531-63.8784L82.11-63.8784C84.449-63.8784 86.3709-65.8003 86.3709-68.1394C86.3709-70.4629 84.449-72.4003 82.11-72.4003L50.9535-72.4003C48.5656-72.4003 46.6926-70.4629 46.6926-68.1394C46.6926-65.7515 48.6145-63.8784 50.9535-63.8784L62.5658-63.8784Z"/>
  </g>
  <g id="Medium-S" transform="matrix(1 0 0 1 1679.49 696)">
   <path d="M53.71 1.34668L91.3828 1.34668C97.0225 1.34668 100.514-1.99805 100.514-7.62891L100.514-13.5879C100.514-13.7607 100.629-13.876 100.802-13.876L104.797-13.876C104.97-13.876 105.085-13.7607 105.085-13.5879L105.085-10.3662C105.085-5.25586 108.447-2.11133 113.855-2.11133L115.604-2.11133C121.012-2.11133 124.374-5.21582 124.374-10.3662L124.374-37.8594C124.374-42.9873 121.038-46.1143 115.604-46.1143L113.855-46.1143C108.421-46.1143 105.085-42.9473 105.085-37.8594L105.085-35.3232C105.085-35.1104 104.97-34.9951 104.797-34.9951L100.802-34.9951C100.629-34.9951 100.514-35.1104 100.514-35.3232L100.514-40.6768C100.514-46.2051 97.0488-49.5723 91.4229-49.5723L89.0283-49.5723L82.7549-56.374C81.1309-58.1445 79.3965-58.8984 77.3115-58.8984L47.0693-58.8984C44.9844-58.8984 43.1699-58.1045 41.5859-56.374L35.3525-49.5723L31.8037-49.5723C26.2441-49.5723 22.7529-46.1875 22.7529-40.6768L22.7529-16.9727C22.7529-11.4707 26.2041-8.07715 31.8037-8.07715L42.002-8.07715L48.2754-1.17773C49.9082 0.530273 51.5137 1.34668 53.71 1.34668ZM13.7031-13.0264C15.8848-13.0264 17.6406-14.8623 17.6406-16.9727L17.6406-25.0098L26.5-25.0098L26.5-32.5908L17.6406-32.5908L17.6406-40.6279C17.6406-42.7695 15.8447-44.5654 13.7031-44.5654C11.5615-44.5654 9.76562-42.7295 9.76562-40.6279L9.76562-16.9727C9.76562-14.8223 11.6016-13.0264 13.7031-13.0264ZM61.9863-53.5889L69.5674-53.5889L69.5674-63.9795L81.207-63.9795C83.3574-63.9795 85.1445-65.7666 85.1445-67.917C85.1445-70.0586 83.3574-71.8545 81.207-71.8545L50.3066-71.8545C48.1074-71.8545 46.3691-70.0586 46.3691-67.917C46.3691-65.7178 48.1562-63.9795 50.3066-63.9795L61.9863-63.9795Z"/>
  </g>
  <g id="Regular-S" transform="matrix(1 0 0 1 1383.88 696)">
   <path d="M52.7344 0.634766L90.3809 0.634766C95.8008 0.634766 99.0723-2.49023 99.0723-7.91016L99.0723-14.0625C99.0723-14.209 99.1699-14.3066 99.3164-14.3066L103.76-14.3066C103.906-14.3066 104.004-14.209 104.004-14.0625L104.004-10.498C104.004-5.71289 107.129-2.83203 112.256-2.83203L113.916-2.83203C119.043-2.83203 122.168-5.66406 122.168-10.498L122.168-38.2812C122.168-43.0664 119.043-45.9473 113.916-45.9473L112.256-45.9473C107.129-45.9473 104.004-43.0176 104.004-38.2812L104.004-35.5957C104.004-35.4004 103.906-35.3027 103.76-35.3027L99.3164-35.3027C99.1699-35.3027 99.0723-35.4004 99.0723-35.5957L99.0723-40.9668C99.0723-46.2402 95.8008-49.4141 90.4297-49.4141L87.8418-49.4141L81.4453-56.3477C79.8828-58.0566 78.2715-58.7402 76.3184-58.7402L46.0938-58.7402C44.1406-58.7402 42.4316-58.0078 40.918-56.3477L34.5703-49.4141L30.8105-49.4141C25.4883-49.4141 22.2168-46.2402 22.2168-40.9668L22.2168-17.2363C22.2168-11.9629 25.4395-8.78906 30.8105-8.78906L41.2109-8.78906L47.6074-1.75781C49.1699-0.146484 50.6348 0.634766 52.7344 0.634766ZM13.2812-13.7207C15.2344-13.7207 16.7969-15.3809 16.7969-17.2363L16.7969-25.5371L25.1465-25.5371L25.1465-32.6172L16.7969-32.6172L16.7969-40.918C16.7969-42.8223 15.1855-44.4336 13.2812-44.4336C11.377-44.4336 9.76562-42.7734 9.76562-40.918L9.76562-17.2363C9.76562-15.332 11.4258-13.7207 13.2812-13.7207ZM61.2305-54.248L68.3105-54.248L68.3105-64.1113L80.0293-64.1113C81.9336-64.1113 83.5449-65.7227 83.5449-67.627C83.5449-69.5312 81.9336-71.1426 80.0293-71.1426L49.4629-71.1426C47.5098-71.1426 45.9473-69.5312 45.9473-67.627C45.9473-65.6738 47.5586-64.1113 49.4629-64.1113L61.2305-64.1113Z"/>
  </g>
  <g id="Light-S" transform="matrix(1 0 0 1 1090.56 696)">
   <path d="M50.1763-1.33299L87.187-1.33299C91.9107-1.33299 94.6978-3.97362 94.6978-8.66699L94.6978-16.3027C94.6978-16.4795 94.7954-16.5771 94.9722-16.5771L99.6426-16.5771C99.8194-16.5771 99.917-16.4795 99.917-16.3027L99.917-11.4668C99.917-7.48387 102.527-5.04197 106.807-5.04197L108.497-5.04197C112.776-5.04197 115.387-7.45018 115.387-11.4668L115.387-38.8716C115.387-42.8696 112.776-45.2964 108.497-45.2964L106.807-45.2964C102.527-45.2964 99.917-42.8359 99.917-38.8716L99.917-34.6421C99.917-34.4316 99.8194-34.334 99.6426-34.334L94.9722-34.334C94.7954-34.334 94.6978-34.4316 94.6978-34.6421L94.6978-42.0566C94.6978-46.3765 91.9864-49.0054 87.5386-49.0054L84.1787-49.0054L77.6914-56.0601C76.2652-57.6177 74.8355-58.2105 72.9883-58.2105L43.687-58.2105C41.8399-58.2105 40.3428-57.584 38.9502-56.0601L32.4966-49.0054L27.874-49.0054C23.46-49.0054 20.7485-46.3765 20.7485-42.0566L20.7485-17.5542C20.7485-13.2344 23.4263-10.6055 27.874-10.6055L39.001-10.6055L45.4883-3.48338C46.9146-1.99315 48.2432-1.33299 50.1763-1.33299ZM12.479-14.8559C13.978-14.8559 15.1924-16.1226 15.1924-17.5542L15.1924-27.0508L23.1636-27.0508L23.1636-32.5112L15.1924-32.5112L15.1924-42.0229C15.1924-43.4883 13.9443-44.7212 12.479-44.7212C10.9985-44.7212 9.76562-43.4546 9.76562-42.0229L9.76562-17.5542C9.76562-16.0889 11.0322-14.8559 12.479-14.8559ZM58.0518-54.8686L63.5122-54.8686L63.5122-63.7329L75.791-63.7329C77.2564-63.7329 78.5044-64.9961 78.5044-66.4614C78.5044-67.9419 77.2564-69.1748 75.791-69.1748L45.7544-69.1597C44.2403-69.1597 43.041-67.9268 43.041-66.4463C43.041-64.9473 44.274-63.7329 45.7544-63.7329L58.0518-63.7329Z"/>
  </g>
  <g id="Thin-S" transform="matrix(1 0 0 1 798.33 696)">
   <path d="M46.793-3.93551L82.9629-3.93551C86.7657-3.93551 88.9122-5.93552 88.9122-9.66795L88.9122-19.2656C88.9122-19.4824 89.0098-19.58 89.2266-19.58L94.1973-19.58C94.4141-19.58 94.5118-19.4824 94.5118-19.2656L94.5118-12.748C94.5118-9.82614 96.4415-7.9648 99.5997-7.9648L101.33-7.9648C104.488-7.9648 106.418-9.81247 106.418-12.748L106.418-39.6523C106.418-42.6094 104.488-44.4356 101.33-44.4356L99.5997-44.4356C96.4415-44.4356 94.5118-42.5957 94.5118-39.6523L94.5118-33.3809C94.5118-33.1504 94.4141-33.0528 94.1973-33.0528L89.2266-33.0528C89.0098-33.0528 88.9122-33.1504 88.9122-33.3809L88.9122-43.498C88.9122-46.5566 86.9415-48.4649 83.7149-48.4649L79.3341-48.4649L72.7266-55.6797C71.4805-57.0371 70.2911-57.5098 68.584-57.5098L40.504-57.5098C38.7969-57.5098 37.5801-57.0234 36.3477-55.6797L29.7539-48.4649L23.9903-48.4649C20.7774-48.4649 18.8067-46.5566 18.8067-43.498L18.8067-17.9746C18.8067-14.916 20.7637-13.0078 23.9903-13.0078L36.0782-13.0078L42.6856-5.76559C43.9317-4.43551 45.0801-3.93551 46.793-3.93551ZM11.418-16.3574C12.3164-16.3574 13.0703-17.1035 13.0703-17.9746L13.0703-29.0527L20.5411-29.0527L20.5411-32.3711L13.0703-32.3711L13.0703-43.4844C13.0703-44.3691 12.3028-45.1016 11.418-45.1016C10.4981-45.1016 9.76562-44.3555 9.76562-43.4844L9.76562-17.9746C9.76562-17.0898 10.5117-16.3574 11.418-16.3574ZM53.8477-55.6894L57.1661-55.6894L57.1661-63.2324L70.1856-63.2324C71.0704-63.2324 71.838-64.0352 71.838-64.9199C71.838-65.8399 71.0704-66.5723 70.1856-66.5723L40.8497-66.5371C39.9161-66.5371 39.1973-65.8047 39.1973-64.8848C39.1973-63.9863 39.9297-63.2324 40.8497-63.2324L53.8477-63.2324Z"/>
  </g>
  <g id="Ultralight-S" transform="matrix(1 0 0 1 503.916 696)">
   <path d="M45.0601-5.26851L80.7994-5.26851C84.1305-5.26851 85.9488-6.94039 85.9488-10.1806L85.9488-20.7832C85.9488-21.0205 86.0465-21.1181 86.2838-21.1181L91.4083-21.1181C91.6456-21.1181 91.7433-21.0205 91.7433-20.7832L91.7433-13.4043C91.7433-11.0258 93.3243-9.46186 95.9083-9.46186L97.6593-9.46186C100.243-9.46186 101.824-11.0224 101.824-13.4043L101.824-40.0522C101.824-42.4761 100.243-43.9946 97.6593-43.9946L95.9083-43.9946C93.3243-43.9946 91.7433-42.4727 91.7433-40.0522L91.7433-32.7349C91.7433-32.4942 91.6456-32.3965 91.4083-32.3965L86.2838-32.3965C86.0465-32.3965 85.9488-32.4942 85.9488-32.7349L85.9488-44.2363C85.9488-46.6489 84.3575-48.188 81.7564-48.188L76.8526-48.188L70.1837-55.4849C69.0299-56.7398 67.9635-57.1509 66.3282-57.1509L38.8736-57.1509C37.2383-57.1509 36.1651-56.7363 35.0147-55.4849L28.3492-48.188L22.001-48.188C19.4034-48.188 17.812-46.6489 17.812-44.2363L17.812-18.1899C17.812-15.7773 19.3999-14.2382 22.001-14.2382L34.5811-14.2382L41.2501-6.93453C42.4039-5.68648 43.46-5.26851 45.0601-5.26851ZM10.8745-17.1264C11.4654-17.1264 11.9834-17.6059 11.9834-18.1899L11.9834-30.0781L19.1978-30.0781L19.1978-32.2993L11.9834-32.2993L11.9834-44.2329C11.9834-44.8203 11.4619-45.2964 10.8745-45.2964C10.2417-45.2964 9.76562-44.8169 9.76562-44.2329L9.76562-18.1899C9.76562-17.6025 10.2451-17.1264 10.8745-17.1264ZM51.6944-56.1098L53.9156-56.1098L53.9156-62.9761L67.3146-62.9761C67.902-62.9761 68.4235-63.543 68.4235-64.1304C68.4235-64.7632 67.902-65.2393 67.3146-65.2393L38.3375-65.1939C37.7012-65.1939 37.2286-64.7178 37.2286-64.085C37.2286-63.4942 37.7047-62.9761 38.3375-62.9761L51.6944-62.9761Z"/>
  </g>
 </g>
</svg>
