<?xml version="1.0" encoding="UTF-8"?>
<!--Generator: Apple Native CoreSVG 175-->
<!DOCTYPE svg
PUBLIC "-//W3C//DTD SVG 1.1//EN"
       "http://www.w3.org/Graphics/SVG/1.1/DTD/svg11.dtd">
<svg version="1.1" xmlns="http://www.w3.org/2000/svg" xmlns:xlink="http://www.w3.org/1999/xlink" width="3300" height="2200">
 <!--glyph: "uni100910.medium", point size: 100.0, font version: "17.3d3e1", template writer version: "65.1"-->
 <g id="Notes">
  <rect height="2200" id="artboard" style="fill:white;opacity:1" width="3300" x="0" y="0"/>
  <line style="fill:none;stroke:black;opacity:1;stroke-width:0.5;" x1="263" x2="3036" y1="292" y2="292"/>
  <text style="stroke:none;fill:black;font-family:sans-serif;font-size:13;font-weight:bold;" transform="matrix(1 0 0 1 263 322)">Weight/Scale Variations</text>
  <text style="stroke:none;fill:black;font-family:sans-serif;font-size:13;text-anchor:middle;" transform="matrix(1 0 0 1 559.711 322)">Ultralight</text>
  <text style="stroke:none;fill:black;font-family:sans-serif;font-size:13;text-anchor:middle;" transform="matrix(1 0 0 1 856.422 322)">Thin</text>
  <text style="stroke:none;fill:black;font-family:sans-serif;font-size:13;text-anchor:middle;" transform="matrix(1 0 0 1 1153.13 322)">Light</text>
  <text style="stroke:none;fill:black;font-family:sans-serif;font-size:13;text-anchor:middle;" transform="matrix(1 0 0 1 1449.84 322)">Regular</text>
  <text style="stroke:none;fill:black;font-family:sans-serif;font-size:13;text-anchor:middle;" transform="matrix(1 0 0 1 1746.56 322)">Medium</text>
  <text style="stroke:none;fill:black;font-family:sans-serif;font-size:13;text-anchor:middle;" transform="matrix(1 0 0 1 2043.27 322)">Semibold</text>
  <text style="stroke:none;fill:black;font-family:sans-serif;font-size:13;text-anchor:middle;" transform="matrix(1 0 0 1 2339.98 322)">Bold</text>
  <text style="stroke:none;fill:black;font-family:sans-serif;font-size:13;text-anchor:middle;" transform="matrix(1 0 0 1 2636.69 322)">Heavy</text>
  <text style="stroke:none;fill:black;font-family:sans-serif;font-size:13;text-anchor:middle;" transform="matrix(1 0 0 1 2933.4 322)">Black</text>
  <line style="fill:none;stroke:black;opacity:1;stroke-width:0.5;" x1="263" x2="3036" y1="1903" y2="1903"/>
  <g transform="matrix(1 0 0 1 263 1933)">
   <path d="M9.24805 0.830078Q10.8691 0.830078 12.2949 0.214844Q13.7207-0.400391 14.8096-1.49414Q15.8984-2.58789 16.5186-4.01367Q17.1387-5.43945 17.1387-7.05078Q17.1387-8.66211 16.5186-10.0879Q15.8984-11.5137 14.8047-12.6074Q13.7109-13.7012 12.2852-14.3164Q10.8594-14.9316 9.23828-14.9316Q7.62695-14.9316 6.20117-14.3164Q4.77539-13.7012 3.69141-12.6074Q2.60742-11.5137 1.9873-10.0879Q1.36719-8.66211 1.36719-7.05078Q1.36719-5.43945 1.9873-4.01367Q2.60742-2.58789 3.69629-1.49414Q4.78516-0.400391 6.21094 0.214844Q7.63672 0.830078 9.24805 0.830078ZM9.24805-0.654297Q7.91992-0.654297 6.7627-1.14746Q5.60547-1.64062 4.73145-2.51953Q3.85742-3.39844 3.36426-4.56055Q2.87109-5.72266 2.87109-7.05078Q2.87109-8.37891 3.35938-9.54102Q3.84766-10.7031 4.72168-11.582Q5.5957-12.4609 6.75293-12.9541Q7.91016-13.4473 9.23828-13.4473Q10.5762-13.4473 11.7334-12.9541Q12.8906-12.4609 13.7695-11.582Q14.6484-10.7031 15.1465-9.54102Q15.6445-8.37891 15.6445-7.05078Q15.6445-5.72266 15.1514-4.56055Q14.6582-3.39844 13.7842-2.51953Q12.9102-1.64062 11.748-1.14746Q10.5859-0.654297 9.24805-0.654297ZM5.6543-7.05078Q5.6543-6.72852 5.85938-6.52832Q6.06445-6.32812 6.40625-6.32812L8.51562-6.32812L8.51562-4.20898Q8.51562-3.88672 8.71094-3.67676Q8.90625-3.4668 9.23828-3.4668Q9.56055-3.4668 9.77051-3.67676Q9.98047-3.88672 9.98047-4.20898L9.98047-6.32812L12.0898-6.32812Q12.4219-6.32812 12.627-6.52832Q12.832-6.72852 12.832-7.05078Q12.832-7.38281 12.627-7.58789Q12.4219-7.79297 12.0898-7.79297L9.98047-7.79297L9.98047-9.90234Q9.98047-10.2344 9.77051-10.4443Q9.56055-10.6543 9.23828-10.6543Q8.90625-10.6543 8.71094-10.4443Q8.51562-10.2344 8.51562-9.90234L8.51562-7.79297L6.40625-7.79297Q6.06445-7.79297 5.85938-7.58789Q5.6543-7.38281 5.6543-7.05078Z"/>
  </g>
  <g transform="matrix(1 0 0 1 281.867 1933)">
   <path d="M11.709 2.91016Q13.75 2.91016 15.5518 2.12891Q17.3535 1.34766 18.7305-0.0292969Q20.1074-1.40625 20.8887-3.20801Q21.6699-5.00977 21.6699-7.05078Q21.6699-9.0918 20.8887-10.8936Q20.1074-12.6953 18.7305-14.0723Q17.3535-15.4492 15.5469-16.2305Q13.7402-17.0117 11.6992-17.0117Q9.6582-17.0117 7.85645-16.2305Q6.05469-15.4492 4.68262-14.0723Q3.31055-12.6953 2.5293-10.8936Q1.74805-9.0918 1.74805-7.05078Q1.74805-5.00977 2.5293-3.20801Q3.31055-1.40625 4.6875-0.0292969Q6.06445 1.34766 7.86621 2.12891Q9.66797 2.91016 11.709 2.91016ZM11.709 1.25Q9.98047 1.25 8.47656 0.605469Q6.97266-0.0390625 5.83496-1.17676Q4.69727-2.31445 4.05762-3.81836Q3.41797-5.32227 3.41797-7.05078Q3.41797-8.7793 4.05762-10.2832Q4.69727-11.7871 5.83008-12.9297Q6.96289-14.0723 8.4668-14.7119Q9.9707-15.3516 11.6992-15.3516Q13.4277-15.3516 14.9316-14.7119Q16.4355-14.0723 17.5781-12.9297Q18.7207-11.7871 19.3652-10.2832Q20.0098-8.7793 20.0098-7.05078Q20.0098-5.32227 19.3701-3.81836Q18.7305-2.31445 17.5928-1.17676Q16.4551-0.0390625 14.9463 0.605469Q13.4375 1.25 11.709 1.25ZM7.17773-7.05078Q7.17773-6.69922 7.41211-6.47461Q7.64648-6.25 8.01758-6.25L10.8887-6.25L10.8887-3.36914Q10.8887-2.99805 11.1133-2.76855Q11.3379-2.53906 11.6895-2.53906Q12.0605-2.53906 12.29-2.76855Q12.5195-2.99805 12.5195-3.36914L12.5195-6.25L15.4004-6.25Q15.7715-6.25 16.001-6.47461Q16.2305-6.69922 16.2305-7.05078Q16.2305-7.42188 16.001-7.65137Q15.7715-7.88086 15.4004-7.88086L12.5195-7.88086L12.5195-10.752Q12.5195-11.1328 12.29-11.3623Q12.0605-11.5918 11.6895-11.5918Q11.3379-11.5918 11.1133-11.3574Q10.8887-11.123 10.8887-10.752L10.8887-7.88086L8.01758-7.88086Q7.63672-7.88086 7.40723-7.65137Q7.17773-7.42188 7.17773-7.05078Z"/>
  </g>
  <g transform="matrix(1 0 0 1 305.646 1933)">
   <path d="M14.9707 5.66406Q17.0605 5.66406 18.96 5.01465Q20.8594 4.36523 22.4512 3.19336Q24.043 2.02148 25.2197 0.429688Q26.3965-1.16211 27.0459-3.06641Q27.6953-4.9707 27.6953-7.05078Q27.6953-9.14062 27.0459-11.04Q26.3965-12.9395 25.2197-14.5312Q24.043-16.123 22.4512-17.2998Q20.8594-18.4766 18.9551-19.126Q17.0508-19.7754 14.9609-19.7754Q12.8711-19.7754 10.9717-19.126Q9.07227-18.4766 7.48535-17.2998Q5.89844-16.123 4.72168-14.5312Q3.54492-12.9395 2.90039-11.04Q2.25586-9.14062 2.25586-7.05078Q2.25586-4.9707 2.90527-3.06641Q3.55469-1.16211 4.72656 0.429688Q5.89844 2.02148 7.49023 3.19336Q9.08203 4.36523 10.9814 5.01465Q12.8809 5.66406 14.9707 5.66406ZM14.9707 3.84766Q13.1641 3.84766 11.5283 3.2959Q9.89258 2.74414 8.53516 1.74805Q7.17773 0.751953 6.17676-0.610352Q5.17578-1.97266 4.62891-3.6084Q4.08203-5.24414 4.08203-7.05078Q4.08203-8.86719 4.62891-10.5029Q5.17578-12.1387 6.17188-13.501Q7.16797-14.8633 8.52539-15.8594Q9.88281-16.8555 11.5186-17.4023Q13.1543-17.9492 14.9609-17.9492Q16.7773-17.9492 18.4131-17.4023Q20.0488-16.8555 21.4111-15.8594Q22.7734-14.8633 23.7695-13.501Q24.7656-12.1387 25.3174-10.5029Q25.8691-8.86719 25.8691-7.05078Q25.8789-5.24414 25.332-3.6084Q24.7852-1.97266 23.7842-0.610352Q22.7832 0.751953 21.4209 1.74805Q20.0586 2.74414 18.4229 3.2959Q16.7871 3.84766 14.9707 3.84766ZM9.19922-7.05078Q9.19922-6.66992 9.45801-6.4209Q9.7168-6.17188 10.1172-6.17188L14.0625-6.17188L14.0625-2.2168Q14.0625-1.81641 14.3115-1.55762Q14.5605-1.29883 14.9512-1.29883Q15.3516-1.29883 15.6104-1.55273Q15.8691-1.80664 15.8691-2.2168L15.8691-6.17188L19.8242-6.17188Q20.2246-6.17188 20.4785-6.4209Q20.7324-6.66992 20.7324-7.05078Q20.7324-7.46094 20.4785-7.71484Q20.2246-7.96875 19.8242-7.96875L15.8691-7.96875L15.8691-11.9141Q15.8691-12.3242 15.6104-12.583Q15.3516-12.8418 14.9512-12.8418Q14.5605-12.8418 14.3115-12.583Q14.0625-12.3242 14.0625-11.9141L14.0625-7.96875L10.1172-7.96875Q9.70703-7.96875 9.45312-7.71484Q9.19922-7.46094 9.19922-7.05078Z"/>
  </g>
  <text style="stroke:none;fill:black;font-family:sans-serif;font-size:13;font-weight:bold;" transform="matrix(1 0 0 1 263 1953)">Design Variations</text>
  <text style="stroke:none;fill:black;font-family:sans-serif;font-size:13;" transform="matrix(1 0 0 1 263 1971)">Symbols are supported in up to nine weights and three scales.</text>
  <text style="stroke:none;fill:black;font-family:sans-serif;font-size:13;" transform="matrix(1 0 0 1 263 1989)">For optimal layout with text and other symbols, vertically align</text>
  <text style="stroke:none;fill:black;font-family:sans-serif;font-size:13;" transform="matrix(1 0 0 1 263 2007)">symbols with the adjacent text.</text>
  <line style="fill:none;stroke:#00AEEF;stroke-width:0.5;opacity:1.0;" x1="776" x2="776" y1="1919" y2="1933"/>
  <g transform="matrix(1 0 0 1 776 1933)">
   <path d="M3.31055 0.15625Q3.70117 0.15625 3.91602-0.00976562Q4.13086-0.175781 4.26758-0.585938L5.52734-4.0332L11.2891-4.0332L12.5488-0.585938Q12.6855-0.175781 12.9004-0.00976562Q13.1152 0.15625 13.4961 0.15625Q13.8867 0.15625 14.1162-0.0585938Q14.3457-0.273438 14.3457-0.644531Q14.3457-0.869141 14.2383-1.17188L9.6582-13.3691Q9.48242-13.8184 9.17969-14.043Q8.87695-14.2676 8.4082-14.2676Q7.5-14.2676 7.17773-13.3789L2.59766-1.16211Q2.49023-0.859375 2.49023-0.634766Q2.49023-0.263672 2.70996-0.0537109Q2.92969 0.15625 3.31055 0.15625ZM6.00586-5.51758L8.37891-12.0898L8.42773-12.0898L10.8008-5.51758Z"/>
  </g>
  <line style="fill:none;stroke:#00AEEF;stroke-width:0.5;opacity:1.0;" x1="793.197" x2="793.197" y1="1919" y2="1933"/>
  <text style="stroke:none;fill:black;font-family:sans-serif;font-size:13;font-weight:bold;" transform="matrix(1 0 0 1 776 1953)">Margins</text>
  <text style="stroke:none;fill:black;font-family:sans-serif;font-size:13;" transform="matrix(1 0 0 1 776 1971)">Leading and trailing margins on the left and right side of each symbol</text>
  <text style="stroke:none;fill:black;font-family:sans-serif;font-size:13;" transform="matrix(1 0 0 1 776 1989)">can be adjusted by modifying the x-location of the margin guidelines.</text>
  <text style="stroke:none;fill:black;font-family:sans-serif;font-size:13;" transform="matrix(1 0 0 1 776 2007)">Modifications are automatically applied proportionally to all</text>
  <text style="stroke:none;fill:black;font-family:sans-serif;font-size:13;" transform="matrix(1 0 0 1 776 2025)">scales and weights.</text>
  <g transform="matrix(1 0 0 1 1289 1933)">
   <path d="M2.8418 1.86523L4.54102 3.57422Q5.18555 4.22852 5.90332 4.17969Q6.62109 4.13086 7.31445 3.35938L18.0078-8.42773L17.041-9.4043L6.42578 2.27539Q6.16211 2.57812 5.89355 2.61719Q5.625 2.65625 5.27344 2.30469L4.10156 1.14258Q3.75 0.791016 3.79395 0.522461Q3.83789 0.253906 4.14062-0.0195312L15.6152-10.8203L14.6387-11.7871L3.04688-0.898438Q2.30469-0.214844 2.25098 0.498047Q2.19727 1.21094 2.8418 1.86523ZM9.25781-16.3281Q8.94531-16.0254 8.90625-15.6348Q8.86719-15.2441 9.04297-14.9512Q9.21875-14.6777 9.55566-14.541Q9.89258-14.4043 10.3809-14.5215Q11.4746-14.7754 12.5977-14.7314Q13.7207-14.6875 14.7949-13.9844L14.209-12.5293Q13.9551-11.9043 14.0674-11.4404Q14.1797-10.9766 14.5801-10.5664L16.875-8.25195Q17.2363-7.88086 17.5781-7.82227Q17.9199-7.76367 18.3398-7.8418L19.4043-8.03711L20.0684-7.36328L20.0293-6.80664Q20-6.43555 20.1221-6.12305Q20.2441-5.81055 20.6055-5.44922L21.3672-4.70703Q21.7285-4.3457 22.1533-4.33105Q22.5781-4.31641 22.9297-4.66797L25.8398-7.58789Q26.1914-7.93945 26.1816-8.35449Q26.1719-8.76953 25.8105-9.13086L25.0391-9.89258Q24.6875-10.2539 24.3799-10.3857Q24.0723-10.5176 23.7109-10.4883L23.1348-10.4395L22.4902-11.0742L22.7344-12.1973Q22.832-12.6172 22.6953-12.9834Q22.5586-13.3496 22.1191-13.7891L19.9219-15.9766Q18.6719-17.2168 17.2607-17.8369Q15.8496-18.457 14.4189-18.4814Q12.9883-18.5059 11.665-17.959Q10.3418-17.4121 9.25781-16.3281ZM10.752-15.957Q11.6602-16.6211 12.7002-16.9043Q13.7402-17.1875 14.8047-17.085Q15.8691-16.9824 16.8701-16.5137Q17.8711-16.0449 18.7012-15.2051L21.1328-12.793Q21.3086-12.6172 21.3525-12.4512Q21.3965-12.2852 21.3379-12.0312L21.0156-10.5469L22.5195-9.0625L23.5059-9.12109Q23.6914-9.13086 23.7891-9.09668Q23.8867-9.0625 24.0332-8.91602L24.6094-8.33984L22.168-5.89844L21.5918-6.47461Q21.4453-6.62109 21.4062-6.71875Q21.3672-6.81641 21.377-7.01172L21.4453-7.98828L19.9512-9.47266L18.4277-9.21875Q18.1836-9.16992 18.042-9.2041Q17.9004-9.23828 17.7148-9.41406L15.7129-11.416Q15.5176-11.5918 15.4932-11.7529Q15.4688-11.9141 15.5859-12.1875L16.4648-14.2773Q15.293-15.3711 13.8281-15.791Q12.3633-16.2109 10.8398-15.7617Q10.7227-15.7324 10.6885-15.8057Q10.6543-15.8789 10.752-15.957Z"/>
  </g>
  <text style="stroke:none;fill:black;font-family:sans-serif;font-size:13;font-weight:bold;" transform="matrix(1 0 0 1 1289 1953)">Exporting</text>
  <text style="stroke:none;fill:black;font-family:sans-serif;font-size:13;" transform="matrix(1 0 0 1 1289 1971)">Symbols should be outlined when exporting to ensure the</text>
  <text style="stroke:none;fill:black;font-family:sans-serif;font-size:13;" transform="matrix(1 0 0 1 1289 1989)">design is preserved when submitting to Xcode.</text>
  <text id="template-version" style="stroke:none;fill:black;font-family:sans-serif;font-size:13;text-anchor:end;" transform="matrix(1 0 0 1 3036 1933)">Template v.3.0</text>
  <text style="stroke:none;fill:black;font-family:sans-serif;font-size:13;text-anchor:end;" transform="matrix(1 0 0 1 3036 1951)">Requires Xcode 13 or greater</text>
  <text id="descriptive-name" style="stroke:none;fill:black;font-family:sans-serif;font-size:13;text-anchor:end;" transform="matrix(1 0 0 1 3036 1969)">Generated from scroll.fill</text>
  <text style="stroke:none;fill:black;font-family:sans-serif;font-size:13;text-anchor:end;" transform="matrix(1 0 0 1 3036 1987)">Typeset at 100 points</text>
  <text style="stroke:none;fill:black;font-family:sans-serif;font-size:13;" transform="matrix(1 0 0 1 263 726)">Small</text>
  <text style="stroke:none;fill:black;font-family:sans-serif;font-size:13;" transform="matrix(1 0 0 1 263 1156)">Medium</text>
  <text style="stroke:none;fill:black;font-family:sans-serif;font-size:13;" transform="matrix(1 0 0 1 263 1586)">Large</text>
 </g>
 <g id="Guides">
  <g id="H-reference" style="fill:#27AAE1;stroke:none;" transform="matrix(1 0 0 1 339 696)">
   <path d="M0.993347 0L3.6377 0L29.3282-67.1326L30.0301-67.1326L30.0301-70.459L28.1227-70.459ZM11.6882-24.4797L46.9818-24.4797L46.2311-26.7288L12.4382-26.7288ZM55.1193 0L57.7637 0L30.6381-70.459L29.4327-70.459L29.4327-67.1326Z"/>
  </g>
  <line id="Baseline-S" style="fill:none;stroke:#27AAE1;opacity:1;stroke-width:0.5;" x1="263" x2="3036" y1="696" y2="696"/>
  <line id="Capline-S" style="fill:none;stroke:#27AAE1;opacity:1;stroke-width:0.5;" x1="263" x2="3036" y1="625.541" y2="625.541"/>
  <g id="H-reference" style="fill:#27AAE1;stroke:none;" transform="matrix(1 0 0 1 339 1126)">
   <path d="M0.993347 0L3.6377 0L29.3282-67.1326L30.0301-67.1326L30.0301-70.459L28.1227-70.459ZM11.6882-24.4797L46.9818-24.4797L46.2311-26.7288L12.4382-26.7288ZM55.1193 0L57.7637 0L30.6381-70.459L29.4327-70.459L29.4327-67.1326Z"/>
  </g>
  <line id="Baseline-M" style="fill:none;stroke:#27AAE1;opacity:1;stroke-width:0.5;" x1="263" x2="3036" y1="1126" y2="1126"/>
  <line id="Capline-M" style="fill:none;stroke:#27AAE1;opacity:1;stroke-width:0.5;" x1="263" x2="3036" y1="1055.54" y2="1055.54"/>
  <g id="H-reference" style="fill:#27AAE1;stroke:none;" transform="matrix(1 0 0 1 339 1556)">
   <path d="M0.993347 0L3.6377 0L29.3282-67.1326L30.0301-67.1326L30.0301-70.459L28.1227-70.459ZM11.6882-24.4797L46.9818-24.4797L46.2311-26.7288L12.4382-26.7288ZM55.1193 0L57.7637 0L30.6381-70.459L29.4327-70.459L29.4327-67.1326Z"/>
  </g>
  <line id="Baseline-L" style="fill:none;stroke:#27AAE1;opacity:1;stroke-width:0.5;" x1="263" x2="3036" y1="1556" y2="1556"/>
  <line id="Capline-L" style="fill:none;stroke:#27AAE1;opacity:1;stroke-width:0.5;" x1="263" x2="3036" y1="1485.54" y2="1485.54"/>
  <line id="left-margin-Regular-M" style="fill:none;stroke:#00AEEF;stroke-width:0.5;opacity:1.0;" x1="1385.55" x2="1385.55" y1="1030.79" y2="1150.12"/>
  <line id="right-margin-Regular-M" style="fill:none;stroke:#00AEEF;stroke-width:0.5;opacity:1.0;" x1="1514.14" x2="1514.14" y1="1030.79" y2="1150.12"/>
 </g>
 <g id="Symbols">
  <g id="Black-L" transform="matrix(1 0 0 1 2844.69 1556)">
   <path d="M16.084-71.2911Q16.084-66.8961 18.941-64.0792Q21.7981-61.2624 26.2735-61.2624L28.8091-61.2624L28.8091-87.5579Q28.8091-90.5622 27.0823-92.3275Q25.3554-94.0928 22.4776-94.0928Q19.5997-94.0928 17.8418-92.3287Q16.084-90.5646 16.084-87.5579ZM34.5712-105.526Q37.5088-104.168 38.7926-101.636Q40.0763-99.1045 40.0763-95.0037L40.0763 16.4921Q40.0763 22.5553 43.1601 25.5936Q46.2439 28.6319 50.3848 28.6319Q54.5957 28.6319 57.6937 25.5184Q60.7916 22.405 60.7916 16.6378L60.7916-3.71164Q60.7916-11.9393 65.2382-16.4199Q69.6848-20.9006 77.954-20.9006L145.894-20.9006L145.894-81.7545Q145.894-93.1013 139.702-99.3137Q133.511-105.526 122.185-105.526ZM67.702-70.1189Q67.702-71.9298 68.9657-73.1942Q70.2295-74.4585 72.2-74.4585L112.971-74.4585Q114.862-74.4585 116.126-73.1942Q117.39-71.9298 117.39-70.1189Q117.39-68.2288 116.126-66.9254Q114.862-65.6221 112.971-65.6221L72.2-65.6221Q70.2295-65.6221 68.9657-66.9254Q67.702-68.2288 67.702-70.1189ZM67.702-49.9481Q67.702-51.8382 68.9657-53.1422Q70.2295-54.4461 72.2-54.4461L95.0745-54.4461Q96.9659-54.4461 98.2296-53.1422Q99.4934-51.8382 99.4934-49.9481Q99.4934-48.1164 98.2296-46.863Q96.9659-45.6097 95.0745-45.6097L72.2-45.6097Q70.2295-45.6097 68.9657-46.863Q67.702-48.1164 67.702-49.9481ZM65.0702 35.1036L137.724 35.1036Q144.754 35.1036 150.075 33.3634Q155.396 31.6232 158.37 27.495Q161.344 23.3669 161.344 16.1335L161.344 0.395264Q161.344-4.07896 158.487-6.85619Q155.629-9.63342 151.154-9.63342L82.2483-9.63342Q77.752-9.63342 74.895-6.85619Q72.0379-4.07896 72.0379 0.395264L72.0379 15.9175Q72.0379 22.3309 70.4784 27.031Q68.9189 31.7311 65.0702 35.1036Z"/>
  </g>
  <g id="Heavy-L" transform="matrix(1 0 0 1 2549.43 1556)">
   <path d="M16.084-71.3876Q16.084-67.3929 18.6589-64.8583Q21.2339-62.3236 25.3088-62.3236L29.2157-62.3236L29.2157-87.1693Q29.2157-90.1852 27.389-91.9966Q25.5623-93.8079 22.6806-93.8079Q19.7988-93.8079 17.9414-92.0022Q16.084-90.1965 16.084-87.1693ZM34.0242-104.658Q37.1321-103.16 38.4519-100.518Q39.7718-97.876 39.7718-93.5751L39.7718 16.1031Q39.7718 22.2969 42.9651 25.4655Q46.1584 28.6341 50.6608 28.6341Q55.1407 28.6341 58.2925 25.4366Q61.4443 22.2391 61.4443 16.3143L61.4443-3.33215Q61.4443-11.0577 65.5324-15.2315Q69.6205-19.4052 77.4066-19.4052L143.632-19.4052L143.632-81.9106Q143.632-92.8535 137.76-98.7557Q131.888-104.658 120.975-104.658ZM66.4856-69.9503Q66.4856-71.6856 67.6983-72.9011Q68.9109-74.1166 70.8015-74.1166L112.401-74.1166Q114.217-74.1166 115.43-72.9011Q116.642-71.6856 116.642-69.9503Q116.642-68.1402 115.43-66.8901Q114.217-65.64 112.401-65.64L70.8015-65.64Q68.9109-65.64 67.6983-66.8901Q66.4856-68.1402 66.4856-69.9503ZM66.4856-49.3207Q66.4856-51.1308 67.6983-52.3837Q68.9109-53.6366 70.8015-53.6366L93.6984-53.6366Q95.5141-53.6366 96.7268-52.3837Q97.9395-51.1308 97.9395-49.3207Q97.9395-47.5553 96.7268-46.3577Q95.5141-45.1601 93.6984-45.1601L70.8015-45.1601Q68.9109-45.1601 67.6983-46.3577Q66.4856-47.5553 66.4856-49.3207ZM65.0812 34.2078L135.786 34.2078Q142.533 34.2078 147.641 32.2849Q152.748 30.362 155.595 26.1352Q158.441 21.9084 158.441 14.9343L158.441 0.214996Q158.441-3.8544 155.866-6.35175Q153.291-8.8491 149.216-8.8491L81.2252-8.8491Q77.1201-8.8491 74.5451-6.35175Q71.9702-3.8544 71.9702 0.214996L71.9702 15.1756Q71.9702 21.3796 70.4695 26.0699Q68.9688 30.7602 65.0812 34.2078Z"/>
  </g>
  <g id="Bold-L" transform="matrix(1 0 0 1 2254.52 1556)">
   <path d="M16.084-71.4955Q16.084-68.0076 18.3019-65.8301Q20.5198-63.6525 24.0878-63.6525L29.7748-63.6525L29.7748-86.7748Q29.7748-89.8358 27.8178-91.6973Q25.8607-93.5588 22.9639-93.5588Q20.0671-93.5588 18.0755-91.7105Q16.084-89.8622 16.084-86.7748ZM33.348-103.545Q36.641-101.93 38.0107-99.1943Q39.3804-96.459 39.3804-91.9717L39.3804 15.5073Q39.3804 21.8177 42.7082 25.1067Q46.036 28.3957 50.8947 28.3957Q55.638 28.3957 58.8701 25.1243Q62.1021 21.8529 62.1021 15.7731L62.1021-3.08698Q62.1021-10.1305 65.7558-13.9128Q69.4094-17.695 76.5292-17.695L140.843-17.695L140.843-82.0879Q140.843-92.5014 135.359-98.0231Q129.875-103.545 119.499-103.545ZM64.8305-69.8098Q64.8305-71.4231 65.9593-72.5585Q67.088-73.6939 68.849-73.6939L111.761-73.6939Q113.455-73.6939 114.584-72.5585Q115.713-71.4231 115.713-69.8098Q115.713-68.1294 114.584-66.967Q113.455-65.8046 111.761-65.8046L68.849-65.8046Q67.088-65.8046 65.9593-66.967Q64.8305-68.1294 64.8305-69.8098ZM64.8305-48.6563Q64.8305-50.3367 65.9593-51.5058Q67.088-52.6748 68.849-52.6748L91.918-52.6748Q93.6117-52.6748 94.7406-51.5058Q95.8694-50.3367 95.8694-48.6563Q95.8694-47.0052 94.7406-45.8954Q93.6117-44.7856 91.918-44.7856L68.849-44.7856Q67.088-44.7856 65.9593-45.8954Q64.8305-47.0052 64.8305-48.6563ZM64.5824 33.0639L133.396 33.0639Q139.79 33.0639 144.625 30.9554Q149.46 28.8469 152.145 24.5418Q154.83 20.2368 154.83 13.5929L154.83-0.246274Q154.83-3.80124 152.612-5.94537Q150.394-8.0895 146.826-8.0895L79.7115-8.0895Q76.1053-8.0895 73.8874-5.94537Q71.6695-3.80124 71.6695-0.246274L71.6695 14.4474Q71.6695 20.4573 70.145 25.0764Q68.6204 29.6955 64.5824 33.0639Z"/>
  </g>
  <g id="Semibold-L" transform="matrix(1 0 0 1 1959.05 1556)">
   <path d="M16.084-71.5699Q16.084-68.4314 18.0557-66.5Q20.0274-64.5687 23.2461-64.5687L30.1603-64.5687L30.1603-86.5028Q30.1603-89.5949 28.1134-91.491Q26.0664-93.3871 23.1592-93.3871Q20.2521-93.3871 18.168-91.5095Q16.084-89.6318 16.084-86.5028ZM32.8818-102.778Q36.3024-101.082 37.7065-98.2819Q39.1105-95.4821 39.1105-90.8663L39.1105 15.0965Q39.1105 21.4874 42.531 24.8594Q45.9516 28.2313 51.0559 28.2313Q55.9808 28.2313 59.2682 24.909Q62.5556 21.5866 62.5556 15.4L62.5556-2.91796Q62.5556-9.49125 65.9098-13.0036Q69.2639-16.516 75.9243-16.516L138.92-16.516L138.92-82.2101Q138.92-92.2586 133.703-97.5181Q128.487-102.778 118.482-102.778ZM63.6895-69.7129Q63.6895-71.2421 64.7604-72.3223Q65.8313-73.4025 67.503-73.4025L111.32-73.4025Q112.93-73.4025 114.001-72.3223Q115.072-71.2421 115.072-69.7129Q115.072-68.122 114.001-67.0201Q112.93-65.9181 111.32-65.9181L67.503-65.9181Q65.8313-65.9181 64.7604-67.0201Q63.6895-68.122 63.6895-69.7129ZM63.6895-48.1983Q63.6895-49.7893 64.7604-50.9005Q65.8313-52.0118 67.503-52.0118L90.6907-52.0118Q92.3002-52.0118 93.3713-50.9005Q94.4423-49.7893 94.4423-48.1983Q94.4423-46.626 93.3713-45.5767Q92.3002-44.5274 90.6907-44.5274L67.503-44.5274Q65.8313-44.5274 64.7604-45.5767Q63.6895-46.626 63.6895-48.1983ZM64.2385 32.2753L131.748 32.2753Q137.899 32.2753 142.546 30.0388Q147.193 27.8023 149.767 23.4434Q152.341 19.0844 152.341 12.668L152.341-0.564271Q152.341-3.76459 150.369-5.66522Q148.397-7.56584 145.178-7.56584L78.6679-7.56584Q75.4057-7.56584 73.434-5.66522Q71.4622-3.76459 71.4622-0.564271L71.4622 13.9454Q71.4622 19.8215 69.9213 24.3915Q68.3803 28.9615 64.2385 32.2753Z"/>
  </g>
  <g id="Medium-L" transform="matrix(1 0 0 1 1663.29 1556)">
   <path d="M16.084-71.6263Q16.084-68.7527 17.8691-67.008Q19.6542-65.2633 22.6078-65.2633L30.4526-65.2633L30.4526-86.2965Q30.4526-89.4122 28.3375-91.3346Q26.2224-93.257 23.3073-93.257Q20.3923-93.257 18.2381-91.3571Q16.084-89.4572 16.084-86.2965ZM32.5284-102.196Q36.0457-100.439 37.4758-97.59Q38.9059-94.7413 38.9059-90.0282L38.9059 14.7851Q38.9059 21.2369 42.3967 24.6718Q45.8876 28.1067 51.1781 28.1067Q56.2408 28.1067 59.5701 24.7457Q62.8994 21.3847 62.8994 15.1171L62.8994-2.7898Q62.8994-9.00655 66.0265-12.3143Q69.1536-15.622 75.4656-15.622L137.461-15.622L137.461-82.3028Q137.461-92.0746 132.448-97.1352Q127.435-102.196 117.71-102.196ZM62.8243-69.6395Q62.8243-71.1049 63.8514-72.1432Q64.8784-73.1816 66.4823-73.1816L110.986-73.1816Q112.532-73.1816 113.559-72.1432Q114.586-71.1049 114.586-69.6395Q114.586-68.1164 113.559-67.0603Q112.532-66.0042 110.986-66.0042L66.4823-66.0042Q64.8784-66.0042 63.8514-67.0603Q62.8243-68.1164 62.8243-69.6395ZM62.8243-47.8511Q62.8243-49.3742 63.8514-50.4416Q64.8784-51.509 66.4823-51.509L89.76-51.509Q91.3058-51.509 92.333-50.4416Q93.3602-49.3742 93.3602-47.8511Q93.3602-46.3384 92.333-45.335Q91.3058-44.3316 89.76-44.3316L66.4823-44.3316Q64.8784-44.3316 63.8514-45.335Q62.8243-46.3384 62.8243-47.8511ZM63.9777 31.6774L130.499 31.6774Q136.465 31.6774 140.969 29.3438Q145.474 27.0103 147.963 22.6104Q150.453 18.2106 150.453 11.9668L150.453-0.805389Q150.453-3.73681 148.668-5.45279Q146.883-7.16878 143.929-7.16878L77.8766-7.16878Q74.8752-7.16878 73.0901-5.45279Q71.3051-3.73681 71.3051-0.805389L71.3051 13.5648Q71.3051 19.3394 69.7516 23.8722Q68.1982 28.4049 63.9777 31.6774Z"/>
  </g>
  <g id="Regular-L" transform="matrix(1 0 0 1 1367.81 1556)">
   <path d="M16.084-71.6999Q16.084-69.1718 17.6256-67.6706Q19.1673-66.1694 21.7753-66.1694L30.8339-66.1694L30.8339-86.0275Q30.8339-89.174 28.6298-91.1306Q26.4258-93.0871 23.5005-93.0871Q20.5752-93.0871 18.3296-91.1582Q16.084-89.2293 16.084-86.0275ZM32.0674-101.437Q35.7109-99.6 37.1749-96.6876Q38.639-93.7751 38.639-88.9349L38.639 14.3789Q38.639 20.9102 42.2216 24.4272Q45.8041 27.9442 51.3375 27.9442Q56.5798 27.9442 59.9639 24.5327Q63.348 21.1213 63.348 14.7481L63.348-2.62264Q63.348-8.37434 66.1788-11.4152Q69.0097-14.456 74.8674-14.456L135.559-14.456L135.559-82.4237Q135.559-91.8345 130.811-96.6357Q126.063-101.437 116.704-101.437ZM61.6959-69.5437Q61.6959-70.9259 62.6657-71.9096Q63.6355-72.8934 65.1511-72.8934L110.55-72.8934Q112.012-72.8934 112.982-71.9096Q113.952-70.9259 113.952-69.5437Q113.952-68.109 112.982-67.1127Q112.012-66.1164 110.55-66.1164L65.1511-66.1164Q63.6355-66.1164 62.6657-67.1127Q61.6959-68.109 61.6959-69.5437ZM61.6959-47.3981Q61.6959-48.8328 62.6657-49.843Q63.6355-50.8533 65.1511-50.8533L88.5461-50.8533Q90.0087-50.8533 90.9788-49.843Q91.9488-48.8328 91.9488-47.3981Q91.9488-45.9634 90.9788-45.0198Q90.0087-44.0763 88.5461-44.0763L65.1511-44.0763Q63.6355-44.0763 62.6657-45.0198Q61.6959-45.9634 61.6959-47.3981ZM63.6376 30.8974L128.869 30.8974Q134.594 30.8974 138.913 28.4373Q143.232 25.9772 145.611 21.524Q147.991 17.0708 147.991 11.0522L147.991-1.11989Q147.991-3.70056 146.449-5.17572Q144.908-6.65087 142.3-6.65087L76.8444-6.65087Q74.1833-6.65087 72.6417-5.17572Q71.1001-3.70056 71.1001-1.11989L71.1001 13.0683Q71.1001 18.7105 69.5304 23.1948Q67.9607 27.679 63.6376 30.8974Z"/>
  </g>
  <g id="Light-L" transform="matrix(1 0 0 1 1072.39 1556)">
   <path d="M16.084-71.6999Q16.084-69.5915 17.3298-68.3863Q18.5756-67.1811 20.7637-67.1811L31.5781-67.1811L31.5781-86.3139Q31.5781-89.6893 29.2405-91.6364Q26.9029-93.5835 23.9013-93.5835Q20.8997-93.5835 18.4919-91.6831Q16.084-89.7827 16.084-86.3139ZM31.6095-100.425Q35.2145-98.8747 36.7454-96.1723Q38.2763-93.4699 38.2763-88.8968L38.2763 13.2338Q38.2763 19.5551 41.9448 22.8908Q45.6133 26.2264 50.803 26.2264Q55.7782 26.2264 59.3054 22.9582Q62.8327 19.6899 62.8327 13.4693L62.8327-3.90142Q62.8327-8.79407 65.425-11.4915Q68.0173-14.1889 72.9781-14.1889L133.708-14.1889L133.708-82.4429Q133.708-91.3 129.179-95.8626Q124.65-100.425 115.826-100.425ZM59.5965-69.8871Q59.5965-71.0022 60.3754-71.8046Q61.1542-72.607 62.3838-72.607L110.53-72.607Q111.726-72.607 112.505-71.8046Q113.284-71.0022 113.284-69.8871Q113.284-68.7388 112.505-67.9429Q111.726-67.147 110.53-67.147L62.3838-67.147Q61.1542-67.147 60.3754-67.9429Q59.5965-68.7388 59.5965-69.8871ZM59.5965-47.6652Q59.5965-48.8135 60.3754-49.633Q61.1542-50.4525 62.3838-50.4525L86.8284-50.4525Q88.0239-50.4525 88.8031-49.633Q89.5824-48.8135 89.5824-47.6652Q89.5824-46.5168 88.8031-45.7546Q88.0239-44.9924 86.8284-44.9924L62.3838-44.9924Q61.1542-44.9924 60.3754-45.7546Q59.5965-46.5168 59.5965-47.6652ZM59.9923 29.8858L127.285 29.8858Q132.743 29.8858 136.823 27.5594Q140.903 25.233 143.149 21.0087Q145.395 16.7845 145.395 11.0522L145.395-2.97104Q145.395-5.11273 144.149-6.3017Q142.904-7.49067 140.716-7.49067L74.2106-7.49067Q71.9884-7.49067 70.7426-6.3017Q69.4968-5.11273 69.4968-2.97104L69.4968 13.7936Q69.4968 19.7222 67.2879 23.7769Q65.079 27.8316 59.9923 29.8858Z"/>
  </g>
  <g id="Thin-L" transform="matrix(1 0 0 1 777.399 1556)">
   <path d="M16.084-71.6999Q16.084-70.1467 16.9386-69.3329Q17.7932-68.5191 19.4257-68.5191L32.5624-68.5191L32.5624-86.6926Q32.5624-90.3708 30.0482-92.3054Q27.534-94.24 24.4314-94.24Q21.3289-94.24 18.7064-92.3774Q16.084-90.5147 16.084-86.6926ZM31.0039-99.0872Q34.5581-97.9154 36.1774-95.4908Q37.7967-93.0661 37.7967-88.8463L37.7967 11.7194Q37.7967 17.7629 41.5788 20.8587Q45.361 23.9545 50.096 23.9545Q54.718 23.9545 58.4346 20.8756Q62.1511 17.7968 62.1511 11.778L62.1511-5.5927Q62.1511-9.34921 64.4279-11.5924Q66.7047-13.8356 70.4794-13.8356L131.26-13.8356L131.26-82.4683Q131.26-90.593 127.021-94.8401Q122.783-99.0872 114.665-99.0872ZM56.82-70.3414Q56.82-71.1031 57.3463-71.6657Q57.8726-72.2283 58.7239-72.2283L110.505-72.2283Q111.347-72.2283 111.874-71.6657Q112.401-71.1031 112.401-70.3414Q112.401-69.5717 111.874-69.0409Q111.347-68.51 110.505-68.51L58.7239-68.51Q57.8726-68.51 57.3463-69.0409Q56.82-69.5717 56.82-70.3414ZM56.82-48.0185Q56.82-48.7881 57.3463-49.3552Q57.8726-49.9223 58.7239-49.9223L84.5565-49.9223Q85.3987-49.9223 85.9256-49.3552Q86.4526-48.7881 86.4526-48.0185Q86.4526-47.2488 85.9256-46.7264Q85.3987-46.2041 84.5565-46.2041L58.7239-46.2041Q57.8726-46.2041 57.3463-46.7264Q56.82-47.2488 56.82-48.0185ZM55.1713 28.5478L125.19 28.5478Q130.295 28.5478 134.059 26.3982Q137.824 24.2487 139.893 20.3272Q141.962 16.4058 141.962 11.0522L141.962-5.41933Q141.962-6.98043 141.108-7.7909Q140.253-8.60137 138.621-8.60137L70.7271-8.60137Q69.0855-8.60137 68.2309-7.7909Q67.3763-6.98043 67.3763-5.41933L67.3763 14.7529Q67.3763 21.0602 64.322 24.5469Q61.2677 28.0335 55.1713 28.5478Z"/>
  </g>
  <g id="Ultralight-L" transform="matrix(1 0 0 1 481.567 1556)">
   <path d="M16.084-71.6999Q16.084-70.431 16.7382-69.8177Q17.3924-69.2044 18.7403-69.2044L33.0666-69.2044L33.0666-86.8866Q33.0666-90.7199 30.4619-92.6481Q27.8572-94.5763 24.703-94.5763Q21.5487-94.5763 18.8164-92.733Q16.084-90.8896 16.084-86.8866ZM30.6937-98.4018Q34.2218-97.4241 35.8864-95.1417Q37.551-92.8594 37.551-88.8204L37.551 10.9437Q37.551 16.845 41.3914 19.8179Q45.2318 22.7909 49.7339 22.7909Q54.1749 22.7909 57.9885 19.809Q61.8021 16.8271 61.8021 10.9117L61.8021-6.45897Q61.8021-9.63355 63.9173-11.6441Q66.0324-13.6547 69.1995-13.6547L130.006-13.6547L130.006-82.4814Q130.006-90.2309 125.916-94.3164Q121.826-98.4018 114.07-98.4018ZM55.3979-70.574Q55.3979-71.1548 55.7948-71.5946Q56.1918-72.0343 56.8493-72.0343L110.492-72.0343Q111.153-72.0343 111.551-71.5946Q111.948-71.1548 111.948-70.574Q111.948-69.9983 111.551-69.6032Q111.153-69.2082 110.492-69.2082L56.8493-69.2082Q56.1918-69.2082 55.7948-69.6032Q55.3979-69.9983 55.3979-70.574ZM55.3979-48.1994Q55.3979-48.7751 55.7948-49.2129Q56.1918-49.6508 56.8493-49.6508L83.3929-49.6508Q84.0542-49.6508 84.4518-49.2129Q84.8495-48.7751 84.8495-48.1994Q84.8495-47.6237 84.4518-47.2242Q84.0542-46.8246 83.3929-46.8246L56.8493-46.8246Q56.1918-46.8246 55.7948-47.2242Q55.3979-47.6237 55.3979-48.1994ZM52.7019 27.8624L124.117 27.8624Q129.041 27.8624 132.644 25.8035Q136.247 23.7445 138.225 19.9782Q140.204 16.2118 140.204 11.0522L140.204-6.67333Q140.204-7.93706 139.55-8.55366Q138.895-9.17026 137.547-9.17026L68.9428-9.17026Q67.5987-9.17026 66.9444-8.55366Q66.2902-7.93706 66.2902-6.67333L66.2902 15.2443Q66.2902 21.7455 62.8029 24.9412Q59.3155 28.1369 52.7019 27.8624Z"/>
  </g>
  <g id="Black-M" transform="matrix(1 0 0 1 2863.6 1126)">
   <path d="M12.4609-63.085Q12.4609-59.3928 14.8768-57.0081Q17.2926-54.6234 21.0472-54.6234L22.0711-54.6234L22.0711-76.1433Q22.0711-78.4919 20.8009-79.8186Q19.5307-81.1454 17.2941-81.1454Q15.0575-81.1454 13.7592-79.8184Q12.4609-78.4913 12.4609-76.1433ZM27.1919-90.3003Q29.3162-89.408 30.2888-87.5693Q31.2613-85.7306 31.2613-82.7617L31.2613 5.0206Q31.2613 9.57736 33.568 11.7947Q35.8747 14.012 38.7256 14.012Q41.7205 14.012 44.0938 11.6915Q46.4671 9.37094 46.4671 5.05904L46.4671-11.3107Q46.4671-18.0001 50.1878-21.6886Q53.9085-25.3772 60.6088-25.3772L114.723-25.3772L114.723-71.1428Q114.723-80.2057 109.681-85.253Q104.639-90.3003 95.582-90.3003ZM53.2125-62.4513Q53.2125-63.883 54.2096-64.88Q55.2067-65.8769 56.7634-65.8769L88.0102-65.8769Q89.5042-65.8769 90.5013-64.88Q91.4984-63.883 91.4984-62.4513Q91.4984-60.9569 90.5013-59.9285Q89.5042-58.9001 88.0102-58.9001L56.7634-58.9001Q55.2067-58.9001 54.2096-59.9285Q53.2125-60.9569 53.2125-62.4513ZM53.2125-47.208Q53.2125-48.7023 54.2096-49.7306Q55.2067-50.7588 56.7634-50.7588L74.6082-50.7588Q76.1023-50.7588 77.0994-49.7306Q78.0965-48.7023 78.0965-47.208Q78.0965-45.7707 77.0994-44.7764Q76.1023-43.782 74.6082-43.782L56.7634-43.782Q55.2067-43.782 54.2096-44.7764Q53.2125-45.7707 53.2125-47.208ZM49.9092 19.8932L108.151 19.8932Q113.804 19.8932 118.078 18.7202Q122.352 17.5471 124.747 14.4647Q127.143 11.3822 127.143 5.59424L127.143-7.72538Q127.143-11.4802 124.727-13.8336Q122.311-16.187 118.556-16.187L64.2436-16.187Q60.4835-16.187 58.0677-13.8336Q55.6518-11.4802 55.6518-7.72538L55.6518 5.13211Q55.6518 10.3196 54.3064 13.9112Q52.961 17.5028 49.9092 19.8932Z"/>
  </g>
  <g id="Heavy-M" transform="matrix(1 0 0 1 2568.19 1126)">
   <path d="M12.4609-63.1793Q12.4609-59.8398 14.6283-57.7036Q16.7957-55.5674 20.1975-55.5674L22.3998-55.5674L22.3998-75.737Q22.3998-78.0758 21.0444-79.4485Q19.689-80.8211 17.4556-80.8211Q15.2222-80.8211 13.8416-79.4507Q12.4609-78.0804 12.4609-75.737ZM26.6993-89.545Q28.9937-88.4889 29.9954-86.5233Q30.9971-84.5578 30.9971-81.3687L30.9971 4.74592Q30.9971 9.44971 33.4029 11.8112Q35.8087 14.1726 39.0447 14.1726Q42.3273 14.1726 44.74 11.7567Q47.1526 9.34087 47.1526 4.86077L47.1526-10.8217Q47.1526-17.0996 50.5449-20.5198Q53.9372-23.9401 60.2479-23.9401L112.683-23.9401L112.683-71.2936Q112.683-80.0128 107.933-84.7789Q103.184-89.545 94.4808-89.545ZM52.2171-62.2547Q52.2171-63.6372 53.1819-64.6031Q54.1467-65.5691 55.6515-65.5691L87.4551-65.5691Q88.8999-65.5691 89.8647-64.6031Q90.8296-63.6372 90.8296-62.2547Q90.8296-60.8122 89.8647-59.8174Q88.8999-58.8226 87.4551-58.8226L55.6515-58.8226Q54.1467-58.8226 53.1819-59.8174Q52.2171-60.8122 52.2171-62.2547ZM52.2171-46.57Q52.2171-48.0125 53.1819-49.0085Q54.1467-50.0045 55.6515-50.0045L73.4214-50.0045Q74.8662-50.0045 75.831-49.0085Q76.7958-48.0125 76.7958-46.57Q76.7958-45.1711 75.831-44.2146Q74.8662-43.258 73.4214-43.258L55.6515-43.258Q54.1467-43.258 53.1819-44.2146Q52.2171-45.1711 52.2171-46.57ZM50.2563 19.1109L106.403 19.1109Q111.804 19.1109 115.891 17.7469Q119.978 16.3829 122.261 13.1829Q124.545 9.9829 124.545 4.42194L124.545-7.73083Q124.545-11.1304 122.377-13.2366Q120.21-15.3428 116.808-15.3428L63.4865-15.3428Q60.0682-15.3428 57.9009-13.2366Q55.7335-11.1304 55.7335-7.73083L55.7335 4.33995Q55.7335 9.2963 54.5046 12.9179Q53.2757 16.5396 50.2563 19.1109Z"/>
  </g>
  <g id="Bold-M" transform="matrix(1 0 0 1 2272.93 1126)">
   <path d="M12.4609-63.2848Q12.4609-60.3398 14.3503-58.4816Q16.2397-56.6234 19.247-56.6234L22.7676-56.6234L22.7676-75.2825Q22.7676-77.6104 21.3168-79.0344Q19.866-80.4584 17.6363-80.4584Q15.4065-80.4584 13.9337-79.0395Q12.4609-77.6207 12.4609-75.2825ZM26.1484-88.7Q28.6329-87.4607 29.6673-85.3533Q30.7016-83.2459 30.7016-79.8104L30.7016 4.43866Q30.7016 9.30693 33.2183 11.8296Q35.7349 14.3523 39.4017 14.3523Q43.0061 14.3523 45.4628 11.8298Q47.9195 9.30723 47.9195 4.63898L47.9195-10.2748Q47.9195-16.0923 50.9444-19.2123Q53.9694-22.3324 59.8442-22.3324L110.401-22.3324L110.401-71.4623Q110.401-79.797 105.978-84.2485Q101.555-88.7 93.2488-88.7ZM51.1036-62.0349Q51.1036-63.3623 52.0322-64.2935Q52.9609-65.2247 54.4078-65.2247L86.8342-65.2247Q88.2239-65.2247 89.1526-64.2935Q90.0813-63.3623 90.0813-62.0349Q90.0813-60.6503 89.1526-59.6931Q88.2239-58.7359 86.8342-58.7359L54.4078-58.7359Q52.9609-58.7359 52.0322-59.6931Q51.1036-60.6503 51.1036-62.0349ZM51.1036-45.8564Q51.1036-47.2409 52.0322-48.2007Q52.9609-49.1606 54.4078-49.1606L72.0937-49.1606Q73.4835-49.1606 74.4121-48.2007Q75.3408-47.2409 75.3408-45.8564Q75.3408-44.5004 74.4121-43.5861Q73.4835-42.6717 72.0937-42.6717L54.4078-42.6717Q52.9609-42.6717 52.0322-43.5861Q51.1036-44.5004 51.1036-45.8564ZM50.6446 18.2358L104.447 18.2358Q109.567 18.2358 113.445 16.6582Q117.323 15.0806 119.481 11.7491Q121.638 8.41757 121.638 3.11055L121.638-7.73693Q121.638-10.7391 119.749-12.5688Q117.859-14.3984 114.852-14.3984L62.6395-14.3984Q59.6036-14.3984 57.7142-12.5688Q55.8248-10.7391 55.8248-7.73693L55.8248 3.45381Q55.8248 8.1516 54.7262 11.8068Q53.6276 15.4621 50.6446 18.2358Z"/>
  </g>
  <g id="Semibold-M" transform="matrix(1 0 0 1 1977.22 1126)">
   <path d="M12.4609-63.3576Q12.4609-60.6845 14.1587-59.018Q15.8565-57.3514 18.5917-57.3514L23.0212-57.3514L23.0212-74.9692Q23.0212-77.2895 21.5046-78.7489Q19.988-80.2083 17.7608-80.2083Q15.5336-80.2083 13.9973-78.756Q12.4609-77.3037 12.4609-74.9692ZM25.7685-88.1174Q28.3842-86.7519 29.441-84.5467Q30.4979-82.3415 30.4979-78.7361L30.4979 4.22683Q30.4979 9.20849 33.0909 11.8423Q35.684 14.4762 39.6479 14.4762Q43.474 14.4762 45.9611 11.8801Q48.4482 9.28404 48.4482 4.48608L48.4482-9.89772Q48.4482-15.3978 51.2199-18.311Q53.9915-21.2241 59.5659-21.2241L108.827-21.2241L108.827-71.5786Q108.827-79.6483 104.63-83.8829Q100.432-88.1174 92.3995-88.1174ZM50.336-61.8833Q50.336-63.1727 51.2397-64.08Q52.1434-64.9873 53.5503-64.9873L86.4062-64.9873Q87.7579-64.9873 88.6617-64.08Q89.5655-63.1727 89.5655-61.8833Q89.5655-60.5387 88.6617-59.6074Q87.7579-58.6761 86.4062-58.6761L53.5503-58.6761Q52.1434-58.6761 51.2397-59.6074Q50.336-60.5387 50.336-61.8833ZM50.336-45.3644Q50.336-46.709 51.2397-47.6439Q52.1434-48.5788 53.5503-48.5788L71.1785-48.5788Q72.5302-48.5788 73.434-47.6439Q74.3377-46.709 74.3377-45.3644Q74.3377-44.038 73.434-43.1528Q72.5302-42.2676 71.1785-42.2676L53.5503-42.2676Q52.1434-42.2676 51.2397-43.1528Q50.336-44.038 50.336-45.3644ZM50.9122 17.6325L103.099 17.6325Q108.025 17.6325 111.759 15.9076Q115.493 14.1828 117.564 10.7606Q119.635 7.33844 119.635 2.20648L119.635-7.74113Q119.635-10.4693 117.937-12.1084Q116.239-13.7474 113.504-13.7474L62.0557-13.7474Q59.2833-13.7474 57.5856-12.1084Q55.8878-10.4693 55.8878-7.74113L55.8878 2.8429Q55.8878 7.36245 54.879 11.0409Q53.8702 14.7193 50.9122 17.6325Z"/>
  </g>
  <g id="Medium-M" transform="matrix(1 0 0 1 1681.27 1126)">
   <path d="M12.4609-63.4127Q12.4609-60.9459 14.0134-59.4247Q15.5659-57.9034 18.0948-57.9034L23.2134-57.9034L23.2134-74.7316Q23.2134-77.0462 21.647-78.5325Q20.0806-80.0187 17.8552-80.0187Q15.6299-80.0187 14.0454-78.5411Q12.4609-77.0634 12.4609-74.7316ZM25.4805-87.6757Q28.1956-86.2144 29.2695-83.9351Q30.3434-81.6557 30.3434-77.9215L30.3434 4.06621Q30.3434 9.13385 32.9944 11.852Q35.6454 14.5701 39.8345 14.5701Q43.8288 14.5701 46.3389 11.9183Q48.8491 9.26646 48.8491 4.37015L48.8491-9.61181Q48.8491-14.8713 51.4287-17.6275Q54.0083-20.3837 59.3548-20.3837L107.634-20.3837L107.634-71.6668Q107.634-79.5355 103.608-83.6056Q99.581-87.6757 91.7556-87.6757ZM49.7539-61.7684Q49.7539-63.029 50.6387-63.9181Q51.5235-64.8073 52.9002-64.8073L86.0816-64.8073Q87.4046-64.8073 88.2894-63.9181Q89.1743-63.029 89.1743-61.7684Q89.1743-60.4541 88.2894-59.5424Q87.4046-58.6307 86.0816-58.6307L52.9002-58.6307Q51.5235-58.6307 50.6387-59.5424Q49.7539-60.4541 49.7539-61.7684ZM49.7539-44.9914Q49.7539-46.3056 50.6387-47.2216Q51.5235-48.1377 52.9002-48.1377L70.4845-48.1377Q71.8074-48.1377 72.6923-47.2216Q73.5772-46.3056 73.5772-44.9914Q73.5772-43.6874 72.6923-42.8243Q71.8074-41.9611 70.4845-41.9611L52.9002-41.9611Q51.5235-41.9611 50.6387-42.8243Q49.7539-43.6874 49.7539-44.9914ZM51.1152 17.175L102.077 17.175Q106.856 17.175 110.48 15.3385Q114.105 13.502 116.11 10.0111Q118.115 6.5202 118.115 1.52098L118.115-7.74432Q118.115-10.2648 116.563-11.7593Q115.011-13.2538 112.482-13.2538L61.613-13.2538Q59.0405-13.2538 57.488-11.7593Q55.9356-10.2648 55.9356-7.74432L55.9356 2.37969Q55.9356 6.76408 54.9949 10.4601Q54.0542 14.156 51.1152 17.175Z"/>
  </g>
  <g id="Regular-M" transform="matrix(1 0 0 1 1385.55 1126)">
   <path d="M12.4609-63.4847Q12.4609-61.2868 13.8239-59.9551Q15.1868-58.6234 17.4468-58.6234L23.4642-58.6234L23.4642-74.4217Q23.4642-76.7289 21.8327-78.2502Q20.2013-79.7714 17.9784-79.7714Q15.7556-79.7714 14.1083-78.2607Q12.4609-76.75 12.4609-74.4217ZM25.1049-87.0996Q27.9496-85.5134 29.0457-83.1373Q30.1419-80.7612 30.1419-76.8591L30.1419 3.85671Q30.1419 9.0365 32.8685 11.8646Q35.5951 14.6926 40.0779 14.6926Q44.2916 14.6926 46.8318 11.9681Q49.372 9.24353 49.372 4.21893L49.372-9.23889Q49.372-14.1845 51.7011-16.736Q54.0303-19.2876 59.0795-19.2876L106.078-19.2876L106.078-71.7818Q106.078-79.3884 102.275-83.244Q98.4707-87.0996 90.9156-87.0996ZM48.9947-61.6185Q48.9947-62.8415 49.8548-63.707Q50.715-64.5725 52.0522-64.5725L85.6583-64.5725Q86.9437-64.5725 87.8039-63.707Q88.6641-62.8415 88.6641-61.6185Q88.6641-60.3438 87.8039-59.4577Q86.9437-58.5716 85.6583-58.5716L52.0522-58.5716Q50.715-58.5716 49.8548-59.4577Q48.9947-60.3438 48.9947-61.6185ZM48.9947-44.5048Q48.9947-45.7795 49.8548-46.6709Q50.715-47.5623 52.0522-47.5623L69.5793-47.5623Q70.8646-47.5623 71.7249-46.6709Q72.5851-45.7795 72.5851-44.5048Q72.5851-43.2301 71.7249-42.3958Q70.8646-41.5614 69.5793-41.5614L52.0522-41.5614Q50.715-41.5614 49.8548-42.3958Q48.9947-43.2301 48.9947-44.5048ZM51.3799 16.5783L100.743 16.5783Q105.331 16.5783 108.813 14.5962Q112.294 12.614 114.214 9.03349Q116.134 5.45293 116.134 0.626855L116.134-7.74848Q116.134-9.99798 114.771-11.3039Q113.408-12.6099 111.148-12.6099L61.0355-12.6099Q58.7237-12.6099 57.3608-11.3039Q55.9978-9.99798 55.9978-7.74848L55.9978 1.7755Q55.9978 5.9836 55.146 9.7025Q54.2942 13.4214 51.3799 16.5783Z"/>
  </g>
  <g id="Light-M" transform="matrix(1 0 0 1 1090 1126)">
   <path d="M12.4609-63.4847Q12.4609-61.6631 13.5587-60.5968Q14.6564-59.5305 16.5398-59.5305L24.1314-59.5305L24.1314-74.6784Q24.1314-77.1909 22.3802-78.7037Q20.6291-80.2164 18.3378-80.2164Q16.0465-80.2164 14.2537-78.7313Q12.4609-77.2462 12.4609-74.6784ZM24.6943-86.1926Q27.5046-84.8631 28.6607-82.6753Q29.8167-80.4875 29.8167-76.8249L29.8167 2.83011Q29.8167 7.82159 32.6204 10.4871Q35.4241 13.1526 39.5987 13.1526Q43.5729 13.1526 46.2414 10.5564Q48.91 7.9602 48.91 3.07244L48.91-10.3854Q48.91-14.5608 51.0252-16.8045Q53.1405-19.0481 57.3857-19.0481L104.419-19.0481L104.419-71.7991Q104.419-78.9091 100.812-82.5509Q97.2046-86.1926 90.1285-86.1926ZM47.1125-61.9264Q47.1125-62.9099 47.8015-63.6128Q48.4904-64.3157 49.5712-64.3157L85.6411-64.3157Q86.6869-64.3157 87.3761-63.6128Q88.0653-62.9099 88.0653-61.9264Q88.0653-60.9084 87.3761-60.202Q86.6869-59.4956 85.6411-59.4956L49.5712-59.4956Q48.4904-59.4956 47.8015-60.202Q47.1125-60.9084 47.1125-61.9264ZM47.1125-44.7443Q47.1125-45.7623 47.8015-46.4826Q48.4904-47.2029 49.5712-47.2029L68.0392-47.2029Q69.0851-47.2029 69.7743-46.4826Q70.4635-45.7623 70.4635-44.7443Q70.4635-43.7263 69.7743-43.0545Q69.0851-42.3828 68.0392-42.3828L49.5712-42.3828Q48.4904-42.3828 47.8015-43.0545Q47.1125-43.7263 47.1125-44.7443ZM48.1118 15.6713L99.3231 15.6713Q103.671 15.6713 106.939 13.809Q110.207 11.9468 112.007 8.5715Q113.807 5.1962 113.807 0.626855L113.807-9.40813Q113.807-11.2641 112.709-12.3134Q111.611-13.3628 109.728-13.3628L58.6741-13.3628Q56.7559-13.3628 55.6581-12.3134Q54.5604-11.2641 54.5604-9.40813L54.5604 2.42579Q54.5604 6.89062 53.1355 10.2244Q51.7106 13.5582 48.1118 15.6713Z"/>
  </g>
  <g id="Thin-M" transform="matrix(1 0 0 1 794.827 1126)">
   <path d="M12.4609-63.4847Q12.4609-62.1609 13.2079-61.4455Q13.9549-60.7301 15.3402-60.7301L25.0139-60.7301L25.0139-75.0179Q25.0139-77.8019 23.1044-79.3035Q21.1948-80.805 18.8131-80.805Q16.4313-80.805 14.4461-79.3537Q12.4609-77.9025 12.4609-75.0179ZM24.1514-84.993Q26.916-84.003 28.1514-82.0643Q29.3867-80.1256 29.3867-76.7796L29.3867 1.47234Q29.3867 6.21478 32.2923 8.66526Q35.1978 11.1157 38.9649 11.1157Q42.6223 11.1157 45.4606 8.68932Q48.299 6.26289 48.299 1.55611L48.299-11.9017Q48.299-15.0585 50.1313-16.895Q51.9637-18.7314 55.1454-18.7314L102.224-18.7314L102.224-71.8219Q102.224-78.2753 98.8769-81.6341Q95.5301-84.993 89.0874-84.993ZM44.6232-62.3336Q44.6232-63.0004 45.0858-63.4883Q45.5483-63.9762 46.2899-63.9762L85.6182-63.9762Q86.3474-63.9762 86.8104-63.4883Q87.2733-63.0004 87.2733-62.3336Q87.2733-61.6551 86.8104-61.1864Q86.3474-60.7176 85.6182-60.7176L46.2899-60.7176Q45.5483-60.7176 45.0858-61.1864Q44.6232-61.6551 44.6232-62.3336ZM44.6232-45.061Q44.6232-45.7394 45.0858-46.2336Q45.5483-46.7277 46.2899-46.7277L66.0024-46.7277Q66.7315-46.7277 67.1945-46.2336Q67.6574-45.7394 67.6574-45.061Q67.6574-44.3825 67.1945-43.9258Q66.7315-43.4691 66.0024-43.4691L46.2899-43.4691Q45.5483-43.4691 45.0858-43.9258Q44.6232-44.3825 44.6232-45.061ZM43.7894 14.4717L97.4448 14.4717Q101.476 14.4717 104.461 12.768Q107.446 11.0643 109.087 7.96048Q110.729 4.85667 110.729 0.626855L110.729-11.6031Q110.729-12.9386 109.982-13.6486Q109.235-14.3586 107.85-14.3586L55.551-14.3586Q54.1532-14.3586 53.4063-13.6486Q52.6593-12.9386 52.6593-11.6031L52.6593 3.28585Q52.6593 8.09022 50.4764 10.9147Q48.2935 13.7392 43.7894 14.4717Z"/>
  </g>
  <g id="Ultralight-M" transform="matrix(1 0 0 1 498.904 1126)">
   <path d="M12.4609-63.4847Q12.4609-62.4158 13.0283-61.8801Q13.5956-61.3445 14.7257-61.3445L25.4659-61.3445L25.4659-75.1919Q25.4659-78.1149 23.4753-79.6107Q21.4846-81.1065 19.0565-81.1065Q16.6284-81.1065 14.5447-79.6725Q12.4609-78.2386 12.4609-75.1919ZM23.8733-84.3786Q26.6145-83.5625 27.8905-81.7513Q29.1665-79.9402 29.1665-76.7564L29.1665 0.776894Q29.1665 5.39177 32.1242 7.73213Q35.082 10.0725 38.6402 10.0725Q42.1355 10.0725 45.0607 7.73301Q47.986 5.39354 47.986 0.779462L47.986-12.6784Q47.986-15.3134 49.6735-16.9413Q51.361-18.5692 53.998-18.5692L101.099-18.5692L101.099-71.8336Q101.099-77.9507 97.8859-81.1646Q94.6724-84.3786 88.5542-84.3786ZM43.3482-62.5422Q43.3482-63.0468 43.6948-63.4245Q44.0413-63.8023 44.6092-63.8023L85.6066-63.8023Q86.1735-63.8023 86.5206-63.4245Q86.8677-63.0468 86.8677-62.5422Q86.8677-62.0376 86.5206-61.6906Q86.1735-61.3435 85.6066-61.3435L44.6092-61.3435Q44.0413-61.3435 43.6948-61.6906Q43.3482-62.0376 43.3482-62.5422ZM43.3482-45.2232Q43.3482-45.7278 43.6948-46.106Q44.0413-46.4842 44.6092-46.4842L64.9591-46.4842Q65.526-46.4842 65.8731-46.106Q66.2202-45.7278 66.2202-45.2232Q66.2202-44.7187 65.8731-44.3721Q65.526-44.0255 64.9591-44.0255L44.6092-44.0255Q44.0413-44.0255 43.6948-44.3721Q43.3482-44.7187 43.3482-45.2232ZM41.5755 13.8573L96.4827 13.8573Q100.352 13.8573 103.192 12.2348Q106.032 10.6123 107.592 7.64752Q109.152 4.68276 109.152 0.626855L109.152-12.7274Q109.152-13.7962 108.585-14.3324Q108.018-14.8686 106.888-14.8686L53.9513-14.8686Q52.8202-14.8686 52.2529-14.3324Q51.6856-13.7962 51.6856-12.7274L51.6856 3.72637Q51.6856 8.70464 49.1144 11.2683Q46.5433 13.8319 41.5755 13.8573Z"/>
  </g>
  <g id="Black-S" transform="matrix(1 0 0 1 2878.37 696)">
   <path d="M9.76562-57.0312Q9.76562-54.0527 11.7188-52.124Q13.6719-50.1953 16.6992-50.1953L17.2363-50.1953L17.2363-67.4316Q17.2363-69.2871 16.2598-70.3125Q15.2832-71.3379 13.5254-71.3379Q11.7676-71.3379 10.7666-70.3125Q9.76562-69.2871 9.76562-67.4316ZM21.4355-78.5645Q23.0469-77.9297 23.8037-76.5381Q24.5605-75.1465 24.5605-72.9004L24.5605-3.66211Q24.5605-0.146484 26.3428 1.53809Q28.125 3.22266 30.2246 3.22266Q32.4707 3.22266 34.3262 1.44043Q36.1816-0.341797 36.1816-3.66211L36.1816-16.6992Q36.1816-22.0215 39.1846-24.9756Q42.1875-27.9297 47.5098-27.9297L90.4297-27.9297L90.4297-63.3301Q90.4297-70.5078 86.4014-74.5361Q82.373-78.5645 75.1953-78.5645ZM41.8945-56.6406Q41.8945-57.7637 42.6758-58.5449Q43.457-59.3262 44.6777-59.3262L69.1406-59.3262Q70.3125-59.3262 71.0938-58.5449Q71.875-57.7637 71.875-56.6406Q71.875-55.4688 71.0938-54.6631Q70.3125-53.8574 69.1406-53.8574L44.6777-53.8574Q43.457-53.8574 42.6758-54.6631Q41.8945-55.4688 41.8945-56.6406ZM41.8945-44.8242Q41.8945-45.9961 42.6758-46.8018Q43.457-47.6074 44.6777-47.6074L58.7402-47.6074Q59.9121-47.6074 60.6934-46.8018Q61.4746-45.9961 61.4746-44.8242Q61.4746-43.7012 60.6934-42.9199Q59.9121-42.1387 58.7402-42.1387L44.6777-42.1387Q43.457-42.1387 42.6758-42.9199Q41.8945-43.7012 41.8945-44.8242ZM38.8184 8.1543L85.2051 8.1543Q89.6973 8.1543 93.0908 7.2998Q96.4844 6.44531 98.3887 4.07715Q100.293 1.70898 100.293-2.88086L100.293-13.7695Q100.293-16.7969 98.3398-18.7012Q96.3867-20.6055 93.3594-20.6055L50.4395-20.6055Q47.4121-20.6055 45.459-18.7012Q43.5059-16.7969 43.5059-13.7695L43.5059-3.32031Q43.5059 0.830078 42.3828 3.61328Q41.2598 6.39648 38.8184 8.1543Z"/>
  </g>
  <g id="Heavy-S" transform="matrix(1 0 0 1 2582.62 696)">
   <path d="M9.76562-57.1119Q9.76562-54.3869 11.5401-52.6369Q13.3146-50.8868 16.0884-50.8868L17.4322-50.8868L17.4322-67.0513Q17.4322-68.8722 16.3981-69.938Q15.3639-71.0037 13.6176-71.0037Q11.8713-71.0037 10.8185-69.938Q9.76562-68.8722 9.76562-67.0513ZM21.0668-78.0343Q22.8279-77.2267 23.602-75.7026Q24.3762-74.1784 24.3762-71.7134L24.3762-3.76583Q24.3762-0.100387 26.2333 1.72824Q28.0904 3.55687 30.5588 3.55687Q33.0815 3.55687 34.9543 1.67668Q36.827-0.203503 36.827-3.68516L36.827-16.1345Q36.827-21.2032 39.5764-23.9672Q42.3258-26.7311 47.4176-26.7311L88.8969-26.7311L88.8969-63.4568Q88.8969-70.4041 85.0933-74.2192Q81.2897-78.0343 74.354-78.0343ZM41.2837-56.4332Q41.2837-57.5447 42.0592-58.3202Q42.8347-59.0957 44.0439-59.0957L68.6681-59.0957Q69.8285-59.0957 70.604-58.3202Q71.3794-57.5447 71.3794-56.4332Q71.3794-55.2728 70.604-54.4729Q69.8285-53.673 68.6681-53.673L44.0439-53.673Q42.8347-53.673 42.0592-54.4729Q41.2837-55.2728 41.2837-56.4332ZM41.2837-44.248Q41.2837-45.4083 42.0592-46.2082Q42.8347-47.0081 44.0439-47.0081L57.922-47.0081Q59.0823-47.0081 59.8578-46.2082Q60.6333-45.4083 60.6333-44.248Q60.6333-43.1249 59.8578-42.3552Q59.0823-41.5855 57.922-41.5855L44.0439-41.5855Q42.8347-41.5855 42.0592-42.3552Q41.2837-43.1249 41.2837-44.248ZM39.5329 7.60112L83.8913 7.60112Q88.1991 7.60112 91.4601 6.568Q94.7211 5.53488 96.5448 3.03995Q98.3684 0.545013 98.3684-3.88349L98.3684-13.5621Q98.3684-16.3359 96.5939-18.0616Q94.8194-19.7872 92.0456-19.7872L50.0937-19.7872Q47.3084-19.7872 45.5339-18.0616Q43.7594-16.3359 43.7594-13.5621L43.7594-4.08093Q43.7594-0.161026 42.8092 2.69709Q41.859 5.5552 39.5329 7.60112Z"/>
  </g>
  <g id="Bold-S" transform="matrix(1 0 0 1 2286.99 696)">
   <path d="M9.76562-57.2021Q9.76562-54.7607 11.3403-53.2104Q12.915-51.6602 15.4053-51.6602L17.6514-51.6602L17.6514-66.626Q17.6514-68.4082 16.5527-69.519Q15.4541-70.6299 13.7207-70.6299Q11.9873-70.6299 10.8765-69.519Q9.76562-68.4082 9.76562-66.626ZM20.6543-77.4414Q22.583-76.4404 23.3765-74.7681Q24.1699-73.0957 24.1699-70.3857L24.1699-3.88184Q24.1699-0.0488281 26.1108 1.94092Q28.0518 3.93066 30.9326 3.93066Q33.7646 3.93066 35.6567 1.94092Q37.5488-0.0488281 37.5488-3.71094L37.5488-15.5029Q37.5488-20.2881 40.0146-22.8394Q42.4805-25.3906 47.3145-25.3906L87.1826-25.3906L87.1826-63.5986Q87.1826-70.2881 83.6304-73.8647Q80.0781-77.4414 73.4131-77.4414ZM40.6006-56.2012Q40.6006-57.2998 41.3696-58.0688Q42.1387-58.8379 43.335-58.8379L68.1396-58.8379Q69.2871-58.8379 70.0562-58.0688Q70.8252-57.2998 70.8252-56.2012Q70.8252-55.0537 70.0562-54.2603Q69.2871-53.4668 68.1396-53.4668L43.335-53.4668Q42.1387-53.4668 41.3696-54.2603Q40.6006-55.0537 40.6006-56.2012ZM40.6006-43.6035Q40.6006-44.751 41.3696-45.5444Q42.1387-46.3379 43.335-46.3379L57.0068-46.3379Q58.1543-46.3379 58.9233-45.5444Q59.6924-44.751 59.6924-43.6035Q59.6924-42.4805 58.9233-41.7236Q58.1543-40.9668 57.0068-40.9668L43.335-40.9668Q42.1387-40.9668 41.3696-41.7236Q40.6006-42.4805 40.6006-43.6035ZM40.332 6.98242L82.4219 6.98242Q86.5234 6.98242 89.6362 5.74951Q92.749 4.5166 94.4824 1.87988Q96.2158-0.756836 96.2158-5.00488L96.2158-13.3301Q96.2158-15.8203 94.6411-17.3462Q93.0664-18.8721 90.5762-18.8721L49.707-18.8721Q47.1924-18.8721 45.6177-17.3462Q44.043-15.8203 44.043-13.3301L44.043-4.93164Q44.043-1.26953 43.2861 1.67236Q42.5293 4.61426 40.332 6.98242Z"/>
  </g>
  <g id="Semibold-S" transform="matrix(1 0 0 1 1991.02 696)">
   <path d="M9.76562-57.2644Q9.76562-55.0185 11.2026-53.6059Q12.6396-52.1934 14.9343-52.1934L17.8024-52.1934L17.8024-66.3327Q17.8024-68.0883 16.6594-69.2302Q15.5163-70.3722 13.7918-70.3722Q12.0673-70.3722 10.9165-69.2302Q9.76562-68.0883 9.76562-66.3327ZM20.3699-77.0326Q22.4142-75.8983 23.2209-74.1238Q24.0277-72.3492 24.0277-69.4704L24.0277-3.96182Q24.0277-0.0132813 26.0264 2.08755Q28.0251 4.18838 31.1903 4.18838Q34.2356 4.18838 36.1411 2.1231Q38.0465 0.0578125 38.0465-3.72871L38.0465-15.0675Q38.0465-19.6571 40.3168-22.0618Q42.5871-24.4664 47.2434-24.4664L86.0007-24.4664L86.0007-63.6964Q86.0007-70.2081 82.6217-73.6204Q79.2428-77.0326 72.7644-77.0326ZM40.1296-56.0412Q40.1296-57.131 40.8942-57.8956Q41.6588-58.6602 42.8462-58.6602L67.7753-58.6602Q68.9139-58.6602 69.6785-57.8956Q70.4431-57.131 70.4431-56.0412Q70.4431-54.9026 69.6785-54.1136Q68.9139-53.3246 67.7753-53.3246L42.8462-53.3246Q41.6588-53.3246 40.8942-54.1136Q40.1296-54.9026 40.1296-56.0412ZM40.1296-43.1592Q40.1296-44.2978 40.8942-45.0868Q41.6588-45.8758 42.8462-45.8758L56.3759-45.8758Q57.5145-45.8758 58.2791-45.0868Q59.0437-44.2978 59.0437-43.1592Q59.0437-42.0361 58.2791-41.2882Q57.5145-40.5402 56.3759-40.5402L42.8462-40.5402Q41.6588-40.5402 40.8942-41.2882Q40.1296-42.0361 40.1296-43.1592ZM40.883 6.55586L81.4088 6.55586Q85.3682 6.55586 88.3788 5.18521Q91.3894 3.81455 93.0605 1.08008Q94.7317-1.65439 94.7317-5.77803L94.7317-13.1701Q94.7317-15.4648 93.2948-16.853Q91.8578-18.2411 89.5631-18.2411L49.4404-18.2411Q47.1124-18.2411 45.6754-16.853Q44.2385-15.4648 44.2385-13.1701L44.2385-5.51816Q44.2385-2.03379 43.6149 0.965869Q42.9914 3.96553 40.883 6.55586Z"/>
  </g>
  <g id="Medium-S" transform="matrix(1 0 0 1 1694.87 696)">
   <path d="M9.76562-57.3115Q9.76562-55.2139 11.0981-53.9058Q12.4307-52.5977 14.5771-52.5977L17.917-52.5977L17.917-66.1104Q17.917-67.8457 16.7402-69.0112Q15.5635-70.1768 13.8457-70.1768Q12.1279-70.1768 10.9468-69.0112Q9.76562-67.8457 9.76562-66.1104ZM20.1543-76.7227Q22.2861-75.4873 23.103-73.6353Q23.9199-71.7832 23.9199-68.7764L23.9199-4.02246Q23.9199 0.0136719 25.9624 2.19873Q28.0049 4.38379 31.3857 4.38379Q34.5928 4.38379 36.5083 2.26123Q38.4238 0.138672 38.4238-3.74219L38.4238-14.7373Q38.4238-19.1787 40.5459-21.4722Q42.668-23.7656 47.1895-23.7656L85.1045-23.7656L85.1045-63.7705Q85.1045-70.1475 81.8569-73.4351Q78.6094-76.7227 72.2725-76.7227ZM39.7725-55.9199Q39.7725-57.0029 40.5337-57.7642Q41.2949-58.5254 42.4756-58.5254L67.499-58.5254Q68.6309-58.5254 69.3921-57.7642Q70.1533-57.0029 70.1533-55.9199Q70.1533-54.7881 69.3921-54.0024Q68.6309-53.2168 67.499-53.2168L42.4756-53.2168Q41.2949-53.2168 40.5337-54.0024Q39.7725-54.7881 39.7725-55.9199ZM39.7725-42.8223Q39.7725-43.9541 40.5337-44.7397Q41.2949-45.5254 42.4756-45.5254L55.8975-45.5254Q57.0293-45.5254 57.7905-44.7397Q58.5518-43.9541 58.5518-42.8223Q58.5518-41.6992 57.7905-40.958Q57.0293-40.2168 55.8975-40.2168L42.4756-40.2168Q41.2949-40.2168 40.5337-40.958Q39.7725-41.6992 39.7725-42.8223ZM41.3008 6.23242L80.6406 6.23242Q84.4922 6.23242 87.4253 4.75732Q90.3584 3.28223 91.9824 0.473633Q93.6064-2.33496 93.6064-6.36426L93.6064-13.0488Q93.6064-15.1953 92.2739-16.479Q90.9414-17.7627 88.7949-17.7627L49.2383-17.7627Q47.0518-17.7627 45.7192-16.479Q44.3867-15.1953 44.3867-13.0488L44.3867-5.96289Q44.3867-2.61328 43.8643 0.430176Q43.3418 3.47363 41.3008 6.23242Z"/>
  </g>
  <g id="Regular-S" transform="matrix(1 0 0 1 1398.89 696)">
   <path d="M9.76562-57.373Q9.76562-55.4688 10.9619-54.2969Q12.1582-53.125 14.1113-53.125L18.0664-53.125L18.0664-65.8203Q18.0664-67.5293 16.8457-68.7256Q15.625-69.9219 13.916-69.9219Q12.207-69.9219 10.9863-68.7256Q9.76562-67.5293 9.76562-65.8203ZM19.873-76.3184Q22.1191-74.9512 22.9492-72.998Q23.7793-71.0449 23.7793-67.8711L23.7793-4.10156Q23.7793 0.0488281 25.8789 2.34375Q27.9785 4.63867 31.6406 4.63867Q35.0586 4.63867 36.9873 2.44141Q38.916 0.244141 38.916-3.75977L38.916-14.3066Q38.916-18.5547 40.8447-20.7031Q42.7734-22.8516 47.1191-22.8516L83.9355-22.8516L83.9355-63.8672Q83.9355-70.0684 80.8594-73.1934Q77.7832-76.3184 71.6309-76.3184ZM39.3066-55.7617Q39.3066-56.8359 40.0635-57.5928Q40.8203-58.3496 41.9922-58.3496L67.1387-58.3496Q68.2617-58.3496 69.0186-57.5928Q69.7754-56.8359 69.7754-55.7617Q69.7754-54.6387 69.0186-53.8574Q68.2617-53.0762 67.1387-53.0762L41.9922-53.0762Q40.8203-53.0762 40.0635-53.8574Q39.3066-54.6387 39.3066-55.7617ZM39.3066-42.3828Q39.3066-43.5059 40.0635-44.2871Q40.8203-45.0684 41.9922-45.0684L55.2734-45.0684Q56.3965-45.0684 57.1533-44.2871Q57.9102-43.5059 57.9102-42.3828Q57.9102-41.2598 57.1533-40.5273Q56.3965-39.7949 55.2734-39.7949L41.9922-39.7949Q40.8203-39.7949 40.0635-40.5273Q39.3066-41.2598 39.3066-42.3828ZM41.8457 5.81055L79.6387 5.81055Q83.3496 5.81055 86.1816 4.19922Q89.0137 2.58789 90.5762-0.317383Q92.1387-3.22266 92.1387-7.12891L92.1387-12.8906Q92.1387-14.8438 90.9424-15.9912Q89.7461-17.1387 87.793-17.1387L48.9746-17.1387Q46.9727-17.1387 45.7764-15.9912Q44.5801-14.8438 44.5801-12.8906L44.5801-6.54297Q44.5801-3.36914 44.1895-0.268555Q43.7988 2.83203 41.8457 5.81055Z"/>
  </g>
  <g id="Light-S" transform="matrix(1 0 0 1 1103.21 696)">
   <path d="M9.76562-57.373Q9.76562-55.8016 10.7273-54.8645Q11.689-53.9274 13.309-53.9274L18.6567-53.9274L18.6567-66.0474Q18.6567-67.938 17.33-69.1268Q16.0034-70.3156 14.2339-70.3156Q12.4644-70.3156 11.115-69.1419Q9.76562-67.9682 9.76562-66.0474ZM19.5099-75.516Q21.7255-74.3759 22.6086-72.5894Q23.4917-70.8028 23.4917-67.8408L23.4917-5.00971Q23.4917-1.0259 25.6594 1.12521Q27.8272 3.27632 31.2167 3.27632Q34.4228 3.27632 36.4651 1.1926Q38.5073-0.891113 38.5073-4.77397L38.5073-15.3208Q38.5073-18.8876 40.2468-20.7637Q41.9863-22.6397 45.6207-22.6397L82.4674-22.6397L82.4674-63.8824Q82.4674-69.6444 79.5653-72.5802Q76.6632-75.516 70.9345-75.516ZM37.6417-56.0341Q37.6417-56.8965 38.247-57.5095Q38.8524-58.1225 39.7975-58.1225L67.1234-58.1225Q68.0346-58.1225 68.6401-57.5095Q69.2457-56.8965 69.2457-56.0341Q69.2457-55.1381 68.6401-54.5158Q68.0346-53.8935 67.1234-53.8935L39.7975-53.8935Q38.8524-53.8935 38.247-54.5158Q37.6417-55.1381 37.6417-56.0341ZM37.6417-42.5947Q37.6417-43.4906 38.247-44.1205Q38.8524-44.7505 39.7975-44.7505L53.9111-44.7505Q54.8223-44.7505 55.4278-44.1205Q56.0333-43.4906 56.0333-42.5947Q56.0333-41.6987 55.4278-41.1101Q54.8223-40.5215 53.9111-40.5215L39.7975-40.5215Q38.8524-40.5215 38.247-41.1101Q37.6417-41.6987 37.6417-42.5947ZM38.9547 5.00819L78.3824 5.00819Q81.8815 5.00819 84.5243 3.50291Q87.1671 1.99763 88.6236-0.726064Q90.08-3.44976 90.08-7.12891L90.08-14.3588Q90.08-15.9637 89.1183-16.8842Q88.1566-17.8047 86.5367-17.8047L46.8857-17.8047Q45.2319-17.8047 44.2702-16.8842Q43.3085-15.9637 43.3085-14.3588L43.3085-5.96771Q43.3085-2.56678 42.4109 0.193151Q41.5133 2.95308 38.9547 5.00819Z"/>
  </g>
  <g id="Thin-S" transform="matrix(1 0 0 1 807.861 696)">
   <path d="M9.76562-57.373Q9.76562-56.2419 10.417-55.6152Q11.0684-54.9885 12.2478-54.9885L19.4373-54.9885L19.4373-66.3478Q19.4373-68.4785 17.9706-69.6574Q16.5039-70.8362 14.6543-70.8362Q12.8048-70.8362 11.2852-69.6925Q9.76562-68.5488 9.76562-66.3478ZM19.0296-74.4548Q21.2048-73.6151 22.158-72.0489Q23.1113-70.4826 23.1113-67.8008L23.1113-6.21082Q23.1113-2.44731 25.3692-0.486411Q27.6271 1.47449 30.656 1.47449Q33.5819 1.47449 35.7744-0.459043Q37.9668-2.39258 37.9668-6.11533L37.9668-16.6622Q37.9668-19.3279 39.4561-20.8437Q40.9453-22.3595 43.639-22.3595L80.5257-22.3595L80.5257-63.9026Q80.5257-69.0837 77.8538-71.7693Q75.1819-74.4548 70.0136-74.4548ZM35.4396-56.3943Q35.4396-56.9765 35.8447-57.3993Q36.2498-57.8221 36.8948-57.8221L67.1032-57.8221Q67.7343-57.8221 68.1396-57.3993Q68.545-56.9765 68.545-56.3943Q68.545-55.7987 68.1396-55.3866Q67.7343-54.9746 67.1032-54.9746L36.8948-54.9746Q36.2498-54.9746 35.8447-55.3866Q35.4396-55.7987 35.4396-56.3943ZM35.4396-42.8748Q35.4396-43.4704 35.8447-43.9002Q36.2498-44.33 36.8948-44.33L52.1093-44.33Q52.7403-44.33 53.1457-43.9002Q53.5511-43.4704 53.5511-42.8748Q53.5511-42.2792 53.1457-41.8808Q52.7403-41.4824 52.1093-41.4824L36.8948-41.4824Q36.2498-41.4824 35.8447-41.8808Q35.4396-42.2792 35.4396-42.8748ZM35.131 3.94701L76.7208 3.94701Q79.9397 3.94701 82.3323 2.58198Q84.7249 1.21696 86.0411-1.26658Q87.3573-3.75012 87.3573-7.12891L87.3573-16.3005Q87.3573-17.445 86.7059-18.0653Q86.0545-18.6856 84.8751-18.6856L44.1229-18.6856Q42.9296-18.6856 42.2782-18.0653Q41.6268-17.445 41.6268-16.3005L41.6268-5.20689Q41.6268-1.5056 40.0587 0.803794Q38.4905 3.11319 35.131 3.94701Z"/>
  </g>
  <g id="Ultralight-S" transform="matrix(1 0 0 1 511.847 696)">
   <path d="M9.76562-57.373Q9.76562-56.4674 10.2581-55.9998Q10.7506-55.5321 11.7043-55.5321L19.8372-55.5321L19.8372-66.5016Q19.8372-68.7553 18.2987-69.9291Q16.7603-71.1029 14.8697-71.1029Q12.9791-71.1029 11.3724-69.9745Q9.76562-68.8461 9.76562-66.5016ZM18.7836-73.9113Q20.9381-73.2254 21.9273-71.772Q22.9164-70.3186 22.9164-67.7803L22.9164-6.82602Q22.9164-3.17535 25.2205-1.31187Q27.5246 0.551605 30.3688 0.551605Q33.1512 0.551605 35.4206-1.30501Q37.69-3.16162 37.69-6.80237L37.69-17.3492Q37.69-19.5534 39.0511-20.8847Q40.4121-22.216 42.6239-22.216L79.5311-22.216L79.5311-63.913Q79.5311-68.7965 76.9772-71.3539Q74.4232-73.9113 69.5419-73.9113ZM34.3117-56.5788Q34.3117-57.0175 34.6142-57.3429Q34.9167-57.6683 35.408-57.6683L67.0929-57.6683Q67.5804-57.6683 67.8833-57.3429Q68.1862-57.0175 68.1862-56.5788Q68.1862-56.1371 67.8833-55.8327Q67.5804-55.5283 67.0929-55.5283L35.408-55.5283Q34.9167-55.5283 34.6142-55.8327Q34.3117-56.1371 34.3117-56.5788ZM34.3117-43.0183Q34.3117-43.4601 34.6142-43.7874Q34.9167-44.1147 35.408-44.1147L51.1864-44.1147Q51.6739-44.1147 51.9768-43.7874Q52.2797-43.4601 52.2797-43.0183Q52.2797-42.5766 51.9768-42.2756Q51.6739-41.9746 51.1864-41.9746L35.408-41.9746Q34.9167-41.9746 34.6142-42.2756Q34.3117-42.5766 34.3117-43.0183ZM33.1726 3.40347L75.8698 3.40347Q78.9452 3.40347 81.2096 2.11029Q83.474 0.817108 84.7183-1.54343Q85.9627-3.90396 85.9627-7.12891L85.9627-17.2951Q85.9627-18.2037 85.4702-18.6703Q84.9777-19.1368 84.024-19.1368L42.7078-19.1368Q41.7503-19.1368 41.2579-18.6703Q40.7654-18.2037 40.7654-17.2951L40.7654-4.8172Q40.7654-0.962067 38.8538 1.11656Q36.9423 3.19519 33.1726 3.40347Z"/>
  </g>
 </g>
</svg>
