<?xml version="1.0" encoding="UTF-8"?>
<svg width="3300px" height="2200px" viewBox="0 0 3300 2200" version="1.1" xmlns="http://www.w3.org/2000/svg" xmlns:xlink="http://www.w3.org/1999/xlink">
    <title>globe.desk</title>
    <g id="Page-1" stroke="none" stroke-width="1" fill="none" fill-rule="evenodd">
        <g id="globe.desk">
            <g id="Notes">
                <rect id="artboard" fill="#FFFFFF" fill-rule="nonzero" x="0" y="0" width="3300" height="2200"></rect>
                <line x1="263" y1="292" x2="3036" y2="292" id="Path" stroke="#000000" stroke-width="0.5"></line>
                <text id="Weight/Scale-Variations" fill="#000000" fill-rule="nonzero" font-family="Helvetica" font-size="13" font-weight="normal">
                    <tspan x="263" y="322">Weight/Scale Variations</tspan>
                </text>
                <text id="Ultralight" fill="#000000" fill-rule="nonzero" font-family="Helvetica" font-size="13" font-weight="normal">
                    <tspan x="533.711" y="322">Ultralight</tspan>
                </text>
                <text id="Thin" fill="#000000" fill-rule="nonzero" font-family="Helvetica" font-size="13" font-weight="normal">
                    <tspan x="843.422" y="322">Thin</tspan>
                </text>
                <text id="Light" fill="#000000" fill-rule="nonzero" font-family="Helvetica" font-size="13" font-weight="normal">
                    <tspan x="1138.63" y="322">Light</tspan>
                </text>
                <text id="Regular" fill="#000000" fill-rule="nonzero" font-family="Helvetica" font-size="13" font-weight="normal">
                    <tspan x="1426.84" y="322">Regular</tspan>
                </text>
                <text id="Medium" fill="#000000" fill-rule="nonzero" font-family="Helvetica" font-size="13" font-weight="normal">
                    <tspan x="1723.06" y="322">Medium</tspan>
                </text>
                <text id="Semibold" fill="#000000" fill-rule="nonzero" font-family="Helvetica" font-size="13" font-weight="normal">
                    <tspan x="2015.77" y="322">Semibold</tspan>
                </text>
                <text id="Bold" fill="#000000" fill-rule="nonzero" font-family="Helvetica" font-size="13" font-weight="normal">
                    <tspan x="2326.48" y="322">Bold</tspan>
                </text>
                <text id="Heavy" fill="#000000" fill-rule="nonzero" font-family="Helvetica" font-size="13" font-weight="normal">
                    <tspan x="2618.19" y="322">Heavy</tspan>
                </text>
                <text id="Black" fill="#000000" fill-rule="nonzero" font-family="Helvetica" font-size="13" font-weight="normal">
                    <tspan x="2917.4" y="322">Black</tspan>
                </text>
                <line x1="263" y1="1903" x2="3036" y2="1903" id="Path" stroke="#000000" stroke-width="0.5"></line>
                <g id="Group" transform="translate(264.000000, 1918.000000)" fill="#000000" fill-rule="nonzero">
                    <path d="M8.24805,15.830078 C9.32875,15.830078 10.3443667,15.625 11.2949,15.214844 C12.2454333,14.8046873 13.0836667,14.235026 13.8096,13.50586 C14.5354667,12.7766933 15.1051333,11.93685 15.5186,10.98633 C15.932,10.03581 16.1387,9.02344 16.1387,7.94922 C16.1387,6.875 15.932,5.86262667 15.5186,4.9121 C15.1051333,3.96156667 14.5338333,3.12173333 13.8047,2.3926 C13.0755,1.6634 12.2356667,1.09373333 11.2852,0.6836 C10.3346667,0.273466667 9.31902667,0.0684 8.23828,0.0684 C7.16406,0.0684 6.15169,0.273466667 5.20117,0.6836 C4.25065,1.09373333 3.41406333,1.6634 2.69141,2.3926 C1.96875,3.12173333 1.40071333,3.96156667 0.9873,4.9121 C0.573893333,5.86262667 0.36719,6.875 0.36719,7.94922 C0.36719,9.02344 0.573893333,10.03581 0.9873,10.98633 C1.40071333,11.93685 1.97037667,12.7766933 2.69629,13.50586 C3.42220333,14.235026 4.26042,14.8046873 5.21094,15.214844 C6.16146,15.625 7.17383,15.830078 8.24805,15.830078 Z M8.24805,14.345703 C7.36263,14.345703 6.53418,14.1813153 5.7627,13.85254 C4.99121333,13.5237667 4.31413,13.06641 3.73145,12.48047 C3.14876333,11.89453 2.69303333,11.21419 2.36426,10.43945 C2.03548,9.66471 1.87109,8.83463333 1.87109,7.94922 C1.87109,7.0638 2.03385333,6.23372 2.35938,5.45898 C2.6849,4.68426 3.139,4.00393333 3.72168,3.418 C4.30436,2.83206667 4.98144333,2.3747 5.75293,2.0459 C6.52441667,1.7171 7.35286667,1.5527 8.23828,1.5527 C9.13022667,1.5527 9.96193333,1.7171 10.7334,2.0459 C11.5048667,2.3747 12.1835667,2.83206667 12.7695,3.418 C13.3554333,4.00393333 13.8144333,4.68426 14.1465,5.45898 C14.4785,6.23372 14.6445,7.0638 14.6445,7.94922 C14.6445,8.83463333 14.4801333,9.66471 14.1514,10.43945 C13.8226,11.21419 13.3668667,11.89453 12.7842,12.48047 C12.2015333,13.06641 11.5228,13.5237667 10.748,13.85254 C9.97326667,14.1813153 9.13995,14.345703 8.24805,14.345703 Z M4.6543,7.94922 C4.6543,8.16406 4.72266,8.33821333 4.85938,8.47168 C4.99609333,8.60514667 5.17838333,8.67188 5.40625,8.67188 L7.51562,8.67188 L7.51562,10.79102 C7.51562,11.00586 7.58072667,11.1832667 7.71094,11.32324 C7.84114667,11.4632133 8.01692667,11.5332 8.23828,11.5332 C8.45312667,11.5332 8.63053667,11.4632133 8.77051,11.32324 C8.91048333,11.1832667 8.98047,11.00586 8.98047,10.79102 L8.98047,8.67188 L11.0898,8.67188 C11.3112,8.67188 11.4902667,8.60514667 11.627,8.47168 C11.7636667,8.33821333 11.832,8.16406 11.832,7.94922 C11.832,7.72786667 11.7636667,7.54883 11.627,7.41211 C11.4902667,7.27539 11.3112,7.20703 11.0898,7.20703 L8.98047,7.20703 L8.98047,5.09766 C8.98047,4.87628667 8.91048333,4.69563333 8.77051,4.5557 C8.63053667,4.4157 8.45312667,4.3457 8.23828,4.3457 C8.01692667,4.3457 7.84114667,4.4157 7.71094,4.5557 C7.58072667,4.69563333 7.51562,4.87628667 7.51562,5.09766 L7.51562,7.20703 L5.40625,7.20703 C5.17838333,7.20703 4.99609333,7.27539 4.85938,7.41211 C4.72266,7.54883 4.6543,7.72786667 4.6543,7.94922 Z" id="Shape"></path>
                </g>
                <g id="Group" transform="translate(282.867000, 1915.000000)" fill="#000000" fill-rule="nonzero">
                    <path d="M10.709,20.91016 C12.0696667,20.91016 13.3506,20.6497433 14.5518,20.12891 C15.7529333,19.6080767 16.8125,18.8886744 17.7305,17.9707031 C18.6484333,17.0527344 19.3678333,15.9931633 19.8887,14.79199 C20.4095,13.5908167 20.6699,12.3098933 20.6699,10.94922 C20.6699,9.58854 20.4095,8.3076 19.8887,7.1064 C19.3678333,5.90526667 18.6484333,4.8457 17.7305,3.9277 C16.8125,3.00976667 15.7513,2.29036667 14.5469,1.7695 C13.3424333,1.2487 12.0598667,0.9883 10.6992,0.9883 C9.33853333,0.9883 8.05761667,1.2487 6.85645,1.7695 C5.65527667,2.29036667 4.59733333,3.00976667 3.68262,3.9277 C2.76790667,4.8457 2.05013333,5.90526667 1.5293,7.1064 C1.00846667,8.3076 0.74805,9.58854 0.74805,10.94922 C0.74805,12.3098933 1.00846667,13.5908167 1.5293,14.79199 C2.05013333,15.9931633 2.76953333,17.0527344 3.6875,17.9707031 C4.60546667,18.8886744 5.66503667,19.6080767 6.86621,20.12891 C8.06738333,20.6497433 9.34831333,20.91016 10.709,20.91016 Z M10.709,19.25 C9.55664667,19.25 8.47916667,19.0351563 7.47656,18.605469 C6.47396,18.1757813 5.59342667,17.581705 4.83496,16.82324 C4.0765,16.06478 3.48405333,15.1842467 3.05762,14.18164 C2.63118667,13.1790333 2.41797,12.10156 2.41797,10.94922 C2.41797,9.79687333 2.63118667,8.7194 3.05762,7.7168 C3.48405333,6.7142 4.07487333,5.83203333 4.83008,5.0703 C5.58528667,4.30856667 6.46419333,3.7145 7.4668,3.2881 C8.4694,2.86163333 9.54686667,2.6484 10.6992,2.6484 C11.8515333,2.6484 12.929,2.86163333 13.9316,3.2881 C14.9342,3.7145 15.8163667,4.30856667 16.5781,5.0703 C17.3398333,5.83203333 17.9355333,6.7142 18.3652,7.7168 C18.7949333,8.7194 19.0098,9.79687333 19.0098,10.94922 C19.0098,12.10156 18.7965667,13.1790333 18.3701,14.18164 C17.9437,15.1842467 17.3512667,16.06478 16.5928,16.82324 C15.8343333,17.581705 14.9521667,18.1757813 13.9463,18.605469 C12.9404333,19.0351563 11.8613333,19.25 10.709,19.25 Z M6.17773,10.94922 C6.17773,11.1835933 6.25585667,11.37565 6.41211,11.52539 C6.56835667,11.67513 6.77018,11.75 7.01758,11.75 L9.8887,11.75 L9.8887,14.63086 C9.8887,14.8782533 9.96356667,15.07845 10.1133,15.23145 C10.2630333,15.3844433 10.4551,15.46094 10.6895,15.46094 C10.9368333,15.46094 11.137,15.3844433 11.29,15.23145 C11.443,15.07845 11.5195,14.8782533 11.5195,14.63086 L11.5195,11.75 L14.4004,11.75 C14.6478,11.75 14.848,11.67513 15.001,11.52539 C15.154,11.37565 15.2305,11.1835933 15.2305,10.94922 C15.2305,10.70182 15.154,10.5016233 15.001,10.34863 C14.848,10.1956367 14.6478,10.11914 14.4004,10.11914 L11.5195,10.11914 L11.5195,7.248 C11.5195,6.99413333 11.443,6.7907 11.29,6.6377 C11.137,6.4847 10.9368333,6.4082 10.6895,6.4082 C10.4551,6.4082 10.2630333,6.48633333 10.1133,6.6426 C9.96356667,6.79886667 9.8887,7.00066667 9.8887,7.248 L9.8887,10.11914 L7.01758,10.11914 C6.76367333,10.11914 6.56022333,10.1956367 6.40723,10.34863 C6.25423,10.5016233 6.17773,10.70182 6.17773,10.94922 Z" id="Shape"></path>
                </g>
                <g id="Group" transform="translate(307.646000, 1913.000000)" fill="#000000" fill-rule="nonzero">
                    <path d="M12.9707,25.66406 C14.3639,25.66406 15.6936667,25.44759 16.96,25.01465 C18.2262667,24.5817033 19.39,23.9746067 20.4512,23.19336 C21.5124,22.4121067 22.4352333,21.4908827 23.2197,20.429688 C24.0042333,19.3684893 24.6129667,18.2031233 25.0459,16.93359 C25.4788333,15.6640633 25.6953,14.33594 25.6953,12.94922 C25.6953,11.5559933 25.4788333,10.2262533 25.0459,8.96 C24.6129667,7.69366667 24.0042333,6.52993333 23.2197,5.4688 C22.4352333,4.4076 21.5124,3.48473333 20.4512,2.7002 C19.39,1.91566667 18.2246333,1.30693333 16.9551,0.874 C15.6855667,0.441066667 14.3541667,0.2246 12.9609,0.2246 C11.5677,0.2246 10.2379667,0.441066667 8.9717,0.874 C7.70541333,1.30693333 6.54329667,1.91566667 5.48535,2.7002 C4.42741,3.48473333 3.50618667,4.4076 2.72168,5.4688 C1.93717333,6.52993333 1.33007667,7.69366667 0.90039,8.96 C0.470703333,10.2262533 0.25586,11.5559933 0.25586,12.94922 C0.25586,14.33594 0.47233,15.6640633 0.90527,16.93359 C1.33821667,18.2031233 1.94531333,19.3684893 2.72656,20.429688 C3.50781333,21.4908827 4.42903667,22.4121067 5.49023,23.19336 C6.55143,23.9746067 7.71515333,24.5817033 8.9814,25.01465 C10.2477333,25.44759 11.5775,25.66406 12.9707,25.66406 Z M12.9707,23.84766 C11.7663,23.84766 10.6188333,23.66374 9.5283,23.2959 C8.43782,22.92806 7.44010667,22.41211 6.53516,21.74805 C5.63020667,21.0839853 4.84407333,20.2978513 4.17676,19.389648 C3.50944,18.4814427 2.99349,17.4820933 2.62891,16.3916 C2.26432333,15.3011067 2.08203,14.1536467 2.08203,12.94922 C2.08203,11.73828 2.26432333,10.5875733 2.62891,9.4971 C2.99349,8.40656667 3.50781333,7.4072 4.17188,6.499 C4.83594,5.5908 5.62044333,4.80466667 6.52539,4.1406 C7.43033667,3.47653333 8.42807333,2.96223333 9.5186,2.5977 C10.6090667,2.2331 11.7565,2.0508 12.9609,2.0508 C14.1718333,2.0508 15.3225667,2.2331 16.4131,2.5977 C17.5035667,2.96223333 18.5029,3.47653333 19.4111,4.1406 C20.3193,4.80466667 21.1054333,5.5908 21.7695,6.499 C22.4335667,7.4072 22.9495333,8.40656667 23.3174,9.4971 C23.6852,10.5875733 23.8692725,11.73828 23.8692725,12.94922 C23.8756333,14.1536467 23.6966,15.3011067 23.332,16.3916 C22.9674667,17.4820933 22.4515333,18.4814427 21.7842,19.389648 C21.1168667,20.2978513 20.3291,21.0839853 19.4209,21.74805 C18.5127,22.41211 17.5133667,22.92806 16.4229,23.2959 C15.3323667,23.66374 14.1816333,23.84766 12.9707,23.84766 Z M7.19922,12.94922 C7.19922,13.2031267 7.28548333,13.4130867 7.45801,13.5791 C7.63053667,13.7451133 7.85026667,13.82812 8.1172,13.82812 L12.0625,13.82812 L12.0625,17.7832 C12.0625,18.0501267 12.1455,18.2698533 12.3115,18.44238 C12.4775,18.6149067 12.6907333,18.70117 12.9512,18.70117 C13.2181333,18.70117 13.4378667,18.6165367 13.6104,18.44727 C13.7828667,18.2779967 13.8691,18.05664 13.8691,17.7832 L13.8691,13.82812 L17.8242,13.82812 C18.0911333,13.82812 18.3092333,13.7451133 18.4785,13.5791 C18.6477667,13.4130867 18.7324,13.2031267 18.7324,12.94922 C18.7324,12.67578 18.6477667,12.4544267 18.4785,12.28516 C18.3092333,12.1158867 18.0911333,12.03125 17.8242,12.03125 L13.8691,12.03125 L13.8691,8.0859 C13.8691,7.8125 13.7828667,7.58953333 13.6104,7.417 C13.4378667,7.24446667 13.2181333,7.1582 12.9512,7.1582 C12.6907333,7.1582 12.4775,7.24446667 12.3115,7.417 C12.1455,7.58953333 12.0625,7.8125 12.0625,8.0859 L12.0625,12.03125 L8.1172,12.03125 C7.84375333,12.03125 7.62239333,12.1158867 7.45312,12.28516 C7.28385333,12.4544267 7.19922,12.67578 7.19922,12.94922 Z" id="Shape"></path>
                </g>
                <text id="Design-Variations" fill="#000000" fill-rule="nonzero" font-family="Helvetica" font-size="13" font-weight="normal">
                    <tspan x="263" y="1953">Design Variations</tspan>
                </text>
                <text id="Symbols-are-supported-in-up-to-nine-weights-and-three-scales." fill="#000000" fill-rule="nonzero" font-family="Helvetica" font-size="13" font-weight="normal">
                    <tspan x="263" y="1971">Symbols are supported in up to nine weights and three scales.</tspan>
                </text>
                <text id="For-optimal-layout-with-text-and-other-symbols,-vertically-align" fill="#000000" fill-rule="nonzero" font-family="Helvetica" font-size="13" font-weight="normal">
                    <tspan x="263" y="1989">For optimal layout with text and other symbols, vertically align</tspan>
                </text>
                <text id="symbols-with-the-adjacent-text." fill="#000000" fill-rule="nonzero" font-family="Helvetica" font-size="13" font-weight="normal">
                    <tspan x="263" y="2007">symbols with the adjacent text.</tspan>
                </text>
                <line x1="776" y1="1919" x2="776" y2="1933" id="Path" stroke="#00AEEF" stroke-width="0.5"></line>
                <g id="Group" transform="translate(778.000000, 1918.000000)" fill="#000000" fill-rule="nonzero">
                    <path d="M1.31055,15.15625 C1.57096333,15.15625 1.77278667,15.1009115 1.91602,14.9902344 C2.05924667,14.8795575 2.17643333,14.6875 2.26758,14.414062 L3.52734,10.9668 L9.2891,10.9668 L10.5488,14.414062 C10.6399333,14.6875 10.7571333,14.8795575 10.9004,14.9902344 C11.0436,15.1009115 11.2421667,15.15625 11.4961,15.15625 C11.7565,15.15625 11.9632,15.0846354 12.1162,14.9414062 C12.2692,14.7981767 12.3457,14.6028643 12.3457,14.355469 C12.3457,14.205729 12.3099,14.029946 12.2383,13.82812 L7.6582,1.6309 C7.54101333,1.33136667 7.38151,1.10673333 7.17969,0.957 C6.97786333,0.807266667 6.7207,0.7324 6.4082,0.7324 C5.80273333,0.7324 5.39257667,1.02863333 5.17773,1.6211 L0.59766,13.83789 C0.52604,14.0397133 0.49023,14.2154947 0.49023,14.365234 C0.49023,14.61263 0.563473333,14.806315 0.70996,14.9462891 C0.856446667,15.086263 1.05664333,15.15625 1.31055,15.15625 Z M4.00586,9.48242 L6.37891,2.9102 L6.42773,2.9102 L8.8008,9.48242 L4.00586,9.48242 Z" id="Shape"></path>
                </g>
                <line x1="793.197" y1="1919" x2="793.197" y2="1933" id="Path" stroke="#00AEEF" stroke-width="0.5"></line>
                <text id="Margins" fill="#000000" fill-rule="nonzero" font-family="Helvetica" font-size="13" font-weight="normal">
                    <tspan x="776" y="1953">Margins</tspan>
                </text>
                <text id="Leading-and-trailing-margins-on-the-left-and-right-side-of-each-symbol" fill="#000000" fill-rule="nonzero" font-family="Helvetica" font-size="13" font-weight="normal">
                    <tspan x="776" y="1971">Leading and trailing margins on the left and right side of each symbol</tspan>
                </text>
                <text id="can-be-adjusted-by-modifying-the-x-location-of-the-margin-guidelines." fill="#000000" fill-rule="nonzero" font-family="Helvetica" font-size="13" font-weight="normal">
                    <tspan x="776" y="1989">can be adjusted by modifying the x-location of the margin guidelines.</tspan>
                </text>
                <text id="Modifications-are-automatically-applied-proportionally-to-all" fill="#000000" fill-rule="nonzero" font-family="Helvetica" font-size="13" font-weight="normal">
                    <tspan x="776" y="2007">Modifications are automatically applied proportionally to all</tspan>
                </text>
                <text id="scales-and-weights." fill="#000000" fill-rule="nonzero" font-family="Helvetica" font-size="13" font-weight="normal">
                    <tspan x="776" y="2025">scales and weights.</tspan>
                </text>
                <g id="Group" transform="translate(1291.000000, 1914.000000)" fill="#000000" fill-rule="nonzero">
                    <path d="M0.8418,20.86523 L2.54102,22.57422 C2.97070667,23.01042 3.42480667,23.2122433 3.90332,23.17969 C4.38183333,23.1471367 4.85221,22.8737 5.31445,22.35938 L16.0078,10.57227 L15.041,9.5957 L4.42578,21.27539 C4.25,21.47721 4.07259,21.5911433 3.89355,21.61719 C3.71451667,21.64323 3.50781333,21.5390633 3.27344,21.30469 L2.10156,20.14258 C1.86718667,19.908204 1.76465,19.7014977 1.79395,19.522461 C1.82324333,19.3434243 1.9388,19.1627603 2.14062,18.9804688 L13.6152,8.1797 L12.6387,7.2129 L1.04688,18.101562 C0.552086667,18.5572913 0.286786667,19.0227863 0.25098,19.498047 C0.215173333,19.973309 0.412113333,20.4290367 0.8418,20.86523 Z M7.25781,2.6719 C7.04947667,2.8737 6.93229,3.1048 6.90625,3.3652 C6.88021,3.62566667 6.92578333,3.85353333 7.04297,4.0488 C7.16015667,4.23113333 7.33105333,4.36786667 7.55566,4.459 C7.78027333,4.55013333 8.05535333,4.55663333 8.3809,4.4785 C9.11003333,4.30923333 9.84896667,4.23926667 10.5977,4.2686 C11.3463667,4.29786667 12.0787667,4.54686667 12.7949,5.0156 L12.209,6.4707 C12.0397333,6.88736667 11.9925333,7.25033333 12.0674,7.5596 C12.1422667,7.8688 12.3131667,8.16013333 12.5801,8.4336 L14.875,10.74805 C15.1158667,10.9954433 15.3502333,11.13867 15.5781,11.17773 C15.8059667,11.2167967 16.0598667,11.2102867 16.3398,11.1582 L17.4043,10.96289 L18.0684,11.63672 L18.0293,12.19336 C18.0097667,12.4407533 18.0407,12.6686167 18.1221,12.87695 C18.2034333,13.0852833 18.3645667,13.3098933 18.6055,13.55078 L19.3672,14.29297 C19.6080667,14.5338567 19.8701,14.6591833 20.1533,14.66895 C20.4365,14.67871 20.6953,14.5664033 20.9297,14.33203 L23.8398,11.41211 C24.0742,11.1777367 24.1881333,10.9222033 24.1816,10.64551 C24.1751333,10.3688167 24.0514333,10.1100267 23.8105,9.86914 L23.0391,9.10742 C22.8047,8.86654 22.5849667,8.70216667 22.3799,8.6143 C22.1748333,8.52636667 21.9518333,8.49216667 21.7109,8.5117 L21.1348,8.5605 L20.4902,7.9258 L20.7344,6.8027 C20.7994667,6.52276667 20.7864333,6.26073333 20.6953,6.0166 C20.6041667,5.77246667 20.4121,5.5039 20.1191,5.2109 L17.9219,3.0234 C17.0885667,2.1966 16.2015,1.5765 15.2607,1.1631 C14.3199667,0.7497 13.3727,0.534866667 12.4189,0.5186 C11.4651667,0.502266667 10.5472,0.6764 9.665,1.041 C8.78286667,1.4056 7.98047,1.94923333 7.25781,2.6719 Z M8.752,3.043 C9.35746667,2.60026667 10.0068667,2.2845 10.7002,2.0957 C11.3935333,1.9069 12.0950333,1.84666667 12.8047,1.915 C13.5143,1.9834 14.2027667,2.17383333 14.8701,2.4863 C15.5374333,2.79883333 16.1478,3.23503333 16.7012,3.7949 L19.1328,6.207 C19.25,6.3242 19.3232333,6.43813333 19.3525,6.5488 C19.3818333,6.65946667 19.3769667,6.79946667 19.3379,6.9688 L19.0156,8.4531 L20.5195,9.9375 L21.5059,9.87891 C21.6295667,9.87239667 21.7239667,9.88053333 21.7891,9.90332 C21.8541667,9.92610667 21.9355333,9.98632667 22.0332,10.08398 L22.6094,10.66016 L20.168,13.10156 L19.5918,12.52539 C19.4941333,12.4277367 19.4322667,12.3463567 19.4062,12.28125 C19.3802,12.2161433 19.3704667,12.1184867 19.377,11.98828 L19.4453,11.01172 L17.9512,9.52734 L16.4277,9.78125 C16.2649667,9.81380333 16.1364,9.81868667 16.042,9.7959 C15.9476,9.77311333 15.8385333,9.70312667 15.7148,9.58594 L13.7129,7.584 C13.5827,7.4668 13.5094667,7.3545 13.4932,7.2471 C13.4769333,7.13963333 13.5078333,6.99476667 13.5859,6.8125 L14.4648,4.7227 C13.6836,3.9935 12.8047,3.48893333 11.8281,3.209 C10.8515667,2.92906667 9.85546667,2.93883333 8.8398,3.2383 C8.76173333,3.25783333 8.7113,3.24316667 8.6885,3.1943 C8.6657,3.1455 8.68686667,3.09506667 8.752,3.043 Z" id="Shape"></path>
                </g>
                <text id="Exporting" fill="#000000" fill-rule="nonzero" font-family="Helvetica" font-size="13" font-weight="normal">
                    <tspan x="1289" y="1953">Exporting</tspan>
                </text>
                <text id="Symbols-should-be-outlined-when-exporting-to-ensure-the" fill="#000000" fill-rule="nonzero" font-family="Helvetica" font-size="13" font-weight="normal">
                    <tspan x="1289" y="1971">Symbols should be outlined when exporting to ensure the</tspan>
                </text>
                <text id="design-is-preserved-when-submitting-to-Xcode." fill="#000000" fill-rule="nonzero" font-family="Helvetica" font-size="13" font-weight="normal">
                    <tspan x="1289" y="1989">design is preserved when submitting to Xcode.</tspan>
                </text>
                <text id="template-version" fill="#000000" fill-rule="nonzero" font-family="Helvetica" font-size="13" font-weight="normal">
                    <tspan x="2952" y="1933">Template v.3.0</tspan>
                </text>
                <text id="Requires-Xcode-13-or-greater" fill="#000000" fill-rule="nonzero" font-family="Helvetica" font-size="13" font-weight="normal">
                    <tspan x="2865" y="1951">Requires Xcode 13 or greater</tspan>
                </text>
                <text id="Generated-from-globe" fill="#000000" fill-rule="nonzero" font-family="Helvetica" font-size="13" font-weight="normal">
                    <tspan x="2878.46387" y="1969">Generated from globe.desk</tspan>
                </text>
                <text id="Typeset-at-100-points" fill="#000000" fill-rule="nonzero" font-family="Helvetica" font-size="13" font-weight="normal">
                    <tspan x="2912" y="1987">Typeset at 100 points</tspan>
                </text>
                <text id="Small" fill="#000000" fill-rule="nonzero" font-family="Helvetica" font-size="13" font-weight="normal">
                    <tspan x="263" y="726">Small</tspan>
                </text>
                <text id="Medium" fill="#000000" fill-rule="nonzero" font-family="Helvetica" font-size="13" font-weight="normal">
                    <tspan x="263" y="1156">Medium</tspan>
                </text>
                <text id="Large" fill="#000000" fill-rule="nonzero" font-family="Helvetica" font-size="13" font-weight="normal">
                    <tspan x="263" y="1586">Large</tspan>
                </text>
            </g>
            <g id="Guides" transform="translate(263.000000, 625.000000)">
                <g id="H-reference" transform="translate(76.000000, 0.000000)" fill="#27AAE1" fill-rule="nonzero">
                    <path d="M0.993347,71 L3.6377,71 L29.3282,3.8674 L30.0301,3.8674 L30.0301,0.541 L28.1227,0.541 L0.993347,71 Z M11.6882,46.5203 L46.9818,46.5203 L46.2311,44.2712 L12.4382,44.2712 L11.6882,46.5203 Z M55.1193,71 L57.7637,71 L30.6381,0.541 L29.4327,0.541 L29.4327,3.8674 L55.1193,71 Z" id="Shape"></path>
                </g>
                <line x1="0" y1="71" x2="2773" y2="71" id="Baseline-S" stroke="#27AAE1" stroke-width="0.5"></line>
                <line x1="0" y1="0.541" x2="2773" y2="0.541" id="Capline-S" stroke="#27AAE1" stroke-width="0.5"></line>
                <g id="H-reference" transform="translate(76.000000, 430.000000)" fill="#27AAE1" fill-rule="nonzero">
                    <path d="M0.993347,71 L3.6377,71 L29.3282,3.8674 L30.0301,3.8674 L30.0301,0.541 L28.1227,0.541 L0.993347,71 Z M11.6882,46.5203 L46.9818,46.5203 L46.2311,44.2712 L12.4382,44.2712 L11.6882,46.5203 Z M55.1193,71 L57.7637,71 L30.6381,0.541 L29.4327,0.541 L29.4327,3.8674 L55.1193,71 Z" id="Shape"></path>
                </g>
                <line x1="0" y1="501" x2="2773" y2="501" id="Baseline-M" stroke="#27AAE1" stroke-width="0.5"></line>
                <line x1="0" y1="430.54" x2="2773" y2="430.54" id="Capline-M" stroke="#27AAE1" stroke-width="0.5"></line>
                <g id="H-reference" transform="translate(76.000000, 860.000000)" fill="#27AAE1" fill-rule="nonzero">
                    <path d="M0.993347,71 L3.6377,71 L29.3282,3.8674 L30.0301,3.8674 L30.0301,0.541 L28.1227,0.541 L0.993347,71 Z M11.6882,46.5203 L46.9818,46.5203 L46.2311,44.2712 L12.4382,44.2712 L11.6882,46.5203 Z M55.1193,71 L57.7637,71 L30.6381,0.541 L29.4327,0.541 L29.4327,3.8674 L55.1193,71 Z" id="Shape"></path>
                </g>
                <line x1="0" y1="931" x2="2773" y2="931" id="Baseline-L" stroke="#27AAE1" stroke-width="0.5"></line>
                <line x1="0" y1="860.54" x2="2773" y2="860.54" id="Capline-L" stroke="#27AAE1" stroke-width="0.5"></line>
                <line x1="1128.3" y1="405.79" x2="1128.3" y2="525.12" id="left-margin-Regular-M" stroke="#00AEEF" stroke-width="0.5"></line>
                <line x1="1245.39" y1="405.79" x2="1245.39" y2="525.12" id="right-margin-Regular-M" stroke="#00AEEF" stroke-width="0.5"></line>
            </g>
            <g id="Symbols" transform="translate(502.000000, 612.000000)" fill="#000000" fill-rule="nonzero">
                <g id="Black-L" transform="translate(2364.800000, 831.000000)">
                    <path d="M35.3752,36.9717 L47.2847,25.061 L25.4528,3.289 C22.1749,0.068 16.8236,0.01 13.6029,3.289 C10.3249,6.509 10.3833,11.862 13.6029,15.1398 L35.3752,36.9717 Z M123,109.23531 L111.172,97.153 C101.133,108.18711 87.2706,114.69184 71.0564,114.69184 C40.5373,114.69184 17.0858,91.2404 17.0858,60.7421 C17.0858,44.5475 23.6126,30.7813 34.4859,20.7841 L22.2839,9.233 C8.6599,21.9989 0.2588,40.3009 0.2588,60.7421 C0.2588,100.283 31.574,131.5385 71.0564,131.5385 C91.655,131.5385 110.074,123.0385 123,109.23531 Z M106.004,83.8396 L93.58,95.1754 L118.598,120.13456 C121.876,123.3333 127.227,123.3917 130.448,120.13456 C133.726,116.91382 133.726,111.54057 130.448,108.28224 L106.004,83.8396 Z M62.6428,125.4801 L62.6428,147.4985 L79.4699,147.4985 L79.4699,125.4801 L62.6428,125.4801 Z M46.7718,155.1342 L95.35,155.1342 C99.971,155.1342 103.763,151.3033 103.763,146.7206 C103.763,142.0992 99.971,138.3071 95.35,138.3071 L46.7718,138.3071 C42.21,138.3071 38.3583,142.0992 38.3583,146.7206 C38.3583,151.3033 42.21,155.1342 46.7718,155.1342 Z M71.0564,108.5206 C97.446,108.5206 118.835,87.1322 118.835,60.7421 C118.835,34.3521 97.446,12.964 71.0564,12.964 C44.6663,12.964 23.2779,34.3521 23.2779,60.7421 C23.2779,87.1322 44.6663,108.5206 71.0564,108.5206 Z M71.0564,91.6473 C53.4441,91.6473 40.1512,78.3544 40.1512,60.7421 C40.1512,43.1299 53.4441,29.837 71.0564,29.837 C88.6686,29.837 101.961,43.1299 101.961,60.7421 C101.961,78.3544 88.6686,91.6473 71.0564,91.6473 Z" id="Shape"></path>
                </g>
                <g id="Heavy-L" transform="translate(2069.360000, 833.000000)">
                    <path d="M34.4388,34.5658 L45.1211,23.8778 L23.7826,2.59 C20.8456,-0.308 16.0486,-0.353 13.1506,2.59 C10.2135,5.488 10.2581,10.29 13.1506,13.2273 L34.4388,34.5658 Z M120.376,107.13601 L109.779,96.331 C99.723,107.15683 85.8451,113.57337 69.757,113.57337 C39.0636,113.57337 15.3496,89.8594 15.3496,59.1961 C15.3496,43.1326 21.8019,29.3134 32.4669,19.3178 L21.5323,8.966 C8.3666,21.4813 0.2588,39.3079 0.2588,59.1961 C0.2588,97.9808 31.017,128.6887 69.757,128.6887 C89.789,128.6887 107.705,120.48155 120.376,107.13601 Z M104.372,83.1788 L93.221,93.342 L117.536,117.61237 C120.473,120.47466 125.27,120.51928 128.168,117.61237 C131.105,114.71429 131.105,109.88157 128.168,106.96905 L104.372,83.1788 Z M62.2116,123.4752 L62.2116,144.2452 L77.3024,144.2452 L77.3024,123.4752 L62.2116,123.4752 Z M45.9531,151.5145 L93.606,151.5145 C97.74,151.5145 101.146,148.0884 101.146,143.9691 C101.146,139.8297 97.74,136.4237 93.606,136.4237 L45.9531,136.4237 C41.8639,136.4237 38.4077,139.8297 38.4077,143.9691 C38.4077,148.0884 41.8639,151.5145 45.9531,151.5145 Z M69.757,106.6167 C95.95,106.6167 117.178,85.3887 117.178,59.1961 C117.178,33.0035 95.95,11.7755 69.757,11.7755 C43.5644,11.7755 22.3364,33.0035 22.3364,59.1961 C22.3364,85.3887 43.5644,106.6167 69.757,106.6167 Z M69.757,91.6191 C51.1455,91.6191 37.334,77.8077 37.334,59.1961 C37.334,40.5845 51.1455,26.7731 69.757,26.7731 C88.3686,26.7731 102.18,40.5845 102.18,59.1961 C102.18,77.8077 88.3686,91.6191 69.757,91.6191 Z" id="Shape"></path>
                </g>
                <g id="Bold-L" transform="translate(1774.220000, 835.000000)">
                    <path d="M33.3083,32.0662 L42.4171,22.9442 L21.6038,2.173 C19.1042,-0.31 15.0211,-0.339 12.5375,2.173 C10.0379,4.657 10.0671,8.753 12.5375,11.253 L33.3083,32.0662 Z M117.17,104.99816 L108.155,95.8282 C98.061,106.44503 84.13,112.7763 68.151,112.7763 C37.1902,112.7763 13.1236,88.7097 13.1236,57.7869 C13.1236,41.8326 19.5061,27.922 29.962,17.9041 L20.6621,9.095 C8.0277,21.3029 0.2588,38.5603 0.2588,57.7869 C0.2588,95.6267 30.3404,125.6658 68.151,125.6658 C87.4987,125.6658 104.815,117.80494 117.17,104.99816 Z M102.351,82.9205 L92.835,91.5793 L116.289,115.00414 C118.788,117.43654 122.871,117.46574 125.355,115.00414 C127.855,112.52053 127.855,108.386159 125.355,105.91133 L102.351,82.9205 Z M61.7186,121.475 L61.7186,140.8272 L74.5834,140.8272 L74.5834,121.475 L61.7186,121.475 Z M45.0506,147.5313 L91.357,147.5313 C94.869,147.5313 97.776,144.6197 97.776,141.0989 C97.776,137.5737 94.869,134.6665 91.357,134.6665 L45.0506,134.6665 C41.5678,134.6665 38.6182,137.5737 38.6182,141.0989 C38.6182,144.6197 41.5678,147.5313 45.0506,147.5313 Z M68.151,104.79914 C94.12,104.79914 115.163,83.756 115.163,57.7869 C115.163,31.8177 94.12,10.7746 68.151,10.7746 C42.1818,10.7746 21.1387,31.8177 21.1387,57.7869 C21.1387,83.756 42.1818,104.79914 68.151,104.79914 Z M68.151,92.1594 C48.3172,92.1594 33.7784,77.6207 33.7784,57.7869 C33.7784,37.9531 48.3172,23.4143 68.151,23.4143 C87.9848,23.4143 102.524,37.9531 102.524,57.7869 C102.524,77.6207 87.9848,92.1594 68.151,92.1594 Z" id="Shape"></path>
                </g>
                <g id="Semibold-L" transform="translate(1478.590000, 836.000000)">
                    <path d="M32.529,30.7218 L40.553,22.6794 L20.1018,2.265 C17.9038,0.067 14.3127,0.049 12.1148,2.265 C9.9169,4.463 9.9354,8.0727 12.1148,10.2706 L32.529,30.7218 Z M114.96,103.90313 L107.035,95.8604 C96.915,106.3331 82.9476,112.60559 67.0438,112.60559 C35.8987,112.60559 11.589,88.2959 11.589,57.1942 C11.589,41.3152 17.9233,27.3416 28.2352,17.3083 L20.0623,9.5627 C7.7941,21.5587 0.2588,38.4236 0.2588,57.1942 C0.2588,94.3826 29.8739,123.9607 67.0438,123.9607 C85.9197,123.9607 102.822,116.3385 114.96,103.90313 Z M100.958,83.1212 L92.568,90.7428 L115.429,113.58483 C117.627,115.72086 121.218,115.73943 123.416,113.58483 C125.614,111.38696 125.614,107.734016 123.416,105.56093 L100.958,83.1212 Z M61.3787,120.4748 L61.3787,138.8496 L72.7089,138.8496 L72.7089,120.4748 L61.3787,120.4748 Z M44.4284,145.1641 L89.807,145.1641 C92.89,145.1641 95.454,142.6071 95.454,139.499 C95.454,136.3972 92.89,133.8339 89.807,133.8339 L44.4284,133.8339 C41.3637,133.8339 38.7633,136.3972 38.7633,139.499 C38.7633,142.6071 41.3637,145.1641 44.4284,145.1641 Z M67.0438,103.92491 C92.859,103.92491 113.775,83.0092 113.775,57.1942 C113.775,31.3791 92.859,10.4634 67.0438,10.4634 C41.2287,10.4634 20.313,31.3791 20.313,57.1942 C20.313,83.0092 41.2287,103.92491 67.0438,103.92491 Z M67.0438,92.9107 C46.3674,92.9107 31.3272,77.8705 31.3272,57.1942 C31.3272,36.5178 46.3674,21.4776 67.0438,21.4776 C87.7202,21.4776 102.76,36.5178 102.76,57.1942 C102.76,77.8705 87.7202,92.9107 67.0438,92.9107 Z" id="Shape"></path>
                </g>
                <g id="Medium-L" transform="translate(1182.700000, 837.000000)">
                    <path d="M31.9381,29.4607 L39.1395,22.2368 L18.9628,2.093 C16.9936,0.112 13.7756,0.101 11.7944,2.093 C9.8251,4.074 9.8356,7.3147 11.7944,9.284 L31.9381,29.4607 Z M113.284,102.83107 L106.186,95.643 C96.046,106.006477 82.0511,112.23439 66.2042,112.23439 C34.9194,112.23439 10.4254,87.7404 10.4254,56.503 C10.4254,40.6811 16.7232,26.6597 26.9258,16.6148 L19.6074,9.6756 C7.617,21.5108 0.2588,38.0783 0.2588,56.503 C0.2588,93.1975 29.5202,122.426 66.2042,122.426 C84.7224,122.426 101.311,114.98482 113.284,102.83107 Z M99.901,83.0316 L92.367,89.8668 L114.777,112.26689 C116.747,114.1782 119.964,114.18872 121.946,112.26689 C123.915,110.28567 123.915,106.997776 121.946,105.05349 L99.901,83.0316 Z M61.121,119.4748 L61.121,137.1084 L71.2875,137.1084 L71.2875,119.4748 L61.121,119.4748 Z M43.9566,143.1274 L88.6316,143.1274 C91.39,143.1274 93.692,140.8394 93.692,138.0441 C93.692,135.2634 91.39,132.9608 88.6316,132.9608 L43.9566,132.9608 C41.2089,132.9608 38.8734,135.2634 38.8734,138.0441 C38.8734,140.8394 41.2089,143.1274 43.9566,143.1274 Z M66.2042,103.02028 C91.903,103.02028 112.722,82.2012 112.722,56.503 C112.722,30.8047 91.903,9.9857 66.2042,9.9857 C40.506,9.9857 19.6869,30.8047 19.6869,56.503 C19.6869,82.2012 40.506,103.02028 66.2042,103.02028 Z M66.2042,93.2386 C44.889,93.2386 29.4686,77.8183 29.4686,56.503 C29.4686,35.1877 44.889,19.7673 66.2042,19.7673 C87.5195,19.7673 102.94,35.1877 102.94,56.503 C102.94,77.8183 87.5195,93.2386 66.2042,93.2386 Z" id="Shape"></path>
                </g>
                <g id="Regular-L" transform="translate(887.060000, 838.000000)">
                    <path d="M31.1673,28.1201 L37.2959,21.9639 L17.4773,2.173 C15.8063,0.474 13.075,0.474 11.3764,2.173 C9.7054,3.872 9.7054,6.6305 11.3764,8.3015 L31.1673,28.1201 Z M111.099,101.73708 L105.078,95.6638 C94.913,105.884793 80.8817,112.05457 65.1092,112.05457 C33.6421,112.05457 8.9077,87.3201 8.9077,55.9058 C8.9077,40.1584 15.1578,26.0747 25.218,16.0145 L19.0141,10.1272 C7.386,21.7528 0.2588,37.9321 0.2588,55.9058 C0.2588,91.9561 29.0589,120.7285 65.1092,120.7285 C83.1607,120.7285 99.34,113.5235 111.099,101.73708 Z M98.523,83.2191 L92.103,89.0286 L113.927,110.85219 C115.598,112.47039 118.329,112.47039 120.028,110.85219 C121.699,109.15356 121.699,106.341811 120.028,104.69595 L98.523,83.2191 Z M60.7848,118.4746 L60.7848,135.1416 L69.4336,135.1416 L69.4336,118.4746 L60.7848,118.4746 Z M43.3413,140.7753 L87.0984,140.7753 C89.433,140.7753 91.395,138.8379 91.395,136.4508 C91.395,134.0888 89.433,132.1264 87.0984,132.1264 L43.3413,132.1264 C41.007,132.1264 39.0169,134.0888 39.0169,136.4508 C39.0169,138.8379 41.007,140.7753 43.3413,140.7753 Z M65.1092,102.14467 C90.655,102.14467 111.348,81.4516 111.348,55.9058 C111.348,30.3599 90.655,9.6669 65.1092,9.6669 C39.5633,9.6669 18.8703,30.3599 18.8703,55.9058 C18.8703,81.4516 39.5633,102.14467 65.1092,102.14467 Z M65.1092,93.9707 C42.9606,93.9707 27.0443,78.0544 27.0443,55.9058 C27.0443,33.7571 42.9606,17.8409 65.1092,17.8409 C87.2578,17.8409 103.174,33.7571 103.174,55.9058 C103.174,78.0544 87.2578,93.9707 65.1092,93.9707 Z" id="Shape"></path>
                </g>
                <g id="Light-L" transform="translate(591.430000, 840.000000)">
                    <path d="M30.5757,25.7956 L35.2728,21.0517 L15.2634,1.089 C13.9932,-0.228 11.9299,-0.228 10.6129,1.089 C9.3428,2.406 9.3428,4.516 10.6129,5.7862 L30.5757,25.7956 Z M109.171,99.54623 L104.601,94.94253 C94.302,105.33527 80.0229,111.60048 64.0214,111.60048 C32.0389,111.60048 6.8846,86.4462 6.8846,54.4974 C6.8846,38.4828 13.2302,24.1701 23.4621,13.9382 L18.8041,9.4823 C7.3096,20.917 0.2588,36.8291 0.2588,54.4974 C0.2588,89.8415 28.6772,118.2132 64.0214,118.2132 C81.7103,118.2132 97.622,111.1418 109.171,99.54623 Z M97.13,82.9559 L92.218,87.3912 L113.507,108.68042 C114.777,109.91692 116.841,109.91692 118.158,108.68042 C119.428,107.3635 119.428,105.21973 118.158,103.936493 L97.13,82.9559 Z M60.7084,116.5128 L60.7084,133.027 L67.3343,133.027 L67.3343,116.5128 L60.7084,116.5128 Z M43.4367,137.5538 L84.9799,137.5538 C86.7608,137.5538 88.2461,136.0554 88.2461,134.2409 C88.2461,132.4133 86.7608,130.928 84.9799,130.928 L43.4367,130.928 C41.6559,130.928 40.1238,132.4133 40.1238,134.2409 C40.1238,136.0554 41.6559,137.5538 43.4367,137.5538 Z M64.0214,100.67906 C89.548,100.67906 110.203,80.0242 110.203,54.4974 C110.203,28.9706 89.548,8.3158 64.0214,8.3158 C38.4946,8.3158 17.8397,28.9706 17.8397,54.4974 C17.8397,80.0242 38.4946,100.67906 64.0214,100.67906 Z M64.0214,94.35634 C41.1284,94.35634 24.1624,77.3904 24.1624,54.4974 C24.1624,31.6045 41.1284,14.6385 64.0214,14.6385 C86.9143,14.6385 103.88,31.6045 103.88,54.4974 C103.88,77.3904 86.9143,94.35634 64.0214,94.35634 Z" id="Shape"></path>
                </g>
                <g id="Thin-L" transform="translate(296.146000, 841.000000)">
                    <path d="M29.7932,24.3665 L32.5972,21.4905 L12.3353,1.301 C11.5952,0.489 10.4153,0.489 9.6033,1.301 C8.8632,2.113 8.8632,3.3646 9.6033,4.1047 L29.7932,24.3665 Z M106.622,98.29381 L103.97,95.63373 C93.494,106.25365 78.887,112.64506 62.5826,112.64506 C29.9186,112.64506 4.209,86.9354 4.209,54.2799 C4.209,37.9119 10.6808,23.2963 21.1399,12.8372 L18.5265,10.2744 C7.2086,21.4568 0.2588,37.0155 0.2588,54.2799 C0.2588,88.6901 28.1724,116.5317 62.5826,116.5317 C79.7919,116.5317 95.351,109.63696 106.622,98.29381 Z M95.288,84.2529 L92.369,86.8708 L112.952,107.45324 C113.692,108.18491 114.872,108.18491 115.684,107.45324 C116.424,106.64116 116.424,105.38086 115.684,104.57721 L95.288,84.2529 Z M60.6075,115.5633 L60.6075,131.8756 L64.5577,131.8756 L64.5577,115.5633 L60.6075,115.5633 Z M43.5629,134.9383 L82.1781,134.9383 C83.2269,134.9383 84.0812,134.0205 84.0812,132.9632 C84.0812,131.8424 83.2269,130.9881 82.1781,130.9881 L43.5629,130.9881 C42.5141,130.9881 41.5879,131.8424 41.5879,132.9632 C41.5879,134.0205 42.5141,134.9383 43.5629,134.9383 Z M62.5826,100.38583 C88.0841,100.38583 108.688,79.7815 108.688,54.2799 C108.688,28.7784 88.0841,8.174 62.5826,8.174 C37.081,8.174 16.4766,28.7784 16.4766,54.2799 C16.4766,79.7815 37.081,100.38583 62.5826,100.38583 Z M62.5826,96.51157 C38.7052,96.51157 20.3509,78.1573 20.3509,54.2799 C20.3509,30.4025 38.7052,12.0483 62.5826,12.0483 C86.46,12.0483 104.814,30.4025 104.814,54.2799 C104.814,78.1573 86.46,96.51157 62.5826,96.51157 Z" id="Shape"></path>
                </g>
                <g id="Ultralight-L" transform="translate(0.166000, 842.000000)">
                    <path d="M29.3924,23.1467 L31.2268,21.2274 L10.8356,0.921 C10.367,0.368 9.6396,0.368 9.0861,0.921 C8.6175,1.475 8.6175,2.287 9.0861,2.7556 L29.3924,23.1467 Z M105.316,97.16452 L103.647,95.49995 C93.08,106.23624 78.3052,112.6923 61.8456,112.6923 C28.8326,112.6923 2.8385,86.6982 2.8385,53.6807 C2.8385,37.1317 9.375,22.361 19.9505,11.7855 L18.3843,10.1924 C7.1569,21.2454 0.2588,36.6231 0.2588,53.6807 C0.2588,87.6125 27.9138,115.1826 61.8456,115.1826 C78.8093,115.1826 94.187,108.37839 105.316,97.16452 Z M94.344,84.4294 L92.447,86.1164 L112.667,106.33689 C113.136,106.80997 113.863,106.80997 114.417,106.33689 C114.886,105.78338 114.886,104.97558 114.417,104.41758 L94.344,84.4294 Z M60.5558,114.5891 L60.5558,130.798 L63.1355,130.798 L63.1355,114.5891 L60.5558,114.5891 Z M43.6276,133.1109 L80.743,133.1109 C81.4169,133.1109 81.9479,132.4904 81.9479,131.821 C81.9479,131.0622 81.4169,130.5311 80.743,130.5311 L43.6276,130.5311 C42.9537,130.5311 42.3377,131.0622 42.3377,131.821 C42.3377,132.4904 42.9537,133.1109 43.6276,133.1109 Z M61.8456,99.74784 C87.3343,99.74784 107.913,79.1693 107.913,53.6807 C107.913,28.1921 87.3343,7.6136 61.8456,7.6136 C36.357,7.6136 15.7785,28.1921 15.7785,53.6807 C15.7785,79.1693 36.357,99.74784 61.8456,99.74784 Z M61.8456,97.12766 C37.464,97.12766 18.3987,78.0623 18.3987,53.6807 C18.3987,29.2991 37.464,10.2337 61.8456,10.2337 C86.2272,10.2337 105.293,29.2991 105.293,53.6807 C105.293,78.0623 86.2272,97.12766 61.8456,97.12766 Z" id="Shape"></path>
                </g>
                <g id="Black-M" transform="translate(2378.340000, 418.000000)">
                    <path d="M28.6534,29.4668 L38.7409,19.3795 L21.377,2.0724 C18.5988,-0.6484 14.067,-0.7055 11.3462,2.0724 C8.568,4.7932 8.6251,9.3246 11.3462,12.1029 L28.6534,29.4668 Z M97.809,85.2071 L87.7834,74.9477 C80.0025,83.6986 69.2431,88.82684 56.5418,88.82684 C32.9774,88.82684 14.9774,70.8268 14.9774,47.268 C14.9774,34.5724 20.1108,23.9217 28.7372,16.1518 L18.4039,6.3653 C7.4731,16.4457 0.72266,30.9973 0.72266,47.268 C0.72266,78.456 25.4108,103.08736 56.5418,103.08736 C72.9379,103.08736 87.6037,96.268519 97.809,85.2071 Z M83.8614,64.5568 L73.347,74.1607 L93.261,94.01723 C96.039,96.732851 100.571,96.789947 103.291,94.01723 C106.07,91.2964 106.07,86.75947 103.291,83.987 L83.8614,64.5568 Z M49.4144,97.74257 L49.4144,115.8533 L63.6692,115.8533 L63.6692,97.74257 L49.4144,97.74257 Z M37.4748,121.9339 L75.6065,121.9339 C79.5291,121.9339 82.7341,118.6775 82.7341,114.8065 C82.7341,110.8842 79.5291,107.6792 75.6065,107.6792 L37.4748,107.6792 C33.6093,107.6792 30.3474,110.8842 30.3474,114.8065 C30.3474,118.6775 33.6093,121.9339 37.4748,121.9339 Z M56.5418,84.5837 C77.1543,84.5837 93.858,67.8805 93.858,47.268 C93.858,26.6554 77.1543,9.9522 56.5418,9.9522 C35.9293,9.9522 19.226,26.6554 19.226,47.268 C19.226,67.8805 35.9293,84.5837 56.5418,84.5837 Z M56.5418,70.15 C43.6548,70.15 33.6597,60.155 33.6597,47.268 C33.6597,34.3809 43.6548,24.3859 56.5418,24.3859 C69.4288,24.3859 79.4238,34.3809 79.4238,47.268 C79.4238,60.155 69.4288,70.15 56.5418,70.15 Z" id="Shape"></path>
                </g>
                <g id="Heavy-M" transform="translate(2082.770000, 419.000000)">
                    <path d="M27.7926,28.1 L36.8125,19.0777 L19.9485,2.2596 C17.4665,-0.181 13.4151,-0.2246 10.9744,2.2596 C8.4925,4.7002 8.5361,8.754 10.9744,11.2359 L27.7926,28.1 Z M95.422,84.1276 L86.4664,74.9814 C78.6811,83.5128 67.9288,88.54599 55.372,88.54599 C31.6847,88.54599 13.4667,70.328 13.4667,46.6571 C13.4667,34.1144 18.5186,23.433 26.9254,15.6805 L17.6886,6.9347 C7.1934,16.7874 0.72266,30.899 0.72266,46.6571 C0.72266,77.1712 24.9015,101.30417 55.372,101.30417 C71.2479,101.30417 85.4467,94.759241 95.422,84.1276 Z M82.3947,64.7058 L72.985,73.2902 L92.261,92.5226 C94.743,94.9445409 98.795,94.9881625 101.235,92.5226 C103.717,90.08198 103.717,86.01184 101.235,83.544 L82.3947,64.7058 Z M48.9999,96.7342 L48.9999,113.6387 L61.744,113.6387 L61.744,96.7342 L48.9999,96.7342 Z M36.6656,119.4632 L74.0965,119.4632 C77.5946,119.4632 80.4662,116.5621 80.4662,113.0912 C80.4662,109.5908 77.5946,106.7192 74.0965,106.7192 L36.6656,106.7192 C33.2112,106.7192 30.2936,109.5908 30.2936,113.0912 C30.2936,116.5621 33.2112,119.4632 36.6656,119.4632 Z M55.372,83.6284 C75.7933,83.6284 92.343,67.0785 92.343,46.6571 C92.343,26.2358 75.7933,9.6859 55.372,9.6859 C34.9506,9.6859 18.4007,26.2358 18.4007,46.6571 C18.4007,67.0785 34.9506,83.6284 55.372,83.6284 Z M55.372,70.8575 C41.5768,70.8575 31.1716,60.4523 31.1716,46.6571 C31.1716,32.8619 41.5768,22.4568 55.372,22.4568 C69.1672,22.4568 79.5723,32.8619 79.5723,46.6571 C79.5723,60.4523 69.1672,70.8575 55.372,70.8575 Z" id="Shape"></path>
                </g>
                <g id="Bold-M" transform="translate(1787.330000, 420.000000)">
                    <path d="M26.8296,26.6896 L34.6553,18.8588 L18.3506,2.5877 C16.2,0.4605 12.6857,0.432 10.5586,2.5877 C8.408,4.7149 8.4365,8.2342 10.5586,10.3848 L26.8296,26.6896 Z M92.751,83.0387 L84.993,75.1377 C77.2028,83.4235 66.4586,88.35046 54.0634,88.35046 C30.2385,88.35046 11.7768,69.8887 11.7768,46.0925 C11.7768,33.7207 16.7374,23.005 24.8987,15.272 L16.8884,7.6904 C6.8805,17.2883 0.72266,30.9077 0.72266,46.0925 C0.72266,75.8526 24.3318,99.42805 54.0634,99.42805 C69.3574,99.42805 83.0338,93.18954 92.751,83.0387 Z M80.7539,64.9911 L72.5802,72.4349 L91.143,90.96929 C93.294,93.062703 96.808,93.091251 98.935,90.96929 C101.086,88.84212 101.086,85.29414 98.935,83.167 L80.7539,64.9911 Z M48.5363,95.72485 L48.5363,111.28 L59.5904,111.28 L59.5904,95.72485 L48.5363,95.72485 Z M35.7605,116.818 L72.4073,116.818 C75.4306,116.818 77.9292,114.3143 77.9292,111.291 C77.9292,108.2626 75.4306,105.7639 72.4073,105.7639 L35.7605,105.7639 C32.7658,105.7639 30.2334,108.2626 30.2334,111.291 C30.2334,114.3143 32.7658,116.818 35.7605,116.818 Z M54.0634,82.6783 C74.2708,82.6783 90.6492,66.2999 90.6492,46.0925 C90.6492,25.8851 74.2708,9.5067 54.0634,9.5067 C33.8559,9.5067 17.4775,25.8851 17.4775,46.0925 C17.4775,66.2999 33.8559,82.6783 54.0634,82.6783 Z M54.0634,71.7676 C39.2522,71.7676 28.3882,60.9037 28.3882,46.0925 C28.3882,31.2813 39.2522,20.4174 54.0634,20.4174 C68.8745,20.4174 79.7385,31.2813 79.7385,46.0925 C79.7385,60.9037 68.8745,71.7676 54.0634,71.7676 Z" id="Shape"></path>
                </g>
                <g id="Semibold-M" transform="translate(1491.500000, 422.000000)">
                    <path d="M26.1658,24.4067 L33.1681,17.3972 L17.2489,1.5033 C15.3268,-0.4078 12.1829,-0.4259 10.2719,1.5033 C8.3497,3.4144 8.3679,6.5653 10.2719,8.4875 L26.1658,24.4067 Z M90.9102,80.9774 L83.9773,73.9349 C76.1837,82.05142 65.445,86.90505 53.1612,86.90505 C29.2416,86.90505 10.6117,68.2752 10.6117,44.3926 C10.6117,32.1387 15.5095,21.3994 23.5015,13.6798 L16.3367,6.9007 C6.6648,16.3231 0.72266,29.6031 0.72266,44.3926 C0.72266,73.6329 23.9391,96.82406 53.1612,96.82406 C68.0541,96.82406 81.3704,90.79679 90.9102,80.9774 Z M79.6228,63.8771 L72.301,70.5348 L90.3723,88.58784 C92.294,90.45477 95.438,90.47293 97.349,88.58784 C99.271,86.67676 99.271,83.48876 97.349,81.5966 L79.6228,63.8771 Z M48.2167,93.7184 L48.2167,108.3433 L58.1057,108.3433 L58.1057,93.7184 L48.2167,93.7184 Z M35.1364,113.6839 L71.2428,113.6839 C73.9387,113.6839 76.1802,111.4541 76.1802,108.7393 C76.1802,106.0363 73.9387,103.7948 71.2428,103.7948 L35.1364,103.7948 C32.4587,103.7948 30.1919,106.0363 30.1919,108.7393 C30.1919,111.4541 32.4587,113.6839 35.1364,113.6839 Z M53.1612,80.7127 C73.2212,80.7127 89.4813,64.4526 89.4813,44.3926 C89.4813,24.3326 73.2212,8.0725 53.1612,8.0725 C33.1012,8.0725 16.8411,24.3326 16.8411,44.3926 C16.8411,64.4526 33.1012,80.7127 53.1612,80.7127 Z M53.1612,71.0844 C37.6496,71.0844 26.4694,59.9042 26.4694,44.3926 C26.4694,28.8811 37.6496,17.7008 53.1612,17.7008 C68.6728,17.7008 79.853,28.8811 79.853,44.3926 C79.853,59.9042 68.6728,71.0844 53.1612,71.0844 Z" id="Shape"></path>
                </g>
                <g id="Medium-M" transform="translate(1195.460000, 422.000000)">
                    <path d="M25.6625,24.1921 L32.0405,17.8055 L16.4136,2.1975 C14.6647,0.4503 11.8017,0.44 10.0545,2.1975 C8.3056,3.9447 8.3159,6.8164 10.0545,8.5653 L25.6625,24.1921 Z M89.5143,80.931 L83.2072,74.5393 C75.4109,82.52749 64.6765,87.32557 52.4772,87.32557 C28.4856,87.32557 9.7284,68.5683 9.7284,44.6202 C9.7284,32.4557 14.5785,21.6984 22.442,13.989 L15.9184,7.8184 C6.5012,17.1077 0.72266,30.1303 0.72266,44.6202 C0.72266,73.4663 23.6413,96.36609 52.4772,96.36609 C67.0658,96.36609 80.1091,90.49899 89.5143,80.931 Z M78.7651,64.549 L72.0894,70.6104 L89.7878,88.29861 C91.5367,89.99381 94.4,90.00409 96.147,88.29861 C97.896,86.55138 97.896,83.63633 96.147,81.9222 L78.7651,64.549 Z M47.9743,93.71351 L47.9743,107.6331 L56.98,107.6331 L56.98,93.71351 L47.9743,93.71351 Z M34.6633,112.8239 L70.3598,112.8239 C72.8075,112.8239 74.8541,110.8019 74.8541,108.321 C74.8541,105.8648 72.8075,103.8182 70.3598,103.8182 L34.6633,103.8182 C32.2259,103.8182 30.1604,105.8648 30.1604,108.321 C30.1604,110.8019 32.2259,112.8239 34.6633,112.8239 Z M52.4772,80.7388 C72.4253,80.7388 88.5958,64.5684 88.5958,44.6202 C88.5958,24.672 72.4253,8.5016 52.4772,8.5016 C32.529,8.5016 16.3585,24.672 16.3585,44.6202 C16.3585,64.5684 32.529,80.7388 52.4772,80.7388 Z M52.4772,72.0829 C36.4345,72.0829 25.0145,60.6628 25.0145,44.6202 C25.0145,28.5776 36.4345,17.1575 52.4772,17.1575 C68.5198,17.1575 79.9398,28.5776 79.9398,44.6202 C79.9398,60.6628 68.5198,72.0829 52.4772,72.0829 Z" id="Shape"></path>
                </g>
                <g id="Regular-M" transform="translate(899.620000, 423.000000)">
                    <path d="M25.0059,22.9123 L30.5697,17.338 L15.3241,2.103 C13.8012,0.5695 11.3044,0.5695 9.7709,2.103 C8.248,3.6365 8.248,6.1438 9.7709,7.6668 L25.0059,22.9123 Z M87.6935,79.8704 L82.2026,74.3277 C74.403,82.14846 63.674,86.87407 51.5849,86.87407 C27.4997,86.87407 8.5761,67.9505 8.5761,43.917 C8.5761,31.8691 13.364,21.0884 21.0602,13.3923 L15.3728,8.0154 C6.2879,17.131 0.72266,29.8181 0.72266,43.917 C0.72266,72.2491 23.2528,94.76874 51.5849,94.76874 C65.7768,94.76874 78.4639,89.11056 87.6935,79.8704 Z M77.6464,64.4253 L71.8133,69.7092 L89.0255,86.92135 C90.5485,88.39256 93.045,88.39256 94.579,86.92135 C96.102,85.38784 96.102,82.8288 94.579,81.34705 L77.6464,64.4253 Z M47.6582,92.70714 L47.6582,105.7067 L55.5117,105.7067 L55.5117,92.70714 L47.6582,92.70714 Z M34.0461,110.7022 L69.2081,110.7022 C71.332,110.7022 73.1243,108.9511 73.1243,106.7754 C73.1243,104.641 71.332,102.8487 69.2081,102.8487 L34.0461,102.8487 C31.9222,102.8487 30.1194,104.641 30.1194,106.7754 C30.1194,108.9511 31.9222,110.7022 34.0461,110.7022 Z M51.5849,79.7729 C71.3873,79.7729 87.4408,63.7194 87.4408,43.917 C87.4408,24.1147 71.3873,8.0612 51.5849,8.0612 C31.7826,8.0612 15.7291,24.1147 15.7291,43.917 C15.7291,63.7194 31.7826,79.7729 51.5849,79.7729 Z M51.5849,72.3852 C34.8496,72.3852 23.1168,60.6523 23.1168,43.917 C23.1168,27.1817 34.8496,15.4489 51.5849,15.4489 C68.3202,15.4489 80.0531,27.1817 80.0531,43.917 C80.0531,60.6523 68.3202,72.3852 51.5849,72.3852 Z" id="Shape"></path>
                </g>
                <g id="Light-M" transform="translate(603.870000, 425.000000)">
                    <path d="M24.4755,20.6214 L28.7559,16.3134 L13.3393,0.9244 C12.1756,-0.2669 10.2778,-0.2669 9.0865,0.9244 C7.9229,2.1156 7.9229,4.0412 9.0865,5.2048 L24.4755,20.6214 Z M85.9653,77.6993 L81.7749,73.4742 C73.8554,81.44889 62.904,86.26005 50.6096,86.26005 C26.0623,86.26005 6.7624,66.9601 6.7624,42.4475 C6.7624,30.16 11.6358,19.174 19.486,11.3238 L15.1846,7.2303 C6.2194,16.1748 0.72266,28.6223 0.72266,42.4475 C0.72266,70.1464 22.9106,92.30674 50.6096,92.30674 C64.4764,92.30674 76.9239,86.76834 85.9653,77.6993 Z M76.3973,63.9824 L71.916,68.0343 L88.6491,84.76735 C89.8127,85.89634 91.7105,85.89634 92.902,84.76735 C94.065,83.57606 94.065,81.61591 92.902,80.45926 L76.3973,63.9824 Z M47.5897,90.74136 L47.5897,103.604 L53.6294,103.604 L53.6294,90.74136 L47.5897,90.74136 Z M34.1317,107.6071 L67.3088,107.6071 C68.9365,107.6071 70.301,106.2496 70.301,104.5872 C70.301,102.9319 68.9365,101.5674 67.3088,101.5674 L34.1317,101.5674 C32.504,101.5674 31.1118,102.9319 31.1118,104.5872 C31.1118,106.2496 32.504,107.6071 34.1317,107.6071 Z M50.6096,78.252 C70.3948,78.252 86.4141,62.2327 86.4141,42.4475 C86.4141,22.6622 70.3948,6.6429 50.6096,6.6429 C30.8244,6.6429 14.8051,22.6622 14.8051,42.4475 C14.8051,62.2327 30.8244,78.252 50.6096,78.252 Z M50.6096,72.5241 C33.207,72.5241 20.533,59.8501 20.533,42.4475 C20.533,25.0448 33.207,12.3709 50.6096,12.3709 C68.0122,12.3709 80.6862,25.0448 80.6862,42.4475 C80.6862,59.8501 68.0122,72.5241 50.6096,72.5241 Z" id="Shape"></path>
                </g>
                <g id="Thin-M" transform="translate(308.442000, 426.000000)">
                    <path d="M23.7739,19.2367 L26.3571,16.6033 L10.7141,1.0106 C10.0257,0.2719 8.9199,0.2719 8.1813,1.0106 C7.4929,1.7493 7.4929,2.9054 8.1813,3.5938 L23.7739,19.2367 Z M83.6796,76.473 L81.2091,73.9904 C73.1313,82.16882 61.8857,87.093132 49.3197,87.093132 C24.1614,87.093132 4.3635,67.2953 4.3635,42.149 C4.3635,29.5447 9.3501,18.2871 17.4039,10.2333 L14.9356,7.8371 C6.1289,16.5552 0.72266,28.6859 0.72266,42.149 C0.72266,69.0106 22.458,90.69571 49.3197,90.69571 C62.7565,90.69571 74.8871,85.31573 83.6796,76.473 Z M74.7452,65.0418 L72.0518,67.4643 L88.1512,83.56368 C88.8396,84.24005 89.9453,84.24005 90.684,83.56368 C91.3724,82.825 91.3724,81.65692 90.684,80.93025 L74.7452,65.0418 Z M47.4992,89.78662 L47.4992,102.4683 L51.1401,102.4683 L51.1401,89.78662 L47.4992,89.78662 Z M34.2448,105.1587 L64.7968,105.1587 C65.7682,105.1587 66.567,104.3217 66.567,103.3383 C66.567,102.3166 65.7682,101.5179 64.7968,101.5179 L34.2448,101.5179 C33.2734,101.5179 32.4244,102.3166 32.4244,103.3383 C32.4244,104.3217 33.2734,105.1587 34.2448,105.1587 Z M49.3197,77.8856 C69.0822,77.8856 85.0563,61.9116 85.0563,42.149 C85.0563,22.3864 69.0822,6.4124 49.3197,6.4124 C29.5571,6.4124 13.583,22.3864 13.583,42.149 C13.583,61.9116 29.5571,77.8856 49.3197,77.8856 Z M49.3197,74.3529 C31.0344,74.3529 17.1158,60.4342 17.1158,42.149 C17.1158,23.8638 31.0344,9.9451 49.3197,9.9451 C67.6049,9.9451 81.5235,23.8638 81.5235,42.149 C81.5235,60.4342 67.6049,74.3529 49.3197,74.3529 Z" id="Shape"></path>
                </g>
                <g id="Ultralight-M" transform="translate(12.386000, 427.000000)">
                    <path d="M23.4146,18.0397 L25.1284,16.264 L9.3695,0.567 C8.9245,0.0602 8.2245,0.0602 7.7176,0.567 C7.2726,1.0739 7.2726,1.8358 7.7176,2.2808 L23.4146,18.0397 Z M82.5089,75.357 L80.9193,73.767 C72.7603,82.04975 61.3641,87.0320257 48.6589,87.0320257 C23.1877,87.0320257 3.1348,66.9792 3.1348,41.5083 C3.1348,28.7418 8.1794,17.3451 16.3375,9.1869 L14.8081,7.6601 C6.0825,16.2623 0.72266,28.2307 0.72266,41.5083 C0.72266,67.9411 22.2262,89.38275 48.6589,89.38275 C61.8755,89.38275 73.8439,84.0839 82.5089,75.357 Z M73.8991,65.0966 L72.1213,66.6845 L87.8962,82.45935 C88.3411,82.9039 89.0412,82.9039 89.5481,82.45935 C89.993,81.9525 89.993,81.19011 89.5481,80.68368 L73.8991,65.0966 Z M47.4529,88.8098 L47.4529,101.3987 L49.865,101.3987 L49.865,88.8098 L47.4529,88.8098 Z M34.3028,103.4169 L63.5102,103.4169 C64.1454,103.4169 64.6544,102.8465 64.6544,102.2108 C64.6544,101.5136 64.1454,101.0047 63.5102,101.0047 L34.3028,101.0047 C33.6675,101.0047 33.0967,101.5136 33.0967,102.2108 C33.0967,102.8465 33.6675,103.4169 34.3028,103.4169 Z M48.6589,77.21019 C68.41,77.21019 84.3608,61.2593 84.3608,41.5083 C84.3608,21.7573 68.41,5.8065 48.6589,5.8065 C28.9079,5.8065 12.9571,21.7573 12.9571,41.5083 C12.9571,61.2593 28.9079,77.21019 48.6589,77.21019 Z M48.6589,74.8018 C29.9217,74.8018 15.3655,60.2456 15.3655,41.5083 C15.3655,22.771 29.9217,8.2149 48.6589,8.2149 C67.3962,8.2149 81.9524,22.771 81.9524,41.5083 C81.9524,60.2456 67.3962,74.8018 48.6589,74.8018 Z" id="Shape"></path>
                </g>
                <g id="Black-S" transform="translate(2389.260000, 0.000000)">
                    <path d="M22.9551,24.332 L31.1094,16.1777 L17.3398,2.457 C15.0938,0.2598 11.4316,0.2109 9.2344,2.457 C6.9883,4.6543 7.0371,8.3164 9.2344,10.5625 L22.9551,24.332 Z M77.5449,67.9355 L69.4395,59.6348 C63.3359,66.5684 54.8887,70.6211 44.8789,70.6211 C26.4219,70.6211 12.3594,56.5586 12.3594,38.1016 C12.3594,28.0918 16.4121,19.7422 23.248,13.6387 L14.8984,5.7285 C6.207,13.6875 0.83594,25.2109 0.83594,38.1016 C0.83594,62.7109 20.3184,82.14453 44.8789,82.14453 C57.8672,82.14453 69.4883,76.72461 77.5449,67.9355 Z M66.3633,51.4805 L57.8672,59.2441 L73.6387,74.9668 C75.8848,77.16406 79.5469,77.21289 81.7441,74.9668 C83.9902,72.7695 83.9902,69.1074 81.7441,66.8613 L66.3633,51.4805 Z M39.1172,77.75 L39.1172,92.30078 L50.6406,92.30078 L50.6406,77.75 L39.1172,77.75 Z M29.8887,97.0859 L59.8691,97.0859 C63.043,97.0859 65.6309,94.4492 65.6309,91.32422 C65.6309,88.15039 63.043,85.5625 59.8691,85.5625 L29.8887,85.5625 C26.7637,85.5625 24.127,88.15039 24.127,91.32422 C24.127,94.4492 26.7637,97.0859 29.8887,97.0859 Z M44.8789,67.4473 C61.0898,67.4473 74.2246,54.3125 74.2246,38.1016 C74.2246,21.8906 61.0898,8.7559 44.8789,8.7559 C28.668,8.7559 15.5332,21.8906 15.5332,38.1016 C15.5332,54.3125 28.668,67.4473 44.8789,67.4473 Z M44.8789,55.7285 C35.0156,55.7285 27.252,47.9648 27.252,38.1016 C27.252,28.2383 35.0156,20.4746 44.8789,20.4746 C54.7422,20.4746 62.5059,28.2383 62.5059,38.1016 C62.5059,47.9648 54.7422,55.7285 44.8789,55.7285 Z" id="Shape"></path>
                </g>
                <g id="Heavy-S" transform="translate(2093.400000, 1.000000)">
                    <path d="M22.2867,23.0554 L29.6919,15.6502 L16.3718,2.3675 C14.3331,0.3661 11.0052,0.3288 9.0039,2.3675 C6.9652,4.3688 7.0025,7.6967 9.0039,9.7354 L22.2867,23.0554 Z M75.7241,66.8894 L68.3677,59.3723 C62.2757,66.0985 53.863,70.059 44.003,70.059 C25.4999,70.059 11.2991,55.8582 11.2991,37.3666 C11.2991,27.5182 15.2712,19.1686 21.8997,13.0997 L14.3107,5.9155 C5.9765,13.7017 0.83594,24.8794 0.83594,37.3666 C0.83594,61.4804 19.9265,80.53373 44.003,80.53373 C56.588,80.53373 67.8403,75.33278 75.7241,66.8894 Z M65.2685,51.2641 L57.5445,58.3133 L72.832,73.56344 C74.8706,75.55327 78.1985,75.59057 80.1999,73.56344 C82.2385,71.5621 82.2385,68.2227 80.1999,66.1955 L65.2685,51.2641 Z M38.7715,76.73848 L38.7715,90.2751 L49.2346,90.2751 L49.2346,76.73848 L38.7715,76.73848 Z M29.1857,94.9681 L58.8204,94.9681 C61.6946,94.9681 64.052,92.58488 64.052,89.73647 C64.052,86.86228 61.6946,84.50488 58.8204,84.50488 L29.1857,84.50488 C26.3488,84.50488 23.9541,86.86228 23.9541,89.73647 C23.9541,92.58488 26.3488,94.9681 29.1857,94.9681 Z M44.003,66.4242 C60.0526,66.4242 73.0606,53.4162 73.0606,37.3666 C73.0606,21.317 60.0526,8.309 44.003,8.309 C27.9535,8.309 14.9455,21.317 14.9455,37.3666 C14.9455,53.4162 27.9535,66.4242 44.003,66.4242 Z M44.003,55.9155 C33.4483,55.9155 25.4541,47.9214 25.4541,37.3666 C25.4541,26.8119 33.4483,18.8177 44.003,18.8177 C54.5578,18.8177 62.552,26.8119 62.552,37.3666 C62.552,47.9214 54.5578,55.9155 44.003,55.9155 Z" id="Shape"></path>
                </g>
                <g id="Bold-S" transform="translate(1797.640000, 3.000000)">
                    <path d="M21.5391,20.7461 L28.1064,14.1787 L15.2891,1.3857 C13.4824,-0.3965 10.5283,-0.4209 8.7461,1.3857 C6.9395,3.168 6.9639,6.1221 8.7461,7.9287 L21.5391,20.7461 Z M73.6875,64.8379 L67.1689,58.1973 C61.0898,64.6914 52.7158,68.5488 43.0234,68.5488 C24.4688,68.5488 10.1133,54.1934 10.1133,35.6631 C10.1133,25.9951 13.9951,17.6455 20.3916,11.6152 L13.6533,5.2432 C5.7188,12.8359 0.83594,23.627 0.83594,35.6631 C0.83594,59.2227 19.4883,77.85059 43.0234,77.85059 C55.1572,77.85059 65.9971,72.89453 73.6875,64.8379 Z M64.0439,50.1406 L57.1836,56.3906 L71.9297,71.1123 C73.7363,72.87012 76.6904,72.89453 78.4727,71.1123 C80.2793,69.3301 80.2793,66.3516 78.4727,64.5693 L64.0439,50.1406 Z M38.3848,74.72559 L38.3848,87.12793 L47.6621,87.12793 L47.6621,74.72559 L38.3848,74.72559 Z M28.3994,91.7178 L57.6475,91.7178 C60.1865,91.7178 62.2861,89.61816 62.2861,87.0791 C62.2861,84.54004 60.1865,82.44043 57.6475,82.44043 L28.3994,82.44043 C25.8848,82.44043 23.7607,84.54004 23.7607,87.0791 C23.7607,89.61816 25.8848,91.7178 28.3994,91.7178 Z M43.0234,64.3984 C58.8926,64.3984 71.7588,51.5322 71.7588,35.6631 C71.7588,19.7939 58.8926,6.9277 43.0234,6.9277 C27.1543,6.9277 14.2881,19.7939 14.2881,35.6631 C14.2881,51.5322 27.1543,64.3984 43.0234,64.3984 Z M43.0234,55.2432 C31.6953,55.2432 23.4434,46.9912 23.4434,35.6631 C23.4434,24.335 31.6953,16.083 43.0234,16.083 C54.3516,16.083 62.6035,24.335 62.6035,35.6631 C62.6035,46.9912 54.3516,55.2432 43.0234,55.2432 Z" id="Shape"></path>
                </g>
                <g id="Semibold-S" transform="translate(1501.590000, 3.000000)">
                    <path d="M21.0236,20.5328 L27.0134,14.5431 L14.5426,2.0878 C12.8959,0.4566 10.1995,0.4411 8.5684,2.0878 C6.9217,3.7189 6.9372,6.4153 8.5684,8.062 L21.0236,20.5328 Z M72.2834,64.8023 L66.3425,58.766 C60.2723,65.1002 51.9249,68.8865 42.348,68.8865 C23.7578,68.8865 9.2957,54.4244 9.2957,35.8675 C9.2957,26.3239 13.1153,17.9743 19.3519,11.9707 L13.2001,6.1585 C5.541,13.618 0.83594,24.1424 0.83594,35.8675 C0.83594,59.0449 19.1861,77.37959 42.348,77.37959 C54.1708,77.37959 64.7263,72.59238 72.2834,64.8023 Z M63.1997,50.7449 L56.9348,56.4439 L71.3076,70.8013 C72.9543,72.39912 75.6507,72.41465 77.2818,70.8013 C78.9285,69.1701 78.9285,66.4404 77.2818,64.8271 L63.1997,50.7449 Z M38.1182,74.7167 L38.1182,86.33701 L46.5779,86.33701 L46.5779,74.7167 L38.1182,74.7167 Z M27.8573,90.85576 L56.8388,90.85576 C59.1468,90.85576 61.0687,88.95166 61.0687,86.62588 C61.0687,84.31787 59.1468,82.396 56.8388,82.396 L27.8573,82.396 C25.5648,82.396 23.6274,84.31787 23.6274,86.62588 C23.6274,88.95166 25.5648,90.85576 27.8573,90.85576 Z M42.348,64.3807 C58.0928,64.3807 70.8612,51.6122 70.8612,35.8675 C70.8612,20.1228 58.0928,7.3543 42.348,7.3543 C26.6033,7.3543 13.8349,20.1228 13.8349,35.8675 C13.8349,51.6122 26.6033,64.3807 42.348,64.3807 Z M42.348,56.1585 C30.4867,56.1585 22.057,47.7288 22.057,35.8675 C22.057,24.0062 30.4867,15.5765 42.348,15.5765 C54.2094,15.5765 62.6391,24.0062 62.6391,35.8675 C62.6391,47.7288 54.2094,56.1585 42.348,56.1585 Z" id="Shape"></path>
                </g>
                <g id="Medium-S" transform="translate(1205.370000, 4.000000)">
                    <path d="M20.6328,19.3711 L26.1846,13.8193 L13.9766,1.6201 C12.4512,0.1035 9.9502,0.0947 8.4336,1.6201 C6.9082,3.1367 6.917,5.6377 8.4336,7.1631 L20.6328,19.3711 Z M71.2188,63.7754 L65.7158,58.1973 C59.6523,64.4102 51.3252,68.1426 41.8359,68.1426 C23.2188,68.1426 8.6758,53.5996 8.6758,35.0225 C8.6758,25.5732 12.4482,17.2236 18.5635,11.2402 L12.8564,5.8525 C5.4062,13.2109 0.83594,23.5332 0.83594,35.0225 C0.83594,57.9102 18.957,76.02246 41.8359,76.02246 C53.4229,76.02246 63.7627,71.36328 71.2188,63.7754 Z M62.5596,50.2031 L56.7461,55.4844 L70.8359,69.5654 C72.3613,71.04199 74.8623,71.05078 76.3789,69.5654 C77.9043,68.0488 77.9043,65.5078 76.3789,64.0225 L62.5596,50.2031 Z M37.916,73.70996 L37.916,84.7373 L45.7559,84.7373 L45.7559,73.70996 L37.916,73.70996 Z M27.4463,89.20215 L56.2256,89.20215 C58.3584,89.20215 60.1455,87.44629 60.1455,85.28223 C60.1455,83.14941 58.3584,81.3623 56.2256,81.3623 L27.4463,81.3623 C25.3223,81.3623 23.5264,83.14941 23.5264,85.28223 C23.5264,87.44629 25.3223,89.20215 27.4463,89.20215 Z M41.8359,63.3672 C57.4863,63.3672 70.1807,50.6729 70.1807,35.0225 C70.1807,19.3721 57.4863,6.6777 41.8359,6.6777 C26.1855,6.6777 13.4912,19.3721 13.4912,35.0225 C13.4912,50.6729 26.1855,63.3672 41.8359,63.3672 Z M41.8359,55.8525 C29.5703,55.8525 21.0059,47.2881 21.0059,35.0225 C21.0059,22.7568 29.5703,14.1924 41.8359,14.1924 C54.1016,14.1924 62.666,22.7568 62.666,35.0225 C62.666,47.2881 54.1016,55.8525 41.8359,55.8525 Z" id="Shape"></path>
                </g>
                <g id="Regular-S" transform="translate(909.310000, 5.000000)">
                    <path d="M20.123,18.1602 L25.1035,13.1797 L13.2383,1.3145 C11.8711,-0.0527 9.625,-0.0527 8.2578,1.3145 C6.8906,2.6816 6.8906,4.9277 8.2578,6.2949 L20.123,18.1602 Z M69.8301,62.7402 L64.8984,57.7598 C58.8438,63.8145 50.543,67.4766 41.168,67.4766 C22.5156,67.4766 7.8672,52.8281 7.8672,34.2246 C7.8672,24.8984 11.5781,16.5488 17.5352,10.5918 L12.4082,5.7578 C5.2305,12.9844 0.83594,23.043 0.83594,34.2246 C0.83594,56.7344 18.6582,74.55664 41.168,74.55664 C52.4473,74.55664 62.5059,70.06445 69.8301,62.7402 Z M61.7246,49.8008 L56.5,54.5371 L70.2207,68.2578 C71.5879,69.57617 73.834,69.57617 75.2012,68.2578 C76.5684,66.8906 76.5684,64.5957 75.2012,63.2773 L61.7246,49.8008 Z M37.6523,72.70117 L37.6523,82.95508 L44.6836,82.95508 L44.6836,72.70117 L37.6523,72.70117 Z M26.9102,87.34961 L55.4258,87.34961 C57.3301,87.34961 58.9414,85.78711 58.9414,83.83398 C58.9414,81.92969 57.3301,80.31836 55.4258,80.31836 L26.9102,80.31836 C25.0059,80.31836 23.3945,81.92969 23.3945,83.83398 C23.3945,85.78711 25.0059,87.34961 26.9102,87.34961 Z M41.168,62.3496 C56.6953,62.3496 69.293,49.752 69.293,34.2246 C69.293,18.6973 56.6953,6.0996 41.168,6.0996 C25.6406,6.0996 13.043,18.6973 13.043,34.2246 C13.043,49.752 25.6406,62.3496 41.168,62.3496 Z M41.168,55.7578 C28.375,55.7578 19.6348,47.0176 19.6348,34.2246 C19.6348,21.4316 28.375,12.6914 41.168,12.6914 C53.9609,12.6914 62.7012,21.4316 62.7012,34.2246 C62.7012,47.0176 53.9609,55.7578 41.168,55.7578 Z" id="Shape"></path>
                </g>
                <g id="Light-S" transform="translate(613.460000, 6.000000)">
                    <path d="M19.6538,16.9028 L23.499,13.0425 L11.4824,1.041 C10.4331,-0.0234 8.7168,-0.0234 7.6523,1.041 C6.603,2.1055 6.603,3.8369 7.6523,4.8862 L19.6538,16.9028 Z M68.3013,61.5889 L64.52,57.7739 C58.3594,63.9648 49.8618,67.7026 40.3052,67.7026 C21.2442,67.7026 6.2627,52.7212 6.2627,33.6938 C6.2627,24.1558 10.0493,15.6245 16.1426,9.5313 L12.2417,5.8325 C5.1699,12.9077 0.83594,22.7544 0.83594,33.6938 C0.83594,55.6436 18.3555,73.14795 40.3052,73.14795 C51.2969,73.14795 61.1436,68.76172 68.3013,61.5889 Z M60.6196,50.1782 L56.5908,53.8247 L69.8877,67.1216 C70.937,68.13721 72.6533,68.13721 73.7178,67.1216 C74.7671,66.0571 74.7671,64.292 73.7178,63.2612 L60.6196,50.1782 Z M37.5918,71.73145 L37.5918,81.86426 L43.0186,81.86426 L43.0186,71.73145 L37.5918,71.73145 Z M26.9858,85.38087 L53.7456,85.38087 C55.211,85.38087 56.4439,84.16651 56.4439,82.66748 C56.4439,81.18701 55.211,79.9541 53.7456,79.9541 L26.9858,79.9541 C25.5205,79.9541 24.2725,81.18701 24.2725,82.66748 C24.2725,84.16651 25.5205,85.38087 26.9858,85.38087 Z M40.3052,61.7734 C55.8174,61.7734 68.3848,49.2061 68.3848,33.6938 C68.3848,18.1816 55.8174,5.6143 40.3052,5.6143 C24.793,5.6143 12.2256,18.1816 12.2256,33.6938 C12.2256,49.2061 24.793,61.7734 40.3052,61.7734 Z M40.3052,56.6499 C26.9219,56.6499 17.3491,47.0771 17.3491,33.6938 C17.3491,20.3105 26.9219,10.7378 40.3052,10.7378 C53.6885,10.7378 63.2612,20.3105 63.2612,33.6938 C63.2612,47.0771 53.6885,56.6499 40.3052,56.6499 Z" id="Shape"></path>
                </g>
                <g id="Thin-S" transform="translate(317.880000, 7.000000)">
                    <path d="M19.0332,15.5625 L21.377,13.1836 L9.1602,1.0019 C8.5313,0.3379 7.5156,0.3379 6.8516,1.0019 C6.2227,1.666 6.2227,2.7168 6.8516,3.3457 L19.0332,15.5625 Z M66.2793,60.3887 L64.0195,58.1152 C57.7188,64.4863 48.9609,68.3242 39.1641,68.3242 C19.5625,68.3242 4.1407,52.9023 4.1407,33.3144 C4.1407,23.4961 8.0274,14.7246 14.3008,8.4512 L12.0215,6.2539 C5.0898,13.1289 0.83594,22.6953 0.83594,33.3144 C0.83594,54.5234 17.9551,71.60743 39.1641,71.60743 C49.7754,71.60743 59.3418,67.36133 66.2793,60.3887 Z M59.1582,51 L56.7109,53.2051 L69.4473,65.9414 C70.0762,66.5566 71.0918,66.5566 71.7559,65.9414 C72.3848,65.2773 72.3848,64.2129 71.7559,63.5625 L59.1582,51 Z M37.5117,70.77148 L37.5117,80.74414 L40.8164,80.74414 L40.8164,70.77148 L37.5117,70.77148 Z M27.0859,83.09963 L51.5235,83.09963 C52.4082,83.09963 53.1407,82.34571 53.1407,81.44727 C53.1407,80.52734 52.4082,79.79491 51.5235,79.79491 L27.0859,79.79491 C26.2012,79.79491 25.4336,80.52734 25.4336,81.44727 C25.4336,82.34571 26.2012,83.09963 27.0859,83.09963 Z M39.1641,61.334 C54.6563,61.334 67.1836,48.8066 67.1836,33.3144 C67.1836,17.8223 54.6563,5.2949 39.1641,5.2949 C23.6719,5.2949 11.1445,17.8223 11.1445,33.3144 C11.1445,48.8066 23.6719,61.334 39.1641,61.334 Z M39.1641,58.1523 C25,58.1523 14.3262,47.4785 14.3262,33.3144 C14.3262,19.1504 25,8.4766 39.1641,8.4766 C53.3281,8.4766 64.0019,19.1504 64.0019,33.3144 C64.0019,47.4785 53.3281,58.1523 39.1641,58.1523 Z" id="Shape"></path>
                </g>
                <g id="Ultralight-S" transform="translate(21.750000, 8.000000)">
                    <path d="M18.7153,14.3882 L20.2901,12.768 L7.9707,0.4941 C7.5572,0.0351 6.9004,0.0351 6.4414,0.4941 C6.0278,0.9531 6.0278,1.6553 6.4414,2.0689 L18.7153,14.3882 Z M65.2437,59.2861 L63.7632,57.8022 C57.3906,64.2656 48.4995,68.15476 38.5796,68.15476 C18.7012,68.15476 3.05375,52.5073 3.05375,32.6323 C3.05375,22.6704 6.9917,13.7759 13.3575,7.4102 L11.9087,5.9819 C5.0488,12.7544 0.83594,22.1772 0.83594,32.6323 C0.83594,53.4619 17.75,70.33058 38.5796,70.33058 C48.9961,70.33058 58.419,66.15626 65.2437,59.2861 Z M58.4097,50.9331 L56.7725,52.3999 L69.2217,64.8491 C69.6353,65.2593 70.292,65.2593 70.751,64.8491 C71.1646,64.3901 71.1646,63.6846 70.751,63.229 L58.4097,50.9331 Z M37.4707,69.79199 L37.4707,79.68262 L39.6885,79.68262 L39.6885,69.79199 L37.4707,69.79199 Z M27.1372,81.44338 L50.3853,81.44338 C50.9727,81.44338 51.4488,80.92531 51.4488,80.33448 C51.4488,79.70165 50.9727,79.22557 50.3853,79.22557 L27.1372,79.22557 C26.5498,79.22557 26.0283,79.70165 26.0283,80.33448 C26.0283,80.92531 26.5498,81.44338 27.1372,81.44338 Z M38.5796,60.6211 C54.0615,60.6211 66.5684,48.1142 66.5684,32.6323 C66.5684,17.1504 54.0615,4.6435 38.5796,4.6435 C23.0977,4.6435 10.5908,17.1504 10.5908,32.6323 C10.5908,48.1142 23.0977,60.6211 38.5796,60.6211 Z M38.5796,58.434 C24.0157,58.434 12.7779,47.1963 12.7779,32.6323 C12.7779,18.0684 24.0157,6.8306 38.5796,6.8306 C53.1436,6.8306 64.3813,18.0684 64.3813,32.6323 C64.3813,47.1963 53.1436,58.434 38.5796,58.434 Z" id="Shape"></path>
                </g>
            </g>
        </g>
    </g>
</svg>