<?xml version="1.0" encoding="UTF-8"?>
<!--Generator: Apple Native CoreSVG 175.5-->
<!DOCTYPE svg
PUBLIC "-//W3C//DTD SVG 1.1//EN"
       "http://www.w3.org/Graphics/SVG/1.1/DTD/svg11.dtd">
<svg version="1.1" xmlns="http://www.w3.org/2000/svg" xmlns:xlink="http://www.w3.org/1999/xlink" width="3300" height="2200">
 <!--glyph: "uni101553.medium", point size: 100.0, font version: "18.0d10e1", template writer version: "90"-->
 <g id="Notes">
  <rect height="2200" id="artboard" style="fill:white;opacity:1" width="3300" x="0" y="0"/>
  <line style="fill:none;stroke:black;opacity:1;stroke-width:0.5;" x1="263" x2="3036" y1="292" y2="292"/>
  <text style="stroke:none;fill:black;font-family:sans-serif;font-size:13;font-weight:bold;" transform="matrix(1 0 0 1 263 322)">Weight/Scale Variations</text>
  <text style="stroke:none;fill:black;font-family:sans-serif;font-size:13;text-anchor:middle;" transform="matrix(1 0 0 1 559.711 322)">Ultralight</text>
  <text style="stroke:none;fill:black;font-family:sans-serif;font-size:13;text-anchor:middle;" transform="matrix(1 0 0 1 856.422 322)">Thin</text>
  <text style="stroke:none;fill:black;font-family:sans-serif;font-size:13;text-anchor:middle;" transform="matrix(1 0 0 1 1153.13 322)">Light</text>
  <text style="stroke:none;fill:black;font-family:sans-serif;font-size:13;text-anchor:middle;" transform="matrix(1 0 0 1 1449.84 322)">Regular</text>
  <text style="stroke:none;fill:black;font-family:sans-serif;font-size:13;text-anchor:middle;" transform="matrix(1 0 0 1 1746.56 322)">Medium</text>
  <text style="stroke:none;fill:black;font-family:sans-serif;font-size:13;text-anchor:middle;" transform="matrix(1 0 0 1 2043.27 322)">Semibold</text>
  <text style="stroke:none;fill:black;font-family:sans-serif;font-size:13;text-anchor:middle;" transform="matrix(1 0 0 1 2339.98 322)">Bold</text>
  <text style="stroke:none;fill:black;font-family:sans-serif;font-size:13;text-anchor:middle;" transform="matrix(1 0 0 1 2636.69 322)">Heavy</text>
  <text style="stroke:none;fill:black;font-family:sans-serif;font-size:13;text-anchor:middle;" transform="matrix(1 0 0 1 2933.4 322)">Black</text>
  <line style="fill:none;stroke:black;opacity:1;stroke-width:0.5;" x1="263" x2="3036" y1="1903" y2="1903"/>
  <g transform="matrix(1 0 0 1 263 1933)">
   <path d="M9.24805 0.830078C13.5547 0.830078 17.1387-2.74414 17.1387-7.05078C17.1387-11.3574 13.5449-14.9316 9.23828-14.9316C4.94141-14.9316 1.36719-11.3574 1.36719-7.05078C1.36719-2.74414 4.95117 0.830078 9.24805 0.830078ZM9.24805-0.654297C5.70312-0.654297 2.87109-3.49609 2.87109-7.05078C2.87109-10.6055 5.69336-13.4473 9.23828-13.4473C12.793-13.4473 15.6445-10.6055 15.6445-7.05078C15.6445-3.49609 12.8027-0.654297 9.24805-0.654297ZM5.6543-7.05078C5.6543-6.62109 5.95703-6.32812 6.40625-6.32812L8.50586-6.32812L8.50586-4.20898C8.50586-3.76953 8.79883-3.4668 9.22852-3.4668C9.67773-3.4668 9.9707-3.76953 9.9707-4.20898L9.9707-6.32812L12.0898-6.32812C12.5293-6.32812 12.832-6.62109 12.832-7.05078C12.832-7.49023 12.5293-7.79297 12.0898-7.79297L9.9707-7.79297L9.9707-9.90234C9.9707-10.3516 9.67773-10.6543 9.22852-10.6543C8.79883-10.6543 8.50586-10.3516 8.50586-9.90234L8.50586-7.79297L6.40625-7.79297C5.95703-7.79297 5.6543-7.49023 5.6543-7.05078Z"/>
  </g>
  <g transform="matrix(1 0 0 1 281.867 1933)">
   <path d="M11.709 2.91016C17.1582 2.91016 21.6699-1.61133 21.6699-7.05078C21.6699-12.5 17.1484-17.0117 11.6992-17.0117C6.25977-17.0117 1.74805-12.5 1.74805-7.05078C1.74805-1.61133 6.26953 2.91016 11.709 2.91016ZM11.709 1.25C7.09961 1.25 3.41797-2.44141 3.41797-7.05078C3.41797-11.6602 7.08984-15.3516 11.6992-15.3516C16.3086-15.3516 20.0098-11.6602 20.0098-7.05078C20.0098-2.44141 16.3184 1.25 11.709 1.25ZM7.17773-7.05078C7.17773-6.57227 7.50977-6.25 8.00781-6.25L10.8789-6.25L10.8789-3.36914C10.8789-2.88086 11.2109-2.53906 11.6895-2.53906C12.1777-2.53906 12.5195-2.87109 12.5195-3.36914L12.5195-6.25L15.4004-6.25C15.8887-6.25 16.2305-6.57227 16.2305-7.05078C16.2305-7.53906 15.8887-7.88086 15.4004-7.88086L12.5195-7.88086L12.5195-10.752C12.5195-11.25 12.1777-11.5918 11.6895-11.5918C11.2109-11.5918 10.8789-11.25 10.8789-10.752L10.8789-7.88086L8.00781-7.88086C7.50977-7.88086 7.17773-7.53906 7.17773-7.05078Z"/>
  </g>
  <g transform="matrix(1 0 0 1 305.646 1933)">
   <path d="M14.9707 5.66406C21.9336 5.66406 27.6953-0.0976562 27.6953-7.05078C27.6953-14.0137 21.9238-19.7754 14.9609-19.7754C8.00781-19.7754 2.25586-14.0137 2.25586-7.05078C2.25586-0.0976562 8.01758 5.66406 14.9707 5.66406ZM14.9707 3.84766C8.93555 3.84766 4.08203-1.01562 4.08203-7.05078C4.08203-13.0957 8.92578-17.9492 14.9609-17.9492C21.0059-17.9492 25.8691-13.0957 25.8691-7.05078C25.8691-1.01562 21.0156 3.84766 14.9707 3.84766ZM9.19922-7.05078C9.19922-6.5332 9.57031-6.17188 10.1172-6.17188L14.0625-6.17188L14.0625-2.2168C14.0625-1.67969 14.4336-1.29883 14.9512-1.29883C15.4883-1.29883 15.8594-1.66992 15.8594-2.2168L15.8594-6.17188L19.8145-6.17188C20.3516-6.17188 20.7324-6.5332 20.7324-7.05078C20.7324-7.59766 20.3613-7.96875 19.8145-7.96875L15.8594-7.96875L15.8594-11.9141C15.8594-12.4609 15.4883-12.8418 14.9512-12.8418C14.4336-12.8418 14.0625-12.4609 14.0625-11.9141L14.0625-7.96875L10.1172-7.96875C9.57031-7.96875 9.19922-7.59766 9.19922-7.05078Z"/>
  </g>
  <text style="stroke:none;fill:black;font-family:sans-serif;font-size:13;font-weight:bold;" transform="matrix(1 0 0 1 263 1953)">Design Variations</text>
  <text style="stroke:none;fill:black;font-family:sans-serif;font-size:13;" transform="matrix(1 0 0 1 263 1971)">Symbols are supported in up to nine weights and three scales.</text>
  <text style="stroke:none;fill:black;font-family:sans-serif;font-size:13;" transform="matrix(1 0 0 1 263 1989)">For optimal layout with text and other symbols, vertically align</text>
  <text style="stroke:none;fill:black;font-family:sans-serif;font-size:13;" transform="matrix(1 0 0 1 263 2007)">symbols with the adjacent text.</text>
  <line style="fill:none;stroke:#00AEEF;stroke-width:0.5;opacity:1.0;" x1="776" x2="776" y1="1919" y2="1933"/>
  <g transform="matrix(1 0 0 1 776 1933)">
   <path d="M3.31055 0.15625C3.82812 0.15625 4.08203-0.0390625 4.26758-0.585938L5.52734-4.0332L11.2891-4.0332L12.5488-0.585938C12.7344-0.0390625 12.9883 0.15625 13.4961 0.15625C14.0137 0.15625 14.3457-0.15625 14.3457-0.644531C14.3457-0.810547 14.3164-0.966797 14.2383-1.17188L9.6582-13.3691C9.43359-13.9648 9.0332-14.2676 8.4082-14.2676C7.80273-14.2676 7.39258-13.9746 7.17773-13.3789L2.59766-1.16211C2.51953-0.957031 2.49023-0.800781 2.49023-0.634766C2.49023-0.146484 2.80273 0.15625 3.31055 0.15625ZM6.00586-5.51758L8.37891-12.0898L8.42773-12.0898L10.8008-5.51758Z"/>
  </g>
  <line style="fill:none;stroke:#00AEEF;stroke-width:0.5;opacity:1.0;" x1="793.197" x2="793.197" y1="1919" y2="1933"/>
  <text style="stroke:none;fill:black;font-family:sans-serif;font-size:13;font-weight:bold;" transform="matrix(1 0 0 1 776 1953)">Margins</text>
  <text style="stroke:none;fill:black;font-family:sans-serif;font-size:13;" transform="matrix(1 0 0 1 776 1971)">Leading and trailing margins on the left and right side of each symbol</text>
  <text style="stroke:none;fill:black;font-family:sans-serif;font-size:13;" transform="matrix(1 0 0 1 776 1989)">can be adjusted by modifying the x-location of the margin guidelines.</text>
  <text style="stroke:none;fill:black;font-family:sans-serif;font-size:13;" transform="matrix(1 0 0 1 776 2007)">Modifications are automatically applied proportionally to all</text>
  <text style="stroke:none;fill:black;font-family:sans-serif;font-size:13;" transform="matrix(1 0 0 1 776 2025)">scales and weights.</text>
  <g transform="matrix(1 0 0 1 1289 1933)">
   <path d="M2.8418 1.86523L4.54102 3.57422C5.40039 4.44336 6.38672 4.38477 7.31445 3.35938L18.0078-8.42773L17.041-9.4043L6.42578 2.27539C6.07422 2.67578 5.74219 2.77344 5.27344 2.30469L4.10156 1.14258C3.63281 0.683594 3.74023 0.341797 4.14062-0.0195312L15.6152-10.8203L14.6387-11.7871L3.04688-0.898438C2.06055 0.0195312 1.98242 0.996094 2.8418 1.86523ZM9.25781-16.3281C8.83789-15.918 8.80859-15.3418 9.04297-14.9512C9.27734-14.5898 9.73633-14.3555 10.3809-14.5215C11.8457-14.8633 13.3691-14.9219 14.7949-13.9844L14.209-12.5293C13.8672-11.6992 14.043-11.1133 14.5801-10.5664L16.875-8.25195C17.3633-7.76367 17.7734-7.74414 18.3398-7.8418L19.4043-8.03711L20.0684-7.36328L20.0293-6.80664C19.9902-6.30859 20.1172-5.92773 20.6055-5.44922L21.3672-4.70703C21.8457-4.22852 22.4609-4.19922 22.9297-4.66797L25.8398-7.58789C26.3086-8.05664 26.2891-8.65234 25.8105-9.13086L25.0391-9.89258C24.5605-10.3711 24.1895-10.5273 23.7109-10.4883L23.1348-10.4395L22.4902-11.0742L22.7344-12.1973C22.8613-12.7637 22.7051-13.2031 22.1191-13.7891L19.9219-15.9766C16.582-19.2969 12.1484-19.2188 9.25781-16.3281ZM10.752-15.957C13.1836-17.7344 16.4746-17.4316 18.7012-15.2051L21.1328-12.793C21.3672-12.5586 21.4062-12.373 21.3379-12.0312L21.0156-10.5469L22.5195-9.0625L23.5059-9.12109C23.7598-9.13086 23.8379-9.11133 24.0332-8.91602L24.6094-8.33984L22.168-5.89844L21.5918-6.47461C21.3965-6.66992 21.3672-6.74805 21.377-7.01172L21.4453-7.98828L19.9512-9.47266L18.4277-9.21875C18.1055-9.15039 17.959-9.17969 17.7148-9.41406L15.7129-11.416C15.459-11.6504 15.4297-11.8164 15.5859-12.1875L16.4648-14.2773C14.9023-15.7324 12.8711-16.3574 10.8398-15.7617C10.6836-15.7227 10.625-15.8496 10.752-15.957Z"/>
  </g>
  <text style="stroke:none;fill:black;font-family:sans-serif;font-size:13;font-weight:bold;" transform="matrix(1 0 0 1 1289 1953)">Exporting</text>
  <text style="stroke:none;fill:black;font-family:sans-serif;font-size:13;" transform="matrix(1 0 0 1 1289 1971)">Symbols should be outlined when exporting to ensure the</text>
  <text style="stroke:none;fill:black;font-family:sans-serif;font-size:13;" transform="matrix(1 0 0 1 1289 1989)">design is preserved when submitting to Xcode.</text>
  <text id="template-version" style="stroke:none;fill:black;font-family:sans-serif;font-size:13;text-anchor:end;" transform="matrix(1 0 0 1 3036 1933)">Template v.4.0</text>
  <text style="stroke:none;fill:black;font-family:sans-serif;font-size:13;text-anchor:end;" transform="matrix(1 0 0 1 3036 1951)">Requires Xcode 14 or greater</text>
  <text id="descriptive-name" style="stroke:none;fill:black;font-family:sans-serif;font-size:13;text-anchor:end;" transform="matrix(1 0 0 1 3036 1969)">Generated from globe.desk.fill</text>
  <text style="stroke:none;fill:black;font-family:sans-serif;font-size:13;text-anchor:end;" transform="matrix(1 0 0 1 3036 1987)">Typeset at 100 points</text>
  <text style="stroke:none;fill:black;font-family:sans-serif;font-size:13;" transform="matrix(1 0 0 1 263 726)">Small</text>
  <text style="stroke:none;fill:black;font-family:sans-serif;font-size:13;" transform="matrix(1 0 0 1 263 1156)">Medium</text>
  <text style="stroke:none;fill:black;font-family:sans-serif;font-size:13;" transform="matrix(1 0 0 1 263 1586)">Large</text>
 </g>
 <g id="Guides">
  <g id="H-reference" style="fill:#27AAE1;stroke:none;" transform="matrix(1 0 0 1 339 696)">
   <path d="M0.993654 0L3.63775 0L29.3281-67.1323L30.0303-67.1323L30.0303-70.459L28.1226-70.459ZM11.6885-24.4799L46.9815-24.4799L46.2315-26.7285L12.4385-26.7285ZM55.1196 0L57.7637 0L30.6382-70.459L29.4326-70.459L29.4326-67.1323Z"/>
  </g>
  <line id="Baseline-S" style="fill:none;stroke:#27AAE1;opacity:1;stroke-width:0.5;" x1="263" x2="3036" y1="696" y2="696"/>
  <line id="Capline-S" style="fill:none;stroke:#27AAE1;opacity:1;stroke-width:0.5;" x1="263" x2="3036" y1="625.541" y2="625.541"/>
  <g id="H-reference" style="fill:#27AAE1;stroke:none;" transform="matrix(1 0 0 1 339 1126)">
   <path d="M0.993654 0L3.63775 0L29.3281-67.1323L30.0303-67.1323L30.0303-70.459L28.1226-70.459ZM11.6885-24.4799L46.9815-24.4799L46.2315-26.7285L12.4385-26.7285ZM55.1196 0L57.7637 0L30.6382-70.459L29.4326-70.459L29.4326-67.1323Z"/>
  </g>
  <line id="Baseline-M" style="fill:none;stroke:#27AAE1;opacity:1;stroke-width:0.5;" x1="263" x2="3036" y1="1126" y2="1126"/>
  <line id="Capline-M" style="fill:none;stroke:#27AAE1;opacity:1;stroke-width:0.5;" x1="263" x2="3036" y1="1055.54" y2="1055.54"/>
  <g id="H-reference" style="fill:#27AAE1;stroke:none;" transform="matrix(1 0 0 1 339 1556)">
   <path d="M0.993654 0L3.63775 0L29.3281-67.1323L30.0303-67.1323L30.0303-70.459L28.1226-70.459ZM11.6885-24.4799L46.9815-24.4799L46.2315-26.7285L12.4385-26.7285ZM55.1196 0L57.7637 0L30.6382-70.459L29.4326-70.459L29.4326-67.1323Z"/>
  </g>
  <line id="Baseline-L" style="fill:none;stroke:#27AAE1;opacity:1;stroke-width:0.5;" x1="263" x2="3036" y1="1556" y2="1556"/>
  <line id="Capline-L" style="fill:none;stroke:#27AAE1;opacity:1;stroke-width:0.5;" x1="263" x2="3036" y1="1485.54" y2="1485.54"/>
  <line id="left-margin-Regular-M" style="fill:none;stroke:#00AEEF;stroke-width:0.5;opacity:1.0;" x1="1393.62" x2="1393.62" y1="1030.79" y2="1150.12"/>
  <line id="right-margin-Regular-M" style="fill:none;stroke:#00AEEF;stroke-width:0.5;opacity:1.0;" x1="1506.07" x2="1506.07" y1="1030.79" y2="1150.12"/>
 </g>
 <g id="Symbols">
  <g id="Black-L" transform="matrix(1 0 0 1 2855.8 1556)">
   <path d="M46.3752-76.0283L58.2847-87.939L36.4528-109.711C33.1749-112.932 27.8236-112.99 24.6029-109.711C21.3249-106.491 21.3833-101.138 24.6029-97.8602ZM134-3.76469L122.172-15.847C112.133-4.81289 98.2706 1.69184 82.0564 1.69184C51.5373 1.69184 28.0858-21.7596 28.0858-52.2579C28.0858-68.4525 34.6126-82.2187 45.4859-92.2159L33.2839-103.767C19.6599-91.0011 11.2588-72.6991 11.2588-52.2579C11.2588-12.717 42.574 18.5385 82.0564 18.5385C102.655 18.5385 121.074 10.0385 134-3.76469ZM117.004-29.1604L104.58-17.8246L129.598 7.13456C132.876 10.3333 138.227 10.3917 141.448 7.13456C144.726 3.91382 144.726-1.45943 141.448-4.71776ZM73.6428 12.4801L73.6428 34.4985L90.4699 34.4985L90.4699 12.4801ZM57.7718 42.1342L106.35 42.1342C110.971 42.1342 114.763 38.3033 114.763 33.7206C114.763 29.0992 110.971 25.3071 106.35 25.3071L57.7718 25.3071C53.21 25.3071 49.3583 29.0992 49.3583 33.7206C49.3583 38.3033 53.21 42.1342 57.7718 42.1342ZM82.0564-4.4794C108.446-4.4794 129.835-25.8678 129.835-52.2579C129.835-78.6479 108.446-100.036 82.0564-100.036C55.6663-100.036 34.2779-78.6479 34.2779-52.2579C34.2779-25.8678 55.6663-4.4794 82.0564-4.4794Z"/>
  </g>
  <g id="Heavy-L" transform="matrix(1 0 0 1 2560.36 1556)">
   <path d="M45.4388-76.4342L56.1211-87.1222L34.7826-108.41C31.8456-111.308 27.0486-111.353 24.1506-108.41C21.2135-105.512 21.2581-100.71 24.1506-97.7727ZM131.376-3.86399L120.779-14.669C110.723-3.84317 96.8451 2.57337 80.757 2.57337C50.0636 2.57337 26.3496-21.1406 26.3496-51.8039C26.3496-67.8674 32.8019-81.6866 43.4669-91.6822L32.5323-102.034C19.3666-89.5187 11.2588-71.6921 11.2588-51.8039C11.2588-13.0192 42.017 17.6887 80.757 17.6887C100.789 17.6887 118.705 9.48155 131.376-3.86399ZM115.372-27.8212L104.221-17.658L128.536 6.61237C131.473 9.47466 136.27 9.51928 139.168 6.61237C142.105 3.71429 142.105-1.11843 139.168-4.03095ZM73.2116 12.4752L73.2116 33.2452L88.3024 33.2452L88.3024 12.4752ZM56.9531 40.5145L104.606 40.5145C108.74 40.5145 112.146 37.0884 112.146 32.9691C112.146 28.8297 108.74 25.4237 104.606 25.4237L56.9531 25.4237C52.8639 25.4237 49.4077 28.8297 49.4077 32.9691C49.4077 37.0884 52.8639 40.5145 56.9531 40.5145ZM80.757-4.3833C106.95-4.3833 128.178-25.6113 128.178-51.8039C128.178-77.9965 106.95-99.2245 80.757-99.2245C54.5644-99.2245 33.3364-77.9965 33.3364-51.8039C33.3364-25.6113 54.5644-4.3833 80.757-4.3833Z"/>
  </g>
  <g id="Bold-L" transform="matrix(1 0 0 1 2265.22 1556)">
   <path d="M44.3083-76.9338L53.4171-86.0558L32.6038-106.827C30.1042-109.31 26.0211-109.339 23.5375-106.827C21.0379-104.343 21.0671-100.247 23.5375-97.747ZM128.17-4.00184L119.155-13.1718C109.061-2.55497 95.13 3.7763 79.151 3.7763C48.1902 3.7763 24.1236-20.2903 24.1236-51.2131C24.1236-67.1674 30.5061-81.078 40.962-91.0959L31.6621-99.905C19.0277-87.6971 11.2588-70.4397 11.2588-51.2131C11.2588-13.3733 41.3404 16.6658 79.151 16.6658C98.4987 16.6658 115.815 8.80494 128.17-4.00184ZM113.351-26.0795L103.835-17.4207L127.289 6.00414C129.788 8.43654 133.871 8.46574 136.355 6.00414C138.855 3.52053 138.855-0.613841 136.355-3.08867ZM72.7186 12.475L72.7186 31.8272L85.5834 31.8272L85.5834 12.475ZM56.0506 38.5313L102.357 38.5313C105.869 38.5313 108.776 35.6197 108.776 32.0989C108.776 28.5737 105.869 25.6665 102.357 25.6665L56.0506 25.6665C52.5678 25.6665 49.6182 28.5737 49.6182 32.0989C49.6182 35.6197 52.5678 38.5313 56.0506 38.5313ZM79.151-4.20086C105.12-4.20086 126.163-25.244 126.163-51.2131C126.163-77.1823 105.12-98.2254 79.151-98.2254C53.1818-98.2254 32.1387-77.1823 32.1387-51.2131C32.1387-25.244 53.1818-4.20086 79.151-4.20086Z"/>
  </g>
  <g id="Semibold-L" transform="matrix(1 0 0 1 1969.59 1556)">
   <path d="M43.529-77.2782L51.553-85.3206L31.1018-105.735C28.9038-107.933 25.3127-107.951 23.1148-105.735C20.9169-103.537 20.9354-99.9273 23.1148-97.7294ZM125.96-4.09687L118.035-12.1396C107.915-1.6669 93.9476 4.60559 78.0438 4.60559C46.8987 4.60559 22.589-19.7041 22.589-50.8058C22.589-66.6848 28.9233-80.6584 39.2352-90.6917L31.0623-98.4373C18.7941-86.4413 11.2588-69.5764 11.2588-50.8058C11.2588-13.6174 40.8739 15.9607 78.0438 15.9607C96.9197 15.9607 113.822 8.3385 125.96-4.09687ZM111.958-24.8788L103.568-17.2572L126.429 5.58483C128.627 7.72086 132.218 7.73943 134.416 5.58483C136.614 3.38696 136.614-0.265984 134.416-2.43907ZM72.3787 12.4748L72.3787 30.8496L83.7089 30.8496L83.7089 12.4748ZM55.4284 37.1641L100.807 37.1641C103.89 37.1641 106.454 34.6071 106.454 31.499C106.454 28.3972 103.89 25.8339 100.807 25.8339L55.4284 25.8339C52.3637 25.8339 49.7633 28.3972 49.7633 31.499C49.7633 34.6071 52.3637 37.1641 55.4284 37.1641ZM78.0438-4.07509C103.859-4.07509 124.775-24.9908 124.775-50.8058C124.775-76.6209 103.859-97.5366 78.0438-97.5366C52.2287-97.5366 31.313-76.6209 31.313-50.8058C31.313-24.9908 52.2287-4.07509 78.0438-4.07509Z"/>
  </g>
  <g id="Medium-L" transform="matrix(1 0 0 1 1673.7 1556)">
   <path d="M42.9381-77.5393L50.1395-84.7632L29.9628-104.907C27.9936-106.888 24.7756-106.899 22.7944-104.907C20.8251-102.926 20.8356-99.6853 22.7944-97.716ZM124.284-4.16893L117.186-11.357C107.046-0.993523 93.0511 5.23439 77.2042 5.23439C45.9194 5.23439 21.4254-19.2596 21.4254-50.497C21.4254-66.3189 27.7232-80.3403 37.9258-90.3852L30.6074-97.3244C18.617-85.4892 11.2588-68.9217 11.2588-50.497C11.2588-13.8025 40.5202 15.426 77.2042 15.426C95.7224 15.426 112.311 7.98482 124.284-4.16893ZM110.901-23.9684L103.367-17.1332L125.777 5.26689C127.747 7.1782 130.964 7.18872 132.946 5.26689C134.915 3.28567 134.915-0.00222372 132.946-1.94651ZM72.121 12.4748L72.121 30.1084L82.2875 30.1084L82.2875 12.4748ZM54.9566 36.1274L99.6316 36.1274C102.39 36.1274 104.692 33.8394 104.692 31.0441C104.692 28.2634 102.39 25.9608 99.6316 25.9608L54.9566 25.9608C52.2089 25.9608 49.8734 28.2634 49.8734 31.0441C49.8734 33.8394 52.2089 36.1274 54.9566 36.1274ZM77.2042-3.97972C102.903-3.97972 123.722-24.7988 123.722-50.497C123.722-76.1953 102.903-97.0143 77.2042-97.0143C51.506-97.0143 30.6869-76.1953 30.6869-50.497C30.6869-24.7988 51.506-3.97972 77.2042-3.97972Z"/>
  </g>
  <g id="Regular-L" transform="matrix(1 0 0 1 1378.06 1556)">
   <path d="M42.1673-77.8799L48.2959-84.0361L28.4773-103.827C26.8063-105.526 24.075-105.526 22.3764-103.827C20.7054-102.128 20.7054-99.3695 22.3764-97.6985ZM122.099-4.26292L116.078-10.3362C105.913-0.115207 91.8817 6.05457 76.1092 6.05457C44.6421 6.05457 19.9077-18.6799 19.9077-50.0942C19.9077-65.8416 26.1578-79.9253 36.218-89.9855L30.0141-95.8728C18.386-84.2472 11.2588-68.0679 11.2588-50.0942C11.2588-14.0439 40.0589 14.7285 76.1092 14.7285C94.1607 14.7285 110.34 7.5235 122.099-4.26292ZM109.523-22.7809L103.103-16.9714L124.927 4.85219C126.598 6.47039 129.329 6.47039 131.028 4.85219C132.699 3.15356 132.699 0.341811 131.028-1.30405ZM71.7848 12.4746L71.7848 29.1416L80.4336 29.1416L80.4336 12.4746ZM54.3413 34.7753L98.0984 34.7753C100.433 34.7753 102.395 32.8379 102.395 30.4508C102.395 28.0888 100.433 26.1264 98.0984 26.1264L54.3413 26.1264C52.007 26.1264 50.0169 28.0888 50.0169 30.4508C50.0169 32.8379 52.007 34.7753 54.3413 34.7753ZM76.1092-3.85533C101.655-3.85533 122.348-24.5484 122.348-50.0942C122.348-75.6401 101.655-96.3331 76.1092-96.3331C50.5633-96.3331 29.8703-75.6401 29.8703-50.0942C29.8703-24.5484 50.5633-3.85533 76.1092-3.85533Z"/>
  </g>
  <g id="Light-L" transform="matrix(1 0 0 1 1082.43 1556)">
   <path d="M41.5757-78.2044L46.2728-82.9483L26.2634-102.911C24.9932-104.228 22.9299-104.228 21.6129-102.911C20.3428-101.594 20.3428-99.484 21.6129-98.2138ZM120.171-4.45377L115.601-9.05747C105.302 1.33527 91.0229 7.60048 75.0214 7.60048C43.0389 7.60048 17.8846-17.5538 17.8846-49.5026C17.8846-65.5172 24.2302-79.8299 34.4621-90.0618L29.8041-94.5177C18.3096-83.083 11.2588-67.1709 11.2588-49.5026C11.2588-14.1585 39.6772 14.2132 75.0214 14.2132C92.7103 14.2132 108.622 7.1418 120.171-4.45377ZM108.13-21.0441L103.218-16.6088L124.507 4.68042C125.777 5.91692 127.841 5.91692 129.158 4.68042C130.428 3.3635 130.428 1.21973 129.158-0.0635069ZM71.7084 12.5128L71.7084 29.027L78.3343 29.027L78.3343 12.5128ZM54.4367 33.5538L95.9799 33.5538C97.7608 33.5538 99.2461 32.0554 99.2461 30.2409C99.2461 28.4133 97.7608 26.928 95.9799 26.928L54.4367 26.928C52.6559 26.928 51.1238 28.4133 51.1238 30.2409C51.1238 32.0554 52.6559 33.5538 54.4367 33.5538ZM75.0214-3.32094C100.548-3.32094 121.203-23.9758 121.203-49.5026C121.203-75.0294 100.548-95.6842 75.0214-95.6842C49.4946-95.6842 28.8397-75.0294 28.8397-49.5026C28.8397-23.9758 49.4946-3.32094 75.0214-3.32094Z"/>
  </g>
  <g id="Thin-L" transform="matrix(1 0 0 1 787.146 1556)">
   <path d="M40.7932-78.6335L43.5972-81.5095L23.3353-101.699C22.5952-102.511 21.4153-102.511 20.6033-101.699C19.8632-100.887 19.8632-99.6354 20.6033-98.8953ZM117.622-4.70619L114.97-7.36627C104.494 3.25365 89.887 9.64506 73.5826 9.64506C40.9186 9.64506 15.209-16.0646 15.209-48.7201C15.209-65.0881 21.6808-79.7037 32.1399-90.1628L29.5265-92.7256C18.2086-81.5432 11.2588-65.9845 11.2588-48.7201C11.2588-14.3099 39.1724 13.5317 73.5826 13.5317C90.7919 13.5317 106.351 6.63696 117.622-4.70619ZM106.288-18.7471L103.369-16.1292L123.952 4.45324C124.692 5.18491 125.872 5.18491 126.684 4.45324C127.424 3.64116 127.424 2.38086 126.684 1.57721ZM71.6075 12.5633L71.6075 28.8756L75.5577 28.8756L75.5577 12.5633ZM54.5629 31.9383L93.1781 31.9383C94.2269 31.9383 95.0812 31.0205 95.0812 29.9632C95.0812 28.8424 94.2269 27.9881 93.1781 27.9881L54.5629 27.9881C53.5141 27.9881 52.5879 28.8424 52.5879 29.9632C52.5879 31.0205 53.5141 31.9383 54.5629 31.9383ZM73.5826-2.61417C99.0841-2.61417 119.688-23.2185 119.688-48.7201C119.688-74.2216 99.0841-94.826 73.5826-94.826C48.081-94.826 27.4766-74.2216 27.4766-48.7201C27.4766-23.2185 48.081-2.61417 73.5826-2.61417Z"/>
  </g>
  <g id="Ultralight-L" transform="matrix(1 0 0 1 491.166 1556)">
   <path d="M40.3924-78.8533L42.2268-80.7726L21.8356-101.079C21.367-101.632 20.6396-101.632 20.0861-101.079C19.6175-100.525 19.6175-99.713 20.0861-99.2444ZM116.316-4.83548L114.647-6.50005C104.08 4.23624 89.3052 10.6923 72.8456 10.6923C39.8326 10.6923 13.8385-15.3018 13.8385-48.3193C13.8385-64.8683 20.375-79.639 30.9505-90.2145L29.3843-91.8076C18.1569-80.7546 11.2588-65.3769 11.2588-48.3193C11.2588-14.3875 38.9138 13.1826 72.8456 13.1826C89.8093 13.1826 105.187 6.37839 116.316-4.83548ZM105.344-17.5706L103.447-15.8836L123.667 4.33689C124.136 4.80997 124.863 4.80997 125.417 4.33689C125.886 3.78338 125.886 2.97558 125.417 2.41758ZM71.5558 12.5891L71.5558 28.798L74.1355 28.798L74.1355 12.5891ZM54.6276 31.1109L91.743 31.1109C92.4169 31.1109 92.9479 30.4904 92.9479 29.821C92.9479 29.0622 92.4169 28.5311 91.743 28.5311L54.6276 28.5311C53.9537 28.5311 53.3377 29.0622 53.3377 29.821C53.3377 30.4904 53.9537 31.1109 54.6276 31.1109ZM72.8456-2.25216C98.3343-2.25216 118.913-22.8307 118.913-48.3193C118.913-73.8079 98.3343-94.3864 72.8456-94.3864C47.357-94.3864 26.7785-73.8079 26.7785-48.3193C26.7785-22.8307 47.357-2.25216 72.8456-2.25216Z"/>
  </g>
  <g id="Black-M" transform="matrix(1 0 0 1 2872.34 1126)">
   <path d="M36.6534-66.5332L46.7409-76.6205L29.377-93.9276C26.5988-96.6484 22.067-96.7055 19.3462-93.9276C16.568-91.2068 16.6251-86.6754 19.3462-83.8971ZM105.809-10.7929L95.7834-21.0523C88.0025-12.3014 77.2431-7.17316 64.5418-7.17316C40.9774-7.17316 22.9774-25.1732 22.9774-48.732C22.9774-61.4276 28.1108-72.0783 36.7372-79.8482L26.4039-89.6347C15.4731-79.5543 8.72266-65.0027 8.72266-48.732C8.72266-17.544 33.4108 7.08736 64.5418 7.08736C80.9379 7.08736 95.6037 0.268519 105.809-10.7929ZM91.8614-31.4432L81.347-21.8393L101.261-1.98277C104.039 0.732851 108.571 0.789947 111.291-1.98277C114.07-4.7036 114.07-9.24053 111.291-12.013ZM57.4144 1.74257L57.4144 19.8533L71.6692 19.8533L71.6692 1.74257ZM45.4748 25.9339L83.6065 25.9339C87.5291 25.9339 90.7341 22.6775 90.7341 18.8065C90.7341 14.8842 87.5291 11.6792 83.6065 11.6792L45.4748 11.6792C41.6093 11.6792 38.3474 14.8842 38.3474 18.8065C38.3474 22.6775 41.6093 25.9339 45.4748 25.9339ZM64.5418-11.4163C85.1543-11.4163 101.858-28.1195 101.858-48.732C101.858-69.3446 85.1543-86.0478 64.5418-86.0478C43.9293-86.0478 27.226-69.3446 27.226-48.732C27.226-28.1195 43.9293-11.4163 64.5418-11.4163Z"/>
  </g>
  <g id="Heavy-M" transform="matrix(1 0 0 1 2576.77 1126)">
   <path d="M35.7926-66.9L44.8125-75.9223L27.9485-92.7404C25.4665-95.181 21.4151-95.2246 18.9744-92.7404C16.4925-90.2998 16.5361-86.246 18.9744-83.7641ZM103.422-10.8724L94.4664-20.0186C86.6811-11.4872 75.9288-6.45401 63.372-6.45401C39.6847-6.45401 21.4667-24.672 21.4667-48.3429C21.4667-60.8856 26.5186-71.567 34.9254-79.3195L25.6886-88.0653C15.1934-78.2126 8.72266-64.101 8.72266-48.3429C8.72266-17.8288 32.9015 6.30417 63.372 6.30417C79.2479 6.30417 93.4467-0.240759 103.422-10.8724ZM90.3947-30.2942L80.985-21.7098L100.261-2.4774C102.743-0.0554591 106.795-0.0118375 109.235-2.4774C111.717-4.91802 111.717-8.98816 109.235-11.456ZM56.9999 1.7342L56.9999 18.6387L69.744 18.6387L69.744 1.7342ZM44.6656 24.4632L82.0965 24.4632C85.5946 24.4632 88.4662 21.5621 88.4662 18.0912C88.4662 14.5908 85.5946 11.7192 82.0965 11.7192L44.6656 11.7192C41.2112 11.7192 38.2936 14.5908 38.2936 18.0912C38.2936 21.5621 41.2112 24.4632 44.6656 24.4632ZM63.372-11.3716C83.7933-11.3716 100.343-27.9215 100.343-48.3429C100.343-68.7642 83.7933-85.3141 63.372-85.3141C42.9506-85.3141 26.4007-68.7642 26.4007-48.3429C26.4007-27.9215 42.9506-11.3716 63.372-11.3716Z"/>
  </g>
  <g id="Bold-M" transform="matrix(1 0 0 1 2281.33 1126)">
   <path d="M34.8296-67.3104L42.6553-75.1412L26.3506-91.4123C24.2-93.5395 20.6857-93.568 18.5586-91.4123C16.408-89.2851 16.4365-85.7658 18.5586-83.6152ZM100.751-10.9613L92.993-18.8623C85.2028-10.5765 74.4586-5.64954 62.0634-5.64954C38.2385-5.64954 19.7768-24.1113 19.7768-47.9075C19.7768-60.2793 24.7374-70.995 32.8987-78.728L24.8884-86.3096C14.8805-76.7117 8.72266-63.0923 8.72266-47.9075C8.72266-18.1474 32.3318 5.42805 62.0634 5.42805C77.3574 5.42805 91.0338-0.81046 100.751-10.9613ZM88.7539-29.0089L80.5802-21.5651L99.143-3.03071C101.294-0.937297 104.808-0.908749 106.935-3.03071C109.086-5.15788 109.086-8.70586 106.935-10.833ZM56.5363 1.72485L56.5363 17.28L67.5904 17.28L67.5904 1.72485ZM43.7605 22.818L80.4073 22.818C83.4306 22.818 85.9292 20.3143 85.9292 17.291C85.9292 14.2626 83.4306 11.7639 80.4073 11.7639L43.7605 11.7639C40.7658 11.7639 38.2334 14.2626 38.2334 17.291C38.2334 20.3143 40.7658 22.818 43.7605 22.818ZM62.0634-11.3217C82.2708-11.3217 98.6492-27.7001 98.6492-47.9075C98.6492-68.1149 82.2708-84.4933 62.0634-84.4933C41.8559-84.4933 25.4775-68.1149 25.4775-47.9075C25.4775-27.7001 41.8559-11.3217 62.0634-11.3217Z"/>
  </g>
  <g id="Semibold-M" transform="matrix(1 0 0 1 1985.5 1126)">
   <path d="M34.1658-67.5933L41.1681-74.6028L25.2489-90.4967C23.3268-92.4078 20.1829-92.4259 18.2719-90.4967C16.3497-88.5856 16.3679-85.4347 18.2719-83.5125ZM98.9102-11.0226L91.9773-18.0651C84.1837-9.94858 73.445-5.09495 61.1612-5.09495C37.2416-5.09495 18.6117-23.7248 18.6117-47.6074C18.6117-59.8613 23.5095-70.6006 31.5015-78.3202L24.3367-85.0993C14.6648-75.6769 8.72266-62.3969 8.72266-47.6074C8.72266-18.3671 31.9391 4.82406 61.1612 4.82406C76.0541 4.82406 89.3704-1.20321 98.9102-11.0226ZM87.6228-28.1229L80.301-21.4652L98.3723-3.41216C100.294-1.54523 103.438-1.52707 105.349-3.41216C107.271-5.32324 107.271-8.51124 105.349-10.4034ZM56.2167 1.7184L56.2167 16.3433L66.1057 16.3433L66.1057 1.7184ZM43.1364 21.6839L79.2428 21.6839C81.9387 21.6839 84.1802 19.4541 84.1802 16.7393C84.1802 14.0363 81.9387 11.7948 79.2428 11.7948L43.1364 11.7948C40.4587 11.7948 38.1919 14.0363 38.1919 16.7393C38.1919 19.4541 40.4587 21.6839 43.1364 21.6839ZM61.1612-11.2873C81.2212-11.2873 97.4813-27.5474 97.4813-47.6074C97.4813-67.6674 81.2212-83.9275 61.1612-83.9275C41.1012-83.9275 24.8411-67.6674 24.8411-47.6074C24.8411-27.5474 41.1012-11.2873 61.1612-11.2873Z"/>
  </g>
  <g id="Medium-M" transform="matrix(1 0 0 1 1689.46 1126)">
   <path d="M33.6625-67.8079L40.0405-74.1945L24.4136-89.8025C22.6647-91.5497 19.8017-91.56 18.0545-89.8025C16.3056-88.0553 16.3159-85.1836 18.0545-83.4347ZM97.5143-11.069L91.2072-17.4607C83.4109-9.47251 72.6765-4.67443 60.4772-4.67443C36.4856-4.67443 17.7284-23.4317 17.7284-47.3798C17.7284-59.5443 22.5785-70.3016 30.442-78.011L23.9184-84.1816C14.5012-74.8923 8.72266-61.8697 8.72266-47.3798C8.72266-18.5337 31.6413 4.36609 60.4772 4.36609C75.0658 4.36609 88.1091-1.50101 97.5143-11.069ZM86.7651-27.451L80.0894-21.3896L97.7878-3.70139C99.5367-2.00619 102.4-1.99591 104.147-3.70139C105.896-5.44862 105.896-8.36367 104.147-10.0778ZM55.9743 1.71351L55.9743 15.6331L64.98 15.6331L64.98 1.71351ZM42.6633 20.8239L78.3598 20.8239C80.8075 20.8239 82.8541 18.8019 82.8541 16.321C82.8541 13.8648 80.8075 11.8182 78.3598 11.8182L42.6633 11.8182C40.2259 11.8182 38.1604 13.8648 38.1604 16.321C38.1604 18.8019 40.2259 20.8239 42.6633 20.8239ZM60.4772-11.2612C80.4253-11.2612 96.5958-27.4316 96.5958-47.3798C96.5958-67.328 80.4253-83.4984 60.4772-83.4984C40.529-83.4984 24.3585-67.328 24.3585-47.3798C24.3585-27.4316 40.529-11.2612 60.4772-11.2612Z"/>
  </g>
  <g id="Regular-M" transform="matrix(1 0 0 1 1393.62 1126)">
   <path d="M33.0059-68.0877L38.5697-73.662L23.3241-88.897C21.8012-90.4305 19.3044-90.4305 17.7709-88.897C16.248-87.3635 16.248-84.8562 17.7709-83.3332ZM95.6935-11.1296L90.2026-16.6723C82.403-8.85154 71.674-4.12593 59.5849-4.12593C35.4997-4.12593 16.5761-23.0495 16.5761-47.083C16.5761-59.1309 21.364-69.9116 29.0602-77.6077L23.3728-82.9846C14.2879-73.869 8.72266-61.1819 8.72266-47.083C8.72266-18.7509 31.2528 3.76874 59.5849 3.76874C73.7768 3.76874 86.4639-1.88944 95.6935-11.1296ZM85.6464-26.5747L79.8133-21.2908L97.0255-4.07865C98.5485-2.60744 101.045-2.60744 102.579-4.07865C104.102-5.61216 104.102-8.1712 102.579-9.65295ZM55.6582 1.70714L55.6582 14.7067L63.5117 14.7067L63.5117 1.70714ZM42.0461 19.7022L77.2081 19.7022C79.332 19.7022 81.1243 17.9511 81.1243 15.7754C81.1243 13.641 79.332 11.8487 77.2081 11.8487L42.0461 11.8487C39.9222 11.8487 38.1194 13.641 38.1194 15.7754C38.1194 17.9511 39.9222 19.7022 42.0461 19.7022ZM59.5849-11.2271C79.3873-11.2271 95.4408-27.2806 95.4408-47.083C95.4408-66.8853 79.3873-82.9388 59.5849-82.9388C39.7826-82.9388 23.7291-66.8853 23.7291-47.083C23.7291-27.2806 39.7826-11.2271 59.5849-11.2271Z"/>
  </g>
  <g id="Light-M" transform="matrix(1 0 0 1 1097.87 1126)">
   <path d="M32.4755-68.3786L36.7559-72.6866L21.3393-88.0756C20.1756-89.2669 18.2778-89.2669 17.0865-88.0756C15.9229-86.8844 15.9229-84.9588 17.0865-83.7952ZM93.9653-11.3007L89.7749-15.5258C81.8554-7.55111 70.904-2.73995 58.6096-2.73995C34.0623-2.73995 14.7624-22.0399 14.7624-46.5525C14.7624-58.84 19.6358-69.826 27.486-77.6762L23.1846-81.7697C14.2194-72.8252 8.72266-60.3777 8.72266-46.5525C8.72266-18.8536 30.9106 3.30674 58.6096 3.30674C72.4764 3.30674 84.9239-2.23166 93.9653-11.3007ZM84.3973-25.0176L79.916-20.9657L96.6491-4.23265C97.8127-3.10366 99.7105-3.10366 100.902-4.23265C102.065-5.42394 102.065-7.38409 100.902-8.54074ZM55.5897 1.74136L55.5897 14.604L61.6294 14.604L61.6294 1.74136ZM42.1317 18.6071L75.3088 18.6071C76.9365 18.6071 78.301 17.2496 78.301 15.5872C78.301 13.9319 76.9365 12.5674 75.3088 12.5674L42.1317 12.5674C40.504 12.5674 39.1118 13.9319 39.1118 15.5872C39.1118 17.2496 40.504 18.6071 42.1317 18.6071ZM58.6096-10.748C78.3948-10.748 94.4141-26.7673 94.4141-46.5525C94.4141-66.3378 78.3948-82.3571 58.6096-82.3571C38.8244-82.3571 22.8051-66.3378 22.8051-46.5525C22.8051-26.7673 38.8244-10.748 58.6096-10.748Z"/>
  </g>
  <g id="Thin-M" transform="matrix(1 0 0 1 802.442 1126)">
   <path d="M31.7739-68.7633L34.3571-71.3967L18.7141-86.9894C18.0257-87.7281 16.9199-87.7281 16.1813-86.9894C15.4929-86.2507 15.4929-85.0946 16.1813-84.4062ZM91.6796-11.527L89.2091-14.0096C81.1313-5.83118 69.8857-0.906868 57.3197-0.906868C32.1614-0.906868 12.3635-20.7047 12.3635-45.851C12.3635-58.4553 17.3501-69.7129 25.4039-77.7667L22.9356-80.1629C14.1289-71.4448 8.72266-59.3141 8.72266-45.851C8.72266-18.9894 30.458 2.69571 57.3197 2.69571C70.7565 2.69571 82.8871-2.68427 91.6796-11.527ZM82.7452-22.9582L80.0518-20.5357L96.1512-4.43632C96.8396-3.75995 97.9453-3.75995 98.684-4.43632C99.3724-5.175 99.3724-6.34308 98.684-7.06975ZM55.4992 1.78662L55.4992 14.4683L59.1401 14.4683L59.1401 1.78662ZM42.2448 17.1587L72.7968 17.1587C73.7682 17.1587 74.567 16.3217 74.567 15.3383C74.567 14.3166 73.7682 13.5179 72.7968 13.5179L42.2448 13.5179C41.2734 13.5179 40.4244 14.3166 40.4244 15.3383C40.4244 16.3217 41.2734 17.1587 42.2448 17.1587ZM57.3197-10.1144C77.0822-10.1144 93.0563-26.0884 93.0563-45.851C93.0563-65.6136 77.0822-81.5876 57.3197-81.5876C37.5571-81.5876 21.583-65.6136 21.583-45.851C21.583-26.0884 37.5571-10.1144 57.3197-10.1144Z"/>
  </g>
  <g id="Ultralight-M" transform="matrix(1 0 0 1 506.386 1126)">
   <path d="M31.4146-68.9603L33.1284-70.736L17.3695-86.433C16.9245-86.9398 16.2245-86.9398 15.7176-86.433C15.2726-85.9261 15.2726-85.1642 15.7176-84.7192ZM90.5089-11.643L88.9193-13.233C80.7603-4.95025 69.3641 0.0320257 56.6589 0.0320257C31.1877 0.0320257 11.1348-20.0208 11.1348-45.4917C11.1348-58.2582 16.1794-69.6549 24.3375-77.8131L22.8081-79.3399C14.0825-70.7377 8.72266-58.7693 8.72266-45.4917C8.72266-19.0589 30.2262 2.38275 56.6589 2.38275C69.8755 2.38275 81.8439-2.9161 90.5089-11.643ZM81.8991-21.9034L80.1213-20.3155L95.8962-4.54065C96.3411-4.0961 97.0412-4.0961 97.5481-4.54065C97.993-5.0475 97.993-5.80989 97.5481-6.31632ZM55.4529 1.8098L55.4529 14.3987L57.865 14.3987L57.865 1.8098ZM42.3028 16.4169L71.5102 16.4169C72.1454 16.4169 72.6544 15.8465 72.6544 15.2108C72.6544 14.5136 72.1454 14.0047 71.5102 14.0047L42.3028 14.0047C41.6675 14.0047 41.0967 14.5136 41.0967 15.2108C41.0967 15.8465 41.6675 16.4169 42.3028 16.4169ZM56.6589-9.78981C76.41-9.78981 92.3608-25.7407 92.3608-45.4917C92.3608-65.2427 76.41-81.1935 56.6589-81.1935C36.9079-81.1935 20.9571-65.2427 20.9571-45.4917C20.9571-25.7407 36.9079-9.78981 56.6589-9.78981Z"/>
  </g>
  <g id="Black-S" transform="matrix(1 0 0 1 2885.26 696)">
   <path d="M28.9551-59.668L37.1094-67.8223L23.3398-81.543C21.0938-83.7402 17.4316-83.7891 15.2344-81.543C12.9883-79.3457 13.0371-75.6836 15.2344-73.4375ZM83.5449-16.0645L75.4395-24.3652C69.3359-17.4316 60.8887-13.3789 50.8789-13.3789C32.4219-13.3789 18.3594-27.4414 18.3594-45.8984C18.3594-55.9082 22.4121-64.2578 29.248-70.3613L20.8984-78.2715C12.207-70.3125 6.83594-58.7891 6.83594-45.8984C6.83594-21.2891 26.3184-1.85547 50.8789-1.85547C63.8672-1.85547 75.4883-7.27539 83.5449-16.0645ZM72.3633-32.5195L63.8672-24.7559L79.6387-9.0332C81.8848-6.83594 85.5469-6.78711 87.7441-9.0332C89.9902-11.2305 89.9902-14.8926 87.7441-17.1387ZM45.1172-6.25L45.1172 8.30078L56.6406 8.30078L56.6406-6.25ZM35.8887 13.0859L65.8691 13.0859C69.043 13.0859 71.6309 10.4492 71.6309 7.32422C71.6309 4.15039 69.043 1.5625 65.8691 1.5625L35.8887 1.5625C32.7637 1.5625 30.127 4.15039 30.127 7.32422C30.127 10.4492 32.7637 13.0859 35.8887 13.0859ZM50.8789-16.5527C67.0898-16.5527 80.2246-29.6875 80.2246-45.8984C80.2246-62.1094 67.0898-75.2441 50.8789-75.2441C34.668-75.2441 21.5332-62.1094 21.5332-45.8984C21.5332-29.6875 34.668-16.5527 50.8789-16.5527Z"/>
  </g>
  <g id="Heavy-S" transform="matrix(1 0 0 1 2589.4 696)">
   <path d="M28.2867-59.9446L35.6919-67.3498L22.3718-80.6325C20.3331-82.6339 17.0052-82.6712 15.0039-80.6325C12.9652-78.6312 13.0025-75.3033 15.0039-73.2646ZM81.7241-16.1106L74.3677-23.6277C68.2757-16.9015 59.863-12.941 50.003-12.941C31.4999-12.941 17.2991-27.1418 17.2991-45.6334C17.2991-55.4818 21.2712-63.8314 27.8997-69.9003L20.3107-77.0845C11.9765-69.2983 6.83594-58.1206 6.83594-45.6334C6.83594-21.5196 25.9265-2.46627 50.003-2.46627C62.588-2.46627 73.8403-7.66722 81.7241-16.1106ZM71.2685-31.7359L63.5445-24.6867L78.832-9.43656C80.8706-7.44673 84.1985-7.40943 86.1999-9.43656C88.2385-11.4379 88.2385-14.7773 86.1999-16.8045ZM44.7715-6.26152L44.7715 7.2751L55.2346 7.2751L55.2346-6.26152ZM35.1857 11.9681L64.8204 11.9681C67.6946 11.9681 70.052 9.58488 70.052 6.73647C70.052 3.86228 67.6946 1.50488 64.8204 1.50488L35.1857 1.50488C32.3488 1.50488 29.9541 3.86228 29.9541 6.73647C29.9541 9.58488 32.3488 11.9681 35.1857 11.9681ZM50.003-16.5758C66.0526-16.5758 79.0606-29.5838 79.0606-45.6334C79.0606-61.683 66.0526-74.691 50.003-74.691C33.9535-74.691 20.9455-61.683 20.9455-45.6334C20.9455-29.5838 33.9535-16.5758 50.003-16.5758Z"/>
  </g>
  <g id="Bold-S" transform="matrix(1 0 0 1 2293.64 696)">
   <path d="M27.5391-60.2539L34.1064-66.8213L21.2891-79.6143C19.4824-81.3965 16.5283-81.4209 14.7461-79.6143C12.9395-77.832 12.9639-74.8779 14.7461-73.0713ZM79.6875-16.1621L73.1689-22.8027C67.0898-16.3086 58.7158-12.4512 49.0234-12.4512C30.4688-12.4512 16.1133-26.8066 16.1133-45.3369C16.1133-55.0049 19.9951-63.3545 26.3916-69.3848L19.6533-75.7568C11.7188-68.1641 6.83594-57.373 6.83594-45.3369C6.83594-21.7773 25.4883-3.14941 49.0234-3.14941C61.1572-3.14941 71.9971-8.10547 79.6875-16.1621ZM70.0439-30.8594L63.1836-24.6094L77.9297-9.8877C79.7363-8.12988 82.6904-8.10547 84.4727-9.8877C86.2793-11.6699 86.2793-14.6484 84.4727-16.4307ZM44.3848-6.27441L44.3848 6.12793L53.6621 6.12793L53.6621-6.27441ZM34.3994 10.7178L63.6475 10.7178C66.1865 10.7178 68.2861 8.61816 68.2861 6.0791C68.2861 3.54004 66.1865 1.44043 63.6475 1.44043L34.3994 1.44043C31.8848 1.44043 29.7607 3.54004 29.7607 6.0791C29.7607 8.61816 31.8848 10.7178 34.3994 10.7178ZM49.0234-16.6016C64.8926-16.6016 77.7588-29.4678 77.7588-45.3369C77.7588-61.2061 64.8926-74.0723 49.0234-74.0723C33.1543-74.0723 20.2881-61.2061 20.2881-45.3369C20.2881-29.4678 33.1543-16.6016 49.0234-16.6016Z"/>
  </g>
  <g id="Semibold-S" transform="matrix(1 0 0 1 1997.59 696)">
   <path d="M27.0236-60.4672L33.0134-66.4569L20.5426-78.9122C18.8959-80.5434 16.1995-80.5589 14.5684-78.9122C12.9217-77.2811 12.9372-74.5847 14.5684-72.938ZM78.2834-16.1977L72.3425-22.234C66.2723-15.8998 57.9249-12.1135 48.348-12.1135C29.7578-12.1135 15.2957-26.5756 15.2957-45.1325C15.2957-54.6761 19.1153-63.0257 25.3519-69.0293L19.2001-74.8415C11.541-67.382 6.83594-56.8576 6.83594-45.1325C6.83594-21.9551 25.1861-3.62041 48.348-3.62041C60.1708-3.62041 70.7263-8.40762 78.2834-16.1977ZM69.1997-30.2551L62.9348-24.5561L77.3076-10.1987C78.9543-8.60088 81.6507-8.58535 83.2818-10.1987C84.9285-11.8299 84.9285-14.5596 83.2818-16.1729ZM44.1182-6.2833L44.1182 5.33701L52.5779 5.33701L52.5779-6.2833ZM33.8573 9.85576L62.8388 9.85576C65.1468 9.85576 67.0687 7.95166 67.0687 5.62588C67.0687 3.31787 65.1468 1.396 62.8388 1.396L33.8573 1.396C31.5648 1.396 29.6274 3.31787 29.6274 5.62588C29.6274 7.95166 31.5648 9.85576 33.8573 9.85576ZM48.348-16.6193C64.0928-16.6193 76.8612-29.3878 76.8612-45.1325C76.8612-60.8772 64.0928-73.6457 48.348-73.6457C32.6033-73.6457 19.8349-60.8772 19.8349-45.1325C19.8349-29.3878 32.6033-16.6193 48.348-16.6193Z"/>
  </g>
  <g id="Medium-S" transform="matrix(1 0 0 1 1701.37 696)">
   <path d="M26.6328-60.6289L32.1846-66.1807L19.9766-78.3799C18.4512-79.8965 15.9502-79.9053 14.4336-78.3799C12.9082-76.8633 12.917-74.3623 14.4336-72.8369ZM77.2188-16.2246L71.7158-21.8027C65.6523-15.5898 57.3252-11.8574 47.8359-11.8574C29.2188-11.8574 14.6758-26.4004 14.6758-44.9775C14.6758-54.4268 18.4482-62.7764 24.5635-68.7598L18.8564-74.1475C11.4062-66.7891 6.83594-56.4668 6.83594-44.9775C6.83594-22.0898 24.957-3.97754 47.8359-3.97754C59.4229-3.97754 69.7627-8.63672 77.2188-16.2246ZM68.5596-29.7969L62.7461-24.5156L76.8359-10.4346C78.3613-8.95801 80.8623-8.94922 82.3789-10.4346C83.9043-11.9512 83.9043-14.4922 82.3789-15.9775ZM43.916-6.29004L43.916 4.7373L51.7559 4.7373L51.7559-6.29004ZM33.4463 9.20215L62.2256 9.20215C64.3584 9.20215 66.1455 7.44629 66.1455 5.28223C66.1455 3.14941 64.3584 1.3623 62.2256 1.3623L33.4463 1.3623C31.3223 1.3623 29.5264 3.14941 29.5264 5.28223C29.5264 7.44629 31.3223 9.20215 33.4463 9.20215ZM47.8359-16.6328C63.4863-16.6328 76.1807-29.3271 76.1807-44.9775C76.1807-60.6279 63.4863-73.3223 47.8359-73.3223C32.1855-73.3223 19.4912-60.6279 19.4912-44.9775C19.4912-29.3271 32.1855-16.6328 47.8359-16.6328Z"/>
  </g>
  <g id="Regular-S" transform="matrix(1 0 0 1 1405.31 696)">
   <path d="M26.123-60.8398L31.1035-65.8203L19.2383-77.6855C17.8711-79.0527 15.625-79.0527 14.2578-77.6855C12.8906-76.3184 12.8906-74.0723 14.2578-72.7051ZM75.8301-16.2598L70.8984-21.2402C64.8438-15.1855 56.543-11.5234 47.168-11.5234C28.5156-11.5234 13.8672-26.1719 13.8672-44.7754C13.8672-54.1016 17.5781-62.4512 23.5352-68.4082L18.4082-73.2422C11.2305-66.0156 6.83594-55.957 6.83594-44.7754C6.83594-22.2656 24.6582-4.44336 47.168-4.44336C58.4473-4.44336 68.5059-8.93555 75.8301-16.2598ZM67.7246-29.1992L62.5-24.4629L76.2207-10.7422C77.5879-9.42383 79.834-9.42383 81.2012-10.7422C82.5684-12.1094 82.5684-14.4043 81.2012-15.7227ZM43.6523-6.29883L43.6523 3.95508L50.6836 3.95508L50.6836-6.29883ZM32.9102 8.34961L61.4258 8.34961C63.3301 8.34961 64.9414 6.78711 64.9414 4.83398C64.9414 2.92969 63.3301 1.31836 61.4258 1.31836L32.9102 1.31836C31.0059 1.31836 29.3945 2.92969 29.3945 4.83398C29.3945 6.78711 31.0059 8.34961 32.9102 8.34961ZM47.168-16.6504C62.6953-16.6504 75.293-29.248 75.293-44.7754C75.293-60.3027 62.6953-72.9004 47.168-72.9004C31.6406-72.9004 19.043-60.3027 19.043-44.7754C19.043-29.248 31.6406-16.6504 47.168-16.6504Z"/>
  </g>
  <g id="Light-S" transform="matrix(1 0 0 1 1109.46 696)">
   <path d="M25.6538-61.0972L29.499-64.9575L17.4824-76.959C16.4331-78.0234 14.7168-78.0234 13.6523-76.959C12.603-75.8945 12.603-74.1631 13.6523-73.1138ZM74.3013-16.4111L70.52-20.2261C64.3594-14.0352 55.8618-10.2974 46.3052-10.2974C27.2442-10.2974 12.2627-25.2788 12.2627-44.3062C12.2627-53.8442 16.0493-62.3755 22.1426-68.4687L18.2417-72.1675C11.1699-65.0923 6.83594-55.2456 6.83594-44.3062C6.83594-22.3564 24.3555-4.85205 46.3052-4.85205C57.2969-4.85205 67.1436-9.23828 74.3013-16.4111ZM66.6196-27.8218L62.5908-24.1753L75.8877-10.8784C76.937-9.86279 78.6533-9.86279 79.7178-10.8784C80.7671-11.9429 80.7671-13.708 79.7178-14.7388ZM43.5918-6.26855L43.5918 3.86426L49.0186 3.86426L49.0186-6.26855ZM32.9858 7.38087L59.7456 7.38087C61.211 7.38087 62.4439 6.16651 62.4439 4.66748C62.4439 3.18701 61.211 1.9541 59.7456 1.9541L32.9858 1.9541C31.5205 1.9541 30.2725 3.18701 30.2725 4.66748C30.2725 6.16651 31.5205 7.38087 32.9858 7.38087ZM46.3052-16.2266C61.8174-16.2266 74.3848-28.7939 74.3848-44.3062C74.3848-59.8184 61.8174-72.3857 46.3052-72.3857C30.793-72.3857 18.2256-59.8184 18.2256-44.3062C18.2256-28.7939 30.793-16.2266 46.3052-16.2266Z"/>
  </g>
  <g id="Thin-S" transform="matrix(1 0 0 1 813.877 696)">
   <path d="M25.0332-61.4375L27.377-63.8164L15.1602-75.9981C14.5313-76.6621 13.5156-76.6621 12.8516-75.9981C12.2227-75.334 12.2227-74.2832 12.8516-73.6543ZM72.2793-16.6113L70.0195-18.8848C63.7188-12.5137 54.9609-8.6758 45.1641-8.6758C25.5625-8.6758 10.1407-24.0977 10.1407-43.6856C10.1407-53.5039 14.0274-62.2754 20.3008-68.5488L18.0215-70.7461C11.0898-63.8711 6.83594-54.3047 6.83594-43.6856C6.83594-22.4766 23.9551-5.39257 45.1641-5.39257C55.7754-5.39257 65.3418-9.63867 72.2793-16.6113ZM65.1582-26L62.7109-23.7949L75.4473-11.0586C76.0762-10.4434 77.0918-10.4434 77.7559-11.0586C78.3848-11.7227 78.3848-12.7871 77.7559-13.4375ZM43.5117-6.22852L43.5117 3.74414L46.8164 3.74414L46.8164-6.22852ZM33.0859 6.09963L57.5235 6.09963C58.4082 6.09963 59.1407 5.34571 59.1407 4.44727C59.1407 3.52734 58.4082 2.79491 57.5235 2.79491L33.0859 2.79491C32.2012 2.79491 31.4336 3.52734 31.4336 4.44727C31.4336 5.34571 32.2012 6.09963 33.0859 6.09963ZM45.1641-15.666C60.6563-15.666 73.1836-28.1934 73.1836-43.6856C73.1836-59.1777 60.6563-71.7051 45.1641-71.7051C29.6719-71.7051 17.1445-59.1777 17.1445-43.6856C17.1445-28.1934 29.6719-15.666 45.1641-15.666Z"/>
  </g>
  <g id="Ultralight-S" transform="matrix(1 0 0 1 517.746 696)">
   <path d="M24.7153-61.6118L26.2901-63.232L13.9707-75.5059C13.5572-75.9649 12.9004-75.9649 12.4414-75.5059C12.0278-75.0469 12.0278-74.3447 12.4414-73.9311ZM71.2437-16.7139L69.7632-18.1978C63.3906-11.7344 54.4995-7.84524 44.5796-7.84524C24.7012-7.84524 9.05375-23.4927 9.05375-43.3677C9.05375-53.3296 12.9917-62.2241 19.3575-68.5898L17.9087-70.0181C11.0488-63.2456 6.83594-53.8228 6.83594-43.3677C6.83594-22.5381 23.75-5.66942 44.5796-5.66942C54.9961-5.66942 64.419-9.84374 71.2437-16.7139ZM64.4097-25.0669L62.7725-23.6001L75.2217-11.1509C75.6353-10.7407 76.292-10.7407 76.751-11.1509C77.1646-11.6099 77.1646-12.3154 76.751-12.771ZM43.4707-6.20801L43.4707 3.68262L45.6885 3.68262L45.6885-6.20801ZM33.1372 5.44338L56.3853 5.44338C56.9727 5.44338 57.4488 4.92531 57.4488 4.33448C57.4488 3.70165 56.9727 3.22557 56.3853 3.22557L33.1372 3.22557C32.5498 3.22557 32.0283 3.70165 32.0283 4.33448C32.0283 4.92531 32.5498 5.44338 33.1372 5.44338ZM44.5796-15.3789C60.0615-15.3789 72.5684-27.8858 72.5684-43.3677C72.5684-58.8496 60.0615-71.3565 44.5796-71.3565C29.0977-71.3565 16.5908-58.8496 16.5908-43.3677C16.5908-27.8858 29.0977-15.3789 44.5796-15.3789Z"/>
  </g>
 </g>
</svg>
