<?xml version="1.0" encoding="UTF-8"?>
<!--Generator: Apple Native CoreSVG 175.5-->
<!DOCTYPE svg
PUBLIC "-//W3C//DTD SVG 1.1//EN"
       "http://www.w3.org/Graphics/SVG/1.1/DTD/svg11.dtd">
<svg version="1.1" xmlns="http://www.w3.org/2000/svg" xmlns:xlink="http://www.w3.org/1999/xlink" width="3300" height="2200">
 <!--glyph: "uni100B80.medium", point size: 100.0, font version: "18.0d12e2", template writer version: "101"-->
 <g id="Notes">
  <rect height="2200" id="artboard" style="fill:white;opacity:1" width="3300" x="0" y="0"/>
  <line style="fill:none;stroke:black;opacity:1;stroke-width:0.5;" x1="263" x2="3036" y1="292" y2="292"/>
  <text style="stroke:none;fill:black;font-family:sans-serif;font-size:13;font-weight:bold;" transform="matrix(1 0 0 1 263 322)">Weight/Scale Variations</text>
  <text style="stroke:none;fill:black;font-family:sans-serif;font-size:13;text-anchor:middle;" transform="matrix(1 0 0 1 559.711 322)">Ultralight</text>
  <text style="stroke:none;fill:black;font-family:sans-serif;font-size:13;text-anchor:middle;" transform="matrix(1 0 0 1 856.422 322)">Thin</text>
  <text style="stroke:none;fill:black;font-family:sans-serif;font-size:13;text-anchor:middle;" transform="matrix(1 0 0 1 1153.13 322)">Light</text>
  <text style="stroke:none;fill:black;font-family:sans-serif;font-size:13;text-anchor:middle;" transform="matrix(1 0 0 1 1449.84 322)">Regular</text>
  <text style="stroke:none;fill:black;font-family:sans-serif;font-size:13;text-anchor:middle;" transform="matrix(1 0 0 1 1746.56 322)">Medium</text>
  <text style="stroke:none;fill:black;font-family:sans-serif;font-size:13;text-anchor:middle;" transform="matrix(1 0 0 1 2043.27 322)">Semibold</text>
  <text style="stroke:none;fill:black;font-family:sans-serif;font-size:13;text-anchor:middle;" transform="matrix(1 0 0 1 2339.98 322)">Bold</text>
  <text style="stroke:none;fill:black;font-family:sans-serif;font-size:13;text-anchor:middle;" transform="matrix(1 0 0 1 2636.69 322)">Heavy</text>
  <text style="stroke:none;fill:black;font-family:sans-serif;font-size:13;text-anchor:middle;" transform="matrix(1 0 0 1 2933.4 322)">Black</text>
  <line style="fill:none;stroke:black;opacity:1;stroke-width:0.5;" x1="263" x2="3036" y1="1903" y2="1903"/>
  <g transform="matrix(1 0 0 1 263 1933)">
   <path d="M9.24805 0.830078C13.5547 0.830078 17.1387-2.74414 17.1387-7.05078C17.1387-11.3574 13.5449-14.9316 9.23828-14.9316C4.94141-14.9316 1.36719-11.3574 1.36719-7.05078C1.36719-2.74414 4.95117 0.830078 9.24805 0.830078ZM9.24805-0.654297C5.70312-0.654297 2.87109-3.49609 2.87109-7.05078C2.87109-10.6055 5.69336-13.4473 9.23828-13.4473C12.793-13.4473 15.6445-10.6055 15.6445-7.05078C15.6445-3.49609 12.8027-0.654297 9.24805-0.654297ZM5.6543-7.05078C5.6543-6.62109 5.95703-6.32812 6.40625-6.32812L8.50586-6.32812L8.50586-4.20898C8.50586-3.76953 8.79883-3.4668 9.22852-3.4668C9.67773-3.4668 9.9707-3.76953 9.9707-4.20898L9.9707-6.32812L12.0898-6.32812C12.5293-6.32812 12.832-6.62109 12.832-7.05078C12.832-7.49023 12.5293-7.79297 12.0898-7.79297L9.9707-7.79297L9.9707-9.90234C9.9707-10.3516 9.67773-10.6543 9.22852-10.6543C8.79883-10.6543 8.50586-10.3516 8.50586-9.90234L8.50586-7.79297L6.40625-7.79297C5.95703-7.79297 5.6543-7.49023 5.6543-7.05078Z"/>
  </g>
  <g transform="matrix(1 0 0 1 281.867 1933)">
   <path d="M11.709 2.91016C17.1582 2.91016 21.6699-1.61133 21.6699-7.05078C21.6699-12.5 17.1484-17.0117 11.6992-17.0117C6.25977-17.0117 1.74805-12.5 1.74805-7.05078C1.74805-1.61133 6.26953 2.91016 11.709 2.91016ZM11.709 1.25C7.09961 1.25 3.41797-2.44141 3.41797-7.05078C3.41797-11.6602 7.08984-15.3516 11.6992-15.3516C16.3086-15.3516 20.0098-11.6602 20.0098-7.05078C20.0098-2.44141 16.3184 1.25 11.709 1.25ZM7.17773-7.05078C7.17773-6.57227 7.50977-6.25 8.00781-6.25L10.8789-6.25L10.8789-3.36914C10.8789-2.88086 11.2109-2.53906 11.6895-2.53906C12.1777-2.53906 12.5195-2.87109 12.5195-3.36914L12.5195-6.25L15.4004-6.25C15.8887-6.25 16.2305-6.57227 16.2305-7.05078C16.2305-7.53906 15.8887-7.88086 15.4004-7.88086L12.5195-7.88086L12.5195-10.752C12.5195-11.25 12.1777-11.5918 11.6895-11.5918C11.2109-11.5918 10.8789-11.25 10.8789-10.752L10.8789-7.88086L8.00781-7.88086C7.50977-7.88086 7.17773-7.53906 7.17773-7.05078Z"/>
  </g>
  <g transform="matrix(1 0 0 1 305.646 1933)">
   <path d="M14.9707 5.66406C21.9336 5.66406 27.6953-0.0976562 27.6953-7.05078C27.6953-14.0137 21.9238-19.7754 14.9609-19.7754C8.00781-19.7754 2.25586-14.0137 2.25586-7.05078C2.25586-0.0976562 8.01758 5.66406 14.9707 5.66406ZM14.9707 3.84766C8.93555 3.84766 4.08203-1.01562 4.08203-7.05078C4.08203-13.0957 8.92578-17.9492 14.9609-17.9492C21.0059-17.9492 25.8691-13.0957 25.8691-7.05078C25.8691-1.01562 21.0156 3.84766 14.9707 3.84766ZM9.19922-7.05078C9.19922-6.5332 9.57031-6.17188 10.1172-6.17188L14.0625-6.17188L14.0625-2.2168C14.0625-1.67969 14.4336-1.29883 14.9512-1.29883C15.4883-1.29883 15.8594-1.66992 15.8594-2.2168L15.8594-6.17188L19.8145-6.17188C20.3516-6.17188 20.7324-6.5332 20.7324-7.05078C20.7324-7.59766 20.3613-7.96875 19.8145-7.96875L15.8594-7.96875L15.8594-11.9141C15.8594-12.4609 15.4883-12.8418 14.9512-12.8418C14.4336-12.8418 14.0625-12.4609 14.0625-11.9141L14.0625-7.96875L10.1172-7.96875C9.57031-7.96875 9.19922-7.59766 9.19922-7.05078Z"/>
  </g>
  <text style="stroke:none;fill:black;font-family:sans-serif;font-size:13;font-weight:bold;" transform="matrix(1 0 0 1 263 1953)">Design Variations</text>
  <text style="stroke:none;fill:black;font-family:sans-serif;font-size:13;" transform="matrix(1 0 0 1 263 1971)">Symbols are supported in up to nine weights and three scales.</text>
  <text style="stroke:none;fill:black;font-family:sans-serif;font-size:13;" transform="matrix(1 0 0 1 263 1989)">For optimal layout with text and other symbols, vertically align</text>
  <text style="stroke:none;fill:black;font-family:sans-serif;font-size:13;" transform="matrix(1 0 0 1 263 2007)">symbols with the adjacent text.</text>
  <line style="fill:none;stroke:#00AEEF;stroke-width:0.5;opacity:1.0;" x1="776" x2="776" y1="1919" y2="1933"/>
  <g transform="matrix(1 0 0 1 776 1933)">
   <path d="M3.31055 0.15625C3.82812 0.15625 4.08203-0.0390625 4.26758-0.585938L5.52734-4.0332L11.2891-4.0332L12.5488-0.585938C12.7344-0.0390625 12.9883 0.15625 13.4961 0.15625C14.0137 0.15625 14.3457-0.15625 14.3457-0.644531C14.3457-0.810547 14.3164-0.966797 14.2383-1.17188L9.6582-13.3691C9.43359-13.9648 9.0332-14.2676 8.4082-14.2676C7.80273-14.2676 7.39258-13.9746 7.17773-13.3789L2.59766-1.16211C2.51953-0.957031 2.49023-0.800781 2.49023-0.634766C2.49023-0.146484 2.80273 0.15625 3.31055 0.15625ZM6.00586-5.51758L8.37891-12.0898L8.42773-12.0898L10.8008-5.51758Z"/>
  </g>
  <line style="fill:none;stroke:#00AEEF;stroke-width:0.5;opacity:1.0;" x1="793.197" x2="793.197" y1="1919" y2="1933"/>
  <text style="stroke:none;fill:black;font-family:sans-serif;font-size:13;font-weight:bold;" transform="matrix(1 0 0 1 776 1953)">Margins</text>
  <text style="stroke:none;fill:black;font-family:sans-serif;font-size:13;" transform="matrix(1 0 0 1 776 1971)">Leading and trailing margins on the left and right side of each symbol</text>
  <text style="stroke:none;fill:black;font-family:sans-serif;font-size:13;" transform="matrix(1 0 0 1 776 1989)">can be adjusted by modifying the x-location of the margin guidelines.</text>
  <text style="stroke:none;fill:black;font-family:sans-serif;font-size:13;" transform="matrix(1 0 0 1 776 2007)">Modifications are automatically applied proportionally to all</text>
  <text style="stroke:none;fill:black;font-family:sans-serif;font-size:13;" transform="matrix(1 0 0 1 776 2025)">scales and weights.</text>
  <g transform="matrix(1 0 0 1 1289 1933)">
   <path d="M2.8418 1.86523L4.54102 3.57422C5.40039 4.44336 6.38672 4.38477 7.31445 3.35938L18.0078-8.42773L17.041-9.4043L6.42578 2.27539C6.07422 2.67578 5.74219 2.77344 5.27344 2.30469L4.10156 1.14258C3.63281 0.683594 3.74023 0.341797 4.14062-0.0195312L15.6152-10.8203L14.6387-11.7871L3.04688-0.898438C2.06055 0.0195312 1.98242 0.996094 2.8418 1.86523ZM9.25781-16.3281C8.83789-15.918 8.80859-15.3418 9.04297-14.9512C9.27734-14.5898 9.73633-14.3555 10.3809-14.5215C11.8457-14.8633 13.3691-14.9219 14.7949-13.9844L14.209-12.5293C13.8672-11.6992 14.043-11.1133 14.5801-10.5664L16.875-8.25195C17.3633-7.76367 17.7734-7.74414 18.3398-7.8418L19.4043-8.03711L20.0684-7.36328L20.0293-6.80664C19.9902-6.30859 20.1172-5.92773 20.6055-5.44922L21.3672-4.70703C21.8457-4.22852 22.4609-4.19922 22.9297-4.66797L25.8398-7.58789C26.3086-8.05664 26.2891-8.65234 25.8105-9.13086L25.0391-9.89258C24.5605-10.3711 24.1895-10.5273 23.7109-10.4883L23.1348-10.4395L22.4902-11.0742L22.7344-12.1973C22.8613-12.7637 22.7051-13.2031 22.1191-13.7891L19.9219-15.9766C16.582-19.2969 12.1484-19.2188 9.25781-16.3281ZM10.752-15.957C13.1836-17.7344 16.4746-17.4316 18.7012-15.2051L21.1328-12.793C21.3672-12.5586 21.4062-12.373 21.3379-12.0312L21.0156-10.5469L22.5195-9.0625L23.5059-9.12109C23.7598-9.13086 23.8379-9.11133 24.0332-8.91602L24.6094-8.33984L22.168-5.89844L21.5918-6.47461C21.3965-6.66992 21.3672-6.74805 21.377-7.01172L21.4453-7.98828L19.9512-9.47266L18.4277-9.21875C18.1055-9.15039 17.959-9.17969 17.7148-9.41406L15.7129-11.416C15.459-11.6504 15.4297-11.8164 15.5859-12.1875L16.4648-14.2773C14.9023-15.7324 12.8711-16.3574 10.8398-15.7617C10.6836-15.7227 10.625-15.8496 10.752-15.957Z"/>
  </g>
  <text style="stroke:none;fill:black;font-family:sans-serif;font-size:13;font-weight:bold;" transform="matrix(1 0 0 1 1289 1953)">Exporting</text>
  <text style="stroke:none;fill:black;font-family:sans-serif;font-size:13;" transform="matrix(1 0 0 1 1289 1971)">Symbols should be outlined when exporting to ensure the</text>
  <text style="stroke:none;fill:black;font-family:sans-serif;font-size:13;" transform="matrix(1 0 0 1 1289 1989)">design is preserved when submitting to Xcode.</text>
  <text id="template-version" style="stroke:none;fill:black;font-family:sans-serif;font-size:13;text-anchor:end;" transform="matrix(1 0 0 1 3036 1933)">Template v.4.0</text>
  <text style="stroke:none;fill:black;font-family:sans-serif;font-size:13;text-anchor:end;" transform="matrix(1 0 0 1 3036 1951)">Requires Xcode 14 or greater</text>
  <text id="descriptive-name" style="stroke:none;fill:black;font-family:sans-serif;font-size:13;text-anchor:end;" transform="matrix(1 0 0 1 3036 1969)">Generated from banknote.fill</text>
  <text style="stroke:none;fill:black;font-family:sans-serif;font-size:13;text-anchor:end;" transform="matrix(1 0 0 1 3036 1987)">Typeset at 100 points</text>
  <text style="stroke:none;fill:black;font-family:sans-serif;font-size:13;" transform="matrix(1 0 0 1 263 726)">Small</text>
  <text style="stroke:none;fill:black;font-family:sans-serif;font-size:13;" transform="matrix(1 0 0 1 263 1156)">Medium</text>
  <text style="stroke:none;fill:black;font-family:sans-serif;font-size:13;" transform="matrix(1 0 0 1 263 1586)">Large</text>
 </g>
 <g id="Guides">
  <g id="H-reference" style="fill:#27AAE1;stroke:none;" transform="matrix(1 0 0 1 339 696)">
   <path d="M0.993654 0L3.63775 0L29.3281-67.1323L30.0303-67.1323L30.0303-70.459L28.1226-70.459ZM11.6885-24.4799L46.9815-24.4799L46.2315-26.7285L12.4385-26.7285ZM55.1196 0L57.7637 0L30.6382-70.459L29.4326-70.459L29.4326-67.1323Z"/>
  </g>
  <line id="Baseline-S" style="fill:none;stroke:#27AAE1;opacity:1;stroke-width:0.5;" x1="263" x2="3036" y1="696" y2="696"/>
  <line id="Capline-S" style="fill:none;stroke:#27AAE1;opacity:1;stroke-width:0.5;" x1="263" x2="3036" y1="625.541" y2="625.541"/>
  <g id="H-reference" style="fill:#27AAE1;stroke:none;" transform="matrix(1 0 0 1 339 1126)">
   <path d="M0.993654 0L3.63775 0L29.3281-67.1323L30.0303-67.1323L30.0303-70.459L28.1226-70.459ZM11.6885-24.4799L46.9815-24.4799L46.2315-26.7285L12.4385-26.7285ZM55.1196 0L57.7637 0L30.6382-70.459L29.4326-70.459L29.4326-67.1323Z"/>
  </g>
  <line id="Baseline-M" style="fill:none;stroke:#27AAE1;opacity:1;stroke-width:0.5;" x1="263" x2="3036" y1="1126" y2="1126"/>
  <line id="Capline-M" style="fill:none;stroke:#27AAE1;opacity:1;stroke-width:0.5;" x1="263" x2="3036" y1="1055.54" y2="1055.54"/>
  <g id="H-reference" style="fill:#27AAE1;stroke:none;" transform="matrix(1 0 0 1 339 1556)">
   <path d="M0.993654 0L3.63775 0L29.3281-67.1323L30.0303-67.1323L30.0303-70.459L28.1226-70.459ZM11.6885-24.4799L46.9815-24.4799L46.2315-26.7285L12.4385-26.7285ZM55.1196 0L57.7637 0L30.6382-70.459L29.4326-70.459L29.4326-67.1323Z"/>
  </g>
  <line id="Baseline-L" style="fill:none;stroke:#27AAE1;opacity:1;stroke-width:0.5;" x1="263" x2="3036" y1="1556" y2="1556"/>
  <line id="Capline-L" style="fill:none;stroke:#27AAE1;opacity:1;stroke-width:0.5;" x1="263" x2="3036" y1="1485.54" y2="1485.54"/>
  <line id="left-margin-Regular-M" style="fill:none;stroke:#00AEEF;stroke-width:0.5;opacity:1.0;" x1="1372.94" x2="1372.94" y1="1030.79" y2="1150.12"/>
  <line id="right-margin-Regular-M" style="fill:none;stroke:#00AEEF;stroke-width:0.5;opacity:1.0;" x1="1526.75" x2="1526.75" y1="1030.79" y2="1150.12"/>
 </g>
 <g id="Symbols">
  <g id="Black-L" transform="matrix(1 0 0 1 2834.05 1556)">
   <path d="M16.084 12.3047C16.084 16.3384 18.7642 19.0383 22.7968 19.0383L175.901 19.0383C179.935 19.0383 182.614 16.3384 182.614 12.3047L182.614-82.7249C182.614-86.7586 179.935-89.4377 175.901-89.4377L22.7968-89.4377C18.7642-89.4377 16.084-86.7586 16.084-82.7249ZM34.493-1.90564L34.493-68.5146C34.493-70.2928 35.2705-71.0287 36.8903-71.0287L161.808-71.0287C163.428-71.0287 164.205-70.2928 164.205-68.5146L164.205-1.90564C164.205-0.127404 163.428 0.608508 161.808 0.608508L36.8903 0.608508C35.2705 0.608508 34.493-0.127404 34.493-1.90564ZM42.8003-8.80718C42.8003-8.11934 43.1832-7.7364 43.8711-7.7364L83.9324-7.7364C79.398-13.9121 76.748-23.388 76.748-35.2905C76.748-47.1126 79.3968-56.5665 83.8508-62.6838L43.8711-62.6838C43.1832-62.6838 42.8003-62.3009 42.8003-61.5922ZM86.2593-35.2905C86.2593-19.0097 91.7507-9.75008 99.0923-9.75008C106.828-9.75008 112.518-19.0097 112.518-35.2905C112.518-51.4921 106.828-60.6921 99.0923-60.6921C91.7507-60.6921 86.2593-51.4921 86.2593-35.2905ZM114.647-7.7364L154.827-7.7364C155.515-7.7364 155.898-8.11934 155.898-8.80718L155.898-61.5922C155.898-62.3009 155.515-62.6838 154.827-62.6838L114.728-62.6838C119.36-56.5665 122.029-47.1126 122.029-35.2905C122.029-23.388 119.28-13.9121 114.647-7.7364Z"/>
  </g>
  <g id="Heavy-L" transform="matrix(1 0 0 1 2537.52 1556)">
   <path d="M16.084 12.1109C16.084 15.8815 18.5783 18.4005 22.3434 18.4005L175.985 18.4005C179.756 18.4005 182.244 15.8815 182.244 12.1109L182.244-82.5498C182.244-86.3205 179.756-88.8092 175.985-88.8092L22.3434-88.8092C18.5783-88.8092 16.084-86.3205 16.084-82.5498ZM32.8211-1.14767L32.8211-69.2913C32.8211-71.2105 33.743-72.0721 35.5127-72.0721L162.816-72.0721C164.585-72.0721 165.507-71.2105 165.507-69.2913L165.507-1.14767C165.507 0.771615 164.585 1.63319 162.816 1.63319L35.5127 1.63319C33.743 1.63319 32.8211 0.771615 32.8211-1.14767ZM40.6506-7.36146C40.6506-6.61742 41.0573-6.2108 41.8013-6.2108L84.0926-6.2108C79.0259-12.5005 76.0533-22.5868 76.0533-35.2999C76.0533-47.9326 79.0203-57.983 84.0065-64.2281L41.8013-64.2281C41.0573-64.2281 40.6506-63.8215 40.6506-63.0473ZM84.9836-35.2999C84.9836-18.2118 90.8291-8.02039 98.918-8.02039C107.37-8.02039 113.42-18.2118 113.42-35.2999C113.42-52.3132 107.37-62.4543 98.918-62.4543C90.8291-62.4543 84.9836-52.3132 84.9836-35.2999ZM114.112-6.2108L156.527-6.2108C157.271-6.2108 157.678-6.61742 157.678-7.36146L157.678-63.0473C157.678-63.8215 157.271-64.2281 156.527-64.2281L114.192-64.2281C119.353-57.983 122.35-47.9326 122.35-35.2999C122.35-22.5868 119.278-12.5005 114.112-6.2108Z"/>
  </g>
  <g id="Bold-L" transform="matrix(1 0 0 1 2241.32 1556)">
   <path d="M16.084 11.7683C16.084 15.1938 18.3329 17.4675 21.7452 17.4675L175.578 17.4675C179.004 17.4675 181.24 15.1938 181.24 11.7683L181.24-82.2228C181.24-85.6483 179.004-87.884 175.578-87.884L21.7452-87.884C18.3329-87.884 16.084-85.6483 16.084-82.2228ZM30.8732-0.366679L30.8732-70.0879C30.8732-72.1167 31.9272-73.0948 33.8217-73.0948L163.502-73.0948C165.396-73.0948 166.45-72.1167 166.45-70.0879L166.45-0.366679C166.45 1.6622 165.396 2.64025 163.502 2.64025L33.8217 2.64025C31.9272 2.64025 30.8732 1.6622 30.8732-0.366679ZM38.0291-5.72014C38.0291-4.92928 38.4515-4.50687 39.2424-4.50687L84.1433-4.50687C78.4009-10.8679 75.0139-21.6477 75.0139-35.3077C75.0139-48.8873 78.3877-59.6158 84.0496-65.9477L39.2424-65.9477C38.4515-65.9477 38.0291-65.5253 38.0291-64.6964ZM83.1176-35.3077C83.1176-17.2952 89.4235-6.04801 98.442-6.04801C107.77-6.04801 114.273-17.2952 114.273-35.3077C114.273-53.253 107.77-64.4577 98.442-64.4577C89.4235-64.4577 83.1176-53.253 83.1176-35.3077ZM113.064-4.50687L158.081-4.50687C158.872-4.50687 159.294-4.92928 159.294-5.72014L159.294-64.6964C159.294-65.5253 158.872-65.9477 158.081-65.9477L113.144-65.9477C118.965-59.6158 122.377-48.8873 122.377-35.3077C122.377-21.6477 118.898-10.8679 113.064-4.50687Z"/>
  </g>
  <g id="Semibold-L" transform="matrix(1 0 0 1 1944.95 1556)">
   <path d="M16.084 11.5321C16.084 14.7196 18.1637 16.8243 21.3328 16.8243L175.298 16.8243C178.485 16.8243 180.547 14.7196 180.547 11.5321L180.547-81.9974C180.547-85.1849 178.485-87.2462 175.298-87.2462L21.3328-87.2462C18.1637-87.2462 16.084-85.1849 16.084-81.9974ZM29.5304 0.171729L29.5304-70.637C29.5304-72.7415 30.6755-73.7998 32.656-73.7998L163.975-73.7998C165.955-73.7998 167.1-72.7415 167.1-70.637L167.1 0.171729C167.1 2.27617 165.955 3.33452 163.975 3.33452L32.656 3.33452C30.6755 3.33452 29.5304 2.27617 29.5304 0.171729ZM36.2219-4.58862C36.2219-3.76549 36.6552-3.33219 37.4783-3.33219L84.1782-3.33219C77.9701-9.74244 74.2973-21.0003 74.2973-35.3131C74.2973-49.5454 77.9516-60.7414 84.0793-67.1331L37.4783-67.1331C36.6552-67.1331 36.2219-66.6998 36.2219-65.8333ZM81.8312-35.3131C81.8312-16.6633 88.4545-4.68826 98.1139-4.68826C108.046-4.68826 114.861-16.6633 114.861-35.3131C114.861-53.9009 108.046-65.8389 98.1139-65.8389C88.4545-65.8389 81.8312-53.9009 81.8312-35.3131ZM112.341-3.33219L159.152-3.33219C159.976-3.33219 160.409-3.76549 160.409-4.58862L160.409-65.8333C160.409-66.6998 159.976-67.1331 159.152-67.1331L112.421-67.1331C118.698-60.7414 122.395-49.5454 122.395-35.3131C122.395-21.0003 118.636-9.74244 112.341-3.33219Z"/>
  </g>
  <g id="Medium-L" transform="matrix(1 0 0 1 1648.5 1556)">
   <path d="M16.084 11.353C16.084 14.3601 18.0355 16.3366 21.0201 16.3366L175.085 16.3366C178.092 16.3366 180.021 14.3601 180.021 11.353L180.021-81.8265C180.021-84.8336 178.092-86.7626 175.085-86.7626L21.0201-86.7626C18.0355-86.7626 16.084-84.8336 16.084-81.8265ZM28.5122 0.579973L28.5122-71.0534C28.5122-73.2152 29.7263-74.3344 31.7721-74.3344L164.333-74.3344C166.379-74.3344 167.593-73.2152 167.593-71.0534L167.593 0.579973C167.593 2.7417 166.379 3.86094 164.333 3.86094L31.7721 3.86094C29.7263 3.86094 28.5122 2.7417 28.5122 0.579973ZM34.8515-3.73065C34.8515-2.88305 35.2931-2.4415 36.1407-2.4415L84.2047-2.4415C77.6434-8.88903 73.7539-20.5094 73.7539-35.3171C73.7539-50.0445 77.6209-61.5949 84.1018-68.0319L36.1407-68.0319C35.2931-68.0319 34.8515-67.5904 34.8515-66.6954ZM80.8558-35.3171C80.8558-16.1841 87.7197-3.65725 97.8651-3.65725C108.255-3.65725 115.308-16.1841 115.308-35.3171C115.308-54.3922 108.255-66.8861 97.8651-66.8861C87.7197-66.8861 80.8558-54.3922 80.8558-35.3171ZM111.793-2.4415L159.965-2.4415C160.812-2.4415 161.254-2.88305 161.254-3.73065L161.254-66.6954C161.254-67.5904 160.812-68.0319 159.965-68.0319L111.873-68.0319C118.495-61.5949 122.409-50.0445 122.409-35.3171C122.409-20.5094 118.437-8.88903 111.793-2.4415Z"/>
  </g>
  <g id="Regular-L" transform="matrix(1 0 0 1 1352.13 1556)">
   <path d="M16.084 11.1194C16.084 13.8912 17.8681 15.7004 20.6122 15.7004L174.808 15.7004C177.58 15.7004 179.336 13.8912 179.336 11.1194L179.336-81.6035C179.336-84.3753 177.58-86.1318 174.808-86.1318L20.6122-86.1318C17.8681-86.1318 16.084-84.3753 16.084-81.6035ZM27.1841 1.11247L27.1841-71.5966C27.1841-73.833 28.4883-75.0317 30.6192-75.0317L164.801-75.0317C166.932-75.0317 168.236-73.833 168.236-71.5966L168.236 1.11247C168.236 3.34892 166.932 4.54757 164.801 4.54757L30.6192 4.54757C28.4883 4.54757 27.1841 3.34892 27.1841 1.11247ZM33.0642-2.61156C33.0642-1.73204 33.5165-1.27973 34.396-1.27973L84.2393-1.27973C77.2172-7.77589 73.0452-19.8691 73.0452-35.3225C73.0452-50.6954 77.1896-62.7082 84.1312-69.2044L34.396-69.2044C33.5165-69.2044 33.0642-68.752 33.0642-67.8198ZM79.5835-35.3225C79.5835-15.5592 86.7613-2.31244 97.5405-2.31244C108.528-2.31244 115.889-15.5592 115.889-35.3225C115.889-55.033 108.528-68.2521 97.5405-68.2521C86.7613-68.2521 79.5835-55.033 79.5835-35.3225ZM111.078-1.27973L161.024-1.27973C161.904-1.27973 162.356-1.73204 162.356-2.61156L162.356-67.8198C162.356-68.752 161.904-69.2044 161.024-69.2044L111.158-69.2044C118.231-62.7082 122.428-50.6954 122.428-35.3225C122.428-19.8691 118.178-7.77589 111.078-1.27973Z"/>
  </g>
  <g id="Light-L" transform="matrix(1 0 0 1 1057.53 1556)">
   <path d="M16.084 10.2224C16.084 12.6316 17.6009 14.1354 19.9633 14.1354L171.239 14.1354C173.648 14.1354 175.118 12.6316 175.118 10.2224L175.118-80.6684C175.118-83.0775 173.648-84.5477 171.239-84.5477L19.9633-84.5477C17.6009-84.5477 16.084-83.0775 16.084-80.6684ZM26.6306 0.635333L26.6306-71.0813C26.6306-72.9742 27.7249-74.0011 29.5504-74.0011L161.652-74.0011C163.478-74.0011 164.572-72.9742 164.572-71.0813L164.572 0.635333C164.572 2.52826 163.478 3.55514 161.652 3.55514L29.5504 3.55514C27.7249 3.55514 26.6306 2.52826 26.6306 0.635333ZM31.5182-2.4398C31.5182-1.67479 31.8942-1.29882 32.6592-1.29882L83.3232-1.29882C75.7286-7.39419 71.1749-19.5637 71.1749-35.3034C71.1749-50.9626 75.6818-63.0517 83.196-69.1471L32.6592-69.1471C31.8942-69.1471 31.5182-68.7711 31.5182-67.9724ZM76.4536-35.3034C76.4536-15.3874 84.0894-2.04525 95.5366-2.04525C107.059-2.04525 114.782-15.3874 114.782-35.3034C114.782-55.1857 107.059-68.4811 95.5366-68.4811C84.0894-68.4811 76.4536-55.1857 76.4536-35.3034ZM107.872-1.29882L158.543-1.29882C159.308-1.29882 159.684-1.67479 159.684-2.4398L159.684-67.9724C159.684-68.7711 159.308-69.1471 158.543-69.1471L107.952-69.1471C115.521-63.0517 120.061-50.9626 120.061-35.3034C120.061-19.5637 115.487-7.39419 107.872-1.29882Z"/>
  </g>
  <g id="Thin-L" transform="matrix(1 0 0 1 763.61 1556)">
   <path d="M16.084 9.03607C16.084 10.9656 17.2475 12.0656 19.1051 12.0656L166.519 12.0656C168.448 12.0656 169.54 10.9656 169.54 9.03607L169.54-79.4315C169.54-81.361 168.448-82.4526 166.519-82.4526L19.1051-82.4526C17.2475-82.4526 16.084-81.361 16.084-79.4315ZM25.8986 0.0042877L25.8986-70.3997C25.8986-71.8383 26.7152-72.638 28.1369-72.638L157.487-72.638C158.909-72.638 159.725-71.8383 159.725-70.3997L159.725 0.0042877C159.725 1.44286 158.909 2.24256 157.487 2.24256L28.1369 2.24256C26.7152 2.24256 25.8986 1.44286 25.8986 0.0042877ZM29.4737-2.21262C29.4737-1.59906 29.7487-1.32406 30.3622-1.32406L82.1116-1.32406C73.7597-6.88935 68.7012-19.1599 68.7012-35.2781C68.7012-51.316 73.6877-63.5061 81.9592-69.0714L30.3622-69.0714C29.7487-69.0714 29.4737-68.7964 29.4737-68.1744ZM72.3139-35.2781C72.3139-15.1602 80.5555-1.69186 92.8862-1.69186C105.115-1.69186 113.318-15.1602 113.318-35.2781C113.318-55.3876 105.115-68.784 92.8862-68.784C80.5555-68.784 72.3139-55.3876 72.3139-35.2781ZM103.631-1.32406L155.262-1.32406C155.875-1.32406 156.15-1.59906 156.15-2.21262L156.15-68.1744C156.15-68.7964 155.875-69.0714 155.262-69.0714L103.711-69.0714C111.936-63.5061 116.931-51.316 116.931-35.2781C116.931-19.1599 111.928-6.88935 103.631-1.32406Z"/>
  </g>
  <g id="Ultralight-L" transform="matrix(1 0 0 1 468.328 1556)">
   <path d="M16.084 8.42842C16.084 10.1123 17.0665 11.0055 18.6655 11.0055L164.101 11.0055C165.785 11.0055 166.683 10.1123 166.683 8.42842L166.683-78.798C166.683-80.4819 165.785-81.3795 164.101-81.3795L18.6655-81.3795C17.0665-81.3795 16.084-80.4819 16.084-78.798ZM25.5237-0.318931L25.5237-70.0506C25.5237-71.2565 26.198-71.9398 27.4129-71.9398L155.354-71.9398C156.569-71.9398 157.243-71.2565 157.243-70.0506L157.243-0.318931C157.243 0.886922 156.569 1.57027 155.354 1.57027L27.4129 1.57027C26.198 1.57027 25.5237 0.886922 25.5237-0.318931ZM28.4264-2.09626C28.4264-1.56028 28.6497-1.33699 29.1857-1.33699L81.491-1.33699C72.7513-6.63078 67.4341-18.953 67.4341-35.2652C67.4341-51.497 72.6664-63.7388 81.3257-69.0326L29.1857-69.0326C28.6497-69.0326 28.4264-68.8093 28.4264-68.2778ZM70.1936-35.2652C70.1936-15.0439 78.7455-1.51086 91.5287-1.51086C104.12-1.51086 112.569-15.0439 112.569-35.2652C112.569-55.491 104.12-68.9391 91.5287-68.9391C78.7455-68.9391 70.1936-55.491 70.1936-35.2652ZM101.459-1.33699L153.581-1.33699C154.117-1.33699 154.34-1.56028 154.34-2.09626L154.34-68.2778C154.34-68.8093 154.117-69.0326 153.581-69.0326L101.539-69.0326C110.1-63.7388 115.328-51.497 115.328-35.2652C115.328-18.953 110.105-6.63078 101.459-1.33699Z"/>
  </g>
  <g id="Black-M" transform="matrix(1 0 0 1 2856.56 1126)">
   <path d="M12.4609 1.64224C12.4609 4.94437 14.661 7.1502 17.9634 7.1502L135.722 7.1502C139.025 7.1502 141.225 4.94437 141.225 1.64224L141.225-72.0499C141.225-75.352 139.025-77.5524 135.722-77.5524L17.9634-77.5524C14.661-77.5524 12.4609-75.352 12.4609-72.0499ZM28.085-10.1282L28.085-60.2795C28.085-61.4894 28.5349-61.9283 29.6196-61.9283L124.066-61.9283C125.151-61.9283 125.601-61.4894 125.601-60.2795L125.601-10.1282C125.601-8.91826 125.151-8.47939 124.066-8.47939L29.6196-8.47939C28.5349-8.47939 28.085-8.91826 28.085-10.1282ZM34.7972-15.9782C34.7972-15.5091 35.0632-15.2432 35.5323-15.2432L64.7642-15.2432C61.631-19.8755 59.8036-26.7026 59.8036-35.2661C59.8036-43.7674 61.6313-50.5893 64.7022-55.1645L35.5323-55.1645C35.0632-55.1645 34.7972-54.8985 34.7972-54.4239ZM67.501-35.2661C67.501-23.3258 71.5131-16.9399 76.6493-16.9399C82.0989-16.9399 86.2475-23.3258 86.2475-35.2661C86.2475-47.1439 82.0989-53.473 76.6493-53.473C71.5131-53.473 67.501-47.1439 67.501-35.2661ZM88.8476-15.2432L118.154-15.2432C118.623-15.2432 118.889-15.5091 118.889-15.9782L118.889-54.4239C118.889-54.8985 118.623-55.1645 118.154-55.1645L88.9099-55.1645C92.1117-50.5893 93.9449-43.7674 93.9449-35.2661C93.9449-26.7026 92.0491-19.8755 88.8476-15.2432Z"/>
  </g>
  <g id="Heavy-M" transform="matrix(1 0 0 1 2559.83 1126)">
   <path d="M12.4609 1.53555C12.4609 4.61392 14.5039 6.67104 17.58 6.67104L136.134 6.67104C139.212 6.67104 141.253 4.61392 141.253 1.53555L141.253-71.965C141.253-75.0434 139.212-77.0841 136.134-77.0841L17.58-77.0841C14.5039-77.0841 12.4609-75.0434 12.4609-71.965ZM26.5017-9.34319L26.5017-61.0863C26.5017-62.4658 27.1121-63.0434 28.3715-63.0434L125.342-63.0434C126.602-63.0434 127.212-62.4658 127.212-61.0863L127.212-9.34319C127.212-7.9637 126.602-7.38614 125.342-7.38614L28.3715-7.38614C27.1121-7.38614 26.5017-7.9637 26.5017-9.34319ZM32.8384-14.5808C32.8384-14.0462 33.1346-13.75 33.6692-13.75L65.0053-13.75C61.4046-18.5308 59.297-25.9475 59.297-35.2771C59.297-44.5443 61.4023-51.9423 64.9407-56.6795L33.6692-56.6795C33.1346-56.6795 32.8384-56.3833 32.8384-55.8323ZM66.5427-35.2771C66.5427-22.5616 70.8587-15.2736 76.6638-15.2736C82.7644-15.2736 87.2311-22.5616 87.2311-35.2771C87.2311-47.9324 82.7644-55.1746 76.6638-55.1746C70.8587-55.1746 66.5427-47.9324 66.5427-35.2771ZM88.6201-13.75L120.045-13.75C120.579-13.75 120.875-14.0462 120.875-14.5808L120.875-55.8323C120.875-56.3833 120.579-56.6795 120.045-56.6795L88.6824-56.6795C92.355-51.9423 94.4767-44.5443 94.4767-35.2771C94.4767-25.9475 92.2949-18.5308 88.6201-13.75Z"/>
  </g>
  <g id="Bold-M" transform="matrix(1 0 0 1 2263.11 1126)">
   <path d="M12.4609 1.41619C12.4609 4.24426 14.3282 6.13504 17.1512 6.13504L136.594 6.13504C139.422 6.13504 141.284 4.24426 141.284 1.41619L141.284-71.8701C141.284-74.6982 139.422-76.5603 136.594-76.5603L17.1512-76.5603C14.3282-76.5603 12.4609-74.6982 12.4609-71.8701ZM24.7305-8.46507L24.7305-61.9889C24.7305-63.558 25.5205-64.2907 26.9753-64.2907L126.769-64.2907C128.224-64.2907 129.014-63.558 129.014-61.9889L129.014-8.46507C129.014-6.89589 128.224-6.16319 126.769-6.16319L26.9753-6.16319C25.5205-6.16319 24.7305-6.89589 24.7305-8.46507ZM30.6472-13.0176C30.6472-12.4097 30.9771-12.0797 31.585-12.0797L65.275-12.0797C61.1514-17.0265 58.7303-25.1029 58.7303-35.2893C58.7303-45.4133 61.1462-53.456 65.2075-58.3742L31.585-58.3742C30.9771-58.3742 30.6472-58.0442 30.6472-57.4077ZM65.4707-35.2893C65.4707-21.7069 70.1267-13.4097 76.68-13.4097C83.5088-13.4097 88.3313-21.7069 88.3313-35.2893C88.3313-48.8145 83.5088-57.078 76.68-57.078C70.1267-57.078 65.4707-48.8145 65.4707-35.2893ZM88.3657-12.0797L122.16-12.0797C122.768-12.0797 123.098-12.4097 123.098-13.0176L123.098-57.4077C123.098-58.0442 122.768-58.3742 122.16-58.3742L88.428-58.3742C92.6271-53.456 95.0717-45.4133 95.0717-35.2893C95.0717-25.1029 92.57-17.0265 88.3657-12.0797Z"/>
  </g>
  <g id="Semibold-M" transform="matrix(1 0 0 1 1966.38 1126)">
   <path d="M12.4609 1.33391C12.4609 3.98942 14.2071 5.76552 16.8555 5.76552L136.911 5.76552C139.566 5.76552 141.305 3.98942 141.305 1.33391L141.305-71.8047C141.305-74.4602 139.566-76.1992 136.911-76.1992L16.8555-76.1992C14.2071-76.1992 12.4609-74.4602 12.4609-71.8047ZM23.5095-7.8597L23.5095-62.6111C23.5095-64.311 24.4232-65.1507 26.0128-65.1507L127.753-65.1507C129.343-65.1507 130.257-64.311 130.257-62.6111L130.257-7.8597C130.257-6.15975 129.343-5.3201 127.753-5.3201L26.0128-5.3201C24.4232-5.3201 23.5095-6.15975 23.5095-7.8597ZM29.1366-11.9399C29.1366-11.2815 29.4898-10.9283 30.1482-10.9283L65.4609-10.9283C60.9768-15.9895 58.3396-24.5206 58.3396-35.2977C58.3396-46.0125 60.9697-54.4994 65.3915-59.5425L30.1482-59.5425C29.4898-59.5425 29.1366-59.1893 29.1366-58.4938ZM64.7316-35.2977C64.7316-21.1176 69.622-12.1247 76.6912-12.1247C84.0221-12.1247 89.0899-21.1176 89.0899-35.2977C89.0899-49.4226 84.0221-58.3902 76.6912-58.3902C69.622-58.3902 64.7316-49.4226 64.7316-35.2977ZM88.1903-10.9283L123.618-10.9283C124.276-10.9283 124.63-11.2815 124.63-11.9399L124.63-58.4938C124.63-59.1893 124.276-59.5425 123.618-59.5425L88.2526-59.5425C92.8147-54.4994 95.4818-46.0125 95.4818-35.2977C95.4818-24.5206 92.7595-15.9895 88.1903-10.9283Z"/>
  </g>
  <g id="Medium-M" transform="matrix(1 0 0 1 1669.66 1126)">
   <path d="M12.4609 1.27152C12.4609 3.7962 14.1152 5.48533 16.6313 5.48533L137.151 5.48533C139.676 5.48533 141.322 3.7962 141.322 1.27152L141.322-71.755C141.322-74.2797 139.676-75.9254 137.151-75.9254L16.6313-75.9254C14.1152-75.9254 12.4609-74.2797 12.4609-71.755ZM22.5837-7.40068L22.5837-63.0829C22.5837-64.882 23.5913-65.8027 25.283-65.8027L128.5-65.8027C130.191-65.8027 131.199-64.882 131.199-63.0829L131.199-7.40068C131.199-5.60157 130.191-4.68082 128.5-4.68082L25.283-4.68082C23.5913-4.68082 22.5837-5.60157 22.5837-7.40068ZM27.9911-11.1227C27.9911-10.426 28.362-10.0551 29.0587-10.0551L65.6019-10.0551C60.8444-15.2032 58.0434-24.0791 58.0434-35.3041C58.0434-46.4668 60.8358-55.2906 65.531-60.4284L29.0587-60.4284C28.362-60.4284 27.9911-60.0575 27.9911-59.3174ZM64.1712-35.3041C64.1712-20.6708 69.2394-11.1504 76.6996-11.1504C84.4112-11.1504 89.665-20.6708 89.665-35.3041C89.665-49.8837 84.4112-59.3852 76.6996-59.3852C69.2394-59.3852 64.1712-49.8837 64.1712-35.3041ZM88.0573-10.0551L124.724-10.0551C125.421-10.0551 125.791-10.426 125.791-11.1227L125.791-59.3174C125.791-60.0575 125.421-60.4284 124.724-60.4284L88.1196-60.4284C92.957-55.2906 95.7929-46.4668 95.7929-35.3041C95.7929-24.0791 92.9033-15.2032 88.0573-10.0551Z"/>
  </g>
  <g id="Regular-M" transform="matrix(1 0 0 1 1372.94 1126)">
   <path d="M12.4609 1.19014C12.4609 3.54416 13.9954 5.11987 16.3389 5.11987L137.465 5.11987C139.819 5.11987 141.343 3.54416 141.343 1.19014L141.343-71.6903C141.343-74.0443 139.819-75.5683 137.465-75.5683L16.3389-75.5683C13.9954-75.5683 12.4609-74.0443 12.4609-71.6903ZM21.3761-6.80196L21.3761-63.6982C21.3761-65.6267 22.5061-66.6532 24.331-66.6532L129.473-66.6532C131.298-66.6532 132.428-65.6267 132.428-63.6982L132.428-6.80196C132.428-4.87352 131.298-3.84699 129.473-3.84699L24.331-3.84699C22.5061-3.84699 21.3761-4.87352 21.3761-6.80196ZM26.4971-10.0569C26.4971-9.31024 26.8911-8.91631 27.6377-8.91631L65.7857-8.91631C60.6717-14.1776 57.657-23.5032 57.657-35.3124C57.657-47.0593 60.6612-56.3226 65.7129-61.5839L27.6377-61.5839C26.8911-61.5839 26.4971-61.1899 26.4971-60.3915ZM63.4403-35.3124C63.4403-20.088 68.7402-9.87953 76.7107-9.87953C84.9188-9.87953 90.4152-20.088 90.4152-35.3124C90.4152-50.4851 84.9188-60.683 76.7107-60.683C68.7402-60.683 63.4403-50.4851 63.4403-35.3124ZM87.8839-8.91631L126.166-8.91631C126.913-8.91631 127.307-9.31024 127.307-10.0569L127.307-60.3915C127.307-61.1899 126.913-61.5839 126.166-61.5839L87.9462-61.5839C93.1426-56.3226 96.1985-47.0593 96.1985-35.3124C96.1985-23.5032 93.0908-14.1776 87.8839-8.91631Z"/>
  </g>
  <g id="Light-M" transform="matrix(1 0 0 1 1078.12 1126)">
   <path d="M12.4609 0.385922C12.4609 2.41484 13.7559 3.71678 15.7571 3.71678L134.265 3.71678C136.294 3.71678 137.561 2.41484 137.561 0.385922L137.561-70.8519C137.561-72.8808 136.294-74.1481 134.265-74.1481L15.7571-74.1481C13.7559-74.1481 12.4609-72.8808 12.4609-70.8519ZM20.8798-7.22973L20.8798-63.2362C20.8798-64.8567 21.8216-65.7292 23.3728-65.7292L126.649-65.7292C128.201-65.7292 129.142-64.8567 129.142-63.2362L129.142-7.22973C129.142-5.60929 128.201-4.73676 126.649-4.73676L23.3728-4.73676C21.8216-4.73676 20.8798-5.60929 20.8798-7.22973ZM25.1111-9.9029C25.1111-9.25891 25.4366-8.93342 26.0806-8.93342L64.9644-8.93342C59.3371-13.8353 55.9801-23.2294 55.9801-35.2953C55.9801-47.2989 59.3094-56.6306 64.8744-61.5325L26.0806-61.5325C25.4366-61.5325 25.1111-61.2071 25.1111-60.5284ZM60.6341-35.2953C60.6341-19.934 66.3447-9.63998 74.914-9.63998C83.6013-9.63998 89.4228-19.934 89.4228-35.2953C89.4228-50.622 83.6013-60.8883 74.914-60.8883C66.3447-60.8883 60.6341-50.622 60.6341-35.2953ZM85.0092-8.93342L123.942-8.93342C124.586-8.93342 124.911-9.25891 124.911-9.9029L124.911-60.5284C124.911-61.2071 124.586-61.5325 123.942-61.5325L85.0715-61.5325C90.7128-56.6306 94.0768-47.2989 94.0768-35.2953C94.0768-23.2294 90.6782-13.8353 85.0092-8.93342Z"/>
  </g>
  <g id="Thin-M" transform="matrix(1 0 0 1 783.912 1126)">
   <path d="M12.4609-0.677716C12.4609 0.921218 13.4391 1.86107 14.9877 1.86107L130.033 1.86107C131.632 1.86107 132.56 0.921218 132.56-0.677716L132.56-69.743C132.56-71.3419 131.632-72.2698 130.033-72.2698L14.9877-72.2698C13.4391-72.2698 12.4609-71.3419 12.4609-69.743ZM20.2235-7.7955L20.2235-62.6252C20.2235-63.8383 20.9164-64.5072 22.1055-64.5072L122.915-64.5072C124.104-64.5072 124.797-63.8383 124.797-62.6252L124.797-7.7955C124.797-6.5824 124.104-5.91355 122.915-5.91355L22.1055-5.91355C20.9164-5.91355 20.2235-6.5824 20.2235-7.7955ZM23.2781-9.69922C23.2781-9.19102 23.513-8.95605 24.0212-8.95605L63.8781-8.95605C57.5719-13.3827 53.7623-22.8673 53.7623-35.2727C53.7623-47.6157 57.5216-57.038 63.7655-61.4646L24.0212-61.4646C23.513-61.4646 23.2781-61.2297 23.2781-60.7095ZM56.9227-35.2727C56.9227-19.7303 63.1764-9.32315 72.5378-9.32315C81.8587-9.32315 88.1102-19.7303 88.1102-35.2727C88.1102-50.803 81.8587-61.1599 72.5378-61.1599C63.1764-61.1599 56.9227-50.803 56.9227-35.2727ZM81.2073-8.95605L121-8.95605C121.508-8.95605 121.743-9.19102 121.743-9.69922L121.743-60.7095C121.743-61.2297 121.508-61.4646 121-61.4646L81.2696-61.4646C87.4993-57.038 91.2706-47.6157 91.2706-35.2727C91.2706-22.8673 87.4873-13.3827 81.2073-8.95605Z"/>
  </g>
  <g id="Ultralight-M" transform="matrix(1 0 0 1 488.482 1126)">
   <path d="M12.4609-1.22251C12.4609 0.156193 13.2768 0.910583 14.5936 0.910583L127.866 0.910583C129.244 0.910583 129.998 0.156193 129.998-1.22251L129.998-69.175C129.998-70.5537 129.244-71.3077 127.866-71.3077L14.5936-71.3077C13.2768-71.3077 12.4609-70.5537 12.4609-69.175ZM19.8874-8.08528L19.8874-62.3122C19.8874-63.3167 20.4528-63.8812 21.4564-63.8812L121.003-63.8812C122.006-63.8812 122.572-63.3167 122.572-62.3122L122.572-8.08528C122.572-7.08083 122.006-6.5163 121.003-6.5163L21.4564-6.5163C20.4528-6.5163 19.8874-7.08083 19.8874-8.08528ZM22.3392-9.5949C22.3392-9.15624 22.5278-8.96765 22.9664-8.96765L63.3218-8.96765C56.6678-13.1509 52.6264-22.6818 52.6264-35.2611C52.6264-47.778 56.6059-57.2466 63.1976-61.4299L22.9664-61.4299C22.5278-61.4299 22.3392-61.2413 22.3392-60.8022ZM55.0218-35.2611C55.0218-19.626 61.5536-9.16087 71.3208-9.16087C80.9662-9.16087 87.4379-19.626 87.4379-35.2611C87.4379-50.8958 80.9662-61.299 71.3208-61.299C61.5536-61.299 55.0218-50.8958 55.0218-35.2611ZM79.26-8.96765L119.493-8.96765C119.931-8.96765 120.12-9.15624 120.12-9.5949L120.12-60.8022C120.12-61.2413 119.931-61.4299 119.493-61.4299L79.3223-61.4299C85.8533-57.2466 89.8332-47.778 89.8332-35.2611C89.8332-22.6818 85.8529-13.1509 79.26-8.96765Z"/>
  </g>
  <g id="Black-S" transform="matrix(1 0 0 1 2873.29 696)">
   <path d="M9.76562-6.34766C9.76562-3.71094 11.5234-1.95312 14.1602-1.95312L106.055-1.95312C108.691-1.95312 110.449-3.71094 110.449-6.34766L110.449-64.0625C110.449-66.6992 108.691-68.457 106.055-68.457L14.1602-68.457C11.5234-68.457 9.76562-66.6992 9.76562-64.0625ZM22.4609-15.8203L22.4609-54.5898C22.4609-55.4688 22.7539-55.7617 23.5352-55.7617L96.6797-55.7617C97.4609-55.7617 97.7539-55.4688 97.7539-54.5898L97.7539-15.8203C97.7539-14.9414 97.4609-14.6484 96.6797-14.6484L23.5352-14.6484C22.7539-14.6484 22.4609-14.9414 22.4609-15.8203ZM27.7832-20.5566C27.7832-20.2148 27.9785-20.0195 28.3203-20.0195L50.6348-20.0195C48.291-23.584 46.9238-28.7598 46.9238-35.2539C46.9238-41.6992 48.291-46.875 50.5859-50.3906L28.3203-50.3906C27.9785-50.3906 27.7832-50.1953 27.7832-49.8535ZM53.0273-35.2539C53.0273-26.123 56.1035-21.3867 59.9609-21.3867C64.0625-21.3867 67.2363-26.123 67.2363-35.2539C67.2363-44.3359 64.0625-49.0234 59.9609-49.0234C56.1035-49.0234 53.0273-44.3359 53.0273-35.2539ZM69.5312-20.0195L91.8945-20.0195C92.2363-20.0195 92.4316-20.2148 92.4316-20.5566L92.4316-49.8535C92.4316-50.1953 92.2363-50.3906 91.8945-50.3906L69.5801-50.3906C71.9727-46.875 73.3398-41.6992 73.3398-35.2539C73.3398-28.7598 71.9238-23.584 69.5312-20.0195Z"/>
  </g>
  <g id="Heavy-S" transform="matrix(1 0 0 1 2576.33 696)">
   <path d="M9.76562-6.33613C9.76562-3.84923 11.4197-2.18361 13.9066-2.18361L106.815-2.18361C109.302-2.18361 110.956-3.84923 110.956-6.33613L110.956-64.0971C110.956-66.584 109.302-68.2381 106.815-68.2381L13.9066-68.2381C11.4197-68.2381 9.76562-66.584 9.76562-64.0971ZM21.1702-15.0943L21.1702-55.3389C21.1702-56.4022 21.6245-56.8335 22.5902-56.8335L98.1318-56.8335C99.0974-56.8335 99.5517-56.4022 99.5517-55.3389L99.5517-15.0943C99.5517-14.031 99.0974-13.5997 98.1318-13.5997L22.5902-13.5997C21.6245-13.5997 21.1702-14.031 21.1702-15.0943ZM26.285-19.3811C26.285-18.9702 26.5149-18.7403 26.9259-18.7403L50.9459-18.7403C48.268-22.4776 46.7049-28.149 46.7049-35.2654C46.7049-42.3331 48.268-47.9929 50.8971-51.6929L26.9259-51.6929C26.5149-51.6929 26.285-51.463 26.285-51.0405ZM52.5664-35.2654C52.5664-25.4892 55.85-19.9923 60.203-19.9923C64.8001-19.9923 68.2044-25.4892 68.2044-35.2654C68.2044-44.9928 64.8001-50.4525 60.203-50.4525C55.85-50.4525 52.5664-44.9928 52.5664-35.2654ZM69.7041-18.7403L93.7961-18.7403C94.207-18.7403 94.4369-18.9702 94.4369-19.3811L94.4369-51.0405C94.4369-51.463 94.207-51.6929 93.7961-51.6929L69.7529-51.6929C72.4913-47.9929 74.0659-42.3331 74.0659-35.2654C74.0659-28.149 72.4424-22.4776 69.7041-18.7403Z"/>
  </g>
  <g id="Bold-S" transform="matrix(1 0 0 1 2279.33 696)">
   <path d="M9.76562-6.32324C9.76562-4.00391 11.3037-2.44141 13.623-2.44141L107.666-2.44141C109.985-2.44141 111.523-4.00391 111.523-6.32324L111.523-64.1357C111.523-66.4551 109.985-67.9932 107.666-67.9932L13.623-67.9932C11.3037-67.9932 9.76562-66.4551 9.76562-64.1357ZM19.7266-14.2822L19.7266-56.1768C19.7266-57.4463 20.3613-58.0322 21.5332-58.0322L99.7559-58.0322C100.928-58.0322 101.562-57.4463 101.562-56.1768L101.562-14.2822C101.562-13.0127 100.928-12.4268 99.7559-12.4268L21.5332-12.4268C20.3613-12.4268 19.7266-13.0127 19.7266-14.2822ZM24.6094-18.0664C24.6094-17.5781 24.8779-17.3096 25.3662-17.3096L51.2939-17.3096C48.2422-21.2402 46.46-27.4658 46.46-35.2783C46.46-43.042 48.2422-49.2432 51.2451-53.1494L25.3662-53.1494C24.8779-53.1494 24.6094-52.8809 24.6094-52.3682ZM52.0508-35.2783C52.0508-24.7803 55.5664-18.4326 60.4736-18.4326C65.625-18.4326 69.2871-24.7803 69.2871-35.2783C69.2871-45.7275 65.625-52.0508 60.4736-52.0508C55.5664-52.0508 52.0508-45.7275 52.0508-35.2783ZM69.8975-17.3096L95.9229-17.3096C96.4111-17.3096 96.6797-17.5781 96.6797-18.0664L96.6797-52.3682C96.6797-52.8809 96.4111-53.1494 95.9229-53.1494L69.9463-53.1494C73.0713-49.2432 74.8779-43.042 74.8779-35.2783C74.8779-27.4658 73.0225-21.2402 69.8975-17.3096Z"/>
  </g>
  <g id="Semibold-S" transform="matrix(1 0 0 1 1982.43 696)">
   <path d="M9.76562-6.31436C9.76562-4.11055 11.2237-2.61914 13.4275-2.61914L108.253-2.61914C110.456-2.61914 111.914-4.11055 111.914-6.31436L111.914-64.1624C111.914-66.3662 110.456-67.8243 108.253-67.8243L13.4275-67.8243C11.2237-67.8243 9.76562-66.3662 9.76562-64.1624ZM18.7312-13.7224L18.7312-56.7544C18.7312-58.1661 19.4904-58.8587 20.8045-58.8587L100.876-58.8587C102.19-58.8587 102.949-58.1661 102.949-56.7544L102.949-13.7224C102.949-12.3106 102.19-11.6181 100.876-11.6181L20.8045-11.6181C19.4904-11.6181 18.7312-12.3106 18.7312-13.7224ZM23.4541-17.16C23.4541-16.6184 23.7493-16.3231 24.2909-16.3231L51.5339-16.3231C48.2244-20.3871 46.2911-26.9948 46.2911-35.2872C46.2911-43.5308 48.2244-50.1052 51.4851-54.1536L24.2909-54.1536C23.7493-54.1536 23.4541-53.8584 23.4541-53.2835ZM51.6953-35.2872C51.6953-24.2915 55.3709-17.3573 60.6603-17.3573C66.1937-17.3573 70.0336-24.2915 70.0336-35.2872C70.0336-46.2341 66.1937-53.1527 60.6603-53.1527C55.3709-53.1527 51.6953-46.2341 51.6953-35.2872ZM70.0308-16.3231L97.3892-16.3231C97.9308-16.3231 98.226-16.6184 98.226-17.16L98.226-53.2835C98.226-53.8584 97.9308-54.1536 97.3892-54.1536L70.0796-54.1536C73.4712-50.1052 75.4378-43.5308 75.4378-35.2872C75.4378-26.9948 73.4224-20.3871 70.0308-16.3231Z"/>
  </g>
  <g id="Medium-S" transform="matrix(1 0 0 1 1685.57 696)">
   <path d="M9.76562-6.30762C9.76562-4.19141 11.1631-2.75391 13.2793-2.75391L108.697-2.75391C110.813-2.75391 112.211-4.19141 112.211-6.30762L112.211-64.1826C112.211-66.2988 110.813-67.6963 108.697-67.6963L13.2793-67.6963C11.1631-67.6963 9.76562-66.2988 9.76562-64.1826ZM17.9766-13.2979L17.9766-57.1924C17.9766-58.7119 18.8301-59.4854 20.252-59.4854L101.725-59.4854C103.146-59.4854 104-58.7119 104-57.1924L104-13.2979C104-11.7783 103.146-11.0049 101.725-11.0049L20.252-11.0049C18.8301-11.0049 17.9766-11.7783 17.9766-13.2979ZM22.5781-16.4727C22.5781-15.8906 22.8936-15.5752 23.4756-15.5752L51.7158-15.5752C48.2109-19.7402 46.1631-26.6377 46.1631-35.2939C46.1631-43.9014 48.2109-50.7588 51.667-54.915L23.4756-54.915C22.8936-54.915 22.5781-54.5996 22.5781-53.9775ZM51.4258-35.2939C51.4258-23.9209 55.2227-16.542 60.8018-16.542C66.625-16.542 70.5996-23.9209 70.5996-35.2939C70.5996-46.6182 66.625-53.9883 60.8018-53.9883C55.2227-53.9883 51.4258-46.6182 51.4258-35.2939ZM70.1318-15.5752L98.501-15.5752C99.083-15.5752 99.3984-15.8906 99.3984-16.4727L99.3984-53.9775C99.3984-54.5996 99.083-54.915 98.501-54.915L70.1807-54.915C73.7744-50.7588 75.8623-43.9014 75.8623-35.2939C75.8623-26.6377 73.7256-19.7402 70.1318-15.5752Z"/>
  </g>
  <g id="Regular-S" transform="matrix(1 0 0 1 1388.66 696)">
   <path d="M9.76562-6.29883C9.76562-4.29688 11.084-2.92969 13.0859-2.92969L109.277-2.92969C111.279-2.92969 112.598-4.29688 112.598-6.29883L112.598-64.209C112.598-66.2109 111.279-67.5293 109.277-67.5293L13.0859-67.5293C11.084-67.5293 9.76562-66.2109 9.76562-64.209ZM16.9922-12.7441L16.9922-57.7637C16.9922-59.4238 17.9688-60.3027 19.5312-60.3027L102.832-60.3027C104.395-60.3027 105.371-59.4238 105.371-57.7637L105.371-12.7441C105.371-11.084 104.395-10.2051 102.832-10.2051L19.5312-10.2051C17.9688-10.2051 16.9922-11.084 16.9922-12.7441ZM21.4355-15.5762C21.4355-14.9414 21.7773-14.5996 22.4121-14.5996L51.9531-14.5996C48.1934-18.8965 45.9961-26.1719 45.9961-35.3027C45.9961-44.3848 48.1934-51.6113 51.9043-55.9082L22.4121-55.9082C21.7773-55.9082 21.4355-55.5664 21.4355-54.8828ZM51.0742-35.3027C51.0742-23.4375 55.0293-15.4785 60.9863-15.4785C67.1875-15.4785 71.3379-23.4375 71.3379-35.3027C71.3379-47.1191 67.1875-55.0781 60.9863-55.0781C55.0293-55.0781 51.0742-47.1191 51.0742-35.3027ZM70.2637-14.5996L99.9512-14.5996C100.586-14.5996 100.928-14.9414 100.928-15.5762L100.928-54.8828C100.928-55.5664 100.586-55.9082 99.9512-55.9082L70.3125-55.9082C74.1699-51.6113 76.416-44.3848 76.416-35.3027C76.416-26.1719 74.1211-18.8965 70.2637-14.5996Z"/>
  </g>
  <g id="Light-S" transform="matrix(1 0 0 1 1093.62 696)">
   <path d="M9.76562-7.01025C9.76562-5.29589 10.8721-4.17089 12.5713-4.17089L106.447-4.17089C108.161-4.17089 109.252-5.29589 109.252-7.01025L109.252-63.4673C109.252-65.1816 108.161-66.273 106.447-66.273L12.5713-66.273C10.8721-66.273 9.76562-65.1816 9.76562-63.4673ZM16.5532-13.1226L16.5532-57.355C16.5532-58.7427 17.3633-59.4854 18.6836-59.4854L100.334-59.4854C101.655-59.4854 102.465-58.7427 102.465-57.355L102.465-13.1226C102.465-11.7349 101.655-10.9922 100.334-10.9922L18.6836-10.9922C17.3633-10.9922 16.5532-11.7349 16.5532-13.1226ZM20.2095-15.4399C20.2095-14.896 20.4907-14.6147 21.0347-14.6147L51.2266-14.6147C47.0127-18.5938 44.5127-25.9297 44.5127-35.2876C44.5127-44.5967 46.9976-51.8838 51.1626-55.8628L21.0347-55.8628C20.4907-55.8628 20.2095-55.5815 20.2095-55.0039ZM48.5918-35.2876C48.5918-23.3013 52.9102-15.2666 59.397-15.2666C66.022-15.2666 70.46-23.3013 70.46-35.2876C70.46-47.2402 66.022-55.2598 59.397-55.2598C52.9102-55.2598 48.5918-47.2402 48.5918-35.2876ZM67.7207-14.6147L97.9834-14.6147C98.5274-14.6147 98.8086-14.896 98.8086-15.4399L98.8086-55.0039C98.8086-55.5815 98.5274-55.8628 97.9834-55.8628L67.7696-55.8628C72.0205-51.8838 74.5391-44.5967 74.5391-35.2876C74.5391-25.9297 71.9868-18.5938 67.7207-14.6147Z"/>
  </g>
  <g id="Thin-S" transform="matrix(1 0 0 1 799.125 696)">
   <path d="M9.76562-7.95116C9.76562-6.61717 10.5918-5.81248 11.8906-5.81248L102.703-5.81248C104.037-5.81248 104.828-6.61717 104.828-7.95116L104.828-62.4863C104.828-63.8203 104.037-64.6114 102.703-64.6114L11.8906-64.6114C10.5918-64.6114 9.76562-63.8203 9.76562-62.4863ZM15.9727-13.623L15.9727-56.8145C15.9727-57.8418 16.5625-58.4043 17.5625-58.4043L97.0313-58.4043C98.0313-58.4043 98.6211-57.8418 98.6211-56.8145L98.6211-13.623C98.6211-12.5957 98.0313-12.0332 97.0313-12.0332L17.5625-12.0332C16.5625-12.0332 15.9727-12.5957 15.9727-13.623ZM18.5879-15.2598C18.5879-14.8359 18.7891-14.6348 19.2129-14.6348L50.2656-14.6348C45.4512-18.1934 42.5508-25.6094 42.5508-35.2676C42.5508-44.8769 45.416-52.2441 50.1817-55.8027L19.2129-55.8027C18.7891-55.8027 18.5879-55.6016 18.5879-55.1641ZM45.3086-35.2676C45.3086-23.1211 50.1075-14.9863 57.295-14.9863C64.4805-14.9863 69.2988-23.1211 69.2988-35.2676C69.2988-47.4004 64.4805-55.5 57.295-55.5C50.1075-55.5 45.3086-47.4004 45.3086-35.2676ZM64.3575-14.6348L95.3809-14.6348C95.8047-14.6348 96.0059-14.8359 96.0059-15.2598L96.0059-55.1641C96.0059-55.6016 95.8047-55.8027 95.3809-55.8027L64.4063-55.8027C69.1778-52.2441 72.0567-44.8769 72.0567-35.2676C72.0567-25.6094 69.1641-18.1934 64.3575-14.6348Z"/>
  </g>
  <g id="Ultralight-S" transform="matrix(1 0 0 1 503.547 696)">
   <path d="M9.76562-8.43309C9.76562-7.29392 10.4482-6.65329 11.542-6.65329L100.786-6.65329C101.925-6.65329 102.562-7.29392 102.562-8.43309L102.562-61.9839C102.562-63.1231 101.925-63.7603 100.786-63.7603L11.542-63.7603C10.4482-63.7603 9.76562-63.1231 9.76562-61.9839ZM15.6753-13.8794L15.6753-56.5376C15.6753-57.3804 16.1524-57.8506 16.9883-57.8506L95.3394-57.8506C96.1754-57.8506 96.6524-57.3804 96.6524-56.5376L96.6524-13.8794C96.6524-13.0366 96.1754-12.5664 95.3394-12.5664L16.9883-12.5664C16.1524-12.5664 15.6753-13.0366 15.6753-13.8794ZM17.7574-15.1675C17.7574-14.8052 17.9175-14.645 18.2798-14.645L49.7735-14.645C44.6514-17.9883 41.5459-25.4453 41.5459-35.2573C41.5459-45.0205 44.606-52.4287 49.6792-55.772L18.2798-55.772C17.9175-55.772 17.7574-55.6118 17.7574-55.2461ZM43.627-35.2573C43.627-23.0288 48.6719-14.8428 56.2183-14.8428C63.6909-14.8428 68.7041-23.0288 68.7041-35.2573C68.7041-47.4824 63.6909-55.623 56.2183-55.623C48.6719-55.623 43.627-47.4824 43.627-35.2573ZM62.6348-14.645L94.0479-14.645C94.4102-14.645 94.5704-14.8052 94.5704-15.1675L94.5704-55.2461C94.5704-55.6118 94.4102-55.772 94.0479-55.772L62.6837-55.772C67.7217-52.4287 70.7852-45.0205 70.7852-35.2573C70.7852-25.4453 67.7183-17.9883 62.6348-14.645Z"/>
  </g>
 </g>
</svg>
