<?xml version="1.0" encoding="UTF-8"?>
<svg width="3300px" height="2200px" viewBox="0 0 3300 2200" version="1.1" xmlns="http://www.w3.org/2000/svg" xmlns:xlink="http://www.w3.org/1999/xlink">
    <title>roadout</title>
    <g id="roadout" stroke="none" stroke-width="1" fill="none" fill-rule="evenodd">
        <g id="car.fill">
            <g id="Notes">
                <rect id="artboard" fill="#FFFFFF" fill-rule="nonzero" x="0" y="0" width="3300" height="2200"></rect>
                <line x1="263" y1="292" x2="3036" y2="292" id="Path" stroke="#000000" stroke-width="0.5"></line>
                <text id="Weight/Scale-Variations" fill="#000000" fill-rule="nonzero" font-family="Helvetica" font-size="13" font-weight="normal">
                    <tspan x="263" y="322">Weight/Scale Variations</tspan>
                </text>
                <text id="Ultralight" fill="#000000" fill-rule="nonzero" font-family="Helvetica" font-size="13" font-weight="normal">
                    <tspan x="533.711" y="322">Ultralight</tspan>
                </text>
                <text id="Thin" fill="#000000" fill-rule="nonzero" font-family="Helvetica" font-size="13" font-weight="normal">
                    <tspan x="843.422" y="322">Thin</tspan>
                </text>
                <text id="Light" fill="#000000" fill-rule="nonzero" font-family="Helvetica" font-size="13" font-weight="normal">
                    <tspan x="1138.63" y="322">Light</tspan>
                </text>
                <text id="Regular" fill="#000000" fill-rule="nonzero" font-family="Helvetica" font-size="13" font-weight="normal">
                    <tspan x="1426.84" y="322">Regular</tspan>
                </text>
                <text id="Medium" fill="#000000" fill-rule="nonzero" font-family="Helvetica" font-size="13" font-weight="normal">
                    <tspan x="1723.06" y="322">Medium</tspan>
                </text>
                <text id="Semibold" fill="#000000" fill-rule="nonzero" font-family="Helvetica" font-size="13" font-weight="normal">
                    <tspan x="2015.77" y="322">Semibold</tspan>
                </text>
                <text id="Bold" fill="#000000" fill-rule="nonzero" font-family="Helvetica" font-size="13" font-weight="normal">
                    <tspan x="2326.48" y="322">Bold</tspan>
                </text>
                <text id="Heavy" fill="#000000" fill-rule="nonzero" font-family="Helvetica" font-size="13" font-weight="normal">
                    <tspan x="2618.19" y="322">Heavy</tspan>
                </text>
                <text id="Black" fill="#000000" fill-rule="nonzero" font-family="Helvetica" font-size="13" font-weight="normal">
                    <tspan x="2917.4" y="322">Black</tspan>
                </text>
                <line x1="263" y1="1903" x2="3036" y2="1903" id="Path" stroke="#000000" stroke-width="0.5"></line>
                <g id="Group" transform="translate(264.000000, 1918.000000)" fill="#000000" fill-rule="nonzero">
                    <path d="M8.24805,15.830078 C12.5547,15.830078 16.1387,12.25586 16.1387,7.94922 C16.1387,3.6426 12.5449,0.0684 8.23828,0.0684 C3.94141,0.0684 0.36719,3.6426 0.36719,7.94922 C0.36719,12.25586 3.95117,15.830078 8.24805,15.830078 Z M8.24805,14.345703 C4.70312,14.345703 1.87109,11.50391 1.87109,7.94922 C1.87109,4.3945 4.69336,1.5527 8.23828,1.5527 C11.793,1.5527 14.6445,4.3945 14.6445,7.94922 C14.6445,11.50391 11.8027,14.345703 8.24805,14.345703 Z M4.6543,7.94922 C4.6543,8.37891 4.95703,8.67188 5.40625,8.67188 L7.50586,8.67188 L7.50586,10.79102 C7.50586,11.23047 7.79883,11.5332 8.22852,11.5332 C8.67773,11.5332 8.9707,11.23047 8.9707,10.79102 L8.9707,8.67188 L11.0898,8.67188 C11.5293,8.67188 11.832,8.37891 11.832,7.94922 C11.832,7.50977 11.5293,7.20703 11.0898,7.20703 L8.9707,7.20703 L8.9707,5.09766 C8.9707,4.6484 8.67773,4.3457 8.22852,4.3457 C7.79883,4.3457 7.50586,4.6484 7.50586,5.09766 L7.50586,7.20703 L5.40625,7.20703 C4.95703,7.20703 4.6543,7.50977 4.6543,7.94922 Z" id="Shape"></path>
                </g>
                <g id="Group" transform="translate(282.867000, 1915.000000)" fill="#000000" fill-rule="nonzero">
                    <path d="M10.709,20.91016 C16.1582,20.91016 20.6699,16.38867 20.6699,10.94922 C20.6699,5.5 16.1484,0.9883 10.6992,0.9883 C5.25977,0.9883 0.74805,5.5 0.74805,10.94922 C0.74805,16.38867 5.26953,20.91016 10.709,20.91016 Z M10.709,19.25 C6.09961,19.25 2.41797,15.55859 2.41797,10.94922 C2.41797,6.3398 6.08984,2.6484 10.6992,2.6484 C15.3086,2.6484 19.0098,6.3398 19.0098,10.94922 C19.0098,15.55859 15.3184,19.25 10.709,19.25 Z M6.17773,10.94922 C6.17773,11.42773 6.50977,11.75 7.00781,11.75 L9.8789,11.75 L9.8789,14.63086 C9.8789,15.11914 10.2109,15.46094 10.6895,15.46094 C11.1777,15.46094 11.5195,15.12891 11.5195,14.63086 L11.5195,11.75 L14.4004,11.75 C14.8887,11.75 15.2305,11.42773 15.2305,10.94922 C15.2305,10.46094 14.8887,10.11914 14.4004,10.11914 L11.5195,10.11914 L11.5195,7.248 C11.5195,6.75 11.1777,6.4082 10.6895,6.4082 C10.2109,6.4082 9.8789,6.75 9.8789,7.248 L9.8789,10.11914 L7.00781,10.11914 C6.50977,10.11914 6.17773,10.46094 6.17773,10.94922 Z" id="Shape"></path>
                </g>
                <g id="Group" transform="translate(307.646000, 1913.000000)" fill="#000000" fill-rule="nonzero">
                    <path d="M12.9707,25.66406 C19.9336,25.66406 25.6953,19.9023438 25.6953,12.94922 C25.6953,5.9863 19.9238,0.2246 12.9609,0.2246 C6.00781,0.2246 0.25586,5.9863 0.25586,12.94922 C0.25586,19.9023438 6.01758,25.66406 12.9707,25.66406 Z M12.9707,23.84766 C6.93555,23.84766 2.08203,18.98438 2.08203,12.94922 C2.08203,6.9043 6.92578,2.0508 12.9609,2.0508 C19.0059,2.0508 23.8691,6.9043 23.8691,12.94922 C23.8691,18.98438 19.0156,23.84766 12.9707,23.84766 Z M7.19922,12.94922 C7.19922,13.4668 7.57031,13.82812 8.1172,13.82812 L12.0625,13.82812 L12.0625,17.7832 C12.0625,18.32031 12.4336,18.70117 12.9512,18.70117 C13.4883,18.70117 13.8594,18.33008 13.8594,17.7832 L13.8594,13.82812 L17.8145,13.82812 C18.3516,13.82812 18.7324,13.4668 18.7324,12.94922 C18.7324,12.40234 18.3613,12.03125 17.8145,12.03125 L13.8594,12.03125 L13.8594,8.0859 C13.8594,7.5391 13.4883,7.1582 12.9512,7.1582 C12.4336,7.1582 12.0625,7.5391 12.0625,8.0859 L12.0625,12.03125 L8.1172,12.03125 C7.57031,12.03125 7.19922,12.40234 7.19922,12.94922 Z" id="Shape"></path>
                </g>
                <text id="Design-Variations" fill="#000000" fill-rule="nonzero" font-family="Helvetica" font-size="13" font-weight="normal">
                    <tspan x="263" y="1953">Design Variations</tspan>
                </text>
                <text id="Symbols-are-supported-in-up-to-nine-weights-and-three-scales." fill="#000000" fill-rule="nonzero" font-family="Helvetica" font-size="13" font-weight="normal">
                    <tspan x="263" y="1971">Symbols are supported in up to nine weights and three scales.</tspan>
                </text>
                <text id="For-optimal-layout-with-text-and-other-symbols,-vertically-align" fill="#000000" fill-rule="nonzero" font-family="Helvetica" font-size="13" font-weight="normal">
                    <tspan x="263" y="1989">For optimal layout with text and other symbols, vertically align</tspan>
                </text>
                <text id="symbols-with-the-adjacent-text." fill="#000000" fill-rule="nonzero" font-family="Helvetica" font-size="13" font-weight="normal">
                    <tspan x="263" y="2007">symbols with the adjacent text.</tspan>
                </text>
                <line x1="776" y1="1919" x2="776" y2="1933" id="Path" stroke="#00AEEF" stroke-width="0.5"></line>
                <g id="Group" transform="translate(778.000000, 1918.000000)" fill="#000000" fill-rule="nonzero">
                    <path d="M1.31055,15.15625 C1.82812,15.15625 2.08203,14.9609375 2.26758,14.414062 L3.52734,10.9668 L9.2891,10.9668 L10.5488,14.414062 C10.7344,14.9609375 10.9883,15.15625 11.4961,15.15625 C12.0137,15.15625 12.3457,14.84375 12.3457,14.355469 C12.3457,14.189453 12.3164,14.033203 12.2383,13.82812 L7.6582,1.6309 C7.43359,1.0352 7.0332,0.7324 6.4082,0.7324 C5.80273,0.7324 5.39258,1.0254 5.17773,1.6211 L0.59766,13.83789 C0.51953,14.042969 0.49023,14.199219 0.49023,14.365234 C0.49023,14.853516 0.80273,15.15625 1.31055,15.15625 Z M4.00586,9.48242 L6.37891,2.9102 L6.42773,2.9102 L8.8008,9.48242 L4.00586,9.48242 Z" id="Shape"></path>
                </g>
                <line x1="793.197" y1="1919" x2="793.197" y2="1933" id="Path" stroke="#00AEEF" stroke-width="0.5"></line>
                <text id="Margins" fill="#000000" fill-rule="nonzero" font-family="Helvetica" font-size="13" font-weight="normal">
                    <tspan x="776" y="1953">Margins</tspan>
                </text>
                <text id="Leading-and-trailing-margins-on-the-left-and-right-side-of-each-symbol" fill="#000000" fill-rule="nonzero" font-family="Helvetica" font-size="13" font-weight="normal">
                    <tspan x="776" y="1971">Leading and trailing margins on the left and right side of each symbol</tspan>
                </text>
                <text id="can-be-adjusted-by-modifying-the-x-location-of-the-margin-guidelines." fill="#000000" fill-rule="nonzero" font-family="Helvetica" font-size="13" font-weight="normal">
                    <tspan x="776" y="1989">can be adjusted by modifying the x-location of the margin guidelines.</tspan>
                </text>
                <text id="Modifications-are-automatically-applied-proportionally-to-all" fill="#000000" fill-rule="nonzero" font-family="Helvetica" font-size="13" font-weight="normal">
                    <tspan x="776" y="2007">Modifications are automatically applied proportionally to all</tspan>
                </text>
                <text id="scales-and-weights." fill="#000000" fill-rule="nonzero" font-family="Helvetica" font-size="13" font-weight="normal">
                    <tspan x="776" y="2025">scales and weights.</tspan>
                </text>
                <g id="Group" transform="translate(1291.000000, 1914.000000)" fill="#000000" fill-rule="nonzero">
                    <path d="M0.8418,20.86523 L2.54102,22.57422 C3.40039,23.44336 4.38672,23.38477 5.31445,22.35938 L16.0078,10.57227 L15.041,9.5957 L4.42578,21.27539 C4.07422,21.67578 3.74219,21.77344 3.27344,21.30469 L2.10156,20.14258 C1.63281,19.683594 1.74023,19.341797 2.14062,18.9804688 L13.6152,8.1797 L12.6387,7.2129 L1.04688,18.101562 C0.06055,19.0195312 -0.01758,19.996094 0.8418,20.86523 Z M7.25781,2.6719 C6.83789,3.082 6.80859,3.6582 7.04297,4.0488 C7.27734,4.4102 7.73633,4.6445 8.3809,4.4785 C9.8457,4.1367 11.3691,4.0781 12.7949,5.0156 L12.209,6.4707 C11.8672,7.3008 12.043,7.8867 12.5801,8.4336 L14.875,10.74805 C15.3633,11.23633 15.7734,11.25586 16.3398,11.1582 L17.4043,10.96289 L18.0684,11.63672 L18.0293,12.19336 C17.9902,12.69141 18.1172,13.07227 18.6055,13.55078 L19.3672,14.29297 C19.8457,14.77148 20.4609,14.80078 20.9297,14.33203 L23.8398,11.41211 C24.3086,10.94336 24.2891,10.34766 23.8105,9.86914 L23.0391,9.10742 C22.5605,8.6289 22.1895,8.4727 21.7109,8.5117 L21.1348,8.5605 L20.4902,7.9258 L20.7344,6.8027 C20.8613,6.2363 20.7051,5.7969 20.1191,5.2109 L17.9219,3.0234 C14.582,-0.2969 10.1484,-0.2188 7.25781,2.6719 Z M8.752,3.043 C11.1836,1.2656 14.4746,1.5684 16.7012,3.7949 L19.1328,6.207 C19.3672,6.4414 19.4062,6.627 19.3379,6.9688 L19.0156,8.4531 L20.5195,9.9375 L21.5059,9.87891 C21.7598,9.86914 21.8379,9.88867 22.0332,10.08398 L22.6094,10.66016 L20.168,13.10156 L19.5918,12.52539 C19.3965,12.33008 19.3672,12.25195 19.377,11.98828 L19.4453,11.01172 L17.9512,9.52734 L16.4277,9.78125 C16.1055,9.84961 15.959,9.82031 15.7148,9.58594 L13.7129,7.584 C13.459,7.3496 13.4297,7.1836 13.5859,6.8125 L14.4648,4.7227 C12.9023,3.2676 10.8711,2.6426 8.8398,3.2383 C8.6836,3.2773 8.625,3.1504 8.752,3.043 Z" id="Shape"></path>
                </g>
                <text id="Exporting" fill="#000000" fill-rule="nonzero" font-family="Helvetica" font-size="13" font-weight="normal">
                    <tspan x="1289" y="1953">Exporting</tspan>
                </text>
                <text id="Symbols-should-be-outlined-when-exporting-to-ensure-the" fill="#000000" fill-rule="nonzero" font-family="Helvetica" font-size="13" font-weight="normal">
                    <tspan x="1289" y="1971">Symbols should be outlined when exporting to ensure the</tspan>
                </text>
                <text id="design-is-preserved-when-submitting-to-Xcode." fill="#000000" fill-rule="nonzero" font-family="Helvetica" font-size="13" font-weight="normal">
                    <tspan x="1289" y="1989">design is preserved when submitting to Xcode.</tspan>
                </text>
                <text id="template-version" fill="#000000" fill-rule="nonzero" font-family="Helvetica" font-size="13" font-weight="normal">
                    <tspan x="2952" y="1933">Template v.4.0</tspan>
                </text>
                <text id="Requires-Xcode-14-or-greater" fill="#000000" fill-rule="nonzero" font-family="Helvetica" font-size="13" font-weight="normal">
                    <tspan x="2865" y="1951">Requires Xcode 14 or greater</tspan>
                </text>
                <text id="Generated-from-roado" fill="#000000" fill-rule="nonzero" font-family="Helvetica" font-size="13" font-weight="normal">
                    <tspan x="2897.25293" y="1969">Generated from roadout</tspan>
                </text>
                <text id="Typeset-at-100-points" fill="#000000" fill-rule="nonzero" font-family="Helvetica" font-size="13" font-weight="normal">
                    <tspan x="2912" y="1987">Typeset at 100 points</tspan>
                </text>
                <text id="Small" fill="#000000" fill-rule="nonzero" font-family="Helvetica" font-size="13" font-weight="normal">
                    <tspan x="263" y="726">Small</tspan>
                </text>
                <text id="Medium" fill="#000000" fill-rule="nonzero" font-family="Helvetica" font-size="13" font-weight="normal">
                    <tspan x="263" y="1156">Medium</tspan>
                </text>
                <text id="Large" fill="#000000" fill-rule="nonzero" font-family="Helvetica" font-size="13" font-weight="normal">
                    <tspan x="263" y="1586">Large</tspan>
                </text>
            </g>
            <g id="Guides" transform="translate(263.000000, 625.000000)">
                <g id="H-reference" transform="translate(76.000000, 0.000000)" fill="#27AAE1" fill-rule="nonzero">
                    <path d="M0.993654,71 L3.63775,71 L29.3281,3.8677 L30.0303,3.8677 L30.0303,0.541 L28.1226,0.541 L0.993654,71 Z M11.6885,46.5201 L46.9815,46.5201 L46.2315,44.2715 L12.4385,44.2715 L11.6885,46.5201 Z M55.1196,71 L57.7637,71 L30.6382,0.541 L29.4326,0.541 L29.4326,3.8677 L55.1196,71 Z" id="Shape"></path>
                </g>
                <line x1="0" y1="71" x2="2773" y2="71" id="Baseline-S" stroke="#27AAE1" stroke-width="0.5"></line>
                <line x1="0" y1="0.541" x2="2773" y2="0.541" id="Capline-S" stroke="#27AAE1" stroke-width="0.5"></line>
                <g id="H-reference" transform="translate(76.000000, 430.000000)" fill="#27AAE1" fill-rule="nonzero">
                    <path d="M0.993654,71 L3.63775,71 L29.3281,3.8677 L30.0303,3.8677 L30.0303,0.541 L28.1226,0.541 L0.993654,71 Z M11.6885,46.5201 L46.9815,46.5201 L46.2315,44.2715 L12.4385,44.2715 L11.6885,46.5201 Z M55.1196,71 L57.7637,71 L30.6382,0.541 L29.4326,0.541 L29.4326,3.8677 L55.1196,71 Z" id="Shape"></path>
                </g>
                <line x1="0" y1="501" x2="2773" y2="501" id="Baseline-M" stroke="#27AAE1" stroke-width="0.5"></line>
                <line x1="0" y1="430.54" x2="2773" y2="430.54" id="Capline-M" stroke="#27AAE1" stroke-width="0.5"></line>
                <g id="H-reference" transform="translate(76.000000, 860.000000)" fill="#27AAE1" fill-rule="nonzero">
                    <path d="M0.993654,71 L3.63775,71 L29.3281,3.8677 L30.0303,3.8677 L30.0303,0.541 L28.1226,0.541 L0.993654,71 Z M11.6885,46.5201 L46.9815,46.5201 L46.2315,44.2715 L12.4385,44.2715 L11.6885,46.5201 Z M55.1196,71 L57.7637,71 L30.6382,0.541 L29.4326,0.541 L29.4326,3.8677 L55.1196,71 Z" id="Shape"></path>
                </g>
                <line x1="0" y1="931" x2="2773" y2="931" id="Baseline-L" stroke="#27AAE1" stroke-width="0.5"></line>
                <line x1="0" y1="860.54" x2="2773" y2="860.54" id="Capline-L" stroke="#27AAE1" stroke-width="0.5"></line>
                <line x1="1116.62" y1="405.79" x2="1116.62" y2="525.12" id="left-margin-Regular-M" stroke="#00AEEF" stroke-width="0.5"></line>
                <line x1="1257.07" y1="405.79" x2="1257.07" y2="525.12" id="right-margin-Regular-M" stroke="#00AEEF" stroke-width="0.5"></line>
            </g>
            <g id="Symbols" transform="translate(494.000000, 619.000000)" fill="#000000" fill-rule="nonzero">
                <g id="Black-L" transform="translate(2363.480000, 835.000000)">
                    <path d="M112.370726,0 C121.409831,0 129.370073,6.01379081 131.927704,14.7748746 L140.968142,45.737207 C147.965593,50.8399312 152.52,59.1512198 152.52,68.537458 L152.52,90.6788966 C152.52,95.4502074 150.552713,99.7796738 147.374385,102.856377 L147.374167,123.380418 C147.374167,126.484027 144.884433,129 141.813191,129 L128.789309,129 C125.718067,129 123.228333,126.484027 123.228333,123.380418 L123.228551,108.097342 C111.548477,108.45944 96.4757723,108.64521 78.0104356,108.654652 L76.52,108.655031 C57.3737543,108.655031 41.8042371,108.469135 29.8114479,108.097342 L29.8116666,123.380418 C29.8116666,126.484027 27.3219331,129 24.250691,129 L11.2268089,129 C8.15556692,129 5.66583334,126.484027 5.66583334,123.380418 L5.66560979,102.856374 C2.4872808,99.7796695 0.52,95.4502008 0.52,90.6788878 L0.52,68.537458 C0.52,59.4341886 4.80394123,51.3420322 11.445716,46.2073954 L20.6633069,14.7547777 C23.2275749,6.00376482 31.1829785,0 40.2144078,0 L112.370726,0 Z M92.9834146,32 L54.0565854,32 C43.819112,32 35.52,40.7304474 35.52,51.5 C35.52,62.2695526 43.819112,71 54.0565854,71 L54.0565854,71 L92.9834146,71 C103.220888,71 111.52,62.2695526 111.52,51.5 C111.52,40.7304474 103.220888,32 92.9834146,32 L92.9834146,32 Z" id="Combined-Shape"></path>
                </g>
                <g id="Heavy-L" transform="translate(2068.340000, 837.000000)">
                    <path d="M109.567285,0 C118.36852,0 126.119282,5.87393521 128.609607,14.4312728 L137.412139,44.673551 C144.225446,49.6576072 148.66,57.7756101 148.66,66.9435636 L148.66,88.5700851 C148.66,93.2304351 146.744484,97.4592163 143.649796,100.464368 L143.649583,120.511106 C143.649583,123.542538 141.225369,126 138.234949,126 L125.553801,126 C122.563381,126 120.139167,123.542538 120.139167,120.511106 L120.139379,105.583451 C108.766675,105.937128 94.0906204,106.118577 76.1112136,106.1278 L74.66,106.12817 C56.0176029,106.12817 40.8578098,105.946597 29.1806203,105.583451 L29.1808333,120.511106 C29.1808333,123.542538 26.7566191,126 23.7661991,126 L11.0850508,126 C8.09463095,126 5.67041667,123.542538 5.67041667,120.511106 L5.670199,100.464365 C2.57551025,97.4592121 0.66,93.2304287 0.66,88.5700765 L0.66,66.9435636 C0.66,58.0519982 4.83120594,50.1480315 11.2981972,45.1328048 L20.2732199,14.4116433 C22.7700072,5.86414239 30.516058,0 39.3098181,0 L109.567285,0 Z M90.3673171,31 L51.9526829,31 C41.8499131,31 33.66,39.2827321 33.66,49.5 C33.66,59.7172679 41.8499131,68 51.9526829,68 L51.9526829,68 L90.3673171,68 C100.470087,68 108.66,59.7172679 108.66,49.5 C108.66,39.2827321 100.470087,31 90.3673171,31 L90.3673171,31 Z" id="Combined-Shape"></path>
                </g>
                <g id="Bold-L" transform="translate(1773.540000, 840.000000)">
                    <path d="M106.423845,0 C114.987208,0 122.52849,5.68746108 124.951509,13.9731372 L133.516135,43.2553431 C140.145298,48.0811752 144.46,55.9414637 144.46,64.8183711 L144.46,85.7583363 C144.46,90.2707388 142.596255,94.3652729 139.585207,97.275023 L139.585,116.685356 C139.585,119.620553 137.226305,122 134.316707,122 L121.978293,122 C119.068695,122 116.71,119.620553 116.71,116.685356 L116.710206,102.231595 C105.644873,102.574044 91.3654685,102.749734 73.8719916,102.758663 L72.46,102.759022 C54.3214515,102.759022 39.5713825,102.583213 28.2097927,102.231595 L28.2099999,116.685356 C28.2099999,119.620553 25.8513051,122 22.9417073,122 L10.6032927,122 C7.69369498,122 5.33500001,119.620553 5.33500001,116.685356 L5.33478822,97.2750203 C2.3237397,94.3652689 0.46,90.2707326 0.46,85.758328 L0.46,64.8183711 C0.46,56.2090776 4.51847064,48.5560305 10.8106784,43.7000174 L19.5431329,13.9541308 C21.9724394,5.67797914 29.5091376,0 38.0652284,0 L106.423845,0 Z M87.655122,29 L50.264878,29 C40.4315154,29 32.46,37.2827321 32.46,47.5 C32.46,57.7172679 40.4315154,66 50.264878,66 L50.264878,66 L87.655122,66 C97.4884846,66 105.46,57.7172679 105.46,47.5 C105.46,37.2827321 97.4884846,29 87.655122,29 L87.655122,29 Z" id="Combined-Shape"></path>
                </g>
                <g id="Semibold-L" transform="translate(1477.150000, 841.000000)">
                    <path d="M105.342125,0 C113.786553,0 121.223095,5.59422401 123.612461,13.7440694 L132.058133,42.5462391 C138.595225,47.2929592 142.85,55.0243905 142.85,63.7557749 L142.85,84.352462 C142.85,88.7908906 141.01214,92.8183012 138.042912,95.6803505 L138.042708,114.772482 C138.042708,117.65956 135.716773,120 132.847586,120 L120.680539,120 C117.811352,120 115.485417,117.65956 115.485417,114.772482 L115.48562,100.555667 C104.573972,100.892503 90.4928925,101.065312 73.2423807,101.074095 L71.85,101.074448 C53.9633757,101.074448 39.4181689,100.901521 28.2143789,100.555667 L28.2145833,114.772482 C28.2145833,117.65956 25.888648,120 23.0194613,120 L10.8524136,120 C7.983227,120 5.65729167,117.65956 5.65729167,114.772482 L5.65708283,95.6803478 C2.68785443,92.8182972 0.85,88.7908845 0.85,84.3524538 L0.85,63.7557749 C0.85,55.2876173 4.85210299,47.76003 11.0569189,42.9836236 L19.6680894,13.7253746 C22.0636555,5.58489751 29.4956773,0 37.9329336,0 L105.342125,0 Z M87.5329268,29 L51.1670732,29 C41.6031177,29 33.85,37.2827321 33.85,47.5 C33.85,57.7172679 41.6031177,66 51.1670732,66 L51.1670732,66 L87.5329268,66 C97.0968823,66 104.85,57.7172679 104.85,47.5 C104.85,37.2827321 97.0968823,29 87.5329268,29 L87.5329268,29 Z" id="Combined-Shape"></path>
                </g>
                <g id="Medium-L" transform="translate(1182.430000, 842.000000)">
                    <path d="M103.590405,0 C111.915897,0 119.247699,5.50098695 121.603412,13.5150015 L129.930131,41.8371351 C136.375151,46.5047432 140.57,54.1073174 140.57,62.6931786 L140.57,82.9465876 C140.57,87.3110424 138.758025,91.2713296 135.830618,94.085678 L135.830417,112.859607 C135.830417,115.698568 133.537241,118 130.708465,118 L118.712785,118 C115.884009,118 113.590833,115.698568 113.590833,112.859607 L113.591034,98.8797396 C102.833071,99.2109608 88.9503166,99.3808899 71.9427697,99.3895266 L70.57,99.3898734 C52.9353,99.3898734 38.5949552,99.2198288 27.5489651,98.8797396 L27.5491666,112.859607 C27.5491666,115.698568 25.255991,118 22.4272154,118 L10.4315346,118 C7.60275901,118 5.30958334,115.698568 5.30958334,112.859607 L5.30937744,94.0856754 C2.38196916,91.2713256 0.57,87.3110364 0.57,82.9465796 L0.57,62.6931786 C0.57,54.3661571 4.51573535,46.9640295 10.6331595,42.2672299 L19.1230459,13.4966183 C21.4848716,5.49181588 28.8122171,0 37.1306387,0 L103.590405,0 Z M84.7407317,29 L49.3992683,29 C40.1047201,29 32.57,36.8350169 32.57,46.5 C32.57,56.1649831 40.1047201,64 49.3992683,64 L49.3992683,64 L84.7407317,64 C94.0352799,64 101.57,56.1649831 101.57,46.5 C101.57,36.8350169 94.0352799,29 84.7407317,29 L84.7407317,29 Z" id="Combined-Shape"></path>
                </g>
                <g id="Regular-L" transform="translate(886.020000, 844.000000)">
                    <path d="M102.528685,0 C110.735241,0 117.962303,5.40774988 120.284363,13.2859337 L128.492129,41.1280311 C134.845078,45.7165272 138.98,53.1902442 138.98,61.6305824 L138.98,81.5407132 C138.98,85.8311942 137.193911,89.7243579 134.308323,92.4910054 L134.308125,110.946732 C134.308125,113.737575 132.047709,116 129.259344,116 L117.435031,116 C114.646666,116 112.38625,113.737575 112.38625,110.946732 L112.386448,97.2038118 C101.78217,97.5294191 88.0977406,97.696468 71.3331587,97.7049583 L69.98,97.7052993 C52.5972243,97.7052993 38.4617416,97.5381368 27.5735514,97.2038118 L27.5737499,110.946732 C27.5737499,113.737575 25.313334,116 22.5249695,116 L10.7006555,116 C7.91229102,116 5.65187501,113.737575 5.65187501,110.946732 L5.65167204,92.4910029 C2.76608388,89.724354 0.98,85.8311884 0.98,81.5407053 L0.98,61.6305824 C0.98,53.4446968 4.8693677,46.168029 10.8994001,41.5508362 L19.2680023,13.2678621 C21.5960878,5.39873426 28.8187568,0 37.0183439,0 L102.528685,0 Z M85.1507317,29 L49.8092683,29 C40.5147201,29 32.98,36.8350169 32.98,46.5 C32.98,56.1649831 40.5147201,64 49.8092683,64 L49.8092683,64 L85.1507317,64 C94.4452799,64 101.98,56.1649831 101.98,46.5 C101.98,36.8350169 94.4452799,29 85.1507317,29 L85.1507317,29 Z" id="Combined-Shape"></path>
                </g>
                <g id="Light-L" transform="translate(592.430000, 845.000000)">
                    <path d="M99.1752449,0 C107.14393,0 114.161512,5.31451281 116.416266,13.0568659 L124.386126,40.4189271 C130.554931,44.9283113 134.57,52.273171 134.57,60.5679861 L134.57,80.1348389 C134.57,84.3513461 132.835681,88.1773862 130.033734,90.8963329 L130.033542,109.033858 C130.033542,111.776582 127.838645,114 125.131103,114 L113.649522,114 C110.94198,114 108.747083,111.776582 108.747083,109.033858 L108.747275,95.527884 C98.4503683,95.8478774 85.1625887,96.0120461 68.8839367,96.0203901 L67.57,96.0207251 C50.6910729,96.0207251 36.9653143,95.8564448 26.3927238,95.527884 L26.3929166,109.033858 C26.3929166,111.776582 24.19802,114 21.4904776,114 L10.0088974,114 C7.30135505,114 5.10645834,111.776582 5.10645834,109.033858 L5.10626126,90.8963305 C2.30431334,88.1773824 0.57,84.3513403 0.57,80.1348311 L0.57,60.5679861 C0.57,52.5232365 4.3466324,45.3720285 10.2018813,40.8344425 L18.3279153,13.0391058 C20.58852,5.30565263 27.6018363,0 35.5637542,0 L99.1752449,0 Z M81.2285366,27 L46.9114634,27 C37.8863224,27 30.57,34.8350169 30.57,44.5 C30.57,54.1649831 37.8863224,62 46.9114634,62 L46.9114634,62 L81.2285366,62 C90.2536776,62 97.57,54.1649831 97.57,44.5 C97.57,34.8350169 90.2536776,27 81.2285366,27 L81.2285366,27 Z" id="Combined-Shape"></path>
                </g>
                <g id="Thin-L" transform="translate(296.196000, 847.000000)">
                    <path d="M97.2016648,0 C104.991946,0 111.852418,5.17465721 114.056693,12.7132642 L121.848123,39.3552712 C127.87882,43.7459873 131.804,50.8975613 131.804,58.9740917 L131.804,78.0260273 C131.804,82.1315738 130.108509,85.8569287 127.369292,88.5043242 L127.369104,106.164546 C127.369104,108.835093 125.223347,111 122.576421,111 L111.351891,111 C108.704966,111 106.559208,108.835093 106.559208,106.164546 L106.559396,93.0139923 C96.4930168,93.3255648 83.5027248,93.4854133 67.5885202,93.4935377 L66.304,93.4938639 C49.8029593,93.4938639 36.3844938,93.3339068 26.0486031,93.0139923 L26.0487916,106.164546 C26.0487916,108.835093 23.9030345,111 21.2561087,111 L10.0315788,111 C7.38465307,111 5.23889584,108.835093 5.23889584,106.164546 L5.23870317,88.5043218 C2.49948542,85.8569249 0.804,82.1315682 0.804,78.0260198 L0.804,58.9740917 C0.804,51.141046 4.49608093,44.1780277 10.2202421,39.7598519 L18.16435,12.6959715 C20.3743442,5.1660302 27.230646,0 35.014312,0 L97.2016648,0 Z M79.706439,27 L45.901561,27 C37.0111235,27 29.804,34.3873016 29.804,43.5 C29.804,52.6126984 37.0111235,60 45.901561,60 L45.901561,60 L79.706439,60 C88.5968765,60 95.804,52.6126984 95.804,43.5 C95.804,34.3873016 88.5968765,27 79.706439,27 L79.706439,27 Z" id="Combined-Shape"></path>
                </g>
                <g id="Ultralight-L" transform="translate(0.241000, 848.000000)">
                    <path d="M96.4208048,0 C104.151619,0 110.95972,5.12803868 113.147168,12.5987303 L120.879122,39.0007192 C126.863783,43.3518793 130.759,50.4390247 130.759,58.4427936 L130.759,77.3230901 C130.759,81.3916497 129.076452,85.0834428 126.358145,87.7069879 L126.357958,105.208108 C126.357958,107.854597 124.228581,110 121.601861,110 L110.463014,110 C107.836294,110 105.706917,107.854597 105.706917,105.208108 L105.707103,92.1760284 C95.7175663,92.484794 82.8264368,92.6432024 67.0337147,92.6512536 L65.759,92.6515769 C49.3839215,92.6515769 36.067887,92.4930608 25.8108962,92.1760284 L25.8110833,105.208108 C25.8110833,107.854597 23.681706,110 21.0549857,110 L9.91613923,110 C7.28941908,110 5.16004167,107.854597 5.16004167,105.208108 L5.15985048,87.7069855 C2.44154279,85.0834391 0.759,81.3916441 0.759,77.3230826 L0.759,58.4427936 C0.759,50.6803159 4.42289711,43.7800275 10.1033624,39.401655 L17.9868283,12.5815933 C20.1799522,5.11948938 26.9839159,0 34.7081645,0 L96.4208048,0 Z M79.9053415,27 L46.6126585,27 C37.8569247,27 30.759,34.3873016 30.759,43.5 C30.759,52.6126984 37.8569247,60 46.6126585,60 L46.6126585,60 L79.9053415,60 C88.6610753,60 95.759,52.6126984 95.759,43.5 C95.759,34.3873016 88.6610753,27 79.9053415,27 L79.9053415,27 Z" id="Combined-Shape"></path>
                </g>
                <g id="Black-M" transform="translate(2377.120000, 418.000000)">
                    <path d="M90.6549245,0 C97.9099959,0 104.299138,4.75509041 106.351973,11.682459 L113.608114,36.1643032 C119.224489,40.1990153 122.88,46.770732 122.88,54.1924086 L122.88,71.6995927 C122.88,75.472257 121.300994,78.8955561 118.749967,81.3282979 L118.749792,97.5566094 C118.749792,100.010626 116.751453,102 114.286377,102 L103.832998,102 C101.367922,102 99.3695834,100.010626 99.3695834,97.5566094 L99.3697581,85.4723173 C89.9949622,85.7586271 77.897133,85.905515 63.0762707,85.9129806 L61.88,85.9132804 C46.5126186,85.9132804 34.0160324,85.7662927 24.3902411,85.4723173 L24.3904166,97.5566094 C24.3904166,100.010626 22.3920779,102 19.927002,102 L9.47362297,102 C7.00854714,102 5.01020834,100.010626 5.01020834,97.5566094 L5.01002891,81.3282957 C2.45900169,78.8955527 0.88,75.4722518 0.88,71.6995857 L0.88,54.1924086 C0.88,46.9944747 4.31842652,40.5960255 9.64932472,36.5360801 L17.0476542,11.6665684 C19.1058167,4.74716288 25.4910749,0 32.7399852,0 L90.6549245,0 Z M75.2458537,25 L44.5141463,25 C36.4319305,25 29.88,31.7157287 29.88,40 C29.88,48.2842712 36.4319305,55 44.5141463,55 L44.5141463,55 L75.2458537,55 C83.3280695,55 89.88,48.2842712 89.88,40 C89.88,31.7157287 83.3280695,25 75.2458537,25 L75.2458537,25 Z" id="Combined-Shape"></path>
                </g>
                <g id="Heavy-M" transform="translate(2083.840000, 420.000000)">
                    <path d="M86.9914843,0 C94.0086846,0 100.188346,4.66185334 102.173876,11.4533911 L109.192111,35.4551992 C114.624342,39.4107994 118.16,45.8536588 118.16,53.1298124 L118.16,70.2937183 C118.16,73.9924088 116.632764,77.3485844 114.165378,79.7336254 L114.165208,95.6437347 C114.165208,98.0496337 112.232389,100 109.848135,100 L99.7374899,100 C97.3532361,100 95.4204167,98.0496337 95.4204167,95.6437347 L95.4205857,83.7963895 C86.3531602,84.0770854 74.6519811,84.2210931 60.3170487,84.2284124 L59.16,84.2287063 C44.2964672,84.2287063 32.2096051,84.0846007 22.8994135,83.7963895 L22.8995833,95.6437347 C22.8995833,98.0496337 20.9667639,100 18.5825101,100 L8.47186484,100 C6.08761117,100 4.15479167,98.0496337 4.15479167,95.6437347 L4.15461813,79.7336232 C1.68723115,77.348581 0.16,73.9924038 0.16,70.2937115 L0.16,53.1298124 C0.16,46.0730145 3.48569122,39.800025 8.64180588,35.8196864 L15.7975672,11.4378121 C17.7882489,4.65408126 23.9641544,0 30.9753955,0 L86.9914843,0 Z M71.7697561,25 L41.5502439,25 C33.6027316,25 27.16,31.4918711 27.16,39.5 C27.16,47.5081289 33.6027316,54 41.5502439,54 L41.5502439,54 L71.7697561,54 C79.7172684,54 86.16,47.5081289 86.16,39.5 C86.16,31.4918711 79.7172684,25 71.7697561,25 L71.7697561,25 Z" id="Combined-Shape"></path>
                </g>
                <g id="Bold-M" transform="translate(1788.730000, 422.000000)">
                    <path d="M84.8939042,0 C91.7327011,0 97.7552526,4.52199774 99.6903026,11.1097894 L106.530108,34.3915433 C111.824231,38.2284754 115.27,44.478049 115.27,51.535918 L115.27,68.1849068 C115.27,71.7726366 113.781592,75.0281268 111.376936,77.3416166 L111.376771,92.7744227 C111.376771,95.1081447 109.493091,97 107.169454,97 L97.3158588,97 C94.9922217,97 93.1085417,95.1081447 93.1085417,92.7744227 L93.1087064,81.2824978 C84.2718086,81.5547729 72.8681172,81.6944603 58.8976322,81.70156 L57.77,81.7018451 C43.2843536,81.7018451 31.5047847,81.5620627 22.4312928,81.2824978 L22.4314583,92.7744227 C22.4314583,95.1081447 20.5477783,97 18.2241412,97 L8.37054624,97 C6.04690919,97 4.16322917,95.1081447 4.16322917,92.7744227 L4.16306004,77.3416145 C1.75840324,75.0281236 0.27,71.7726316 0.27,68.1849001 L0.27,51.535918 C0.27,44.690824 3.51113975,38.6060242 8.53616675,34.7450958 L15.510002,11.0946778 C17.4500731,4.51445882 23.468964,0 30.3019532,0 L84.8939042,0 Z M70.1236585,23 L40.4163415,23 C32.6035328,23 26.27,29.4918711 26.27,37.5 C26.27,45.5081289 32.6035328,52 40.4163415,52 L40.4163415,52 L70.1236585,52 C77.9364672,52 84.27,45.5081289 84.27,37.5 C84.27,29.4918711 77.9364672,23 70.1236585,23 L70.1236585,23 Z" id="Combined-Shape"></path>
                </g>
                <g id="Semibold-M" transform="translate(1492.120000, 424.000000)">
                    <path d="M83.2963241,0 C89.9567176,0 95.8221591,4.38214214 97.7067295,10.7661877 L104.368105,33.3278873 C109.524121,37.0461514 112.88,43.1024393 112.88,49.9420236 L112.88,66.0760952 C112.88,69.5528643 111.43042,72.7076693 109.088494,74.9496079 L109.088333,89.9051106 C109.088333,92.1666557 107.253793,94 104.990772,94 L95.3942277,94 C93.1312072,94 91.2966667,92.1666557 91.2966667,89.9051106 L91.2968271,78.7686061 C82.6904571,79.0324603 71.5842533,79.1678275 57.9782157,79.1747076 L56.88,79.1749839 C42.77224,79.1749839 31.2999642,79.0395247 22.4631721,78.7686061 L22.4633333,89.9051106 C22.4633333,92.1666557 20.6287928,94 18.3657723,94 L8.76922765,94 C6.50620721,94 4.67166667,92.1666557 4.67166667,89.9051106 L4.67150195,74.9496058 C2.32957532,72.7076662 0.88,69.5528595 0.88,66.0760888 L0.88,49.9420236 C0.88,43.3086336 4.03658828,37.4120235 8.93052762,33.6705052 L15.7224367,10.7515434 C17.6118973,4.37483638 23.4737737,0 30.128511,0 L83.2963241,0 Z M69.4653659,23 L41.2946341,23 C33.8859363,23 27.88,29.0441559 27.88,36.5 C27.88,43.9558441 33.8859363,50 41.2946341,50 L41.2946341,50 L69.4653659,50 C76.8740637,50 82.88,43.9558441 82.88,36.5 C82.88,29.0441559 76.8740637,23 69.4653659,23 L69.4653659,23 Z" id="Combined-Shape"></path>
                </g>
                <g id="Medium-M" transform="translate(1196.240000, 425.000000)">
                    <path d="M82.4404641,0 C89.0413897,0 94.8544612,4.33552361 96.7222052,10.6516538 L103.324104,32.9733353 C108.434084,36.6520434 111.76,42.6439027 111.76,49.4107255 L111.76,65.373158 C111.76,68.8129402 110.323363,71.9341835 108.002347,74.1522716 L108.002187,88.9486733 C108.002187,91.1861593 106.184027,93 103.941212,93 L94.4303507,93 C92.1875357,93 90.369375,91.1861593 90.369375,88.9486733 L90.369534,77.9306422 C81.8400066,78.1916894 70.8329653,78.3256166 57.3484102,78.3324235 L56.26,78.3326968 C42.2782022,78.3326968 30.9083574,78.1986787 22.1504652,77.9306422 L22.150625,88.9486733 C22.150625,91.1861593 20.3324643,93 18.0896493,93 L8.57878811,93 C6.33597321,93 4.5178125,91.1861593 4.5178125,88.9486733 L4.51764925,74.1522696 C2.19663269,71.9341804 0.76,68.8129355 0.76,65.3731517 L0.76,49.4107255 C0.76,42.8479034 3.88840445,37.0140232 8.7386479,33.3123083 L15.4699149,10.6371653 C17.3425054,4.32829557 23.1520435,0 29.7473636,0 L82.4404641,0 Z M68.3453659,23 L40.1746341,23 C32.7659363,23 26.76,29.0441559 26.76,36.5 C26.76,43.9558441 32.7659363,50 40.1746341,50 L40.1746341,50 L68.3453659,50 C75.7540637,50 81.76,43.9558441 81.76,36.5 C81.76,29.0441559 75.7540637,23 68.3453659,23 L68.3453659,23 Z" id="Combined-Shape"></path>
                </g>
                <g id="Regular-M" transform="translate(901.620000, 426.000000)">
                    <path d="M79.852884,0 C86.2754062,0 91.9313677,4.24228654 93.748632,10.4225859 L100.172101,32.2642313 C105.143974,35.8638274 108.38,41.7268295 108.38,48.3481293 L108.38,63.9672837 C108.38,67.333092 106.982191,70.3872118 104.723905,72.5575991 L104.72375,87.0357986 C104.72375,89.2251666 102.954729,91 100.77253,91 L91.5187196,91 C89.3365212,91 87.5675,89.2251666 87.5675,87.0357986 L87.5676547,76.2547144 C79.2686551,76.5101477 68.5591014,76.6411947 55.4389937,76.6478552 L54.38,76.6481227 C40.7760886,76.6481227 29.7135369,76.5169866 21.1923445,76.2547144 L21.1925,87.0357986 C21.1925,89.2251666 19.4234788,91 17.2412804,91 L7.98746952,91 C5.80527124,91 4.03625,89.2251666 4.03625,87.0357986 L4.03609117,72.5575971 C1.77780478,70.3872087 0.38,67.3330874 0.38,63.9672775 L0.38,48.3481293 C0.38,41.9264432 3.42385298,36.2180227 8.14300877,32.5959146 L14.6923497,10.408409 C16.5143295,4.23521395 22.1668532,0 28.5839213,0 L79.852884,0 Z M65.4531707,22 L38.3068293,22 C31.1675386,22 25.38,28.0441559 25.38,35.5 C25.38,42.9558441 31.1675386,49 38.3068293,49 L38.3068293,49 L65.4531707,49 C72.5924614,49 78.38,42.9558441 78.38,35.5 C78.38,28.0441559 72.5924614,22 65.4531707,22 L65.4531707,22 Z" id="Combined-Shape"></path>
                </g>
                <g id="Light-M" transform="translate(605.910000, 428.000000)">
                    <path d="M77.3553038,0 C83.5994227,0 89.0982741,4.10243094 90.8650589,10.0789842 L97.1100983,31.2005753 C101.943863,34.6815034 105.09,40.3512197 105.09,46.7542349 L105.09,61.8584721 C105.09,65.1133198 103.731019,68.0667542 101.535463,70.1655903 L101.535312,84.1664866 C101.535312,86.2836776 99.8154308,88 97.693849,88 L88.6970885,88 C86.5755067,88 84.855625,86.2836776 84.855625,84.1664866 L84.8557754,73.7408227 C76.7873035,73.9878352 66.3752374,74.1145619 53.6195772,74.1210029 L52.59,74.1212615 C39.363975,74.1212615 28.6087164,73.9944486 20.3242239,73.7408227 L20.324375,84.1664866 C20.324375,86.2836776 18.6044933,88 16.4829115,88 L7.48615092,88 C5.36456926,88 3.6446875,86.2836776 3.6446875,84.1664866 L3.64453308,70.1655884 C1.44897687,68.0667513 0.09,65.1133153 0.09,61.8584661 L0.09,46.7542349 C0.09,40.5442527 3.04930151,35.024022 7.63736964,31.521324 L14.0047844,10.0652747 C15.7761537,4.09559151 21.2716628,0 27.510479,0 L77.3553038,0 Z M64.4070732,22 L37.7729268,22 C30.7683398,22 25.09,27.8202983 25.09,35 C25.09,42.1797017 30.7683398,48 37.7729268,48 L37.7729268,48 L64.4070732,48 C71.4116602,48 77.09,42.1797017 77.09,35 C77.09,27.8202983 71.4116602,22 64.4070732,22 L64.4070732,22 Z" id="Combined-Shape"></path>
                </g>
                <g id="Thin-M" transform="translate(310.524000, 429.000000)">
                    <path d="M76.2695838,0 C82.394767,0 87.7888784,4.05581241 89.5220102,9.96445029 L95.6480965,30.8460233 C100.38979,34.2873954 103.476,39.8926831 103.476,46.2229368 L103.476,61.1555349 C103.476,64.3733957 102.142904,67.2932684 99.9891688,69.3682541 L99.9890208,83.2100492 C99.9890208,85.3031813 98.3018988,87 96.2207281,87 L87.3953344,87 C85.3141637,87 83.6270417,85.3031813 83.6270417,83.2100492 L83.6271892,72.9028588 C75.7124025,73.1470643 65.4986615,73.272351 52.9859662,73.2787187 L51.976,73.2789744 C39.0018993,73.2789744 28.4515028,73.1536026 20.3248101,72.9028588 L20.3249583,83.2100492 C20.3249583,85.3031813 18.6378363,87 16.5566656,87 L7.73127185,87 C5.65010127,87 3.96297917,85.3031813 3.96297917,83.2100492 L3.96282769,69.3682522 C1.80909159,67.2932655 0.476,64.3733913 0.476,61.155529 L0.476,46.2229368 C0.476,40.0835226 3.37893386,34.6260217 7.87961022,31.1631271 L14.1257409,9.95089656 C15.8633698,4.04905069 21.2542026,0 27.3741842,0 L76.2695838,0 Z M65.7930732,21 L39.1589268,21 C32.1543398,21 26.476,26.5964406 26.476,33.5 C26.476,40.4035594 32.1543398,46 39.1589268,46 L39.1589268,46 L65.7930732,46 C72.7976602,46 78.476,40.4035594 78.476,33.5 C78.476,26.5964406 72.7976602,21 65.7930732,21 L65.7930732,21 Z" id="Combined-Shape"></path>
                </g>
                <g id="Ultralight-M" transform="translate(14.491000, 430.000000)">
                    <path d="M74.8308637,0 C80.8371114,0 86.1264827,3.96257534 87.8259614,9.73538247 L93.8330946,30.1369194 C98.4827163,33.4991794 101.509,38.97561 101.509,45.1603405 L101.509,59.7496606 C101.509,62.8935475 100.20179,65.7462967 98.0898742,67.7735816 L98.0897291,81.2971745 C98.0897291,83.3421886 96.4353667,85 94.3946072,85 L85.7405803,85 C83.6998208,85 82.0454584,83.3421886 82.0454584,81.2971745 L82.045603,71.2269311 C74.2845015,71.4655226 64.2690855,71.5879291 51.9993553,71.5941505 L51.009,71.5944003 C38.2868236,71.5944003 27.9412891,71.4719106 19.9723963,71.2269311 L19.9725416,81.2971745 C19.9725416,83.3421886 18.3181792,85 16.2774197,85 L7.62339279,85 C5.58263329,85 3.92827084,83.3421886 3.92827084,81.2971745 L3.92812229,67.7735797 C1.81620632,65.7462939 0.509,62.8935432 0.509,59.7496548 L0.509,45.1603405 C0.509,39.1620623 3.35556621,33.8300212 7.7688508,30.4467334 L13.8936974,9.72214031 C15.597586,3.95596907 20.8837423,0 26.8848894,0 L74.8308637,0 Z M62.313878,21 L36.704122,21 C29.9689421,21 24.509,26.5964406 24.509,33.5 C24.509,40.4035594 29.9689421,46 36.704122,46 L36.704122,46 L62.313878,46 C69.0490579,46 74.509,40.4035594 74.509,33.5 C74.509,26.5964406 69.0490579,21 62.313878,21 L62.313878,21 Z" id="Combined-Shape"></path>
                </g>
                <g id="Black-S" transform="translate(2391.240000, 0.000000)">
                    <path d="M71.4025635,0 C77.1114722,0 82.1389935,3.72948268 83.7543396,9.16271291 L89.4640899,28.3641594 C93.8835323,31.5286395 96.76,36.682927 96.76,42.5038499 L96.76,56.2349746 C96.76,59.1939271 95.5175031,61.8788675 93.5101379,63.7869003 L93.51,76.5149878 C93.51,78.4397069 91.9375367,80 89.9978048,80 L81.7721952,80 C79.8324633,80 78.26,78.4397069 78.26,76.5149878 L78.2601375,67.0371116 C70.8832489,67.2616683 61.3636457,67.3768745 49.7013278,67.3827299 L48.76,67.382965 C36.6676343,67.382965 26.834255,67.2676806 19.2598618,67.0371116 L19.26,76.5149878 C19.26,78.4397069 17.6875367,80 15.7478048,80 L7.52219513,80 C5.58246332,80 4.01,78.4397069 4.01,76.5149878 L4.00985881,63.7868986 C2.00249314,61.8788648 0.76,59.193923 0.76,56.2349692 L0.76,42.5038499 C0.76,36.8584116 3.46564709,31.84002 7.66045224,28.6557491 L13.4820886,9.15024971 C15.1016263,3.72326501 20.1260917,0 25.8301523,0 L71.4025635,0 Z M59.2965854,19 L35.2234146,19 C28.8923455,19 23.76,24.1487254 23.76,30.5 C23.76,36.8512746 28.8923455,42 35.2234146,42 L35.2234146,42 L59.2965854,42 C65.6276545,42 70.76,36.8512746 70.76,30.5 C70.76,24.1487254 65.6276545,19 59.2965854,19 L59.2965854,19 Z" id="Combined-Shape"></path>
                </g>
                <g id="Heavy-S" transform="translate(2095.630000, 1.000000)">
                    <path d="M68.8049834,0 C74.3354887,0 79.2058999,3.63624561 80.7707665,8.93364509 L86.3020871,27.6550554 C90.5834219,30.7404235 93.37,35.7658539 93.37,41.4412537 L93.37,54.8291003 C93.37,57.7140789 92.1663312,60.3318958 90.2216961,62.1922278 L90.2215625,74.6021131 C90.2215625,76.4787143 88.6982387,78 86.8191234,78 L78.8505641,78 C76.9714488,78 75.448125,76.4787143 75.448125,74.6021131 L75.4482582,65.3611838 C68.3018974,65.5801266 59.0797817,65.6924526 47.7819113,65.6981616 L46.87,65.6983909 C35.1555207,65.6983909 25.6294346,65.5859886 18.2917411,65.3611838 L18.291875,74.6021131 C18.291875,76.4787143 16.7685512,78 14.8894359,78 L6.92087653,78 C5.04176134,78 3.5184375,76.4787143 3.5184375,74.6021131 L3.51830073,62.1922261 C1.57366523,60.3318932 0.37,57.7140749 0.37,54.829095 L0.37,41.4412537 C0.37,35.9369513 2.99109562,31.0440195 7.05481311,27.9393554 L12.6945233,8.92149346 C14.2634504,3.63018338 19.1309013,0 24.65671,0 L68.8049834,0 Z M59.1504878,18 L35.5895122,18 C29.3931467,18 24.37,23.372583 24.37,30 C24.37,36.627417 29.3931467,42 35.5895122,42 L35.5895122,42 L59.1504878,42 C65.3468533,42 70.37,36.627417 70.37,30 C70.37,23.372583 65.3468533,18 59.1504878,18 L59.1504878,18 Z" id="Combined-Shape"></path>
                </g>
                <g id="Bold-S" transform="translate(1800.140000, 3.000000)">
                    <path d="M67.8232633,0 C73.234833,0 78.0005042,3.54300854 79.5317177,8.70457727 L84.9440852,26.9459514 C89.1333484,29.9522075 91.86,34.8487807 91.86,40.3786574 L91.86,53.4232259 C91.86,56.2342307 90.6822165,58.7849241 88.7794015,60.5975553 L88.7792708,72.6892384 C88.7792708,74.5177216 87.2887067,76 85.4500025,76 L77.65281,76 C75.8141058,76 74.3235417,74.5177216 74.3235417,72.6892384 L74.323672,63.685256 C67.3309964,63.8985849 58.3072058,64.0080308 47.2523003,64.0135934 L46.36,64.0138168 C34.897445,64.0138168 25.5762209,63.9042965 18.3963273,63.685256 L18.3964583,72.6892384 C18.3964583,74.5177216 16.9058942,76 15.06719,76 L7.26999746,76 C5.43129336,76 3.94072917,74.5177216 3.94072917,72.6892384 L3.94059533,60.5975536 C2.03777995,58.7849216 0.86,56.2342269 0.86,53.4232207 L0.86,40.3786574 C0.86,35.015491 3.42472798,30.248019 7.40105369,27.2229616 L12.9194798,8.69273722 C14.4546666,3.53710176 19.2174411,0 24.6244152,0 L67.8232633,0 Z M56.8843902,18 L33.8356098,18 C27.7739479,18 22.86,23.1487254 22.86,29.5 C22.86,35.8512746 27.7739479,41 33.8356098,41 L33.8356098,41 L56.8843902,41 C62.9460521,41 67.86,35.8512746 67.86,29.5 C67.86,23.1487254 62.9460521,18 56.8843902,18 L56.8843902,18 Z" id="Combined-Shape"></path>
                </g>
                <g id="Semibold-S" transform="translate(1504.270000, 4.000000)">
                    <path d="M66.2215433,0 C71.5141773,0 76.1751085,3.44977147 77.672669,8.47550944 L82.9660834,26.2368474 C87.0632748,29.1639915 89.73,33.9317075 89.73,39.3160612 L89.73,52.0173516 C89.73,54.7543825 88.5781019,57.2379524 86.717107,59.0028828 L86.7169791,70.7763637 C86.7169791,72.5567289 85.2591747,74 83.4608816,74 L75.8350559,74 C74.0367628,74 72.5789584,72.5567289 72.5789584,70.7763637 L72.5790858,62.0093282 C65.7400954,62.2170432 56.9146298,62.3236089 46.1026893,62.3290251 L45.23,62.3292426 C34.0193693,62.3292426 24.9030073,62.2226045 17.8809136,62.0093282 L17.8810416,70.7763637 C17.8810416,72.5567289 16.4232372,74 14.6249441,74 L6.9991184,74 C5.20082537,74 3.74302084,72.5567289 3.74302084,70.7763637 L3.74288994,59.0028812 C1.88189468,57.23795 0.73,54.7543788 0.73,52.0173465 L0.73,39.3160612 C0.73,34.0940307 3.23836033,29.4520185 7.12729427,26.5065679 L12.5244363,8.46398098 C14.0258827,3.44402013 18.6839809,0 23.9721203,0 L66.2215433,0 Z M55.9982927,17 L33.4617073,17 C27.534749,17 22.73,21.9248677 22.73,28 C22.73,34.0751322 27.534749,39 33.4617073,39 L33.4617073,39 L55.9982927,39 C61.925251,39 66.73,34.0751322 66.73,28 C66.73,21.9248677 61.925251,17 55.9982927,17 L55.9982927,17 Z" id="Combined-Shape"></path>
                </g>
                <g id="Medium-S" transform="translate(1208.200000, 5.000000)">
                    <path d="M64.8198232,0 C69.9935217,0 74.5497128,3.40315294 76.0136203,8.36097553 L81.1880815,25.8822954 C85.1932012,28.7698835 87.8,33.4731709 87.8,38.784763 L87.8,51.3144144 C87.8,54.0144585 86.6739872,56.4644666 84.8548124,58.2055465 L84.8546875,69.8199263 C84.8546875,71.5762326 83.4296426,73 81.6717606,73 L74.2173019,73 C72.4594199,73 71.034375,71.5762326 71.034375,69.8199263 L71.0344996,61.1713643 C64.3491943,61.3762724 55.7220539,61.481398 45.1530783,61.486741 L44.3,61.4869556 C33.3412936,61.4869556 24.4297936,61.3817585 17.5654998,61.1713643 L17.565625,69.8199263 C17.565625,71.5762326 16.1405801,73 14.3826981,73 L6.92823933,73 C5.17035738,73 3.7453125,71.5762326 3.7453125,69.8199263 L3.74518455,58.2055449 C1.9260094,56.4644642 0.8,54.0144547 0.8,51.3144094 L0.8,38.784763 C0.8,33.6333006 3.25199268,29.0540182 7.05353484,26.148371 L12.3293928,8.34960286 C13.7970988,3.39747932 18.3505206,0 23.5198255,0 L64.8198232,0 Z M54.0682927,17 L31.5317073,17 C25.604749,17 20.8,21.7010101 20.8,27.5 C20.8,33.2989899 25.604749,38 31.5317073,38 L31.5317073,38 L54.0682927,38 C59.995251,38 64.8,33.2989899 64.8,27.5 C64.8,21.7010101 59.995251,17 54.0682927,17 L54.0682927,17 Z" id="Combined-Shape"></path>
                </g>
                <g id="Regular-S" transform="translate(912.330000, 6.000000)">
                    <path d="M63.3181031,0 C68.372866,0 72.8243171,3.30991587 74.2545715,8.13190771 L79.3100796,25.1731915 C83.2231276,27.9816675 85.77,32.5560977 85.77,37.7221668 L85.77,49.90854 C85.77,52.5346103 84.6698726,54.9174949 82.8925179,56.610874 L82.8923958,67.9070516 C82.8923958,69.6152399 81.5001106,71 79.7826397,71 L72.4995478,71 C70.7820769,71 69.3897917,69.6152399 69.3897917,67.9070516 L69.3899134,59.4954365 C62.8582933,59.6947307 54.4294779,59.7969761 44.1034673,59.8021728 L43.27,59.8023814 C32.5632179,59.8023814 23.85658,59.7000665 17.150086,59.4954365 L17.1502083,67.9070516 C17.1502083,69.6152399 15.7579231,71 14.0404522,71 L6.75736027,71 C5.0398894,71 3.64760417,69.6152399 3.64760417,67.9070516 L3.64747916,56.6108725 C1.87012413,54.9174925 0.77,52.5346067 0.77,49.9085352 L0.77,37.7221668 C0.77,32.7118403 3.16562503,28.2580177 6.87977542,25.4319773 L12.0343493,8.12084661 C13.4683149,3.30439769 17.9170604,0 22.9675307,0 L63.3181031,0 Z M53.5260976,17 L32.0139024,17 C26.3563513,17 21.77,21.7010101 21.77,27.5 C21.77,33.2989899 26.3563513,38 32.0139024,38 L32.0139024,38 L53.5260976,38 C59.1836487,38 63.77,33.2989899 63.77,27.5 C63.77,21.7010101 59.1836487,17 53.5260976,17 L53.5260976,17 Z" id="Combined-Shape"></path>
                </g>
                <g id="Light-S" transform="translate(615.500000, 6.000000)">
                    <path d="M63.3181031,0 C68.372866,0 72.8243171,3.30991587 74.2545715,8.13190771 L79.3100796,25.1731915 C83.2231276,27.9816675 85.77,32.5560977 85.77,37.7221668 L85.77,49.90854 C85.77,52.5346103 84.6698726,54.9174949 82.8925179,56.610874 L82.8923958,67.9070516 C82.8923958,69.6152399 81.5001106,71 79.7826397,71 L72.4995478,71 C70.7820769,71 69.3897917,69.6152399 69.3897917,67.9070516 L69.3899134,59.4954365 C62.8582933,59.6947307 54.4294779,59.7969761 44.1034673,59.8021728 L43.27,59.8023814 C32.5632179,59.8023814 23.85658,59.7000665 17.150086,59.4954365 L17.1502083,67.9070516 C17.1502083,69.6152399 15.7579231,71 14.0404522,71 L6.75736027,71 C5.0398894,71 3.64760417,69.6152399 3.64760417,67.9070516 L3.64747916,56.6108725 C1.87012413,54.9174925 0.77,52.5346067 0.77,49.9085352 L0.77,37.7221668 C0.77,32.7118403 3.16562503,28.2580177 6.87977542,25.4319773 L12.0343493,8.12084661 C13.4683149,3.30439769 17.9170604,0 22.9675307,0 L63.3181031,0 Z M53.5260976,17 L32.0139024,17 C26.3563513,17 21.77,21.7010101 21.77,27.5 C21.77,33.2989899 26.3563513,38 32.0139024,38 L32.0139024,38 L53.5260976,38 C59.1836487,38 63.77,33.2989899 63.77,27.5 C63.77,21.7010101 59.1836487,17 53.5260976,17 L53.5260976,17 Z" id="Combined-Shape"></path>
                </g>
                <g id="Thin-S" transform="translate(319.961000, 6.000000)">
                    <path d="M62.5871031,0 C67.641866,0 72.0933171,3.30991587 73.5235715,8.13190771 L78.5790796,25.1731915 C82.4921276,27.9816675 85.039,32.5560977 85.039,37.7221668 L85.039,49.90854 C85.039,52.5346103 83.9388726,54.9174949 82.1615179,56.610874 L82.1613958,67.9070516 C82.1613958,69.6152399 80.7691106,71 79.0516397,71 L71.7685478,71 C70.0510769,71 68.6587917,69.6152399 68.6587917,67.9070516 L68.6589134,59.4954365 C62.1272933,59.6947307 53.6984779,59.7969761 43.3724673,59.8021728 L42.539,59.8023814 C31.8322179,59.8023814 23.12558,59.7000665 16.419086,59.4954365 L16.4192083,67.9070516 C16.4192083,69.6152399 15.0269231,71 13.3094522,71 L6.02636027,71 C4.3088894,71 2.91660417,69.6152399 2.91660417,67.9070516 L2.91647916,56.6108725 C1.13912413,54.9174925 0.039,52.5346067 0.039,49.9085352 L0.039,37.7221668 C0.039,32.7118403 2.43462503,28.2580177 6.14877542,25.4319773 L11.3033493,8.12084661 C12.7373149,3.30439769 17.1860604,0 22.2365307,0 L62.5871031,0 Z M52.7950976,17 L31.2829024,17 C25.6253513,17 21.039,21.7010101 21.039,27.5 C21.039,33.2989899 25.6253513,38 31.2829024,38 L31.2829024,38 L52.7950976,38 C58.4526487,38 63.039,33.2989899 63.039,27.5 C63.039,21.7010101 58.4526487,17 52.7950976,17 L52.7950976,17 Z" id="Combined-Shape"></path>
                </g>
                <g id="Ultralight-S" transform="translate(24.850000, 8.000000)">
                    <path d="M60.490523,0 C65.3668825,0 69.6612236,3.21044728 71.0409984,7.88753007 L75.9180768,24.4166943 C79.6930172,27.1407709 82.15,31.5777317 82.15,36.5885516 L82.15,48.4087036 C82.15,50.955856 81.0887006,53.2671309 79.3740761,54.9096211 L79.3739583,65.8663294 C79.3739583,67.5231837 78.0308126,68.8663294 76.3739583,68.8663294 L69.3479167,68.8663294 C67.6910624,68.8663294 66.3479167,67.5231837 66.3479167,65.8663294 L66.3480341,57.7074976 C60.0469418,57.9008026 51.915614,57.9999754 41.9540508,58.0050159 L41.15,58.0052183 C30.8211043,58.0052183 22.4217595,57.9059781 15.9519653,57.7074976 L15.9520833,65.8663294 C15.9520833,67.5231837 14.6089376,68.8663294 12.9520833,68.8663294 L5.92604167,68.8663294 C4.26918742,68.8663294 2.92604167,67.5231837 2.92604167,65.8663294 L2.92592107,54.9096196 C1.21129622,53.2671286 0.15,50.9558525 0.15,48.4086989 L0.15,36.5885516 C0.15,31.7287939 2.46107356,27.4088163 6.04413629,24.6677032 L11.016784,7.87680138 C12.4001391,3.20509493 16.69187,0 21.5640884,0 L60.490523,0 Z M51.15,17 L30.15,17 C24.6271525,17 20.15,21.4771525 20.15,27 C20.15,32.5228475 24.6271525,37 30.15,37 L30.15,37 L51.15,37 C56.6728475,37 61.15,32.5228475 61.15,27 C61.15,21.4771525 56.6728475,17 51.15,17 L51.15,17 Z" id="Combined-Shape"></path>
                </g>
            </g>
        </g>
    </g>
</svg>