<?xml version="1.0" encoding="UTF-8"?>
<!--Generator: Apple Native CoreSVG 175-->
<!DOCTYPE svg
PUBLIC "-//W3C//DTD SVG 1.1//EN"
       "http://www.w3.org/Graphics/SVG/1.1/DTD/svg11.dtd">
<svg version="1.1" xmlns="http://www.w3.org/2000/svg" xmlns:xlink="http://www.w3.org/1999/xlink" width="3300" height="2200">
 <!--glyph: "uni100660.medium", point size: 100.0, font version: "17.0d11e1", template writer version: "65.1"-->
 <g id="Notes">
  <rect height="2200" id="artboard" style="fill:white;opacity:1" width="3300" x="0" y="0"/>
  <line style="fill:none;stroke:black;opacity:1;stroke-width:0.5;" x1="263" x2="3036" y1="292" y2="292"/>
  <text style="stroke:none;fill:black;font-family:sans-serif;font-size:13;font-weight:bold;" transform="matrix(1 0 0 1 263 322)">Weight/Scale Variations</text>
  <text style="stroke:none;fill:black;font-family:sans-serif;font-size:13;text-anchor:middle;" transform="matrix(1 0 0 1 559.711 322)">Ultralight</text>
  <text style="stroke:none;fill:black;font-family:sans-serif;font-size:13;text-anchor:middle;" transform="matrix(1 0 0 1 856.422 322)">Thin</text>
  <text style="stroke:none;fill:black;font-family:sans-serif;font-size:13;text-anchor:middle;" transform="matrix(1 0 0 1 1153.13 322)">Light</text>
  <text style="stroke:none;fill:black;font-family:sans-serif;font-size:13;text-anchor:middle;" transform="matrix(1 0 0 1 1449.84 322)">Regular</text>
  <text style="stroke:none;fill:black;font-family:sans-serif;font-size:13;text-anchor:middle;" transform="matrix(1 0 0 1 1746.56 322)">Medium</text>
  <text style="stroke:none;fill:black;font-family:sans-serif;font-size:13;text-anchor:middle;" transform="matrix(1 0 0 1 2043.27 322)">Semibold</text>
  <text style="stroke:none;fill:black;font-family:sans-serif;font-size:13;text-anchor:middle;" transform="matrix(1 0 0 1 2339.98 322)">Bold</text>
  <text style="stroke:none;fill:black;font-family:sans-serif;font-size:13;text-anchor:middle;" transform="matrix(1 0 0 1 2636.69 322)">Heavy</text>
  <text style="stroke:none;fill:black;font-family:sans-serif;font-size:13;text-anchor:middle;" transform="matrix(1 0 0 1 2933.4 322)">Black</text>
  <line style="fill:none;stroke:black;opacity:1;stroke-width:0.5;" x1="263" x2="3036" y1="1903" y2="1903"/>
  <g transform="matrix(1 0 0 1 263 1933)">
   <path d="M9.24805 0.830078Q10.8691 0.830078 12.2949 0.214844Q13.7207-0.400391 14.8096-1.49414Q15.8984-2.58789 16.5186-4.01367Q17.1387-5.43945 17.1387-7.05078Q17.1387-8.66211 16.5186-10.0879Q15.8984-11.5137 14.8047-12.6074Q13.7109-13.7012 12.2852-14.3164Q10.8594-14.9316 9.23828-14.9316Q7.62695-14.9316 6.20117-14.3164Q4.77539-13.7012 3.69141-12.6074Q2.60742-11.5137 1.9873-10.0879Q1.36719-8.66211 1.36719-7.05078Q1.36719-5.43945 1.9873-4.01367Q2.60742-2.58789 3.69629-1.49414Q4.78516-0.400391 6.21094 0.214844Q7.63672 0.830078 9.24805 0.830078ZM9.24805-0.654297Q7.91992-0.654297 6.7627-1.14746Q5.60547-1.64062 4.73145-2.51953Q3.85742-3.39844 3.36426-4.56055Q2.87109-5.72266 2.87109-7.05078Q2.87109-8.37891 3.35938-9.54102Q3.84766-10.7031 4.72168-11.582Q5.5957-12.4609 6.75293-12.9541Q7.91016-13.4473 9.23828-13.4473Q10.5762-13.4473 11.7334-12.9541Q12.8906-12.4609 13.7695-11.582Q14.6484-10.7031 15.1465-9.54102Q15.6445-8.37891 15.6445-7.05078Q15.6445-5.72266 15.1514-4.56055Q14.6582-3.39844 13.7842-2.51953Q12.9102-1.64062 11.748-1.14746Q10.5859-0.654297 9.24805-0.654297ZM5.6543-7.05078Q5.6543-6.72852 5.85938-6.52832Q6.06445-6.32812 6.40625-6.32812L8.51562-6.32812L8.51562-4.20898Q8.51562-3.88672 8.71094-3.67676Q8.90625-3.4668 9.23828-3.4668Q9.56055-3.4668 9.77051-3.67676Q9.98047-3.88672 9.98047-4.20898L9.98047-6.32812L12.0898-6.32812Q12.4219-6.32812 12.627-6.52832Q12.832-6.72852 12.832-7.05078Q12.832-7.38281 12.627-7.58789Q12.4219-7.79297 12.0898-7.79297L9.98047-7.79297L9.98047-9.90234Q9.98047-10.2344 9.77051-10.4443Q9.56055-10.6543 9.23828-10.6543Q8.90625-10.6543 8.71094-10.4443Q8.51562-10.2344 8.51562-9.90234L8.51562-7.79297L6.40625-7.79297Q6.06445-7.79297 5.85938-7.58789Q5.6543-7.38281 5.6543-7.05078Z"/>
  </g>
  <g transform="matrix(1 0 0 1 281.867 1933)">
   <path d="M11.709 2.91016Q13.75 2.91016 15.5518 2.12891Q17.3535 1.34766 18.7305-0.0292969Q20.1074-1.40625 20.8887-3.20801Q21.6699-5.00977 21.6699-7.05078Q21.6699-9.0918 20.8887-10.8936Q20.1074-12.6953 18.7305-14.0723Q17.3535-15.4492 15.5469-16.2305Q13.7402-17.0117 11.6992-17.0117Q9.6582-17.0117 7.85645-16.2305Q6.05469-15.4492 4.68262-14.0723Q3.31055-12.6953 2.5293-10.8936Q1.74805-9.0918 1.74805-7.05078Q1.74805-5.00977 2.5293-3.20801Q3.31055-1.40625 4.6875-0.0292969Q6.06445 1.34766 7.86621 2.12891Q9.66797 2.91016 11.709 2.91016ZM11.709 1.25Q9.98047 1.25 8.47656 0.605469Q6.97266-0.0390625 5.83496-1.17676Q4.69727-2.31445 4.05762-3.81836Q3.41797-5.32227 3.41797-7.05078Q3.41797-8.7793 4.05762-10.2832Q4.69727-11.7871 5.83008-12.9297Q6.96289-14.0723 8.4668-14.7119Q9.9707-15.3516 11.6992-15.3516Q13.4277-15.3516 14.9316-14.7119Q16.4355-14.0723 17.5781-12.9297Q18.7207-11.7871 19.3652-10.2832Q20.0098-8.7793 20.0098-7.05078Q20.0098-5.32227 19.3701-3.81836Q18.7305-2.31445 17.5928-1.17676Q16.4551-0.0390625 14.9463 0.605469Q13.4375 1.25 11.709 1.25ZM7.17773-7.05078Q7.17773-6.69922 7.41211-6.47461Q7.64648-6.25 8.01758-6.25L10.8887-6.25L10.8887-3.36914Q10.8887-2.99805 11.1133-2.76855Q11.3379-2.53906 11.6895-2.53906Q12.0605-2.53906 12.29-2.76855Q12.5195-2.99805 12.5195-3.36914L12.5195-6.25L15.4004-6.25Q15.7715-6.25 16.001-6.47461Q16.2305-6.69922 16.2305-7.05078Q16.2305-7.42188 16.001-7.65137Q15.7715-7.88086 15.4004-7.88086L12.5195-7.88086L12.5195-10.752Q12.5195-11.1328 12.29-11.3623Q12.0605-11.5918 11.6895-11.5918Q11.3379-11.5918 11.1133-11.3574Q10.8887-11.123 10.8887-10.752L10.8887-7.88086L8.01758-7.88086Q7.63672-7.88086 7.40723-7.65137Q7.17773-7.42188 7.17773-7.05078Z"/>
  </g>
  <g transform="matrix(1 0 0 1 305.646 1933)">
   <path d="M14.9707 5.66406Q17.0605 5.66406 18.96 5.01465Q20.8594 4.36523 22.4512 3.19336Q24.043 2.02148 25.2197 0.429688Q26.3965-1.16211 27.0459-3.06641Q27.6953-4.9707 27.6953-7.05078Q27.6953-9.14062 27.0459-11.04Q26.3965-12.9395 25.2197-14.5312Q24.043-16.123 22.4512-17.2998Q20.8594-18.4766 18.9551-19.126Q17.0508-19.7754 14.9609-19.7754Q12.8711-19.7754 10.9717-19.126Q9.07227-18.4766 7.48535-17.2998Q5.89844-16.123 4.72168-14.5312Q3.54492-12.9395 2.90039-11.04Q2.25586-9.14062 2.25586-7.05078Q2.25586-4.9707 2.90527-3.06641Q3.55469-1.16211 4.72656 0.429688Q5.89844 2.02148 7.49023 3.19336Q9.08203 4.36523 10.9814 5.01465Q12.8809 5.66406 14.9707 5.66406ZM14.9707 3.84766Q13.1641 3.84766 11.5283 3.2959Q9.89258 2.74414 8.53516 1.74805Q7.17773 0.751953 6.17676-0.610352Q5.17578-1.97266 4.62891-3.6084Q4.08203-5.24414 4.08203-7.05078Q4.08203-8.86719 4.62891-10.5029Q5.17578-12.1387 6.17188-13.501Q7.16797-14.8633 8.52539-15.8594Q9.88281-16.8555 11.5186-17.4023Q13.1543-17.9492 14.9609-17.9492Q16.7773-17.9492 18.4131-17.4023Q20.0488-16.8555 21.4111-15.8594Q22.7734-14.8633 23.7695-13.501Q24.7656-12.1387 25.3174-10.5029Q25.8691-8.86719 25.8691-7.05078Q25.8789-5.24414 25.332-3.6084Q24.7852-1.97266 23.7842-0.610352Q22.7832 0.751953 21.4209 1.74805Q20.0586 2.74414 18.4229 3.2959Q16.7871 3.84766 14.9707 3.84766ZM9.19922-7.05078Q9.19922-6.66992 9.45801-6.4209Q9.7168-6.17188 10.1172-6.17188L14.0625-6.17188L14.0625-2.2168Q14.0625-1.81641 14.3115-1.55762Q14.5605-1.29883 14.9512-1.29883Q15.3516-1.29883 15.6104-1.55273Q15.8691-1.80664 15.8691-2.2168L15.8691-6.17188L19.8242-6.17188Q20.2246-6.17188 20.4785-6.4209Q20.7324-6.66992 20.7324-7.05078Q20.7324-7.46094 20.4785-7.71484Q20.2246-7.96875 19.8242-7.96875L15.8691-7.96875L15.8691-11.9141Q15.8691-12.3242 15.6104-12.583Q15.3516-12.8418 14.9512-12.8418Q14.5605-12.8418 14.3115-12.583Q14.0625-12.3242 14.0625-11.9141L14.0625-7.96875L10.1172-7.96875Q9.70703-7.96875 9.45312-7.71484Q9.19922-7.46094 9.19922-7.05078Z"/>
  </g>
  <text style="stroke:none;fill:black;font-family:sans-serif;font-size:13;font-weight:bold;" transform="matrix(1 0 0 1 263 1953)">Design Variations</text>
  <text style="stroke:none;fill:black;font-family:sans-serif;font-size:13;" transform="matrix(1 0 0 1 263 1971)">Symbols are supported in up to nine weights and three scales.</text>
  <text style="stroke:none;fill:black;font-family:sans-serif;font-size:13;" transform="matrix(1 0 0 1 263 1989)">For optimal layout with text and other symbols, vertically align</text>
  <text style="stroke:none;fill:black;font-family:sans-serif;font-size:13;" transform="matrix(1 0 0 1 263 2007)">symbols with the adjacent text.</text>
  <line style="fill:none;stroke:#00AEEF;stroke-width:0.5;opacity:1.0;" x1="776" x2="776" y1="1919" y2="1933"/>
  <g transform="matrix(1 0 0 1 776 1933)">
   <path d="M3.31055 0.15625Q3.70117 0.15625 3.91602-0.00976562Q4.13086-0.175781 4.26758-0.585938L5.52734-4.0332L11.2891-4.0332L12.5488-0.585938Q12.6855-0.175781 12.9004-0.00976562Q13.1152 0.15625 13.4961 0.15625Q13.8867 0.15625 14.1162-0.0585938Q14.3457-0.273438 14.3457-0.644531Q14.3457-0.869141 14.2383-1.17188L9.6582-13.3691Q9.48242-13.8184 9.17969-14.043Q8.87695-14.2676 8.4082-14.2676Q7.5-14.2676 7.17773-13.3789L2.59766-1.16211Q2.49023-0.859375 2.49023-0.634766Q2.49023-0.263672 2.70996-0.0537109Q2.92969 0.15625 3.31055 0.15625ZM6.00586-5.51758L8.37891-12.0898L8.42773-12.0898L10.8008-5.51758Z"/>
  </g>
  <line style="fill:none;stroke:#00AEEF;stroke-width:0.5;opacity:1.0;" x1="793.197" x2="793.197" y1="1919" y2="1933"/>
  <text style="stroke:none;fill:black;font-family:sans-serif;font-size:13;font-weight:bold;" transform="matrix(1 0 0 1 776 1953)">Margins</text>
  <text style="stroke:none;fill:black;font-family:sans-serif;font-size:13;" transform="matrix(1 0 0 1 776 1971)">Leading and trailing margins on the left and right side of each symbol</text>
  <text style="stroke:none;fill:black;font-family:sans-serif;font-size:13;" transform="matrix(1 0 0 1 776 1989)">can be adjusted by modifying the x-location of the margin guidelines.</text>
  <text style="stroke:none;fill:black;font-family:sans-serif;font-size:13;" transform="matrix(1 0 0 1 776 2007)">Modifications are automatically applied proportionally to all</text>
  <text style="stroke:none;fill:black;font-family:sans-serif;font-size:13;" transform="matrix(1 0 0 1 776 2025)">scales and weights.</text>
  <g transform="matrix(1 0 0 1 1289 1933)">
   <path d="M2.8418 1.86523L4.54102 3.57422Q5.18555 4.22852 5.90332 4.17969Q6.62109 4.13086 7.31445 3.35938L18.0078-8.42773L17.041-9.4043L6.42578 2.27539Q6.16211 2.57812 5.89355 2.61719Q5.625 2.65625 5.27344 2.30469L4.10156 1.14258Q3.75 0.791016 3.79395 0.522461Q3.83789 0.253906 4.14062-0.0195312L15.6152-10.8203L14.6387-11.7871L3.04688-0.898438Q2.30469-0.214844 2.25098 0.498047Q2.19727 1.21094 2.8418 1.86523ZM9.25781-16.3281Q8.94531-16.0254 8.90625-15.6348Q8.86719-15.2441 9.04297-14.9512Q9.21875-14.6777 9.55566-14.541Q9.89258-14.4043 10.3809-14.5215Q11.4746-14.7754 12.5977-14.7314Q13.7207-14.6875 14.7949-13.9844L14.209-12.5293Q13.9551-11.9043 14.0674-11.4404Q14.1797-10.9766 14.5801-10.5664L16.875-8.25195Q17.2363-7.88086 17.5781-7.82227Q17.9199-7.76367 18.3398-7.8418L19.4043-8.03711L20.0684-7.36328L20.0293-6.80664Q20-6.43555 20.1221-6.12305Q20.2441-5.81055 20.6055-5.44922L21.3672-4.70703Q21.7285-4.3457 22.1533-4.33105Q22.5781-4.31641 22.9297-4.66797L25.8398-7.58789Q26.1914-7.93945 26.1816-8.35449Q26.1719-8.76953 25.8105-9.13086L25.0391-9.89258Q24.6875-10.2539 24.3799-10.3857Q24.0723-10.5176 23.7109-10.4883L23.1348-10.4395L22.4902-11.0742L22.7344-12.1973Q22.832-12.6172 22.6953-12.9834Q22.5586-13.3496 22.1191-13.7891L19.9219-15.9766Q18.6719-17.2168 17.2607-17.8369Q15.8496-18.457 14.4189-18.4814Q12.9883-18.5059 11.665-17.959Q10.3418-17.4121 9.25781-16.3281ZM10.752-15.957Q11.6602-16.6211 12.7002-16.9043Q13.7402-17.1875 14.8047-17.085Q15.8691-16.9824 16.8701-16.5137Q17.8711-16.0449 18.7012-15.2051L21.1328-12.793Q21.3086-12.6172 21.3525-12.4512Q21.3965-12.2852 21.3379-12.0312L21.0156-10.5469L22.5195-9.0625L23.5059-9.12109Q23.6914-9.13086 23.7891-9.09668Q23.8867-9.0625 24.0332-8.91602L24.6094-8.33984L22.168-5.89844L21.5918-6.47461Q21.4453-6.62109 21.4062-6.71875Q21.3672-6.81641 21.377-7.01172L21.4453-7.98828L19.9512-9.47266L18.4277-9.21875Q18.1836-9.16992 18.042-9.2041Q17.9004-9.23828 17.7148-9.41406L15.7129-11.416Q15.5176-11.5918 15.4932-11.7529Q15.4688-11.9141 15.5859-12.1875L16.4648-14.2773Q15.293-15.3711 13.8281-15.791Q12.3633-16.2109 10.8398-15.7617Q10.7227-15.7324 10.6885-15.8057Q10.6543-15.8789 10.752-15.957Z"/>
  </g>
  <text style="stroke:none;fill:black;font-family:sans-serif;font-size:13;font-weight:bold;" transform="matrix(1 0 0 1 1289 1953)">Exporting</text>
  <text style="stroke:none;fill:black;font-family:sans-serif;font-size:13;" transform="matrix(1 0 0 1 1289 1971)">Symbols should be outlined when exporting to ensure the</text>
  <text style="stroke:none;fill:black;font-family:sans-serif;font-size:13;" transform="matrix(1 0 0 1 1289 1989)">design is preserved when submitting to Xcode.</text>
  <text id="template-version" style="stroke:none;fill:black;font-family:sans-serif;font-size:13;text-anchor:end;" transform="matrix(1 0 0 1 3036 1933)">Template v.3.0</text>
  <text style="stroke:none;fill:black;font-family:sans-serif;font-size:13;text-anchor:end;" transform="matrix(1 0 0 1 3036 1951)">Requires Xcode 13 or greater</text>
  <text id="descriptive-name" style="stroke:none;fill:black;font-family:sans-serif;font-size:13;text-anchor:end;" transform="matrix(1 0 0 1 3036 1969)">Generated from arrow.triangle.branch</text>
  <text style="stroke:none;fill:black;font-family:sans-serif;font-size:13;text-anchor:end;" transform="matrix(1 0 0 1 3036 1987)">Typeset at 100 points</text>
  <text style="stroke:none;fill:black;font-family:sans-serif;font-size:13;" transform="matrix(1 0 0 1 263 726)">Small</text>
  <text style="stroke:none;fill:black;font-family:sans-serif;font-size:13;" transform="matrix(1 0 0 1 263 1156)">Medium</text>
  <text style="stroke:none;fill:black;font-family:sans-serif;font-size:13;" transform="matrix(1 0 0 1 263 1586)">Large</text>
 </g>
 <g id="Guides">
  <g id="H-reference" style="fill:#27AAE1;stroke:none;" transform="matrix(1 0 0 1 339 696)">
   <path d="M0.993347 0L3.6377 0L29.3282-67.1326L30.0301-67.1326L30.0301-70.459L28.1227-70.459ZM11.6882-24.4797L46.9818-24.4797L46.2311-26.7288L12.4382-26.7288ZM55.1193 0L57.7637 0L30.6381-70.459L29.4327-70.459L29.4327-67.1326Z"/>
  </g>
  <line id="Baseline-S" style="fill:none;stroke:#27AAE1;opacity:1;stroke-width:0.5;" x1="263" x2="3036" y1="696" y2="696"/>
  <line id="Capline-S" style="fill:none;stroke:#27AAE1;opacity:1;stroke-width:0.5;" x1="263" x2="3036" y1="625.541" y2="625.541"/>
  <g id="H-reference" style="fill:#27AAE1;stroke:none;" transform="matrix(1 0 0 1 339 1126)">
   <path d="M0.993347 0L3.6377 0L29.3282-67.1326L30.0301-67.1326L30.0301-70.459L28.1227-70.459ZM11.6882-24.4797L46.9818-24.4797L46.2311-26.7288L12.4382-26.7288ZM55.1193 0L57.7637 0L30.6381-70.459L29.4327-70.459L29.4327-67.1326Z"/>
  </g>
  <line id="Baseline-M" style="fill:none;stroke:#27AAE1;opacity:1;stroke-width:0.5;" x1="263" x2="3036" y1="1126" y2="1126"/>
  <line id="Capline-M" style="fill:none;stroke:#27AAE1;opacity:1;stroke-width:0.5;" x1="263" x2="3036" y1="1055.54" y2="1055.54"/>
  <g id="H-reference" style="fill:#27AAE1;stroke:none;" transform="matrix(1 0 0 1 339 1556)">
   <path d="M0.993347 0L3.6377 0L29.3282-67.1326L30.0301-67.1326L30.0301-70.459L28.1227-70.459ZM11.6882-24.4797L46.9818-24.4797L46.2311-26.7288L12.4382-26.7288ZM55.1193 0L57.7637 0L30.6381-70.459L29.4327-70.459L29.4327-67.1326Z"/>
  </g>
  <line id="Baseline-L" style="fill:none;stroke:#27AAE1;opacity:1;stroke-width:0.5;" x1="263" x2="3036" y1="1556" y2="1556"/>
  <line id="Capline-L" style="fill:none;stroke:#27AAE1;opacity:1;stroke-width:0.5;" x1="263" x2="3036" y1="1485.54" y2="1485.54"/>
  <line id="left-margin-Regular-M" style="fill:none;stroke:#00AEEF;stroke-width:0.5;opacity:1.0;" x1="1392.32" x2="1392.32" y1="1030.79" y2="1150.12"/>
  <line id="right-margin-Regular-M" style="fill:none;stroke:#00AEEF;stroke-width:0.5;opacity:1.0;" x1="1507.36" x2="1507.36" y1="1030.79" y2="1150.12"/>
 </g>
 <g id="Symbols">
  <g id="Black-L" transform="matrix(1 0 0 1 2850.44 1556)">
   <path d="M82.959 23.3398Q87.3535 23.3398 89.6729 20.8008Q91.9922 18.2617 91.9922 13.5254L91.9922-18.3594Q91.9922-22.6562 93.8477-27.2705Q95.7031-31.8848 98.7793-36.4502Q101.855-41.0156 105.566-45.1416Q109.277-49.2676 113.062-52.5635Q116.846-55.8594 120.068-57.9102L125.342-61.2305Q127.393-62.5488 128.564-64.624Q129.736-66.6992 129.736-68.9453Q129.736-72.6562 127.466-75.2197Q125.195-77.7832 120.898-77.7832Q117.188-77.7832 113.77-75.5859L110.547-73.4863Q107.08-71.2402 102.979-67.6758Q98.877-64.1113 94.8975-59.8145Q90.918-55.5176 87.7686-51.0498Q84.6191-46.582 83.1055-42.4805L82.8125-42.4805Q81.25-46.582 78.0762-51.0742Q74.9023-55.5664 70.9473-59.8389Q66.9922-64.1113 62.8906-67.6758Q58.7891-71.2402 55.3711-73.4863L52.1484-75.5859Q48.7305-77.832 45.0195-77.832Q40.5762-77.832 38.3545-75.1709Q36.1328-72.5098 36.1328-68.9453Q36.1328-66.6992 37.2803-64.6484Q38.4277-62.5977 40.5273-61.2793L45.8496-57.9102Q49.0234-55.8594 52.7832-52.5635Q56.543-49.2676 60.2783-45.1416Q64.0137-41.0156 67.0898-36.4502Q70.166-31.8848 72.0459-27.2705Q73.9258-22.6562 73.9258-18.3594L73.9258 13.5254Q73.9258 18.2617 76.2451 20.8008Q78.5645 23.3398 82.959 23.3398ZM35.498-50.293L60.1562-81.8359Q62.0117-84.1797 61.7432-86.3525Q61.4746-88.5254 59.4971-89.9414Q57.5195-91.3574 54.1504-91.4551L23.3887-92.3828Q19.4336-92.5293 17.3828-89.8682Q15.332-87.207 16.4062-83.4473L24.707-53.8086Q25.5859-50.6348 27.417-49.0234Q29.248-47.4121 31.4453-47.6562Q33.6426-47.9004 35.498-50.293ZM129.15-50.4883Q130.908-47.998 133.081-47.6562Q135.254-47.3145 137.158-48.877Q139.062-50.4395 140.088-53.5645L149.414-82.9102Q150.586-86.6699 148.657-89.3799Q146.729-92.0898 142.773-92.1387L111.963-92.2363Q106.934-92.2852 104.98-89.3799Q103.027-86.4746 105.664-82.8125Z"/>
  </g>
  <g id="Heavy-L" transform="matrix(1 0 0 1 2556.06 1556)">
   <path d="M80.6313 23.6397Q84.5184 23.6397 86.5726 21.3596Q88.6269 19.0796 88.6269 14.8277L88.6269-18.4052Q88.6269-22.7371 90.4709-27.4723Q92.3149-32.2075 95.4082-36.9514Q98.5016-41.6954 102.322-46.0461Q106.142-50.3967 110.163-53.952Q114.184-57.5073 117.821-59.8351L123.003-63.1088Q124.834-64.2891 125.874-66.1453Q126.913-68.0016 126.913-69.9944Q126.913-73.2903 124.884-75.5424Q122.856-77.7946 119.089-77.7946Q115.77-77.7946 112.686-75.8163L109.394-73.6595Q105.305-70.9755 100.858-66.9846Q96.4104-62.9936 92.3214-58.3569Q88.2324-53.7201 85.1582-49.0734Q82.0839-44.4267 80.7663-40.406L80.4962-40.406Q79.1412-44.4267 76.0479-49.0917Q72.9546-53.7567 68.8843-58.3752Q64.814-62.9936 60.3725-66.9846Q55.9311-70.9755 51.8677-73.6595L48.587-75.8163Q45.5032-77.832 42.173-77.832Q38.2942-77.832 36.3029-75.4936Q34.3117-73.1552 34.3117-70.0058Q34.3117-68.013 35.3325-66.1697Q36.3533-64.3265 38.2339-63.1462L43.441-59.8351Q47.0413-57.5073 51.0429-53.952Q55.0446-50.3967 58.8837-46.0461Q62.7228-41.6954 65.8222-36.9514Q68.9217-32.2075 70.7783-27.4723Q72.6349-22.7371 72.6349-18.4052L72.6349 14.8277Q72.6349 19.0796 74.6891 21.3596Q76.7433 23.6397 80.6313 23.6397ZM34.2186-52.0447L57.1251-81.4789Q58.831-83.638 58.6143-85.6033Q58.3977-87.5687 56.6391-88.8409Q54.8805-90.1131 51.857-90.1993L22.6509-91.1385Q19.0651-91.2735 17.239-88.9061Q15.4129-86.5387 16.4062-83.1131L24.4652-55.0529Q25.2747-52.179 26.9215-50.7523Q28.5683-49.3256 30.5408-49.5869Q32.5134-49.8482 34.2186-52.0447ZM125.935-52.2057Q127.554-49.9229 129.508-49.5811Q131.462-49.2393 133.171-50.6229Q134.879-52.0065 135.812-54.8325L144.781-82.6454Q145.861-86.0588 144.134-88.4693Q142.406-90.8798 138.821-90.9058L109.577-90.8768Q105.067-90.9134 103.344-88.3022Q101.621-85.6911 104.05-82.3288Z"/>
  </g>
  <g id="Bold-L" transform="matrix(1 0 0 1 2261.95 1556)">
   <path d="M78.0273 23.9746Q81.3477 23.9746 83.1055 21.9849Q84.8633 19.9951 84.8633 16.2842L84.8633-18.457Q84.8633-22.8271 86.6943-27.6978Q88.5254-32.5684 91.6382-37.5122Q94.751-42.4561 98.6938-47.0581Q102.637-51.6602 106.921-55.5054Q111.206-59.3506 115.308-61.9873L120.386-65.21Q121.973-66.2354 122.864-67.8467Q123.755-69.458 123.755-71.167Q123.755-73.999 121.997-75.9033Q120.239-77.8076 117.065-77.8076Q114.185-77.8076 111.475-76.0742L108.105-73.8525Q103.32-70.6787 98.4863-66.2109Q93.6523-61.7432 89.4409-56.7261Q85.2295-51.709 82.2388-46.8628Q79.248-42.0166 78.1494-38.0859L77.9053-38.0859Q76.7822-42.0166 73.7793-46.875Q70.7764-51.7334 66.5771-56.7383Q62.3779-61.7432 57.5562-66.2109Q52.7344-70.6787 47.9492-73.8525L44.6045-76.0742Q41.8945-77.832 38.9893-77.832Q35.7422-77.832 34.0088-75.8545Q32.2754-73.877 32.2754-71.1914Q32.2754-69.4824 33.1543-67.8711Q34.0332-66.2598 35.6689-65.2344L40.7471-61.9873Q44.8242-59.3506 49.0967-55.5054Q53.3691-51.6602 57.3242-47.0581Q61.2793-42.4561 64.4043-37.5122Q67.5293-32.5684 69.3604-27.6978Q71.1914-22.8271 71.1914-18.457L71.1914 16.2842Q71.1914 19.9951 72.9492 21.9849Q74.707 23.9746 78.0273 23.9746ZM32.7881-54.0039L53.7354-81.0791Q55.2734-83.0322 55.1147-84.7656Q54.9561-86.499 53.4424-87.6099Q51.9287-88.7207 49.292-88.7939L21.8262-89.7461Q18.6523-89.8682 17.0776-87.8296Q15.5029-85.791 16.4062-82.7393L24.1943-56.4453Q24.9268-53.9062 26.3672-52.6855Q27.8076-51.4648 29.5288-51.7456Q31.25-52.0264 32.7881-54.0039ZM122.339-54.126Q123.804-52.0752 125.513-51.7334Q127.222-51.3916 128.711-52.5757Q130.2-53.7598 131.03-56.25L139.6-82.3486Q140.576-85.376 139.075-87.4512Q137.573-89.5264 134.399-89.5264L106.909-89.3555Q102.979-89.3799 101.514-87.0972Q100.049-84.8145 102.246-81.7871Z"/>
  </g>
  <g id="Semibold-L" transform="matrix(1 0 0 1 1967.03 1556)">
   <path d="M76.2321 24.2058Q79.1611 24.2058 80.7148 22.4159Q82.2685 20.6261 82.2685 17.2882L82.2685-18.4929Q82.2685-22.8897 84.0904-27.8534Q85.9123-32.8171 89.0385-37.8986Q92.1646-42.9802 96.1922-47.7558Q100.22-52.5314 104.686-56.5765Q109.153-60.6216 113.575-63.4712L118.581-66.6588Q120-67.5774 120.789-69.0197Q121.577-70.462 121.577-71.9757Q121.577-74.4881 120.006-76.1524Q118.435-77.8168 115.67-77.8168Q113.091-77.8168 110.639-76.252L107.217-73.9861Q101.952-70.4742 96.851-65.6776Q91.7503-60.881 87.4546-55.6019Q83.1589-50.3227 80.2258-45.3388Q77.2926-40.3549 76.3451-36.4861L76.1192-36.4861Q75.1556-40.3549 72.2149-45.3465Q69.2741-50.338 64.986-55.6095Q60.6979-60.881 55.6141-65.6776Q50.5302-70.4742 45.2477-73.9861L41.8587-76.252Q39.4058-77.832 36.7943-77.832Q33.9828-77.832 32.4272-76.1032Q30.8716-74.3744 30.8716-72.0093Q30.8716-70.4956 31.6525-69.0441Q32.4333-67.5926 33.9005-66.674L38.8893-63.4712Q43.2953-60.6216 47.7547-56.5765Q52.2141-52.5314 56.2489-47.7558Q60.2837-42.9802 63.4266-37.8986Q66.5695-32.8171 68.3826-27.8534Q70.1958-22.8897 70.1958-18.4929L70.1958 17.2882Q70.1958 20.6261 71.7495 22.4159Q73.3032 24.2058 76.2321 24.2058ZM31.8016-55.3551L51.3977-80.8037Q52.8206-82.6149 52.702-84.1881Q52.5833-85.7613 51.2386-86.7611Q49.894-87.7609 47.5235-87.825L21.2578-88.7863Q18.3678-88.8992 16.9666-87.0872Q15.5655-85.2753 16.4062-82.4814L24.0074-57.4051Q24.6864-55.0972 25.985-54.0188Q27.2835-52.9404 28.8311-53.2345Q30.3787-53.5286 31.8016-55.3551ZM119.859-55.4504Q121.217-53.5591 122.758-53.2173Q124.298-52.8755 125.636-53.9219Q126.974-54.9683 127.733-57.2273L136.027-82.1442Q136.932-84.9052 135.587-86.7493Q134.241-88.5933 131.351-88.5757L105.07-88.3064Q101.539-88.3224 100.252-86.2663Q98.9647-84.2102 101.002-81.414Z"/>
  </g>
  <g id="Medium-L" transform="matrix(1 0 0 1 1671.68 1556)">
   <path d="M74.8711 24.3805Q77.504 24.3805 78.9024 22.7425Q80.3009 21.1044 80.3009 18.0496L80.3009-18.5196Q80.3009-22.9362 82.1163-27.9709Q83.9317-33.0055 87.0678-38.1916Q90.2039-43.3777 94.2951-48.2845Q98.3864-53.1914 102.991-57.3883Q107.597-61.5852 112.26-64.5966L117.213-67.7567Q118.504-68.5951 119.215-69.9093Q119.926-71.2234 119.926-72.5891Q119.926-74.8581 118.497-76.3405Q117.067-77.8229 114.613-77.8229Q112.263-77.8229 110.006-76.387L106.543-74.0868Q100.914-70.3194 95.6112-65.2733Q90.3084-60.2272 85.9486-54.7493Q81.5887-49.2714 78.6995-44.183Q75.8102-39.0945 74.9771-35.2737L74.7643-35.2737Q73.9227-39.0945 71.0293-44.1875Q68.1358-49.2805 63.7802-54.7539Q59.4246-60.2272 54.142-65.2733Q48.8594-70.3194 43.1992-74.0868L39.7766-76.387Q37.5191-77.832 35.1295-77.832Q32.6485-77.832 31.2275-76.292Q29.8065-74.752 29.8065-72.6288Q29.8065-71.2639 30.5138-69.9337Q31.221-68.6035 32.5592-67.7658L37.4817-64.5966Q42.1364-61.5852 46.7373-57.3883Q51.3382-53.1914 55.4337-48.2845Q59.5291-43.3777 62.6854-38.1916Q65.8417-33.0055 67.6414-27.9709Q69.4412-22.9362 69.4412-18.5196L69.4412 18.0496Q69.4412 21.1044 70.8397 22.7425Q72.2382 24.3805 74.8711 24.3805ZM31.0539-56.3789L49.6262-80.5946Q50.9605-82.2975 50.8724-83.7498Q50.7843-85.202 49.5674-86.1176Q48.3505-87.0331 46.1823-87.0911L20.826-88.0585Q18.1526-88.1653 16.8823-86.525Q15.612-84.8846 16.4062-82.2861L23.8663-58.1329Q24.5049-55.9998 25.6954-55.0293Q26.886-54.0588 28.3024-54.3629Q29.7188-54.6669 31.0539-56.3789ZM117.979-56.4545Q119.257-54.6844 120.669-54.3427Q122.081-54.0009 123.305-54.9427Q124.529-55.8846 125.233-57.9689L133.318-81.9893Q134.17-84.5482 132.942-86.2171Q131.714-87.886 129.04-87.8548L103.675-87.5114Q100.447-87.5206 99.2947-85.6361Q98.1422-83.7517 100.059-81.131Z"/>
  </g>
  <g id="Regular-L" transform="matrix(1 0 0 1 1376.75 1556)">
   <path d="M73.0957 24.6094Q75.3418 24.6094 76.5381 23.1689Q77.7344 21.7285 77.7344 19.043L77.7344-18.5547Q77.7344-22.998 79.541-28.125Q81.3477-33.252 84.4971-38.5742Q87.6465-43.8965 91.8213-48.9746Q95.9961-54.0527 100.781-58.4473Q105.566-62.8418 110.547-66.0645L115.43-69.1895Q116.553-69.9219 117.163-71.0693Q117.773-72.2168 117.773-73.3887Q117.773-75.3418 116.528-76.5869Q115.283-77.832 113.232-77.832Q111.182-77.832 109.18-76.5625L105.664-74.2188Q99.5605-70.1172 93.9941-64.7461Q88.4277-59.375 83.9844-53.6377Q79.541-47.9004 76.709-42.6758Q73.877-37.4512 73.1934-33.6914L72.998-33.6914Q72.3145-37.4512 69.4824-42.6758Q66.6504-47.9004 62.207-53.6377Q57.7637-59.375 52.2217-64.7461Q46.6797-70.1172 40.5273-74.2188L37.0605-76.5625Q35.0586-77.832 32.959-77.832Q30.9082-77.832 29.6631-76.5381Q28.418-75.2441 28.418-73.4375Q28.418-72.2656 29.0283-71.0938Q29.6387-69.9219 30.8105-69.1895L35.6445-66.0645Q40.625-62.8418 45.4102-58.4473Q50.1953-54.0527 54.3701-48.9746Q58.5449-43.8965 61.7188-38.5742Q64.8926-33.252 66.6748-28.125Q68.457-22.998 68.457-18.5547L68.457 19.043Q68.457 21.7285 69.6533 23.1689Q70.8496 24.6094 73.0957 24.6094ZM30.0781-57.7148L47.3145-80.3223Q48.5352-81.8848 48.4863-83.1787Q48.4375-84.4727 47.3877-85.2783Q46.3379-86.084 44.4336-86.1328L20.2637-87.1094Q17.8711-87.207 16.7725-85.791Q15.6738-84.375 16.4062-82.0312L23.6816-59.082Q24.2676-57.1777 25.3174-56.3477Q26.3672-55.5176 27.6123-55.835Q28.8574-56.1523 30.0781-57.7148ZM115.527-57.7637Q116.699-56.1523 117.944-55.8105Q119.189-55.4688 120.264-56.2744Q121.338-57.0801 121.973-58.9355L129.785-81.7871Q130.566-84.082 129.492-85.5225Q128.418-86.9629 126.025-86.9141L101.855-86.4746Q99.0234-86.4746 98.0469-84.8145Q97.0703-83.1543 98.8281-80.7617Z"/>
  </g>
  <g id="Light-L" transform="matrix(1 0 0 1 1081.51 1556)">
   <path d="M71.6278 24.5338Q73.2986 24.5338 74.1997 23.4795Q75.1007 22.4251 75.1007 20.4506L75.1007-19.0544Q75.1007-23.3459 76.8391-28.405Q78.5774-33.4641 81.6814-38.8165Q84.7855-44.1689 89.0057-49.3607Q93.2259-54.5525 98.2231-59.1587Q103.22-63.765 108.655-67.3058L113.28-70.2789Q114.191-70.8755 114.681-71.7655Q115.17-72.6555 115.17-73.5397Q115.17-75.0092 114.228-75.9514Q113.285-76.8936 111.719-76.8936Q110.183-76.8936 108.68-75.9422L104.938-73.4619Q98.3192-69.0125 92.5411-63.3839Q86.763-57.7553 82.3044-51.8364Q77.8458-45.9175 75.0969-40.5567Q72.348-35.1959 71.74-31.3301L71.4996-31.3301Q70.8916-35.1959 68.1427-40.5567Q65.3938-45.9175 60.9356-51.8364Q56.4774-57.7553 50.7156-63.3839Q44.9539-69.0125 38.3026-73.4619L34.5932-75.9422Q33.091-76.8936 31.5208-76.8936Q29.9698-76.8936 29.0199-75.9174Q28.0701-74.9413 28.0701-73.5741Q28.0701-72.6746 28.5591-71.7751Q29.0482-70.8755 29.9934-70.2789L34.5848-67.3058Q40.0345-63.765 45.0317-59.1587Q50.029-54.5525 54.2416-49.3607Q58.4541-44.1689 61.5826-38.8165Q64.711-33.4641 66.4249-28.405Q68.1389-23.3459 68.1389-19.0544L68.1389 20.4506Q68.1389 22.4251 69.0403 23.4795Q69.9417 24.5338 71.6278 24.5338ZM29.0489-58.0933L45.755-80.368Q46.7339-81.6429 46.6927-82.7248Q46.6515-83.8066 45.768-84.4761Q44.8845-85.1456 43.2381-85.1791L19.5976-85.9589Q17.5529-86.026 16.6435-84.8373Q15.7341-83.6487 16.3757-81.6528L23.7122-59.2484Q24.2218-57.6317 25.1129-56.9454Q26.004-56.2592 27.037-56.5311Q28.0701-56.8031 29.0489-58.0933ZM113.817-58.1116Q114.777-56.8031 115.81-56.5144Q116.843-56.2256 117.751-56.9027Q118.658-57.5798 119.202-59.1476L126.864-81.4995Q127.539-83.4618 126.646-84.6676Q125.754-85.8734 123.695-85.8246L100.054-85.3996Q97.6311-85.3851 96.8285-83.9897Q96.0258-82.5943 97.4655-80.6404Z"/>
  </g>
  <g id="Thin-L" transform="matrix(1 0 0 1 786.754 1556)">
   <path d="M69.6854 24.4339Q70.5956 24.4339 71.1063 23.8899Q71.6171 23.3459 71.6171 22.3122L71.6171-19.7151Q71.6171-23.8068 73.2658-28.7754Q74.9146-33.744 77.9583-39.1365Q81.002-44.529 85.2825-49.8711Q89.563-55.2132 94.8402-60.0998Q100.117-64.9864 106.152-68.9468L110.438-71.7209Q111.069-72.1367 111.398-72.6864Q111.727-73.2361 111.727-73.7404Q111.727-74.5682 111.185-75.1102Q110.643-75.6523 109.717-75.6523Q108.862-75.6523 108.019-75.1213L103.976-72.4609Q96.6782-67.5507 90.6193-61.5822Q84.5604-55.6137 80.0819-49.4545Q75.6035-43.2953 72.9649-37.7541Q70.3262-32.2128 69.8189-28.2074L69.5175-28.2074Q69.0102-32.2128 66.3715-37.7541Q63.7329-43.2953 59.2541-49.4545Q54.7752-55.6137 48.7236-61.5822Q42.672-67.5507 35.36-72.4609L31.3301-75.1213Q30.4886-75.6523 29.6196-75.6523Q28.7285-75.6523 28.1689-75.0965Q27.6093-74.5407 27.6093-73.7541Q27.6093-73.2147 27.9385-72.6757Q28.2677-72.1367 28.9124-71.7209L33.1841-68.9468Q39.254-64.9864 44.5312-60.0998Q49.8085-55.2132 54.0714-49.8711Q58.3344-44.529 61.4025-39.1365Q64.4707-33.744 66.0946-28.7754Q67.7185-23.8068 67.7185-19.7151L67.7185 22.3122Q67.7185 23.3459 68.2293 23.8899Q68.7401 24.4339 69.6854 24.4339ZM27.6878-58.5938L43.6935-80.4276Q44.352-81.3225 44.3207-82.1243Q44.2894-82.9262 43.6264-83.4152Q42.9634-83.9043 41.6565-83.918L18.7172-84.4376Q17.1326-84.465 16.4734-83.5762Q15.8142-82.6874 16.3361-81.1523L23.7518-59.4688Q24.1623-58.2321 24.8428-57.7362Q25.5234-57.2403 26.2764-57.452Q27.0294-57.6637 27.6878-58.5938ZM111.555-58.5724Q112.234-57.6637 112.988-57.4451Q113.741-57.2266 114.428-57.7335Q115.115-58.2405 115.54-59.4276L123-81.1195Q123.535-82.6408 122.883-83.5361Q122.231-84.4315 120.612-84.3826L97.6723-83.9783Q95.7893-83.9432 95.2171-82.8983Q94.6449-81.8535 95.6642-80.4802Z"/>
  </g>
  <g id="Ultralight-L" transform="matrix(1 0 0 1 491.043 1556)">
   <path d="M68.6913 24.382Q69.2116 24.382 69.5225 24.0997Q69.8334 23.8174 69.8334 23.2658L69.8334-20.0531Q69.8334-24.0425 71.4355-28.965Q73.0377-33.8875 76.0509-39.3005Q79.0642-44.7136 83.3752-50.1324Q87.6862-55.5511 93.1068-60.5816Q98.5275-65.612 104.871-69.7884L108.981-72.4586Q109.469-72.7829 109.716-73.1583Q109.963-73.5336 109.963-73.8426Q109.963-74.3431 109.626-74.6799Q109.289-75.0168 108.691-75.0168Q108.185-75.0168 107.681-74.7009L103.484-71.9482Q95.8366-66.8022 89.6347-60.659Q83.4328-54.5158 78.944-48.2338Q74.4553-41.9518 71.8731-36.3186Q69.2909-30.6854 68.8339-26.6075L68.5028-26.6075Q68.0458-30.6854 65.4636-36.3186Q62.8815-41.9518 58.3927-48.2338Q53.904-54.5158 47.7036-60.659Q41.5031-66.8022 33.8524-71.9482L29.6585-74.7009Q29.155-75.0168 28.6453-75.0168Q28.093-75.0168 27.7332-74.6765Q27.3735-74.3362 27.3735-73.8464Q27.3735-73.4917 27.6207-73.1373Q27.8679-72.7829 28.3585-72.4586L32.4661-69.7884Q38.8542-65.612 44.2749-60.5816Q49.6956-55.5511 53.9841-50.1324Q58.2726-44.7136 61.3102-39.3005Q64.3478-33.8875 65.9256-28.965Q67.5034-24.0425 67.5034-20.0531L67.5034 23.2658Q67.5034 23.8174 67.8143 24.0997Q68.1252 24.382 68.6913 24.382ZM26.9905-58.8501L42.6369-80.4588Q43.1313-81.1584 43.1053-81.8165Q43.0794-82.4745 42.5289-82.8716Q41.9785-83.2687 40.8463-83.2718L18.2655-83.6586Q16.9174-83.6647 16.3864-82.93Q15.8554-82.1953 16.3155-80.896L23.7724-59.5818Q24.131-58.5403 24.7044-58.1413Q25.2777-57.7423 25.8869-57.9235Q26.4961-58.1047 26.9905-58.8501ZM110.396-58.8081Q110.932-58.1047 111.541-57.922Q112.151-57.7393 112.725-58.1589Q113.3-58.5785 113.663-59.5711L121.021-80.9242Q121.484-82.2205 120.955-82.9571Q120.426-83.6937 119.032-83.6449L96.4516-83.2504Q94.8456-83.2054 94.3913-82.3399Q93.9369-81.4743 94.7411-80.3986Z"/>
  </g>
  <g id="Black-M" transform="matrix(1 0 0 1 2867.6 1126)">
   <path d="M65.7715 9.86328Q73.291 9.86328 73.291 1.9043L73.291-22.3145Q73.291-26.3184 75.4639-30.6885Q77.6367-35.0586 80.957-39.1602Q84.2773-43.2617 87.8906-46.5088Q91.5039-49.7559 94.3359-51.5625L98.4375-54.1504Q102.1-56.4453 102.1-60.498Q102.1-63.5742 100.244-65.7227Q98.3887-67.8711 94.7266-67.8711Q91.6992-67.8711 88.916-66.1133L86.4258-64.502Q84.082-62.9883 81.1279-60.498Q78.1738-58.0078 75.1953-54.9316Q72.2168-51.8555 69.751-48.4863Q67.2852-45.1172 65.918-41.7969L65.6738-41.7969Q64.3066-45.1172 61.8164-48.4863Q59.3262-51.8555 56.3477-54.9316Q53.3691-58.0078 50.415-60.498Q47.4609-62.9883 45.1172-64.502L42.627-66.1133Q39.8926-67.9199 36.8652-67.9199Q33.1055-67.9199 31.2988-65.6982Q29.4922-63.4766 29.4922-60.498Q29.4922-56.4941 33.1055-54.1992L37.207-51.5625Q40.0391-49.7559 43.6279-46.5088Q47.2168-43.2617 50.5615-39.1602Q53.9062-35.0586 56.1035-30.6885Q58.3008-26.3184 58.3008-22.3145L58.3008 1.9043Q58.3008 9.86328 65.7715 9.86328ZM28.2715-45.5078L48.6816-71.6309Q50.9277-74.5117 49.3408-76.9775Q47.7539-79.4434 43.5547-79.541L18.5059-80.2246Q15.2344-80.3223 13.5498-78.0762Q11.8652-75.8301 12.7441-72.7539L19.3848-48.6328Q20.459-44.6777 23.2178-43.6523Q25.9766-42.627 28.2715-45.5078ZM102.246-45.7031Q104.395-42.6758 107.227-43.6035Q110.059-44.5312 111.279-48.4375L118.799-72.3633Q119.727-75.3906 118.115-77.6855Q116.504-79.9805 113.232-80.0293L88.1836-80.2246Q84.0332-80.2734 82.3486-77.8564Q80.6641-75.4395 82.8125-72.5098Z"/>
  </g>
  <g id="Heavy-M" transform="matrix(1 0 0 1 2572.85 1126)">
   <path d="M63.8237 10.1746Q70.5711 10.1746 70.5711 2.87247L70.5711-22.245Q70.5711-26.3412 72.744-30.8842Q74.9168-35.4271 78.3119-39.7652Q81.707-44.1032 85.5164-47.6093Q89.3257-51.1154 92.5499-53.1761L96.6049-55.7526Q99.8985-57.8171 99.8985-61.5005Q99.8985-64.2654 98.2101-66.1777Q96.5218-68.0901 93.2861-68.0901Q90.5235-68.0901 87.9707-66.4589L85.4576-64.8247Q82.6187-62.9654 79.3705-60.112Q76.1223-57.2586 73.04-53.8887Q69.9577-50.5188 67.5438-47.0055Q65.1299-43.4921 63.9473-40.287L63.726-40.287Q62.5435-43.4921 60.1166-47.0055Q57.6897-50.5188 54.6017-53.8944Q51.5137-57.2701 48.2716-60.1177Q45.0294-62.9654 42.1898-64.8247L39.6767-66.4589Q37.1498-68.1274 34.3872-68.1274Q31.0768-68.1274 29.4315-66.1476Q27.7863-64.1678 27.7863-61.512Q27.7863-57.8537 31.0425-55.7899L35.0983-53.1761Q38.3217-51.1154 42.1066-47.6093Q45.8916-44.1032 49.3053-39.7652Q52.7191-35.4271 54.9164-30.8842Q57.1136-26.3412 57.1136-22.245L57.1136 2.87247Q57.1136 10.1746 63.8237 10.1746ZM27.2461-47.1443L46.0655-71.2852Q48.1506-73.97 46.748-76.1997Q45.3453-78.4294 41.5611-78.5271L17.9413-79.245Q14.9574-79.3427 13.4403-77.3384Q11.9232-75.3342 12.7441-72.5121L19.1429-49.8085Q20.1363-46.2219 22.6242-45.335Q25.1122-44.4481 27.2461-47.1443ZM99.4804-47.3053Q101.479-44.4855 104.028-45.2862Q106.578-46.0869 107.695-49.6246L114.892-72.1443Q115.762-74.9298 114.312-76.9768Q112.862-79.0237 109.879-79.0497L86.2473-79.1298Q82.5005-79.1557 81.012-76.9749Q79.5235-74.794 81.5216-72.0604Z"/>
  </g>
  <g id="Bold-M" transform="matrix(1 0 0 1 2278.32 1126)">
   <path d="M61.6455 10.5225Q67.5293 10.5225 67.5293 3.95508L67.5293-22.168Q67.5293-26.3672 69.7021-31.1035Q71.875-35.8398 75.354-40.4419Q78.833-45.0439 82.8613-48.8403Q86.8896-52.6367 90.5518-54.9805L94.5557-57.5439Q97.4365-59.3506 97.4365-62.6221Q97.4365-65.0391 95.9351-66.687Q94.4336-68.335 91.6748-68.335Q89.209-68.335 86.9141-66.8457L84.375-65.1855Q80.9814-62.9395 77.4048-59.6802Q73.8281-56.4209 70.6299-52.7222Q67.4316-49.0234 65.0757-45.3491Q62.7197-41.6748 61.7432-38.5986L61.5479-38.5986Q60.5713-41.6748 58.2153-45.3491Q55.8594-49.0234 52.6489-52.7344Q49.4385-56.4453 45.874-59.6924Q42.3096-62.9395 38.916-65.1855L36.377-66.8457Q34.082-68.3594 31.6162-68.3594Q28.8086-68.3594 27.3438-66.6504Q25.8789-64.9414 25.8789-62.6465Q25.8789-59.375 28.7354-57.5684L32.7393-54.9805Q36.4014-52.6367 40.4053-48.8403Q44.4092-45.0439 47.9004-40.4419Q51.3916-35.8398 53.5889-31.1035Q55.7861-26.3672 55.7861-22.168L55.7861 3.95508Q55.7861 10.5225 61.6455 10.5225ZM26.0986-48.9746L43.1396-70.8984Q45.0439-73.3643 43.8477-75.3296Q42.6514-77.2949 39.3311-77.3926L17.3096-78.1494Q14.6484-78.2471 13.3179-76.5137Q11.9873-74.7803 12.7441-72.2412L18.8721-51.123Q19.7754-47.9492 21.9604-47.2168Q24.1455-46.4844 26.0986-48.9746ZM96.3867-49.0967Q98.2178-46.5088 100.452-47.168Q102.686-47.8271 103.687-50.9521L110.522-71.8994Q111.328-74.4141 110.059-76.1841Q108.789-77.9541 106.128-77.9541L84.082-77.9053Q80.7861-77.9053 79.5166-75.9888Q78.2471-74.0723 80.0781-71.5576Z"/>
  </g>
  <g id="Semibold-M" transform="matrix(1 0 0 1 1983.12 1126)">
   <path d="M60.1433 10.7628Q65.432 10.7628 65.432 4.70123L65.432-22.1146Q65.432-26.3847 67.6048-31.2546Q69.7777-36.1244 73.3143-40.9084Q76.8509-45.6924 81.0303-49.6891Q85.2097-53.6858 89.1739-56.2248L93.1427-58.7791Q95.739-60.408 95.739-63.3949Q95.739-65.5724 94.3665-67.038Q92.9939-68.5036 90.564-68.5036Q88.3026-68.5036 86.1855-67.112L83.6288-65.4343Q79.8531-62.9219 76.0498-59.3826Q72.2466-55.8434 68.9682-51.918Q65.6898-47.9927 63.3739-44.2074Q61.058-40.4221 60.2234-37.4344L60.0456-37.4344Q59.2117-40.4221 56.9046-44.2074Q54.5975-47.9927 51.3027-51.9348Q48.008-55.8769 44.2211-59.3994Q40.4343-62.9219 36.6585-65.4343L34.1019-67.112Q31.9672-68.5196 29.7058-68.5196Q27.2446-68.5196 25.9041-66.9971Q24.5636-65.4747 24.5636-63.4285Q24.5636-60.424 27.1446-58.7944L31.1127-56.2248Q35.0769-53.6858 39.2319-49.6891Q43.3868-45.6924 46.9315-40.9084Q50.4761-36.1244 52.6733-31.2546Q54.8706-26.3847 54.8706-22.1146L54.8706 4.70123Q54.8706 10.7628 60.1433 10.7628ZM25.3075-50.2365L41.1224-70.6322Q42.9024-72.9469 41.848-74.7299Q40.7936-76.5129 37.7937-76.6106L16.8739-77.3941Q14.4348-77.4918 13.2332-75.9449Q12.0316-74.398 12.7441-72.0543L18.6852-52.0294Q19.5267-49.1402 21.5027-48.5142Q23.4787-47.8882 25.3075-50.2365ZM94.2535-50.3319Q95.9694-47.9042 97.9855-48.4657Q100.002-49.0273 100.922-51.8677L107.51-71.7308Q108.271-74.0585 107.126-75.6374Q105.981-77.2163 103.542-77.1988L82.589-77.0607Q79.6043-77.0432 78.4859-75.309Q77.3674-73.5748 79.0825-71.2112Z"/>
  </g>
  <g id="Medium-M" transform="matrix(1 0 0 1 1687.55 1126)">
   <path d="M59.005 10.9444Q63.842 10.9444 63.842 5.26733L63.842-22.0741Q63.842-26.3985 66.0149-31.369Q68.1877-36.3396 71.7682-41.2621Q75.3487-46.1845 79.6425-50.3326Q83.9363-54.4807 88.1302-57.1678L92.0715-59.716Q94.4519-61.2099 94.4519-63.9816Q94.4519-65.9767 93.177-67.3042Q91.9022-68.6317 89.7217-68.6317Q87.6152-68.6317 85.6331-67.3141L83.0627-65.6227Q78.997-62.9082 75.0217-59.1568Q71.0464-55.4054 67.7078-51.3081Q64.3692-47.2107 62.0834-43.3411Q59.7977-39.4714 59.0714-36.5517L58.9073-36.5517Q58.1802-39.4714 55.9105-43.3411Q53.6407-47.2107 50.2819-51.3279Q46.9231-55.4451 42.968-59.1766Q39.0129-62.9082 34.9472-65.6227L32.3769-67.3141Q30.3635-68.6409 28.257-68.6409Q26.0582-68.6409 24.8123-67.26Q23.5664-65.8791 23.5664-64.0213Q23.5664-61.219 25.9384-59.7244L29.8798-57.1678Q34.0729-54.4807 38.3427-50.3326Q42.6125-46.1845 46.1975-41.2621Q49.7826-36.3396 51.9798-31.369Q54.1771-26.3985 54.1771-22.0741L54.1771 5.26733Q54.1771 10.9444 59.005 10.9444ZM24.7078-51.1932L39.5927-70.43Q41.2781-72.6295 40.332-74.2748Q39.386-75.9201 36.628-76.0178L16.5436-76.8211Q14.2731-76.9188 13.1691-75.5135Q12.0651-74.1081 12.7441-71.9131L18.544-52.7168Q19.3382-50.0427 21.1559-49.498Q22.9736-48.9532 24.7078-51.1932ZM92.6369-51.2688Q94.2642-48.9616 96.1155-49.4492Q97.9668-49.9367 98.8274-52.5612L105.225-71.6026Q105.953-73.7892 104.902-75.2232Q103.851-76.6571 101.581-76.6258L81.4568-76.4206Q78.7079-76.3893 77.7039-74.7932Q76.6998-73.1972 78.3279-70.948Z"/>
  </g>
  <g id="Regular-M" transform="matrix(1 0 0 1 1392.32 1126)">
   <path d="M57.5195 11.1816Q61.7676 11.1816 61.7676 6.00586L61.7676-22.0215Q61.7676-26.416 63.9404-31.5186Q66.1133-36.6211 69.751-41.7236Q73.3887-46.8262 77.832-51.1719Q82.2754-55.5176 86.7676-58.3984L90.6738-60.9375Q92.7734-62.2559 92.7734-64.7461Q92.7734-66.5039 91.626-67.6514Q90.4785-68.7988 88.623-68.7988Q86.7188-68.7988 84.9121-67.5781L82.3242-65.8691Q77.8809-62.8906 73.6816-58.8623Q69.4824-54.834 66.0645-50.5127Q62.6465-46.1914 60.4004-42.2119Q58.1543-38.2324 57.5684-35.4004L57.4219-35.4004Q56.8359-38.2324 54.6143-42.2119Q52.3926-46.1914 48.9502-50.5371Q45.5078-54.8828 41.333-58.8867Q37.1582-62.8906 32.7148-65.8691L30.127-67.5781Q28.2715-68.7988 26.3672-68.7988Q24.5117-68.7988 23.3887-67.6025Q22.2656-66.4062 22.2656-64.7949Q22.2656-62.2559 24.3652-60.9375L28.2715-58.3984Q32.7637-55.5176 37.1826-51.1719Q41.6016-46.8262 45.2393-41.7236Q48.877-36.6211 51.0742-31.5186Q53.2715-26.416 53.2715-22.0215L53.2715 6.00586Q53.2715 11.1816 57.5195 11.1816ZM23.9258-52.4414L37.5977-70.166Q39.1602-72.2168 38.3545-73.6816Q37.5488-75.1465 35.1074-75.2441L16.1133-76.0742Q14.0625-76.1719 13.0859-74.9512Q12.1094-73.7305 12.7441-71.7285L18.3594-53.6133Q19.0918-51.2207 20.7031-50.7812Q22.3145-50.3418 23.9258-52.4414ZM90.5273-52.4902Q92.041-50.3418 93.6768-50.7324Q95.3125-51.123 96.0938-53.4668L102.246-71.4355Q102.93-73.4375 102.002-74.6826Q101.074-75.9277 99.0234-75.8789L79.9805-75.5859Q77.5391-75.5371 76.6846-74.1211Q75.8301-72.7051 77.3438-70.6055Z"/>
  </g>
  <g id="Light-M" transform="matrix(1 0 0 1 1096.95 1126)">
   <path d="M56.1874 11.1214Q59.391 11.1214 59.391 7.27768L59.391-22.4754Q59.391-26.7036 61.4883-31.7608Q63.5857-36.8179 67.2081-41.9884Q70.8305-47.1588 75.4478-51.7166Q80.0652-56.2744 85.0723-59.5184L88.7512-61.9064Q90.4427-62.9822 90.4427-64.8674Q90.4427-66.201 89.5676-67.0761Q88.6925-67.9512 87.2757-67.9512Q85.8253-67.9512 84.4582-67.0334L81.6734-65.1878Q76.7609-61.9064 72.3801-57.6511Q67.9993-53.3958 64.5584-48.9006Q61.1176-44.4054 58.9474-40.3122Q56.7772-36.219 56.2668-33.2809L56.0898-33.2809Q55.5641-36.219 53.4107-40.3122Q51.2573-44.4054 47.8073-48.9174Q44.3573-53.4294 39.9857-57.6679Q35.614-61.9064 30.7014-65.1878L27.9167-67.0334Q26.516-67.9512 25.0809-67.9512Q23.6641-67.9512 22.8058-67.0502Q21.9475-66.1491 21.9475-64.901Q21.9475-62.9822 23.6237-61.9064L27.3026-59.5184Q32.325-56.2744 36.9255-51.7166Q41.526-47.1588 45.1408-41.9884Q48.7556-36.8179 50.8698-31.7608Q52.9839-26.7036 52.9839-22.4754L52.9839 7.27768Q52.9839 11.1214 56.1874 11.1214ZM23.0026-52.774L36.19-70.1965Q37.4496-71.8689 36.7878-73.0915Q36.1259-74.3141 34.0477-74.3813L15.5075-75.045Q13.7749-75.1122 12.9723-74.0959Q12.1696-73.0797 12.7136-71.3806L18.3746-53.7643Q19.0163-51.7357 20.3625-51.4019Q21.7087-51.0681 23.0026-52.774ZM88.9984-52.8084Q90.2245-51.0681 91.5878-51.3756Q92.9512-51.683 93.6111-53.6636L99.6277-71.1937Q100.205-72.8775 99.4362-73.9182Q98.6671-74.9588 96.9345-74.91L78.3607-74.617Q76.2825-74.5682 75.5871-73.3791Q74.8917-72.1901 76.133-70.4842Z"/>
  </g>
  <g id="Thin-M" transform="matrix(1 0 0 1 801.996 1126)">
   <path d="M54.4258 11.0413Q56.2485 11.0413 56.2485 8.9592L56.2485-23.0759Q56.2485-27.0836 58.2455-32.0808Q60.2425-37.0781 63.8451-42.3389Q67.4477-47.5998 72.2954-52.4376Q77.1431-57.2754 82.83-61.0001L86.2091-63.1874Q87.3596-63.9435 87.3596-65.0276Q87.3596-65.8005 86.845-66.3155Q86.3304-66.8304 85.4942-66.8304Q84.6443-66.8304 83.8577-66.3124L80.8128-64.2868Q75.2792-60.6056 70.6581-56.0501Q66.037-51.4946 62.5664-46.769Q59.0958-42.0433 57.0255-37.8002Q54.9553-33.5571 54.5448-30.4787L54.3282-30.4787Q53.8826-33.5571 51.8192-37.8002Q49.7559-42.0433 46.2959-46.7758Q42.836-51.5083 38.2042-56.057Q33.5724-60.6056 28.0396-64.2868L24.9947-66.3124Q24.1936-66.8304 23.3788-66.8304Q22.5433-66.8304 22.0352-66.3197Q21.5271-65.8089 21.5271-65.0414Q21.5271-63.9435 22.6425-63.1874L26.0216-61.0001Q31.7444-57.2754 36.5852-52.4376Q41.4261-47.5998 45.0108-42.3389Q48.5954-37.0781 50.5997-32.0808Q52.6039-27.0836 52.6039-23.0759L52.6039 8.9592Q52.6039 11.0413 54.4258 11.0413ZM21.7812-53.215L34.3285-70.2362Q35.1875-71.4081 34.716-72.3106Q34.2445-73.2132 32.6469-73.2407L14.7072-73.6839Q13.3949-73.7114 12.8223-72.9652Q12.2498-72.2191 12.674-70.9198L18.3945-53.965Q18.9163-52.4162 19.9123-52.2228Q20.9084-52.0294 21.7812-53.215ZM86.9766-53.2288Q87.8227-52.0294 88.8256-52.2266Q89.8285-52.4239 90.3282-53.9238L96.1639-70.8733Q96.6019-72.1367 96.0434-72.9073Q95.4849-73.6778 94.1719-73.629L76.2192-73.336Q74.6216-73.2872 74.136-72.3984Q73.6504-71.5096 74.5316-70.3239Z"/>
  </g>
  <g id="Ultralight-M" transform="matrix(1 0 0 1 506.188 1126)">
   <path d="M53.5233 11.0001Q54.6379 11.0001 54.6379 9.82056L54.6379-23.3841Q54.6379-27.2789 56.5838-32.2453Q58.5297-37.2116 62.122-42.5182Q65.7143-47.8249 70.6799-52.8065Q75.6454-57.7881 81.6818-61.7584L84.9068-63.8435Q85.7803-64.4356 85.7803-65.1093Q85.7803-65.596 85.4504-65.926Q85.1204-66.256 84.5818-66.256Q84.0393-66.256 83.5495-65.9431L80.3719-63.826Q74.5209-59.9388 69.7765-55.2296Q65.0322-50.5203 61.5463-45.6768Q58.0605-40.8333 56.0413-36.5131Q54.0222-32.193 53.6629-29.0428L53.4256-29.0428Q53.0212-32.193 51.004-36.5131Q48.9868-40.8333 45.5219-45.6783Q42.057-50.5234 37.2917-55.2311Q32.5264-59.9388 26.6754-63.826L23.497-65.9431Q23.0042-66.256 22.5075-66.256Q21.9688-66.256 21.6404-65.9451Q21.312-65.6342 21.312-65.1131Q21.312-64.4356 22.1405-63.8435L25.3654-61.7584Q31.4468-57.7881 36.4105-52.8065Q41.3742-47.8249 44.944-42.5182Q48.5138-37.2116 50.4612-32.2453Q52.4086-27.2789 52.4086-23.3841L52.4086 9.82056Q52.4086 11.0001 53.5233 11.0001ZM21.1555-53.4401L33.3748-70.2568Q34.0286-71.1723 33.6544-71.9105Q33.2802-72.6486 31.929-72.6555L14.2967-72.9866Q13.1996-72.9935 12.7453-72.3858Q12.291-71.7781 12.6534-70.6841L18.4052-54.0672Q18.8644-52.7649 19.6812-52.6432Q20.4979-52.5215 21.1555-53.4401ZM85.9413-53.4439Q86.5921-52.5215 87.4104-52.6623Q88.2286-52.803 88.6467-54.0573L94.3901-70.7092Q94.7556-71.7575 94.3047-72.3896Q93.8538-73.0217 92.7567-72.9729L75.1213-72.6799Q73.7701-72.6311 73.3925-71.896Q73.0148-71.1609 73.7106-70.2423Z"/>
  </g>
  <g id="Black-S" transform="matrix(1 0 0 1 2881.32 696)">
   <path d="M52.0508 0Q58.1055 0 58.1055-6.34766L58.1055-25.1465Q58.1055-28.2715 59.8145-31.6406Q61.5234-35.0098 64.1113-38.1348Q66.6992-41.2598 69.458-43.75Q72.2168-46.2402 74.3652-47.6074L77.5391-49.6094Q80.5176-51.5137 80.5176-54.7363Q80.5176-57.1777 79.0283-58.9355Q77.5391-60.6934 74.5605-60.6934Q72.168-60.6934 69.9219-59.2773L67.9688-58.0078Q66.3086-56.9336 64.0625-55.0781Q61.8164-53.2227 59.4971-50.8789Q57.1777-48.5352 55.2246-45.9473Q53.2715-43.3594 52.1484-40.7227L51.9531-40.7227Q50.8301-43.3594 48.877-45.9473Q46.9238-48.5352 44.6045-50.8789Q42.2852-53.2227 40.0635-55.0781Q37.8418-56.9336 36.1328-58.0078L34.1797-59.2773Q31.9824-60.7422 29.541-60.7422Q26.5137-60.7422 25.0488-58.9355Q23.584-57.1289 23.584-54.7363Q23.584-51.5137 26.5137-49.6582L29.7363-47.6074Q31.8848-46.2402 34.6436-43.75Q37.4023-41.2598 40.0146-38.1348Q42.627-35.0098 44.3115-31.6406Q45.9961-28.2715 45.9961-25.1465L45.9961-6.34766Q45.9961 0 52.0508 0ZM22.4121-42.8223L38.8672-63.8672Q40.625-66.1621 39.3311-68.1641Q38.0371-70.166 34.668-70.2148L14.6484-70.7031Q12.0117-70.8008 10.6445-68.9697Q9.27734-67.1387 9.96094-64.6973L15.2344-45.3613Q16.1133-42.1875 18.3594-41.3574Q20.6055-40.5273 22.4121-42.8223ZM80.8594-42.9688Q82.6172-40.5762 84.8877-41.333Q87.1582-42.0898 88.1348-45.2148L94.0918-64.3555Q94.873-66.7969 93.5547-68.6523Q92.2363-70.5078 89.5996-70.5566L69.5801-70.752Q66.2109-70.8008 64.8682-68.8477Q63.5254-66.8945 65.1855-64.5508Z"/>
  </g>
  <g id="Heavy-S" transform="matrix(1 0 0 1 2586.12 696)">
   <path d="M50.5409 0.276947Q56.0768 0.276947 56.0768-5.67932L56.0768-25.0313Q56.0768-28.2486 57.7976-31.7734Q59.5184-35.2982 62.1696-38.6189Q64.8209-41.9395 67.7235-44.6259Q70.6261-47.3122 73.04-48.8518L76.2138-50.8537Q78.9268-52.5856 78.9268-55.5664Q78.9268-57.8232 77.5471-59.4025Q76.1673-60.9818 73.5001-60.9818Q71.2692-60.9818 69.1612-59.6458L67.2195-58.3763Q65.1794-57.0374 62.7087-54.9053Q60.2379-52.7733 57.832-50.1991Q55.426-47.625 53.5133-44.9276Q51.6006-42.2302 50.6271-39.6973L50.4547-39.6973Q49.482-42.2302 47.5689-44.9276Q45.6558-47.625 43.2503-50.1991Q40.8447-52.7733 38.3984-54.9053Q35.952-57.0374 33.8737-58.3763L31.9321-59.6458Q29.8622-61.0191 27.5818-61.0191Q24.8772-61.0191 23.5218-59.391Q22.1664-57.7629 22.1664-55.5779Q22.1664-52.5856 24.8314-50.8911L28.054-48.8518Q30.4558-47.3122 33.3645-44.6259Q36.2732-41.9395 38.9431-38.6189Q41.613-35.2982 43.3147-31.7734Q45.0165-28.2486 45.0165-25.0313L45.0165-5.67932Q45.0165 0.276947 50.5409 0.276947ZM21.64-44.1704L36.7928-63.5674Q38.4697-65.7356 37.3142-67.5648Q36.1588-69.3939 33.0894-69.4542L14.2334-70.0005Q11.8042-70.0981 10.5579-68.4513Q9.31168-66.8045 9.96094-64.5363L15.0269-46.3524Q15.8363-43.4433 17.881-42.717Q19.9257-41.9907 21.64-44.1704ZM78.6812-44.294Q80.3467-42.028 82.4097-42.6868Q84.4727-43.3456 85.3806-46.2059L91.0835-64.2059Q91.819-66.4742 90.6216-68.1454Q89.4241-69.8166 86.9949-69.854L68.1282-69.9455Q65.0581-69.9707 63.8596-68.1908Q62.661-66.4108 64.2403-64.1823Z"/>
  </g>
  <g id="Bold-S" transform="matrix(1 0 0 1 2291.1 696)">
   <path d="M48.8525 0.585938Q53.8086 0.585938 53.8086-4.93164L53.8086-24.9023Q53.8086-28.2227 55.542-31.9214Q57.2754-35.6201 59.9976-39.1602Q62.7197-42.7002 65.7837-45.6055Q68.8477-48.5107 71.5576-50.2441L74.7314-52.2461Q77.1484-53.7842 77.1484-56.4941Q77.1484-58.5449 75.8911-59.9243Q74.6338-61.3037 72.3145-61.3037Q70.2637-61.3037 68.3105-60.0586L66.3818-58.7891Q63.916-57.1533 61.1938-54.7119Q58.4717-52.2705 55.9692-49.4385Q53.4668-46.6064 51.5991-43.7866Q49.7314-40.9668 48.9258-38.5498L48.7793-38.5498Q47.9736-40.9668 46.106-43.7866Q44.2383-46.6064 41.7358-49.4385Q39.2334-52.2705 36.5356-54.7119Q33.8379-57.1533 31.3477-58.7891L29.4189-60.0586Q27.4902-61.3281 25.3906-61.3281Q23.0469-61.3281 21.814-59.8999Q20.5811-58.4717 20.5811-56.5186Q20.5811-53.7842 22.9492-52.2705L26.1719-50.2441Q28.8574-48.5107 31.9336-45.6055Q35.0098-42.7002 37.7441-39.1602Q40.4785-35.6201 42.1997-31.9214Q43.9209-28.2227 43.9209-24.9023L43.9209-4.93164Q43.9209 0.585938 48.8525 0.585938ZM20.7764-45.6787L34.4727-63.2324Q36.0596-65.2588 35.0586-66.8945Q34.0576-68.5303 31.3232-68.6035L13.7695-69.2139Q11.5723-69.3115 10.4614-67.8711Q9.35059-66.4307 9.96094-64.3555L14.7949-47.4609Q15.5273-44.8486 17.3462-44.2383Q19.165-43.6279 20.7764-45.6787ZM76.2451-45.7764Q77.8076-43.6523 79.6387-44.2017Q81.4697-44.751 82.2998-47.3145L87.7197-64.0381Q88.4033-66.1133 87.3413-67.5781Q86.2793-69.043 84.082-69.0674L66.5039-69.043Q63.7695-69.043 62.7319-67.4561Q61.6943-65.8691 63.1836-63.7695Z"/>
  </g>
  <g id="Semibold-S" transform="matrix(1 0 0 1 1995.55 696)">
   <path d="M47.6883 0.799561Q52.2446 0.799561 52.2446-4.41589L52.2446-24.8138Q52.2446-28.2051 53.9867-32.0236Q55.7289-35.8421 58.4999-39.5332Q61.2709-43.2243 64.4463-46.2807Q67.6216-49.337 70.5353-51.2039L73.7091-53.2059Q75.9224-54.6104 75.9224-57.1342Q75.9224-59.0424 74.7494-60.284Q73.5764-61.5257 71.4966-61.5257Q69.5702-61.5257 67.7238-60.3432L65.8043-59.0736Q63.0447-57.2334 60.1494-54.5788Q57.254-51.9241 54.6848-48.9143Q52.1156-45.9045 50.2792-43Q48.4428-40.0955 47.7524-37.7586L47.6242-37.7586Q46.9337-40.0955 45.0974-43Q43.261-45.9045 40.6918-48.9143Q38.1226-51.9241 35.2516-54.5788Q32.3807-57.2334 29.6059-59.0736L27.6863-60.3432Q25.8553-61.5417 23.88-61.5417Q21.785-61.5417 20.6364-60.2512Q19.4878-58.9607 19.4878-57.1671Q19.4878-54.6104 21.6515-53.2211L24.8741-51.2039Q27.7557-49.337 30.9471-46.2807Q34.1385-43.2243 36.9175-39.5332Q39.6965-35.8421 41.431-32.0236Q43.1656-28.2051 43.1656-24.8138L43.1656-4.41589Q43.1656 0.799561 47.6883 0.799561ZM20.1813-46.7186L32.8728-63.0013Q34.3979-64.93 33.5033-66.4326Q32.6088-67.9352 30.1056-68.0168L13.4499-68.6714Q11.412-68.7691 10.3947-67.4709Q9.37729-66.1728 9.96094-64.2311L14.6347-48.2254Q15.3137-45.8176 16.9773-45.2869Q18.6409-44.7563 20.1813-46.7186ZM74.5651-46.7987Q76.0567-44.7723 77.7279-45.2461Q79.3991-45.7199 80.1758-48.0789L85.4004-63.9229Q86.0481-65.8646 85.0796-67.1871Q84.111-68.5097 82.0732-68.5249L65.3839-68.4212Q62.8807-68.4029 61.9541-66.9495Q61.0275-65.4961 62.455-63.485Z"/>
  </g>
  <g id="Medium-S" transform="matrix(1 0 0 1 1699.73 696)">
   <path d="M46.8056 0.961304Q51.0582 0.961304 51.0582-4.02527L51.0582-24.7459Q51.0582-28.1914 52.8072-32.1011Q54.5563-36.0107 57.3647-39.8163Q60.173-43.6218 63.4323-46.793Q66.6916-49.9641 69.7609-51.9318L72.9347-53.9337Q74.9924-55.2376 74.9924-57.6195Q74.9924-59.42 73.8834-60.5572Q72.7745-61.6943 70.8771-61.6943Q69.0453-61.6943 67.2791-60.5583L65.3664-59.2888Q62.3848-57.2937 59.3578-54.4773Q56.3309-51.6609 53.7113-48.5165Q51.0918-45.372 49.2786-42.4038Q47.4655-39.4356 46.8636-37.159L46.7484-37.159Q46.1456-39.4356 44.3325-42.4038Q42.5194-45.372 39.8998-48.5165Q37.2803-51.6609 34.2777-54.4773Q31.2752-57.2937 28.2852-59.2888L26.3718-60.5583Q24.6155-61.7035 22.7341-61.7035Q20.8282-61.7035 19.7437-60.5171Q18.6592-59.3307 18.6592-57.6591Q18.6592-55.2376 20.668-53.9421L23.8907-51.9318Q26.9196-49.9641 30.1991-46.793Q33.4785-43.6218 36.2911-39.8163Q39.1037-36.0107 40.8482-32.1011Q42.5926-28.1914 42.5926-24.7459L42.5926-4.02527Q42.5926 0.961304 46.8056 0.961304ZM19.7296-47.5067L31.6605-62.8265Q33.1375-64.6805 32.3242-66.082Q31.5109-67.4835 29.1824-67.572L13.2072-68.261Q11.2907-68.3586 10.3439-67.168Q9.39713-65.9775 9.96094-64.1365L14.5134-48.8045Q15.152-46.5515 16.6977-46.0819Q18.2434-45.6123 19.7296-47.5067ZM73.2918-47.5731Q74.7292-45.6215 76.2791-46.0377Q77.829-46.4539 78.5652-48.658L83.6418-63.8351Q84.2628-65.6761 83.3649-66.8907Q82.4669-68.1053 80.5504-68.1145L64.5348-67.9489Q62.207-67.9176 61.3647-66.5653Q60.5225-65.213 61.9026-63.2698Z"/>
  </g>
  <g id="Regular-S" transform="matrix(1 0 0 1 1404.17 696)">
   <path d="M45.6543 1.17188Q49.5117 1.17188 49.5117-3.51562L49.5117-24.6582Q49.5117-28.1738 51.2695-32.2021Q53.0273-36.2305 55.8838-40.1855Q58.7402-44.1406 62.1094-47.4609Q65.4785-50.7812 68.75-52.8809L71.9238-54.8828Q73.7793-56.0547 73.7793-58.252Q73.7793-59.9121 72.7539-60.9131Q71.7285-61.9141 70.0684-61.9141Q68.3594-61.9141 66.6992-60.8398L64.7949-59.5703Q61.5234-57.373 58.3252-54.3457Q55.127-51.3184 52.4414-47.998Q49.7559-44.6777 47.9736-41.626Q46.1914-38.5742 45.7031-36.377L45.6055-36.377Q45.1172-38.5742 43.335-41.626Q41.5527-44.6777 38.8672-47.998Q36.1816-51.3184 33.0078-54.3457Q29.834-57.373 26.5625-59.5703L24.6582-60.8398Q22.998-61.9141 21.2402-61.9141Q19.5801-61.9141 18.5791-60.8643Q17.5781-59.8145 17.5781-58.3008Q17.5781-56.0547 19.3848-54.8828L22.6074-52.8809Q25.8301-50.7812 29.2236-47.4609Q32.6172-44.1406 35.4736-40.1855Q38.3301-36.2305 40.0879-32.2021Q41.8457-28.1738 41.8457-24.6582L41.8457-3.51562Q41.8457 1.17188 45.6543 1.17188ZM19.1406-48.5352L30.0781-62.5977Q31.4941-64.3555 30.7861-65.625Q30.0781-66.8945 27.9785-66.9922L12.8906-67.7246Q11.1328-67.8223 10.2783-66.7725Q9.42383-65.7227 9.96094-64.0137L14.3555-49.5605Q14.9414-47.5098 16.333-47.1191Q17.7246-46.7285 19.1406-48.5352ZM71.6309-48.584Q72.998-46.7285 74.3896-47.0703Q75.7812-47.4121 76.4648-49.4141L81.3477-63.7207Q81.9336-65.4297 81.1279-66.5039Q80.3223-67.5781 78.5645-67.5781L63.4277-67.334Q61.3281-67.2852 60.5957-66.0645Q59.8633-64.8438 61.1816-62.9883Z"/>
  </g>
  <g id="Light-S" transform="matrix(1 0 0 1 1108.63 696)">
   <path d="M44.4885 1.1116Q47.4228 1.1116 47.4228-2.39563L47.4228-25.0671Q47.4228-28.4309 49.1051-32.4139Q50.7874-36.3968 53.6285-40.4202Q56.4697-44.4435 59.9979-47.9454Q63.5262-51.4473 67.2516-53.8498L70.2286-55.7457Q71.7209-56.6902 71.7209-58.3733Q71.7209-59.6397 70.9301-60.4061Q70.1393-61.1725 68.8728-61.1725Q67.572-61.1725 66.3055-60.3554L64.2197-58.9645Q60.5392-56.4949 57.1747-53.2635Q53.8101-50.032 51.1169-46.5679Q48.4238-43.1038 46.7022-39.946Q44.9806-36.7882 44.5526-34.5001L44.4244-34.5001Q43.9972-36.7882 42.2756-39.946Q40.554-43.1038 37.8609-46.5679Q35.1677-50.032 31.8195-53.2635Q28.4714-56.4949 24.7917-58.9645L22.7058-60.3554Q21.4386-61.1725 20.105-61.1725Q18.8232-61.1725 18.0569-60.3725Q17.2905-59.5726 17.2905-58.4068Q17.2905-56.6902 18.7492-55.7457L21.7445-53.8498Q25.4517-51.4473 28.9967-47.9454Q32.5417-44.4435 35.3828-40.4202Q38.224-36.3968 39.9063-32.4139Q41.5886-28.4309 41.5886-25.0671L41.5886-2.39563Q41.5886 1.1116 44.4885 1.1116ZM18.3235-48.838L28.8368-62.6282Q29.9805-64.0526 29.401-65.1104Q28.8216-66.1682 27.0401-66.2354L12.3611-66.8167Q10.8757-66.8839 10.1799-66.008Q9.4841-65.1321 9.94568-63.7108L14.3707-49.6971Q14.8811-47.9637 16.0381-47.6639Q17.1951-47.364 18.3235-48.838ZM70.2835-48.8716Q71.3783-47.364 72.5353-47.6303Q73.6923-47.8966 74.2699-49.5956L79.0321-63.5086Q79.5265-64.9452 78.8647-65.8302Q78.2028-66.7152 76.7181-66.7152L62.0049-66.4711Q60.2234-66.4223 59.6272-65.406Q59.0309-64.3898 60.1067-62.8822Z"/>
  </g>
  <g id="Thin-S" transform="matrix(1 0 0 1 813.468 696)">
   <path d="M42.9474 1.03149Q44.6602 1.03149 44.6602-0.914001L44.6602-25.6073Q44.6602-28.7712 46.2421-32.6942Q47.8241-36.6173 50.6454-40.7307Q53.4668-44.8441 57.2052-48.5859Q60.9436-52.3277 65.2695-55.1308L67.9863-56.8863Q68.998-57.531 68.998-58.5335Q68.998-59.2796 68.5177-59.7355Q68.0374-60.1913 67.2913-60.1913Q66.5314-60.1913 65.7852-59.7153L63.459-58.1642Q59.2384-55.3337 55.6534-51.8318Q52.0683-48.3299 49.3652-44.6758Q46.6621-41.0217 45.0207-37.7239Q43.3792-34.4261 43.0313-32.0175L42.8635-32.0175Q42.5156-34.4261 40.8741-37.7239Q39.2326-41.0217 36.5295-44.6758Q33.8264-48.3299 30.2483-51.8318Q26.6701-55.3337 22.4495-58.1642L20.1233-59.7153Q19.3771-60.1913 18.6035-60.1913Q17.8223-60.1913 17.3664-59.7218Q16.9106-59.2522 16.9106-58.5472Q16.9106-57.531 17.9085-56.8863L20.6039-55.1308Q24.9512-52.3277 28.6964-48.5859Q32.4417-44.8441 35.2627-40.7307Q38.0836-36.6173 39.666-32.6942Q41.2483-28.7712 41.2483-25.6073L41.2483-0.914001Q41.2483 1.03149 42.9474 1.03149ZM17.2424-49.2386L27.1957-62.6678Q27.9785-63.652 27.5696-64.4295Q27.1606-65.2069 25.7988-65.2344L11.66-65.6151Q10.5354-65.6425 10.0498-64.9971Q9.56421-64.3517 9.92584-63.3102L14.3906-49.8772Q14.801-48.5641 15.6475-48.3845Q16.494-48.2048 17.2424-49.2386ZM68.502-49.2516Q69.2368-48.2048 70.0832-48.3711Q70.9297-48.5374 71.3676-49.836L75.9689-63.2286Q76.3443-64.3051 75.8724-64.9399Q75.4005-65.5746 74.2752-65.5746L60.1234-65.3305Q58.7616-65.2817 58.3458-64.5355Q57.93-63.7894 58.6853-62.7419Z"/>
  </g>
  <g id="Ultralight-S" transform="matrix(1 0 0 1 517.552 696)">
   <path d="M42.1577 0.990295Q43.2449 0.990295 43.2449-0.15564L43.2449-25.8842Q43.2449-28.9459 44.7758-32.8381Q46.3066-36.7302 49.1177-40.8894Q51.9287-45.0485 55.7747-48.914Q59.6207-52.7794 64.2548-55.7869L66.8381-57.4715Q67.6033-57.962 67.6033-58.6151Q67.6033-59.095 67.2817-59.3922Q66.9601-59.6893 66.481-59.6893Q65.9981-59.6893 65.5182-59.3864L63.0692-57.7538Q58.5716-54.7394 54.874-51.099Q51.1765-47.4586 48.468-43.7069Q45.7596-39.9551 44.1589-36.5856Q42.5583-33.2161 42.2523-30.7465L42.0631-30.7465Q41.7572-33.2161 40.1566-36.5856Q38.5559-39.9551 35.8475-43.7069Q33.139-47.4586 29.443-51.099Q25.7469-54.7394 21.2494-57.7538L18.8004-59.3864Q18.3205-59.6893 17.8345-59.6893Q17.3096-59.6893 17.0124-59.3887Q16.7152-59.0881 16.7152-58.6189Q16.7152-57.962 17.4774-57.4715L20.0188-55.7869Q24.6948-52.7794 28.5423-48.914Q32.3898-45.0485 35.2009-40.8894Q38.0119-36.7302 39.5428-32.8381Q41.0736-28.9459 41.0736-25.8842L41.0736-0.15564Q41.0736 0.990295 42.1577 0.990295ZM16.6885-49.4431L26.3542-62.6884Q26.9531-63.4476 26.6312-64.0812Q26.3092-64.7148 25.1633-64.7217L11.3014-65.0002Q10.3607-65.007 9.98306-64.4794Q9.60541-63.9519 9.91516-63.1058L14.4012-49.9695Q14.7598-48.8724 15.4476-48.7541Q16.1354-48.6359 16.6885-49.4431ZM67.5896-49.4469Q68.1389-48.6359 68.8267-48.7507Q69.5145-48.8655 69.8807-49.9588L74.4003-63.0852Q74.7131-63.9763 74.3389-64.4829Q73.9647-64.9895 73.0247-64.9895L59.1591-64.7453Q58.0132-64.6965 57.6893-64.0888Q57.3654-63.4811 57.9575-62.6701Z"/>
  </g>
 </g>
</svg>
