<?xml version="1.0" encoding="UTF-8"?>
<!--Generator: Apple Native CoreSVG 175-->
<!DOCTYPE svg
PUBLIC "-//W3C//DTD SVG 1.1//EN"
       "http://www.w3.org/Graphics/SVG/1.1/DTD/svg11.dtd">
<svg version="1.1" xmlns="http://www.w3.org/2000/svg" xmlns:xlink="http://www.w3.org/1999/xlink" width="3300" height="2200">
 <!--glyph: "uni10012D.medium", point size: 100.0, font version: "17.3d3e1", template writer version: "65.1"-->
 <g id="Notes">
  <rect height="2200" id="artboard" style="fill:white;opacity:1" width="3300" x="0" y="0"/>
  <line style="fill:none;stroke:black;opacity:1;stroke-width:0.5;" x1="263" x2="3036" y1="292" y2="292"/>
  <text style="stroke:none;fill:black;font-family:sans-serif;font-size:13;font-weight:bold;" transform="matrix(1 0 0 1 263 322)">Weight/Scale Variations</text>
  <text style="stroke:none;fill:black;font-family:sans-serif;font-size:13;text-anchor:middle;" transform="matrix(1 0 0 1 559.711 322)">Ultralight</text>
  <text style="stroke:none;fill:black;font-family:sans-serif;font-size:13;text-anchor:middle;" transform="matrix(1 0 0 1 856.422 322)">Thin</text>
  <text style="stroke:none;fill:black;font-family:sans-serif;font-size:13;text-anchor:middle;" transform="matrix(1 0 0 1 1153.13 322)">Light</text>
  <text style="stroke:none;fill:black;font-family:sans-serif;font-size:13;text-anchor:middle;" transform="matrix(1 0 0 1 1449.84 322)">Regular</text>
  <text style="stroke:none;fill:black;font-family:sans-serif;font-size:13;text-anchor:middle;" transform="matrix(1 0 0 1 1746.56 322)">Medium</text>
  <text style="stroke:none;fill:black;font-family:sans-serif;font-size:13;text-anchor:middle;" transform="matrix(1 0 0 1 2043.27 322)">Semibold</text>
  <text style="stroke:none;fill:black;font-family:sans-serif;font-size:13;text-anchor:middle;" transform="matrix(1 0 0 1 2339.98 322)">Bold</text>
  <text style="stroke:none;fill:black;font-family:sans-serif;font-size:13;text-anchor:middle;" transform="matrix(1 0 0 1 2636.69 322)">Heavy</text>
  <text style="stroke:none;fill:black;font-family:sans-serif;font-size:13;text-anchor:middle;" transform="matrix(1 0 0 1 2933.4 322)">Black</text>
  <line style="fill:none;stroke:black;opacity:1;stroke-width:0.5;" x1="263" x2="3036" y1="1903" y2="1903"/>
  <g transform="matrix(1 0 0 1 263 1933)">
   <path d="M9.24805 0.830078Q10.8691 0.830078 12.2949 0.214844Q13.7207-0.400391 14.8096-1.49414Q15.8984-2.58789 16.5186-4.01367Q17.1387-5.43945 17.1387-7.05078Q17.1387-8.66211 16.5186-10.0879Q15.8984-11.5137 14.8047-12.6074Q13.7109-13.7012 12.2852-14.3164Q10.8594-14.9316 9.23828-14.9316Q7.62695-14.9316 6.20117-14.3164Q4.77539-13.7012 3.69141-12.6074Q2.60742-11.5137 1.9873-10.0879Q1.36719-8.66211 1.36719-7.05078Q1.36719-5.43945 1.9873-4.01367Q2.60742-2.58789 3.69629-1.49414Q4.78516-0.400391 6.21094 0.214844Q7.63672 0.830078 9.24805 0.830078ZM9.24805-0.654297Q7.91992-0.654297 6.7627-1.14746Q5.60547-1.64062 4.73145-2.51953Q3.85742-3.39844 3.36426-4.56055Q2.87109-5.72266 2.87109-7.05078Q2.87109-8.37891 3.35938-9.54102Q3.84766-10.7031 4.72168-11.582Q5.5957-12.4609 6.75293-12.9541Q7.91016-13.4473 9.23828-13.4473Q10.5762-13.4473 11.7334-12.9541Q12.8906-12.4609 13.7695-11.582Q14.6484-10.7031 15.1465-9.54102Q15.6445-8.37891 15.6445-7.05078Q15.6445-5.72266 15.1514-4.56055Q14.6582-3.39844 13.7842-2.51953Q12.9102-1.64062 11.748-1.14746Q10.5859-0.654297 9.24805-0.654297ZM5.6543-7.05078Q5.6543-6.72852 5.85938-6.52832Q6.06445-6.32812 6.40625-6.32812L8.51562-6.32812L8.51562-4.20898Q8.51562-3.88672 8.71094-3.67676Q8.90625-3.4668 9.23828-3.4668Q9.56055-3.4668 9.77051-3.67676Q9.98047-3.88672 9.98047-4.20898L9.98047-6.32812L12.0898-6.32812Q12.4219-6.32812 12.627-6.52832Q12.832-6.72852 12.832-7.05078Q12.832-7.38281 12.627-7.58789Q12.4219-7.79297 12.0898-7.79297L9.98047-7.79297L9.98047-9.90234Q9.98047-10.2344 9.77051-10.4443Q9.56055-10.6543 9.23828-10.6543Q8.90625-10.6543 8.71094-10.4443Q8.51562-10.2344 8.51562-9.90234L8.51562-7.79297L6.40625-7.79297Q6.06445-7.79297 5.85938-7.58789Q5.6543-7.38281 5.6543-7.05078Z"/>
  </g>
  <g transform="matrix(1 0 0 1 281.867 1933)">
   <path d="M11.709 2.91016Q13.75 2.91016 15.5518 2.12891Q17.3535 1.34766 18.7305-0.0292969Q20.1074-1.40625 20.8887-3.20801Q21.6699-5.00977 21.6699-7.05078Q21.6699-9.0918 20.8887-10.8936Q20.1074-12.6953 18.7305-14.0723Q17.3535-15.4492 15.5469-16.2305Q13.7402-17.0117 11.6992-17.0117Q9.6582-17.0117 7.85645-16.2305Q6.05469-15.4492 4.68262-14.0723Q3.31055-12.6953 2.5293-10.8936Q1.74805-9.0918 1.74805-7.05078Q1.74805-5.00977 2.5293-3.20801Q3.31055-1.40625 4.6875-0.0292969Q6.06445 1.34766 7.86621 2.12891Q9.66797 2.91016 11.709 2.91016ZM11.709 1.25Q9.98047 1.25 8.47656 0.605469Q6.97266-0.0390625 5.83496-1.17676Q4.69727-2.31445 4.05762-3.81836Q3.41797-5.32227 3.41797-7.05078Q3.41797-8.7793 4.05762-10.2832Q4.69727-11.7871 5.83008-12.9297Q6.96289-14.0723 8.4668-14.7119Q9.9707-15.3516 11.6992-15.3516Q13.4277-15.3516 14.9316-14.7119Q16.4355-14.0723 17.5781-12.9297Q18.7207-11.7871 19.3652-10.2832Q20.0098-8.7793 20.0098-7.05078Q20.0098-5.32227 19.3701-3.81836Q18.7305-2.31445 17.5928-1.17676Q16.4551-0.0390625 14.9463 0.605469Q13.4375 1.25 11.709 1.25ZM7.17773-7.05078Q7.17773-6.69922 7.41211-6.47461Q7.64648-6.25 8.01758-6.25L10.8887-6.25L10.8887-3.36914Q10.8887-2.99805 11.1133-2.76855Q11.3379-2.53906 11.6895-2.53906Q12.0605-2.53906 12.29-2.76855Q12.5195-2.99805 12.5195-3.36914L12.5195-6.25L15.4004-6.25Q15.7715-6.25 16.001-6.47461Q16.2305-6.69922 16.2305-7.05078Q16.2305-7.42188 16.001-7.65137Q15.7715-7.88086 15.4004-7.88086L12.5195-7.88086L12.5195-10.752Q12.5195-11.1328 12.29-11.3623Q12.0605-11.5918 11.6895-11.5918Q11.3379-11.5918 11.1133-11.3574Q10.8887-11.123 10.8887-10.752L10.8887-7.88086L8.01758-7.88086Q7.63672-7.88086 7.40723-7.65137Q7.17773-7.42188 7.17773-7.05078Z"/>
  </g>
  <g transform="matrix(1 0 0 1 305.646 1933)">
   <path d="M14.9707 5.66406Q17.0605 5.66406 18.96 5.01465Q20.8594 4.36523 22.4512 3.19336Q24.043 2.02148 25.2197 0.429688Q26.3965-1.16211 27.0459-3.06641Q27.6953-4.9707 27.6953-7.05078Q27.6953-9.14062 27.0459-11.04Q26.3965-12.9395 25.2197-14.5312Q24.043-16.123 22.4512-17.2998Q20.8594-18.4766 18.9551-19.126Q17.0508-19.7754 14.9609-19.7754Q12.8711-19.7754 10.9717-19.126Q9.07227-18.4766 7.48535-17.2998Q5.89844-16.123 4.72168-14.5312Q3.54492-12.9395 2.90039-11.04Q2.25586-9.14062 2.25586-7.05078Q2.25586-4.9707 2.90527-3.06641Q3.55469-1.16211 4.72656 0.429688Q5.89844 2.02148 7.49023 3.19336Q9.08203 4.36523 10.9814 5.01465Q12.8809 5.66406 14.9707 5.66406ZM14.9707 3.84766Q13.1641 3.84766 11.5283 3.2959Q9.89258 2.74414 8.53516 1.74805Q7.17773 0.751953 6.17676-0.610352Q5.17578-1.97266 4.62891-3.6084Q4.08203-5.24414 4.08203-7.05078Q4.08203-8.86719 4.62891-10.5029Q5.17578-12.1387 6.17188-13.501Q7.16797-14.8633 8.52539-15.8594Q9.88281-16.8555 11.5186-17.4023Q13.1543-17.9492 14.9609-17.9492Q16.7773-17.9492 18.4131-17.4023Q20.0488-16.8555 21.4111-15.8594Q22.7734-14.8633 23.7695-13.501Q24.7656-12.1387 25.3174-10.5029Q25.8691-8.86719 25.8691-7.05078Q25.8789-5.24414 25.332-3.6084Q24.7852-1.97266 23.7842-0.610352Q22.7832 0.751953 21.4209 1.74805Q20.0586 2.74414 18.4229 3.2959Q16.7871 3.84766 14.9707 3.84766ZM9.19922-7.05078Q9.19922-6.66992 9.45801-6.4209Q9.7168-6.17188 10.1172-6.17188L14.0625-6.17188L14.0625-2.2168Q14.0625-1.81641 14.3115-1.55762Q14.5605-1.29883 14.9512-1.29883Q15.3516-1.29883 15.6104-1.55273Q15.8691-1.80664 15.8691-2.2168L15.8691-6.17188L19.8242-6.17188Q20.2246-6.17188 20.4785-6.4209Q20.7324-6.66992 20.7324-7.05078Q20.7324-7.46094 20.4785-7.71484Q20.2246-7.96875 19.8242-7.96875L15.8691-7.96875L15.8691-11.9141Q15.8691-12.3242 15.6104-12.583Q15.3516-12.8418 14.9512-12.8418Q14.5605-12.8418 14.3115-12.583Q14.0625-12.3242 14.0625-11.9141L14.0625-7.96875L10.1172-7.96875Q9.70703-7.96875 9.45312-7.71484Q9.19922-7.46094 9.19922-7.05078Z"/>
  </g>
  <text style="stroke:none;fill:black;font-family:sans-serif;font-size:13;font-weight:bold;" transform="matrix(1 0 0 1 263 1953)">Design Variations</text>
  <text style="stroke:none;fill:black;font-family:sans-serif;font-size:13;" transform="matrix(1 0 0 1 263 1971)">Symbols are supported in up to nine weights and three scales.</text>
  <text style="stroke:none;fill:black;font-family:sans-serif;font-size:13;" transform="matrix(1 0 0 1 263 1989)">For optimal layout with text and other symbols, vertically align</text>
  <text style="stroke:none;fill:black;font-family:sans-serif;font-size:13;" transform="matrix(1 0 0 1 263 2007)">symbols with the adjacent text.</text>
  <line style="fill:none;stroke:#00AEEF;stroke-width:0.5;opacity:1.0;" x1="776" x2="776" y1="1919" y2="1933"/>
  <g transform="matrix(1 0 0 1 776 1933)">
   <path d="M3.31055 0.15625Q3.70117 0.15625 3.91602-0.00976562Q4.13086-0.175781 4.26758-0.585938L5.52734-4.0332L11.2891-4.0332L12.5488-0.585938Q12.6855-0.175781 12.9004-0.00976562Q13.1152 0.15625 13.4961 0.15625Q13.8867 0.15625 14.1162-0.0585938Q14.3457-0.273438 14.3457-0.644531Q14.3457-0.869141 14.2383-1.17188L9.6582-13.3691Q9.48242-13.8184 9.17969-14.043Q8.87695-14.2676 8.4082-14.2676Q7.5-14.2676 7.17773-13.3789L2.59766-1.16211Q2.49023-0.859375 2.49023-0.634766Q2.49023-0.263672 2.70996-0.0537109Q2.92969 0.15625 3.31055 0.15625ZM6.00586-5.51758L8.37891-12.0898L8.42773-12.0898L10.8008-5.51758Z"/>
  </g>
  <line style="fill:none;stroke:#00AEEF;stroke-width:0.5;opacity:1.0;" x1="793.197" x2="793.197" y1="1919" y2="1933"/>
  <text style="stroke:none;fill:black;font-family:sans-serif;font-size:13;font-weight:bold;" transform="matrix(1 0 0 1 776 1953)">Margins</text>
  <text style="stroke:none;fill:black;font-family:sans-serif;font-size:13;" transform="matrix(1 0 0 1 776 1971)">Leading and trailing margins on the left and right side of each symbol</text>
  <text style="stroke:none;fill:black;font-family:sans-serif;font-size:13;" transform="matrix(1 0 0 1 776 1989)">can be adjusted by modifying the x-location of the margin guidelines.</text>
  <text style="stroke:none;fill:black;font-family:sans-serif;font-size:13;" transform="matrix(1 0 0 1 776 2007)">Modifications are automatically applied proportionally to all</text>
  <text style="stroke:none;fill:black;font-family:sans-serif;font-size:13;" transform="matrix(1 0 0 1 776 2025)">scales and weights.</text>
  <g transform="matrix(1 0 0 1 1289 1933)">
   <path d="M2.8418 1.86523L4.54102 3.57422Q5.18555 4.22852 5.90332 4.17969Q6.62109 4.13086 7.31445 3.35938L18.0078-8.42773L17.041-9.4043L6.42578 2.27539Q6.16211 2.57812 5.89355 2.61719Q5.625 2.65625 5.27344 2.30469L4.10156 1.14258Q3.75 0.791016 3.79395 0.522461Q3.83789 0.253906 4.14062-0.0195312L15.6152-10.8203L14.6387-11.7871L3.04688-0.898438Q2.30469-0.214844 2.25098 0.498047Q2.19727 1.21094 2.8418 1.86523ZM9.25781-16.3281Q8.94531-16.0254 8.90625-15.6348Q8.86719-15.2441 9.04297-14.9512Q9.21875-14.6777 9.55566-14.541Q9.89258-14.4043 10.3809-14.5215Q11.4746-14.7754 12.5977-14.7314Q13.7207-14.6875 14.7949-13.9844L14.209-12.5293Q13.9551-11.9043 14.0674-11.4404Q14.1797-10.9766 14.5801-10.5664L16.875-8.25195Q17.2363-7.88086 17.5781-7.82227Q17.9199-7.76367 18.3398-7.8418L19.4043-8.03711L20.0684-7.36328L20.0293-6.80664Q20-6.43555 20.1221-6.12305Q20.2441-5.81055 20.6055-5.44922L21.3672-4.70703Q21.7285-4.3457 22.1533-4.33105Q22.5781-4.31641 22.9297-4.66797L25.8398-7.58789Q26.1914-7.93945 26.1816-8.35449Q26.1719-8.76953 25.8105-9.13086L25.0391-9.89258Q24.6875-10.2539 24.3799-10.3857Q24.0723-10.5176 23.7109-10.4883L23.1348-10.4395L22.4902-11.0742L22.7344-12.1973Q22.832-12.6172 22.6953-12.9834Q22.5586-13.3496 22.1191-13.7891L19.9219-15.9766Q18.6719-17.2168 17.2607-17.8369Q15.8496-18.457 14.4189-18.4814Q12.9883-18.5059 11.665-17.959Q10.3418-17.4121 9.25781-16.3281ZM10.752-15.957Q11.6602-16.6211 12.7002-16.9043Q13.7402-17.1875 14.8047-17.085Q15.8691-16.9824 16.8701-16.5137Q17.8711-16.0449 18.7012-15.2051L21.1328-12.793Q21.3086-12.6172 21.3525-12.4512Q21.3965-12.2852 21.3379-12.0312L21.0156-10.5469L22.5195-9.0625L23.5059-9.12109Q23.6914-9.13086 23.7891-9.09668Q23.8867-9.0625 24.0332-8.91602L24.6094-8.33984L22.168-5.89844L21.5918-6.47461Q21.4453-6.62109 21.4062-6.71875Q21.3672-6.81641 21.377-7.01172L21.4453-7.98828L19.9512-9.47266L18.4277-9.21875Q18.1836-9.16992 18.042-9.2041Q17.9004-9.23828 17.7148-9.41406L15.7129-11.416Q15.5176-11.5918 15.4932-11.7529Q15.4688-11.9141 15.5859-12.1875L16.4648-14.2773Q15.293-15.3711 13.8281-15.791Q12.3633-16.2109 10.8398-15.7617Q10.7227-15.7324 10.6885-15.8057Q10.6543-15.8789 10.752-15.957Z"/>
  </g>
  <text style="stroke:none;fill:black;font-family:sans-serif;font-size:13;font-weight:bold;" transform="matrix(1 0 0 1 1289 1953)">Exporting</text>
  <text style="stroke:none;fill:black;font-family:sans-serif;font-size:13;" transform="matrix(1 0 0 1 1289 1971)">Symbols should be outlined when exporting to ensure the</text>
  <text style="stroke:none;fill:black;font-family:sans-serif;font-size:13;" transform="matrix(1 0 0 1 1289 1989)">design is preserved when submitting to Xcode.</text>
  <text id="template-version" style="stroke:none;fill:black;font-family:sans-serif;font-size:13;text-anchor:end;" transform="matrix(1 0 0 1 3036 1933)">Template v.3.0</text>
  <text style="stroke:none;fill:black;font-family:sans-serif;font-size:13;text-anchor:end;" transform="matrix(1 0 0 1 3036 1951)">Requires Xcode 13 or greater</text>
  <text id="descriptive-name" style="stroke:none;fill:black;font-family:sans-serif;font-size:13;text-anchor:end;" transform="matrix(1 0 0 1 3036 1969)">Generated from arrow.left.arrow.right</text>
  <text style="stroke:none;fill:black;font-family:sans-serif;font-size:13;text-anchor:end;" transform="matrix(1 0 0 1 3036 1987)">Typeset at 100 points</text>
  <text style="stroke:none;fill:black;font-family:sans-serif;font-size:13;" transform="matrix(1 0 0 1 263 726)">Small</text>
  <text style="stroke:none;fill:black;font-family:sans-serif;font-size:13;" transform="matrix(1 0 0 1 263 1156)">Medium</text>
  <text style="stroke:none;fill:black;font-family:sans-serif;font-size:13;" transform="matrix(1 0 0 1 263 1586)">Large</text>
 </g>
 <g id="Guides">
  <g id="H-reference" style="fill:#27AAE1;stroke:none;" transform="matrix(1 0 0 1 339 696)">
   <path d="M0.993347 0L3.6377 0L29.3282-67.1326L30.0301-67.1326L30.0301-70.459L28.1227-70.459ZM11.6882-24.4797L46.9818-24.4797L46.2311-26.7288L12.4382-26.7288ZM55.1193 0L57.7637 0L30.6381-70.459L29.4327-70.459L29.4327-67.1326Z"/>
  </g>
  <line id="Baseline-S" style="fill:none;stroke:#27AAE1;opacity:1;stroke-width:0.5;" x1="263" x2="3036" y1="696" y2="696"/>
  <line id="Capline-S" style="fill:none;stroke:#27AAE1;opacity:1;stroke-width:0.5;" x1="263" x2="3036" y1="625.541" y2="625.541"/>
  <g id="H-reference" style="fill:#27AAE1;stroke:none;" transform="matrix(1 0 0 1 339 1126)">
   <path d="M0.993347 0L3.6377 0L29.3282-67.1326L30.0301-67.1326L30.0301-70.459L28.1227-70.459ZM11.6882-24.4797L46.9818-24.4797L46.2311-26.7288L12.4382-26.7288ZM55.1193 0L57.7637 0L30.6381-70.459L29.4327-70.459L29.4327-67.1326Z"/>
  </g>
  <line id="Baseline-M" style="fill:none;stroke:#27AAE1;opacity:1;stroke-width:0.5;" x1="263" x2="3036" y1="1126" y2="1126"/>
  <line id="Capline-M" style="fill:none;stroke:#27AAE1;opacity:1;stroke-width:0.5;" x1="263" x2="3036" y1="1055.54" y2="1055.54"/>
  <g id="H-reference" style="fill:#27AAE1;stroke:none;" transform="matrix(1 0 0 1 339 1556)">
   <path d="M0.993347 0L3.6377 0L29.3282-67.1326L30.0301-67.1326L30.0301-70.459L28.1227-70.459ZM11.6882-24.4797L46.9818-24.4797L46.2311-26.7288L12.4382-26.7288ZM55.1193 0L57.7637 0L30.6381-70.459L29.4327-70.459L29.4327-67.1326Z"/>
  </g>
  <line id="Baseline-L" style="fill:none;stroke:#27AAE1;opacity:1;stroke-width:0.5;" x1="263" x2="3036" y1="1556" y2="1556"/>
  <line id="Capline-L" style="fill:none;stroke:#27AAE1;opacity:1;stroke-width:0.5;" x1="263" x2="3036" y1="1485.54" y2="1485.54"/>
  <line id="left-margin-Regular-M" style="fill:none;stroke:#00AEEF;stroke-width:0.5;opacity:1.0;" x1="1390.29" x2="1390.29" y1="1030.79" y2="1150.12"/>
  <line id="right-margin-Regular-M" style="fill:none;stroke:#00AEEF;stroke-width:0.5;opacity:1.0;" x1="1509.4" x2="1509.4" y1="1030.79" y2="1150.12"/>
 </g>
 <g id="Symbols">
  <g id="Black-L" transform="matrix(1 0 0 1 2853.17 1556)">
   <path d="M19.3399-79.5958Q16.084-76.4971 16.084-72.1377Q16.084-67.7783 19.3399-64.682L51.9028-33.0442Q54.9443-30.0028 59.1476-30.0028Q63.5278-30.0028 66.3578-32.8328Q69.1878-35.6628 69.1878-40.0418Q69.1878-44.3411 66.3244-47.0501L53.2038-59.5578L50.0504-62.2092L59.9372-62.0194L134.253-62.0194Q138.632-62.0194 141.503-64.9281Q144.373-67.8367 144.373-72.1389Q144.373-76.4983 141.503-79.3777Q138.632-82.2572 134.253-82.2572L59.9372-82.2572L50.0504-82.0674L53.2038-84.7188L66.3244-97.2277Q69.1878-99.9355 69.1878-104.235Q69.1878-108.614 66.3578-111.444Q63.5278-114.274 59.1476-114.274Q54.9443-114.274 51.9028-111.232ZM141.117 9.21481Q144.373 6.09531 144.373 1.74634Q144.373-2.60263 141.117-5.71974L108.554-37.3367Q105.511-40.3782 101.309-40.3782Q96.929-40.3782 94.0989-37.5482Q91.2689-34.7182 91.2689-30.3392Q91.2689-26.0399 94.1324-23.3309L107.253-10.844L110.406-8.17177L100.52-8.36151L26.2034-8.36151Q21.9037-8.36151 18.9938-5.48207Q16.084-2.60263 16.084 1.75795Q16.084 6.05892 18.9938 8.96756Q21.9037 11.8762 26.2034 11.8762L100.52 11.8762L110.406 11.6865L107.253 14.3379L94.1324 26.8467Q91.2689 29.5546 91.2689 33.8539Q91.2689 38.2329 94.0989 41.0629Q96.929 43.8929 101.309 43.8929Q105.511 43.8929 108.554 40.8514Z"/>
  </g>
  <g id="Heavy-L" transform="matrix(1 0 0 1 2557.35 1556)">
   <path d="M18.9853-78.6653Q16.084-75.908 16.084-72.04Q16.084-68.172 18.9853-65.426L51.5217-33.7346Q54.2399-31.0164 57.9695-31.0164Q61.8677-31.0164 64.3699-33.5185Q66.872-36.0207 66.872-39.9131Q66.872-43.7018 64.3278-46.1422L51.0272-58.8746L45.8149-63.3512L56.7761-63.0684L133.618-63.0684Q137.51-63.0684 140.053-65.6425Q142.595-68.2167 142.595-72.0456Q142.595-75.9136 140.053-78.4654Q137.51-81.0172 133.618-81.0172L56.7761-81.0172L45.8149-80.7344L51.0272-85.211L64.3278-97.9491Q66.872-100.384 66.872-104.172Q66.872-108.065 64.3699-110.567Q61.8677-113.069 57.9695-113.069Q54.2399-113.069 51.5217-110.351ZM139.694 8.27549Q142.595 5.48803 142.595 1.63513Q142.595-2.21776 139.694-4.994L107.157-36.6551Q104.433-39.3734 100.709-39.3734Q96.8113-39.3734 94.3092-36.8713Q91.807-34.3691 91.807-30.4767Q91.807-26.688 94.3512-24.2476L107.652-11.5454L112.864-7.03854L101.903-7.32139L25.0612-7.32139Q21.2435-7.32139 18.6637-4.76958Q16.084-2.21776 16.084 1.65586Q16.084 5.4792 18.6637 8.05333Q21.2435 10.6275 25.0612 10.6275L101.903 10.6275L112.864 10.3446L107.652 14.8212L94.3512 27.5592Q91.807 29.9941 91.807 33.7826Q91.807 37.6752 94.3092 40.1773Q96.8113 42.6795 100.709 42.6795Q104.433 42.6795 107.157 39.9612Z"/>
  </g>
  <g id="Bold-L" transform="matrix(1 0 0 1 2261.81 1556)">
   <path d="M18.5323-77.4531Q16.084-75.1258 16.084-71.8798Q16.084-68.6339 18.5323-66.3332L51.023-34.5578Q53.3343-32.2466 56.4723-32.2466Q59.7564-32.2466 61.8476-34.3378Q63.9388-36.4291 63.9388-39.6996Q63.9388-42.8582 61.7865-44.9607L48.1588-58.089L40.5817-64.7278L52.6859-64.3596L132.722-64.3596Q135.993-64.3596 138.124-66.5113Q140.256-68.6631 140.256-71.8932Q140.256-75.1391 138.124-77.2763Q135.993-79.4134 132.722-79.4134L52.6859-79.4134L40.5817-79.0452L48.1588-85.684L61.7865-98.8256Q63.9388-100.915 63.9388-104.073Q63.9388-107.344 61.8476-109.435Q59.7564-111.526 56.4723-111.526Q53.3343-111.526 51.023-109.215ZM137.807 7.04809Q140.256 4.68291 140.256 1.45587Q140.256-1.77117 137.807-4.10989L105.317-35.8472Q102.992-38.1584 99.8674-38.1584Q96.5833-38.1584 94.4921-36.0672Q92.4009-33.9759 92.4009-30.7054Q92.4009-27.5469 94.5531-25.4443L108.181-12.3541L115.758-5.67719L103.654-6.04545L23.6176-6.04545Q20.4139-6.04545 18.249-3.90831Q16.084-1.77117 16.084 1.48815Q16.084 4.70492 18.249 6.85667Q20.4139 9.00841 23.6176 9.00841L103.654 9.00841L115.758 8.64015L108.181 15.279L94.5531 28.4204Q92.4009 30.5098 92.4009 33.6682Q92.4009 36.9389 94.4921 39.0301Q96.5833 41.1213 99.8674 41.1213Q102.992 41.1213 105.317 38.8101Z"/>
  </g>
  <g id="Semibold-L" transform="matrix(1 0 0 1 1965.9 1556)">
   <path d="M18.2201-76.6174Q16.084-74.5866 16.084-71.7694Q16.084-68.9522 18.2201-66.9587L50.6793-35.1253Q52.7099-33.0948 55.4401-33.0948Q58.3008-33.0948 60.1088-34.9027Q61.9167-36.7106 61.9167-39.5524Q61.9167-42.2766 60.0346-44.1462L46.1813-57.5474L36.974-65.6768L49.8662-65.2497L132.105-65.2497Q134.947-65.2497 136.795-67.1102Q138.643-68.9708 138.643-71.788Q138.643-74.6052 136.795-76.4565Q134.947-78.3078 132.105-78.3078L49.8662-78.3078L36.974-77.8806L46.1813-86.0101L60.0346-99.4299Q61.9167-101.281 61.9167-104.005Q61.9167-106.847 60.1088-108.655Q58.3008-110.463 55.4401-110.463Q52.7099-110.463 50.6793-108.432ZM136.507 6.20192Q138.643 4.12787 138.643 1.33229Q138.643-1.46329 136.507-3.50039L104.048-35.2902Q101.998-37.3208 99.2868-37.3208Q96.4261-37.3208 94.6182-35.5128Q92.8103-33.7049 92.8103-30.8631Q92.8103-28.139 94.6924-26.2694L108.546-12.9117L117.753-4.73868L104.86-5.16582L22.6223-5.16582Q19.842-5.16582 17.963-3.31455Q16.084-1.46329 16.084 1.37253Q16.084 4.17114 17.963 6.03169Q19.842 7.89225 22.6223 7.89225L104.86 7.89225L117.753 7.46511L108.546 15.5946L94.6924 29.0141Q92.8103 30.8654 92.8103 33.5892Q92.8103 36.4313 94.6182 38.2393Q96.4261 40.0472 99.2868 40.0472Q101.998 40.0472 104.048 38.0166Z"/>
  </g>
  <g id="Medium-L" transform="matrix(1 0 0 1 1669.8 1556)">
   <path d="M17.9833-75.9838Q16.084-74.1778 16.084-71.6857Q16.084-69.1936 17.9833-67.4329L50.4186-35.5556Q52.2364-33.7379 54.6575-33.7379Q57.1972-33.7379 58.7903-35.331Q60.3834-36.9241 60.3834-39.4408Q60.3834-41.8356 58.7062-43.5285L44.6819-57.1367L34.2385-66.3964L47.7282-65.9246L131.636-65.9246Q134.153-65.9246 135.787-67.5644Q137.42-69.2041 137.42-71.7083Q137.42-74.2004 135.787-75.8349Q134.153-77.4694 131.636-77.4694L47.7282-77.4694L34.2385-76.9976L44.6819-86.2573L58.7062-99.8881Q60.3834-101.558 60.3834-103.953Q60.3834-106.47 58.7903-108.063Q57.1972-109.656 54.6575-109.656Q52.2364-109.656 50.4186-107.838ZM135.521 5.56032Q137.42 3.70701 137.42 1.23858Q137.42-1.22984 135.521-3.03824L103.085-34.8678Q101.245-36.6856 98.8466-36.6856Q96.3069-36.6856 94.7138-35.0925Q93.1207-33.4994 93.1207-30.9827Q93.1207-28.5879 94.798-26.8949L108.822-13.3344L119.266-4.02707L105.776-4.49885L21.8677-4.49885Q19.4084-4.49885 17.7462-2.86435Q16.084-1.22984 16.084 1.28486Q16.084 3.76641 17.7462 5.40617Q19.4084 7.04593 21.8677 7.04593L105.776 7.04593L119.266 6.57414L108.822 15.8338L94.798 29.4643Q93.1207 31.135 93.1207 33.5294Q93.1207 36.0465 94.7138 37.6396Q96.3069 39.2327 98.8466 39.2327Q101.245 39.2327 103.085 37.4149Z"/>
  </g>
  <g id="Regular-L" transform="matrix(1 0 0 1 1373.89 1556)">
   <path d="M17.6745-75.1573Q16.084-73.6445 16.084-71.5765Q16.084-69.5085 17.6745-68.0514L50.0787-36.1169Q51.6189-34.5767 53.6367-34.5767Q55.7576-34.5767 57.0706-35.8896Q58.3835-37.2025 58.3835-39.2952Q58.3835-41.2604 56.9735-42.723L42.7262-56.6011L30.6704-67.335L44.9394-66.805L131.026-66.805Q133.119-66.805 134.472-68.1567Q135.825-69.5085 135.825-71.6044Q135.825-73.6723 134.472-75.0241Q133.119-76.3759 131.026-76.3759L44.9394-76.3759L30.6704-75.8459L42.7262-86.5798L56.9735-100.486Q58.3835-101.92 58.3835-103.885Q58.3835-105.978 57.0706-107.291Q55.7576-108.604 53.6367-108.604Q51.6189-108.604 50.0787-107.064ZM134.235 4.72345Q135.825 3.15807 135.825 1.11636Q135.825-0.92535 134.235-2.43544L101.83-34.3169Q100.262-35.8572 98.2725-35.8572Q96.1515-35.8572 94.8386-34.5443Q93.5256-33.2313 93.5256-31.1387Q93.5256-29.1735 94.9357-27.7109L109.183-13.8858L121.239-3.09887L106.969-3.62889L20.8834-3.62889Q18.8428-3.62889 17.4634-2.27712Q16.084-0.92535 16.084 1.17051Q16.084 3.23849 17.4634 4.59026Q18.8428 5.94203 20.8834 5.94203L106.969 5.94203L121.239 5.41201L109.183 16.1459L94.9357 30.0515Q93.5256 31.4866 93.5256 33.4514Q93.5256 35.5445 94.8386 36.8574Q96.1515 38.1703 98.2725 38.1703Q100.262 38.1703 101.83 36.6301Z"/>
  </g>
  <g id="Light-L" transform="matrix(1 0 0 1 1078.43 1556)">
   <path d="M17.2737-73.9359Q16.084-72.7665 16.084-71.2138Q16.084-69.6611 17.2737-68.586L49.5634-36.4796Q50.7791-35.2638 52.3579-35.2638Q53.9447-35.2638 54.9427-36.2619Q55.9408-37.2599 55.9408-38.7988Q55.9408-40.3443 54.7786-41.5397L39.6344-56.4484L27.1397-68.0411L40.9886-67.6448L129.709-67.6448Q131.248-67.6448 132.287-68.653Q133.325-69.6611 133.325-71.2609Q133.325-72.8136 132.287-73.8218Q131.248-74.83 129.709-74.83L40.9886-74.83L27.1397-74.4337L39.6344-86.0263L54.7786-100.982Q55.9408-102.131 55.9408-103.675Q55.9408-105.215 54.9427-106.213Q53.9447-107.211 52.3579-107.211Q50.7791-107.211 49.5634-105.995ZM132.135 3.46392Q133.325 2.2612 133.325 0.72516Q133.325-0.810876 132.135-1.92014L99.8456-33.9924Q98.5827-35.2082 97.0511-35.2082Q95.4643-35.2082 94.4663-34.2101Q93.4682-33.2121 93.4682-31.6732Q93.4682-30.1278 94.6304-28.9323L109.775-14.0577L122.269-2.43095L108.42-2.82725L19.7002-2.82725Q18.1938-2.82725 17.1389-1.81906Q16.084-0.810876 16.084 0.78893Q16.084 2.34162 17.1389 3.3498Q18.1938 4.35799 19.7002 4.35799L108.42 4.35799L122.269 3.96169L109.775 15.5543L94.6304 30.5094Q93.4682 31.6585 93.4682 33.2032Q93.4682 34.7428 94.4663 35.7409Q95.4643 36.7389 97.0511 36.7389Q98.5827 36.7389 99.8456 35.5232Z"/>
  </g>
  <g id="Thin-L" transform="matrix(1 0 0 1 783.371 1556)">
   <path d="M16.7436-72.3206Q16.084-71.6053 16.084-70.7342Q16.084-69.863 16.7436-69.2929L48.8819-36.9592Q49.6684-36.1727 50.6666-36.1727Q51.5468-36.1727 52.1284-36.7543Q52.71-37.3358 52.71-38.1423Q52.71-39.1326 51.8757-39.9748L35.5453-56.2466L22.47-68.9749L35.7634-68.7555L127.967-68.7555Q128.775-68.7555 129.397-69.3092Q130.018-69.863 130.018-70.8067Q130.018-71.6779 129.397-72.2317Q128.775-72.7855 127.967-72.7855L35.7634-72.7855L22.47-72.566L35.5453-85.2944L51.8757-101.639Q52.71-102.408 52.71-103.397Q52.71-104.205 52.1284-104.787Q51.5468-105.368 50.6666-105.368Q49.6684-105.368 48.8819-104.582ZM129.359 1.79808Q130.018 1.07501 130.018 0.207767Q130.018-0.659474 129.359-1.23862L97.2205-33.5633Q96.3613-34.3498 95.4357-34.3498Q94.5555-34.3498 93.9739-33.7682Q93.3923-33.1866 93.3923-32.3802Q93.3923-31.3899 94.2267-30.5476L110.557-14.285L123.632-1.54756L110.338-1.76702L18.1353-1.76702Q17.3354-1.76702 16.7097-1.21325Q16.084-0.659474 16.084 0.284259Q16.084 1.15543 16.7097 1.7092Q17.3354 2.26297 18.1353 2.26297L110.338 2.26297L123.632 2.04352L110.557 14.7719L94.2267 31.115Q93.3923 31.8858 93.3923 32.8749Q93.3923 33.6826 93.9739 34.2642Q94.5555 34.8458 95.4357 34.8458Q96.3613 34.8458 97.2205 34.0592Z"/>
  </g>
  <g id="Ultralight-L" transform="matrix(1 0 0 1 487.507 1556)">
   <path d="M16.472-71.4932Q16.084-71.0106 16.084-70.4885Q16.084-69.9664 16.472-69.655L48.5328-37.2049Q49.0995-36.6382 49.8003-36.6382Q50.3187-36.6382 50.687-37.0064Q51.0553-37.3747 51.0553-37.8061Q51.0553-38.512 50.3888-39.1733L33.4509-56.1432L20.0782-69.4532L33.087-69.3244L127.075-69.3244Q127.508-69.3244 127.916-69.6454Q128.325-69.9664 128.325-70.5741Q128.325-71.0962 127.916-71.4172Q127.508-71.7382 127.075-71.7382L33.087-71.7382L20.0782-71.6094L33.4509-84.9194L50.3888-101.975Q51.0553-102.551 51.0553-103.255Q51.0553-103.688 50.687-104.056Q50.3187-104.424 49.8003-104.424Q49.0995-104.424 48.5328-103.858ZM127.937 0.944844Q128.325 0.467448 128.325-0.0572398Q128.325-0.581928 127.937-0.889555L95.8759-33.3434Q95.2235-33.9102 94.6083-33.9102Q94.09-33.9102 93.7217-33.5419Q93.3534-33.1736 93.3534-32.7423Q93.3534-32.0363 94.0199-31.375L110.958-14.4014L124.33-1.0951L111.32-1.22397L17.3337-1.22397Q16.8958-1.22397 16.4899-0.902949Q16.084-0.581928 16.084 0.0257692Q16.084 0.547868 16.4899 0.868889Q16.8958 1.18991 17.3337 1.18991L111.32 1.18991L124.33 1.06104L110.958 14.3711L94.0199 31.4251Q93.3534 32.0022 93.3534 32.7068Q93.3534 33.1395 93.7217 33.5078Q94.09 33.8761 94.6083 33.8761Q95.2235 33.8761 95.8759 33.3094Z"/>
  </g>
  <g id="Black-M" transform="matrix(1 0 0 1 2870.65 1126)">
   <path d="M15.2339-70.2361Q12.4609-67.5886 12.4609-63.8587Q12.4609-60.1288 15.2339-57.4806L40.469-32.9922Q43.0592-30.4021 46.6634-30.4021Q50.3988-30.4021 52.8304-32.8337Q55.2621-35.2654 55.2621-39.0011Q55.2621-42.7139 52.8029-45.0074L42.6709-54.6441L41.9378-55.2459L48.6173-55.1971L104.379-55.1971Q108.115-55.1971 110.578-57.6915Q113.041-60.1859 113.041-63.8584Q113.041-67.5883 110.578-70.0541Q108.115-72.52 104.379-72.52L48.6173-72.52L41.9378-72.4711L42.6709-73.073L52.8029-82.7094Q55.2621-85.0031 55.2621-88.716Q55.2621-92.4517 52.8304-94.8833Q50.3988-97.315 46.6634-97.315Q43.0592-97.315 40.469-94.7248ZM110.268-0.159998Q113.041-2.81303 113.041-6.54019Q113.041-10.2674 110.268-12.921L85.0327-37.4039Q82.4428-39.994 78.8384-39.994Q75.103-39.994 72.6713-37.5624Q70.2397-35.1307 70.2397-31.395Q70.2397-27.6822 72.6989-25.3888L82.8308-15.7575L83.5639-15.1502L76.8845-15.199L21.1222-15.199Q17.4491-15.199 14.955-12.7332Q12.4609-10.2674 12.4609-6.53773Q12.4609-2.86492 14.955-0.370535Q17.4491 2.12385 21.1222 2.12385L76.8845 2.12385L83.5639 2.07499L82.8308 2.67684L72.6989 12.3133Q70.2397 14.607 70.2397 18.3199Q70.2397 22.0555 72.6713 24.4872Q75.103 26.9189 78.8384 26.9189Q82.4428 26.9189 85.0327 24.3287Z"/>
  </g>
  <g id="Heavy-M" transform="matrix(1 0 0 1 2574.69 1126)">
   <path d="M14.9242-69.4392Q12.4609-67.0937 12.4609-63.7966Q12.4609-60.4995 14.9242-58.1586L40.144-33.6337Q42.4481-31.3296 45.6297-31.3296Q48.9432-31.3296 51.0833-33.4698Q53.2235-35.61 53.2235-38.9211Q53.2235-42.1735 51.0535-44.229L40.8284-53.9903L38.1231-56.2972L45.8916-56.145L103.88-56.145Q107.191-56.145 109.362-58.3441Q111.534-60.5432 111.534-63.7989Q111.534-67.096 109.362-69.2732Q107.191-71.4505 103.88-71.4505L45.8916-71.4505L38.1231-71.2983L40.8284-73.6052L51.0535-83.3688Q53.2235-85.422 53.2235-88.6744Q53.2235-91.9856 51.0833-94.1257Q48.9432-96.2659 45.6297-96.2659Q42.4481-96.2659 40.144-93.9618ZM109.07-0.96205Q111.534-3.32395 111.534-6.61282Q111.534-9.90168 109.07-12.259L83.8505-36.7675Q81.5441-39.0717 78.3648-39.0717Q75.0513-39.0717 72.9111-36.9315Q70.771-34.7913 70.771-31.4801Q70.771-28.2277 72.9409-26.1722L83.1661-16.4273L85.8714-14.104L78.1029-14.2562L20.1148-14.2562Q16.8636-14.2562 14.6623-12.0789Q12.4609-9.90168 12.4609-6.60233Q12.4609-3.34889 14.6623-1.14982Q16.8636 1.04926 20.1148 1.04926L78.1029 1.04926L85.8714 0.897038L83.1661 3.20395L72.9409 12.9675Q70.771 15.0208 70.771 18.2731Q70.771 21.5843 72.9111 23.7245Q75.0513 25.8647 78.3648 25.8647Q81.5441 25.8647 83.8505 23.5606Z"/>
  </g>
  <g id="Bold-M" transform="matrix(1 0 0 1 2278.82 1126)">
   <path d="M14.5778-68.5477Q12.4609-66.54 12.4609-63.7272Q12.4609-60.9143 14.5778-58.917L39.7804-34.3513Q41.7646-32.3671 44.4733-32.3671Q47.3148-32.3671 49.129-34.1812Q50.9431-35.9954 50.9431-38.8316Q50.9431-41.5689 49.0967-43.3583L38.7673-53.259L33.8558-57.4733L42.8425-57.2054L103.321-57.2054Q106.157-57.2054 108.002-59.0742Q109.847-60.9429 109.847-63.7324Q109.847-66.5452 108.002-68.3997Q106.157-70.2541 103.321-70.2541L42.8425-70.2541L33.8558-69.9863L38.7673-74.2005L49.0967-84.1064Q50.9431-85.8906 50.9431-88.6278Q50.9431-91.4642 49.129-93.2783Q47.3148-95.0924 44.4733-95.0924Q41.7646-95.0924 39.7804-93.1082ZM107.731-1.85926Q109.847-3.89549 109.847-6.69405Q109.847-9.49261 107.731-11.5186L82.528-36.0556Q80.5387-38.0398 77.8351-38.0398Q74.9936-38.0398 73.1794-36.2257Q71.3653-34.4116 71.3653-31.5753Q71.3653-28.838 73.2117-27.0486L83.5411-17.1766L88.4527-12.9337L79.4658-13.2015L18.9879-13.2015Q16.2087-13.2015 14.3348-11.3471Q12.4609-9.49261 12.4609-6.67459Q12.4609-3.89028 14.3348-2.02156Q16.2087-0.152836 18.9879-0.152836L79.4658-0.152836L88.4527-0.420675L83.5411 3.79359L73.2117 13.6994Q71.3653 15.4837 71.3653 18.2209Q71.3653 21.0572 73.1794 22.8713Q74.9936 24.6855 77.8351 24.6855Q80.5387 24.6855 82.528 22.7013Z"/>
  </g>
  <g id="Semibold-M" transform="matrix(1 0 0 1 1982.69 1126)">
   <path d="M14.3389-67.9331Q12.4609-66.1584 12.4609-63.6793Q12.4609-61.2003 14.3389-59.4399L39.5297-34.846Q41.2933-33.0824 43.6761-33.0824Q46.1923-33.0824 47.7817-34.6717Q49.371-36.2611 49.371-38.77Q49.371-41.1521 47.7476-42.7581L37.3463-52.7548L30.9139-58.284L40.7405-57.9365L102.935-57.9365Q105.444-57.9365 107.065-59.5775Q108.685-61.2184 108.685-63.6865Q108.685-66.1655 107.065-67.7974Q105.444-69.4293 102.935-69.4293L40.7405-69.4293L30.9139-69.0818L37.3463-74.611L47.7476-84.6149Q49.371-86.2137 49.371-88.5957Q49.371-91.1047 47.7817-92.6941Q46.1923-94.2834 43.6761-94.2834Q41.2933-94.2834 39.5297-92.5198ZM106.807-2.47779Q108.685-4.28951 108.685-6.75006Q108.685-9.2106 106.807-11.0081L81.6164-35.5649Q79.8456-37.3285 77.4699-37.3285Q74.9537-37.3285 73.3644-35.7391Q71.775-34.1498 71.775-31.6409Q71.775-29.2587 73.3984-27.6528L83.7997-17.6932L90.2322-12.1269L80.4054-12.4744L18.211-12.4744Q15.7571-12.4744 14.109-10.8425Q12.4609-9.2106 12.4609-6.7244Q12.4609-4.26352 14.109-2.62253Q15.7571-0.98155 18.211-0.98155L80.4054-0.98155L90.2322-1.3291L83.7997 4.20009L73.3984 14.2039Q71.775 15.8028 71.775 18.1848Q71.775 20.6938 73.3644 22.2832Q74.9537 23.8725 77.4699 23.8725Q79.8456 23.8725 81.6164 22.1089Z"/>
  </g>
  <g id="Medium-M" transform="matrix(1 0 0 1 1686.42 1126)">
   <path d="M14.1578-67.4671Q12.4609-65.869 12.4609-63.643Q12.4609-61.4171 14.1578-59.8363L39.3396-35.2211Q40.936-33.6247 43.0717-33.6247Q45.3411-33.6247 46.7601-35.0437Q48.179-36.4626 48.179-38.7232Q48.179-40.8361 46.7247-42.3029L36.2689-52.3726L28.6832-58.8988L39.1467-58.4908L102.643-58.4908Q104.904-58.4908 106.354-59.9591Q107.804-61.4274 107.804-63.6517Q107.804-65.8776 106.354-67.3408Q104.904-68.804 102.643-68.804L39.1467-68.804L28.6832-68.396L36.2689-74.9222L46.7247-85.0005Q48.179-86.4586 48.179-88.5714Q48.179-90.8322 46.7601-92.2511Q45.3411-93.67 43.0717-93.67Q40.936-93.67 39.3396-92.0736ZM106.107-2.94679Q107.804-4.58827 107.804-6.79252Q107.804-8.99677 106.107-10.6211L80.9251-35.1928Q79.32-36.7891 77.193-36.7891Q74.9236-36.7891 73.5046-35.3702Q72.0857-33.9513 72.0857-31.6907Q72.0857-29.5778 73.54-28.111L83.9958-18.0848L91.5815-11.5151L81.1178-11.9231L17.6219-11.9231Q15.4147-11.9231 13.9378-10.4599Q12.4609-8.99677 12.4609-6.76217Q12.4609-4.54652 13.9378-3.07822Q15.4147-1.60992 17.6219-1.60992L81.1178-1.60992L91.5815-2.0179L83.9958 4.50831L73.54 14.5865Q72.0857 16.0447 72.0857 18.1575Q72.0857 20.4183 73.5046 21.8372Q74.9236 23.2561 77.193 23.2561Q79.32 23.2561 80.9251 21.6598Z"/>
  </g>
  <g id="Regular-M" transform="matrix(1 0 0 1 1390.29 1126)">
   <path d="M13.9216-66.8593Q12.4609-65.4915 12.4609-63.5957Q12.4609-61.6999 13.9216-60.3534L39.0917-35.7104Q40.4699-34.3321 42.2833-34.3321Q44.2309-34.3321 45.4275-35.5288Q46.6242-36.7254 46.6242-38.6622Q46.6242-40.4239 45.3905-41.7093L34.8636-51.8739L25.7737-59.7006L37.0678-59.2138L102.262-59.2138Q104.199-59.2138 105.426-60.4568Q106.654-61.6999 106.654-63.6063Q106.654-65.5021 105.426-66.7452Q104.199-67.9883 102.262-67.9883L37.0678-67.9883L25.7737-67.5014L34.8636-75.3281L45.3905-85.5034Q46.6242-86.7781 46.6242-88.5396Q46.6242-90.4767 45.4275-91.6733Q44.2309-92.8699 42.2833-92.8699Q40.4699-92.8699 39.0917-91.4917ZM105.194-3.55852Q106.654-4.97795 106.654-6.84791Q106.654-8.71787 105.194-10.1162L80.0234-34.7074Q78.6345-36.0856 76.8318-36.0856Q74.8842-36.0856 73.6875-34.889Q72.4909-33.6924 72.4909-31.7556Q72.4909-29.9939 73.7246-28.7085L84.2515-18.5957L93.3414-10.7172L82.0471-11.204L16.8535-11.204Q14.9682-11.204 13.7145-9.96093Q12.4609-8.71787 12.4609-6.81144Q12.4609-4.91565 13.7145-3.67259Q14.9682-2.42952 16.8535-2.42952L82.0471-2.42952L93.3414-2.91634L84.2515 4.91034L73.7246 15.0855Q72.4909 16.3603 72.4909 18.1219Q72.4909 20.0589 73.6875 21.2555Q74.8842 22.4521 76.8318 22.4521Q78.6345 22.4521 80.0234 21.0739Z"/>
  </g>
  <g id="Light-M" transform="matrix(1 0 0 1 1094.7 1126)">
   <path d="M13.5622-65.7642Q12.4609-64.7044 12.4609-63.2706Q12.4609-61.8368 13.5622-60.8327L38.6297-36.0355Q39.717-34.9482 41.1368-34.9482Q42.6055-34.9482 43.5198-35.8625Q44.4341-36.7768 44.4341-38.2172Q44.4341-39.6026 43.4227-40.6484L32.0917-51.7371L22.6082-60.3336L33.5257-59.9667L101.081-59.9667Q102.522-59.9667 103.467-60.9017Q104.413-61.8368 104.413-63.2984Q104.413-64.7322 103.467-65.6673Q102.522-66.6023 101.081-66.6023L33.5257-66.6023L22.6082-66.2353L32.0917-74.8319L43.4227-85.9484Q44.4341-86.9664 44.4341-88.3513Q44.4341-89.7921 43.5198-90.7065Q42.6055-91.6208 41.1368-91.6208Q39.717-91.6208 38.6297-90.5335ZM103.311-4.68776Q104.413-5.78205 104.413-7.19864Q104.413-8.61523 103.311-9.65421L78.2439-34.4165Q77.1287-35.5038 75.7368-35.5038Q74.2681-35.5038 73.3538-34.5895Q72.4395-33.6751 72.4395-32.2348Q72.4395-30.8494 73.4509-29.8036L84.7819-18.7498L94.2654-10.1183L83.3474-10.4853L15.7927-10.4853Q14.3863-10.4853 13.4236-9.55026Q12.4609-8.61523 12.4609-7.15355Q12.4609-5.71974 13.4236-4.78472Q14.3863-3.8497 15.7927-3.8497L83.3474-3.8497L94.2654-4.21664L84.7819 4.37993L73.4509 15.496Q72.4395 16.5144 72.4395 17.8994Q72.4395 19.3402 73.3538 20.2545Q74.2681 21.1688 75.7368 21.1688Q77.1287 21.1688 78.2439 20.0815Z"/>
  </g>
  <g id="Thin-M" transform="matrix(1 0 0 1 799.468 1126)">
   <path d="M13.0869-64.316Q12.4609-63.6633 12.4609-62.8405Q12.4609-62.0177 13.0869-61.4665L38.0187-36.4655Q38.7212-35.763 39.6205-35.763Q40.4557-35.763 40.9966-36.304Q41.5376-36.8449 41.5376-37.6286Q41.5376-38.5163 40.82-39.2454L28.4256-51.5561L18.4216-61.1709L28.841-60.9625L99.5193-60.9625Q100.304-60.9625 100.876-61.4901Q101.448-62.0177 101.448-62.8912Q101.448-63.714 100.876-64.2416Q100.304-64.7692 99.5193-64.7692L28.841-64.7692L18.4216-64.5609L28.4256-74.1757L40.82-86.537Q41.5376-87.2155 41.5376-88.1023Q41.5376-88.8868 40.9966-89.4278Q40.4557-89.9687 39.6205-89.9687Q38.7212-89.9687 38.0187-89.2662ZM100.822-6.18127Q101.448-6.84553 101.448-7.66251Q101.448-8.4795 100.822-9.0432L75.8903-34.0317Q75.1371-34.7342 74.2885-34.7342Q73.4533-34.7342 72.9123-34.1933Q72.3714-33.6523 72.3714-32.8686Q72.3714-31.981 73.0889-31.2518L85.4834-18.9536L95.4874-9.32634L85.0671-9.53473L14.3897-9.53473Q13.6167-9.53473 13.0388-9.00711Q12.4609-8.4795 12.4609-7.60601Q12.4609-6.78322 13.0388-6.25561Q13.6167-5.72799 14.3897-5.72799L85.0671-5.72799L95.4874-5.93638L85.4834 3.67842L73.0889 16.0389Q72.3714 16.7182 72.3714 17.6051Q72.3714 18.3896 72.9123 18.9305Q73.4533 19.4715 74.2885 19.4715Q75.1371 19.4715 75.8903 18.769Z"/>
  </g>
  <g id="Ultralight-M" transform="matrix(1 0 0 1 503.516 1126)">
   <path d="M12.8435-63.5742Q12.4609-63.1301 12.4609-62.6203Q12.4609-62.1104 12.8435-61.7911L37.7057-36.6858Q38.2111-36.1804 38.8438-36.1804Q39.3546-36.1804 39.7043-36.5301Q40.054-36.8798 40.054-37.3271Q40.054-37.9599 39.487-38.5268L26.5478-51.4634L16.2772-61.5997L26.4415-61.4725L98.7195-61.4725Q99.1679-61.4725 99.5488-61.7915Q99.9296-62.1104 99.9296-62.6826Q99.9296-63.1925 99.5488-63.5114Q99.1679-63.8304 98.7195-63.8304L26.4415-63.8304L16.2772-63.7032L26.5478-73.8395L39.487-86.8385Q40.054-87.343 40.054-87.9747Q40.054-88.4231 39.7043-88.7728Q39.3546-89.1225 38.8438-89.1225Q38.2111-89.1225 37.7057-88.6171ZM99.547-6.94624Q99.9296-7.39024 99.9296-7.9001Q99.9296-8.40997 99.547-8.73024L74.6848-33.8346Q74.117-34.34 73.5467-34.34Q73.0359-34.34 72.6862-33.9903Q72.3365-33.6406 72.3365-33.1933Q72.3365-32.5605 72.9035-31.9936L85.8427-19.058L96.1134-8.92068L85.948-9.04786L13.671-9.04786Q13.2226-9.04786 12.8417-8.72892Q12.4609-8.40997 12.4609-7.83776Q12.4609-7.32793 12.8417-7.00899Q13.2226-6.69004 13.671-6.69004L85.948-6.69004L96.1134-6.81722L85.8427 3.31911L72.9035 16.317Q72.3365 16.8226 72.3365 17.4543Q72.3365 17.9027 72.6862 18.2524Q73.0359 18.6021 73.5467 18.6021Q74.117 18.6021 74.6848 18.0967Z"/>
  </g>
  <g id="Black-S" transform="matrix(1 0 0 1 2884.06 696)">
   <path d="M12.0117-62.8418Q9.76562-60.6934 9.76562-57.666Q9.76562-54.6387 12.0117-52.4902L31.7871-33.3008Q33.8867-31.2012 36.8164-31.2012Q39.8438-31.2012 41.8213-33.1787Q43.7988-35.1562 43.7988-38.1836Q43.7988-41.2109 41.7969-43.0664L33.8379-50.6348L33.8379-50.6348L38.7207-50.6348L81.8848-50.6348Q84.9121-50.6348 86.9141-52.6611Q88.916-54.6875 88.916-57.666Q88.916-60.6934 86.9141-62.6953Q84.9121-64.6973 81.8848-64.6973L38.7207-64.6973L33.8379-64.6973L33.8379-64.6973L41.7969-72.2656Q43.7988-74.1211 43.7988-77.1484Q43.7988-80.1758 41.8213-82.1533Q39.8438-84.1309 36.8164-84.1309Q33.8867-84.1309 31.7871-82.0312ZM86.6699-7.56836Q88.916-9.7168 88.916-12.7441Q88.916-15.7715 86.6699-17.9199L66.8945-37.1094Q64.7949-39.209 61.8652-39.209Q58.8379-39.209 56.8604-37.2314Q54.8828-35.2539 54.8828-32.2266Q54.8828-29.1992 56.8848-27.3438L64.8438-19.7754L64.8438-19.7754L59.9609-19.7754L16.7969-19.7754Q13.8184-19.7754 11.792-17.7734Q9.76562-15.7715 9.76562-12.7441Q9.76562-9.76562 11.792-7.73926Q13.8184-5.71289 16.7969-5.71289L59.9609-5.71289L64.8438-5.71289L64.8438-5.71289L56.8848 1.85547Q54.8828 3.71094 54.8828 6.73828Q54.8828 9.76562 56.8604 11.7432Q58.8379 13.7207 61.8652 13.7207Q64.7949 13.7207 66.8945 11.6211Z"/>
  </g>
  <g id="Heavy-S" transform="matrix(1 0 0 1 2587.85 696)">
   <path d="M11.7928-62.3001Q9.76562-60.3707 9.76562-57.6545Q9.76562-54.9383 11.7928-53.0088L31.5681-33.8079Q33.4603-31.9157 36.0788-31.9157Q38.8065-31.9157 40.5709-33.68Q42.3352-35.4444 42.3352-38.1721Q42.3352-40.8537 40.5522-42.5363L32.6163-50.0931L30.9798-51.453L36.8422-51.3493L81.6082-51.3493Q84.3359-51.3493 86.1246-53.1624Q87.9134-54.9756 87.9134-57.6545Q87.9134-60.3707 86.1246-62.1652Q84.3359-63.9597 81.6082-63.9597L36.8422-63.9597L30.9798-63.856L32.6163-65.2159L40.5522-72.7727Q42.3352-74.4553 42.3352-77.1369Q42.3352-79.8646 40.5709-81.629Q38.8065-83.3933 36.0788-83.3933Q33.4603-83.3933 31.5681-81.5011ZM85.8863-8.11001Q87.9134-10.051 87.9134-12.7614Q87.9134-15.4718 85.8863-17.4128L66.1109-36.6023Q64.2187-38.4945 61.6002-38.4945Q58.8725-38.4945 57.1081-36.7301Q55.3438-34.9658 55.3438-32.2381Q55.3438-29.5565 57.1268-27.8739L65.0627-20.3286L66.6992-18.9572L60.8368-19.0609L16.0708-19.0609Q13.392-19.0609 11.5788-17.2664Q9.76562-15.4718 9.76562-12.7557Q9.76562-10.0768 11.5788-8.26362Q13.392-6.45046 16.0708-6.45046L60.8368-6.45046L66.6992-6.55418L65.0627-5.19429L57.1268 2.36255Q55.3438 4.04515 55.3438 6.72676Q55.3438 9.45446 57.1081 11.2188Q58.8725 12.9831 61.6002 12.9831Q64.2187 12.9831 66.1109 11.091Z"/>
  </g>
  <g id="Bold-S" transform="matrix(1 0 0 1 2291.7 696)">
   <path d="M11.5479-61.6943Q9.76562-60.0098 9.76562-57.6416Q9.76562-55.2734 11.5479-53.5889L31.3232-34.375Q32.9834-32.7148 35.2539-32.7148Q37.6465-32.7148 39.1724-34.2407Q40.6982-35.7666 40.6982-38.1592Q40.6982-40.4541 39.1602-41.9434L31.25-49.4873L27.7832-52.3682L34.7412-52.1484L81.2988-52.1484Q83.6914-52.1484 85.2417-53.7231Q86.792-55.2979 86.792-57.6416Q86.792-60.0098 85.2417-61.5723Q83.6914-63.1348 81.2988-63.1348L34.7412-63.1348L27.7832-62.915L31.25-65.7959L39.1602-73.3398Q40.6982-74.8291 40.6982-77.124Q40.6982-79.5166 39.1724-81.0425Q37.6465-82.5684 35.2539-82.5684Q32.9834-82.5684 31.3232-80.9082ZM85.0098-8.71582Q86.792-10.4248 86.792-12.7808Q86.792-15.1367 85.0098-16.8457L65.2344-36.0352Q63.5742-37.6953 61.3037-37.6953Q58.9111-37.6953 57.3853-36.1694Q55.8594-34.6436 55.8594-32.251Q55.8594-29.9561 57.3975-28.4668L65.3076-20.9473L68.7744-18.042L61.8164-18.2617L15.2588-18.2617Q12.915-18.2617 11.3403-16.6992Q9.76562-15.1367 9.76562-12.7686Q9.76562-10.4248 11.3403-8.8501Q12.915-7.27539 15.2588-7.27539L61.8164-7.27539L68.7744-7.49512L65.3076-4.61426L57.3975 2.92969Q55.8594 4.41895 55.8594 6.71387Q55.8594 9.10645 57.3853 10.6323Q58.9111 12.1582 61.3037 12.1582Q63.5742 12.1582 65.2344 10.498Z"/>
  </g>
  <g id="Semibold-S" transform="matrix(1 0 0 1 1995.37 696)">
   <path d="M11.379-61.2767Q9.76562-59.7609 9.76562-57.6327Q9.76562-55.5045 11.379-53.9888L31.1544-34.766Q32.6546-33.2658 34.6852-33.2658Q36.8467-33.2658 38.2082-34.6273Q39.5696-35.9888 39.5696-38.1503Q39.5696-40.1786 38.2004-41.5346L30.308-49.0696L25.5793-52.9991L33.2927-52.6994L81.0855-52.6994Q83.2471-52.6994 84.633-54.1097Q86.0188-55.52 86.0188-57.6327Q86.0188-59.7609 84.633-61.1635Q83.2471-62.566 81.0855-62.566L33.2927-62.566L25.5793-62.2663L30.308-66.1958L38.2004-73.7309Q39.5696-75.0868 39.5696-77.1151Q39.5696-79.2767 38.2082-80.6381Q36.8467-81.9996 34.6852-81.9996Q32.6546-81.9996 31.1544-80.4994ZM84.4055-9.1335Q86.0188-10.6825 86.0188-12.7941Q86.0188-14.9057 84.4055-16.4547L64.6301-35.6441Q63.1299-37.1443 61.0993-37.1443Q58.9378-37.1443 57.5763-35.7829Q56.2148-34.4214 56.2148-32.2599Q56.2148-30.2315 57.5841-28.8756L65.4765-21.3738L70.2052-17.411L62.4918-17.7107L14.6989-17.7107Q12.5862-17.7107 11.1759-16.3082Q9.76562-14.9057 9.76562-12.7774Q9.76562-10.6647 11.1759-9.25444Q12.5862-7.84414 14.6989-7.84414L62.4918-7.84414L70.2052-8.14385L65.4765-4.21436L57.5841 3.3207Q56.2148 4.67666 56.2148 6.70498Q56.2148 8.8665 57.5763 10.228Q58.9378 11.5895 61.0993 11.5895Q63.1299 11.5895 64.6301 10.0893Z"/>
  </g>
  <g id="Medium-S" transform="matrix(1 0 0 1 1698.96 696)">
   <path d="M11.251-60.96Q9.76562-59.5723 9.76562-57.626Q9.76562-55.6797 11.251-54.292L31.0264-35.0625Q32.4053-33.6836 34.2539-33.6836Q36.2402-33.6836 37.4771-34.9204Q38.7139-36.1572 38.7139-38.1436Q38.7139-39.9697 37.4727-41.2246L29.5938-48.7529L23.9082-53.4775L32.1943-53.1172L80.9238-53.1172Q82.9102-53.1172 84.1714-54.4028Q85.4326-55.6885 85.4326-57.626Q85.4326-59.5723 84.1714-60.8535Q82.9102-62.1348 80.9238-62.1348L32.1943-62.1348L23.9082-61.7744L29.5938-66.499L37.4727-74.0273Q38.7139-75.2822 38.7139-77.1084Q38.7139-79.0947 37.4771-80.3315Q36.2402-81.5684 34.2539-81.5684Q32.4053-81.5684 31.0264-80.1895ZM83.9473-9.4502Q85.4326-10.8779 85.4326-12.8042Q85.4326-14.7305 83.9473-16.1582L64.1719-35.3477Q62.793-36.7266 60.9443-36.7266Q58.958-36.7266 57.7212-35.4897Q56.4844-34.2529 56.4844-32.2666Q56.4844-30.4404 57.7256-29.1855L65.6045-21.6973L71.29-16.9326L63.0039-17.293L14.2744-17.293Q12.3369-17.293 11.0513-16.0117Q9.76562-14.7305 9.76562-12.7842Q9.76562-10.8467 11.0513-9.56104Q12.3369-8.27539 14.2744-8.27539L63.0039-8.27539L71.29-8.63574L65.6045-3.91113L57.7256 3.61719Q56.4844 4.87207 56.4844 6.69824Q56.4844 8.68457 57.7212 9.92139Q58.958 11.1582 60.9443 11.1582Q62.793 11.1582 64.1719 9.7793Z"/>
  </g>
  <g id="Regular-S" transform="matrix(1 0 0 1 1402.63 696)">
   <path d="M11.084-60.5469Q9.76562-59.3262 9.76562-57.6172Q9.76562-55.9082 11.084-54.6875L30.8594-35.4492Q32.0801-34.2285 33.6914-34.2285Q35.4492-34.2285 36.5234-35.3027Q37.5977-36.377 37.5977-38.1348Q37.5977-39.6973 36.5234-40.8203L28.6621-48.3398L21.7285-54.1016L30.7617-53.6621L80.7129-53.6621Q82.4707-53.6621 83.5693-54.7852Q84.668-55.9082 84.668-57.6172Q84.668-59.3262 83.5693-60.4492Q82.4707-61.5723 80.7129-61.5723L30.7617-61.5723L21.7285-61.1328L28.6621-66.8945L36.5234-74.4141Q37.5977-75.5371 37.5977-77.0996Q37.5977-78.8574 36.5234-79.9316Q35.4492-81.0059 33.6914-81.0059Q32.0801-81.0059 30.8594-79.7852ZM83.3496-9.86328Q84.668-11.1328 84.668-12.8174Q84.668-14.502 83.3496-15.7715L63.5742-34.9609Q62.3535-36.1816 60.7422-36.1816Q58.9844-36.1816 57.9102-35.1074Q56.8359-34.0332 56.8359-32.2754Q56.8359-30.7129 57.9102-29.5898L65.7715-22.1191L72.7051-16.3086L63.6719-16.748L13.7207-16.748Q12.0117-16.748 10.8887-15.625Q9.76562-14.502 9.76562-12.793Q9.76562-11.084 10.8887-9.96094Q12.0117-8.83789 13.7207-8.83789L63.6719-8.83789L72.7051-9.27734L65.7715-3.51562L57.9102 4.00391Q56.8359 5.12695 56.8359 6.68945Q56.8359 8.44727 57.9102 9.52148Q58.9844 10.5957 60.7422 10.5957Q62.3535 10.5957 63.5742 9.375Z"/>
  </g>
  <g id="Light-S" transform="matrix(1 0 0 1 1106.91 696)">
   <path d="M10.7661-59.5782Q9.76562-58.6299 9.76562-57.3296Q9.76562-56.0293 10.7661-55.1114L30.4507-35.7368Q31.414-34.7735 32.6772-34.7735Q34.0113-34.7735 34.8358-35.598Q35.6603-36.4225 35.6603-37.7411Q35.6603-38.9707 34.7827-39.8819L26.21-48.2188L18.9283-54.6616L27.6283-54.3282L79.6684-54.3282Q80.9873-54.3282 81.8362-55.1787Q82.6851-56.0293 82.6851-57.3448Q82.6851-58.6451 81.8362-59.4957Q80.9873-60.3462 79.6684-60.3462L27.6283-60.3462L18.9283-60.0128L26.21-66.4556L34.7827-74.8077Q35.6603-75.7037 35.6603-76.933Q35.6603-78.2519 34.8358-79.0764Q34.0113-79.9009 32.6772-79.9009Q31.414-79.9009 30.4507-78.9375ZM81.6846-10.8622Q82.6851-11.8441 82.6851-13.1276Q82.6851-14.4112 81.6846-15.3628L62-34.7036Q61.0214-35.6669 59.7735-35.6669Q58.4394-35.6669 57.6149-34.8424Q56.7904-34.0179 56.7904-32.6993Q56.7904-31.4697 57.6681-30.5585L66.2407-22.2555L73.5224-15.7789L64.8221-16.1123L12.7823-16.1123Q11.497-16.1123 10.6313-15.2617Q9.76562-14.4112 9.76562-13.0956Q9.76562-11.7953 10.6313-10.9447Q11.497-10.0942 12.7823-10.0942L64.8221-10.0942L73.5224-10.4276L66.2407-3.98483L57.6681 4.36707Q56.7904 5.26326 56.7904 6.49261Q56.7904 7.81148 57.6149 8.63597Q58.4394 9.46045 59.7735 9.46045Q61.0214 9.46045 62 8.49711Z"/>
  </g>
  <g id="Thin-S" transform="matrix(1 0 0 1 811.508 696)">
   <path d="M10.3457-58.297Q9.76562-57.7089 9.76562-56.9491Q9.76562-56.1894 10.3457-55.6721L29.9102-36.1173Q30.5331-35.4943 31.3358-35.4943Q32.1096-35.4943 32.6038-35.9885Q33.098-36.4827 33.098-37.2204Q33.098-38.0097 32.4804-38.6408L22.9669-48.0587L15.2247-55.4022L23.4842-55.2091L78.287-55.2091Q79.0254-55.2091 79.544-55.6992Q80.0626-56.1894 80.0626-56.9846Q80.0626-57.7444 79.544-58.2345Q79.0254-58.7247 78.287-58.7247L23.4842-58.7247L15.2247-58.5315L22.9669-65.875L32.4804-75.3284Q33.098-75.924 33.098-76.7127Q33.098-77.4511 32.6038-77.9452Q32.1096-78.4394 31.3358-78.4394Q30.5331-78.4394 29.9102-77.8165ZM79.4825-12.1834Q80.0626-12.7849 80.0626-13.538Q80.0626-14.2911 79.4825-14.8223L59.918-34.3632Q59.2596-34.9861 58.4924-34.9861Q57.7186-34.9861 57.2244-34.492Q56.7302-33.9978 56.7302-33.26Q56.7302-32.4707 57.3478-31.8397L66.8613-22.4357L74.6035-15.0782L66.3434-15.2714L11.5412-15.2714Q10.8162-15.2714 10.2909-14.7812Q9.76562-14.2911 9.76562-13.4959Q9.76562-12.7361 10.2909-12.2459Q10.8162-11.7558 11.5412-11.7558L66.3434-11.7558L74.6035-11.9489L66.8613-4.6054L57.3478 4.84737Q56.7302 5.44355 56.7302 6.23228Q56.7302 6.97061 57.2244 7.4648Q57.7186 7.95898 58.4924 7.95898Q59.2596 7.95898 59.918 7.33603Z"/>
  </g>
  <g id="Ultralight-S" transform="matrix(1 0 0 1 515.469 696)">
   <path d="M10.1303-57.6408Q9.76562-57.2372 9.76562-56.7543Q9.76562-56.2714 10.1303-55.9593L29.6333-36.3121Q30.0819-35.8635 30.6488-35.8635Q31.1356-35.8635 31.4606-36.1885Q31.7856-36.5135 31.7856-36.9537Q31.7856-37.5175 31.3011-38.0051L21.3058-47.9767L13.3278-55.7816L21.3615-55.6602L77.5795-55.6602Q78.0205-55.6602 78.3699-55.9658Q78.7193-56.2714 78.7193-56.8001Q78.7193-57.283 78.3699-57.5886Q78.0205-57.8941 77.5795-57.8941L21.3615-57.8941L13.3278-57.7728L21.3058-65.5777L31.3011-75.5951Q31.7856-76.0368 31.7856-76.5999Q31.7856-77.0409 31.4606-77.3659Q31.1356-77.6909 30.6488-77.6909Q30.0819-77.6909 29.6333-77.2423ZM78.3546-12.8601Q78.7193-13.2668 78.7193-13.7482Q78.7193-14.2296 78.3546-14.5454L58.8516-34.1888Q58.3572-34.6375 57.8362-34.6375Q57.3494-34.6375 57.0244-34.3124Q56.6994-33.9874 56.6994-33.5472Q56.6994-32.9834 57.1838-32.4959L67.1791-22.5281L75.1572-14.7194L67.1227-14.8407L10.9055-14.8407Q10.4675-14.8407 10.1166-14.5351Q9.76562-14.2296 9.76562-13.7009Q9.76562-13.2179 10.1166-12.9124Q10.4675-12.6068 10.9055-12.6068L67.1227-12.6068L75.1572-12.7281L67.1791-4.92325L57.1838 5.09338Q56.6994 5.53589 56.6994 6.09894Q56.6994 6.53992 57.0244 6.86493Q57.3494 7.18994 57.8362 7.18994Q58.3572 7.18994 58.8516 6.74133Z"/>
  </g>
 </g>
</svg>
