<?xml version="1.0" encoding="UTF-8"?>
<!--Generator: Apple Native CoreSVG 175.5-->
<!DOCTYPE svg
PUBLIC "-//W3C//DTD SVG 1.1//EN"
       "http://www.w3.org/Graphics/SVG/1.1/DTD/svg11.dtd">
<svg version="1.1" xmlns="http://www.w3.org/2000/svg" xmlns:xlink="http://www.w3.org/1999/xlink" width="3300" height="2200">
 <!--glyph: "uni100668.medium", point size: 100.0, font version: "18.0d12e2", template writer version: "101"-->
 <g id="Notes">
  <rect height="2200" id="artboard" style="fill:white;opacity:1" width="3300" x="0" y="0"/>
  <line style="fill:none;stroke:black;opacity:1;stroke-width:0.5;" x1="263" x2="3036" y1="292" y2="292"/>
  <text style="stroke:none;fill:black;font-family:sans-serif;font-size:13;font-weight:bold;" transform="matrix(1 0 0 1 263 322)">Weight/Scale Variations</text>
  <text style="stroke:none;fill:black;font-family:sans-serif;font-size:13;text-anchor:middle;" transform="matrix(1 0 0 1 559.711 322)">Ultralight</text>
  <text style="stroke:none;fill:black;font-family:sans-serif;font-size:13;text-anchor:middle;" transform="matrix(1 0 0 1 856.422 322)">Thin</text>
  <text style="stroke:none;fill:black;font-family:sans-serif;font-size:13;text-anchor:middle;" transform="matrix(1 0 0 1 1153.13 322)">Light</text>
  <text style="stroke:none;fill:black;font-family:sans-serif;font-size:13;text-anchor:middle;" transform="matrix(1 0 0 1 1449.84 322)">Regular</text>
  <text style="stroke:none;fill:black;font-family:sans-serif;font-size:13;text-anchor:middle;" transform="matrix(1 0 0 1 1746.56 322)">Medium</text>
  <text style="stroke:none;fill:black;font-family:sans-serif;font-size:13;text-anchor:middle;" transform="matrix(1 0 0 1 2043.27 322)">Semibold</text>
  <text style="stroke:none;fill:black;font-family:sans-serif;font-size:13;text-anchor:middle;" transform="matrix(1 0 0 1 2339.98 322)">Bold</text>
  <text style="stroke:none;fill:black;font-family:sans-serif;font-size:13;text-anchor:middle;" transform="matrix(1 0 0 1 2636.69 322)">Heavy</text>
  <text style="stroke:none;fill:black;font-family:sans-serif;font-size:13;text-anchor:middle;" transform="matrix(1 0 0 1 2933.4 322)">Black</text>
  <line style="fill:none;stroke:black;opacity:1;stroke-width:0.5;" x1="263" x2="3036" y1="1903" y2="1903"/>
  <g transform="matrix(1 0 0 1 263 1933)">
   <path d="M9.24805 0.830078C13.5547 0.830078 17.1387-2.74414 17.1387-7.05078C17.1387-11.3574 13.5449-14.9316 9.23828-14.9316C4.94141-14.9316 1.36719-11.3574 1.36719-7.05078C1.36719-2.74414 4.95117 0.830078 9.24805 0.830078ZM9.24805-0.654297C5.70312-0.654297 2.87109-3.49609 2.87109-7.05078C2.87109-10.6055 5.69336-13.4473 9.23828-13.4473C12.793-13.4473 15.6445-10.6055 15.6445-7.05078C15.6445-3.49609 12.8027-0.654297 9.24805-0.654297ZM5.6543-7.05078C5.6543-6.62109 5.95703-6.32812 6.40625-6.32812L8.50586-6.32812L8.50586-4.20898C8.50586-3.76953 8.79883-3.4668 9.22852-3.4668C9.67773-3.4668 9.9707-3.76953 9.9707-4.20898L9.9707-6.32812L12.0898-6.32812C12.5293-6.32812 12.832-6.62109 12.832-7.05078C12.832-7.49023 12.5293-7.79297 12.0898-7.79297L9.9707-7.79297L9.9707-9.90234C9.9707-10.3516 9.67773-10.6543 9.22852-10.6543C8.79883-10.6543 8.50586-10.3516 8.50586-9.90234L8.50586-7.79297L6.40625-7.79297C5.95703-7.79297 5.6543-7.49023 5.6543-7.05078Z"/>
  </g>
  <g transform="matrix(1 0 0 1 281.867 1933)">
   <path d="M11.709 2.91016C17.1582 2.91016 21.6699-1.61133 21.6699-7.05078C21.6699-12.5 17.1484-17.0117 11.6992-17.0117C6.25977-17.0117 1.74805-12.5 1.74805-7.05078C1.74805-1.61133 6.26953 2.91016 11.709 2.91016ZM11.709 1.25C7.09961 1.25 3.41797-2.44141 3.41797-7.05078C3.41797-11.6602 7.08984-15.3516 11.6992-15.3516C16.3086-15.3516 20.0098-11.6602 20.0098-7.05078C20.0098-2.44141 16.3184 1.25 11.709 1.25ZM7.17773-7.05078C7.17773-6.57227 7.50977-6.25 8.00781-6.25L10.8789-6.25L10.8789-3.36914C10.8789-2.88086 11.2109-2.53906 11.6895-2.53906C12.1777-2.53906 12.5195-2.87109 12.5195-3.36914L12.5195-6.25L15.4004-6.25C15.8887-6.25 16.2305-6.57227 16.2305-7.05078C16.2305-7.53906 15.8887-7.88086 15.4004-7.88086L12.5195-7.88086L12.5195-10.752C12.5195-11.25 12.1777-11.5918 11.6895-11.5918C11.2109-11.5918 10.8789-11.25 10.8789-10.752L10.8789-7.88086L8.00781-7.88086C7.50977-7.88086 7.17773-7.53906 7.17773-7.05078Z"/>
  </g>
  <g transform="matrix(1 0 0 1 305.646 1933)">
   <path d="M14.9707 5.66406C21.9336 5.66406 27.6953-0.0976562 27.6953-7.05078C27.6953-14.0137 21.9238-19.7754 14.9609-19.7754C8.00781-19.7754 2.25586-14.0137 2.25586-7.05078C2.25586-0.0976562 8.01758 5.66406 14.9707 5.66406ZM14.9707 3.84766C8.93555 3.84766 4.08203-1.01562 4.08203-7.05078C4.08203-13.0957 8.92578-17.9492 14.9609-17.9492C21.0059-17.9492 25.8691-13.0957 25.8691-7.05078C25.8691-1.01562 21.0156 3.84766 14.9707 3.84766ZM9.19922-7.05078C9.19922-6.5332 9.57031-6.17188 10.1172-6.17188L14.0625-6.17188L14.0625-2.2168C14.0625-1.67969 14.4336-1.29883 14.9512-1.29883C15.4883-1.29883 15.8594-1.66992 15.8594-2.2168L15.8594-6.17188L19.8145-6.17188C20.3516-6.17188 20.7324-6.5332 20.7324-7.05078C20.7324-7.59766 20.3613-7.96875 19.8145-7.96875L15.8594-7.96875L15.8594-11.9141C15.8594-12.4609 15.4883-12.8418 14.9512-12.8418C14.4336-12.8418 14.0625-12.4609 14.0625-11.9141L14.0625-7.96875L10.1172-7.96875C9.57031-7.96875 9.19922-7.59766 9.19922-7.05078Z"/>
  </g>
  <text style="stroke:none;fill:black;font-family:sans-serif;font-size:13;font-weight:bold;" transform="matrix(1 0 0 1 263 1953)">Design Variations</text>
  <text style="stroke:none;fill:black;font-family:sans-serif;font-size:13;" transform="matrix(1 0 0 1 263 1971)">Symbols are supported in up to nine weights and three scales.</text>
  <text style="stroke:none;fill:black;font-family:sans-serif;font-size:13;" transform="matrix(1 0 0 1 263 1989)">For optimal layout with text and other symbols, vertically align</text>
  <text style="stroke:none;fill:black;font-family:sans-serif;font-size:13;" transform="matrix(1 0 0 1 263 2007)">symbols with the adjacent text.</text>
  <line style="fill:none;stroke:#00AEEF;stroke-width:0.5;opacity:1.0;" x1="776" x2="776" y1="1919" y2="1933"/>
  <g transform="matrix(1 0 0 1 776 1933)">
   <path d="M3.31055 0.15625C3.82812 0.15625 4.08203-0.0390625 4.26758-0.585938L5.52734-4.0332L11.2891-4.0332L12.5488-0.585938C12.7344-0.0390625 12.9883 0.15625 13.4961 0.15625C14.0137 0.15625 14.3457-0.15625 14.3457-0.644531C14.3457-0.810547 14.3164-0.966797 14.2383-1.17188L9.6582-13.3691C9.43359-13.9648 9.0332-14.2676 8.4082-14.2676C7.80273-14.2676 7.39258-13.9746 7.17773-13.3789L2.59766-1.16211C2.51953-0.957031 2.49023-0.800781 2.49023-0.634766C2.49023-0.146484 2.80273 0.15625 3.31055 0.15625ZM6.00586-5.51758L8.37891-12.0898L8.42773-12.0898L10.8008-5.51758Z"/>
  </g>
  <line style="fill:none;stroke:#00AEEF;stroke-width:0.5;opacity:1.0;" x1="793.197" x2="793.197" y1="1919" y2="1933"/>
  <text style="stroke:none;fill:black;font-family:sans-serif;font-size:13;font-weight:bold;" transform="matrix(1 0 0 1 776 1953)">Margins</text>
  <text style="stroke:none;fill:black;font-family:sans-serif;font-size:13;" transform="matrix(1 0 0 1 776 1971)">Leading and trailing margins on the left and right side of each symbol</text>
  <text style="stroke:none;fill:black;font-family:sans-serif;font-size:13;" transform="matrix(1 0 0 1 776 1989)">can be adjusted by modifying the x-location of the margin guidelines.</text>
  <text style="stroke:none;fill:black;font-family:sans-serif;font-size:13;" transform="matrix(1 0 0 1 776 2007)">Modifications are automatically applied proportionally to all</text>
  <text style="stroke:none;fill:black;font-family:sans-serif;font-size:13;" transform="matrix(1 0 0 1 776 2025)">scales and weights.</text>
  <g transform="matrix(1 0 0 1 1289 1933)">
   <path d="M2.8418 1.86523L4.54102 3.57422C5.40039 4.44336 6.38672 4.38477 7.31445 3.35938L18.0078-8.42773L17.041-9.4043L6.42578 2.27539C6.07422 2.67578 5.74219 2.77344 5.27344 2.30469L4.10156 1.14258C3.63281 0.683594 3.74023 0.341797 4.14062-0.0195312L15.6152-10.8203L14.6387-11.7871L3.04688-0.898438C2.06055 0.0195312 1.98242 0.996094 2.8418 1.86523ZM9.25781-16.3281C8.83789-15.918 8.80859-15.3418 9.04297-14.9512C9.27734-14.5898 9.73633-14.3555 10.3809-14.5215C11.8457-14.8633 13.3691-14.9219 14.7949-13.9844L14.209-12.5293C13.8672-11.6992 14.043-11.1133 14.5801-10.5664L16.875-8.25195C17.3633-7.76367 17.7734-7.74414 18.3398-7.8418L19.4043-8.03711L20.0684-7.36328L20.0293-6.80664C19.9902-6.30859 20.1172-5.92773 20.6055-5.44922L21.3672-4.70703C21.8457-4.22852 22.4609-4.19922 22.9297-4.66797L25.8398-7.58789C26.3086-8.05664 26.2891-8.65234 25.8105-9.13086L25.0391-9.89258C24.5605-10.3711 24.1895-10.5273 23.7109-10.4883L23.1348-10.4395L22.4902-11.0742L22.7344-12.1973C22.8613-12.7637 22.7051-13.2031 22.1191-13.7891L19.9219-15.9766C16.582-19.2969 12.1484-19.2188 9.25781-16.3281ZM10.752-15.957C13.1836-17.7344 16.4746-17.4316 18.7012-15.2051L21.1328-12.793C21.3672-12.5586 21.4062-12.373 21.3379-12.0312L21.0156-10.5469L22.5195-9.0625L23.5059-9.12109C23.7598-9.13086 23.8379-9.11133 24.0332-8.91602L24.6094-8.33984L22.168-5.89844L21.5918-6.47461C21.3965-6.66992 21.3672-6.74805 21.377-7.01172L21.4453-7.98828L19.9512-9.47266L18.4277-9.21875C18.1055-9.15039 17.959-9.17969 17.7148-9.41406L15.7129-11.416C15.459-11.6504 15.4297-11.8164 15.5859-12.1875L16.4648-14.2773C14.9023-15.7324 12.8711-16.3574 10.8398-15.7617C10.6836-15.7227 10.625-15.8496 10.752-15.957Z"/>
  </g>
  <text style="stroke:none;fill:black;font-family:sans-serif;font-size:13;font-weight:bold;" transform="matrix(1 0 0 1 1289 1953)">Exporting</text>
  <text style="stroke:none;fill:black;font-family:sans-serif;font-size:13;" transform="matrix(1 0 0 1 1289 1971)">Symbols should be outlined when exporting to ensure the</text>
  <text style="stroke:none;fill:black;font-family:sans-serif;font-size:13;" transform="matrix(1 0 0 1 1289 1989)">design is preserved when submitting to Xcode.</text>
  <text id="template-version" style="stroke:none;fill:black;font-family:sans-serif;font-size:13;text-anchor:end;" transform="matrix(1 0 0 1 3036 1933)">Template v.4.0</text>
  <text style="stroke:none;fill:black;font-family:sans-serif;font-size:13;text-anchor:end;" transform="matrix(1 0 0 1 3036 1951)">Requires Xcode 14 or greater</text>
  <text id="descriptive-name" style="stroke:none;fill:black;font-family:sans-serif;font-size:13;text-anchor:end;" transform="matrix(1 0 0 1 3036 1969)">Generated from shield.lefthalf.filled</text>
  <text style="stroke:none;fill:black;font-family:sans-serif;font-size:13;text-anchor:end;" transform="matrix(1 0 0 1 3036 1987)">Typeset at 100 points</text>
  <text style="stroke:none;fill:black;font-family:sans-serif;font-size:13;" transform="matrix(1 0 0 1 263 726)">Small</text>
  <text style="stroke:none;fill:black;font-family:sans-serif;font-size:13;" transform="matrix(1 0 0 1 263 1156)">Medium</text>
  <text style="stroke:none;fill:black;font-family:sans-serif;font-size:13;" transform="matrix(1 0 0 1 263 1586)">Large</text>
 </g>
 <g id="Guides">
  <g id="H-reference" style="fill:#27AAE1;stroke:none;" transform="matrix(1 0 0 1 339 696)">
   <path d="M0.993654 0L3.63775 0L29.3281-67.1323L30.0303-67.1323L30.0303-70.459L28.1226-70.459ZM11.6885-24.4799L46.9815-24.4799L46.2315-26.7285L12.4385-26.7285ZM55.1196 0L57.7637 0L30.6382-70.459L29.4326-70.459L29.4326-67.1323Z"/>
  </g>
  <line id="Baseline-S" style="fill:none;stroke:#27AAE1;opacity:1;stroke-width:0.5;" x1="263" x2="3036" y1="696" y2="696"/>
  <line id="Capline-S" style="fill:none;stroke:#27AAE1;opacity:1;stroke-width:0.5;" x1="263" x2="3036" y1="625.541" y2="625.541"/>
  <g id="H-reference" style="fill:#27AAE1;stroke:none;" transform="matrix(1 0 0 1 339 1126)">
   <path d="M0.993654 0L3.63775 0L29.3281-67.1323L30.0303-67.1323L30.0303-70.459L28.1226-70.459ZM11.6885-24.4799L46.9815-24.4799L46.2315-26.7285L12.4385-26.7285ZM55.1196 0L57.7637 0L30.6382-70.459L29.4326-70.459L29.4326-67.1323Z"/>
  </g>
  <line id="Baseline-M" style="fill:none;stroke:#27AAE1;opacity:1;stroke-width:0.5;" x1="263" x2="3036" y1="1126" y2="1126"/>
  <line id="Capline-M" style="fill:none;stroke:#27AAE1;opacity:1;stroke-width:0.5;" x1="263" x2="3036" y1="1055.54" y2="1055.54"/>
  <g id="H-reference" style="fill:#27AAE1;stroke:none;" transform="matrix(1 0 0 1 339 1556)">
   <path d="M0.993654 0L3.63775 0L29.3281-67.1323L30.0303-67.1323L30.0303-70.459L28.1226-70.459ZM11.6885-24.4799L46.9815-24.4799L46.2315-26.7285L12.4385-26.7285ZM55.1196 0L57.7637 0L30.6382-70.459L29.4326-70.459L29.4326-67.1323Z"/>
  </g>
  <line id="Baseline-L" style="fill:none;stroke:#27AAE1;opacity:1;stroke-width:0.5;" x1="263" x2="3036" y1="1556" y2="1556"/>
  <line id="Capline-L" style="fill:none;stroke:#27AAE1;opacity:1;stroke-width:0.5;" x1="263" x2="3036" y1="1485.54" y2="1485.54"/>
  <line id="left-margin-Regular-M" style="fill:none;stroke:#00AEEF;stroke-width:0.5;opacity:1.0;" x1="1391.46" x2="1391.46" y1="1030.79" y2="1150.12"/>
  <line id="right-margin-Regular-M" style="fill:none;stroke:#00AEEF;stroke-width:0.5;opacity:1.0;" x1="1508.23" x2="1508.23" y1="1030.79" y2="1150.12"/>
 </g>
 <g id="Symbols">
  <g id="Black-L" transform="matrix(1 0 0 1 2854.52 1556)">
   <path d="M22.693-22.4652C22.693 0.566477 36.2639 11.4883 73.8003 30.1506C75.5004 30.994 77.4592 31.6149 78.8779 31.6149C80.2965 31.6149 82.2554 30.994 83.9554 30.1506C121.495 11.5163 135.063 0.566477 135.063-22.4652L135.063-68.1745C135.063-78.5713 131.948-83.0981 122.671-87.086C117.244-89.4014 94.7043-96.6385 89.8599-98.1609C86.4785-99.1911 82.1829-99.8268 78.8779-99.8268C75.5729-99.8268 71.2565-99.091 67.8959-98.1609C63.0527-96.8587 40.5123-89.3806 35.0838-87.086C25.8078-83.1201 22.693-78.5713 22.693-68.1745ZM79.2334 11.9156L79.2334-81.9444C80.7508-81.9236 82.0989-81.5451 84.7564-80.7554C89.5937-79.0178 105.901-73.5761 114.5-70.2296C116.311-69.4991 116.913-68.407 116.913-65.9687L116.913-24.9448C116.913-9.2135 107.95-4.59348 81.602 10.8237C80.2317 11.6411 79.7684 11.8531 79.2334 11.9156Z"/>
  </g>
  <g id="Heavy-L" transform="matrix(1 0 0 1 2558.75 1556)">
   <path d="M22.7331-22.4804C22.7331 0.451646 35.9874 10.7099 73.06 29.7544C74.7341 30.6078 76.6102 31.1862 77.9357 31.1862C79.2613 31.1862 81.1374 30.6078 82.8115 29.7544C119.901 10.7738 133.138 0.451646 133.138-22.4804L133.138-68.762C133.138-78.2849 130.103-82.2367 121.73-85.8194C115.727-88.3559 93.1085-95.8331 87.5459-97.6451C84.5686-98.565 80.8785-99.1456 77.9357-99.1456C74.993-99.1456 71.2727-98.46 68.3256-97.6451C62.7686-96.0968 40.1443-88.3258 34.1354-85.8194C25.7685-82.2725 22.7331-78.2849 22.7331-68.762ZM78.4836 13.5773L78.4836-83.2057C79.7325-83.1755 80.8756-82.8439 83.0474-82.1887C88.9138-80.0013 105.857-74.2137 114.65-70.8877C116.492-70.1593 117.051-69.0836 117.051-66.6583L117.051-24.8699C117.051-8.29571 107.915-3.55605 80.9189 12.449C79.6583 13.2207 79.077 13.4868 78.4836 13.5773Z"/>
  </g>
  <g id="Bold-L" transform="matrix(1 0 0 1 2263.3 1556)">
   <path d="M22.7272-22.4064C22.7272 0.253599 35.5523 9.65989 72.0337 29.1882C73.6547 30.0419 75.4383 30.589 76.6784 30.589C77.9184 30.589 79.7021 30.0419 81.323 29.1882C117.844 9.77726 130.63 0.253599 130.63-22.4064L130.63-69.2907C130.63-77.8495 127.731-81.1686 120.309-84.3114C113.48-87.1543 91.2753-94.7448 84.7245-96.9477C82.202-97.7442 79.2052-98.2632 76.6784-98.2632C74.1516-98.2632 71.1168-97.6391 68.6323-96.9477C62.0947-95.025 39.8772-87.1164 33.0343-84.3114C25.6254-81.2198 22.7272-77.8495 22.7272-69.2907ZM77.3824 15.6664L77.3824-84.788C78.3605-84.75 79.3171-84.4574 80.9938-83.9339C87.8749-81.3049 105.781-75.0125 114.64-71.7469C116.596-70.9888 117.131-69.8914 117.131-67.3547L117.131-24.5988C117.131-7.11378 107.653-2.24296 79.9246 14.492C78.7948 15.2098 78.06 15.5524 77.3824 15.6664Z"/>
  </g>
  <g id="Semibold-L" transform="matrix(1 0 0 1 1967.46 1556)">
   <path d="M22.7231-22.3555C22.7231 0.117067 35.2524 8.93601 71.3262 28.7978C72.9106 29.6518 74.6304 30.1772 75.8116 30.1772C76.9927 30.1772 78.7126 29.6518 80.2969 28.7978C116.426 9.09026 128.9 0.117067 128.9-22.3555L128.9-69.6551C128.9-77.5493 126.096-80.4323 119.329-83.2718C111.93-86.326 90.0115-93.9945 82.7794-96.4669C80.5705-97.1784 78.0516-97.6548 75.8116-97.6548C73.5715-97.6548 71.0093-97.0731 68.8437-96.4669C61.6301-94.2861 39.693-86.2826 32.2752-83.2718C25.5268-80.4942 22.7231-77.5493 22.7231-69.6551ZM76.6233 17.1066L76.6233-85.8788C77.4147-85.8354 78.2427-85.5697 79.5781-85.1371C87.1587-82.2036 105.728-75.5633 114.634-72.3393C116.667-71.5607 117.186-70.4482 117.186-67.8349L117.186-24.412C117.186-6.29897 107.472-1.33773 79.2391 15.9005C78.1995 16.5811 77.3589 16.9765 76.6233 17.1066Z"/>
  </g>
  <g id="Medium-L" transform="matrix(1 0 0 1 1671.4 1556)">
   <path d="M22.7199-22.3168C22.7199 0.0135418 35.0249 8.38713 70.7898 28.5018C72.3464 29.356 74.0178 29.865 75.1543 29.865C76.2908 29.865 77.9623 29.356 79.5188 28.5018C115.351 8.56935 127.589 0.0135418 127.589-22.3168L127.589-69.9315C127.589-77.3216 124.857-79.874 118.586-82.4836C110.755-85.6979 89.0532-93.4257 81.3046-96.1023C79.3334-96.7494 77.1769-97.1935 75.1543-97.1935C73.1317-97.1935 70.9278-96.644 69.004-96.1023C61.2779-93.7259 39.5534-85.6504 31.6997-82.4836C25.452-79.9439 22.7199-77.3216 22.7199-69.9315ZM76.0477 18.1986L76.0477-86.7059C76.6975-86.6584 77.428-86.4131 78.5046-86.0493C86.6156-82.8851 105.688-75.9808 114.629-72.7884C116.721-71.9943 117.228-70.8705 117.228-68.1989L117.228-24.2703C117.228-5.68114 107.335-0.651349 78.7194 16.9684C77.7481 17.6208 76.8273 18.0563 76.0477 18.1986Z"/>
  </g>
  <g id="Regular-L" transform="matrix(1 0 0 1 1375.55 1556)">
   <path d="M22.7159-22.2664C22.7159-0.12149 34.7283 7.6712 70.0901 28.1157C71.6104 28.9701 73.2188 29.4577 74.297 29.4577C75.3752 29.4577 76.9836 28.9701 78.504 28.1157C113.949 7.8899 125.878-0.12149 125.878-22.2664L125.878-70.292C125.878-77.0247 123.24-79.1458 117.617-81.4554C109.223-84.8786 87.8033-92.6836 79.3809-95.6268C77.7198-96.1898 76.0361-96.5919 74.297-96.5919C72.558-96.5919 70.8215-96.0842 69.2131-95.6268C60.8184-92.9951 39.3712-84.8258 30.9489-81.4554C25.3544-79.2262 22.7159-77.0247 22.7159-70.292ZM75.297 19.623L75.297-87.7847C75.762-87.7319 76.3654-87.5132 77.1045-87.2392C85.9073-83.7739 105.636-76.5255 114.623-73.3742C116.792-72.5598 117.282-71.4212 117.282-68.6738L117.282-24.0854C117.282-4.87528 107.156 0.243935 78.0414 18.3614C77.1594 18.9771 76.1339 19.4647 75.297 19.623Z"/>
  </g>
  <g id="Light-L" transform="matrix(1 0 0 1 1080.29 1556)">
   <path d="M22.3533-21.6175C22.3533-0.617708 33.8313 6.39248 68.6778 27.2378C70.0263 28.0159 71.6347 28.618 72.8465 28.618C74.0584 28.618 75.6667 28.0159 77.0153 27.2378C112.002 6.70661 123.34-0.617708 123.34-21.6175L123.34-69.3759C123.34-76.204 121.045-78.4015 114.984-80.8066C105.291-84.6496 87.4597-91.3477 77.7205-94.768C76.0784-95.3309 74.5092-95.733 72.8465-95.733C71.1838-95.733 69.581-95.2636 67.9726-94.768C58.2801-91.4301 40.4018-84.6159 30.6626-80.8066C24.6483-78.4819 22.3533-76.204 22.3533-69.3759ZM73.4266 21.2643L73.4266-89.0062C74.1016-88.9725 75.0103-88.6583 76.0929-88.2507C83.9224-85.2244 105.446-77.1362 113.363-74.2522C116.086-73.2087 116.748-71.7838 116.748-68.1394L116.748-22.7495C116.748-3.76834 105.572 1.3318 76.4001 19.9645C75.5753 20.5611 74.3972 21.1633 73.4266 21.2643Z"/>
  </g>
  <g id="Thin-L" transform="matrix(1 0 0 1 785.494 1556)">
   <path d="M21.8737-20.7593C21.8737-1.27399 32.6449 4.70128 66.8099 26.0767C67.9313 26.7538 69.5397 27.5073 70.9282 27.5073C72.3167 27.5073 73.9251 26.7538 75.0464 26.0767C109.427 5.14162 119.983-1.27399 119.983-20.7593L119.983-68.1643C119.983-75.1186 118.142-77.4171 111.5-79.9483C100.091-84.3467 87.0054-89.5807 75.5245-93.6321C73.9076-94.195 72.4899-94.5971 70.9282-94.5971C69.3664-94.5971 67.9402-94.1782 66.3318-93.6321C54.9229-89.3603 41.7649-84.3382 30.284-79.9483C23.7143-77.4975 21.8737-75.1186 21.8737-68.1643ZM70.9529 23.4351L70.9529-90.6216C71.9056-90.6132 73.2182-90.1729 74.7551-89.5886C81.2973-87.1428 105.193-77.944 111.697-75.4133C115.152-74.067 116.041-72.2634 116.041-67.4326L116.041-20.9825C116.041-2.30431 103.477 2.77058 74.2293 22.0848C73.4802 22.6562 72.1002 23.4098 70.9529 23.4351Z"/>
  </g>
  <g id="Ultralight-L" transform="matrix(1 0 0 1 489.766 1556)">
   <path d="M21.628-20.3197C21.628-1.61014 32.0372 3.83506 65.8531 25.4819C66.8582 26.1073 68.4666 26.9385 69.9456 26.9385C71.4246 26.9385 73.033 26.1073 74.038 25.4819C108.109 4.34004 118.263-1.61014 118.263-20.3197L118.263-67.5437C118.263-74.5627 116.655-76.9129 109.716-79.5088C97.4281-84.1915 86.7726-88.6757 74.3997-93.0503C72.7958-93.6132 71.4556-94.0153 69.9456-94.0153C68.4356-94.0153 67.0999-93.6222 65.4915-93.0503C53.2034-88.3001 42.4631-84.196 30.0901-79.5088C23.236-76.9933 21.628-74.5627 21.628-67.5437ZM69.6859 24.547L69.6859-91.4491C70.7808-91.4536 72.3002-90.9486 74.0699-90.2738C79.9527-88.1253 105.064-78.3577 110.844-76.008C114.673-74.5065 115.679-72.5091 115.679-67.0706L115.679-20.0775C115.679-1.55444 102.404 3.50752 73.1174 23.1709C72.4071 23.7293 70.9236 24.5605 69.6859 24.547Z"/>
  </g>
  <g id="Black-M" transform="matrix(1 0 0 1 2871.68 1126)">
   <path d="M17.4976-25.2394C17.4976-7.46539 28.2113 1.4604 57.6211 15.6447C58.9373 16.2793 60.526 16.8123 61.7232 16.8123C62.9204 16.8123 64.5091 16.2793 65.8253 15.6447C95.2343 1.4642 105.949-7.46539 105.949-25.2394L105.949-60.1244C105.949-68.9432 103.514-72.9548 95.4895-76.4056C91.6039-78.0662 74.6962-83.3168 71.382-84.312C68.4175-85.2049 64.5848-85.7448 61.7232-85.7448C58.8617-85.7448 55.0234-85.1368 52.0644-84.312C48.7499-83.4189 31.8425-78.0607 27.9572-76.4056C19.9325-72.96 17.4976-68.9432 17.4976-60.1244ZM61.7765 0.0900124L61.7765-70.5029C63.2112-70.4975 64.4732-70.1511 66.996-69.4056C69.7274-68.5054 82.0581-64.4731 88.4088-61.899C89.8594-61.3002 90.3864-60.4011 90.3864-58.3794L90.3864-27.1448C90.3864-15.7126 83.4499-12.2387 63.5852-0.729799C62.437-0.0597895 62.1588 0.0735382 61.7765 0.0900124Z"/>
  </g>
  <g id="Heavy-M" transform="matrix(1 0 0 1 2575.75 1126)">
   <path d="M17.5703-25.3142C17.5703-7.53187 28.0237 0.817479 57.0277 15.3384C58.3343 15.9898 59.8421 16.4707 60.936 16.4707C62.0299 16.4707 63.5377 15.9898 64.8443 15.3384C93.8551 0.847531 104.302-7.53187 104.302-25.3142L104.302-60.7832C104.302-68.7389 101.913-72.1814 94.8132-75.2272C90.4843-77.0653 73.168-82.6527 69.2731-83.887C66.7019-84.6721 63.4504-85.1581 60.936-85.1581C58.4215-85.1581 55.1537-84.5957 52.5989-83.887C48.7063-82.8185 31.3876-77.0489 27.0565-75.2272C19.9592-72.2001 17.5703-68.7389 17.5703-60.7832ZM61.216 1.56305L61.216-71.6233C62.3689-71.6069 63.4024-71.3151 65.4187-70.7134C69.2458-69.333 82.0325-65.04 88.6712-62.4613C90.1017-61.8857 90.5708-61.0291 90.5708-59.1028L90.5708-27.1949C90.5708-14.9175 83.561-11.3249 63.0688 0.711177C62.0226 1.33821 61.6431 1.51382 61.216 1.56305Z"/>
  </g>
  <g id="Bold-M" transform="matrix(1 0 0 1 2279.92 1126)">
   <path d="M17.6516-25.3978C17.6516-7.60624 27.8139 0.0982753 56.3638 14.9958C57.6598 15.6659 59.0772 16.0886 60.0554 16.0886C61.0336 16.0886 62.451 15.6659 63.7469 14.9958C92.3122 0.157702 102.459-7.60624 102.459-25.3978L102.459-61.5201C102.459-68.5104 100.122-71.3161 94.0567-73.909C89.2319-75.9457 71.4584-81.9099 66.914-83.4116C64.7828-84.0761 62.1816-84.5018 60.0554-84.5018C57.9292-84.5018 55.2994-83.9903 53.1968-83.4116C48.6575-82.1469 30.8789-75.9171 26.0489-73.909C19.989-71.3499 17.6516-68.5104 17.6516-61.5201ZM60.589 3.21086L60.589-72.8766C61.4267-72.8479 62.2044-72.6172 63.6542-72.1764C68.7072-70.2589 82.0039-65.6742 88.9648-63.0903C90.3727-62.5406 90.7771-61.7316 90.7771-59.912L90.7771-27.2509C90.7771-14.0281 83.6854-10.3027 62.4912 2.32312C61.5591 2.90207 61.0663 3.12499 60.589 3.21086Z"/>
  </g>
  <g id="Semibold-M" transform="matrix(1 0 0 1 1983.82 1126)">
   <path d="M17.7076-25.4555C17.7076-7.6575 27.6693-0.397539 55.9062 14.7597C57.1948 15.4426 58.5498 15.8252 59.4483 15.8252C60.3468 15.8252 61.7018 15.4426 62.9904 14.7597C91.2486-0.317862 101.189-7.6575 101.189-25.4555L101.189-62.0282C101.189-68.3529 98.887-70.7197 93.5352-73.0003C88.3685-75.1739 70.2799-81.3977 65.2876-83.0839C63.4598-83.6653 61.3068-84.0494 59.4483-84.0494C57.5898-84.0494 55.3998-83.573 53.609-83.0839C48.6238-81.6838 30.5281-75.1368 25.3543-73.0003C20.0096-70.7638 17.7076-68.3529 17.7076-62.0282ZM60.1568 4.34685L60.1568-73.7406C60.7772-73.7035 61.3786-73.5149 62.4378-73.185C68.3359-70.8971 81.9842-66.1113 89.1672-63.5239C90.5595-62.9922 90.9193-62.2159 90.9193-60.4699L90.9193-27.2895C90.9193-13.4149 83.7711-9.59796 62.093 3.43438C61.2396 3.98018 60.6686 4.23572 60.1568 4.34685Z"/>
  </g>
  <g id="Medium-M" transform="matrix(1 0 0 1 1687.57 1126)">
   <path d="M17.7501-25.4992C17.7501-7.69638 27.5596-0.773487 55.5592 14.5806C56.8422 15.2733 58.1499 15.6255 58.988 15.6255C59.826 15.6255 61.1338 15.2733 62.4168 14.5806C90.4421-0.678455 100.226-7.69638 100.226-25.4992L100.226-62.4134C100.226-68.2335 97.9508-70.2674 93.1398-72.3112C87.7138-74.5886 69.3862-81.0094 64.0544-82.8354C62.4566-83.3537 60.6435-83.7064 58.988-83.7064C57.3325-83.7064 55.476-83.2566 53.9216-82.8354C48.5983-81.3327 30.2622-74.5452 24.8276-72.3112C20.0252-70.3194 17.7501-68.2335 17.7501-62.4134ZM59.829 5.2082L59.829-74.3957C60.2846-74.3522 60.7524-74.1955 61.5155-73.9497C68.0543-71.3811 81.9693-66.4428 89.3207-63.8527C90.7012-63.3345 91.0272-62.5831 91.0272-60.8929L91.0272-27.3188C91.0272-12.95 83.8361-9.06362 61.7911 4.27698C60.9973 4.79765 60.3671 5.07792 59.829 5.2082Z"/>
  </g>
  <g id="Regular-M" transform="matrix(1 0 0 1 1391.46 1126)">
   <path d="M17.8056-25.5562C17.8056-7.74708 27.4166-1.26385 55.1065 14.347C56.3823 15.0524 57.6284 15.365 58.3876 15.365C59.1468 15.365 60.3929 15.0524 61.6686 14.347C89.3902-1.14879 98.9696-7.74708 98.9696-25.5562L98.9696-62.9159C98.9696-68.0777 96.7296-69.6775 92.624-71.4125C86.8599-73.8252 68.2206-80.5029 62.4459-82.5112C61.1481-82.9474 59.7784-83.2589 58.3876-83.2589C56.9968-83.2589 55.5753-82.8439 54.3292-82.5112C48.5651-80.8748 29.9153-73.7735 24.1406-71.4125C20.0455-69.7398 17.8056-68.0777 17.8056-62.9159ZM59.4015 6.33171L59.4015-75.2502C59.6422-75.1984 59.9356-75.0834 60.3125-74.9472C67.6871-72.0123 81.9498-66.8752 89.5208-64.2815C90.886-63.7811 91.1679-63.0621 91.1679-61.4447L91.1679-27.357C91.1679-12.3436 83.9209-8.36666 61.3973 5.37603C60.6813 5.86392 59.9738 6.17644 59.4015 6.33171Z"/>
  </g>
  <g id="Light-M" transform="matrix(1 0 0 1 1096.05 1126)">
   <path d="M17.4805-24.9744C17.4805-8.19197 26.6124-2.41029 53.8403 13.5599C54.9621 14.1969 56.2082 14.6121 57.0871 14.6121C57.9661 14.6121 59.2122 14.1969 60.334 13.5599C87.6449-2.20967 96.6938-8.19197 96.6938-24.9744L96.6938-62.0946C96.6938-67.3419 94.7618-69.0101 90.2627-70.8307C83.335-73.6199 67.9126-79.3052 60.9573-81.7412C59.6765-82.1774 58.4095-82.4889 57.0871-82.4889C55.7648-82.4889 54.4631-82.1081 53.217-81.7412C46.2893-79.4717 30.8393-73.5853 23.8839-70.8307C19.4124-69.0725 17.4805-67.3419 17.4805-62.0946ZM57.7247 7.80325L57.7247-76.3453C58.1536-76.3106 58.7208-76.11 59.4056-75.8541C65.9075-73.3128 81.7787-67.4228 88.3915-65.0686C90.2529-64.3629 90.6887-63.3872 90.6887-60.9656L90.6887-26.1593C90.6887-11.3512 82.5007-7.39133 59.9258 6.81335C59.2611 7.28413 58.4167 7.69932 57.7247 7.80325Z"/>
  </g>
  <g id="Thin-M" transform="matrix(1 0 0 1 801.055 1126)">
   <path d="M17.0505-24.205C17.0505-8.78036 25.5487-3.92654 52.1657 12.5189C53.0837 13.0654 54.3298 13.6163 55.3672 13.6163C56.4046 13.6163 57.6507 13.0654 58.5688 12.5189C85.3366-3.61277 93.6839-8.78036 93.6839-24.205L93.6839-61.0083C93.6839-66.3688 92.1593-68.1276 87.1397-70.0612C78.6731-73.3483 67.5053-77.721 58.9884-80.7229C57.7303-81.159 56.5991-81.4705 55.3672-81.4705C54.1354-81.4705 52.9921-81.135 51.746-80.7229C43.2794-77.616 32.0613-73.3363 23.5444-70.0612C18.5751-68.1899 17.0505-66.3688 17.0505-61.0083ZM55.5069 9.74948L55.5069-77.7936C56.1847-77.7816 57.114-77.4678 58.2062-77.0535C63.5539-75.0327 81.5523-68.147 86.8979-66.1096C89.4155-65.1323 90.0551-63.8172 90.0551-60.3319L90.0551-24.5751C90.0551-10.0386 80.6224-6.10139 57.9795 8.71432C57.3827 9.16247 56.3574 9.71344 55.5069 9.74948Z"/>
  </g>
  <g id="Ultralight-M" transform="matrix(1 0 0 1 505.225 1126)">
   <path d="M16.8303-23.8109C16.8303-9.08173 25.004-4.70315 51.3079 11.9857C52.1216 12.4858 53.3677 13.1063 54.4863 13.1063C55.6048 13.1063 56.8509 12.4858 57.6647 11.9857C84.1543-4.33143 92.1423-9.08173 92.1423-23.8109L92.1423-60.4519C92.1423-65.8703 90.8263-67.6755 85.5401-69.6671C76.2853-73.2092 67.2966-76.9096 57.98-80.2013C56.7335-80.6374 55.6718-80.9489 54.4863-80.9489C53.3008-80.9489 52.2387-80.6366 50.9926-80.2013C41.7378-76.6655 32.6872-73.2088 23.3706-69.6671C18.1462-67.7378 16.8303-65.8703 16.8303-60.4519ZM54.3709 10.7463L54.3709-78.5355C55.1763-78.535 56.291-78.1633 57.5918-77.6678C62.3485-75.9136 81.4364-68.5179 86.1329-66.6428C88.9867-65.5264 89.7305-64.0374 89.7305-60.0074L89.7305-23.7637C89.7305-9.3663 79.6603-5.44069 56.9827 9.68799C56.4207 10.1245 55.3026 10.7451 54.3709 10.7463Z"/>
  </g>
  <g id="Black-S" transform="matrix(1 0 0 1 2884.86 696)">
   <path d="M13.6719-27.3438C13.6719-13.4766 22.1191-6.34766 45.2637 4.6875C46.2891 5.17578 47.5586 5.61523 48.5352 5.61523C49.5117 5.61523 50.7812 5.17578 51.8066 4.6875C74.9512-6.34766 83.3984-13.4766 83.3984-27.3438L83.3984-54.4922C83.3984-61.6699 81.4941-64.9902 74.9023-67.8223C71.9238-69.0918 58.9844-73.0469 56.4941-73.7793C54.0527-74.5117 50.8789-74.9512 48.5352-74.9512C46.1914-74.9512 43.0176-74.4629 40.5762-73.7793C38.0859-73.0957 25.1465-69.0918 22.168-67.8223C15.5762-64.9902 13.6719-61.6699 13.6719-54.4922ZM48.4863-7.91016L48.4863-62.5977C49.707-62.5977 50.7812-62.3047 52.9297-61.6699C54.6875-61.1328 64.3066-58.0078 69.1406-56.0059C70.3125-55.5176 70.752-54.7852 70.752-53.125L70.752-28.8086C70.752-20.1172 65.2832-17.4316 49.9023-8.54492C48.9746-8.00781 48.7793-7.91016 48.4863-7.91016Z"/>
  </g>
  <g id="Heavy-S" transform="matrix(1 0 0 1 2588.66 696)">
   <path d="M13.7756-27.482C13.7756-13.4766 22.0615-6.75101 44.9179 4.52616C45.9549 5.03749 47.1552 5.41932 48.0281 5.41932C48.9009 5.41932 50.1013 5.03749 51.1382 4.52616C73.9946-6.73949 82.2806-13.4766 82.2806-27.482L82.2806-55.1606C82.2806-61.5893 80.3763-64.414 74.6258-66.8888C71.4168-68.262 57.7167-72.632 54.8807-73.5142C52.7735-74.1545 50.0837-74.5478 48.0281-74.5478C45.9724-74.5478 43.2711-74.0941 41.1754-73.5142C38.3395-72.7615 24.6394-68.2505 21.4304-66.8888C15.6799-64.4255 13.7756-61.5893 13.7756-55.1606ZM48.2213-6.83838L48.2213-63.4159C49.1769-63.4044 50.0206-63.169 51.6966-62.6726C54.5031-61.6745 64.3066-58.4227 69.5094-56.3862C70.6006-55.944 70.9709-55.2807 70.9709-53.8049L70.9709-29.0045C70.9709-19.564 65.5598-16.7747 49.6488-7.4962C48.8017-6.99366 48.5373-6.87295 48.2213-6.83838Z"/>
  </g>
  <g id="Bold-S" transform="matrix(1 0 0 1 2292.52 696)">
   <path d="M13.8916-27.6367C13.8916-13.4766 21.9971-7.20215 44.5312 4.3457C45.5811 4.88281 46.7041 5.2002 47.4609 5.2002C48.2178 5.2002 49.3408 4.88281 50.3906 4.3457C72.9248-7.17773 81.0303-13.4766 81.0303-27.6367L81.0303-55.9082C81.0303-61.499 79.126-63.7695 74.3164-65.8447C70.8496-67.334 56.2988-72.168 53.0762-73.2178C51.3428-73.7549 49.1943-74.0967 47.4609-74.0967C45.7275-74.0967 43.5547-73.6816 41.8457-73.2178C38.623-72.3877 24.0723-67.3096 20.6055-65.8447C15.7959-63.7939 13.8916-61.499 13.8916-55.9082ZM47.9248-5.63965L47.9248-64.3311C48.584-64.3066 49.1699-64.1357 50.3174-63.7939C54.2969-62.2803 64.3066-58.8867 69.9219-56.8115C70.9229-56.4209 71.2158-55.835 71.2158-54.5654L71.2158-29.2236C71.2158-18.9453 65.8691-16.04 49.3652-6.32324C48.6084-5.85938 48.2666-5.71289 47.9248-5.63965Z"/>
  </g>
  <g id="Semibold-S" transform="matrix(1 0 0 1 1996.2 696)">
   <path d="M13.9716-27.7434C13.9716-13.4766 21.9526-7.51318 44.2646 4.22129C45.3233 4.77617 46.3931 5.04912 47.0699 5.04912C47.7468 5.04912 48.8165 4.77617 49.8752 4.22129C72.1872-7.47988 80.1683-13.4766 80.1683-27.7434L80.1683-56.4236C80.1683-61.4368 78.264-63.3252 74.1031-65.1249C70.4586-66.6941 55.3213-71.848 51.832-73.0134C50.3563-73.4794 48.5812-73.7856 47.0699-73.7856C45.5587-73.7856 43.7502-73.3973 42.3078-73.0134C38.8186-72.13 23.6812-66.6608 20.0367-65.1249C15.8759-63.3585 13.9716-61.4368 13.9716-56.4236ZM47.7204-4.81318L47.7204-64.962C48.1752-64.9287 48.5834-64.8022 49.3665-64.5671C54.1547-62.6979 64.3066-59.2066 70.2062-57.1048C71.145-56.7497 71.3847-56.2171 71.3847-55.0897L71.3847-29.3747C71.3847-18.5188 66.0824-15.5335 49.1697-5.51455C48.4751-5.07734 48.08-4.91309 47.7204-4.81318Z"/>
  </g>
  <g id="Medium-S" transform="matrix(1 0 0 1 1699.78 696)">
   <path d="M14.0322-27.8242C14.0322-13.4766 21.9189-7.74902 44.0625 4.12695C45.1279 4.69531 46.1572 4.93457 46.7734 4.93457C47.3896 4.93457 48.4189 4.69531 49.4844 4.12695C71.6279-7.70898 79.5146-13.4766 79.5146-27.8242L79.5146-56.8145C79.5146-61.3896 77.6104-62.9883 73.9414-64.5791C70.1621-66.209 54.5801-71.6055 50.8887-72.8584C49.6084-73.2705 48.1162-73.5498 46.7734-73.5498C45.4307-73.5498 43.8984-73.1816 42.6582-72.8584C38.9668-71.9346 23.3848-66.1689 19.6055-64.5791C15.9365-63.0283 14.0322-61.3896 14.0322-56.8145ZM47.5654-4.18652L47.5654-65.4404C47.8652-65.4004 48.1387-65.3076 48.6455-65.1533C54.0469-63.0146 64.3066-59.4492 70.4219-57.3271C71.3135-56.999 71.5127-56.5068 71.5127-55.4873L71.5127-29.4893C71.5127-18.1953 66.2441-15.1494 49.0215-4.90137C48.374-4.48438 47.9385-4.30664 47.5654-4.18652Z"/>
  </g>
  <g id="Regular-S" transform="matrix(1 0 0 1 1403.46 696)">
   <path d="M14.1113-27.9297C14.1113-13.4766 21.875-8.05664 43.7988 4.00391C44.873 4.58984 45.8496 4.78516 46.3867 4.78516C46.9238 4.78516 47.9004 4.58984 48.9746 4.00391C70.8984-8.00781 78.6621-13.4766 78.6621-27.9297L78.6621-57.3242C78.6621-61.3281 76.7578-62.5488 73.7305-63.8672C69.7754-65.5762 53.6133-71.2891 49.6582-72.6562C48.6328-72.998 47.5098-73.2422 46.3867-73.2422C45.2637-73.2422 44.0918-72.9004 43.1152-72.6562C39.1602-71.6797 22.998-65.5273 19.043-63.8672C16.0156-62.5977 14.1113-61.3281 14.1113-57.3242ZM47.3633-3.36914L47.3633-66.0645C47.4609-66.0156 47.5586-65.9668 47.7051-65.918C53.9062-63.4277 64.3066-59.7656 70.7031-57.6172C71.5332-57.3242 71.6797-56.8848 71.6797-56.0059L71.6797-29.6387C71.6797-17.7734 66.4551-14.6484 48.8281-4.10156C48.2422-3.71094 47.7539-3.51562 47.3633-3.36914Z"/>
  </g>
  <g id="Light-S" transform="matrix(1 0 0 1 1107.9 696)">
   <path d="M13.8237-27.415C13.8237-13.8701 21.1636-9.07079 42.6787 3.30762C43.6167 3.83301 44.5933 4.11915 45.2363 4.11915C45.8794 4.11915 46.856 3.83301 47.794 3.30762C69.3545-8.94628 76.6489-13.8701 76.6489-27.415L76.6489-56.5977C76.6489-60.6773 75.0171-61.9585 71.6416-63.3525C66.6573-65.3945 53.3408-70.2295 48.3413-71.9751C47.3311-72.3169 46.2988-72.561 45.2363-72.561C44.1738-72.561 43.1079-72.2495 42.1314-71.9751C37.147-70.4385 23.8154-65.3608 18.8159-63.3525C15.4556-62.0073 13.8237-60.6773 13.8237-56.5977ZM45.8799-2.06739L45.8799-67.0332C46.1441-66.9995 46.4839-66.875 46.9028-66.7202C52.332-64.5781 64.1553-60.25 69.7041-58.3135C70.9731-57.8389 71.2559-57.1724 71.2559-55.582L71.2559-28.5791C71.2559-16.8955 65.1987-13.7857 47.5264-2.83009C46.9858-2.4546 46.3765-2.16847 45.8799-2.06739Z"/>
  </g>
  <g id="Thin-S" transform="matrix(1 0 0 1 812.707 696)">
   <path d="M13.4434-26.7344C13.4434-14.3906 20.2227-10.4121 41.1973 2.38673C41.9551 2.83205 42.9317 3.23829 43.7149 3.23829C44.4981 3.23829 45.4746 2.83205 46.2324 2.38673C67.3125-10.1875 73.9864-14.3906 73.9864-26.7344L73.9864-55.6367C73.9864-59.8164 72.7149-61.1777 68.8789-62.6719C62.5333-65.1543 52.9805-68.8281 46.5996-71.0742C45.6094-71.416 44.6973-71.6602 43.7149-71.6602C42.7324-71.6602 41.8067-71.3887 40.8301-71.0742C34.4844-68.7969 24.8965-65.1406 18.5156-62.6719C14.7149-61.2266 13.4434-59.8164 13.4434-55.6367ZM43.918-0.345727L43.918-68.3144C44.4024-68.3008 45.0625-68.0762 45.8418-67.7812C50.25-66.0996 63.9551-60.8906 68.3828-59.2344C70.2324-58.5195 70.6953-57.5527 70.6953-55.0215L70.6953-27.1778C70.6953-15.7344 63.5371-12.6445 45.8047-1.14846C45.3242-0.792992 44.5547-0.386743 43.918-0.345727Z"/>
  </g>
  <g id="Ultralight-S" transform="matrix(1 0 0 1 516.776 696)">
   <path d="M13.2485-26.3858C13.2485-14.6572 19.7407-11.0991 40.4385 1.91506C41.104 2.31935 42.0806 2.78713 42.9356 2.78713C43.7906 2.78713 44.7671 2.31935 45.4326 1.91506C66.2666-10.8232 72.6226-14.6572 72.6226-26.3858L72.6226-55.1445C72.6226-59.3755 71.5357-60.7778 67.4639-62.3233C60.421-65.0313 52.7959-68.1104 45.7076-70.6128C44.7276-70.9546 43.877-71.1987 42.9356-71.1987C41.9942-71.1987 41.1402-70.9478 40.1636-70.6128C33.1207-67.9561 25.4502-65.0278 18.3618-62.3233C14.3355-60.8267 13.2485-59.3755 13.2485-55.1445ZM42.9131 0.536102L42.9131-68.9707C43.5103-68.9673 44.3345-68.6914 45.2984-68.3247C49.1836-66.8789 63.8525-61.2187 67.7061-59.706C69.853-58.8682 70.4082-57.7476 70.4082-54.7344L70.4082-26.46C70.4082-15.1397 62.6861-12.0601 44.9229-0.287139C44.4732 0.0580758 43.6216 0.525847 42.9131 0.536102Z"/>
  </g>
 </g>
</svg>
