<?xml version="1.0" encoding="UTF-8"?>
<!--Generator: Apple Native CoreSVG 175-->
<!DOCTYPE svg
PUBLIC "-//W3C//DTD SVG 1.1//EN"
       "http://www.w3.org/Graphics/SVG/1.1/DTD/svg11.dtd">
<svg version="1.1" xmlns="http://www.w3.org/2000/svg" xmlns:xlink="http://www.w3.org/1999/xlink" width="3300" height="2200">
 <!--glyph: "uni1007F0.medium", point size: 100.0, font version: "17.0d11e1", template writer version: "65.1"-->
 <g id="Notes">
  <rect height="2200" id="artboard" style="fill:white;opacity:1" width="3300" x="0" y="0"/>
  <line style="fill:none;stroke:black;opacity:1;stroke-width:0.5;" x1="263" x2="3036" y1="292" y2="292"/>
  <text style="stroke:none;fill:black;font-family:sans-serif;font-size:13;font-weight:bold;" transform="matrix(1 0 0 1 263 322)">Weight/Scale Variations</text>
  <text style="stroke:none;fill:black;font-family:sans-serif;font-size:13;text-anchor:middle;" transform="matrix(1 0 0 1 559.711 322)">Ultralight</text>
  <text style="stroke:none;fill:black;font-family:sans-serif;font-size:13;text-anchor:middle;" transform="matrix(1 0 0 1 856.422 322)">Thin</text>
  <text style="stroke:none;fill:black;font-family:sans-serif;font-size:13;text-anchor:middle;" transform="matrix(1 0 0 1 1153.13 322)">Light</text>
  <text style="stroke:none;fill:black;font-family:sans-serif;font-size:13;text-anchor:middle;" transform="matrix(1 0 0 1 1449.84 322)">Regular</text>
  <text style="stroke:none;fill:black;font-family:sans-serif;font-size:13;text-anchor:middle;" transform="matrix(1 0 0 1 1746.56 322)">Medium</text>
  <text style="stroke:none;fill:black;font-family:sans-serif;font-size:13;text-anchor:middle;" transform="matrix(1 0 0 1 2043.27 322)">Semibold</text>
  <text style="stroke:none;fill:black;font-family:sans-serif;font-size:13;text-anchor:middle;" transform="matrix(1 0 0 1 2339.98 322)">Bold</text>
  <text style="stroke:none;fill:black;font-family:sans-serif;font-size:13;text-anchor:middle;" transform="matrix(1 0 0 1 2636.69 322)">Heavy</text>
  <text style="stroke:none;fill:black;font-family:sans-serif;font-size:13;text-anchor:middle;" transform="matrix(1 0 0 1 2933.4 322)">Black</text>
  <line style="fill:none;stroke:black;opacity:1;stroke-width:0.5;" x1="263" x2="3036" y1="1903" y2="1903"/>
  <g transform="matrix(1 0 0 1 263 1933)">
   <path d="M9.24805 0.830078Q10.8691 0.830078 12.2949 0.214844Q13.7207-0.400391 14.8096-1.49414Q15.8984-2.58789 16.5186-4.01367Q17.1387-5.43945 17.1387-7.05078Q17.1387-8.66211 16.5186-10.0879Q15.8984-11.5137 14.8047-12.6074Q13.7109-13.7012 12.2852-14.3164Q10.8594-14.9316 9.23828-14.9316Q7.62695-14.9316 6.20117-14.3164Q4.77539-13.7012 3.69141-12.6074Q2.60742-11.5137 1.9873-10.0879Q1.36719-8.66211 1.36719-7.05078Q1.36719-5.43945 1.9873-4.01367Q2.60742-2.58789 3.69629-1.49414Q4.78516-0.400391 6.21094 0.214844Q7.63672 0.830078 9.24805 0.830078ZM9.24805-0.654297Q7.91992-0.654297 6.7627-1.14746Q5.60547-1.64062 4.73145-2.51953Q3.85742-3.39844 3.36426-4.56055Q2.87109-5.72266 2.87109-7.05078Q2.87109-8.37891 3.35938-9.54102Q3.84766-10.7031 4.72168-11.582Q5.5957-12.4609 6.75293-12.9541Q7.91016-13.4473 9.23828-13.4473Q10.5762-13.4473 11.7334-12.9541Q12.8906-12.4609 13.7695-11.582Q14.6484-10.7031 15.1465-9.54102Q15.6445-8.37891 15.6445-7.05078Q15.6445-5.72266 15.1514-4.56055Q14.6582-3.39844 13.7842-2.51953Q12.9102-1.64062 11.748-1.14746Q10.5859-0.654297 9.24805-0.654297ZM5.6543-7.05078Q5.6543-6.72852 5.85938-6.52832Q6.06445-6.32812 6.40625-6.32812L8.51562-6.32812L8.51562-4.20898Q8.51562-3.88672 8.71094-3.67676Q8.90625-3.4668 9.23828-3.4668Q9.56055-3.4668 9.77051-3.67676Q9.98047-3.88672 9.98047-4.20898L9.98047-6.32812L12.0898-6.32812Q12.4219-6.32812 12.627-6.52832Q12.832-6.72852 12.832-7.05078Q12.832-7.38281 12.627-7.58789Q12.4219-7.79297 12.0898-7.79297L9.98047-7.79297L9.98047-9.90234Q9.98047-10.2344 9.77051-10.4443Q9.56055-10.6543 9.23828-10.6543Q8.90625-10.6543 8.71094-10.4443Q8.51562-10.2344 8.51562-9.90234L8.51562-7.79297L6.40625-7.79297Q6.06445-7.79297 5.85938-7.58789Q5.6543-7.38281 5.6543-7.05078Z"/>
  </g>
  <g transform="matrix(1 0 0 1 281.867 1933)">
   <path d="M11.709 2.91016Q13.75 2.91016 15.5518 2.12891Q17.3535 1.34766 18.7305-0.0292969Q20.1074-1.40625 20.8887-3.20801Q21.6699-5.00977 21.6699-7.05078Q21.6699-9.0918 20.8887-10.8936Q20.1074-12.6953 18.7305-14.0723Q17.3535-15.4492 15.5469-16.2305Q13.7402-17.0117 11.6992-17.0117Q9.6582-17.0117 7.85645-16.2305Q6.05469-15.4492 4.68262-14.0723Q3.31055-12.6953 2.5293-10.8936Q1.74805-9.0918 1.74805-7.05078Q1.74805-5.00977 2.5293-3.20801Q3.31055-1.40625 4.6875-0.0292969Q6.06445 1.34766 7.86621 2.12891Q9.66797 2.91016 11.709 2.91016ZM11.709 1.25Q9.98047 1.25 8.47656 0.605469Q6.97266-0.0390625 5.83496-1.17676Q4.69727-2.31445 4.05762-3.81836Q3.41797-5.32227 3.41797-7.05078Q3.41797-8.7793 4.05762-10.2832Q4.69727-11.7871 5.83008-12.9297Q6.96289-14.0723 8.4668-14.7119Q9.9707-15.3516 11.6992-15.3516Q13.4277-15.3516 14.9316-14.7119Q16.4355-14.0723 17.5781-12.9297Q18.7207-11.7871 19.3652-10.2832Q20.0098-8.7793 20.0098-7.05078Q20.0098-5.32227 19.3701-3.81836Q18.7305-2.31445 17.5928-1.17676Q16.4551-0.0390625 14.9463 0.605469Q13.4375 1.25 11.709 1.25ZM7.17773-7.05078Q7.17773-6.69922 7.41211-6.47461Q7.64648-6.25 8.01758-6.25L10.8887-6.25L10.8887-3.36914Q10.8887-2.99805 11.1133-2.76855Q11.3379-2.53906 11.6895-2.53906Q12.0605-2.53906 12.29-2.76855Q12.5195-2.99805 12.5195-3.36914L12.5195-6.25L15.4004-6.25Q15.7715-6.25 16.001-6.47461Q16.2305-6.69922 16.2305-7.05078Q16.2305-7.42188 16.001-7.65137Q15.7715-7.88086 15.4004-7.88086L12.5195-7.88086L12.5195-10.752Q12.5195-11.1328 12.29-11.3623Q12.0605-11.5918 11.6895-11.5918Q11.3379-11.5918 11.1133-11.3574Q10.8887-11.123 10.8887-10.752L10.8887-7.88086L8.01758-7.88086Q7.63672-7.88086 7.40723-7.65137Q7.17773-7.42188 7.17773-7.05078Z"/>
  </g>
  <g transform="matrix(1 0 0 1 305.646 1933)">
   <path d="M14.9707 5.66406Q17.0605 5.66406 18.96 5.01465Q20.8594 4.36523 22.4512 3.19336Q24.043 2.02148 25.2197 0.429688Q26.3965-1.16211 27.0459-3.06641Q27.6953-4.9707 27.6953-7.05078Q27.6953-9.14062 27.0459-11.04Q26.3965-12.9395 25.2197-14.5312Q24.043-16.123 22.4512-17.2998Q20.8594-18.4766 18.9551-19.126Q17.0508-19.7754 14.9609-19.7754Q12.8711-19.7754 10.9717-19.126Q9.07227-18.4766 7.48535-17.2998Q5.89844-16.123 4.72168-14.5312Q3.54492-12.9395 2.90039-11.04Q2.25586-9.14062 2.25586-7.05078Q2.25586-4.9707 2.90527-3.06641Q3.55469-1.16211 4.72656 0.429688Q5.89844 2.02148 7.49023 3.19336Q9.08203 4.36523 10.9814 5.01465Q12.8809 5.66406 14.9707 5.66406ZM14.9707 3.84766Q13.1641 3.84766 11.5283 3.2959Q9.89258 2.74414 8.53516 1.74805Q7.17773 0.751953 6.17676-0.610352Q5.17578-1.97266 4.62891-3.6084Q4.08203-5.24414 4.08203-7.05078Q4.08203-8.86719 4.62891-10.5029Q5.17578-12.1387 6.17188-13.501Q7.16797-14.8633 8.52539-15.8594Q9.88281-16.8555 11.5186-17.4023Q13.1543-17.9492 14.9609-17.9492Q16.7773-17.9492 18.4131-17.4023Q20.0488-16.8555 21.4111-15.8594Q22.7734-14.8633 23.7695-13.501Q24.7656-12.1387 25.3174-10.5029Q25.8691-8.86719 25.8691-7.05078Q25.8789-5.24414 25.332-3.6084Q24.7852-1.97266 23.7842-0.610352Q22.7832 0.751953 21.4209 1.74805Q20.0586 2.74414 18.4229 3.2959Q16.7871 3.84766 14.9707 3.84766ZM9.19922-7.05078Q9.19922-6.66992 9.45801-6.4209Q9.7168-6.17188 10.1172-6.17188L14.0625-6.17188L14.0625-2.2168Q14.0625-1.81641 14.3115-1.55762Q14.5605-1.29883 14.9512-1.29883Q15.3516-1.29883 15.6104-1.55273Q15.8691-1.80664 15.8691-2.2168L15.8691-6.17188L19.8242-6.17188Q20.2246-6.17188 20.4785-6.4209Q20.7324-6.66992 20.7324-7.05078Q20.7324-7.46094 20.4785-7.71484Q20.2246-7.96875 19.8242-7.96875L15.8691-7.96875L15.8691-11.9141Q15.8691-12.3242 15.6104-12.583Q15.3516-12.8418 14.9512-12.8418Q14.5605-12.8418 14.3115-12.583Q14.0625-12.3242 14.0625-11.9141L14.0625-7.96875L10.1172-7.96875Q9.70703-7.96875 9.45312-7.71484Q9.19922-7.46094 9.19922-7.05078Z"/>
  </g>
  <text style="stroke:none;fill:black;font-family:sans-serif;font-size:13;font-weight:bold;" transform="matrix(1 0 0 1 263 1953)">Design Variations</text>
  <text style="stroke:none;fill:black;font-family:sans-serif;font-size:13;" transform="matrix(1 0 0 1 263 1971)">Symbols are supported in up to nine weights and three scales.</text>
  <text style="stroke:none;fill:black;font-family:sans-serif;font-size:13;" transform="matrix(1 0 0 1 263 1989)">For optimal layout with text and other symbols, vertically align</text>
  <text style="stroke:none;fill:black;font-family:sans-serif;font-size:13;" transform="matrix(1 0 0 1 263 2007)">symbols with the adjacent text.</text>
  <line style="fill:none;stroke:#00AEEF;stroke-width:0.5;opacity:1.0;" x1="776" x2="776" y1="1919" y2="1933"/>
  <g transform="matrix(1 0 0 1 776 1933)">
   <path d="M3.31055 0.15625Q3.70117 0.15625 3.91602-0.00976562Q4.13086-0.175781 4.26758-0.585938L5.52734-4.0332L11.2891-4.0332L12.5488-0.585938Q12.6855-0.175781 12.9004-0.00976562Q13.1152 0.15625 13.4961 0.15625Q13.8867 0.15625 14.1162-0.0585938Q14.3457-0.273438 14.3457-0.644531Q14.3457-0.869141 14.2383-1.17188L9.6582-13.3691Q9.48242-13.8184 9.17969-14.043Q8.87695-14.2676 8.4082-14.2676Q7.5-14.2676 7.17773-13.3789L2.59766-1.16211Q2.49023-0.859375 2.49023-0.634766Q2.49023-0.263672 2.70996-0.0537109Q2.92969 0.15625 3.31055 0.15625ZM6.00586-5.51758L8.37891-12.0898L8.42773-12.0898L10.8008-5.51758Z"/>
  </g>
  <line style="fill:none;stroke:#00AEEF;stroke-width:0.5;opacity:1.0;" x1="793.197" x2="793.197" y1="1919" y2="1933"/>
  <text style="stroke:none;fill:black;font-family:sans-serif;font-size:13;font-weight:bold;" transform="matrix(1 0 0 1 776 1953)">Margins</text>
  <text style="stroke:none;fill:black;font-family:sans-serif;font-size:13;" transform="matrix(1 0 0 1 776 1971)">Leading and trailing margins on the left and right side of each symbol</text>
  <text style="stroke:none;fill:black;font-family:sans-serif;font-size:13;" transform="matrix(1 0 0 1 776 1989)">can be adjusted by modifying the x-location of the margin guidelines.</text>
  <text style="stroke:none;fill:black;font-family:sans-serif;font-size:13;" transform="matrix(1 0 0 1 776 2007)">Modifications are automatically applied proportionally to all</text>
  <text style="stroke:none;fill:black;font-family:sans-serif;font-size:13;" transform="matrix(1 0 0 1 776 2025)">scales and weights.</text>
  <g transform="matrix(1 0 0 1 1289 1933)">
   <path d="M2.8418 1.86523L4.54102 3.57422Q5.18555 4.22852 5.90332 4.17969Q6.62109 4.13086 7.31445 3.35938L18.0078-8.42773L17.041-9.4043L6.42578 2.27539Q6.16211 2.57812 5.89355 2.61719Q5.625 2.65625 5.27344 2.30469L4.10156 1.14258Q3.75 0.791016 3.79395 0.522461Q3.83789 0.253906 4.14062-0.0195312L15.6152-10.8203L14.6387-11.7871L3.04688-0.898438Q2.30469-0.214844 2.25098 0.498047Q2.19727 1.21094 2.8418 1.86523ZM9.25781-16.3281Q8.94531-16.0254 8.90625-15.6348Q8.86719-15.2441 9.04297-14.9512Q9.21875-14.6777 9.55566-14.541Q9.89258-14.4043 10.3809-14.5215Q11.4746-14.7754 12.5977-14.7314Q13.7207-14.6875 14.7949-13.9844L14.209-12.5293Q13.9551-11.9043 14.0674-11.4404Q14.1797-10.9766 14.5801-10.5664L16.875-8.25195Q17.2363-7.88086 17.5781-7.82227Q17.9199-7.76367 18.3398-7.8418L19.4043-8.03711L20.0684-7.36328L20.0293-6.80664Q20-6.43555 20.1221-6.12305Q20.2441-5.81055 20.6055-5.44922L21.3672-4.70703Q21.7285-4.3457 22.1533-4.33105Q22.5781-4.31641 22.9297-4.66797L25.8398-7.58789Q26.1914-7.93945 26.1816-8.35449Q26.1719-8.76953 25.8105-9.13086L25.0391-9.89258Q24.6875-10.2539 24.3799-10.3857Q24.0723-10.5176 23.7109-10.4883L23.1348-10.4395L22.4902-11.0742L22.7344-12.1973Q22.832-12.6172 22.6953-12.9834Q22.5586-13.3496 22.1191-13.7891L19.9219-15.9766Q18.6719-17.2168 17.2607-17.8369Q15.8496-18.457 14.4189-18.4814Q12.9883-18.5059 11.665-17.959Q10.3418-17.4121 9.25781-16.3281ZM10.752-15.957Q11.6602-16.6211 12.7002-16.9043Q13.7402-17.1875 14.8047-17.085Q15.8691-16.9824 16.8701-16.5137Q17.8711-16.0449 18.7012-15.2051L21.1328-12.793Q21.3086-12.6172 21.3525-12.4512Q21.3965-12.2852 21.3379-12.0312L21.0156-10.5469L22.5195-9.0625L23.5059-9.12109Q23.6914-9.13086 23.7891-9.09668Q23.8867-9.0625 24.0332-8.91602L24.6094-8.33984L22.168-5.89844L21.5918-6.47461Q21.4453-6.62109 21.4062-6.71875Q21.3672-6.81641 21.377-7.01172L21.4453-7.98828L19.9512-9.47266L18.4277-9.21875Q18.1836-9.16992 18.042-9.2041Q17.9004-9.23828 17.7148-9.41406L15.7129-11.416Q15.5176-11.5918 15.4932-11.7529Q15.4688-11.9141 15.5859-12.1875L16.4648-14.2773Q15.293-15.3711 13.8281-15.791Q12.3633-16.2109 10.8398-15.7617Q10.7227-15.7324 10.6885-15.8057Q10.6543-15.8789 10.752-15.957Z"/>
  </g>
  <text style="stroke:none;fill:black;font-family:sans-serif;font-size:13;font-weight:bold;" transform="matrix(1 0 0 1 1289 1953)">Exporting</text>
  <text style="stroke:none;fill:black;font-family:sans-serif;font-size:13;" transform="matrix(1 0 0 1 1289 1971)">Symbols should be outlined when exporting to ensure the</text>
  <text style="stroke:none;fill:black;font-family:sans-serif;font-size:13;" transform="matrix(1 0 0 1 1289 1989)">design is preserved when submitting to Xcode.</text>
  <text id="template-version" style="stroke:none;fill:black;font-family:sans-serif;font-size:13;text-anchor:end;" transform="matrix(1 0 0 1 3036 1933)">Template v.3.0</text>
  <text style="stroke:none;fill:black;font-family:sans-serif;font-size:13;text-anchor:end;" transform="matrix(1 0 0 1 3036 1951)">Requires Xcode 13 or greater</text>
  <text id="descriptive-name" style="stroke:none;fill:black;font-family:sans-serif;font-size:13;text-anchor:end;" transform="matrix(1 0 0 1 3036 1969)">Generated from hand.wave</text>
  <text style="stroke:none;fill:black;font-family:sans-serif;font-size:13;text-anchor:end;" transform="matrix(1 0 0 1 3036 1987)">Typeset at 100 points</text>
  <text style="stroke:none;fill:black;font-family:sans-serif;font-size:13;" transform="matrix(1 0 0 1 263 726)">Small</text>
  <text style="stroke:none;fill:black;font-family:sans-serif;font-size:13;" transform="matrix(1 0 0 1 263 1156)">Medium</text>
  <text style="stroke:none;fill:black;font-family:sans-serif;font-size:13;" transform="matrix(1 0 0 1 263 1586)">Large</text>
 </g>
 <g id="Guides">
  <g id="H-reference" style="fill:#27AAE1;stroke:none;" transform="matrix(1 0 0 1 339 696)">
   <path d="M0.993347 0L3.6377 0L29.3282-67.1326L30.0301-67.1326L30.0301-70.459L28.1227-70.459ZM11.6882-24.4797L46.9818-24.4797L46.2311-26.7288L12.4382-26.7288ZM55.1193 0L57.7637 0L30.6381-70.459L29.4327-70.459L29.4327-67.1326Z"/>
  </g>
  <line id="Baseline-S" style="fill:none;stroke:#27AAE1;opacity:1;stroke-width:0.5;" x1="263" x2="3036" y1="696" y2="696"/>
  <line id="Capline-S" style="fill:none;stroke:#27AAE1;opacity:1;stroke-width:0.5;" x1="263" x2="3036" y1="625.541" y2="625.541"/>
  <g id="H-reference" style="fill:#27AAE1;stroke:none;" transform="matrix(1 0 0 1 339 1126)">
   <path d="M0.993347 0L3.6377 0L29.3282-67.1326L30.0301-67.1326L30.0301-70.459L28.1227-70.459ZM11.6882-24.4797L46.9818-24.4797L46.2311-26.7288L12.4382-26.7288ZM55.1193 0L57.7637 0L30.6381-70.459L29.4327-70.459L29.4327-67.1326Z"/>
  </g>
  <line id="Baseline-M" style="fill:none;stroke:#27AAE1;opacity:1;stroke-width:0.5;" x1="263" x2="3036" y1="1126" y2="1126"/>
  <line id="Capline-M" style="fill:none;stroke:#27AAE1;opacity:1;stroke-width:0.5;" x1="263" x2="3036" y1="1055.54" y2="1055.54"/>
  <g id="H-reference" style="fill:#27AAE1;stroke:none;" transform="matrix(1 0 0 1 339 1556)">
   <path d="M0.993347 0L3.6377 0L29.3282-67.1326L30.0301-67.1326L30.0301-70.459L28.1227-70.459ZM11.6882-24.4797L46.9818-24.4797L46.2311-26.7288L12.4382-26.7288ZM55.1193 0L57.7637 0L30.6381-70.459L29.4327-70.459L29.4327-67.1326Z"/>
  </g>
  <line id="Baseline-L" style="fill:none;stroke:#27AAE1;opacity:1;stroke-width:0.5;" x1="263" x2="3036" y1="1556" y2="1556"/>
  <line id="Capline-L" style="fill:none;stroke:#27AAE1;opacity:1;stroke-width:0.5;" x1="263" x2="3036" y1="1485.54" y2="1485.54"/>
  <line id="left-margin-Regular-M" style="fill:none;stroke:#00AEEF;stroke-width:0.5;opacity:1.0;" x1="1394.16" x2="1394.16" y1="1030.79" y2="1150.12"/>
  <line id="right-margin-Regular-M" style="fill:none;stroke:#00AEEF;stroke-width:0.5;opacity:1.0;" x1="1505.53" x2="1505.53" y1="1030.79" y2="1150.12"/>
 </g>
 <g id="Symbols">
  <g id="Black-L" transform="matrix(1 0 0 1 2851.44 1556)">
   <path d="M135.449 18.7988Q149.756 4.49219 152.197-12.8662Q154.639-30.2246 145.166-50.1953L130.469-81.3477Q128.564-85.4492 125.684-88.1836Q122.559-91.3574 118.604-92.4805Q114.648-93.6035 110.645-92.6025Q106.641-91.6016 103.369-88.2812Q100.781-85.6934 99.7314-82.0312Q98.6816-78.3691 99.9512-74.707L100.781-72.5098Q100.928-72.2656 100.781-72.0703Q100.488-71.7773 100.244-72.0703L70.9473-101.416Q65.6738-106.641 59.0088-106.519Q52.3438-106.396 46.9727-101.025Q45.9961-100.049 45.2881-98.9258Q44.5801-97.8027 44.043-96.582Q39.4531-98.5352 34.8877-97.4854Q30.3223-96.4355 26.4648-92.627Q22.8027-89.0137 21.8018-84.3994Q20.8008-79.7852 22.5586-75.293Q21.5332-74.8535 20.5322-74.2188Q19.5312-73.584 18.7012-72.7539Q15.332-69.3848 14.1846-65.3809Q13.0371-61.377 14.0381-57.4219Q15.0391-53.4668 18.2129-50.293L19.8242-48.7305Q18.8477-48.3887 17.9199-47.8271Q16.9922-47.2656 16.2109-46.4844Q12.8418-43.1152 11.7676-38.9648Q10.6934-34.8145 11.8408-30.6641Q12.9883-26.5137 16.3574-23.1445L57.666 18.1641Q66.6016 27.0996 76.5381 31.5918Q86.4746 36.084 96.7041 36.1572Q106.934 36.2305 116.821 31.8848Q126.709 27.5391 135.449 18.7988ZM122.9 6.88477Q114.551 15.2344 105.225 17.8955Q95.8984 20.5566 86.4258 17.5049Q76.9531 14.4531 68.1641 5.71289L29.3945-33.1543Q28.6621-33.8379 28.6621-34.7656Q28.6621-35.6934 29.3945-36.377Q30.0293-37.0605 30.9814-37.085Q31.9336-37.1094 32.6172-36.4258L56.2012-12.793Q58.252-10.7422 61.1816-10.791Q64.1113-10.8398 66.1621-12.8906Q68.2129-14.9902 68.2617-17.8955Q68.3105-20.8008 66.2109-22.8516L30.6152-58.4961Q29.8828-59.1309 29.8828-60.0586Q29.8828-60.9863 30.6152-61.6699Q31.2988-62.4023 32.2266-62.4023Q33.1543-62.4023 33.8379-61.6699L66.9922-28.5645Q69.043-26.4648 71.9727-26.5381Q74.9023-26.6113 76.9531-28.6621Q79.0039-30.7129 79.0283-33.6182Q79.0527-36.5234 77.0508-38.5742L37.793-77.7832Q37.1094-78.5156 37.1094-79.3945Q37.1094-80.2734 37.793-81.0059Q38.5254-81.6895 39.4287-81.6895Q40.332-81.6895 41.0645-81.0547L78.0273-44.043Q80.0781-41.9922 83.0078-42.041Q85.9375-42.0898 87.9883-44.0918Q90.0391-46.1914 90.0879-49.1211Q90.1367-52.0508 88.0859-54.1016L57.1289-85.0098Q56.4453-85.6934 56.4209-86.5967Q56.3965-87.5 57.0801-88.2324Q57.7637-88.8672 58.7158-88.916Q59.668-88.9648 60.3516-88.2324L106.592-42.041Q109.326-39.3066 112.5-39.5508Q115.674-39.7949 117.822-42.041Q119.58-43.8477 120.264-46.46Q120.947-49.0723 119.824-52.0508L111.719-73.1445Q111.279-74.3164 111.743-75.1953Q112.207-76.0742 112.988-76.4648Q113.916-76.7578 114.746-76.4404Q115.576-76.123 116.113-75L130.42-43.1641Q135.107-32.7148 135.84-24.0723Q136.572-15.4297 133.325-7.86133Q130.078-0.292969 122.9 6.88477Z"/>
  </g>
  <g id="Heavy-L" transform="matrix(1 0 0 1 2557.39 1556)">
   <path d="M130.978 17.0929Q144.616 3.45535 146.925-13.1428Q149.234-29.7409 140.164-48.8472L125.513-79.8378Q123.736-83.6517 121.074-86.19Q118.156-89.1449 114.484-90.1699Q110.811-91.1949 107.106-90.2458Q103.402-89.2967 100.385-86.2411Q97.8889-83.7456 96.9543-80.1872Q96.0197-76.6289 97.3465-72.9553L99.1791-68.4303Q99.337-68.1396 99.1676-67.9214Q98.8632-67.617 98.5847-67.9329L67.4324-99.1226Q62.516-104.002 56.3984-103.92Q50.2808-103.838 45.3476-98.9052Q44.2787-97.8363 43.565-96.5805Q42.8513-95.3247 42.4408-93.9545Q38.0585-96.1609 33.6258-95.3533Q29.1931-94.5457 25.4738-90.8638Q21.9269-87.3543 21.1449-82.8609Q20.3629-78.3676 22.3854-74.0829Q21.1876-73.7473 20.0424-73.101Q18.8972-72.4548 17.9634-71.521Q14.8712-68.428 13.8275-64.7411Q12.7838-61.0542 13.7501-57.3929Q14.7163-53.7315 17.717-50.7423L20.1927-48.304Q18.9972-48.0659 17.868-47.4468Q16.7389-46.8277 15.8073-45.8969Q12.7151-42.804 11.739-38.9992Q10.7628-35.1944 11.8465-31.3667Q12.9303-27.5391 16.0805-24.3889L56.5941 16.1354Q65.2534 24.7948 74.8039 29.137Q84.3544 33.4793 94.1284 33.5583Q103.902 33.6372 113.3 29.5048Q122.698 25.3723 130.978 17.0929ZM120.1 6.78101Q111.889 14.9811 102.66 17.6018Q93.4319 20.2225 83.9882 17.1593Q74.5445 14.0961 65.686 5.28641L27.3544-33.12Q26.4145-34.0225 26.3916-35.1749Q26.3687-36.3274 27.2858-37.2185Q28.1281-38.0974 29.3221-38.1104Q30.5161-38.1233 31.4186-37.2208L54.7493-13.8535Q56.5926-12.0102 59.1648-12.0647Q61.7371-12.1193 63.5231-13.9046Q65.3206-15.7394 65.3809-18.2991Q65.4411-20.8588 63.5605-22.6906L28.3798-57.9086Q27.4513-58.7738 27.4223-59.9262Q27.3933-61.0786 28.3104-61.9698Q29.1901-62.886 30.3654-62.8803Q31.5407-62.8746 32.4432-61.9347L65.2176-29.1985Q67.0609-27.3178 69.6331-27.3911Q72.2054-27.4643 73.9914-29.2496Q75.7889-31.0585 75.8305-33.6124Q75.872-36.1664 74.0662-38.0096L35.3615-76.6769Q34.4589-77.6169 34.4357-78.7609Q34.4124-79.9049 35.2921-80.8212Q36.2091-81.6895 37.36-81.6605Q38.5109-81.6315 39.4508-80.7663L76.4137-43.7782Q78.2227-41.9579 80.7949-41.9949Q83.3672-42.0319 85.1875-43.8034Q86.9965-45.6497 87.0338-48.2281Q87.0712-50.8064 85.2623-52.6268L54.1557-83.6845Q53.2646-84.5871 53.2345-85.738Q53.2043-86.8889 54.084-87.8059Q54.9629-88.6482 56.1398-88.6681Q57.3166-88.6879 58.2191-87.7487L103.826-42.1791Q106.284-39.7217 109.118-39.9025Q111.951-40.0833 113.892-42.1104Q115.512-43.7553 116.109-46.1143Q116.706-48.4734 115.652-51.2672L107.57-72.2107Q107.027-73.6481 107.525-74.7402Q108.024-75.8324 109.047-76.3268Q110.217-76.7693 111.248-76.3195Q112.28-75.8698 112.955-74.4469L127.389-42.7605Q132.076-32.4379 132.774-23.8186Q133.472-15.1993 130.265-7.68852Q127.058-0.177765 120.1 6.78101Z"/>
  </g>
  <g id="Bold-L" transform="matrix(1 0 0 1 2263.65 1556)">
   <path d="M125.977 15.1855Q138.867 2.29492 141.028-13.4521Q143.188-29.1992 134.57-47.3389L119.971-78.1494Q118.335-81.6406 115.918-83.96Q113.232-86.6699 109.875-87.5854Q106.519-88.501 103.149-87.6099Q99.7803-86.7188 97.0459-83.96Q94.6533-81.5674 93.8477-78.125Q93.042-74.6826 94.4336-70.9961L97.3877-63.8672Q97.5586-63.5254 97.3633-63.2812Q97.0459-62.9639 96.7285-63.3057L63.501-96.5576Q58.9844-101.05 53.479-101.013Q47.9736-100.977 43.5303-96.5332Q42.3584-95.3613 41.6382-93.9575Q40.918-92.5537 40.6494-91.0156Q36.499-93.5059 32.2144-92.9688Q27.9297-92.4316 24.3652-88.8916Q20.9473-85.498 20.4102-81.1401Q19.873-76.7822 22.1924-72.7295Q20.8008-72.5098 19.4946-71.8506Q18.1885-71.1914 17.1387-70.1416Q14.3555-67.3584 13.4277-64.0259Q12.5-60.6934 13.4277-57.3608Q14.3555-54.0283 17.1631-51.2451L20.6055-47.8271Q19.165-47.7051 17.8101-47.0215Q16.4551-46.3379 15.3564-45.2393Q12.5732-42.4561 11.7065-39.0381Q10.8398-35.6201 11.853-32.1533Q12.8662-28.6865 15.7715-25.7812L55.3955 13.8672Q63.7451 22.2168 72.8638 26.3916Q81.9824 30.5664 91.2476 30.6519Q100.513 30.7373 109.363 26.8433Q118.213 22.9492 125.977 15.1855ZM116.968 6.66504Q108.911 14.6973 99.7925 17.2729Q90.6738 19.8486 81.2622 16.7725Q71.8506 13.6963 62.915 4.80957L25.0732-33.0811Q23.9014-34.2285 23.8525-35.6323Q23.8037-37.0361 24.9268-38.1592Q26.001-39.2578 27.4658-39.2578Q28.9307-39.2578 30.0781-38.1104L53.125-15.0391Q54.7363-13.4277 56.9092-13.4888Q59.082-13.5498 60.5713-15.0391Q62.085-16.5771 62.1582-18.75Q62.2314-20.9229 60.5957-22.5098L25.8789-57.251Q24.7314-58.374 24.6704-59.7778Q24.6094-61.1816 25.7324-62.3047Q26.8311-63.4277 28.2837-63.4155Q29.7363-63.4033 30.8838-62.2314L63.2324-29.9072Q64.8438-28.2715 67.0166-28.3447Q69.1895-28.418 70.6787-29.9072Q72.1924-31.4453 72.2534-33.606Q72.3145-35.7666 70.7275-37.3779L32.6416-75.4395Q31.4941-76.6113 31.4453-78.0518Q31.3965-79.4922 32.4951-80.6152Q33.6182-81.6895 35.0464-81.6284Q36.4746-81.5674 37.6465-80.4443L74.6094-43.4814Q76.1475-41.9189 78.3203-41.9434Q80.4932-41.9678 82.0557-43.4814Q83.5938-45.0439 83.6182-47.229Q83.6426-49.4141 82.1045-50.9766L50.8301-82.2021Q49.707-83.3496 49.6704-84.7778Q49.6338-86.2061 50.7324-87.3291Q51.8311-88.4033 53.2593-88.3911Q54.6875-88.3789 55.835-87.207L100.732-42.334Q102.881-40.1855 105.334-40.2954Q107.788-40.4053 109.497-42.1875Q110.962-43.6523 111.462-45.7275Q111.963-47.8027 110.986-50.3906L102.93-71.167Q102.271-72.9004 102.808-74.231Q103.345-75.5615 104.639-76.1719Q106.079-76.7822 107.336-76.1841Q108.594-75.5859 109.424-73.8281L123.999-42.3096Q128.687-32.1289 129.346-23.5352Q130.005-14.9414 126.843-7.49512Q123.682-0.0488281 116.968 6.66504Z"/>
  </g>
  <g id="Semibold-L" transform="matrix(1 0 0 1 1968.98 1556)">
   <path d="M122.528 13.8702Q134.904 1.49536 136.962-13.6654Q139.021-28.8261 130.714-46.299L116.149-76.9852Q114.611-80.2544 112.363-82.4226Q109.837-84.964 106.698-85.8036Q103.559-86.6432 100.421-85.7922Q97.2832-84.9411 94.7441-82.3868Q92.4225-80.0652 91.7057-76.7029Q90.9889-73.3406 92.4248-69.6449L96.1525-60.7208Q96.3326-60.3439 96.1189-60.0822Q95.7932-59.7557 95.4491-60.1151L60.7903-94.7891Q56.5491-99.015 51.466-99.0093Q46.3829-99.0036 42.2775-94.8982Q41.0339-93.6554 40.3095-92.1494Q39.5851-90.6433 39.4142-88.9893Q35.424-91.6748 31.2412-91.3246Q27.0584-90.9744 23.6008-87.532Q20.2721-84.2186 19.9036-79.9538Q19.5351-75.6889 22.0589-71.7964Q20.5345-71.6568 19.117-70.9885Q17.6994-70.3201 16.5703-69.191Q13.9999-66.6206 13.1523-63.5326Q12.3047-60.4446 13.2057-57.3387Q14.1068-54.2328 16.7809-51.5915L20.89-47.4983Q19.2802-47.4564 17.77-46.7281Q16.2598-45.9999 15.0452-44.7861Q12.4756-42.2157 11.6844-39.0644Q10.8932-35.9131 11.8576-32.6954Q12.822-29.4777 15.5579-26.741L54.5692 12.3032Q62.7052 20.4391 71.5263 24.4984Q80.3474 28.5576 89.2612 28.6476Q98.175 28.7376 106.647 25.008Q115.12 21.2784 122.528 13.8702ZM114.808 6.58493Q106.858 14.502 97.8149 17.0464Q88.7718 19.5908 79.3823 16.5058Q69.9928 13.4209 61.0046 4.48074L23.5001-33.0544Q22.1687-34.3704 22.102-35.9478Q22.0352-37.5252 23.3002-38.8077Q24.5346-40.0574 26.186-40.0486Q27.8374-40.0398 29.1542-38.7238L52.005-15.8569Q53.4569-14.4051 55.3539-14.4707Q57.251-14.5363 58.5365-15.8211Q59.8541-17.1547 59.9365-19.0609Q60.0189-20.9671 58.5518-22.3854L24.1547-56.7978Q22.8561-58.0986 22.773-59.6756Q22.6898-61.2526 23.9548-62.5359Q25.2045-63.8008 26.8482-63.7844Q28.492-63.768 29.8088-62.4359L61.8637-30.3963Q63.3148-28.9291 65.2122-29.0024Q67.1097-29.0756 68.3945-30.3604Q69.7128-31.7116 69.7872-33.6014Q69.8616-35.4912 68.4258-36.9423L30.7663-74.5865Q29.4502-75.9178 29.3835-77.5627Q29.3167-79.2076 30.5664-80.4733Q31.8321-81.6895 33.4515-81.6063Q35.0708-81.5231 36.4021-80.2223L73.365-43.277Q74.7169-41.8922 76.614-41.9079Q78.511-41.9235 79.8958-43.2594Q81.2477-44.6266 81.2634-46.5405Q81.279-48.4543 79.9271-49.839L48.5374-81.1798Q47.2542-82.4966 47.213-84.116Q47.1718-85.7353 48.4215-87.0003Q49.6712-88.2347 51.273-88.2Q52.8748-88.1653 54.1908-86.834L98.5992-42.4408Q100.535-40.5052 102.726-40.5663Q104.918-40.6273 106.467-42.2409Q107.825-43.5814 108.258-45.4609Q108.692-47.3404 107.769-49.7864L99.7307-70.4468Q98.9914-72.3846 99.5552-73.8796Q100.119-75.3746 101.599-76.0651Q103.226-76.7914 104.639-76.091Q106.052-75.3906 106.989-73.4016L121.661-41.9983Q126.349-31.9153 126.982-23.3395Q127.615-14.7636 124.484-7.36198Q121.353 0.0396729 114.808 6.58493Z"/>
  </g>
  <g id="Medium-L" transform="matrix(1 0 0 1 1673.83 1556)">
   <path d="M119.914 12.8731Q131.898 0.888824 133.879-13.8271Q135.86-28.5431 127.789-45.5109L113.251-76.1024Q111.788-79.203 109.668-81.2569Q107.263-83.67 104.289-84.4528Q101.315-85.2356 98.3524-84.4147Q95.3896-83.5938 92.9993-81.1943Q90.731-78.9268 90.0818-75.6248Q89.4325-72.3228 90.9019-68.6211L95.2156-58.3359Q95.4025-57.9315 95.1759-57.6561Q94.8425-57.3235 94.4786-57.6965L58.7349-93.4479Q54.7028-97.4716 49.9397-97.4895Q45.1767-97.5075 41.3269-93.6584Q40.0299-92.3615 39.3021-90.778Q38.5742-89.1945 38.4773-87.4527Q34.6085-90.287 30.5035-90.078Q26.3985-89.8689 23.0217-86.5005Q19.7594-83.2481 19.5194-79.0543Q19.2795-74.8604 21.9582-71.0892Q20.3323-71.0098 18.8309-70.335Q17.3294-69.6602 16.1385-68.47Q13.7306-66.0614 12.9433-63.1588Q12.1559-60.2562 13.0371-57.3219Q13.9183-54.3877 16.4909-51.8547L21.1052-47.2488Q19.368-47.2679 17.7395-46.5061Q16.111-45.7443 14.8094-44.442Q12.4016-42.0341 11.6676-39.085Q10.9337-36.1359 11.861-33.1066Q12.7884-30.0774 15.3961-27.4689L53.9421 11.1168Q61.9171 19.0918 70.5124 23.0633Q79.1077 27.0348 87.7556 27.1282Q96.4035 27.2217 104.589 23.6168Q112.775 20.0119 119.914 12.8731ZM113.171 6.52466Q105.302 14.3532 96.3158 16.8743Q87.3299 19.3954 77.9575 16.3036Q68.5852 13.2118 59.5558 4.23126L22.3076-33.0345Q20.8542-34.4788 20.7741-36.187Q20.694-37.8952 22.0673-39.2998Q23.423-40.6639 25.2159-40.6483Q27.0088-40.6326 28.4531-39.1884L51.1559-16.4764Q52.4864-15.1466 54.1748-15.2153Q55.8632-15.284 56.9931-16.4139Q58.1627-17.5926 58.2516-19.2966Q58.3405-21.0007 57.0015-22.2908L22.8477-56.4545Q21.4348-57.8896 21.3345-59.5982Q21.2341-61.3068 22.6074-62.7106Q23.9716-64.0839 25.7603-64.064Q27.549-64.0442 28.9932-62.5908L60.8261-30.7663Q62.1559-29.4281 63.8447-29.5013Q65.5334-29.5746 66.6634-30.7045Q67.8329-31.9138 67.9173-33.5979Q68.0016-35.2821 66.6809-36.6119L29.3449-73.9395Q27.8999-75.3929 27.8202-77.1927Q27.7405-78.9925 29.1046-80.365Q30.4771-81.6895 32.2414-81.5895Q34.0057-81.4896 35.4591-80.0537L72.422-43.1221Q73.632-41.8724 75.3204-41.8812Q77.0088-41.89 78.2585-43.0908Q79.4685-44.3092 79.4773-46.0178Q79.4861-47.7264 78.2761-48.9769L46.7987-80.4054Q45.3941-81.8497 45.3499-83.614Q45.3056-85.3783 46.6698-86.7508Q48.0339-88.1065 49.7669-88.055Q51.4999-88.0035 52.9442-86.5509L96.9826-42.5217Q98.7556-40.7478 100.748-40.7719Q102.741-40.7959 104.169-42.2813Q105.446-43.5272 105.829-45.2587Q106.213-46.9902 105.33-49.3279L97.3045-69.9013Q96.505-71.994 97.089-73.6137Q97.673-75.2335 99.295-75.9842Q101.064-76.7975 102.594-76.0197Q104.125-75.2419 105.142-73.0782L119.89-41.7625Q124.577-31.7535 125.19-23.1911Q125.802-14.6286 122.695-7.26051Q119.588 0.107574 113.171 6.52466Z"/>
  </g>
  <g id="Regular-L" transform="matrix(1 0 0 1 1379.14 1556)">
   <path d="M116.504 11.5723Q127.979 0.0976562 129.858-14.0381Q131.738-28.1738 123.975-44.4824L109.473-74.9512Q108.105-77.832 106.152-79.7363Q103.906-81.9824 101.147-82.6904Q98.3887-83.3984 95.6543-82.6172Q92.9199-81.8359 90.7227-79.6387Q88.5254-77.4414 87.9639-74.2188Q87.4023-70.9961 88.916-67.2852L93.9941-55.2246Q94.1895-54.7852 93.9453-54.4922Q93.6035-54.1504 93.2129-54.541L56.0547-91.6992Q52.2949-95.459 47.9492-95.5078Q43.6035-95.5566 40.0879-92.041Q38.7207-90.6738 37.9883-88.9893Q37.2559-87.3047 37.2559-85.4492Q33.5449-88.4766 29.541-88.4521Q25.5371-88.4277 22.2656-85.1562Q19.0918-81.9824 19.0186-77.8809Q18.9453-73.7793 21.8262-70.166Q20.0684-70.166 18.457-69.4824Q16.8457-68.7988 15.5762-67.5293Q13.3789-65.332 12.6709-62.6709Q11.9629-60.0098 12.8174-57.2998Q13.6719-54.5898 16.1133-52.1973L21.3867-46.9238Q19.4824-47.0215 17.7002-46.2158Q15.918-45.4102 14.502-43.9941Q12.3047-41.7969 11.6455-39.1113Q10.9863-36.4258 11.8652-33.6426Q12.7441-30.8594 15.1855-28.418L53.125 9.57031Q60.8887 17.334 69.1895 21.1914Q77.4902 25.0488 85.791 25.1465Q94.0918 25.2441 101.904 21.8018Q109.717 18.3594 116.504 11.5723ZM111.035 6.44531Q103.271 14.1602 94.3604 16.6504Q85.4492 19.1406 76.0986 16.04Q66.748 12.9395 57.666 3.90625L20.752-33.0078Q19.1406-34.6191 19.043-36.499Q18.9453-38.3789 20.459-39.9414Q21.9727-41.4551 23.9502-41.4307Q25.9277-41.4062 27.5391-39.7949L50.0488-17.2852Q51.2207-16.1133 52.6367-16.1865Q54.0527-16.2598 54.9805-17.1875Q55.957-18.1641 56.0547-19.6045Q56.1523-21.0449 54.9805-22.168L21.1426-56.0059Q19.5801-57.6172 19.458-59.4971Q19.3359-61.377 20.8496-62.9395Q22.3633-64.4531 24.3408-64.4287Q26.3184-64.4043 27.9297-62.793L59.4727-31.25Q60.6445-30.0781 62.0605-30.1514Q63.4766-30.2246 64.4043-31.1523Q65.3809-32.1777 65.4785-33.5938Q65.5762-35.0098 64.4043-36.1816L27.4902-73.0957Q25.8789-74.707 25.7812-76.709Q25.6836-78.7109 27.1973-80.2246Q28.7109-81.6895 30.6641-81.5674Q32.6172-81.4453 34.2285-79.834L71.1914-42.9199Q72.2168-41.8457 73.6328-41.8457Q75.0488-41.8457 76.123-42.8711Q77.1484-43.8965 77.1484-45.3369Q77.1484-46.7773 76.123-47.8516L44.5312-79.3945Q42.9688-81.0059 42.9199-82.959Q42.8711-84.9121 44.3848-86.4258Q45.8984-87.9395 47.8027-87.8662Q49.707-87.793 51.3184-86.1816L94.873-42.627Q96.4355-41.0645 98.1689-41.04Q99.9023-41.0156 101.172-42.334Q102.344-43.457 102.661-44.9951Q102.979-46.5332 102.148-48.7305L94.1406-69.1895Q93.2617-71.4844 93.8721-73.2666Q94.4824-75.0488 96.2891-75.8789Q98.2422-76.8066 99.9268-75.9277Q101.611-75.0488 102.734-72.6562L117.578-41.4551Q122.266-31.543 122.852-22.998Q123.438-14.4531 120.361-7.12891Q117.285 0.195312 111.035 6.44531Z"/>
  </g>
  <g id="Light-L" transform="matrix(1 0 0 1 1083.97 1556)">
   <path d="M113.824 10.3767Q124.876-0.65918 126.74-14.2803Q128.605-27.9015 121.281-43.2564L106.37-74.4972Q105.154-77.0905 103.307-78.8887Q101.242-80.9685 98.6725-81.6311Q96.1029-82.2937 93.5429-81.5727Q90.9828-80.8517 88.9061-78.7758Q86.8301-76.6998 86.3064-73.5832Q85.7826-70.4666 87.2963-66.8465L93.6157-52.0157Q93.8263-51.5457 93.5669-51.2375Q93.2251-50.8957 92.8345-51.3016L53.7842-90.3366Q50.1907-93.9301 46.1025-93.9941Q42.0143-94.0582 38.8016-90.8302Q37.4344-89.463 36.7092-87.7556Q35.984-86.0481 36.0603-84.1324Q32.5462-87.1902 28.6331-87.3096Q24.72-87.429 21.5393-84.2484Q18.4105-81.1195 18.4586-77.0557Q18.5066-72.9919 21.4325-69.5908Q19.5839-69.6663 17.9195-68.9751Q16.2552-68.2838 14.9406-66.9846Q12.8944-64.9231 12.2242-62.4058Q11.554-59.8885 12.3783-57.2998Q13.2027-54.7112 15.5533-52.3788L21.2654-46.682Q19.3161-46.8246 17.5415-46.0342Q15.7669-45.2438 14.3806-43.8431Q12.3199-41.7816 11.6909-39.2628Q11.0619-36.7439 11.903-34.1118Q12.7441-31.4796 15.11-29.1145L52.6405 8.45032Q60.3287 16.1385 68.4101 19.8444Q76.4915 23.5504 84.4818 23.5573Q92.4721 23.5641 99.929 20.1897Q107.386 16.8152 113.824 10.3767ZM109.597 6.35452Q102.015 13.9183 93.1492 16.5142Q84.2834 19.1101 74.8875 16.1457Q65.4915 13.1813 56.3339 4.04282L19.4351-32.8415Q17.5812-34.6947 17.4156-36.7867Q17.2501-38.8786 18.9606-40.6227Q20.6711-42.3485 22.8909-42.2859Q25.1106-42.2234 26.9638-40.3702L49.1409-18.1931Q50.2068-17.1272 51.3577-17.178Q52.5085-17.2287 53.2394-17.9596Q54.0344-18.7393 54.0867-19.8997Q54.1389-21.0602 53.0731-22.0924L19.5534-55.6122Q17.7338-57.4661 17.551-59.5654Q17.3683-61.6646 19.0788-63.4087Q20.7893-65.1192 23.0091-65.057Q25.2289-64.9948 27.0821-63.1409L58.3069-31.916Q59.3727-30.8502 60.524-30.8929Q61.6753-30.9357 62.4214-31.6818Q63.2011-32.4959 63.261-33.6391Q63.3209-34.7824 62.2551-35.849L25.8255-72.2786Q23.9716-74.1318 23.8209-76.4061Q23.6702-78.6804 25.3807-80.3909Q27.0607-82.0221 29.2637-81.8169Q31.4667-81.6116 33.3206-79.7585L69.799-43.3289Q70.6581-42.421 71.809-42.3378Q72.9599-42.2546 73.8831-43.1435Q74.7414-44.0025 74.6658-45.1855Q74.5903-46.3684 73.7312-47.261L42.4423-78.5164Q40.6227-80.3703 40.551-82.5729Q40.4793-84.7755 42.1898-86.4861Q43.9003-88.1966 46.0091-88.0402Q48.1178-87.8838 49.971-86.0306L93.132-42.8841Q94.5435-41.4581 96.1407-41.4867Q97.7379-41.5154 98.9166-42.7124Q99.9825-43.7599 100.262-45.1389Q100.542-46.5179 99.8024-48.3978L91.6428-68.5234Q90.5975-71.0907 91.2308-73.0999Q91.864-75.1091 93.8972-76.0605Q96.0472-77.079 97.9362-76.1017Q99.8253-75.1244 101.039-72.5502L116.186-40.8798Q120.631-31.543 121.232-23.1266Q121.833-14.7102 118.855-7.31049Q115.878 0.0892639 109.597 6.35452Z"/>
  </g>
  <g id="Thin-L" transform="matrix(1 0 0 1 789.305 1556)">
   <path d="M110.281 8.79517Q120.772-1.66016 122.617-14.6008Q124.461-27.5414 117.717-41.6351L102.266-73.8968Q101.25-76.1093 99.543-77.7679Q97.7188-79.6272 95.3995-80.2296Q93.0801-80.8319 90.7501-80.1914Q88.4201-79.5509 86.5044-77.6352Q84.5879-75.7187 84.1145-72.7421Q83.6411-69.7655 85.1547-66.2659L93.1152-47.7715Q93.3456-47.2618 93.0664-46.9337Q92.7246-46.5919 92.334-47.0177L50.7812-88.5353Q47.4083-91.9083 43.6604-91.9922Q39.9124-92.0761 37.0995-89.2288Q35.7323-87.8616 35.0174-86.1244Q34.3025-84.3872 34.4788-82.3906Q31.2248-85.4881 27.4319-85.7979Q23.6389-86.1076 20.578-83.0467Q17.5095-79.9789 17.7177-75.9651Q17.926-71.9513 20.9122-68.8301Q18.9438-69.0056 17.2092-68.3044Q15.4747-67.6033 14.0999-66.2636Q12.2543-64.3829 11.6341-62.0556Q11.0138-59.7282 11.7981-57.2998Q12.5824-54.8714 14.8125-52.6192L21.1052-46.3615Q19.0956-46.5645 17.3309-45.7939Q15.5663-45.0233 14.2204-43.6424Q12.3398-41.7618 11.7508-39.463Q11.1618-37.1643 11.953-34.7324Q12.7441-32.3006 15.0101-30.0354L52.0004 6.96869Q59.5879 14.5569 67.379 18.0626Q75.1701 21.5683 82.7503 21.455Q90.3305 21.3417 97.3167 18.0576Q104.303 14.7736 110.281 8.79517ZM107.696 6.23474Q100.354 13.5979 91.5482 16.3342Q82.7423 19.0704 73.2864 16.2861Q63.8306 13.5017 54.5723 4.22287L17.6933-32.621Q15.5197-34.7946 15.2637-37.167Q15.0078-39.5393 16.9785-41.5237Q18.9491-43.5295 21.4893-43.417Q24.0295-43.3044 26.2032-41.1308L47.9393-19.3947Q48.8655-18.4685 49.6662-18.4891Q50.4669-18.5097 50.9377-18.9804Q51.4923-19.5 51.4847-20.29Q51.4771-21.08 50.5508-21.9925L17.4515-55.0919Q15.2908-57.2655 15.0284-59.655Q14.7659-62.0445 16.7366-64.0289Q18.7073-65.9996 21.2471-65.8875Q23.7869-65.7753 25.9613-63.6017L56.7657-32.7965Q57.6912-31.871 58.4923-31.8741Q59.2934-31.8771 59.7992-32.383Q60.3188-32.9163 60.3283-33.6994Q60.3378-34.4826 59.4124-35.408L23.6229-71.1975Q21.4493-73.3711 21.2288-76.0059Q21.0083-78.6407 22.979-80.6114Q24.8787-82.4631 27.412-82.1476Q29.9454-81.8321 32.119-79.6585L67.9573-43.869Q68.5959-43.1816 69.3966-42.9882Q70.1973-42.7948 70.9198-43.5036Q71.5591-44.1429 71.3833-44.9856Q71.2074-45.8282 70.5688-46.4806L39.6797-77.3552Q37.5198-79.5296 37.4184-82.0625Q37.3169-84.5955 39.2876-86.5662Q41.2582-88.5368 43.6371-88.2702Q46.0159-88.0035 48.1895-85.8299L90.8302-43.2243Q92.041-41.9785 93.4582-42.0773Q94.8753-42.1761 95.9335-43.2129Q96.8597-44.1605 97.089-45.3293Q97.3183-46.4981 96.6995-47.9568L88.34-67.643Q87.0743-70.5704 87.7373-72.8798Q88.4003-75.1892 90.7349-76.3008Q93.145-77.4391 95.3041-76.3317Q97.4632-75.2243 98.7968-72.4098L114.344-40.1192Q118.469-31.543 119.09-23.2967Q119.711-15.0505 116.864-7.55081Q114.016-0.0511169 107.696 6.23474Z"/>
  </g>
  <g id="Ultralight-L" transform="matrix(1 0 0 1 493.64 1556)">
   <path d="M108.466 7.98492Q118.67-2.17285 120.504-14.7648Q122.338-27.3567 115.892-40.8043L100.164-73.5886Q99.2508-75.6073 97.6151-77.1935Q95.9145-78.9398 93.7233-79.5116Q91.5321-80.0835 89.32-79.4838Q87.1078-78.8841 85.2737-77.05Q83.4396-75.2167 82.9914-72.3118Q82.5432-69.4069 84.0569-65.9683L92.8589-45.5978Q93.1-45.0676 92.8101-44.7289Q92.4683-44.3871 92.0776-44.8235L49.2432-87.6122Q45.9831-90.873 42.4091-90.9672Q38.8351-91.0614 36.2282-88.4079Q34.861-87.0407 34.1511-85.2882Q33.4412-83.5358 33.6685-81.4987Q30.5481-84.6169 26.8166-85.0239Q23.085-85.4309 20.0859-82.4318Q17.0486-79.3938 17.3386-75.4059Q17.6285-71.418 20.6451-68.4402Q18.615-68.6676 16.8449-67.9611Q15.0749-67.2546 13.6688-65.8943Q11.9255-64.106 11.3312-61.8763Q10.7368-59.6466 11.5005-57.2998Q12.2643-54.953 14.4333-52.742L21.0236-46.1975Q18.9827-46.431 17.2234-45.6707Q15.464-44.9104 14.1388-43.5402Q12.3505-41.7511 11.7821-39.5653Q11.2137-37.3795 11.9789-35.0502Q12.7441-32.7209 14.9582-30.5069L51.6716 6.21033Q59.2087 13.7466 66.851 17.1501Q74.4934 20.5536 81.863 20.3785Q89.2326 20.2034 95.9782 16.9655Q102.724 13.7276 108.466 7.98492ZM106.721 6.17294Q99.5026 13.4338 90.7276 16.2418Q81.9527 19.0498 72.4659 16.3578Q62.9791 13.6658 53.6697 4.31519L16.8015-32.5081Q14.463-34.8465 14.1613-37.3619Q13.8596-39.8773 15.9637-41.9846Q18.0672-44.1345 20.7714-43.9964Q23.4756-43.8583 25.8133-41.5207L47.3244-20.0096Q48.1781-19.1559 48.7995-19.1608Q49.4209-19.1658 49.7581-19.503Q50.19-19.8898 50.1514-20.4903Q50.1129-21.0907 49.2592-21.9406L16.3742-54.8248Q14.0404-57.1632 13.7363-59.7015Q13.4323-62.2398 15.5365-64.3471Q17.6407-66.4513 20.3449-66.3132Q23.0492-66.1751 25.3868-63.8374L55.9761-33.2481Q56.8298-32.3936 57.4512-32.3761Q58.0727-32.3586 58.4557-32.7415Q58.8417-33.1314 58.8261-33.7299Q58.8104-34.3285 57.9559-35.183L22.4953-70.6436Q20.1576-72.9813 19.9009-75.8007Q19.6442-78.6201 21.7484-80.7243Q23.761-82.6881 26.4637-82.3166Q29.1664-81.945 31.5041-79.6066L67.0135-44.146Q67.5392-43.5715 68.1606-43.3216Q68.782-43.0717 69.4023-43.6882Q69.928-44.2146 69.701-44.883Q69.474-45.5513 68.9484-46.0808L38.2645-76.7609Q35.9299-79.0985 35.8131-81.8008Q35.6964-84.5032 37.8006-86.6074Q39.904-88.7115 42.4213-88.3884Q44.9387-88.0653 47.2771-85.7277L89.6507-43.399Q90.7593-42.2455 92.0841-42.3798Q93.409-42.514 94.4061-43.4692Q95.2599-44.3649 95.4636-45.4262Q95.6673-46.4874 95.1096-47.7318L86.6478-67.1913Q85.2699-70.3033 85.9482-72.7669Q86.6264-75.2304 89.1144-76.4236Q91.658-77.6237 93.9556-76.45Q96.2532-75.2762 97.6486-72.3381L113.4-39.7293Q117.361-31.543 117.993-23.3841Q118.624-15.2252 115.843-7.67403Q113.062-0.122833 106.721 6.17294Z"/>
  </g>
  <g id="Black-M" transform="matrix(1 0 0 1 2868.09 1126)">
   <path d="M107.959 7.71484Q119.434-3.80859 121.436-17.7246Q123.438-31.6406 115.918-47.5586L104.346-72.0703Q102.783-75.4395 100.439-77.6855Q96.6309-81.543 91.4062-81.7139Q86.1816-81.8848 82.0801-77.7832Q80.0293-75.7812 79.126-72.876Q78.2227-69.9707 79.1992-67.1875L79.3945-66.5527Q79.4922-66.3574 79.3945-66.2109Q79.1992-66.0156 79.0039-66.2109L57.2754-87.9883Q52.9297-92.2852 47.3877-92.1875Q41.8457-92.0898 37.4023-87.5977Q36.7188-86.9141 36.1816-86.1572Q35.6445-85.4004 35.1562-84.5703Q31.4941-85.8887 27.8564-84.9121Q24.2188-83.9355 21.1426-80.9082Q18.2617-78.0273 17.334-74.3652Q16.4062-70.7031 17.5781-67.0898Q16.0645-66.2598 14.9414-65.1855Q10.791-60.9863 10.6445-55.7373Q10.498-50.4883 14.4043-46.582L15.0391-45.9961Q14.4531-45.6543 13.916-45.2637Q13.3789-44.873 12.8906-44.3848Q10.1074-41.6016 9.2041-38.1592Q8.30078-34.7168 9.22852-31.25Q10.1562-27.7832 12.9395-25.0488L45.459 7.51953Q54.9805 16.9922 65.8691 20.166Q76.7578 23.3398 87.6465 20.2148Q98.5352 17.0898 107.959 7.71484ZM97.168-2.49023Q90.6738 4.00391 83.374 6.12793Q76.0742 8.25195 68.7012 5.95703Q61.3281 3.66211 54.541-3.07617L24.0723-33.5938Q23.6328-34.0332 23.6328-34.6191Q23.6328-35.2051 24.0723-35.6445Q24.5117-36.084 25.0977-36.084Q25.6836-36.084 26.1719-35.6445L44.5312-17.2852Q46.2891-15.5273 48.7549-15.5518Q51.2207-15.5762 52.9785-17.334Q54.7363-19.0918 54.7363-21.5332Q54.7363-23.9746 52.9785-25.7324L25.0977-53.6133Q24.6582-54.0527 24.6582-54.6143Q24.6582-55.1758 25.0977-55.6152Q25.5371-56.1035 26.123-56.1035Q26.709-56.1035 27.1973-55.6152L53.0762-29.7363Q54.834-27.9785 57.3242-28.0029Q59.8145-28.0273 61.5234-29.7852Q63.2812-31.543 63.2812-34.0088Q63.2812-36.4746 61.5723-38.1836L30.8594-68.8477Q30.4199-69.3359 30.4199-69.8975Q30.4199-70.459 30.8594-70.9473Q31.2988-71.3379 31.8848-71.3379Q32.4707-71.3379 32.9102-70.9473L61.4258-42.4316Q63.1836-40.6738 65.6494-40.7227Q68.1152-40.7715 69.873-42.4805Q71.6309-44.2383 71.6309-46.7041Q71.6309-49.1699 69.873-50.9277L46.1426-74.6582Q45.7031-75.0488 45.7031-75.6348Q45.7031-76.2207 46.0938-76.6602Q46.5332-77.0996 47.1436-77.124Q47.7539-77.1484 48.1934-76.6602L84.4238-40.5273Q86.7188-38.1836 89.4287-38.4277Q92.1387-38.6719 93.9453-40.5762Q95.4102-42.0898 95.9961-44.2871Q96.582-46.4844 95.6543-48.8281L89.3555-65.1855Q89.0625-65.9668 89.3799-66.5527Q89.6973-67.1387 90.1367-67.334Q90.7227-67.5293 91.2842-67.3584Q91.8457-67.1875 92.1387-66.5039L103.271-41.5527Q108.594-29.541 107.202-20.3613Q105.811-11.1816 97.168-2.49023Z"/>
  </g>
  <g id="Heavy-M" transform="matrix(1 0 0 1 2573.65 1126)">
   <path d="M104.144 6.2973Q115.066-4.66156 116.941-17.9493Q118.816-31.237 111.584-46.5096L100.151-70.6985Q98.6801-73.8373 96.521-75.9224Q92.9657-79.5143 88.1332-79.6276Q83.3008-79.7409 79.5448-75.9857Q77.5513-74.0295 76.7517-71.2048Q75.9521-68.38 76.9753-65.5739L77.8961-63.2454Q78.0052-63.015 77.8847-62.8571Q77.6779-62.6503 77.4483-62.8685L54.3137-86.0405Q50.2792-90.0375 45.2152-89.9746Q40.1512-89.9117 36.0771-85.788Q35.3012-85.0243 34.7584-84.1404Q34.2155-83.2565 33.831-82.2884Q30.3185-83.8371 26.796-83.0681Q23.2735-82.299 20.3247-79.3869Q17.524-76.5869 16.7923-73.0343Q16.0606-69.4817 17.4629-66.0294Q15.6723-65.3954 14.3425-64.0907Q10.5377-60.2486 10.4488-55.4432Q10.36-50.6378 14.0121-46.9856L15.4076-45.6276Q14.6263-45.3773 13.8874-44.9291Q13.1485-44.4809 12.5221-43.8545Q9.96933-41.3017 9.15222-38.1535Q8.33511-35.0052 9.21097-31.8321Q10.0868-28.6591 12.6625-26.1093L44.5137 5.77927Q53.6896 14.9178 64.106 17.9935Q74.5224 21.0693 84.8751 18.129Q95.2278 15.1886 104.144 6.2973ZM94.7365-2.58255Q88.3347 3.81927 81.1153 5.87997Q73.896 7.94067 66.5577 5.59959Q59.2194 3.25851 52.3972-3.52554L22.3663-33.5938Q21.7659-34.1942 21.7545-34.959Q21.743-35.7239 22.332-36.3129Q22.921-36.9019 23.6973-36.9019Q24.4736-36.9019 25.0999-36.3014L43.2983-18.1152Q44.8601-16.5413 47.0379-16.5771Q49.2157-16.613 50.7545-18.1519Q52.3163-19.7029 52.3335-21.8678Q52.3506-24.0326 50.7774-25.5943L23.2536-53.1296Q22.6532-53.73 22.6414-54.4758Q22.6295-55.2216 23.2193-55.7999Q23.8083-56.4262 24.5846-56.4262Q25.3609-56.4262 25.9987-55.7999L51.5778-30.2086Q53.1517-28.6469 55.3478-28.677Q57.5439-28.7071 59.0454-30.2574Q60.5957-31.8077 60.6133-33.9912Q60.6308-36.1748 59.1057-37.6999L28.8193-67.9489Q28.2188-68.5867 28.2131-69.3443Q28.2074-70.1019 28.7964-70.7169Q29.3739-71.2685 30.1502-71.257Q30.9265-71.2456 31.5269-70.694L60.1349-42.086Q61.6852-40.5243 63.863-40.5674Q66.0408-40.6105 67.5911-42.1234Q69.1528-43.6852 69.1647-45.8687Q69.1765-48.0522 67.6254-49.6025L43.676-73.5519Q43.0756-74.115 43.0756-74.8856Q43.0756-75.6561 43.6157-76.2451Q44.2055-76.8349 44.9944-76.8417Q45.7832-76.8486 46.3837-76.2222L82.0847-40.5968Q84.137-38.4949 86.5417-38.6757Q88.9465-38.8565 90.58-40.5647Q91.9182-41.9403 92.4351-43.9186Q92.952-45.8969 92.07-48.1369L85.8177-64.4135Q85.4439-65.4022 85.8017-66.1438Q86.1595-66.8854 86.7943-67.173Q87.5648-67.4713 88.2763-67.197Q88.9877-66.9228 89.4073-65.9851L100.586-41.2758Q105.989-29.2641 104.517-20.0962Q103.045-10.9283 94.7365-2.58255Z"/>
  </g>
  <g id="Bold-M" transform="matrix(1 0 0 1 2279.48 1126)">
   <path d="M99.8779 4.71191Q110.181-5.61523 111.914-18.2007Q113.647-30.7861 106.738-45.3369L95.459-69.165Q94.0918-72.0459 92.1387-73.9502Q88.8672-77.2461 84.4727-77.2949Q80.0781-77.3438 76.709-73.9746Q74.7803-72.0703 74.0967-69.3359Q73.4131-66.6016 74.4873-63.7695L76.2207-59.5459Q76.3428-59.2773 76.1963-59.1064Q75.9766-58.8867 75.708-59.1309L51.001-83.8623Q47.3145-87.5244 42.7856-87.5Q38.2568-87.4756 34.5947-83.7646Q33.7158-82.9102 33.1665-81.8848Q32.6172-80.8594 32.3486-79.7363Q29.0039-81.543 25.6104-81.0059Q22.2168-80.4688 19.4092-77.6855Q16.6992-74.9756 16.1865-71.5454Q15.6738-68.1152 17.334-64.8438Q15.2344-64.4287 13.6719-62.8662Q10.2539-59.4238 10.2295-55.1147Q10.2051-50.8057 13.5742-47.4365L15.8203-45.2148Q14.8193-45.0684 13.855-44.5557Q12.8906-44.043 12.1094-43.2617Q9.81445-40.9668 9.09424-38.147Q8.37402-35.3271 9.19189-32.4829Q10.0098-29.6387 12.3535-27.2949L43.457 3.83301Q52.2461 12.5977 62.1338 15.564Q72.0215 18.5303 81.7749 15.7959Q91.5283 13.0615 99.8779 4.71191ZM92.0166-2.68555Q85.7178 3.61328 78.5889 5.60303Q71.46 7.59277 64.1602 5.2002Q56.8604 2.80762 50-4.02832L20.459-33.5938Q19.6777-34.375 19.6533-35.3394Q19.6289-36.3037 20.3857-37.0605Q21.1426-37.8174 22.1313-37.8174Q23.1201-37.8174 23.9014-37.0361L41.9189-19.043Q43.2617-17.6758 45.1172-17.7246Q46.9727-17.7734 48.2666-19.0674Q49.6094-20.3857 49.646-22.2412Q49.6826-24.0967 48.3154-25.4395L21.1914-52.5879Q20.4102-53.3691 20.3857-54.3213Q20.3613-55.2734 21.1182-56.0059Q21.875-56.7871 22.8638-56.7871Q23.8525-56.7871 24.6582-56.0059L49.9023-30.7373Q51.2695-29.3945 53.1372-29.4312Q55.0049-29.4678 56.2744-30.7861Q57.5928-32.1045 57.6294-33.9722Q57.666-35.8398 56.3477-37.1582L26.5381-66.9434Q25.7568-67.749 25.7446-68.7256Q25.7324-69.7021 26.4893-70.459Q27.2217-71.1914 28.2104-71.167Q29.1992-71.1426 29.9805-70.4102L58.6914-41.6992Q60.0098-40.3564 61.8652-40.3931Q63.7207-40.4297 65.0391-41.7236Q66.3818-43.0664 66.4062-44.9341Q66.4307-46.8018 65.1123-48.1201L40.918-72.3145Q40.1367-73.0713 40.1367-74.0479Q40.1367-75.0244 40.8447-75.7812Q41.6016-76.5381 42.5903-76.5259Q43.5791-76.5137 44.3604-75.7324L79.4678-40.6738Q81.25-38.8428 83.313-38.9526Q85.376-39.0625 86.8164-40.5518Q88.0127-41.7725 88.4521-43.5059Q88.8916-45.2393 88.0615-47.3633L81.8604-63.5498Q81.3965-64.7705 81.7993-65.686Q82.2021-66.6016 83.0566-66.9922Q84.0332-67.4072 84.9121-67.0166Q85.791-66.626 86.3525-65.4053L97.583-40.9668Q103.076-28.9551 101.514-19.7998Q99.9512-10.6445 92.0166-2.68555Z"/>
  </g>
  <g id="Semibold-M" transform="matrix(1 0 0 1 1984.52 1126)">
   <path d="M96.936 3.61862Q106.812-6.27289 108.448-18.3739Q110.084-30.4749 103.397-44.5282L92.2241-68.1076Q90.9279-70.8107 89.1174-72.5906Q86.0413-75.6821 81.9489-75.6863Q77.8564-75.6905 74.7536-72.5883Q72.8699-70.7191 72.266-68.0473Q71.6621-65.3755 72.7722-62.5252L75.0656-56.9954Q75.1961-56.7001 75.032-56.5201Q74.8032-56.292 74.5079-56.5536L48.7167-82.3601Q45.2705-85.7918 41.1106-85.7937Q36.9507-85.7956 33.5724-82.3692Q32.6225-81.4529 32.069-80.3295Q31.5155-79.2061 31.3263-77.977Q28.0975-79.9614 24.7929-79.5841Q21.4882-79.2068 18.7782-76.5121Q16.1308-73.8647 15.7692-70.5189Q15.4076-67.173 17.2455-64.0259Q14.9323-63.7619 13.2095-62.0216Q10.0586-58.8554 10.0784-54.8882Q10.0983-50.9209 13.2721-47.7478L16.1049-44.9303Q14.9529-44.8547 13.8329-44.2978Q12.7129-43.7408 11.8248-42.8528Q9.70764-40.7356 9.05418-38.1424Q8.40073-35.5492 9.17854-32.9315Q9.95636-30.3139 12.1399-28.1128L42.7284 2.491Q51.2505 10.9978 60.7738 13.8885Q70.2972 16.7793 79.6375 14.1872Q88.9778 11.5952 96.936 3.61862ZM90.1413-2.7565Q83.9134 3.47137 76.8467 5.41191Q69.78 7.35245 62.5069 4.92439Q55.2338 2.49634 48.3467-4.37469L19.1437-33.5938Q18.2381-34.4994 18.2049-35.6014Q18.1717-36.7035 19.0437-37.5763Q19.9165-38.4483 21.0518-38.4483Q22.187-38.4483 23.0751-37.5427L40.9683-19.6831Q42.16-18.4578 43.7931-18.5154Q45.4262-18.573 46.5515-19.6983Q47.7432-20.8565 47.7932-22.4987Q47.8432-24.1409 46.6179-25.3326L19.7693-52.2148Q18.8637-53.1204 18.8305-54.2149Q18.7973-55.3093 19.6693-56.1478Q20.5421-57.0358 21.6774-57.0358Q22.8127-57.0358 23.7343-56.1478L48.7473-31.102Q49.9718-29.9103 51.6129-29.9511Q53.2539-29.9919 54.364-31.1508Q55.5222-32.309 55.5721-33.9588Q55.6221-35.6087 54.4456-36.7851L24.9649-66.2498Q24.0593-67.1715 24.0429-68.2991Q24.0265-69.4267 24.8985-70.2812Q25.7378-71.138 26.873-71.1048Q28.0083-71.0716 28.9139-70.2148L57.6958-41.433Q58.8547-40.2412 60.4877-40.2733Q62.1208-40.3053 63.2797-41.4482Q64.4714-42.6399 64.5046-44.2898Q64.5378-45.9396 63.3797-47.0978L39.016-71.4615Q38.1104-72.3511 38.1104-73.4699Q38.1104-74.5888 38.9343-75.4616Q39.8064-76.3336 40.9328-76.3081Q42.0593-76.2825 42.9649-75.3944L77.6634-40.7272Q79.2595-39.0831 81.0867-39.1438Q82.914-39.2044 84.2216-40.5426Q85.3203-41.6573 85.7063-43.2217Q86.0924-44.7861 85.2974-46.83L79.1321-62.9547Q78.6057-64.3349 79.0398-65.3706Q79.4739-66.4062 80.4794-66.8678Q81.5979-67.363 82.5924-66.8922Q83.5869-66.4215 84.2461-65.0055L95.5124-40.7532Q101.067-28.7415 99.4427-19.5953Q97.818-10.4492 90.1413-2.7565Z"/>
  </g>
  <g id="Medium-M" transform="matrix(1 0 0 1 1689.14 1126)">
   <path d="M94.706 2.79007Q104.259-6.77185 105.82-18.5055Q107.381-30.2391 100.863-43.9148L89.7713-67.3058Q88.5292-69.8738 86.8263-71.5591Q83.8982-74.4957 80.035-74.4667Q76.1719-74.4377 73.2712-71.537Q71.4211-69.6953 70.8778-67.0704Q70.3346-64.4455 71.4714-61.5822L74.1898-55.0613Q74.3271-54.7462 74.1493-54.5593Q73.9143-54.3243 73.5985-54.5998L46.9856-81.2218Q43.7202-84.4772 39.8399-84.4997Q35.9596-84.5222 32.798-81.3118Q31.794-80.3474 31.2366-79.1504Q30.6793-77.9533 30.5519-76.6426Q27.4101-78.7613 24.173-78.5057Q20.9358-78.2501 18.2999-75.6233Q15.699-73.0225 15.4522-69.7407Q15.2054-66.4589 17.1776-63.4064Q14.7034-63.2568 12.8593-61.3815Q9.90982-58.4236 9.96361-54.7161Q10.0174-51.0086 13.0432-47.9836L16.32-44.7151Q15.0536-44.693 13.8157-44.1025Q12.5778-43.512 11.6096-42.543Q9.62677-40.5609 9.02367-38.1393Q8.42056-35.7178 9.16824-33.2722Q9.91592-30.8266 11.9781-28.7323L42.1761 1.47324Q50.4959 9.78546 59.7431 12.6186Q68.9903 15.4518 78.017 12.9677Q87.0438 10.4836 94.706 2.79007ZM88.7199-2.81067Q82.5455 3.36304 75.526 5.26695Q68.5066 7.17087 61.2537 4.71573Q54.0009 2.26059 47.094-4.63791L18.1465-33.5938Q17.1463-34.594 17.1062-35.8006Q17.0662-37.0071 18.026-37.9669Q18.9865-38.9267 20.2332-38.9267Q21.4798-38.9267 22.448-37.9265L40.2473-20.1683Q41.3239-19.0506 42.7887-19.1151Q44.2535-19.1795 45.2507-20.1767Q46.328-21.2135 46.3882-22.694Q46.4485-24.1745 45.3308-25.2518L18.6913-51.9318Q17.691-52.932 17.651-54.134Q17.6109-55.336 18.5715-56.2561Q19.5312-57.2243 20.7779-57.2243Q22.0245-57.2243 23.0331-56.2561L47.8714-31.3782Q48.9883-30.3009 50.4574-30.3452Q51.9264-30.3894 52.9152-31.427Q53.952-32.4638 54.0119-33.9489Q54.0718-35.434 53.0037-36.5021L23.7724-65.7249Q22.7722-66.7336 22.7524-67.9756Q22.7325-69.2177 23.6923-70.1462Q24.6124-71.0976 25.8591-71.0575Q27.1057-71.0175 28.1052-70.0661L56.9412-41.2308Q57.9788-40.1535 59.4437-40.1821Q60.9085-40.2107 61.9453-41.2392Q63.0226-42.3164 63.0627-43.8011Q63.1027-45.2858 62.0651-46.3234L37.574-70.8145Q36.5738-71.8056 36.5738-73.032Q36.5738-74.2584 37.4855-75.219Q38.4453-76.1787 39.6763-76.1433Q40.9073-76.1078 41.9075-75.1389L76.2955-40.7677Q77.7496-39.2647 79.3987-39.2887Q81.0478-39.3127 82.254-40.5365Q83.2779-41.5695 83.6239-43.0058Q83.9699-44.442 83.2024-46.4256L77.0638-62.5031Q76.49-64.0045 76.9478-65.131Q77.4055-66.2575 78.5255-66.7732Q79.7516-67.3294 80.8338-66.798Q81.916-66.2666 82.6492-64.7018L93.9423-40.5914Q99.5445-28.5797 97.8729-19.4401Q96.2013-10.3004 88.7199-2.81067Z"/>
  </g>
  <g id="Regular-M" transform="matrix(1 0 0 1 1394.16 1126)">
   <path d="M91.7969 1.70898Q100.928-7.42188 102.393-18.6768Q103.857-29.9316 97.5586-43.1152L86.5723-66.2598Q85.4004-68.6523 83.8379-70.2148Q81.1035-72.9492 77.5391-72.876Q73.9746-72.8027 71.3379-70.166Q69.5312-68.3594 69.0674-65.7959Q68.6035-63.2324 69.7754-60.3516L73.0469-52.5391Q73.1934-52.1973 72.998-52.002Q72.7539-51.7578 72.4121-52.0508L44.7266-79.7363Q41.6992-82.7637 38.1836-82.8125Q34.668-82.8613 31.7871-79.9316Q30.7129-78.9062 30.1514-77.6123Q29.5898-76.3184 29.541-74.9023Q26.5137-77.1973 23.3643-77.0996Q20.2148-77.002 17.6758-74.4629Q15.1367-71.9238 15.0391-68.7256Q14.9414-65.5273 17.0898-62.5977Q14.4043-62.5977 12.4023-60.5469Q9.7168-57.8613 9.81445-54.4922Q9.91211-51.123 12.7441-48.291L16.6016-44.4336Q15.1855-44.4824 13.7939-43.8477Q12.4023-43.2129 11.3281-42.1387Q9.52148-40.332 8.98438-38.1348Q8.44727-35.9375 9.15527-33.7158Q9.86328-31.4941 11.7676-29.541L41.4551 0.146484Q49.5117 8.20312 58.3984 10.9619Q67.2852 13.7207 75.9033 11.377Q84.5215 9.0332 91.7969 1.70898ZM86.8652-2.88086Q80.7617 3.22266 73.8037 5.07812Q66.8457 6.93359 59.6191 4.44336Q52.3926 1.95312 45.459-4.98047L16.8457-33.5938Q15.7227-34.7168 15.6738-36.0596Q15.625-37.4023 16.6992-38.4766Q17.7734-39.5508 19.165-39.5508Q20.5566-39.5508 21.6309-38.4277L39.3066-20.8008Q40.2344-19.8242 41.4795-19.8975Q42.7246-19.9707 43.5547-20.8008Q44.4824-21.6797 44.5557-22.9492Q44.6289-24.2188 43.6523-25.1465L17.2852-51.5625Q16.1621-52.6855 16.1133-54.0283Q16.0645-55.3711 17.1387-56.3965Q18.2129-57.4707 19.6045-57.4707Q20.9961-57.4707 22.1191-56.3965L46.7285-31.7383Q47.7051-30.8105 48.9502-30.8594Q50.1953-30.9082 51.0254-31.7871Q51.9043-32.666 51.9775-33.9355Q52.0508-35.2051 51.123-36.1328L22.2168-65.0391Q21.0938-66.1621 21.0693-67.5537Q21.0449-68.9453 22.1191-69.9707Q23.1445-71.0449 24.5361-70.9961Q25.9277-70.9473 27.0508-69.873L55.957-40.9668Q56.8359-40.0391 58.0811-40.0635Q59.3262-40.0879 60.2051-40.9668Q61.1328-41.8945 61.1816-43.1641Q61.2305-44.4336 60.3516-45.3125L35.6934-69.9707Q34.5703-71.0938 34.5703-72.4609Q34.5703-73.8281 35.5957-74.9023Q36.6699-75.9766 38.0371-75.9277Q39.4043-75.8789 40.5273-74.8047L74.5117-40.8203Q75.7812-39.502 77.1973-39.4775Q78.6133-39.4531 79.6875-40.5273Q80.6152-41.4551 80.9082-42.7246Q81.2012-43.9941 80.4688-45.8984L74.3652-61.9141Q73.7305-63.5742 74.2188-64.8193Q74.707-66.0645 75.9766-66.6504Q77.3438-67.2852 78.54-66.6748Q79.7363-66.0645 80.5664-64.3066L91.8945-40.3809Q97.5586-28.3691 95.8252-19.2383Q94.0918-10.1074 86.8652-2.88086Z"/>
  </g>
  <g id="Light-M" transform="matrix(1 0 0 1 1098.83 1126)">
   <path d="M89.4051 0.649261Q98.1575-8.10318 99.6075-18.8889Q101.057-29.6745 95.1515-42.0105L83.802-65.8508Q82.7667-67.9863 81.3103-69.458Q78.788-71.965 75.4883-71.9147Q72.1886-71.8643 69.7182-69.3787Q68.0328-67.6933 67.5991-65.2283Q67.1654-62.7632 68.3372-59.9426L72.7142-49.6628Q72.8752-49.2912 72.6654-49.0959Q72.4213-48.8365 72.0795-49.1447L42.6979-78.5255Q39.8224-81.4011 36.5414-81.4499Q33.2603-81.4987 30.6366-78.8567Q29.5624-77.8168 29.0085-76.4999Q28.4546-75.1831 28.4813-73.7213Q25.6355-76.0468 22.562-76.0777Q19.4885-76.1086 17.025-73.6458Q14.5462-71.167 14.547-67.9989Q14.5477-64.8308 16.7572-62.0827Q13.9503-62.204 11.8423-60.0624Q9.35364-57.5737 9.43604-54.3861Q9.51843-51.1986 12.2597-48.4573L16.5108-44.2062Q15.0345-44.3008 13.6578-43.6813Q12.281-43.0618 11.2068-41.9876Q9.53674-40.3168 9.02977-38.2786Q8.5228-36.2404 9.19304-34.1396Q9.86328-32.0389 11.7073-30.1765L41.0164-0.867462Q48.9967 7.11365 57.5733 9.69048Q66.1499 12.2673 74.3443 9.90105Q82.5386 7.53479 89.4051 0.649261ZM85.5789-2.95639Q79.6265 2.9953 72.7215 4.94919Q65.8165 6.90308 58.5522 4.53415Q51.2878 2.16522 44.2635-4.85916L15.6647-33.4427Q14.3303-34.7771 14.2208-36.3091Q14.1113-37.841 15.3519-39.0968Q16.6077-40.3381 18.219-40.3076Q19.8303-40.2771 21.1311-38.9427L38.4895-21.6179Q39.341-20.7321 40.3442-20.7829Q41.3475-20.8336 42.0105-21.4973Q42.7414-22.1947 42.7921-23.2143Q42.8429-24.234 41.9571-25.0862L15.8623-51.2146Q14.5271-52.549 14.418-54.081Q14.3089-55.6129 15.5495-56.8207Q16.8053-58.0765 18.4162-58.046Q20.0272-58.0154 21.3623-56.7146L45.6993-32.3441Q46.5698-31.4919 47.5803-31.5254Q48.5909-31.559 49.2546-32.2563Q49.9519-32.9536 49.9947-33.9733Q50.0374-34.993 49.2004-35.8452L20.7336-64.2975Q19.3985-65.6326 19.3211-67.2737Q19.2436-68.9148 20.4994-70.137Q21.6766-71.3478 23.2876-71.2231Q24.8985-71.0983 26.2337-69.7975L54.7005-41.33Q55.4436-40.554 56.4541-40.5102Q57.4646-40.4663 58.2222-41.2239Q58.9836-41.9853 58.9642-43.0202Q58.9447-44.0552 58.2024-44.7975L33.8318-69.1681Q32.4966-70.5185 32.4589-72.105Q32.4211-73.6916 33.6433-74.9481Q34.8839-76.1887 36.4326-76.0792Q37.9814-75.9697 39.3166-74.6681L72.953-41.0477Q74.1013-39.8651 75.396-39.8785Q76.6907-39.8918 77.6741-40.8752Q78.511-41.7122 78.7663-42.8455Q79.0215-43.9789 78.3798-45.5956L72.1252-61.3235Q71.3692-63.2111 71.8651-64.6606Q72.361-66.1102 73.8426-66.8015Q75.3914-67.5423 76.7693-66.8335Q78.1471-66.1247 79.0527-64.2006L90.6532-39.8659Q95.9846-28.6263 94.4176-19.4275Q92.8505-10.2287 85.5789-2.95639Z"/>
  </g>
  <g id="Thin-M" transform="matrix(1 0 0 1 803.95 1126)">
   <path d="M86.2427-0.751495Q94.4946-9.00421 95.9244-19.1692Q97.3541-29.3343 91.9693-40.5487L80.1392-65.3107Q79.2831-67.1059 77.9671-68.457Q75.7248-70.6642 72.7757-70.6436Q69.8265-70.623 67.5766-68.338Q66.0507-66.8129 65.6574-64.4779Q65.2641-62.1429 66.436-59.4025L72.2733-45.8595Q72.4548-45.4475 72.2244-45.2522Q71.9803-44.973 71.6385-45.3011L40.0162-76.9241Q37.3398-79.5998 34.3693-79.6486Q31.3988-79.6974 29.1153-77.4353Q28.0411-76.3748 27.4971-75.0282Q26.9531-73.6816 27.0805-72.1603Q24.4743-74.5255 21.5008-74.7265Q18.5272-74.9275 16.1644-72.5647Q13.7657-70.166 13.8966-67.038Q14.0274-63.9099 16.3162-61.4021Q13.3499-61.6837 11.1015-59.4223Q8.87299-57.1938 8.93555-54.2461Q8.99811-51.2985 11.6196-48.6778L16.391-43.9064Q14.8338-44.0605 13.4773-43.4608Q12.1208-42.8612 11.0466-41.787Q9.55658-40.2969 9.08966-38.4689Q8.62274-36.6409 9.24301-34.7004Q9.86328-32.7599 11.6272-31.0173L40.4358-2.20871Q48.3162 5.67169 56.4823 8.00896Q64.6484 10.3462 72.2824 7.94945Q79.9164 5.55267 86.2427-0.751495ZM83.8768-3.05634Q78.125 2.69547 71.2902 4.77943Q64.4554 6.8634 57.1407 4.65431Q49.826 2.44522 42.6819-4.69894L14.1037-33.242Q12.4886-34.8572 12.299-36.6394Q12.1094-38.4216 13.5704-39.9178Q15.0665-41.3788 16.9678-41.3086Q18.869-41.2384 20.4704-39.6233L37.4084-22.699Q38.1599-21.9337 38.8428-21.954Q39.5256-21.9742 39.9689-22.4182Q40.4396-22.8752 40.4602-23.5645Q40.4808-24.2538 39.7148-25.0061L13.9809-50.7538Q12.3657-52.3689 12.1761-54.1512Q11.9865-55.9334 13.4476-57.3807Q14.9437-58.8768 16.8449-58.8066Q18.7462-58.7364 20.3613-57.135L44.3382-33.1444Q45.0684-32.3929 45.7687-32.4062Q46.4691-32.4196 46.9124-32.8766Q47.3694-33.3336 47.3724-34.0233Q47.3755-34.713 46.6583-35.4652L18.7714-63.3163Q17.1562-64.9315 17.009-66.9033Q16.8617-68.8751 18.3578-70.3575Q19.7342-71.7484 21.6358-71.5237Q23.5374-71.299 25.1526-69.6976L53.0396-41.8106Q53.6018-41.2346 54.3018-41.1007Q55.0018-40.9668 55.6-41.5642Q56.1409-42.1051 56.0314-42.8299Q55.9219-43.5547 55.3596-44.117L31.369-68.1076Q29.7539-69.7578 29.6661-71.6347Q29.5784-73.5115 31.0608-75.0076Q32.5218-76.4687 34.3109-76.2791Q36.1-76.0895 37.7151-74.4881L70.8908-41.3475Q71.8788-40.3458 73.0137-40.4091Q74.1486-40.4724 75.0122-41.3361Q75.7286-42.0525 75.9338-43.0058Q76.1391-43.959 75.6172-45.195L69.162-60.5431Q68.2465-62.7304 68.7523-64.4501Q69.2581-66.1697 71.0197-67.0021Q72.8088-67.8825 74.427-67.0437Q76.0452-66.2048 77.0508-64.0602L89.0121-39.1853Q93.9026-28.9665 92.556-19.6777Q91.2094-10.3889 83.8768-3.05634Z"/>
  </g>
  <g id="Ultralight-M" transform="matrix(1 0 0 1 508.178 1126)">
   <path d="M84.6222-1.46942Q92.6178-9.46503 94.0372-19.3123Q95.4567-29.1595 90.3381-39.8003L78.2623-65.0337Q77.4994-66.6542 76.2543-67.9443Q74.1562-69.9974 71.3863-69.9924Q68.6165-69.9875 66.4787-67.8047Q65.036-66.3612 64.6629-64.093Q64.2899-61.8248 65.4617-59.1255L72.0482-43.911Q72.2397-43.4784 71.9994-43.2831Q71.7552-42.9939 71.4134-43.3319L38.6414-76.1032Q36.0687-78.6766 33.2569-78.7254Q30.4451-78.7743 28.3363-76.7075Q27.2621-75.6371 26.7231-74.2748Q26.1841-72.9126 26.3626-71.36Q23.88-73.7465 20.9576-74.0345Q18.0351-74.3225 15.7234-72.0108Q13.3659-69.6533 13.5632-66.5459Q13.7604-63.4384 16.0912-61.0535Q13.0417-61.4166 10.7224-59.0935Q8.62732-56.9984 8.6792-54.1744Q8.73108-51.3504 11.2907-48.7907L16.3292-43.7523Q14.7316-43.9377 13.3854-43.3483Q12.0392-42.7589 10.965-41.6847Q9.56726-40.2863 9.12094-38.5658Q8.67462-36.8454 9.26895-34.9873Q9.86328-33.1291 11.586-31.4484L40.1382-2.89612Q47.9675 4.93393 55.9235 7.1476Q63.8794 9.36127 71.2261 6.94962Q78.5728 4.53796 84.6222-1.46942ZM83.0055-3.10822Q77.356 2.54135 70.557 4.69208Q63.7581 6.8428 56.4178 4.71573Q49.0776 2.58865 41.8716-4.61731L13.3034-33.1398Q11.5448-34.8984 11.3144-36.8088Q11.084-38.7192 12.6579-40.3381Q14.2769-41.9121 16.3269-41.8213Q18.3769-41.7305 20.1324-39.9719L36.8546-23.2529Q37.5549-22.5487 38.0737-22.554Q38.5925-22.5594 38.9229-22.8897Q39.2601-23.2239 39.2654-23.7442Q39.2708-24.2645 38.5666-24.9649L13.0165-50.518Q11.2579-52.2766 11.0275-54.187Q10.7971-56.0974 12.3703-57.6683Q13.99-59.2873 16.04-59.1965Q18.0901-59.1057 19.8486-57.3502L43.6409-33.5548Q44.2993-32.8537 44.8406-32.8571Q45.3819-32.8606 45.7123-33.1947Q46.0464-33.5289 46.0289-34.0492Q46.0114-34.5695 45.356-35.2699L17.7666-62.8143Q16.008-64.5729 15.8245-66.7137Q15.641-68.8545 17.26-70.4704Q18.7401-71.9528 20.7901-71.677Q22.8401-71.4012 24.5987-69.6457L52.1881-42.0563Q52.6581-41.5833 53.1994-41.4032Q53.7407-41.2231 54.2564-41.7389Q54.6844-42.1669 54.5292-42.7326Q54.3739-43.2983 53.9032-43.7683L30.1079-67.5636Q28.3493-69.368 28.2356-71.3936Q28.1219-73.4192 29.7379-75.0389Q31.3118-76.6121 33.2237-76.3817Q35.1357-76.1513 36.8942-74.3958L69.8341-41.5016Q70.7405-40.5914 71.7934-40.6807Q72.8462-40.77 73.6481-41.5718Q74.3034-42.2272 74.4827-43.0878Q74.662-43.9484 74.202-44.9905L67.6445-60.1433Q66.6466-62.4847 67.1574-64.3429Q67.6682-66.201 69.574-67.1043Q71.4859-68.0573 73.2269-67.1516Q74.968-66.246 76.0254-63.9885L88.1706-38.8367Q92.836-29.1412 91.6019-19.8059Q90.3679-10.4706 83.0055-3.10822Z"/>
  </g>
  <g id="Black-S" transform="matrix(1 0 0 1 2881.64 696)">
   <path d="M85.5957-1.2207Q94.7266-10.4004 96.3379-21.46Q97.9492-32.5195 91.9922-45.166L82.8613-64.502Q81.6406-67.1875 79.7363-68.9941Q76.6602-72.0703 72.4609-72.2412Q68.2617-72.4121 64.9902-69.0918Q63.3789-67.4805 62.6465-65.1855Q61.9141-62.8906 62.6465-60.7422L62.6465-60.5957Q62.6953-60.498 62.6465-60.3516Q62.5-60.2051 62.3535-60.3516L45.6543-77.0996Q42.1387-80.5664 37.6709-80.4688Q33.2031-80.3711 29.6387-76.7578Q28.7598-75.8789 27.8809-74.5117Q24.9512-75.4883 22.0703-74.6826Q19.1895-73.877 16.7969-71.4355Q14.4531-69.1895 13.6719-66.2842Q12.8906-63.3789 13.7695-60.498Q12.6465-59.8145 11.8652-58.9844Q8.49609-55.6152 8.37402-51.3916Q8.25195-47.168 11.377-43.9941L11.6699-43.75Q11.2305-43.457 10.8643-43.1885Q10.498-42.9199 10.2051-42.5781Q6.83594-39.209 6.83594-34.7412Q6.83594-30.2734 10.2051-26.9531L35.8887-1.26953Q43.4082 6.25 52.0752 8.76465Q60.7422 11.2793 69.4092 8.76465Q78.0762 6.25 85.5957-1.2207ZM76.8066-9.57031Q71.6797-4.44336 65.9424-2.75879Q60.2051-1.07422 54.4189-2.83203Q48.6328-4.58984 43.3105-9.91211L19.3359-33.9355Q18.9941-34.2285 18.9941-34.6436Q18.9941-35.0586 19.3359-35.4004Q19.6289-35.6934 20.0439-35.6934Q20.459-35.6934 20.8008-35.4004L35.2051-20.9473Q36.6211-19.5312 38.623-19.5557Q40.625-19.5801 42.0898-20.9961Q43.5059-22.4121 43.5059-24.4141Q43.5059-26.416 42.0898-27.832L20.166-49.7559Q19.8242-50.0488 19.8242-50.4639Q19.8242-50.8789 20.166-51.1719Q20.459-51.5137 20.874-51.5137Q21.2891-51.5137 21.6309-51.1719L41.9922-30.8105Q43.4082-29.3945 45.4102-29.4189Q47.4121-29.4434 48.877-30.8594Q50.2441-32.2754 50.2441-34.2773Q50.2441-36.2793 48.877-37.6953L24.707-61.8164Q24.4141-62.1582 24.4141-62.5488Q24.4141-62.9395 24.707-63.2812Q25-63.5742 25.415-63.5742Q25.8301-63.5742 26.1719-63.2812L48.4375-41.0156Q49.8535-39.5996 51.8555-39.624Q53.8574-39.6484 55.3223-41.0156Q56.7383-42.4316 56.7383-44.458Q56.7383-46.4844 55.3223-47.9004L36.8164-66.4062Q36.4746-66.6992 36.4746-67.0898Q36.4746-67.4805 36.7676-67.8223Q37.0605-68.1152 37.5-68.1396Q37.9395-68.1641 38.2324-67.8223L66.748-39.3555Q68.6523-37.4512 70.8496-37.6953Q73.0469-37.9395 74.5117-39.4531Q75.6836-40.6738 76.1719-42.4561Q76.6602-44.2383 75.9277-46.0938L70.9473-58.8867Q70.7031-59.4727 70.9473-59.8877Q71.1914-60.3027 71.5332-60.4492Q71.9238-60.5469 72.3145-60.4492Q72.7051-60.3516 72.9492-59.8633L81.6406-40.2344Q85.7422-30.8594 84.7168-23.6572Q83.6914-16.4551 76.8066-9.57031Z"/>
  </g>
  <g id="Heavy-S" transform="matrix(1 0 0 1 2586.69 696)">
   <path d="M82.6454-2.29263Q91.3498-11.0344 92.8516-21.6213Q94.3535-32.2083 88.604-44.4054L79.6341-63.3842Q78.4714-65.8966 76.7166-67.5766Q73.8251-70.4681 69.9314-70.5814Q66.0378-70.6947 63.031-67.6514Q61.454-66.0744 60.8082-63.8371Q60.1624-61.5997 60.9406-59.4055L61.4136-58.1413Q61.4738-58.0086 61.4021-57.8621Q61.2442-57.7042 61.0741-57.8735L43.3838-75.5898Q40.1222-78.8147 36.0348-78.746Q31.9473-78.6774 28.6591-75.3517Q27.5955-74.2882 26.8898-72.7142Q24.0753-73.8747 21.2811-73.2304Q18.4868-72.5861 16.1743-70.237Q13.9114-68.0489 13.2858-65.2355Q12.6602-62.4222 13.7238-59.6565Q12.3817-59.1118 11.4273-58.12Q8.33511-55.0278 8.25882-51.1555Q8.18253-47.2832 11.1122-44.3169L12.0041-43.4616Q11.4037-43.2495 10.8704-42.9234Q10.3371-42.5972 9.90524-42.1288Q6.81305-39.0358 6.83594-34.9541Q6.85883-30.8723 9.98611-27.7832L35.1395-2.62909Q42.3828 4.61349 50.6809 7.07054Q58.979 9.52759 67.2424 7.16858Q75.5058 4.80957 82.6454-2.29263ZM74.8932-9.63974Q69.8242-4.57001 64.1502-2.95448Q58.4763-1.33896 52.7248-3.15437Q46.9734-4.96979 41.6397-10.3043L18.0222-33.9584Q17.588-34.3666 17.5823-34.9087Q17.5766-35.4507 18.0222-35.8841Q18.4189-36.2923 18.9663-36.2923Q19.5137-36.2923 19.9593-35.8963L34.2598-21.5584Q35.5263-20.2805 37.315-20.3163Q39.1037-20.3522 40.3954-21.6072Q41.6618-22.8729 41.679-24.6674Q41.6962-26.4618 40.4305-27.7283L18.7714-49.3874Q18.3258-49.7841 18.3258-50.3315Q18.3258-50.8789 18.7599-51.2756Q19.1681-51.7212 19.7159-51.7212Q20.2637-51.7212 20.7092-51.2871L40.8516-31.1447Q42.1173-29.8782 43.9003-29.9088Q45.6833-29.9393 46.9872-31.1935Q48.2155-32.46 48.233-34.2545Q48.2506-36.0489 47.0215-37.3154L23.1628-61.1366Q22.7547-61.5822 22.7547-62.1052Q22.7547-62.6282 23.1514-63.0737Q23.5481-63.4705 24.1013-63.4705Q24.6544-63.4705 25.0885-63.0737L47.4922-40.67Q48.7587-39.4035 50.5474-39.4337Q52.3361-39.4638 53.64-40.6815Q54.9057-41.9479 54.9232-43.7611Q54.9408-45.5742 53.6743-46.8399L34.9495-65.5647Q34.5039-65.9615 34.5039-66.4906Q34.5039-67.0197 34.9007-67.4538Q35.3088-67.8619 35.8749-67.8806Q36.441-67.8993 36.8378-67.4538L64.9506-39.3784Q66.6588-37.6816 68.6138-37.8567Q70.5688-38.0318 71.8956-39.3951Q72.9752-40.5128 73.4058-42.1219Q73.8365-43.7309 73.127-45.5292L68.2159-58.3107Q67.926-59.0233 68.2045-59.5535Q68.483-60.0838 68.9514-60.2882Q69.4809-60.466 69.981-60.2879Q70.4811-60.1097 70.8054-59.4368L79.5082-40.0612Q83.7257-30.5946 82.6023-23.4154Q81.4789-16.2361 74.8932-9.63974Z"/>
  </g>
  <g id="Bold-S" transform="matrix(1 0 0 1 2291.94 696)">
   <path d="M79.3457-3.49121Q87.5732-11.7432 88.9526-21.8018Q90.332-31.8604 84.8145-43.5547L76.0254-62.1338Q74.9268-64.4531 73.3398-65.9912Q70.6543-68.6768 67.1021-68.7256Q63.5498-68.7744 60.8398-66.04Q59.3018-64.502 58.7524-62.3291Q58.2031-60.1562 59.0332-57.9102L60.0342-55.3955Q60.1074-55.2246 60.0098-55.0781Q59.8389-54.9072 59.6436-55.1025L40.8447-73.9014Q37.8662-76.8555 34.2041-76.8188Q30.542-76.7822 27.5635-73.7793Q26.2939-72.5098 25.7812-70.7031Q23.0957-72.0703 20.3979-71.6064Q17.7002-71.1426 15.4785-68.8965Q13.3057-66.7725 12.854-64.0625Q12.4023-61.3525 13.6719-58.7158Q12.085-58.3252 10.9375-57.1533Q8.1543-54.3701 8.12988-50.8911Q8.10547-47.4121 10.8154-44.6777L12.3779-43.1396Q11.5967-43.0176 10.8765-42.627Q10.1562-42.2363 9.57031-41.626Q6.78711-38.8428 6.83594-35.1929Q6.88477-31.543 9.74121-28.7109L34.3018-4.15039Q41.2354 2.7832 49.1211 5.17578Q57.0068 7.56836 64.8193 5.3833Q72.6318 3.19824 79.3457-3.49121ZM72.7539-9.7168Q67.749-4.71191 62.146-3.17383Q56.543-1.63574 50.8301-3.51562Q45.1172-5.39551 39.7705-10.7422L16.5527-33.9844Q16.0156-34.5215 16.0034-35.2051Q15.9912-35.8887 16.5527-36.4258Q17.0654-36.9629 17.7612-36.9629Q18.457-36.9629 19.0186-36.4502L33.2031-22.2412Q34.3018-21.1182 35.8521-21.167Q37.4023-21.2158 38.501-22.29Q39.5996-23.3887 39.6362-24.9512Q39.6729-26.5137 38.5742-27.6123L17.2119-48.9746Q16.6504-49.4873 16.6504-50.1831Q16.6504-50.8789 17.1875-51.3916Q17.7246-51.9531 18.4204-51.9531Q19.1162-51.9531 19.6777-51.416L39.5752-31.5186Q40.6738-30.4199 42.2119-30.4565Q43.75-30.4932 44.873-31.5674Q45.9473-32.666 45.9839-34.2285Q46.0205-35.791 44.9463-36.8896L21.4355-60.376Q20.8984-60.9375 20.8984-61.6089Q20.8984-62.2803 21.4111-62.8418Q21.9238-63.3545 22.6318-63.3545Q23.3398-63.3545 23.877-62.8418L46.4355-40.2832Q47.5342-39.1846 49.0845-39.2212Q50.6348-39.2578 51.7578-40.3076Q52.8564-41.4062 52.8931-42.981Q52.9297-44.5557 51.8311-45.6543L32.8613-64.624Q32.2998-65.1367 32.2998-65.8203Q32.2998-66.5039 32.8125-67.041Q33.3496-67.5781 34.0576-67.5903Q34.7656-67.6025 35.2783-67.041L62.9395-39.4043Q64.4287-37.9395 66.1133-38.0371Q67.7979-38.1348 68.9697-39.3311Q69.9463-40.332 70.3125-41.748Q70.6787-43.1641 69.9951-44.8975L65.1611-57.666Q64.8193-58.5205 65.1367-59.1797Q65.4541-59.8389 66.0645-60.1074Q66.748-60.376 67.3706-60.1074Q67.9932-59.8389 68.4082-58.96L77.124-39.8682Q81.4697-30.2979 80.2368-23.1445Q79.0039-15.9912 72.7539-9.7168Z"/>
  </g>
  <g id="Semibold-S" transform="matrix(1 0 0 1 1996.59 696)">
   <path d="M77.0706-4.31747Q84.9693-12.2322 86.2644-21.9261Q87.5595-31.62 82.2014-42.968L73.5367-61.2717Q72.4831-63.4575 71.0114-64.8979Q68.4677-67.4416 65.1512-67.4458Q61.8347-67.45 59.3292-64.9292Q57.8178-63.4178 57.3349-61.2892Q56.852-59.1606 57.7179-56.8794L59.0836-53.5027Q59.1652-53.3051 59.05-53.1586Q58.8699-52.9785 58.6571-53.1921L39.0938-72.7371Q36.3113-75.5043 32.9422-75.4902Q29.5731-75.4761 26.8082-72.6952Q25.3967-71.2837 25.0168-69.3169Q22.4205-70.826 19.7891-70.4865Q17.1577-70.1469 14.9986-67.9726Q12.8883-65.8928 12.5565-63.2538Q12.2246-60.6148 13.636-58.0673Q11.8805-57.7827 10.5995-56.4865Q8.02994-53.9169 8.041-50.7088Q8.05206-47.5006 10.611-44.9265L12.6358-42.9176Q11.7302-42.8574 10.881-42.4225Q10.0319-41.9876 9.33914-41.2796Q6.76956-38.7093 6.83594-35.3573Q6.90231-32.0053 9.5726-29.351L33.7242-5.19943Q40.4442 1.5213 48.0457 3.86925Q55.6473 6.21719 63.1485 4.1523Q70.6497 2.0874 77.0706-4.31747ZM71.2784-9.7702Q66.3185-4.80957 60.7643-3.32489Q55.2101-1.84021 49.5239-3.76434Q43.8377-5.68848 38.4819-11.0443L15.5396-34.0019Q14.9315-34.6283 14.9147-35.4095Q14.8979-36.1908 15.5396-36.7989Q16.1324-37.4252 16.9304-37.4252Q17.7284-37.4252 18.3701-36.8324L32.4745-22.7119Q33.4572-21.6957 34.8431-21.7533Q36.2289-21.8109 37.1948-22.7608Q38.1775-23.7442 38.2275-25.1469Q38.2774-26.5495 37.2948-27.5322L16.1369-48.69Q15.4953-49.2828 15.4953-50.0809Q15.4953-50.8789 16.1034-51.4717Q16.729-52.1133 17.527-52.1133Q18.325-52.1133 18.9667-51.5045L38.6955-31.7764Q39.6782-30.793 41.0477-30.8342Q42.4171-30.8754 43.4158-31.8253Q44.3832-32.8079 44.4332-34.2106Q44.4832-35.6133 43.5158-36.5967L20.2446-59.8518Q19.619-60.4935 19.619-61.2667Q19.619-62.0399 20.211-62.6816Q20.8038-63.2744 21.6187-63.2744Q22.4335-63.2744 23.0415-62.6816L45.7069-40.0169Q46.6896-39.0335 48.0755-39.0747Q49.4614-39.1159 50.4601-40.0497Q51.4435-41.0332 51.4935-42.4435Q51.5434-43.8538 50.56-44.8364L31.4217-63.9755Q30.78-64.5683 30.78-65.3584Q30.78-66.1484 31.3728-66.7564Q31.9984-67.3828 32.8045-67.3904Q33.6105-67.3981 34.2033-66.7564L61.5532-39.4218Q62.8914-38.1172 64.3894-38.1615Q65.8875-38.2057 66.9525-39.2868Q67.8581-40.2077 68.1797-41.4902Q68.5013-42.7727 67.8352-44.4618L63.0547-57.222Q62.6778-58.1741 63.0219-58.9222Q63.3659-59.6703 64.0739-59.9831Q64.8643-60.3134 65.5712-59.9827Q66.2781-59.6519 66.7549-58.6311L75.4799-39.7346Q79.9149-30.0934 78.6064-22.958Q77.298-15.8226 71.2784-9.7702Z"/>
  </g>
  <g id="Medium-S" transform="matrix(1 0 0 1 1700.9 696)">
   <path d="M75.3456-4.94461Q82.9948-12.6022 84.2258-22.0203Q85.4568-31.4384 80.2208-42.5232L71.6499-60.6178Q70.6299-62.7029 69.2459-64.0694Q66.8106-66.5047 63.6723-66.4753Q60.5339-66.4459 58.1833-64.0869Q56.6925-62.5954 56.2603-60.5007Q55.8281-58.4061 56.7207-56.0974L58.3626-52.0676Q58.4511-51.8494 58.3221-51.7029Q58.136-51.5167 57.9094-51.7433L37.7663-71.8544Q35.1318-74.4804 31.9855-74.4827Q28.8391-74.485 26.2352-71.8727Q24.7154-70.3537 24.4377-68.2655Q21.9078-69.883 19.3275-69.6377Q16.7473-69.3924 14.6347-67.2714Q12.571-65.2252 12.3302-62.6404Q12.0895-60.0555 13.6093-57.5752Q11.7256-57.3723 10.3439-55.9814Q7.93533-53.5736 7.97348-50.5711Q8.01163-47.5685 10.4561-45.1149L12.8311-42.749Q11.8309-42.7361 10.8841-42.2676Q9.93729-41.7992 9.16443-41.0164Q6.75583-38.6086 6.83594-35.482Q6.91605-32.3555 9.44443-29.8363L33.2863-5.99442Q39.8445 0.564575 47.2301 2.87895Q54.6158 5.19333 61.8816 3.21922Q69.1475 1.24512 75.3456-4.94461ZM70.1599-9.81064Q65.2336-4.88358 59.7164-3.43933Q54.1992-1.99509 48.5332-3.95317Q42.8673-5.91125 37.5046-11.2732L14.7713-34.0157Q14.109-34.7092 14.0892-35.5644Q14.0694-36.4197 14.7713-37.0819Q15.4251-37.7754 16.3006-37.7754Q17.1761-37.7754 17.878-37.1223L31.9221-23.069Q32.8171-22.1336 34.0786-22.1981Q35.3401-22.2626 36.2038-23.1178Q37.0995-24.0135 37.1597-25.2949Q37.22-26.5762 36.3243-27.4719L15.3214-48.4749Q14.6194-49.128 14.6194-50.0034Q14.6194-50.8789 15.2809-51.532Q15.9744-52.2346 16.8499-52.2346Q17.7254-52.2346 18.428-51.5724L38.028-31.9717Q38.9236-31.076 40.1649-31.1207Q41.4062-31.1653 42.3103-32.0206Q43.1969-32.9163 43.2571-34.1972Q43.3174-35.4782 42.4309-36.3739L19.342-59.4543Q18.6485-60.1562 18.6485-61.0073Q18.6485-61.8584 19.3016-62.5603Q19.9547-63.2141 20.8504-63.2141Q21.7461-63.2141 22.4083-62.5603L45.1546-39.8148Q46.0495-38.9191 47.311-38.9633Q48.5725-39.0076 49.4766-39.8544Q50.3723-40.7501 50.4322-42.0357Q50.4921-43.3212 49.5964-44.2169L30.3299-63.4834Q29.628-64.1365 29.628-65.0078Q29.628-65.8791 30.2811-66.5413Q30.9746-67.234 31.8546-67.2386Q32.7347-67.2432 33.3878-66.5413L60.5019-39.4356Q61.7256-38.2523 63.0821-38.2561Q64.4386-38.2599 65.4228-39.2532Q66.2743-40.1131 66.5623-41.2949Q66.8503-42.4767 66.198-44.1315L61.4578-56.8848Q61.0535-57.9109 61.4178-58.7265Q61.7821-59.5421 62.5641-59.8885Q63.4354-60.2669 64.2063-59.8888Q64.9773-59.5108 65.5022-58.3817L74.2332-39.6339Q78.7354-29.9385 77.3697-22.8165Q76.004-15.6944 70.1599-9.81064Z"/>
  </g>
  <g id="Regular-S" transform="matrix(1 0 0 1 1405.53 696)">
   <path d="M73.0957-5.76172Q80.4199-13.0859 81.5674-22.1436Q82.7148-31.2012 77.6367-41.9434L69.1895-59.7656Q68.2129-61.7188 66.9434-62.9883Q64.6484-65.2832 61.7432-65.21Q58.8379-65.1367 56.6895-62.9883Q55.2246-61.5234 54.8584-59.4727Q54.4922-57.4219 55.4199-55.0781L57.4219-50.1953Q57.5195-49.9512 57.373-49.8047Q57.1777-49.6094 56.9336-49.8535L36.0352-70.7031Q33.5938-73.1445 30.7373-73.1689Q27.8809-73.1934 25.4883-70.8008Q23.8281-69.1406 23.6816-66.8945Q21.2402-68.6523 18.7256-68.5303Q16.2109-68.4082 14.1602-66.3574Q12.1582-64.3555 12.0361-61.8408Q11.9141-59.3262 13.5742-56.9336Q11.5234-56.8359 10.0098-55.3223Q7.8125-53.125 7.88574-50.3906Q7.95898-47.6562 10.2539-45.3613L13.0859-42.5293Q11.9629-42.5781 10.8887-42.0654Q9.81445-41.5527 8.93555-40.6738Q6.73828-38.4766 6.83594-35.6445Q6.93359-32.8125 9.27734-30.4688L32.7148-7.03125Q39.0625-0.683594 46.167 1.58691Q53.2715 3.85742 60.2295 2.00195Q67.1875 0.146484 73.0957-5.76172ZM68.7012-9.86328Q63.8184-4.98047 58.3496-3.58887Q52.8809-2.19727 47.2412-4.19922Q41.6016-6.20117 36.2305-11.5723L13.7695-34.0332Q13.0371-34.8145 13.0127-35.7666Q12.9883-36.7188 13.7695-37.4512Q14.502-38.2324 15.4785-38.2324Q16.4551-38.2324 17.2363-37.5L31.2012-23.5352Q31.9824-22.7051 33.0811-22.7783Q34.1797-22.8516 34.9121-23.584Q35.6934-24.3652 35.7666-25.4883Q35.8398-26.6113 35.0586-27.3926L14.2578-48.1934Q13.4766-48.9258 13.4766-49.9023Q13.4766-50.8789 14.209-51.6113Q14.9902-52.3926 15.9668-52.3926Q16.9434-52.3926 17.7246-51.6602L37.1582-32.2266Q37.9395-31.4453 39.0137-31.4941Q40.0879-31.543 40.8691-32.2754Q41.6504-33.0566 41.7236-34.1797Q41.7969-35.3027 41.0156-36.084L18.1641-58.9355Q17.3828-59.7168 17.3828-60.6689Q17.3828-61.6211 18.1152-62.4023Q18.8477-63.1348 19.8486-63.1348Q20.8496-63.1348 21.582-62.4023L44.4336-39.5508Q45.2148-38.7695 46.3135-38.8184Q47.4121-38.8672 48.1934-39.5996Q48.9746-40.3809 49.0479-41.5039Q49.1211-42.627 48.3398-43.4082L28.9062-62.8418Q28.125-63.5742 28.125-64.5508Q28.125-65.5273 28.8574-66.2598Q29.6387-67.041 30.6152-67.041Q31.5918-67.041 32.3242-66.2598L59.1309-39.4531Q60.2051-38.4277 61.377-38.3789Q62.5488-38.3301 63.4277-39.209Q64.209-39.9902 64.4531-41.04Q64.6973-42.0898 64.0625-43.7012L59.375-56.4453Q58.9355-57.5684 59.3262-58.4717Q59.7168-59.375 60.5957-59.7656Q61.5723-60.2051 62.4268-59.7656Q63.2812-59.3262 63.8672-58.0566L72.6074-39.502Q77.1973-29.7363 75.7568-22.6318Q74.3164-15.5273 68.7012-9.86328Z"/>
  </g>
  <g id="Light-S" transform="matrix(1 0 0 1 1110.06 696)">
   <path d="M70.9763-6.71539Q77.9678-13.6917 79.1-22.3328Q80.2322-30.9738 75.5028-40.9592L66.7221-59.4025Q65.8821-61.1435 64.6881-62.3222Q62.6053-64.4051 59.9346-64.3547Q57.2639-64.3044 55.2513-62.2917Q53.8925-60.9329 53.5492-58.9653Q53.2059-56.9977 54.1336-54.7302L57.119-47.6524Q57.2319-47.3778 57.0702-47.216Q56.8748-47.0207 56.6307-47.2649L34.2339-69.6281Q31.929-71.9337 29.2767-71.9658Q26.6243-71.9978 24.4591-69.8318Q22.7531-68.1267 22.728-65.8501Q20.4529-67.6384 18.0065-67.6296Q15.5602-67.6208 13.5849-65.6311Q11.6287-63.6742 11.5974-61.19Q11.5662-58.7059 13.2713-56.4796Q11.1145-56.488 9.51004-54.8836Q7.47986-52.8679 7.54547-50.2922Q7.61108-47.7165 9.81522-45.5124L12.9951-42.3325Q11.8416-42.4118 10.7674-41.914Q9.69315-41.4162 8.8295-40.5525Q6.79855-38.5368 6.88896-35.9016Q6.97937-33.2664 9.21707-31.0287L32.3212-7.92465Q38.5933-1.65253 45.4254 0.45166Q52.2575 2.55585 58.8448 0.692749Q65.432-1.17035 70.9763-6.71539ZM67.5507-9.92355Q62.8197-5.19257 57.3887-3.70255Q51.9577-2.21252 46.2875-4.10843Q40.6174-6.00433 35.1555-11.4662L12.7251-33.8966Q11.7805-34.8747 11.7107-35.9936Q11.6409-37.1124 12.574-38.0112Q13.4575-38.929 14.6309-38.9061Q15.8043-38.8832 16.7824-37.9539L30.4749-24.2615Q31.1798-23.5222 32.0667-23.5729Q32.9536-23.6237 33.535-24.2043Q34.1492-24.8192 34.1999-25.7229Q34.2506-26.6266 33.5449-27.3323L12.986-47.8752Q12.0232-48.8197 11.9629-49.9554Q11.9026-51.091 12.8014-51.9897Q13.7337-52.9221 14.9071-52.8996Q16.0805-52.877 17.0433-51.9325L36.2198-32.756Q36.9408-32.0511 37.8029-32.0847Q38.665-32.1182 39.2952-32.6996Q39.9094-33.329 39.9601-34.2251Q40.0108-35.1212 39.3051-35.8269L16.8472-58.2848Q15.8691-59.2476 15.8237-60.4267Q15.7784-61.6058 16.6771-62.5389Q17.5461-63.4071 18.7363-63.3392Q19.9265-63.2713 20.8557-62.3421L43.3289-39.8689Q43.9735-39.2235 44.8677-39.2117Q45.7619-39.1998 46.4073-39.827Q47.0673-40.4716 47.0798-41.383Q47.0924-42.2943 46.4325-42.939L27.2415-62.1307Q26.2787-63.0745 26.2558-64.2403Q26.2329-65.406 27.1164-66.3055Q28.0495-67.2379 29.1847-67.1772Q30.32-67.1165 31.2645-66.1537L57.7538-39.6652Q58.7067-38.7459 59.7725-38.7348Q60.8383-38.7238 61.6264-39.5119Q62.3474-40.2176 62.5538-41.1537Q62.7602-42.0898 62.2162-43.4441L57.3921-55.9158Q56.8314-57.2655 57.2296-58.3431Q57.6279-59.4208 58.6884-59.9022Q59.8312-60.4324 60.8448-59.9094Q61.8584-59.3864 62.5198-57.9659L71.5027-39.048Q75.8049-29.9637 74.5083-22.7909Q73.2117-15.6181 67.5507-9.92355Z"/>
  </g>
  <g id="Thin-S" transform="matrix(1 0 0 1 814.976 696)">
   <path d="M68.174-7.97653Q74.7246-14.492 75.8369-22.583Q76.9493-30.674 72.6799-39.6584L63.459-58.9218Q62.7991-60.3828 61.705-61.4418Q59.9022-63.2439 57.542-63.2236Q55.1819-63.2034 53.3501-61.3708Q52.1309-60.1524 51.8173-58.2951Q51.5038-56.4377 52.4315-54.2694L56.7184-44.2894Q56.852-43.9751 56.6696-43.7935Q56.4743-43.5982 56.2302-43.8423L31.852-68.2068Q29.7264-70.3323 27.3449-70.3743Q24.9634-70.4163 23.098-68.5509Q21.3318-66.7854 21.4668-64.4691Q19.4122-66.2971 17.0559-66.4387Q14.6996-66.5802 12.8242-64.6698Q10.9276-62.7731 11.0165-60.3291Q11.1053-57.885 12.8708-55.8792Q10.5743-56.0272 8.84933-54.303Q7.03888-52.5276 7.09457-50.1621Q7.15027-47.7966 9.23462-45.713L12.8754-42.0723Q11.6814-42.1913 10.6071-41.7137Q9.53293-41.2361 8.68912-40.3923Q6.87866-38.6169 6.95877-36.2419Q7.03888-33.8669 9.13696-31.7696L31.8008-9.10568Q37.973-2.9335 44.4447-1.0498Q50.9163 0.833893 57.0129-1.03912Q63.1096-2.91214 68.174-7.97653ZM66.0294-10.0037Q61.4983-5.47256 56.1172-3.85246Q50.7362-2.23236 45.0264-3.98827Q39.3166-5.74417 33.7341-11.3258L11.3441-33.7166Q10.1196-34.9548 9.98955-36.2938Q9.85947-37.6328 10.9924-38.752Q12.0766-39.8499 13.5101-39.7968Q14.9437-39.7438 16.1819-38.5544L29.5135-25.2228Q30.1193-24.6033 30.7259-24.6239Q31.3324-24.6445 31.7131-25.0252Q32.1075-25.4196 32.1281-26.033Q32.1487-26.6464 31.543-27.2522L11.3045-47.4548Q10.1021-48.6794 9.96132-50.0252Q9.82056-51.371 10.9398-52.4902Q12.0728-53.6232 13.5063-53.5706Q14.9399-53.5179 16.1423-52.2926L34.9785-33.4572Q35.6194-32.8514 36.2015-32.8651Q36.7836-32.8789 37.2131-33.2596Q37.6076-33.6891 37.6282-34.285Q37.6488-34.8808 37.043-35.4866L15.1054-57.4242Q13.8672-58.6273 13.7619-60.1067Q13.6566-61.586 14.7758-62.719Q15.8241-63.7672 17.2646-63.6093Q18.705-63.4514 19.8944-62.262L41.8671-40.2893Q42.3325-39.8239 42.9562-39.7324Q43.5799-39.6408 44.0453-40.1268Q44.545-40.5914 44.4778-41.2224Q44.4107-41.8533 43.9102-42.3187L25.0389-61.1893Q23.8358-62.4138 23.7831-63.8298Q23.7305-65.2458 24.8146-66.3651Q25.9476-67.498 27.293-67.3573Q28.6385-67.2165 29.8637-66.0133L55.9319-39.9452Q56.7245-39.1663 57.6504-39.2052Q58.5762-39.2441 59.2445-39.9124Q59.8846-40.5174 60.041-41.3036Q60.1974-42.0898 59.7733-43.1038L54.7699-55.2147Q54.0489-56.8649 54.4571-58.1726Q54.8653-59.4803 56.1661-60.0822Q57.5294-60.7323 58.7532-60.0994Q59.977-59.4666 60.7384-57.8461L70.0409-38.4476Q73.9632-30.2635 72.8565-23.0007Q71.7499-15.7379 66.0294-10.0037Z"/>
  </g>
  <g id="Ultralight-S" transform="matrix(1 0 0 1 519.1 696)">
   <path d="M66.7381-8.62274Q73.0637-14.9025 74.1657-22.7112Q75.2678-30.5199 71.2341-38.9915L61.7874-58.6761Q61.2198-59.993 60.1776-60.9901Q58.5182-62.6495 56.3168-62.6442Q54.1153-62.6389 52.3758-60.8994Q51.2283-59.7527 50.9304-57.9514Q50.6325-56.1501 51.5602-54.0337L56.514-42.5667Q56.6566-42.2318 56.4651-42.0395Q56.2698-41.8442 56.0257-42.0883L30.6313-67.4789Q28.5988-69.5114 26.3554-69.5587Q24.1119-69.606 22.4007-67.8947Q20.6039-66.098 20.8206-63.7611Q18.8789-65.6097 16.5688-65.8283Q14.2586-66.0469 12.4344-64.1777Q10.569-62.3123 10.7193-59.8885Q10.8696-57.4646 12.6663-55.571Q10.2974-55.7915 8.51135-54.0054Q6.81381-52.3529 6.86417-50.0954Q6.91452-47.8378 8.93707-45.8153L12.8136-41.9388Q11.5997-42.0784 10.5255-41.6111Q9.45129-41.1438 8.6174-40.3107Q6.91986-38.6581 6.99501-36.4166Q7.07016-34.1751 9.09576-32.1487L31.5338-9.71069Q37.6549-3.58963 43.9419-1.81885Q50.2289-0.0480652 56.0745-1.92604Q61.9202-3.80402 66.7381-8.62274ZM65.2504-10.0449Q60.8215-5.616 55.4661-3.92952Q50.1106-2.24304 44.3802-3.92685Q38.6497-5.61066 33.0063-11.2541L10.6361-33.6243Q9.26819-34.996 9.10759-36.4479Q8.94699-37.8998 10.1822-39.1312Q11.3686-40.3214 12.9356-40.2531Q14.5027-40.1848 15.8737-38.8626L29.0215-25.7149Q29.5753-25.1572 30.0385-25.1621Q30.5016-25.1671 30.78-25.4456Q31.0616-25.7278 31.0665-26.1925Q31.0715-26.6571 30.5176-27.211L10.4431-47.2397Q9.11713-48.6076 8.93555-50.061Q8.75397-51.5144 9.98611-52.7466Q11.2213-53.9818 12.788-53.9139Q14.3547-53.846 15.6815-52.4773L34.343-33.8158Q34.9426-33.2619 35.3809-33.2653Q35.8192-33.2687 36.1465-33.5472Q36.4281-33.8737 36.4334-34.3159Q36.4388-34.758 35.8841-35.3119L14.2136-56.9832Q12.8418-58.3092 12.7056-59.9422Q12.5694-61.5753 13.8016-62.8113Q14.9422-63.9519 16.5108-63.7478Q18.0794-63.5437 19.4023-62.2208L41.1186-40.5045Q41.4909-40.1321 41.9765-39.999Q42.4622-39.8659 42.8352-40.2809Q43.2533-40.6532 43.1446-41.1407Q43.0359-41.6283 42.6186-42.0006L23.9113-60.7079Q22.5853-62.0758 22.517-63.62Q22.4487-65.1642 23.6351-66.3963Q24.8703-67.6315 26.3237-67.45Q27.7771-67.2684 29.1458-65.9416L54.9988-40.0887Q55.7098-39.3814 56.5636-39.4463Q57.4173-39.5111 58.0238-40.1169Q58.6235-40.6715 58.7543-41.3807Q58.8852-42.0898 58.5228-42.9291L53.4264-54.8561Q52.6237-56.6605 53.0369-58.086Q53.45-59.5116 54.8744-60.1746Q56.3499-60.8864 57.6813-60.1971Q59.0126-59.5078 59.8259-57.7843L69.2924-38.1393Q73.0194-30.4176 72.0104-23.1087Q71.0014-15.7997 65.2504-10.0449Z"/>
  </g>
 </g>
</svg>
