<?xml version="1.0" encoding="UTF-8"?>
<!--Generator: Apple Native CoreSVG 175.5-->
<!DOCTYPE svg
PUBLIC "-//W3C//DTD SVG 1.1//EN"
       "http://www.w3.org/Graphics/SVG/1.1/DTD/svg11.dtd">
<svg version="1.1" xmlns="http://www.w3.org/2000/svg" xmlns:xlink="http://www.w3.org/1999/xlink" width="3300" height="2200">
 <!--glyph: "uni10157D.medium", point size: 100.0, font version: "18.0d12e2", template writer version: "101"-->
 <g id="Notes">
  <rect height="2200" id="artboard" style="fill:white;opacity:1" width="3300" x="0" y="0"/>
  <line style="fill:none;stroke:black;opacity:1;stroke-width:0.5;" x1="263" x2="3036" y1="292" y2="292"/>
  <text style="stroke:none;fill:black;font-family:sans-serif;font-size:13;font-weight:bold;" transform="matrix(1 0 0 1 263 322)">Weight/Scale Variations</text>
  <text style="stroke:none;fill:black;font-family:sans-serif;font-size:13;text-anchor:middle;" transform="matrix(1 0 0 1 559.711 322)">Ultralight</text>
  <text style="stroke:none;fill:black;font-family:sans-serif;font-size:13;text-anchor:middle;" transform="matrix(1 0 0 1 856.422 322)">Thin</text>
  <text style="stroke:none;fill:black;font-family:sans-serif;font-size:13;text-anchor:middle;" transform="matrix(1 0 0 1 1153.13 322)">Light</text>
  <text style="stroke:none;fill:black;font-family:sans-serif;font-size:13;text-anchor:middle;" transform="matrix(1 0 0 1 1449.84 322)">Regular</text>
  <text style="stroke:none;fill:black;font-family:sans-serif;font-size:13;text-anchor:middle;" transform="matrix(1 0 0 1 1746.56 322)">Medium</text>
  <text style="stroke:none;fill:black;font-family:sans-serif;font-size:13;text-anchor:middle;" transform="matrix(1 0 0 1 2043.27 322)">Semibold</text>
  <text style="stroke:none;fill:black;font-family:sans-serif;font-size:13;text-anchor:middle;" transform="matrix(1 0 0 1 2339.98 322)">Bold</text>
  <text style="stroke:none;fill:black;font-family:sans-serif;font-size:13;text-anchor:middle;" transform="matrix(1 0 0 1 2636.69 322)">Heavy</text>
  <text style="stroke:none;fill:black;font-family:sans-serif;font-size:13;text-anchor:middle;" transform="matrix(1 0 0 1 2933.4 322)">Black</text>
  <line style="fill:none;stroke:black;opacity:1;stroke-width:0.5;" x1="263" x2="3036" y1="1903" y2="1903"/>
  <g transform="matrix(1 0 0 1 263 1933)">
   <path d="M9.24805 0.830078C13.5547 0.830078 17.1387-2.74414 17.1387-7.05078C17.1387-11.3574 13.5449-14.9316 9.23828-14.9316C4.94141-14.9316 1.36719-11.3574 1.36719-7.05078C1.36719-2.74414 4.95117 0.830078 9.24805 0.830078ZM9.24805-0.654297C5.70312-0.654297 2.87109-3.49609 2.87109-7.05078C2.87109-10.6055 5.69336-13.4473 9.23828-13.4473C12.793-13.4473 15.6445-10.6055 15.6445-7.05078C15.6445-3.49609 12.8027-0.654297 9.24805-0.654297ZM5.6543-7.05078C5.6543-6.62109 5.95703-6.32812 6.40625-6.32812L8.50586-6.32812L8.50586-4.20898C8.50586-3.76953 8.79883-3.4668 9.22852-3.4668C9.67773-3.4668 9.9707-3.76953 9.9707-4.20898L9.9707-6.32812L12.0898-6.32812C12.5293-6.32812 12.832-6.62109 12.832-7.05078C12.832-7.49023 12.5293-7.79297 12.0898-7.79297L9.9707-7.79297L9.9707-9.90234C9.9707-10.3516 9.67773-10.6543 9.22852-10.6543C8.79883-10.6543 8.50586-10.3516 8.50586-9.90234L8.50586-7.79297L6.40625-7.79297C5.95703-7.79297 5.6543-7.49023 5.6543-7.05078Z"/>
  </g>
  <g transform="matrix(1 0 0 1 281.867 1933)">
   <path d="M11.709 2.91016C17.1582 2.91016 21.6699-1.61133 21.6699-7.05078C21.6699-12.5 17.1484-17.0117 11.6992-17.0117C6.25977-17.0117 1.74805-12.5 1.74805-7.05078C1.74805-1.61133 6.26953 2.91016 11.709 2.91016ZM11.709 1.25C7.09961 1.25 3.41797-2.44141 3.41797-7.05078C3.41797-11.6602 7.08984-15.3516 11.6992-15.3516C16.3086-15.3516 20.0098-11.6602 20.0098-7.05078C20.0098-2.44141 16.3184 1.25 11.709 1.25ZM7.17773-7.05078C7.17773-6.57227 7.50977-6.25 8.00781-6.25L10.8789-6.25L10.8789-3.36914C10.8789-2.88086 11.2109-2.53906 11.6895-2.53906C12.1777-2.53906 12.5195-2.87109 12.5195-3.36914L12.5195-6.25L15.4004-6.25C15.8887-6.25 16.2305-6.57227 16.2305-7.05078C16.2305-7.53906 15.8887-7.88086 15.4004-7.88086L12.5195-7.88086L12.5195-10.752C12.5195-11.25 12.1777-11.5918 11.6895-11.5918C11.2109-11.5918 10.8789-11.25 10.8789-10.752L10.8789-7.88086L8.00781-7.88086C7.50977-7.88086 7.17773-7.53906 7.17773-7.05078Z"/>
  </g>
  <g transform="matrix(1 0 0 1 305.646 1933)">
   <path d="M14.9707 5.66406C21.9336 5.66406 27.6953-0.0976562 27.6953-7.05078C27.6953-14.0137 21.9238-19.7754 14.9609-19.7754C8.00781-19.7754 2.25586-14.0137 2.25586-7.05078C2.25586-0.0976562 8.01758 5.66406 14.9707 5.66406ZM14.9707 3.84766C8.93555 3.84766 4.08203-1.01562 4.08203-7.05078C4.08203-13.0957 8.92578-17.9492 14.9609-17.9492C21.0059-17.9492 25.8691-13.0957 25.8691-7.05078C25.8691-1.01562 21.0156 3.84766 14.9707 3.84766ZM9.19922-7.05078C9.19922-6.5332 9.57031-6.17188 10.1172-6.17188L14.0625-6.17188L14.0625-2.2168C14.0625-1.67969 14.4336-1.29883 14.9512-1.29883C15.4883-1.29883 15.8594-1.66992 15.8594-2.2168L15.8594-6.17188L19.8145-6.17188C20.3516-6.17188 20.7324-6.5332 20.7324-7.05078C20.7324-7.59766 20.3613-7.96875 19.8145-7.96875L15.8594-7.96875L15.8594-11.9141C15.8594-12.4609 15.4883-12.8418 14.9512-12.8418C14.4336-12.8418 14.0625-12.4609 14.0625-11.9141L14.0625-7.96875L10.1172-7.96875C9.57031-7.96875 9.19922-7.59766 9.19922-7.05078Z"/>
  </g>
  <text style="stroke:none;fill:black;font-family:sans-serif;font-size:13;font-weight:bold;" transform="matrix(1 0 0 1 263 1953)">Design Variations</text>
  <text style="stroke:none;fill:black;font-family:sans-serif;font-size:13;" transform="matrix(1 0 0 1 263 1971)">Symbols are supported in up to nine weights and three scales.</text>
  <text style="stroke:none;fill:black;font-family:sans-serif;font-size:13;" transform="matrix(1 0 0 1 263 1989)">For optimal layout with text and other symbols, vertically align</text>
  <text style="stroke:none;fill:black;font-family:sans-serif;font-size:13;" transform="matrix(1 0 0 1 263 2007)">symbols with the adjacent text.</text>
  <line style="fill:none;stroke:#00AEEF;stroke-width:0.5;opacity:1.0;" x1="776" x2="776" y1="1919" y2="1933"/>
  <g transform="matrix(1 0 0 1 776 1933)">
   <path d="M3.31055 0.15625C3.82812 0.15625 4.08203-0.0390625 4.26758-0.585938L5.52734-4.0332L11.2891-4.0332L12.5488-0.585938C12.7344-0.0390625 12.9883 0.15625 13.4961 0.15625C14.0137 0.15625 14.3457-0.15625 14.3457-0.644531C14.3457-0.810547 14.3164-0.966797 14.2383-1.17188L9.6582-13.3691C9.43359-13.9648 9.0332-14.2676 8.4082-14.2676C7.80273-14.2676 7.39258-13.9746 7.17773-13.3789L2.59766-1.16211C2.51953-0.957031 2.49023-0.800781 2.49023-0.634766C2.49023-0.146484 2.80273 0.15625 3.31055 0.15625ZM6.00586-5.51758L8.37891-12.0898L8.42773-12.0898L10.8008-5.51758Z"/>
  </g>
  <line style="fill:none;stroke:#00AEEF;stroke-width:0.5;opacity:1.0;" x1="793.197" x2="793.197" y1="1919" y2="1933"/>
  <text style="stroke:none;fill:black;font-family:sans-serif;font-size:13;font-weight:bold;" transform="matrix(1 0 0 1 776 1953)">Margins</text>
  <text style="stroke:none;fill:black;font-family:sans-serif;font-size:13;" transform="matrix(1 0 0 1 776 1971)">Leading and trailing margins on the left and right side of each symbol</text>
  <text style="stroke:none;fill:black;font-family:sans-serif;font-size:13;" transform="matrix(1 0 0 1 776 1989)">can be adjusted by modifying the x-location of the margin guidelines.</text>
  <text style="stroke:none;fill:black;font-family:sans-serif;font-size:13;" transform="matrix(1 0 0 1 776 2007)">Modifications are automatically applied proportionally to all</text>
  <text style="stroke:none;fill:black;font-family:sans-serif;font-size:13;" transform="matrix(1 0 0 1 776 2025)">scales and weights.</text>
  <g transform="matrix(1 0 0 1 1289 1933)">
   <path d="M2.8418 1.86523L4.54102 3.57422C5.40039 4.44336 6.38672 4.38477 7.31445 3.35938L18.0078-8.42773L17.041-9.4043L6.42578 2.27539C6.07422 2.67578 5.74219 2.77344 5.27344 2.30469L4.10156 1.14258C3.63281 0.683594 3.74023 0.341797 4.14062-0.0195312L15.6152-10.8203L14.6387-11.7871L3.04688-0.898438C2.06055 0.0195312 1.98242 0.996094 2.8418 1.86523ZM9.25781-16.3281C8.83789-15.918 8.80859-15.3418 9.04297-14.9512C9.27734-14.5898 9.73633-14.3555 10.3809-14.5215C11.8457-14.8633 13.3691-14.9219 14.7949-13.9844L14.209-12.5293C13.8672-11.6992 14.043-11.1133 14.5801-10.5664L16.875-8.25195C17.3633-7.76367 17.7734-7.74414 18.3398-7.8418L19.4043-8.03711L20.0684-7.36328L20.0293-6.80664C19.9902-6.30859 20.1172-5.92773 20.6055-5.44922L21.3672-4.70703C21.8457-4.22852 22.4609-4.19922 22.9297-4.66797L25.8398-7.58789C26.3086-8.05664 26.2891-8.65234 25.8105-9.13086L25.0391-9.89258C24.5605-10.3711 24.1895-10.5273 23.7109-10.4883L23.1348-10.4395L22.4902-11.0742L22.7344-12.1973C22.8613-12.7637 22.7051-13.2031 22.1191-13.7891L19.9219-15.9766C16.582-19.2969 12.1484-19.2188 9.25781-16.3281ZM10.752-15.957C13.1836-17.7344 16.4746-17.4316 18.7012-15.2051L21.1328-12.793C21.3672-12.5586 21.4062-12.373 21.3379-12.0312L21.0156-10.5469L22.5195-9.0625L23.5059-9.12109C23.7598-9.13086 23.8379-9.11133 24.0332-8.91602L24.6094-8.33984L22.168-5.89844L21.5918-6.47461C21.3965-6.66992 21.3672-6.74805 21.377-7.01172L21.4453-7.98828L19.9512-9.47266L18.4277-9.21875C18.1055-9.15039 17.959-9.17969 17.7148-9.41406L15.7129-11.416C15.459-11.6504 15.4297-11.8164 15.5859-12.1875L16.4648-14.2773C14.9023-15.7324 12.8711-16.3574 10.8398-15.7617C10.6836-15.7227 10.625-15.8496 10.752-15.957Z"/>
  </g>
  <text style="stroke:none;fill:black;font-family:sans-serif;font-size:13;font-weight:bold;" transform="matrix(1 0 0 1 1289 1953)">Exporting</text>
  <text style="stroke:none;fill:black;font-family:sans-serif;font-size:13;" transform="matrix(1 0 0 1 1289 1971)">Symbols should be outlined when exporting to ensure the</text>
  <text style="stroke:none;fill:black;font-family:sans-serif;font-size:13;" transform="matrix(1 0 0 1 1289 1989)">design is preserved when submitting to Xcode.</text>
  <text id="template-version" style="stroke:none;fill:black;font-family:sans-serif;font-size:13;text-anchor:end;" transform="matrix(1 0 0 1 3036 1933)">Template v.4.0</text>
  <text style="stroke:none;fill:black;font-family:sans-serif;font-size:13;text-anchor:end;" transform="matrix(1 0 0 1 3036 1951)">Requires Xcode 14 or greater</text>
  <text id="descriptive-name" style="stroke:none;fill:black;font-family:sans-serif;font-size:13;text-anchor:end;" transform="matrix(1 0 0 1 3036 1969)">Generated from car.top.lane.dashed.departure.right.fill</text>
  <text style="stroke:none;fill:black;font-family:sans-serif;font-size:13;text-anchor:end;" transform="matrix(1 0 0 1 3036 1987)">Typeset at 100 points</text>
  <text style="stroke:none;fill:black;font-family:sans-serif;font-size:13;" transform="matrix(1 0 0 1 263 726)">Small</text>
  <text style="stroke:none;fill:black;font-family:sans-serif;font-size:13;" transform="matrix(1 0 0 1 263 1156)">Medium</text>
  <text style="stroke:none;fill:black;font-family:sans-serif;font-size:13;" transform="matrix(1 0 0 1 263 1586)">Large</text>
 </g>
 <g id="Guides">
  <g id="H-reference" style="fill:#27AAE1;stroke:none;" transform="matrix(1 0 0 1 339 696)">
   <path d="M0.993654 0L3.63775 0L29.3281-67.1323L30.0303-67.1323L30.0303-70.459L28.1226-70.459ZM11.6885-24.4799L46.9815-24.4799L46.2315-26.7285L12.4385-26.7285ZM55.1196 0L57.7637 0L30.6382-70.459L29.4326-70.459L29.4326-67.1323Z"/>
  </g>
  <line id="Baseline-S" style="fill:none;stroke:#27AAE1;opacity:1;stroke-width:0.5;" x1="263" x2="3036" y1="696" y2="696"/>
  <line id="Capline-S" style="fill:none;stroke:#27AAE1;opacity:1;stroke-width:0.5;" x1="263" x2="3036" y1="625.541" y2="625.541"/>
  <g id="H-reference" style="fill:#27AAE1;stroke:none;" transform="matrix(1 0 0 1 339 1126)">
   <path d="M0.993654 0L3.63775 0L29.3281-67.1323L30.0303-67.1323L30.0303-70.459L28.1226-70.459ZM11.6885-24.4799L46.9815-24.4799L46.2315-26.7285L12.4385-26.7285ZM55.1196 0L57.7637 0L30.6382-70.459L29.4326-70.459L29.4326-67.1323Z"/>
  </g>
  <line id="Baseline-M" style="fill:none;stroke:#27AAE1;opacity:1;stroke-width:0.5;" x1="263" x2="3036" y1="1126" y2="1126"/>
  <line id="Capline-M" style="fill:none;stroke:#27AAE1;opacity:1;stroke-width:0.5;" x1="263" x2="3036" y1="1055.54" y2="1055.54"/>
  <g id="H-reference" style="fill:#27AAE1;stroke:none;" transform="matrix(1 0 0 1 339 1556)">
   <path d="M0.993654 0L3.63775 0L29.3281-67.1323L30.0303-67.1323L30.0303-70.459L28.1226-70.459ZM11.6885-24.4799L46.9815-24.4799L46.2315-26.7285L12.4385-26.7285ZM55.1196 0L57.7637 0L30.6382-70.459L29.4326-70.459L29.4326-67.1323Z"/>
  </g>
  <line id="Baseline-L" style="fill:none;stroke:#27AAE1;opacity:1;stroke-width:0.5;" x1="263" x2="3036" y1="1556" y2="1556"/>
  <line id="Capline-L" style="fill:none;stroke:#27AAE1;opacity:1;stroke-width:0.5;" x1="263" x2="3036" y1="1485.54" y2="1485.54"/>
  <line id="left-margin-Regular-M" style="fill:none;stroke:#00AEEF;stroke-width:0.5;opacity:1.0;" x1="1387.67" x2="1387.67" y1="1030.79" y2="1150.12"/>
  <line id="right-margin-Regular-M" style="fill:none;stroke:#00AEEF;stroke-width:0.5;opacity:1.0;" x1="1512.02" x2="1512.02" y1="1030.79" y2="1150.12"/>
 </g>
 <g id="Symbols">
  <g id="Black-L" transform="matrix(1 0 0 1 2840.9 1556)">
   <path d="M23.1179-64.7823L29.238-64.7823C33.2197-64.7823 36.272-67.8346 36.272-71.8163L36.272-95.7506C36.272-99.7322 33.2197-102.785 29.238-102.785L23.1179-102.785C19.1374-102.785 16.084-99.7322 16.084-95.7506L16.084-71.8163C16.084-67.8346 19.1374-64.7823 23.1179-64.7823ZM23.1179-17.1837L29.238-17.1837C33.2197-17.1837 36.272-20.2372 36.272-24.1968L36.272-48.1115C36.272-52.092 33.2197-55.1455 29.238-55.1455L23.1179-55.1455C19.1374-55.1455 16.084-52.092 16.084-48.1115L16.084-24.1968C16.084-20.2372 19.1374-17.1837 23.1179-17.1837ZM23.1179 30.7474L29.238 30.7474C33.2197 30.7474 36.272 27.6951 36.272 23.7134L36.272-0.630898C36.272-4.61138 33.2197-7.66485 29.238-7.66485L23.1179-7.66485C19.1374-7.66485 16.084-4.61138 16.084-0.630898L16.084 23.7134C16.084 27.6951 19.1374 30.7474 23.1179 30.7474ZM145.338-77.5592L165.526-67.9101L165.526-95.7518C165.526-99.7334 162.474-102.786 158.492-102.786L152.372-102.786C148.391-102.786 145.338-99.7334 145.338-95.7518ZM152.372 30.7462L158.492 30.7462C162.474 30.7462 165.526 27.6939 165.526 23.7122L165.526-0.632094C165.526-4.61258 162.474-7.66604 158.492-7.66604L152.372-7.66604C148.391-7.66604 145.338-4.61258 145.338-0.632094L145.338 23.7122C145.338 27.6939 148.391 30.7462 152.372 30.7462ZM91.8034 19.5616C112.562 31.5254 125.259 31.3922 132.659 18.6316L170.296-46.5601C178.19-60.1716 171.636-73.6126 152.081-84.872C132.627-96.0718 117.717-95.0232 109.881-81.448L72.2438-16.2772C64.8424-3.51774 71.1619 7.65749 91.8034 19.5616ZM126.104-39.7763C122.022-42.1492 116.373-44.8346 115.141-45.5749C111.65-47.5801 111.084-49.9071 112.694-53.4463L116.499-61.7387C119.592-68.4799 125.804-68.0701 138.305-60.9085C150.767-53.6664 154.199-48.5192 149.965-42.4786L144.696-35.0047C142.367-31.7664 140.017-31.1903 136.606-33.1163C135.394-33.8929 130.111-37.4517 126.104-39.7763ZM101.398 2.91731C88.382-4.61728 85.1836-9.3956 89.9755-15.4374L92.6074-18.755C96.4951-23.6501 101.851-22.7523 112.657-16.4712C123.503-10.2694 127.008-6.07764 124.679-0.259841L123.072 3.69751C120.163 10.8384 114.515 10.4351 101.398 2.91731ZM100.437-56.237L107.753-68.9696L101.717-72.4982C98.4329-74.3707 94.7132-73.2596 92.8068-69.5544L92.4354-68.9229C90.5289-65.2177 91.1376-61.5756 94.3231-59.7448ZM153.028-25.402L159.061-21.8745C162.326-20.0021 166.086-21.0732 167.972-24.7784L168.322-25.4111C170.208-29.1371 169.662-32.7388 166.435-34.6113L160.343-38.0982Z"/>
  </g>
  <g id="Heavy-L" transform="matrix(1 0 0 1 2547.17 1556)">
   <path d="M22.2713-64.8308L27.6933-64.8308C31.2061-64.8308 33.8806-67.5052 33.8806-71.0181L33.8806-95.7154C33.8806-99.2282 31.2061-101.903 27.6933-101.903L22.2713-101.903C18.7641-101.903 16.084-99.2282 16.084-95.7154L16.084-71.0181C16.084-67.5052 18.7641-64.8308 22.2713-64.8308ZM22.2713-17.4848L27.6933-17.4848C31.2061-17.4848 33.8806-20.1649 33.8806-23.642L33.8806-48.3147C33.8806-51.8219 31.2061-54.502 27.6933-54.502L22.2713-54.502C18.7641-54.502 16.084-51.8219 16.084-48.3147L16.084-23.642C16.084-20.1649 18.7641-17.4848 22.2713-17.4848ZM22.2713 30.139L27.6933 30.139C31.2061 30.139 33.8806 27.4645 33.8806 23.9516L33.8806-1.06358C33.8806-4.57085 31.2061-7.25094 27.6933-7.25094L22.2713-7.25094C18.7641-7.25094 16.084-4.57085 16.084-1.06358L16.084 23.9516C16.084 27.4645 18.7641 30.139 22.2713 30.139ZM142.577-77.5036L160.373-68.7768L160.373-95.721C160.373-99.2339 157.699-101.908 154.186-101.908L148.764-101.908C145.257-101.908 142.577-99.2339 142.577-95.721ZM148.764 30.1334L154.186 30.1334C157.699 30.1334 160.373 27.4589 160.373 23.946L160.373-1.06919C160.373-4.57646 157.699-7.25655 154.186-7.25655L148.764-7.25655C145.257-7.25655 142.577-4.57646 142.577-1.06919L142.577 23.946C142.577 27.4589 145.257 30.1334 148.764 30.1334ZM87.691 18.5351C108.054 30.2809 120.435 30.3308 127.598 17.9904L165.318-47.3511C172.896-60.4317 166.327-73.7237 147.264-84.6886C128.312-95.6034 113.536-94.6645 106.003-81.5928L68.2825-16.2814C61.1139-3.94665 67.4169 6.83943 87.691 18.5351ZM121.782-40.4485C117.757-42.7829 112.038-45.5174 110.627-46.3723C107.206-48.3313 106.626-50.6119 108.246-54.1269L111.955-62.2373C115.019-68.8727 120.995-68.5965 133.788-61.2571C146.567-53.8373 149.778-48.8373 145.609-42.8843L140.444-35.5511C138.152-32.3276 135.83-31.7973 132.484-33.6814C131.103-34.5452 125.683-38.1791 121.782-40.4485ZM97.1485 2.12977C84.0405-5.44792 80.8426-10.1612 85.5524-16.1198L88.1705-19.4181C91.9711-24.2206 97.2203-23.3686 108.231-16.9622C119.297-10.6307 122.691-6.55082 120.399-0.820138L118.825 3.10469C115.986 10.1309 110.361 9.7232 97.1485 2.12977ZM96.8479-56.8021L103.819-68.89L97.7546-72.4362C94.666-74.2038 91.1542-73.1744 89.389-69.8116L88.8207-68.8598C87.0555-65.497 87.7247-62.0254 90.7139-60.3181ZM148.294-26.7311L154.347-23.1906C157.411-21.423 160.978-22.4267 162.713-25.7895L163.251-26.747C164.986-30.1399 164.407-33.5568 161.358-35.3244L155.26-38.8102Z"/>
  </g>
  <g id="Bold-L" transform="matrix(1 0 0 1 2253.95 1556)">
   <path d="M21.2039-64.8475L25.7725-64.8475C28.694-64.8475 30.8924-67.0458 30.8924-69.9674L30.8924-95.7215C30.8924-98.6431 28.694-100.841 25.7725-100.841L21.2039-100.841C18.2955-100.841 16.084-98.6431 16.084-95.7215L16.084-69.9674C16.084-67.0458 18.2955-64.8475 21.2039-64.8475ZM21.2039-17.8538L25.7725-17.8538C28.694-17.8538 30.8924-20.0653 30.8924-22.9357L30.8924-48.6651C30.8924-51.5734 28.694-53.7849 25.7725-53.7849L21.2039-53.7849C18.2955-53.7849 16.084-51.5734 16.084-48.6651L16.084-22.9357C16.084-20.0653 18.2955-17.8538 21.2039-17.8538ZM21.2039 29.3487L25.7725 29.3487C28.694 29.3487 30.8924 27.1504 30.8924 24.2288L30.8924-1.74299C30.8924-4.65131 28.694-6.86286 25.7725-6.86286L21.2039-6.86286C18.2955-6.86286 16.084-4.65131 16.084-1.74299L16.084 24.2288C16.084 27.1504 18.2955 29.3487 21.2039 29.3487ZM139.485-77.5165L154.294-69.9792L154.294-95.7347C154.294-98.6563 152.095-100.855 149.174-100.855L144.605-100.855C141.697-100.855 139.485-98.6563 139.485-95.7347ZM144.605 29.3355L149.174 29.3355C152.095 29.3355 154.294 27.1371 154.294 24.2156L154.294-1.75622C154.294-4.66454 152.095-6.87609 149.174-6.87609L144.605-6.87609C141.697-6.87609 139.485-4.66454 139.485-1.75622L139.485 24.2156C139.485 27.1371 141.697 29.3355 144.605 29.3355ZM82.6786 17.4161C102.528 28.8781 114.621 29.1436 121.492 17.3107L159.438-48.4315C166.647-60.8885 160.07-73.9737 141.555-84.6147C123.157-95.2133 108.573-94.4052 101.394-81.9261L63.4471-16.222C56.5629-4.40235 62.8877 5.99658 82.6786 17.4161ZM116.583-41.2486C112.583-43.5667 106.742-46.3776 105.122-47.3635C101.771-49.276 101.168-51.5102 102.803-55.0168L106.397-62.8969C109.431-69.4165 115.107-69.3539 128.388-61.7247C141.678-54.0151 144.568-49.1771 140.468-43.3168L135.442-36.1677C133.181-32.9448 130.882-32.4683 127.598-34.3136C126.017-35.2775 120.368-39.0409 116.583-41.2486ZM91.9073 1.41475C78.6245-6.25397 75.4192-10.9052 80.0291-16.7787L82.6317-20.0689C86.3322-24.7785 91.4731-23.9803 102.812-17.383C114.214-10.8528 117.492-6.87403 115.231-1.24349L113.681 2.65032C110.904 9.54557 105.295 9.13024 91.9073 1.41475ZM92.4959-57.7101L99.0147-68.9616L93.0085-72.4711C90.1657-74.1081 86.9375-73.1861 85.3489-70.2386L84.5497-68.9096C82.9612-65.962 83.6848-62.7427 86.4357-61.1816ZM142.818-28.4054L148.798-24.9091C151.616-23.272 154.907-24.1764 156.458-27.1239L157.219-28.4662C158.769-31.4517 158.16-34.6083 155.333-36.2453L149.324-39.6789Z"/>
  </g>
  <g id="Semibold-L" transform="matrix(1 0 0 1 1959.64 1556)">
   <path d="M20.4679-64.859L24.4483-64.859C26.9622-64.859 28.8323-66.7291 28.8323-69.243L28.8323-95.7257C28.8323-98.2396 26.9622-100.11 24.4483-100.11L20.4679-100.11C17.9725-100.11 16.084-98.2396 16.084-95.7257L16.084-69.243C16.084-66.7291 17.9725-64.859 20.4679-64.859ZM20.4679-18.1081L24.4483-18.1081C26.9622-18.1081 28.8323-19.9967 28.8323-22.4487L28.8323-48.9066C28.8323-51.402 26.9622-53.2906 24.4483-53.2906L20.4679-53.2906C17.9725-53.2906 16.084-51.402 16.084-48.9066L16.084-22.4487C16.084-19.9967 17.9725-18.1081 20.4679-18.1081ZM20.4679 28.8038L24.4483 28.8038C26.9622 28.8038 28.8323 26.9338 28.8323 24.4199L28.8323-2.21137C28.8323-4.70678 26.9622-6.59533 24.4483-6.59533L20.4679-6.59533C17.9725-6.59533 16.084-4.70678 16.084-2.21137L16.084 24.4199C16.084 26.9338 17.9725 28.8038 20.4679 28.8038ZM137.354-77.5253L150.102-70.8081L150.102-95.7442C150.102-98.2581 148.232-100.128 145.718-100.128L141.738-100.128C139.243-100.128 137.354-98.2581 137.354-95.7442ZM141.738 28.7854L145.718 28.7854C148.232 28.7854 150.102 26.9153 150.102 24.4014L150.102-2.22985C150.102-4.72526 148.232-6.61381 145.718-6.61381L141.738-6.61381C139.243-6.61381 137.354-4.72526 137.354-2.22985L137.354 24.4014C137.354 26.9153 139.243 28.7854 141.738 28.7854ZM79.223 16.6448C98.7179 27.9111 110.612 28.325 117.282 16.8421L155.385-49.1762C162.339-61.2035 155.757-74.1461 137.619-84.5638C119.604-94.9444 105.152-94.2264 98.2166-82.1559L60.1136-16.181C53.4255-4.71651 59.7652 5.41552 79.223 16.6448ZM112.998-41.8002C109.015-44.107 103.09-46.9706 101.328-48.0468C98.0244-49.9272 97.406-52.1294 99.0514-55.6303L102.565-63.3515C105.578-69.7914 111.048-69.8761 124.665-62.0471C138.307-54.1376 140.976-49.4113 136.924-43.615L131.993-36.5928C129.754-33.3702 127.471-32.9309 124.23-34.7495C122.51-35.7824 116.704-39.635 112.998-41.8002ZM88.2941 0.921816C74.8907-6.80967 71.6803-11.4181 76.2213-17.233L78.8133-20.5175C82.4447-25.1631 87.511-24.4021 99.0762-17.6731C110.71-11.006 113.908-7.09685 111.669-1.53534L110.135 2.33708C107.401 9.14204 101.803 8.72145 88.2941 0.921816ZM89.4956-58.336L95.7025-69.0109L89.7366-72.4952C87.0633-74.0422 84.0305-73.1942 82.5637-70.5329L81.6053-68.9439C80.1386-66.2826 80.8997-63.2372 83.4863-61.7769ZM139.044-29.5596L144.973-26.0938C147.621-24.5468 150.722-25.3826 152.145-28.0439L153.06-29.6514C154.484-32.356 153.853-35.3332 151.18-36.8802L145.232-40.2778Z"/>
  </g>
  <g id="Medium-L" transform="matrix(1 0 0 1 1664.76 1556)">
   <path d="M19.9099-64.8677L23.4443-64.8677C25.6491-64.8677 27.2703-66.4889 27.2703-68.6937L27.2703-95.7289C27.2703-97.9337 25.6491-99.5549 23.4443-99.5549L19.9099-99.5549C17.7276-99.5549 16.084-97.9337 16.084-95.7289L16.084-68.6937C16.084-66.4889 17.7276-64.8677 19.9099-64.8677ZM19.9099-18.301L23.4443-18.301C25.6491-18.301 27.2703-19.9446 27.2703-22.0795L27.2703-49.0898C27.2703-51.2721 25.6491-52.9157 23.4443-52.9157L19.9099-52.9157C17.7276-52.9157 16.084-51.2721 16.084-49.0898L16.084-22.0795C16.084-19.9446 17.7276-18.301 19.9099-18.301ZM19.9099 28.3907L23.4443 28.3907C25.6491 28.3907 27.2703 26.7696 27.2703 24.5648L27.2703-2.56652C27.2703-4.74884 25.6491-6.39247 23.4443-6.39247L19.9099-6.39247C17.7276-6.39247 16.084-4.74884 16.084-2.56652L16.084 24.5648C16.084 26.7696 17.7276 28.3907 19.9099 28.3907ZM135.738-77.532L146.924-71.4366L146.924-95.7514C146.924-97.9562 145.303-99.5774 143.098-99.5774L139.564-99.5774C137.382-99.5774 135.738-97.9562 135.738-95.7514ZM139.564 28.3683L143.098 28.3683C145.303 28.3683 146.924 26.7471 146.924 24.5423L146.924-2.58898C146.924-4.7713 145.303-6.41494 143.098-6.41494L139.564-6.41494C137.382-6.41494 135.738-4.7713 135.738-2.58898L135.738 24.5423C135.738 26.7471 137.382 28.3683 139.564 28.3683ZM76.6028 16.0599C95.8291 27.1778 107.573 27.7044 114.09 16.4868L152.312-49.7409C159.073-61.4423 152.486-74.2768 134.634-84.5251C116.91-94.7404 102.558-94.0909 95.8075-82.3301L57.586-16.1499C51.0466-4.95471 57.3977 4.97494 76.6028 16.0599ZM110.281-42.2185C106.311-44.5167 100.322-47.4202 98.4504-48.5648C95.1835-50.4211 94.5532-52.599 96.2065-56.0955L99.6603-63.6963C102.657-70.0756 107.97-70.272 121.842-62.2915C135.752-54.2306 138.252-49.5889 134.237-43.841L129.378-36.9151C127.155-33.6928 124.885-33.2817 121.676-35.0799C119.852-36.1652 113.926-40.0855 110.281-42.2185ZM85.5544 0.548054C72.0596-7.23102 68.8454-11.807 73.3341-17.5774L75.918-20.8577C79.4971-25.4547 84.5068-24.7218 96.2435-17.893C108.053-11.1221 111.19-7.26581 108.967-1.75664L107.446 2.09956C104.744 8.83606 99.1545 8.4115 85.5544 0.548054ZM87.2207-58.8106L93.191-69.0483L87.2557-72.5135C84.7109-73.9922 81.8262-73.2003 80.4518-70.7561L79.3728-68.9699C77.9983-66.5257 78.788-63.6122 81.2499-62.2283ZM136.181-30.4348L142.072-26.992C144.592-25.5133 147.549-26.2972 148.876-28.7414L149.907-30.55C151.234-33.0417 150.587-35.8828 148.03-37.3616L142.129-40.7319Z"/>
  </g>
  <g id="Regular-L" transform="matrix(1 0 0 1 1370.43 1556)">
   <path d="M19.1821-64.8791L22.1347-64.8791C23.9363-64.8791 25.2328-66.1757 25.2328-67.9773L25.2328-95.7331C25.2328-97.5347 23.9363-98.8313 22.1347-98.8313L19.1821-98.8313C17.4082-98.8313 16.084-97.5347 16.084-95.7331L16.084-67.9773C16.084-66.1757 17.4082-64.8791 19.1821-64.8791ZM19.1821-18.5526L22.1347-18.5526C23.9363-18.5526 25.2328-19.8767 25.2328-21.5979L25.2328-49.3287C25.2328-51.1026 23.9363-52.4268 22.1347-52.4268L19.1821-52.4268C17.4082-52.4268 16.084-51.1026 16.084-49.3287L16.084-21.5979C16.084-19.8767 17.4082-18.5526 19.1821-18.5526ZM19.1821 27.8519L22.1347 27.8519C23.9363 27.8519 25.2328 26.5554 25.2328 24.7538L25.2328-3.02975C25.2328-4.8037 23.9363-6.12788 22.1347-6.12788L19.1821-6.12788C17.4082-6.12788 16.084-4.8037 16.084-3.02975L16.084 24.7538C16.084 26.5554 17.4082 27.8519 19.1821 27.8519ZM133.63-77.5408L142.779-72.2564L142.779-95.7608C142.779-97.5624 141.483-98.8589 139.681-98.8589L136.728-98.8589C134.954-98.8589 133.63-97.5624 133.63-95.7608ZM136.728 27.8242L139.681 27.8242C141.483 27.8242 142.779 26.5277 142.779 24.7261L142.779-3.05741C142.779-4.83135 141.483-6.15553 139.681-6.15553L136.728-6.15553C134.954-6.15553 133.63-4.83135 133.63-3.05741L133.63 24.7261C133.63 26.5277 134.954 27.8242 136.728 27.8242ZM73.1853 15.297C92.061 26.2213 103.609 26.8949 109.927 16.0233L148.303-50.4775C154.812-61.7538 148.22-74.4473 130.741-84.4747C113.396-94.4745 99.174-93.9141 92.6651-82.5574L54.2891-16.1094C47.9436-5.26542 54.3095 4.40027 73.1853 15.297ZM106.736-42.7641C102.782-45.0511 96.7104-48.0067 94.6974-49.2406C91.478-51.0652 90.8321-53.2114 92.4958-56.7022L95.8709-64.1459C98.8465-70.4464 103.955-70.7884 118.16-62.6103C132.418-54.3518 134.7-49.8206 130.731-44.1359L125.967-37.3355C123.765-34.1136 121.511-33.7392 118.344-35.511C116.384-36.6645 110.302-40.6731 106.736-42.7641ZM81.9808 0.0605387C68.3669-7.7806 65.1476-12.3143 69.5681-18.0267L72.1416-21.3013C75.6524-25.8351 80.5882-25.1389 92.5486-18.1799C104.587-11.2736 107.645-7.48618 105.444-2.04529L103.938 1.78976C101.279 8.43696 95.7003 8.0072 81.9808 0.0605387ZM84.2534-59.4296L89.9152-69.0971L84.0198-72.5373C81.6425-73.927 78.9512-73.2083 77.6972-71.0472L76.4607-69.0039C75.2067-66.8428 76.0335-64.1012 78.3329-62.8171ZM132.448-31.5763L138.288-28.1637C140.641-26.774 143.41-27.4902 144.611-29.6513L145.795-31.7222C146.996-33.9361 146.327-36.5998 143.922-37.9895L138.082-41.3241Z"/>
  </g>
  <g id="Light-L" transform="matrix(1 0 0 1 1074.85 1556)">
   <path d="M18.3233-64.6119L20.7606-64.6119C22.085-64.6119 22.9998-65.5268 22.9998-66.8512L22.9998-96.0576C22.9998-97.382 22.085-98.2969 20.7606-98.2969L18.3233-98.2969C17.0455-98.2969 16.084-97.382 16.084-96.0576L16.084-66.8512C16.084-65.5268 17.0455-64.6119 18.3233-64.6119ZM18.3233-18.7816L20.7606-18.7816C22.085-18.7816 22.9998-19.7431 22.9998-20.9872L22.9998-50.2066C22.9998-51.4843 22.085-52.4459 20.7606-52.4459L18.3233-52.4459C17.0455-52.4459 16.084-51.4843 16.084-50.2066L16.084-20.9872C16.084-19.7431 17.0455-18.7816 18.3233-18.7816ZM18.3233 27.0694L20.7606 27.0694C22.085 27.0694 22.9998 26.1546 22.9998 24.8301L22.9998-4.42298C22.9998-5.7007 22.085-6.66227 20.7606-6.66227L18.3233-6.66227C17.0455-6.66227 16.084-5.7007 16.084-4.42298L16.084 24.8301C16.084 26.1546 17.0455 27.0694 18.3233 27.0694ZM133.611-78.0752L140.527-73.9168L140.527-96.1043C140.527-97.4288 139.612-98.3436 138.288-98.3436L135.85-98.3436C134.573-98.3436 133.611-97.4288 133.611-96.1043ZM135.85 27.0227L138.288 27.0227C139.612 27.0227 140.527 26.1078 140.527 24.7834L140.527-4.46972C140.527-5.74745 139.612-6.70901 138.288-6.70901L135.85-6.70901C134.573-6.70901 133.611-5.74745 133.611-4.46972L133.611 24.7834C133.611 26.1078 134.573 27.0227 135.85 27.0227ZM70.2461 15.5069C88.6066 26.145 100.632 26.8949 106.759 16.2905L146.089-51.8707C152.483-62.937 145.949-75.3444 128.451-85.4099C111.067-95.4287 97.1319-94.9256 90.7375-83.7789L51.4072-15.6513C45.2335-5.09365 51.8857 4.91557 70.2461 15.5069ZM104.14-43.1076C99.9005-45.5855 93.5232-48.6937 91.4529-49.9468C88.1763-51.8095 87.4731-53.9939 89.175-57.6183L92.4928-64.8712C95.4684-71.1907 100.329-71.9908 115.679-63.1638C131.063-54.2564 132.81-49.7061 128.823-43.9832L124.211-37.3737C121.933-34.0373 119.621-33.6819 116.378-35.511C114.342-36.6836 107.725-41.0167 104.14-43.1076ZM78.5073 1.24383C64.3781-6.90268 61.1015-11.5127 65.4648-17.2824L68.0382-20.6524C71.53-25.2625 76.5421-24.5855 89.2087-17.2638C101.896-9.97577 105.012-6.01662 102.734-0.594804L101.133 3.27842C98.3594 9.90653 92.7039 9.45769 78.5073 1.24383ZM81.8486-61.3954L87.0333-70.2422L81.7868-73.2816C79.6004-74.5759 77.2717-73.9717 76.1513-72.0396L74.8385-69.8627C73.7181-67.9306 74.4494-65.6281 76.6152-64.4011ZM131.17-32.9122L136.323-29.9196C138.522-28.6253 140.871-29.1697 141.958-31.1018L143.237-33.3254C144.324-35.2912 143.694-37.5731 141.46-38.8674L136.307-41.8394Z"/>
  </g>
  <g id="Thin-L" transform="matrix(1 0 0 1 779.642 1556)">
   <path d="M17.1874-64.2586L18.9431-64.2586C19.6366-64.2586 20.0466-64.6685 20.0466-65.362L20.0466-96.4867C20.0466-97.1801 19.6366-97.5901 18.9431-97.5901L17.1874-97.5901C16.566-97.5901 16.084-97.1801 16.084-96.4867L16.084-65.362C16.084-64.6685 16.566-64.2586 17.1874-64.2586ZM17.1874-19.0845L18.9431-19.0845C19.6366-19.0845 20.0466-19.5665 20.0466-20.1795L20.0466-51.3677C20.0466-51.9892 19.6366-52.4711 18.9431-52.4711L17.1874-52.4711C16.566-52.4711 16.084-51.9892 16.084-51.3677L16.084-20.1795C16.084-19.5665 16.566-19.0845 17.1874-19.0845ZM17.1874 26.0345L18.9431 26.0345C19.6366 26.0345 20.0466 25.6245 20.0466 24.9311L20.0466-6.26563C20.0466-6.88707 19.6366-7.36904 18.9431-7.36904L17.1874-7.36904C16.566-7.36904 16.084-6.88707 16.084-6.26563L16.084 24.9311C16.084 25.6245 16.566 26.0345 17.1874 26.0345ZM133.586-78.7819L137.548-76.1129L137.548-96.5587C137.548-97.2521 137.139-97.6621 136.445-97.6621L134.689-97.6621C134.068-97.6621 133.586-97.2521 133.586-96.5587ZM134.689 25.9625L136.445 25.9625C137.139 25.9625 137.548 25.5525 137.548 24.8591L137.548-6.33761C137.548-6.95905 137.139-7.44102 136.445-7.44102L134.689-7.44102C134.068-7.44102 133.586-6.95905 133.586-6.33761L133.586 24.8591C133.586 25.5525 134.068 25.9625 134.689 25.9625ZM66.3589 15.7846C84.0378 26.044 96.6941 26.8949 102.569 16.6439L143.161-53.7134C149.404-64.502 142.945-76.5307 125.422-86.6468C107.988-96.6908 94.431-96.2634 88.1881-85.3943L47.5957-15.0455C41.6492-4.86648 48.68 5.5971 66.3589 15.7846ZM100.707-43.5619C96.0889-46.2923 89.3078-49.6024 87.1618-50.8807C83.8095-52.7939 83.0306-55.0288 84.7829-58.8299L88.025-65.8304C91.0006-72.1751 95.5333-73.581 112.398-63.8958C129.271-54.1301 130.311-49.5546 126.299-43.7813L121.889-37.4242C119.51-33.9363 117.122-33.6062 113.778-35.511C111.641-36.7088 104.318-41.471 100.707-43.5619ZM73.9133 2.80882C59.1026-5.74155 55.7502-10.4526 60.0378-16.2979L62.6112-19.7942C66.0777-24.5053 71.1909-23.8535 84.7914-16.0522C98.3368-8.25933 101.528-4.073 99.1494 1.32357L97.4223 5.24728C94.4974 11.8501 88.7409 11.3761 73.9133 2.80882ZM78.6682-63.9953L83.2218-71.7567L78.8335-74.266C76.8995-75.4341 75.0504-74.9814 74.1067-73.3522L72.6929-70.9986C71.7492-69.3694 72.3544-67.6474 74.3435-66.4962ZM129.478-34.6792L133.723-32.2418C135.72-31.0738 137.514-31.3909 138.449-33.0202L139.855-35.4457C140.79-37.0833 140.21-38.8605 138.204-40.0285L133.96-42.521Z"/>
  </g>
  <g id="Ultralight-L" transform="matrix(1 0 0 1 483.7 1556)">
   <path d="M16.6056-64.0776L18.0123-64.0776C18.3825-64.0776 18.5339-64.229 18.5339-64.5992L18.5339-96.7065C18.5339-97.0767 18.3825-97.2281 18.0123-97.2281L16.6056-97.2281C16.3203-97.2281 16.084-97.0767 16.084-96.7065L16.084-64.5992C16.084-64.229 16.3203-64.0776 16.6056-64.0776ZM16.6056-19.2396L18.0123-19.2396C18.3825-19.2396 18.5339-19.4759 18.5339-19.7657L18.5339-51.9624C18.5339-52.2477 18.3825-52.4841 18.0123-52.4841L16.6056-52.4841C16.3203-52.4841 16.084-52.2477 16.084-51.9624L16.084-19.7657C16.084-19.4759 16.3203-19.2396 16.6056-19.2396ZM16.6056 25.5044L18.0123 25.5044C18.3825 25.5044 18.5339 25.353 18.5339 24.9828L18.5339-7.20943C18.5339-7.49472 18.3825-7.73104 18.0123-7.73104L16.6056-7.73104C16.3203-7.73104 16.084-7.49472 16.084-7.20943L16.084 24.9828C16.084 25.353 16.3203 25.5044 16.6056 25.5044ZM133.573-79.1439L136.023-77.2377L136.023-96.7914C136.023-97.1616 135.871-97.313 135.501-97.313L134.095-97.313C133.809-97.313 133.573-97.1616 133.573-96.7914ZM134.095 25.4195L135.501 25.4195C135.871 25.4195 136.023 25.2681 136.023 24.8979L136.023-7.29434C136.023-7.57963 135.871-7.81595 135.501-7.81595L134.095-7.81595C133.809-7.81595 133.573-7.57963 133.573-7.29434L133.573 24.8979C133.573 25.2681 133.809 25.4195 134.095 25.4195ZM64.3679 15.9268C81.6977 25.9923 94.6772 26.8949 100.422 16.8249L141.661-54.6572C147.827-65.3036 141.407-77.1384 123.871-87.2803C106.41-97.3373 93.0477-96.9486 86.8823-86.2218L45.6435-14.7352C39.8133-4.75012 47.038 5.94618 64.3679 15.9268ZM98.9489-43.7947C94.1367-46.6543 87.1487-50.0679 84.9639-51.3591C81.5728-53.2981 80.7551-55.5589 82.5333-59.4505L85.7366-66.3217C88.7122-72.6793 93.0769-74.3956 110.717-64.2707C128.353-54.0655 129.031-49.4771 125.006-43.6779L120.699-37.45C118.269-33.8846 115.842-33.5674 112.447-35.511C110.258-36.7218 102.572-41.7037 98.9489-43.7947ZM71.5603 3.6104C56.4005-5.14683 53.0093-9.90958 57.2581-15.7937L59.8316-19.3546C63.2851-24.1174 68.45-23.4785 82.5288-15.4316C96.5138-7.38017 99.7441-3.07748 97.3135 2.30616L95.5218 6.25572C92.5193 12.8457 86.7111 12.3586 71.5603 3.6104ZM77.0392-65.327L81.2695-72.5324L77.3209-74.7703C75.5161-75.8737 73.9127-75.4985 73.0595-74.0245L71.594-71.5804C70.7408-70.1063 71.2813-68.6817 73.1799-67.5693ZM128.612-35.5842L132.391-33.4313C134.285-32.3278 135.795-32.5287 136.652-34.0027L138.122-36.5317C138.98-38.0013 138.426-39.5198 136.536-40.6232L132.758-42.8701Z"/>
  </g>
  <g id="Black-M" transform="matrix(1 0 0 1 2859.33 1126)">
   <path d="M18.5217-58.0475L23.7934-58.0475C27.2164-58.0475 29.8541-60.6852 29.8541-64.1082L29.8541-82.1919C29.8541-85.6149 27.2164-88.2526 23.7934-88.2526L18.5217-88.2526C15.0983-88.2526 12.4609-85.6149 12.4609-82.1919L12.4609-64.1082C12.4609-60.6852 15.0983-58.0475 18.5217-58.0475ZM18.5217-21.0209L23.7934-21.0209C27.2164-21.0209 29.8541-23.6583 29.8541-27.0761L29.8541-45.1541C29.8541-48.5774 27.2164-51.2148 23.7934-51.2148L18.5217-51.2148C15.0983-51.2148 12.4609-48.5774 12.4609-45.1541L12.4609-27.0761C12.4609-23.6583 15.0983-21.0209 18.5217-21.0209ZM18.5217 16.3024L23.7934 16.3024C27.2164 16.3024 29.8541 13.6647 29.8541 10.2417L29.8541-8.24141C29.8541-11.6647 27.2164-14.3021 23.7934-14.3021L18.5217-14.3021C15.0983-14.3021 12.4609-11.6647 12.4609-8.24141L12.4609 10.2417C12.4609 13.6647 15.0983 16.3024 18.5217 16.3024ZM114.97-68.1442L132.363-60.0287L132.363-82.1916C132.363-85.6146 129.725-88.2523 126.302-88.2523L121.031-88.2523C117.607-88.2523 114.97-85.6146 114.97-82.1916ZM121.031 16.3027L126.302 16.3027C129.725 16.3027 132.363 13.665 132.363 10.242L132.363-8.24113C132.363-11.6644 129.725-14.3018 126.302-14.3018L121.031-14.3018C117.607-14.3018 114.97-11.6644 114.97-8.24113L114.97 10.242C114.97 13.665 117.607 16.3027 121.031 16.3027ZM74.26 8.13019C90.6119 17.5475 100.786 17.2973 106.697 7.08617L135.914-43.5167C142.286-54.49 137.228-64.9925 121.653-73.9739C106.145-82.8984 94.5162-81.9994 88.2012-71.0779L58.9843-20.4806C53.0734-10.2692 58.0223-1.23027 74.26 8.13019ZM101.061-38.2209C97.8101-40.1183 93.4533-42.1773 92.644-42.6548C89.8724-44.2533 89.4371-46.1011 90.6827-48.882L93.7052-55.437C96.1246-60.7533 101.107-60.383 110.696-54.8994C120.232-49.3535 123.008-45.2367 119.669-40.4763L115.519-34.5909C113.672-32.0538 111.819-31.5707 109.11-33.1066C108.306-33.636 104.259-36.3726 101.061-38.2209ZM81.7393-4.83842C71.664-10.6801 69.1778-14.4483 72.9532-19.2085L75.0041-21.8082C78.0884-25.6906 82.3394-24.9583 90.631-20.1506C98.934-15.4055 101.752-12.0386 99.9051-7.45898L98.619-4.35994C96.2895 1.26841 91.8827 0.957166 81.7393-4.83842ZM80.5713-51.2855L86.4711-61.5929L81.9078-64.2574C79.2208-65.7851 76.2094-64.8697 74.6292-61.7358L74.5003-61.5038C72.9201-58.37 73.3266-55.4612 75.9451-53.9444ZM122.453-26.6544L127.017-23.9897C129.698-22.4619 132.721-23.3263 134.295-26.4602L134.419-26.6919C135.993-29.8312 135.603-32.7288 132.974-34.2565L128.353-36.91Z"/>
  </g>
  <g id="Heavy-M" transform="matrix(1 0 0 1 2565.43 1126)">
   <path d="M17.7733-58.1195L22.41-58.1195C25.4188-58.1195 27.7224-60.4231 27.7224-63.4318L27.7224-82.1276C27.7224-85.1363 25.4188-87.4399 22.41-87.4399L17.7733-87.4399C14.7668-87.4399 12.4609-85.1363 12.4609-82.1276L12.4609-63.4318C12.4609-60.4231 14.7668-58.1195 17.7733-58.1195ZM17.7733-21.2941L22.41-21.2941C25.4188-21.2941 27.7224-23.6 27.7224-26.5901L27.7224-45.2717C27.7224-48.2782 25.4188-50.584 22.41-50.584L17.7733-50.584C14.7668-50.584 12.4609-48.2782 12.4609-45.2717L12.4609-26.5901C12.4609-23.6 14.7668-21.2941 17.7733-21.2941ZM17.7733 15.7798L22.41 15.7798C25.4188 15.7798 27.7224 13.4763 27.7224 10.4675L27.7224-8.53586C27.7224-11.5424 25.4188-13.8482 22.41-13.8482L17.7733-13.8482C14.7668-13.8482 12.4609-11.5424 12.4609-8.53586L12.4609 10.4675C12.4609 13.4763 14.7668 15.7798 17.7733 15.7798ZM112.272-68.0406L127.534-60.7227L127.534-82.1298C127.534-85.1386 125.23-87.4422 122.222-87.4422L117.585-87.4422C114.578-87.4422 112.272-85.1386 112.272-82.1298ZM117.585 15.7776L122.222 15.7776C125.23 15.7776 127.534 13.474 127.534 10.4652L127.534-8.53814C127.534-11.5446 125.23-13.8505 122.222-13.8505L117.585-13.8505C114.578-13.8505 112.272-11.5446 112.272-8.53814L112.272 10.4652C112.272 13.474 114.578 15.7776 117.585 15.7776ZM70.511 7.10728C86.5244 16.338 96.3447 16.2597 102.042 6.43476L131.252-44.1615C137.325-54.6351 132.248-65.0184 117.155-73.7084C102.141-82.3525 90.6179-81.5555 84.5878-71.1068L55.3777-20.527C49.6785-10.7043 54.5849-2.07751 70.511 7.10728ZM97.0752-38.8464C93.9071-40.6884 89.5094-42.7814 88.5308-43.3692C85.8323-44.919 85.3894-46.7179 86.64-49.4628L89.574-55.8576C91.9665-61.0686 96.7408-60.7867 106.509-55.1892C116.251-49.5294 118.86-45.5582 115.587-40.887L111.524-35.1216C109.721-32.6095 107.901-32.1694 105.262-33.6591C104.3-34.2719 100.168-37.0519 97.0752-38.8464ZM77.9052-5.71745C67.7879-11.5731 65.3075-15.2707 69.0079-19.9442L71.0453-22.5163C74.0461-26.3011 78.1861-25.6118 86.6128-20.7151C95.07-15.8784 97.7747-12.6367 95.9712-8.14052L94.7262-5.07678C92.4758 0.441203 88.0991 0.127406 77.9052-5.71745ZM77.2847-51.6566L82.8915-61.4095L78.24-64.128C75.7268-65.5621 72.8852-64.716 71.4307-61.8957L71.1164-61.3629C69.6619-58.5427 70.1364-55.76 72.5754-54.3587ZM117.943-27.8305L122.59-25.1142C125.089-23.6801 127.961-24.4945 129.399-27.3147L129.697-27.8499C131.135-30.6865 130.71-33.4386 128.238-34.8727L123.547-37.5584Z"/>
  </g>
  <g id="Bold-M" transform="matrix(1 0 0 1 2271.86 1126)">
   <path d="M16.9361-58.2L20.8625-58.2C23.4079-58.2 25.3377-60.1299 25.3377-62.6752L25.3377-82.0556C25.3377-84.601 23.4079-86.5308 20.8625-86.5308L16.9361-86.5308C14.3959-86.5308 12.4609-84.601 12.4609-82.0556L12.4609-62.6752C12.4609-60.1299 14.3959-58.2 16.9361-58.2ZM16.9361-21.5998L20.8625-21.5998C23.4079-21.5998 25.3377-23.5348 25.3377-26.0464L25.3377-45.4033C25.3377-47.9435 23.4079-49.8784 20.8625-49.8784L16.9361-49.8784C14.3959-49.8784 12.4609-47.9435 12.4609-45.4033L12.4609-26.0464C12.4609-23.5348 14.3959-21.5998 16.9361-21.5998ZM16.9361 15.1953L20.8625 15.1953C23.4079 15.1953 25.3377 13.2655 25.3377 10.7201L25.3377-8.86524C25.3377-11.4055 23.4079-13.3404 20.8625-13.3404L16.9361-13.3404C14.3959-13.3404 12.4609-11.4055 12.4609-8.86524L12.4609 10.7201C12.4609 13.2655 14.3959 15.1953 16.9361 15.1953ZM109.255-67.9247L122.132-61.4991L122.132-82.0607C122.132-84.6061 120.202-86.5359 117.657-86.5359L113.73-86.5359C111.19-86.5359 109.255-84.6061 109.255-82.0607ZM113.73 15.1902L117.657 15.1902C120.202 15.1902 122.132 13.2603 122.132 10.715L122.132-8.87038C122.132-11.4106 120.202-13.3456 117.657-13.3456L113.73-13.3456C111.19-13.3456 109.255-11.4106 109.255-8.87038L109.255 10.715C109.255 13.2603 111.19 15.1902 113.73 15.1902ZM66.3173 5.96302C81.952 14.985 91.3764 15.0991 96.8338 5.70606L126.036-44.8828C131.776-54.7973 126.677-65.0473 112.124-73.4114C97.6623-81.7418 86.2571-81.059 80.5456-71.1392L51.3433-20.579C45.8808-11.1911 50.7397-3.02528 66.3173 5.96302ZM92.6164-39.546C89.5411-41.3262 85.0976-43.4571 83.9295-44.1684C81.3129-45.6636 80.8614-47.408 82.1177-50.1126L84.9527-56.328C87.3151-61.4213 91.8562-61.2382 101.827-55.5133C111.797-49.7261 114.221-45.9179 111.02-41.3465L107.056-35.7152C105.301-33.2311 103.518-32.8391 100.958-34.2771C99.8187-34.9832 95.5914-37.8119 92.6164-39.546ZM73.6163-6.70077C63.4519-12.572 60.978-16.1906 64.5944-20.7672L66.6167-23.3084C69.5243-26.9841 73.54-26.3428 82.1178-21.3465C90.7477-16.4074 93.3253-13.3058 91.5706-8.90292L90.3716-5.87868C88.2095-0.484142 83.8666-0.8008 73.6163-6.70077ZM73.6081-52.0718L78.8872-61.2043L74.137-63.9833C71.8182-65.3127 69.1666-64.544 67.8527-62.0746L67.331-61.2052C66.0171-58.7358 66.5678-56.0944 68.8059-54.8222ZM112.897-29.1461L117.637-26.3722C119.933-25.0428 122.636-25.8014 123.922-28.2707L124.415-29.1453C125.7-31.6433 125.235-34.2326 122.94-35.562L118.171-38.2838Z"/>
  </g>
  <g id="Semibold-M" transform="matrix(1 0 0 1 1977.31 1126)">
   <path d="M16.359-58.2556L19.7957-58.2556C22.0216-58.2556 23.6938-59.9277 23.6938-62.1536L23.6938-82.006C23.6938-84.2319 22.0216-85.904 19.7957-85.904L16.359-85.904C14.1402-85.904 12.4609-84.2319 12.4609-82.006L12.4609-62.1536C12.4609-59.9277 14.1402-58.2556 16.359-58.2556ZM16.359-21.8105L19.7957-21.8105C22.0216-21.8105 23.6938-23.4898 23.6938-25.6715L23.6938-45.494C23.6938-47.7127 22.0216-49.392 19.7957-49.392L16.359-49.392C14.1402-49.392 12.4609-47.7127 12.4609-45.494L12.4609-25.6715C12.4609-23.4898 14.1402-21.8105 16.359-21.8105ZM16.359 14.7923L19.7957 14.7923C22.0216 14.7923 23.6938 13.1201 23.6938 10.8943L23.6938-9.09232C23.6938-11.3111 22.0216-12.9904 19.7957-12.9904L16.359-12.9904C14.1402-12.9904 12.4609-11.3111 12.4609-9.09232L12.4609 10.8943C12.4609 13.1201 14.1402 14.7923 16.359 14.7923ZM107.175-67.8449L118.407-62.0344L118.407-82.0131C118.407-84.239 116.735-85.9112 114.509-85.9112L111.073-85.9112C108.854-85.9112 107.175-84.239 107.175-82.0131ZM111.073 14.7852L114.509 14.7852C116.735 14.7852 118.407 13.113 118.407 10.8872L118.407-9.09942C118.407-11.3182 116.735-12.9975 114.509-12.9975L111.073-12.9975C108.854-12.9975 107.175-11.3182 107.175-9.09942L107.175 10.8872C107.175 13.113 108.854 14.7852 111.073 14.7852ZM63.4261 5.17417C78.7997 14.0523 87.9514 14.2989 93.2435 5.20369L122.441-45.38C127.95-54.9092 122.837-65.0672 108.656-73.2067C94.5744-81.3208 83.2508-80.7166 77.759-71.1614L48.562-20.6148C43.2627-11.5266 48.0888-3.67867 63.4261 5.17417ZM89.5425-40.0283C86.5311-41.7659 82.0561-43.923 80.7574-44.7194C78.1972-46.1769 77.7398-47.8837 79.0001-50.5606L81.7668-56.6523C84.1084-61.6645 88.4888-61.5495 98.5983-55.7368C108.727-49.8617 111.023-46.1659 107.872-41.6632L103.975-36.1244C102.254-33.6597 100.496-33.3008 97.9909-34.7031C96.7292-35.4736 92.4363-38.3358 89.5425-40.0283ZM70.6596-7.37866C60.4627-13.2607 57.9933-16.8248 61.5518-21.3346L63.5637-23.8544C66.407-27.4549 70.3371-26.8468 79.019-21.7819C87.7678-16.7721 90.2578-13.7671 88.5369-9.42851L87.3695-6.43151C85.2684-1.12207 80.9487-1.4407 70.6596-7.37866ZM71.0735-52.358L76.1266-61.0628L71.3084-63.8835C69.1236-65.1407 66.6031-64.4254 65.3861-62.1979L64.7214-61.0965C63.5044-58.869 64.1076-56.3249 66.2072-55.1417ZM109.419-30.0531L114.223-27.2395C116.378-25.9823 118.966-26.7023 120.146-28.9298L120.773-30.0383C121.953-32.3028 121.461-34.78 119.287-36.0372L114.465-38.7839Z"/>
  </g>
  <g id="Medium-M" transform="matrix(1 0 0 1 1682.24 1126)">
   <path d="M15.9214-58.2977L18.9868-58.2977C20.9705-58.2977 22.4473-59.7745 22.4473-61.7581L22.4473-81.9684C22.4473-83.952 20.9705-85.4288 18.9868-85.4288L15.9214-85.4288C13.9464-85.4288 12.4609-83.952 12.4609-81.9684L12.4609-61.7581C12.4609-59.7745 13.9464-58.2977 15.9214-58.2977ZM15.9214-21.9703L18.9868-21.9703C20.9705-21.9703 22.4473-23.4557 22.4473-25.3873L22.4473-45.5627C22.4473-47.5378 20.9705-49.0232 18.9868-49.0232L15.9214-49.0232C13.9464-49.0232 12.4609-47.5378 12.4609-45.5627L12.4609-25.3873C12.4609-23.4557 13.9464-21.9703 15.9214-21.9703ZM15.9214 14.4868L18.9868 14.4868C20.9705 14.4868 22.4473 13.0099 22.4473 11.0263L22.4473-9.26449C22.4473-11.2395 20.9705-12.7249 18.9868-12.7249L15.9214-12.7249C13.9464-12.7249 12.4609-11.2395 12.4609-9.26449L12.4609 11.0263C12.4609 13.0099 13.9464 14.4868 15.9214 14.4868ZM105.597-67.7843L115.584-62.4402L115.584-81.977C115.584-83.9606 114.107-85.4374 112.123-85.4374L109.058-85.4374C107.083-85.4374 105.597-83.9606 105.597-81.977ZM109.058 14.4782L112.123 14.4782C114.107 14.4782 115.584 13.0013 115.584 11.0177L115.584-9.2731C115.584-11.2481 114.107-12.7335 112.123-12.7335L109.058-12.7335C107.083-12.7335 105.597-11.2481 105.597-9.2731L105.597 11.0177C105.597 13.0013 107.083 14.4782 109.058 14.4782ZM61.2339 4.57603C76.4096 13.345 85.3544 13.6922 90.5212 4.82278L119.714-45.757C125.05-54.994 119.925-65.0823 106.026-73.0514C92.2331-81.0016 80.9713-80.4571 75.646-71.1783L46.4531-20.6419C41.2776-11.7811 46.0788-4.17409 61.2339 4.57603ZM87.2118-40.394C84.2489-42.0993 79.7499-44.2762 78.3522-45.1372C75.8348-46.5662 75.3729-48.2444 76.6362-50.9002L79.3511-56.8982C81.677-61.8488 85.9355-61.7855 96.1505-55.9062C106.399-49.9646 108.597-46.3539 105.484-41.9034L101.639-36.4346C99.9436-33.9846 98.2047-33.6509 95.741-35.0262C94.3867-35.8454 90.044-38.733 87.2118-40.394ZM68.4176-7.89267C58.1961-13.7829 55.7302-17.3057 59.2448-21.7648L61.2488-24.2685C64.0433-27.8119 67.9085-27.2289 76.6693-22.1119C85.5084-17.0487 87.932-14.1168 86.2365-9.82703L85.0932-6.85068C83.0383-1.60577 78.7363-1.9259 68.4176-7.89267ZM69.1517-52.5751L74.0335-60.9555L69.1636-63.8079C67.0805-65.0104 64.6593-64.3355 63.5158-62.2914L62.7427-61.014C61.5992-58.97 62.2422-56.4996 64.2368-55.384ZM106.782-30.7409L111.635-27.8971C113.683-26.6946 116.182-27.3854 117.282-29.4295L118.012-30.7155C119.112-32.8029 118.599-35.1951 116.518-36.3975L111.655-39.1631Z"/>
  </g>
  <g id="Regular-M" transform="matrix(1 0 0 1 1387.67 1126)">
   <path d="M15.3506-58.3526L17.9317-58.3526C19.5994-58.3526 20.8214-59.5746 20.8214-61.2422L20.8214-81.9193C20.8214-83.587 19.5994-84.809 17.9317-84.809L15.3506-84.809C13.6935-84.809 12.4609-83.587 12.4609-81.9193L12.4609-61.2422C12.4609-59.5746 13.6935-58.3526 15.3506-58.3526ZM15.3506-22.1787L17.9317-22.1787C19.5994-22.1787 20.8214-23.4112 20.8214-25.0166L20.8214-45.6524C20.8214-47.3096 19.5994-48.5421 17.9317-48.5421L15.3506-48.5421C13.6935-48.5421 12.4609-47.3096 12.4609-45.6524L12.4609-25.0166C12.4609-23.4112 13.6935-22.1787 15.3506-22.1787ZM15.3506 14.0882L17.9317 14.0882C19.5994 14.0882 20.8214 12.8662 20.8214 11.1986L20.8214-9.48907C20.8214-11.1462 19.5994-12.3787 17.9317-12.3787L15.3506-12.3787C13.6935-12.3787 12.4609-11.1462 12.4609-9.48907L12.4609 11.1986C12.4609 12.8662 13.6935 14.0882 15.3506 14.0882ZM103.54-67.7053L111.9-62.9696L111.9-81.9299C111.9-83.5975 110.678-84.8195 109.011-84.8195L106.429-84.8195C104.772-84.8195 103.54-83.5975 103.54-81.9299ZM106.429 14.0777L109.011 14.0777C110.678 14.0777 111.9 12.8557 111.9 11.188L111.9-9.49962C111.9-11.1567 110.678-12.3893 109.011-12.3893L106.429-12.3893C104.772-12.3893 103.54-11.1567 103.54-9.49962L103.54 11.188C103.54 12.8557 104.772 14.0777 106.429 14.0777ZM58.3746 3.79585C73.292 12.4225 81.9669 12.9009 86.9704 4.32594L116.158-46.2488C121.266-55.1047 116.126-65.1021 102.596-72.8489C89.1792-80.5853 77.998-80.1185 72.89-71.2004L43.7023-20.6773C38.6883-12.113 43.4571-4.8203 58.3746 3.79585ZM84.1717-40.8711C81.272-42.5342 76.7419-44.737 75.2149-45.6821C72.7534-47.0739 72.2856-48.7149 73.5528-51.3433L76.2002-57.219C78.5055-62.0893 82.6051-62.0933 92.9577-56.1272C103.362-50.0987 105.434-46.5991 102.371-42.2167L98.5922-36.8394C96.9301-34.4085 95.2162-34.1075 92.8064-35.4476C91.3312-36.3304 86.9237-39.2511 84.1717-40.8711ZM65.4934-8.56312C55.2398-14.464 52.7782-17.9329 56.2356-22.3259L58.2294-24.8085C60.9602-28.2775 64.7407-27.7273 73.6045-22.5425C82.5613-17.4094 84.8983-14.573 83.2361-10.3469L82.1242-7.39743C80.1294-2.23669 75.8505-2.55877 65.4934-8.56312ZM66.645-52.8581L71.3033-60.8156L66.3661-63.7092C64.4156-64.8403 62.1239-64.2182 61.0762-62.4134L60.1618-60.9065C59.1141-59.1017 59.809-56.7276 61.6666-55.7001ZM103.342-31.6379L108.258-28.7548C110.167-27.6237 112.552-28.2764 113.548-30.0813L114.411-31.5987C115.406-33.4553 114.867-35.7364 112.906-36.8675L107.99-39.6576Z"/>
  </g>
  <g id="Light-M" transform="matrix(1 0 0 1 1091.98 1126)">
   <path d="M14.5806-58.113L16.6997-58.113C17.9396-58.113 18.8194-58.9928 18.8194-60.2327L18.8194-82.2102C18.8194-83.4501 17.9396-84.3299 16.6997-84.3299L14.5806-84.3299C13.3684-84.3299 12.4609-83.4501 12.4609-82.2102L12.4609-60.2327C12.4609-58.9928 13.3684-58.113 14.5806-58.113ZM14.5806-22.384L16.6997-22.384C17.9396-22.384 18.8194-23.2914 18.8194-24.469L18.8194-46.4395C18.8194-47.6518 17.9396-48.5592 16.6997-48.5592L14.5806-48.5592C13.3684-48.5592 12.4609-47.6518 12.4609-46.4395L12.4609-24.469C12.4609-23.2914 13.3684-22.384 14.5806-22.384ZM14.5806 13.3867L16.6997 13.3867C17.9396 13.3867 18.8194 12.5069 18.8194 11.267L18.8194-10.7382C18.8194-11.9504 17.9396-12.8578 16.6997-12.8578L14.5806-12.8578C13.3684-12.8578 12.4609-11.9504 12.4609-10.7382L12.4609 11.267C12.4609 12.5069 13.3684 13.3867 14.5806 13.3867ZM103.523-68.1844L109.881-64.4583L109.881-82.2379C109.881-83.4778 109.001-84.3575 107.762-84.3575L105.642-84.3575C104.43-84.3575 103.523-83.4778 103.523-82.2379ZM105.642 13.359L107.762 13.359C109.001 13.359 109.881 12.4792 109.881 11.2393L109.881-10.7658C109.881-11.9781 109.001-12.8855 107.762-12.8855L105.642-12.8855C104.43-12.8855 103.523-11.9781 103.523-10.7658L103.523 11.2393C103.523 12.4792 104.43 13.359 105.642 13.359ZM55.7395 3.98407C70.1949 12.3541 79.2976 12.9009 84.13 4.56549L114.173-47.4979C119.179-56.1655 114.09-65.9063 100.542-73.6874C87.0916-81.4408 76.1671-81.0254 71.1618-72.2955L41.1185-20.2667C36.2585-11.959 41.284-4.3583 55.7395 3.98407ZM81.8446-41.1791C78.6883-43.0133 73.8844-45.353 72.3061-46.3152C69.7932-47.7412 69.2741-49.4165 70.5755-52.1646L73.1716-57.8692C75.4769-62.7566 79.354-63.1713 90.7332-56.6234C102.147-50.0132 103.74-46.4964 100.66-42.0798L97.018-36.8736C95.2874-34.34 93.5222-34.0562 91.044-35.4476C89.5003-36.3475 84.6137-39.5591 81.8446-41.1791ZM62.3792-7.50224C51.6636-13.6769 49.1507-17.2143 52.5568-21.6586L54.5505-24.2268C57.2643-27.7642 61.1132-27.2311 70.6101-21.7212C80.1487-16.2458 82.5369-13.2555 80.8064-9.04642L79.6089-6.06278C77.5115-0.919149 73.1641-1.25833 62.3792-7.50224ZM64.489-54.6206L68.7195-61.8422L64.3641-64.3766C62.5847-65.4221 60.6181-64.9027 59.6902-63.3032L58.7073-61.6765C57.7795-60.077 58.3888-58.0965 60.1266-57.1203ZM102.195-32.8357L106.496-30.329C108.268-29.2835 110.276-29.7822 111.169-31.3817L112.118-33.036C113.011-34.6702 112.505-36.6091 110.698-37.6546L106.398-40.1196Z"/>
  </g>
  <g id="Thin-M" transform="matrix(1 0 0 1 796.612 1126)">
   <path d="M13.5622-57.7962L15.0703-57.7962C15.7445-57.7962 16.1716-58.2234 16.1716-58.8975L16.1716-82.5949C16.1716-83.269 15.7445-83.6962 15.0703-83.6962L13.5622-83.6962C12.9384-83.6962 12.4609-83.269 12.4609-82.5949L12.4609-58.8975C12.4609-58.2234 12.9384-57.7962 13.5622-57.7962ZM13.5622-22.6556L15.0703-22.6556C15.7445-22.6556 16.1716-23.133 16.1716-23.7448L16.1716-47.4805C16.1716-48.1044 15.7445-48.5818 15.0703-48.5818L13.5622-48.5818C12.9384-48.5818 12.4609-48.1044 12.4609-47.4805L12.4609-23.7448C12.4609-23.133 12.9384-22.6556 13.5622-22.6556ZM13.5622 12.4588L15.0703 12.4588C15.7445 12.4588 16.1716 12.0316 16.1716 11.3575L16.1716-12.3902C16.1716-13.014 15.7445-13.4915 15.0703-13.4915L13.5622-13.4915C12.9384-13.4915 12.4609-13.014 12.4609-12.3902L12.4609 11.3575C12.4609 12.0316 12.9384 12.4588 13.5622 12.4588ZM103.5-68.8181L107.211-66.4271L107.211-82.6452C107.211-83.3193 106.784-83.7465 106.11-83.7465L104.601-83.7465C103.978-83.7465 103.5-83.3193 103.5-82.6452ZM104.601 12.4085L106.11 12.4085C106.784 12.4085 107.211 11.9814 107.211 11.3072L107.211-12.4405C107.211-13.0643 106.784-13.5418 106.11-13.5418L104.601-13.5418C103.978-13.5418 103.5-13.0643 103.5-12.4405L103.5 11.3072C103.5 11.9814 103.978 12.4085 104.601 12.4085ZM52.2544 4.233C66.0988 12.2636 75.7672 12.9009 80.3733 4.88232L111.548-49.15C116.418-57.5686 111.397-66.9699 97.8268-74.7963C84.3307-82.5723 73.7456-82.2248 68.8761-73.7438L37.7013-19.7235C33.045-11.7553 38.4099-3.74728 52.2544 4.233ZM78.7669-41.5864C75.2711-43.647 70.105-46.1677 68.4589-47.1525C65.8781-48.6238 65.2911-50.3443 66.6378-53.2509L69.166-58.7292C71.4713-63.6392 75.0542-64.597 87.7913-57.2797C100.54-49.9 101.5-46.3606 98.3965-41.8987L94.936-36.9188C93.1149-34.2495 91.2818-33.9883 88.713-35.4476C87.0789-36.3701 81.5585-39.9665 78.7669-41.5864ZM58.2604-6.09915C46.9338-12.6359 44.353-16.2638 47.6912-20.776L49.6849-23.4573C52.3761-27.0853 56.3155-26.5748 66.6498-20.6349C76.9578-14.707 79.4139-11.5129 77.5928-7.32649L76.2822-4.29759C74.049 0.823407 69.6111 0.461591 58.2604-6.09915ZM61.6375-56.9515L65.3023-63.2001L61.7164-65.2592C60.1632-66.1915 58.6266-65.8079 57.8572-64.48L56.7837-62.6949C56.0143-61.367 56.5105-59.9069 58.0899-58.9986ZM100.679-34.4198L104.165-32.411C105.756-31.4787 107.266-31.7737 108.024-33.1016L109.085-34.937C109.843-36.2769 109.382-37.7633 107.779-38.6956L104.294-40.7307Z"/>
  </g>
  <g id="Ultralight-M" transform="matrix(1 0 0 1 500.59 1126)">
   <path d="M13.0406-57.6339L14.2358-57.6339C14.6201-57.6339 14.8154-57.8292 14.8154-58.2136L14.8154-82.792C14.8154-83.1763 14.6201-83.3716 14.2358-83.3716L13.0406-83.3716C12.7182-83.3716 12.4609-83.1763 12.4609-82.792L12.4609-58.2136C12.4609-57.8292 12.7182-57.6339 13.0406-57.6339ZM13.0406-22.7947L14.2358-22.7947C14.6201-22.7947 14.8154-23.0519 14.8154-23.3739L14.8154-48.0137C14.8154-48.3362 14.6201-48.5934 14.2358-48.5934L13.0406-48.5934C12.7182-48.5934 12.4609-48.3362 12.4609-48.0137L12.4609-23.3739C12.4609-23.0519 12.7182-22.7947 13.0406-22.7947ZM13.0406 11.9836L14.2358 11.9836C14.6201 11.9836 14.8154 11.7882 14.8154 11.4039L14.8154-13.2364C14.8154-13.5588 14.6201-13.816 14.2358-13.816L13.0406-13.816C12.7182-13.816 12.4609-13.5588 12.4609-13.2364L12.4609 11.4039C12.4609 11.7882 12.7182 11.9836 13.0406 11.9836ZM103.489-69.1426L105.843-67.4356L105.843-82.8539C105.843-83.2382 105.648-83.4335 105.263-83.4335L104.068-83.4335C103.746-83.4335 103.489-83.2382 103.489-82.8539ZM104.068 11.9217L105.263 11.9217C105.648 11.9217 105.843 11.7263 105.843 11.342L105.843-13.2983C105.843-13.6207 105.648-13.8779 105.263-13.8779L104.068-13.8779C103.746-13.8779 103.489-13.6207 103.489-13.2983L103.489 11.342C103.489 11.7263 103.746 11.9217 104.068 11.9217ZM50.4693 4.36051C64.0008 12.2172 73.959 12.9009 78.4492 5.0446L110.204-49.9961C115.003-58.2873 110.018-67.5147 96.4359-75.3642C82.9166-83.1519 72.5054-82.8391 67.7054-74.4857L35.951-19.4454C31.399-11.651 36.9378-3.43431 50.4693 4.36051ZM77.1904-41.7951C73.5208-43.9715 68.1693-46.5849 66.4883-47.5814C63.8728-49.0759 63.251-50.8196 64.6209-53.8072L67.1143-59.1697C69.4196-64.0913 72.8518-65.3273 86.2844-57.6158C99.7174-49.842 100.352-46.2911 97.2374-41.806L93.8696-36.942C92.0021-34.2031 90.1342-33.9535 87.5191-35.4476C85.8386-36.3817 79.9937-40.1751 77.1904-41.7951ZM56.1508-5.38049C44.5112-12.1027 41.8957-15.777 45.1991-20.3239L47.1928-23.0632C49.8723-26.7375 53.8582-26.2387 64.6213-20.0785C75.3234-13.9188 77.8143-10.6204 75.9469-6.44556L74.5783-3.39347C72.2755 1.71594 67.7913 1.34253 56.1508-5.38049ZM60.177-58.1454L63.552-63.8956L60.3602-65.7112C58.923-66.5856 57.6066-66.2715 56.9183-65.0827L55.7985-63.2165C55.1102-62.0277 55.5484-60.8342 57.0467-59.9607ZM99.9026-35.2312L102.971-33.4774C104.469-32.603 105.725-32.7937 106.413-33.9826L107.532-35.9106C108.22-37.0999 107.783-38.3544 106.284-39.2288L103.216-41.0436Z"/>
  </g>
  <g id="Black-S" transform="matrix(1 0 0 1 2874.56 696)">
   <path d="M14.6973-53.0762L18.9941-53.0762C21.7773-53.0762 23.9258-55.2246 23.9258-58.0078L23.9258-72.0703C23.9258-74.8535 21.7773-77.002 18.9941-77.002L14.6973-77.002C11.9141-77.002 9.76562-74.8535 9.76562-72.0703L9.76562-58.0078C9.76562-55.2246 11.9141-53.0762 14.6973-53.0762ZM14.6973-24.0234L18.9941-24.0234C21.7773-24.0234 23.9258-26.1719 23.9258-28.9551L23.9258-43.0176C23.9258-45.8008 21.7773-47.9492 18.9941-47.9492L14.6973-47.9492C11.9141-47.9492 9.76562-45.8008 9.76562-43.0176L9.76562-28.9551C9.76562-26.1719 11.9141-24.0234 14.6973-24.0234ZM14.6973 5.27344L18.9941 5.27344C21.7773 5.27344 23.9258 3.125 23.9258 0.341797L23.9258-14.0625C23.9258-16.8457 21.7773-18.9941 18.9941-18.9941L14.6973-18.9941C11.9141-18.9941 9.76562-16.8457 9.76562-14.0625L9.76562 0.341797C9.76562 3.125 11.9141 5.27344 14.6973 5.27344ZM90.918-61.084L105.078-54.541L105.078-72.0703C105.078-74.8535 102.93-77.002 100.146-77.002L95.8496-77.002C93.0664-77.002 90.918-74.8535 90.918-72.0703ZM95.8496 5.27344L100.146 5.27344C102.93 5.27344 105.078 3.125 105.078 0.341797L105.078-14.0625C105.078-16.8457 102.93-18.9941 100.146-18.9941L95.8496-18.9941C93.0664-18.9941 90.918-16.8457 90.918-14.0625L90.918 0.341797C90.918 3.125 93.0664 5.27344 95.8496 5.27344ZM59.1797-0.927734C72.0703 6.49414 80.1758 6.25 84.8633-1.85547L107.812-41.6016C112.891-50.3418 108.936-58.5938 96.582-65.7227C84.2773-72.8027 75.1465-72.0703 70.1172-63.3789L47.168-23.6328C42.4805-15.5273 46.3867-8.30078 59.1797-0.927734ZM80.2734-37.4023C77.6855-38.916 74.2676-40.5273 73.6816-40.8691C71.4844-42.1387 71.1426-43.6035 72.1191-45.8008L74.5117-50.9766C76.416-55.1758 80.3711-54.8828 87.8906-50.5859C95.3613-46.2402 97.5586-42.9688 94.9219-39.209L91.6504-34.5703C90.1855-32.5684 88.7207-32.1777 86.5723-33.3984C85.9863-33.7891 82.8125-35.9375 80.2734-37.4023ZM65.0391-11.084C57.1289-15.6738 55.1758-18.6523 58.1543-22.4121L59.7656-24.4629C62.207-27.5391 65.5762-26.9531 72.0703-23.1934C78.5645-19.4824 80.8105-16.7969 79.3457-13.1836L78.3203-10.7422C76.4648-6.29883 72.998-6.54297 65.0391-11.084ZM64.0137-47.8027L68.7012-56.0059L65.1855-58.0566C63.0371-59.2773 60.6445-58.5449 59.375-56.0059L59.3262-55.9082C58.0566-53.3691 58.3496-51.0742 60.4492-49.8535ZM97.2656-28.2227L100.781-26.1719C102.93-24.9512 105.322-25.6348 106.592-28.1738L106.641-28.2715C107.91-30.8105 107.617-33.1055 105.518-34.3262L101.953-36.377Z"/>
  </g>
  <g id="Heavy-S" transform="matrix(1 0 0 1 2580.12 696)">
   <path d="M14.1556-53.1684L17.9685-53.1684C20.452-53.1684 22.3585-55.0748 22.3585-57.5584L22.3585-71.9781C22.3585-74.4617 20.452-76.3681 17.9685-76.3681L14.1556-76.3681C11.672-76.3681 9.76562-74.4617 9.76562-71.9781L9.76562-57.5584C9.76562-55.0748 11.672-53.1684 14.1556-53.1684ZM14.1556-24.2309L17.9685-24.2309C20.452-24.2309 22.3585-26.1373 22.3585-28.6093L22.3585-43.0176C22.3585-45.5011 20.452-47.4076 17.9685-47.4076L14.1556-47.4076C11.672-47.4076 9.76562-45.5011 9.76562-43.0176L9.76562-28.6093C9.76562-26.1373 11.672-24.2309 14.1556-24.2309ZM14.1556 4.91618L17.9685 4.91618C20.452 4.91618 22.3585 3.00976 22.3585 0.526188L22.3585-14.1547C22.3585-16.6383 20.452-18.5447 17.9685-18.5447L14.1556-18.5447C11.672-18.5447 9.76562-16.6383 9.76562-14.1547L9.76562 0.526188C9.76562 3.00976 11.672 4.91618 14.1556 4.91618ZM88.6131-60.9342L101.206-54.9444L101.206-71.9781C101.206-74.4617 99.2995-76.3681 96.8159-76.3681L93.0031-76.3681C90.5195-76.3681 88.6131-74.4617 88.6131-71.9781ZM93.0031 4.91618L96.8159 4.91618C99.2995 4.91618 101.206 3.00976 101.206 0.526188L101.206-14.1547C101.206-16.6383 99.2995-18.5447 96.8159-18.5447L93.0031-18.5447C90.5195-18.5447 88.6131-16.6383 88.6131-14.1547L88.6131 0.526188C88.6131 3.00976 90.5195 4.91618 93.0031 4.91618ZM56.3101-1.82664C68.9702 5.46846 76.7184 5.36262 81.2446-2.44322L104.079-41.9934C108.915-50.3303 104.937-58.5131 92.9979-65.3884C81.1196-72.2265 72.0464-71.5748 67.2476-63.2637L44.4136-23.725C39.8875-15.9192 43.7246-9.08444 56.3101-1.82664ZM77.1618-37.8979C74.6777-39.3424 71.2597-40.9653 70.5355-41.3993C68.4073-42.6227 68.0655-44.0414 69.0421-46.1926L71.3655-51.2531C73.2468-55.3602 77.052-55.0903 84.5946-50.7703C92.1114-46.4016 94.228-43.2569 91.6489-39.5778L88.4351-35.0198C87.0163-33.0524 85.586-32.6963 83.5068-33.8709C82.7941-34.3307 79.6087-36.4791 77.1618-37.8979ZM62.1579-11.9714C54.2708-16.5382 52.3292-19.4475 55.2501-23.1266L56.8499-25.1428C59.2222-28.1268 62.4876-27.5754 69.0163-23.7811C75.5681-20.0356 77.7105-17.4768 76.2917-13.9327L75.3124-11.5259C73.5376-7.17469 70.1054-7.41883 62.1579-11.9714ZM61.4783-47.8949L65.9699-55.7177L62.3044-57.8607C60.2828-59.0123 57.9939-58.326 56.8166-56.0289L56.6179-55.6892C55.4406-53.3922 55.8027-51.1549 57.764-50.0264ZM93.5547-29.0755L97.2202-26.9325C99.2303-25.7809 101.542-26.4415 102.708-28.7385L102.895-29.0782C104.061-31.3868 103.733-33.601 101.749-34.7526L98.0463-36.8725Z"/>
  </g>
  <g id="Bold-S" transform="matrix(1 0 0 1 2285.95 696)">
   <path d="M13.5498-53.2715L16.8213-53.2715C18.9697-53.2715 20.6055-54.9072 20.6055-57.0557L20.6055-71.875C20.6055-74.0234 18.9697-75.6592 16.8213-75.6592L13.5498-75.6592C11.4014-75.6592 9.76562-74.0234 9.76562-71.875L9.76562-57.0557C9.76562-54.9072 11.4014-53.2715 13.5498-53.2715ZM13.5498-24.4629L16.8213-24.4629C18.9697-24.4629 20.6055-26.0986 20.6055-28.2227L20.6055-43.0176C20.6055-45.166 18.9697-46.8018 16.8213-46.8018L13.5498-46.8018C11.4014-46.8018 9.76562-45.166 9.76562-43.0176L9.76562-28.2227C9.76562-26.0986 11.4014-24.4629 13.5498-24.4629ZM13.5498 4.5166L16.8213 4.5166C18.9697 4.5166 20.6055 2.88086 20.6055 0.732422L20.6055-14.2578C20.6055-16.4062 18.9697-18.042 16.8213-18.042L13.5498-18.042C11.4014-18.042 9.76562-16.4062 9.76562-14.2578L9.76562 0.732422C9.76562 2.88086 11.4014 4.5166 13.5498 4.5166ZM86.0352-60.7666L96.875-55.3955L96.875-71.875C96.875-74.0234 95.2393-75.6592 93.0908-75.6592L89.8193-75.6592C87.6709-75.6592 86.0352-74.0234 86.0352-71.875ZM89.8193 4.5166L93.0908 4.5166C95.2393 4.5166 96.875 2.88086 96.875 0.732422L96.875-14.2578C96.875-16.4062 95.2393-18.042 93.0908-18.042L89.8193-18.042C87.6709-18.042 86.0352-16.4062 86.0352-14.2578L86.0352 0.732422C86.0352 2.88086 87.6709 4.5166 89.8193 4.5166ZM53.1006-2.83203C65.5029 4.32129 72.8516 4.37012 77.1973-3.10059L99.9023-42.4316C104.468-50.3174 100.464-58.4229 88.9893-65.0146C77.5879-71.582 68.5791-71.0205 64.0381-63.1348L41.333-23.8281C36.9873-16.3574 40.7471-9.96094 53.1006-2.83203ZM73.6816-38.4521C71.3135-39.8193 67.8955-41.4551 67.0166-41.9922C64.9658-43.1641 64.624-44.5312 65.6006-46.6309L67.8467-51.5625C69.7021-55.5664 73.3398-55.3223 80.9082-50.9766C88.4766-46.582 90.5029-43.5791 87.9883-39.9902L84.8389-35.5225C83.4717-33.5938 82.0801-33.2764 80.0781-34.3994C79.2236-34.9365 76.0254-37.085 73.6816-38.4521ZM58.9355-12.9639C51.0742-17.5049 49.1455-20.3369 52.002-23.9258L53.5889-25.9033C55.8838-28.7842 59.0332-28.2715 65.6006-24.4385C72.2168-20.6543 74.2432-18.2373 72.876-14.7705L71.9482-12.4023C70.2637-8.1543 66.8701-8.39844 58.9355-12.9639ZM58.6426-47.998L62.915-55.3955L59.082-57.6416C57.2021-58.7158 55.0293-58.0811 53.9551-56.0547L53.5889-55.4443C52.5146-53.418 52.9541-51.2451 54.7607-50.2197ZM89.4043-30.0293L93.2373-27.7832C95.0928-26.709 97.3145-27.3438 98.3643-29.3701L98.7061-29.9805C99.7559-32.0312 99.3896-34.1553 97.5342-35.2295L93.6768-37.4268Z"/>
  </g>
  <g id="Semibold-S" transform="matrix(1 0 0 1 1990.99 696)">
   <path d="M13.1321-53.3426L16.0304-53.3426C17.9478-53.3426 19.3969-54.7917 19.3969-56.7091L19.3969-71.8039C19.3969-73.7213 17.9478-75.1704 16.0304-75.1704L13.1321-75.1704C11.2147-75.1704 9.76562-73.7213 9.76562-71.8039L9.76562-56.7091C9.76562-54.7917 11.2147-53.3426 13.1321-53.3426ZM13.1321-24.6229L16.0304-24.6229C17.9478-24.6229 19.3969-26.072 19.3969-27.9561L19.3969-43.0176C19.3969-44.935 17.9478-46.3841 16.0304-46.3841L13.1321-46.3841C11.2147-46.3841 9.76562-44.935 9.76562-43.0176L9.76562-27.9561C9.76562-26.072 11.2147-24.6229 13.1321-24.6229ZM13.1321 4.24111L16.0304 4.24111C17.9478 4.24111 19.3969 2.79199 19.3969 0.874609L19.3969-14.3289C19.3969-16.2463 17.9478-17.6954 16.0304-17.6954L13.1321-17.6954C11.2147-17.6954 9.76562-16.2463 9.76562-14.3289L9.76562 0.874609C9.76562 2.79199 11.2147 4.24111 13.1321 4.24111ZM84.2578-60.6511L93.8891-55.7065L93.8891-71.8039C93.8891-73.7213 92.4399-75.1704 90.5226-75.1704L87.6243-75.1704C85.7069-75.1704 84.2578-73.7213 84.2578-71.8039ZM87.6243 4.24111L90.5226 4.24111C92.4399 4.24111 93.8891 2.79199 93.8891 0.874609L93.8891-14.3289C93.8891-16.2463 92.4399-17.6954 90.5226-17.6954L87.6243-17.6954C85.7069-17.6954 84.2578-16.2463 84.2578-14.3289L84.2578 0.874609C84.2578 2.79199 85.7069 4.24111 87.6243 4.24111ZM50.8878-3.5252C63.1124 3.53037 70.1855 3.68584 74.4068-3.55381L97.023-42.7338C101.402-50.3085 97.3802-58.3606 86.2255-64.7569C75.1529-71.1377 66.1886-70.6384 61.8253-63.0459L39.2091-23.8992C34.9878-16.6596 38.6942-10.5652 50.8878-3.5252ZM71.2822-38.8343C68.994-40.1481 65.5761-41.7928 64.5905-42.401C62.5931-43.5373 62.2513-44.8689 63.2278-46.933L65.4206-51.7758C67.2583-55.7086 70.7805-55.4822 78.3666-51.1187C85.9705-46.7064 87.9347-43.8013 85.4645-40.2746L82.3595-35.869C81.0278-33.967 79.6629-33.6763 77.7143-34.7638C76.762-35.3542 73.5549-37.5026 71.2822-38.8343ZM56.7139-13.6481C48.8703-18.1714 46.9505-20.9501 49.7625-24.4768L51.3405-26.4276C53.5821-29.2374 56.6516-28.7514 63.2456-24.8917C69.9062-21.0809 71.8526-18.7616 70.521-15.3481L69.6288-13.0066C68.0064-8.82969 64.6396-9.07383 56.7139-13.6481ZM56.6875-48.0691L60.8089-55.1733L56.8604-57.4905C55.0782-58.5114 52.9854-57.9122 51.9822-56.0725L51.5005-55.2755C50.4974-53.4357 50.9901-51.3073 52.6901-50.353ZM86.5428-30.6869L90.4913-28.3697C92.2401-27.3488 94.3996-27.9658 95.3694-29.8056L95.8179-30.6025C96.7877-32.4756 96.3948-34.5374 94.6282-35.5583L90.6642-37.8089Z"/>
  </g>
  <g id="Medium-S" transform="matrix(1 0 0 1 1695.61 696)">
   <path d="M12.8154-53.3965L15.4307-53.3965C17.1729-53.3965 18.4805-54.7041 18.4805-56.4463L18.4805-71.75C18.4805-73.4922 17.1729-74.7998 15.4307-74.7998L12.8154-74.7998C11.0732-74.7998 9.76562-73.4922 9.76562-71.75L9.76562-56.4463C9.76562-54.7041 11.0732-53.3965 12.8154-53.3965ZM12.8154-24.7441L15.4307-24.7441C17.1729-24.7441 18.4805-26.0518 18.4805-27.7539L18.4805-43.0176C18.4805-44.7598 17.1729-46.0674 15.4307-46.0674L12.8154-46.0674C11.0732-46.0674 9.76562-44.7598 9.76562-43.0176L9.76562-27.7539C9.76562-26.0518 11.0732-24.7441 12.8154-24.7441ZM12.8154 4.03223L15.4307 4.03223C17.1729 4.03223 18.4805 2.72461 18.4805 0.982422L18.4805-14.3828C18.4805-16.125 17.1729-17.4326 15.4307-17.4326L12.8154-17.4326C11.0732-17.4326 9.76562-16.125 9.76562-14.3828L9.76562 0.982422C9.76562 2.72461 11.0732 4.03223 12.8154 4.03223ZM82.9102-60.5635L91.625-55.9424L91.625-71.75C91.625-73.4922 90.3174-74.7998 88.5752-74.7998L85.96-74.7998C84.2178-74.7998 82.9102-73.4922 82.9102-71.75ZM85.96 4.03223L88.5752 4.03223C90.3174 4.03223 91.625 2.72461 91.625 0.982422L91.625-14.3828C91.625-16.125 90.3174-17.4326 88.5752-17.4326L85.96-17.4326C84.2178-17.4326 82.9102-16.125 82.9102-14.3828L82.9102 0.982422C82.9102 2.72461 84.2178 4.03223 85.96 4.03223ZM49.21-4.05078C61.2998 2.93066 68.1641 3.16699 72.291-3.89746L94.8398-42.9629C99.0771-50.3018 95.042-58.3135 84.1299-64.5615C73.3066-70.8008 64.376-70.3486 60.1475-62.9785L37.5986-23.9531C33.4717-16.8887 37.1377-11.0234 49.21-4.05078ZM69.4629-39.124C67.2354-40.3975 63.8174-42.0488 62.751-42.7109C60.7939-43.8203 60.4521-45.125 61.4287-47.1621L63.5811-51.9375C65.4053-55.8164 68.8398-55.6035 76.4395-51.2266C84.0703-46.8008 85.9873-43.9697 83.5508-40.4902L80.4795-36.1318C79.1748-34.25 77.8301-33.9795 75.9219-35.04C74.8955-35.6709 71.6816-37.8193 69.4629-39.124ZM55.0293-14.167C47.1992-18.6768 45.2861-21.415 48.0645-24.8945L49.6357-26.8252C51.8369-29.5811 54.8457-29.1152 61.46-25.2354C68.1543-21.4043 70.04-19.1592 68.7354-15.7861L67.8701-13.4648C66.2949-9.3418 62.9482-9.58594 55.0293-14.167ZM55.2051-48.123L59.2119-55.0049L55.1758-57.376C53.4678-58.3564 51.4355-57.7842 50.4863-56.0859L49.917-55.1475C48.9678-53.4492 49.501-51.3545 51.1201-50.4541ZM84.373-31.1855L88.4092-28.8145C90.0771-27.834 92.1895-28.4375 93.0986-30.1357L93.6279-31.0742C94.5371-32.8125 94.124-34.8271 92.4248-35.8076L88.3799-38.0986Z"/>
  </g>
  <g id="Regular-S" transform="matrix(1 0 0 1 1400.63 696)">
   <path d="M12.4023-53.4668L14.6484-53.4668C16.1621-53.4668 17.2852-54.5898 17.2852-56.1035L17.2852-71.6797C17.2852-73.1934 16.1621-74.3164 14.6484-74.3164L12.4023-74.3164C10.8887-74.3164 9.76562-73.1934 9.76562-71.6797L9.76562-56.1035C9.76562-54.5898 10.8887-53.4668 12.4023-53.4668ZM12.4023-24.9023L14.6484-24.9023C16.1621-24.9023 17.2852-26.0254 17.2852-27.4902L17.2852-43.0176C17.2852-44.5312 16.1621-45.6543 14.6484-45.6543L12.4023-45.6543C10.8887-45.6543 9.76562-44.5312 9.76562-43.0176L9.76562-27.4902C9.76562-26.0254 10.8887-24.9023 12.4023-24.9023ZM12.4023 3.75977L14.6484 3.75977C16.1621 3.75977 17.2852 2.63672 17.2852 1.12305L17.2852-14.4531C17.2852-15.9668 16.1621-17.0898 14.6484-17.0898L12.4023-17.0898C10.8887-17.0898 9.76562-15.9668 9.76562-14.4531L9.76562 1.12305C9.76562 2.63672 10.8887 3.75977 12.4023 3.75977ZM81.1523-60.4492L88.6719-56.25L88.6719-71.6797C88.6719-73.1934 87.5488-74.3164 86.0352-74.3164L83.7891-74.3164C82.2754-74.3164 81.1523-73.1934 81.1523-71.6797ZM83.7891 3.75977L86.0352 3.75977C87.5488 3.75977 88.6719 2.63672 88.6719 1.12305L88.6719-14.4531C88.6719-15.9668 87.5488-17.0898 86.0352-17.0898L83.7891-17.0898C82.2754-17.0898 81.1523-15.9668 81.1523-14.4531L81.1523 1.12305C81.1523 2.63672 82.2754 3.75977 83.7891 3.75977ZM47.0215-4.73633C58.9355 2.14844 65.5273 2.49023 69.5312-4.3457L91.9922-43.2617C96.0449-50.293 91.9922-58.252 81.3965-64.3066C70.8984-70.3613 62.0117-69.9707 57.959-62.8906L35.498-24.0234C31.4941-17.1875 35.1074-11.6211 47.0215-4.73633ZM67.0898-39.502C64.9414-40.7227 61.5234-42.3828 60.3516-43.1152C58.4473-44.1895 58.1055-45.459 59.082-47.4609L61.1816-52.1484C62.9883-55.957 66.3086-55.7617 73.9258-51.3672C81.5918-46.9238 83.4473-44.1895 81.0547-40.7715L78.0273-36.4746C76.7578-34.6191 75.4395-34.375 73.584-35.4004C72.4609-36.084 69.2383-38.2324 67.0898-39.502ZM52.832-14.8438C45.0195-19.3359 43.1152-22.0215 45.8496-25.4395L47.4121-27.3438C49.5605-30.0293 52.4902-29.5898 59.1309-25.6836C65.8691-21.8262 67.6758-19.6777 66.4062-16.3574L65.5762-14.0625C64.0625-10.0098 60.7422-10.2539 52.832-14.8438ZM53.2715-48.1934L57.1289-54.7852L52.9785-57.2266C51.3672-58.1543 49.4141-57.6172 48.5352-56.1035L47.8516-54.9805C46.9727-53.4668 47.5586-51.416 49.0723-50.5859ZM81.543-31.8359L85.6934-29.3945C87.2559-28.4668 89.3066-29.0527 90.1367-30.5664L90.7715-31.6895C91.6016-33.252 91.1621-35.2051 89.5508-36.1328L85.4004-38.4766Z"/>
  </g>
  <g id="Light-S" transform="matrix(1 0 0 1 1104.82 696)">
   <path d="M11.7212-53.2549L13.5586-53.2549C14.6939-53.2549 15.5142-54.0752 15.5142-55.2105L15.5142-71.937C15.5142-73.0723 14.6939-73.8926 13.5586-73.8926L11.7212-73.8926C10.6011-73.8926 9.76562-73.0723 9.76562-71.937L9.76562-55.2105C9.76562-54.0752 10.6011-53.2549 11.7212-53.2549ZM11.7212-25.084L13.5586-25.084C14.6939-25.084 15.5142-25.9194 15.5142-27.0059L15.5142-43.7139C15.5142-44.834 14.6939-45.6694 13.5586-45.6694L11.7212-45.6694C10.6011-45.6694 9.76562-44.834 9.76562-43.7139L9.76562-27.0059C9.76562-25.9194 10.6011-25.084 11.7212-25.084ZM11.7212 3.13917L13.5586 3.13917C14.6939 3.13917 15.5142 2.31885 15.5142 1.18359L15.5142-15.5581C15.5142-16.6782 14.6939-17.5137 13.5586-17.5137L11.7212-17.5137C10.6011-17.5137 9.76562-16.6782 9.76562-15.5581L9.76562 1.18359C9.76562 2.31885 10.6011 3.13917 11.7212 3.13917ZM81.1372-60.873L86.8858-57.5669L86.8858-71.9521C86.8858-73.0874 86.0654-73.9077 84.9302-73.9077L83.0928-73.9077C81.9727-73.9077 81.1372-73.0874 81.1372-71.9521ZM83.0928 3.12403L84.9302 3.12403C86.0654 3.12403 86.8858 2.30371 86.8858 1.16846L86.8858-15.5732C86.8858-16.6934 86.0654-17.5288 84.9302-17.5288L83.0928-17.5288C81.9727-17.5288 81.1372-16.6934 81.1372-15.5732L81.1372 1.16846C81.1372 2.30371 81.9727 3.12403 83.0928 3.12403ZM44.6904-4.56983C56.1958 2.08789 63.166 2.49023 67.0186-4.13379L90.2363-44.3667C94.1983-51.2314 90.1909-58.9634 79.5801-65.0483C69.0518-71.1182 60.3921-70.7729 56.4302-63.8594L33.2124-23.6602C29.3447-17.0513 33.1851-11.2124 44.6904-4.56983ZM65.0313-39.7744C62.6558-41.1465 58.9956-42.9277 57.7783-43.6753C55.8286-44.7798 55.4414-46.0796 56.4483-48.1875L58.5025-52.7236C60.3091-56.5474 63.4326-56.7153 71.958-51.8061C80.5171-46.8481 81.9487-44.0986 79.541-40.6504L76.6348-36.5049C75.3047-34.5586 73.9409-34.3296 72.0249-35.4004C70.8413-36.0991 67.1948-38.5049 65.0313-39.7744ZM50.0772-13.9053C41.856-18.6397 39.9063-21.3857 42.5952-24.8491L44.1577-26.8291C46.291-29.5752 49.2813-29.1509 56.482-24.957C63.7349-20.7969 65.5869-18.5122 64.2569-15.207L63.3511-12.8818C61.7466-8.84425 58.3657-9.10352 50.0772-13.9053ZM51.3643-49.7524L54.8433-55.6934L51.2075-57.8169C49.7476-58.6689 48.082-58.2227 47.3091-56.8906L46.565-55.6616C45.792-54.3296 46.3023-52.6269 47.71-51.8423ZM80.5288-32.8955L84.1343-30.7871C85.5757-29.935 87.2935-30.3848 88.0327-31.7168L88.7432-32.9609C89.4824-34.3267 89.0733-35.977 87.5982-36.8291L83.9927-38.8853Z"/>
  </g>
  <g id="Thin-S" transform="matrix(1 0 0 1 809.295 696)">
   <path d="M10.8203-52.9746L12.1172-52.9746C12.752-52.9746 13.1719-53.3945 13.1719-54.0293L13.1719-72.2773C13.1719-72.9121 12.752-73.332 12.1172-73.332L10.8203-73.332C10.2207-73.332 9.76562-72.9121 9.76562-72.2773L9.76562-54.0293C9.76562-53.3945 10.2207-52.9746 10.8203-52.9746ZM10.8203-25.3242L12.1172-25.3242C12.752-25.3242 13.1719-25.7793 13.1719-26.3652L13.1719-44.6348C13.1719-45.2344 12.752-45.6895 12.1172-45.6895L10.8203-45.6895C10.2207-45.6895 9.76562-45.2344 9.76562-44.6348L9.76562-26.3652C9.76562-25.7793 10.2207-25.3242 10.8203-25.3242ZM10.8203 2.31837L12.1172 2.31837C12.752 2.31837 13.1719 1.89844 13.1719 1.26367L13.1719-17.0195C13.1719-17.6191 12.752-18.0742 12.1172-18.0742L10.8203-18.0742C10.2207-18.0742 9.76562-17.6191 9.76562-17.0195L9.76562 1.26367C9.76562 1.89844 10.2207 2.31837 10.8203 2.31837ZM81.1172-61.4336L84.5235-59.3086L84.5235-72.3125C84.5235-72.9473 84.1035-73.3672 83.4688-73.3672L82.1719-73.3672C81.5723-73.3672 81.1172-72.9473 81.1172-72.3125ZM82.1719 2.28321L83.4688 2.28321C84.1035 2.28321 84.5235 1.86329 84.5235 1.22851L84.5235-17.0547C84.5235-17.6543 84.1035-18.1094 83.4688-18.1094L82.1719-18.1094C81.5723-18.1094 81.1172-17.6543 81.1172-17.0547L81.1172 1.22851C81.1172 1.86329 81.5723 2.28321 82.1719 2.28321ZM41.6075-4.34961C52.5723 2.00781 60.043 2.49023 63.6954-3.85352L87.9141-45.8281C91.7559-52.4726 87.8086-59.9043 77.1778-66.0293C66.6094-72.1191 58.25-71.834 54.4082-65.1406L30.1895-23.1797C26.502-16.8711 30.6426-10.6719 41.6075-4.34961ZM62.3086-40.1348C59.6329-41.707 55.6524-43.6484 54.375-44.416C52.3653-45.5605 51.918-46.9004 52.9649-49.1484L54.959-53.4844C56.7657-57.3281 59.629-57.9765 69.3555-52.3867C79.0957-46.748 79.9668-43.9785 77.5391-40.4902L74.793-36.5449C73.3828-34.4785 71.959-34.2695 69.9629-35.4004C68.6992-36.1191 64.4922-38.8652 62.3086-40.1348ZM46.4336-12.6641C37.6719-17.7188 35.6622-20.5449 38.2911-24.0684L39.8536-26.1484C41.9669-28.9746 45.0372-28.5703 52.9786-23.9961C60.9121-19.4356 62.8243-16.9707 61.4141-13.6856L60.4082-11.3203C58.6836-7.30276 55.2227-7.58205 46.4336-12.6641ZM48.8418-51.8144L51.8204-56.8945L48.8653-58.5976C47.6055-59.3496 46.3203-59.0234 45.6875-57.9316L44.8633-56.5625C44.2305-55.4707 44.6406-54.2285 45.9082-53.5039ZM79.1875-34.2969L82.0723-32.6289C83.3535-31.8769 84.6309-32.1465 85.25-33.2383L86.0606-34.6426C86.6797-35.748 86.3106-36.998 85.0157-37.75L82.1309-39.4258Z"/>
  </g>
  <g id="Ultralight-S" transform="matrix(1 0 0 1 513.194 696)">
   <path d="M10.3589-52.8311L11.3789-52.8311C11.7574-52.8311 11.9722-53.0459 11.9722-53.4243L11.9722-72.4517C11.9722-72.8301 11.7574-73.0449 11.3789-73.0449L10.3589-73.0449C10.0259-73.0449 9.76562-72.8301 9.76562-72.4517L9.76562-53.4243C9.76562-53.0459 10.0259-52.8311 10.3589-52.8311ZM10.3589-25.4473L11.3789-25.4473C11.7574-25.4473 11.9722-25.7075 11.9722-26.0371L11.9722-45.1064C11.9722-45.4394 11.7574-45.6997 11.3789-45.6997L10.3589-45.6997C10.0259-45.6997 9.76562-45.4394 9.76562-45.1064L9.76562-26.0371C9.76562-25.7075 10.0259-25.4473 10.3589-25.4473ZM10.3589 1.89796L11.3789 1.89796C11.7574 1.89796 11.9722 1.68311 11.9722 1.30469L11.9722-17.768C11.9722-18.1011 11.7574-18.3613 11.3789-18.3613L10.3589-18.3613C10.0259-18.3613 9.76562-18.1011 9.76562-17.768L9.76562 1.30469C9.76562 1.68311 10.0259 1.89796 10.3589 1.89796ZM81.1069-61.7207L83.3135-60.2007L83.3135-72.4971C83.3135-72.8755 83.0987-73.0903 82.7202-73.0903L81.7002-73.0903C81.3672-73.0903 81.1069-72.8755 81.1069-72.4971ZM81.7002 1.85255L82.7202 1.85255C83.0987 1.85255 83.3135 1.6377 83.3135 1.25928L83.3135-17.8135C83.3135-18.1465 83.0987-18.4067 82.7202-18.4067L81.7002-18.4067C81.3672-18.4067 81.1069-18.1465 81.1069-17.8135L81.1069 1.25928C81.1069 1.6377 81.3672 1.85255 81.7002 1.85255ZM40.0284-4.23682C50.7164 1.9668 58.4434 2.49023 61.9932-3.70997L86.7247-46.5766C90.5049-53.1084 86.5884-60.3862 75.9473-66.5317C65.3584-72.6318 57.1529-72.3774 53.3726-65.7969L28.6412-22.9336C25.0459-16.7788 29.3404-10.395 40.0284-4.23682ZM60.9141-40.3193C58.0845-41.9941 53.94-44.0176 52.6319-44.7954C50.5914-45.9604 50.1133-47.3208 51.1807-49.6406L53.1441-53.874C54.9507-57.728 57.6807-58.6225 68.0225-52.6841C78.3677-46.6968 78.9517-43.917 76.5137-40.4082L73.8496-36.5654C72.3985-34.4375 70.9439-34.2388 68.9068-35.4004C67.6021-36.1294 63.108-39.0498 60.9141-40.3193ZM44.5674-12.0283C35.5289-17.2471 33.4884-20.1143 36.0865-23.6685L37.649-25.7998C39.752-28.667 42.8634-28.273 51.1841-23.5039C59.4664-18.7383 61.4092-16.1812 59.9581-12.9063L58.9009-10.5205C57.1148-6.51321 53.6128-6.80276 44.5674-12.0283ZM47.5498-52.8706L50.272-57.5097L47.6656-58.9975C46.5083-59.6982 45.418-59.4336 44.857-58.4648L43.9917-57.0239C43.4307-56.0552 43.7896-55.0488 44.9854-54.355ZM78.5005-35.0146L81.0162-33.5722C82.2154-32.8715 83.2671-33.0488 83.8248-34.0176L84.6866-35.5039C85.2442-36.476 84.8956-37.521 83.6929-38.2217L81.1773-39.7026Z"/>
  </g>
 </g>
</svg>
