<?xml version="1.0" encoding="UTF-8"?>
<!--Generator: Apple Native CoreSVG 175.5-->
<!DOCTYPE svg
PUBLIC "-//W3C//DTD SVG 1.1//EN"
       "http://www.w3.org/Graphics/SVG/1.1/DTD/svg11.dtd">
<svg version="1.1" xmlns="http://www.w3.org/2000/svg" xmlns:xlink="http://www.w3.org/1999/xlink" width="3300" height="2200">
 <!--glyph: "uni1010A9.medium", point size: 100.0, font version: "18.0d12e2", template writer version: "101"-->
 <g id="Notes">
  <rect height="2200" id="artboard" style="fill:white;opacity:1" width="3300" x="0" y="0"/>
  <line style="fill:none;stroke:black;opacity:1;stroke-width:0.5;" x1="263" x2="3036" y1="292" y2="292"/>
  <text style="stroke:none;fill:black;font-family:sans-serif;font-size:13;font-weight:bold;" transform="matrix(1 0 0 1 263 322)">Weight/Scale Variations</text>
  <text style="stroke:none;fill:black;font-family:sans-serif;font-size:13;text-anchor:middle;" transform="matrix(1 0 0 1 559.711 322)">Ultralight</text>
  <text style="stroke:none;fill:black;font-family:sans-serif;font-size:13;text-anchor:middle;" transform="matrix(1 0 0 1 856.422 322)">Thin</text>
  <text style="stroke:none;fill:black;font-family:sans-serif;font-size:13;text-anchor:middle;" transform="matrix(1 0 0 1 1153.13 322)">Light</text>
  <text style="stroke:none;fill:black;font-family:sans-serif;font-size:13;text-anchor:middle;" transform="matrix(1 0 0 1 1449.84 322)">Regular</text>
  <text style="stroke:none;fill:black;font-family:sans-serif;font-size:13;text-anchor:middle;" transform="matrix(1 0 0 1 1746.56 322)">Medium</text>
  <text style="stroke:none;fill:black;font-family:sans-serif;font-size:13;text-anchor:middle;" transform="matrix(1 0 0 1 2043.27 322)">Semibold</text>
  <text style="stroke:none;fill:black;font-family:sans-serif;font-size:13;text-anchor:middle;" transform="matrix(1 0 0 1 2339.98 322)">Bold</text>
  <text style="stroke:none;fill:black;font-family:sans-serif;font-size:13;text-anchor:middle;" transform="matrix(1 0 0 1 2636.69 322)">Heavy</text>
  <text style="stroke:none;fill:black;font-family:sans-serif;font-size:13;text-anchor:middle;" transform="matrix(1 0 0 1 2933.4 322)">Black</text>
  <line style="fill:none;stroke:black;opacity:1;stroke-width:0.5;" x1="263" x2="3036" y1="1903" y2="1903"/>
  <g transform="matrix(1 0 0 1 263 1933)">
   <path d="M9.24805 0.830078C13.5547 0.830078 17.1387-2.74414 17.1387-7.05078C17.1387-11.3574 13.5449-14.9316 9.23828-14.9316C4.94141-14.9316 1.36719-11.3574 1.36719-7.05078C1.36719-2.74414 4.95117 0.830078 9.24805 0.830078ZM9.24805-0.654297C5.70312-0.654297 2.87109-3.49609 2.87109-7.05078C2.87109-10.6055 5.69336-13.4473 9.23828-13.4473C12.793-13.4473 15.6445-10.6055 15.6445-7.05078C15.6445-3.49609 12.8027-0.654297 9.24805-0.654297ZM5.6543-7.05078C5.6543-6.62109 5.95703-6.32812 6.40625-6.32812L8.50586-6.32812L8.50586-4.20898C8.50586-3.76953 8.79883-3.4668 9.22852-3.4668C9.67773-3.4668 9.9707-3.76953 9.9707-4.20898L9.9707-6.32812L12.0898-6.32812C12.5293-6.32812 12.832-6.62109 12.832-7.05078C12.832-7.49023 12.5293-7.79297 12.0898-7.79297L9.9707-7.79297L9.9707-9.90234C9.9707-10.3516 9.67773-10.6543 9.22852-10.6543C8.79883-10.6543 8.50586-10.3516 8.50586-9.90234L8.50586-7.79297L6.40625-7.79297C5.95703-7.79297 5.6543-7.49023 5.6543-7.05078Z"/>
  </g>
  <g transform="matrix(1 0 0 1 281.867 1933)">
   <path d="M11.709 2.91016C17.1582 2.91016 21.6699-1.61133 21.6699-7.05078C21.6699-12.5 17.1484-17.0117 11.6992-17.0117C6.25977-17.0117 1.74805-12.5 1.74805-7.05078C1.74805-1.61133 6.26953 2.91016 11.709 2.91016ZM11.709 1.25C7.09961 1.25 3.41797-2.44141 3.41797-7.05078C3.41797-11.6602 7.08984-15.3516 11.6992-15.3516C16.3086-15.3516 20.0098-11.6602 20.0098-7.05078C20.0098-2.44141 16.3184 1.25 11.709 1.25ZM7.17773-7.05078C7.17773-6.57227 7.50977-6.25 8.00781-6.25L10.8789-6.25L10.8789-3.36914C10.8789-2.88086 11.2109-2.53906 11.6895-2.53906C12.1777-2.53906 12.5195-2.87109 12.5195-3.36914L12.5195-6.25L15.4004-6.25C15.8887-6.25 16.2305-6.57227 16.2305-7.05078C16.2305-7.53906 15.8887-7.88086 15.4004-7.88086L12.5195-7.88086L12.5195-10.752C12.5195-11.25 12.1777-11.5918 11.6895-11.5918C11.2109-11.5918 10.8789-11.25 10.8789-10.752L10.8789-7.88086L8.00781-7.88086C7.50977-7.88086 7.17773-7.53906 7.17773-7.05078Z"/>
  </g>
  <g transform="matrix(1 0 0 1 305.646 1933)">
   <path d="M14.9707 5.66406C21.9336 5.66406 27.6953-0.0976562 27.6953-7.05078C27.6953-14.0137 21.9238-19.7754 14.9609-19.7754C8.00781-19.7754 2.25586-14.0137 2.25586-7.05078C2.25586-0.0976562 8.01758 5.66406 14.9707 5.66406ZM14.9707 3.84766C8.93555 3.84766 4.08203-1.01562 4.08203-7.05078C4.08203-13.0957 8.92578-17.9492 14.9609-17.9492C21.0059-17.9492 25.8691-13.0957 25.8691-7.05078C25.8691-1.01562 21.0156 3.84766 14.9707 3.84766ZM9.19922-7.05078C9.19922-6.5332 9.57031-6.17188 10.1172-6.17188L14.0625-6.17188L14.0625-2.2168C14.0625-1.67969 14.4336-1.29883 14.9512-1.29883C15.4883-1.29883 15.8594-1.66992 15.8594-2.2168L15.8594-6.17188L19.8145-6.17188C20.3516-6.17188 20.7324-6.5332 20.7324-7.05078C20.7324-7.59766 20.3613-7.96875 19.8145-7.96875L15.8594-7.96875L15.8594-11.9141C15.8594-12.4609 15.4883-12.8418 14.9512-12.8418C14.4336-12.8418 14.0625-12.4609 14.0625-11.9141L14.0625-7.96875L10.1172-7.96875C9.57031-7.96875 9.19922-7.59766 9.19922-7.05078Z"/>
  </g>
  <text style="stroke:none;fill:black;font-family:sans-serif;font-size:13;font-weight:bold;" transform="matrix(1 0 0 1 263 1953)">Design Variations</text>
  <text style="stroke:none;fill:black;font-family:sans-serif;font-size:13;" transform="matrix(1 0 0 1 263 1971)">Symbols are supported in up to nine weights and three scales.</text>
  <text style="stroke:none;fill:black;font-family:sans-serif;font-size:13;" transform="matrix(1 0 0 1 263 1989)">For optimal layout with text and other symbols, vertically align</text>
  <text style="stroke:none;fill:black;font-family:sans-serif;font-size:13;" transform="matrix(1 0 0 1 263 2007)">symbols with the adjacent text.</text>
  <line style="fill:none;stroke:#00AEEF;stroke-width:0.5;opacity:1.0;" x1="776" x2="776" y1="1919" y2="1933"/>
  <g transform="matrix(1 0 0 1 776 1933)">
   <path d="M3.31055 0.15625C3.82812 0.15625 4.08203-0.0390625 4.26758-0.585938L5.52734-4.0332L11.2891-4.0332L12.5488-0.585938C12.7344-0.0390625 12.9883 0.15625 13.4961 0.15625C14.0137 0.15625 14.3457-0.15625 14.3457-0.644531C14.3457-0.810547 14.3164-0.966797 14.2383-1.17188L9.6582-13.3691C9.43359-13.9648 9.0332-14.2676 8.4082-14.2676C7.80273-14.2676 7.39258-13.9746 7.17773-13.3789L2.59766-1.16211C2.51953-0.957031 2.49023-0.800781 2.49023-0.634766C2.49023-0.146484 2.80273 0.15625 3.31055 0.15625ZM6.00586-5.51758L8.37891-12.0898L8.42773-12.0898L10.8008-5.51758Z"/>
  </g>
  <line style="fill:none;stroke:#00AEEF;stroke-width:0.5;opacity:1.0;" x1="793.197" x2="793.197" y1="1919" y2="1933"/>
  <text style="stroke:none;fill:black;font-family:sans-serif;font-size:13;font-weight:bold;" transform="matrix(1 0 0 1 776 1953)">Margins</text>
  <text style="stroke:none;fill:black;font-family:sans-serif;font-size:13;" transform="matrix(1 0 0 1 776 1971)">Leading and trailing margins on the left and right side of each symbol</text>
  <text style="stroke:none;fill:black;font-family:sans-serif;font-size:13;" transform="matrix(1 0 0 1 776 1989)">can be adjusted by modifying the x-location of the margin guidelines.</text>
  <text style="stroke:none;fill:black;font-family:sans-serif;font-size:13;" transform="matrix(1 0 0 1 776 2007)">Modifications are automatically applied proportionally to all</text>
  <text style="stroke:none;fill:black;font-family:sans-serif;font-size:13;" transform="matrix(1 0 0 1 776 2025)">scales and weights.</text>
  <g transform="matrix(1 0 0 1 1289 1933)">
   <path d="M2.8418 1.86523L4.54102 3.57422C5.40039 4.44336 6.38672 4.38477 7.31445 3.35938L18.0078-8.42773L17.041-9.4043L6.42578 2.27539C6.07422 2.67578 5.74219 2.77344 5.27344 2.30469L4.10156 1.14258C3.63281 0.683594 3.74023 0.341797 4.14062-0.0195312L15.6152-10.8203L14.6387-11.7871L3.04688-0.898438C2.06055 0.0195312 1.98242 0.996094 2.8418 1.86523ZM9.25781-16.3281C8.83789-15.918 8.80859-15.3418 9.04297-14.9512C9.27734-14.5898 9.73633-14.3555 10.3809-14.5215C11.8457-14.8633 13.3691-14.9219 14.7949-13.9844L14.209-12.5293C13.8672-11.6992 14.043-11.1133 14.5801-10.5664L16.875-8.25195C17.3633-7.76367 17.7734-7.74414 18.3398-7.8418L19.4043-8.03711L20.0684-7.36328L20.0293-6.80664C19.9902-6.30859 20.1172-5.92773 20.6055-5.44922L21.3672-4.70703C21.8457-4.22852 22.4609-4.19922 22.9297-4.66797L25.8398-7.58789C26.3086-8.05664 26.2891-8.65234 25.8105-9.13086L25.0391-9.89258C24.5605-10.3711 24.1895-10.5273 23.7109-10.4883L23.1348-10.4395L22.4902-11.0742L22.7344-12.1973C22.8613-12.7637 22.7051-13.2031 22.1191-13.7891L19.9219-15.9766C16.582-19.2969 12.1484-19.2188 9.25781-16.3281ZM10.752-15.957C13.1836-17.7344 16.4746-17.4316 18.7012-15.2051L21.1328-12.793C21.3672-12.5586 21.4062-12.373 21.3379-12.0312L21.0156-10.5469L22.5195-9.0625L23.5059-9.12109C23.7598-9.13086 23.8379-9.11133 24.0332-8.91602L24.6094-8.33984L22.168-5.89844L21.5918-6.47461C21.3965-6.66992 21.3672-6.74805 21.377-7.01172L21.4453-7.98828L19.9512-9.47266L18.4277-9.21875C18.1055-9.15039 17.959-9.17969 17.7148-9.41406L15.7129-11.416C15.459-11.6504 15.4297-11.8164 15.5859-12.1875L16.4648-14.2773C14.9023-15.7324 12.8711-16.3574 10.8398-15.7617C10.6836-15.7227 10.625-15.8496 10.752-15.957Z"/>
  </g>
  <text style="stroke:none;fill:black;font-family:sans-serif;font-size:13;font-weight:bold;" transform="matrix(1 0 0 1 1289 1953)">Exporting</text>
  <text style="stroke:none;fill:black;font-family:sans-serif;font-size:13;" transform="matrix(1 0 0 1 1289 1971)">Symbols should be outlined when exporting to ensure the</text>
  <text style="stroke:none;fill:black;font-family:sans-serif;font-size:13;" transform="matrix(1 0 0 1 1289 1989)">design is preserved when submitting to Xcode.</text>
  <text id="template-version" style="stroke:none;fill:black;font-family:sans-serif;font-size:13;text-anchor:end;" transform="matrix(1 0 0 1 3036 1933)">Template v.4.0</text>
  <text style="stroke:none;fill:black;font-family:sans-serif;font-size:13;text-anchor:end;" transform="matrix(1 0 0 1 3036 1951)">Requires Xcode 14 or greater</text>
  <text id="descriptive-name" style="stroke:none;fill:black;font-family:sans-serif;font-size:13;text-anchor:end;" transform="matrix(1 0 0 1 3036 1969)">Generated from steeringwheel</text>
  <text style="stroke:none;fill:black;font-family:sans-serif;font-size:13;text-anchor:end;" transform="matrix(1 0 0 1 3036 1987)">Typeset at 100 points</text>
  <text style="stroke:none;fill:black;font-family:sans-serif;font-size:13;" transform="matrix(1 0 0 1 263 726)">Small</text>
  <text style="stroke:none;fill:black;font-family:sans-serif;font-size:13;" transform="matrix(1 0 0 1 263 1156)">Medium</text>
  <text style="stroke:none;fill:black;font-family:sans-serif;font-size:13;" transform="matrix(1 0 0 1 263 1586)">Large</text>
 </g>
 <g id="Guides">
  <g id="H-reference" style="fill:#27AAE1;stroke:none;" transform="matrix(1 0 0 1 339 696)">
   <path d="M0.993654 0L3.63775 0L29.3281-67.1323L30.0303-67.1323L30.0303-70.459L28.1226-70.459ZM11.6885-24.4799L46.9815-24.4799L46.2315-26.7285L12.4385-26.7285ZM55.1196 0L57.7637 0L30.6382-70.459L29.4326-70.459L29.4326-67.1323Z"/>
  </g>
  <line id="Baseline-S" style="fill:none;stroke:#27AAE1;opacity:1;stroke-width:0.5;" x1="263" x2="3036" y1="696" y2="696"/>
  <line id="Capline-S" style="fill:none;stroke:#27AAE1;opacity:1;stroke-width:0.5;" x1="263" x2="3036" y1="625.541" y2="625.541"/>
  <g id="H-reference" style="fill:#27AAE1;stroke:none;" transform="matrix(1 0 0 1 339 1126)">
   <path d="M0.993654 0L3.63775 0L29.3281-67.1323L30.0303-67.1323L30.0303-70.459L28.1226-70.459ZM11.6885-24.4799L46.9815-24.4799L46.2315-26.7285L12.4385-26.7285ZM55.1196 0L57.7637 0L30.6382-70.459L29.4326-70.459L29.4326-67.1323Z"/>
  </g>
  <line id="Baseline-M" style="fill:none;stroke:#27AAE1;opacity:1;stroke-width:0.5;" x1="263" x2="3036" y1="1126" y2="1126"/>
  <line id="Capline-M" style="fill:none;stroke:#27AAE1;opacity:1;stroke-width:0.5;" x1="263" x2="3036" y1="1055.54" y2="1055.54"/>
  <g id="H-reference" style="fill:#27AAE1;stroke:none;" transform="matrix(1 0 0 1 339 1556)">
   <path d="M0.993654 0L3.63775 0L29.3281-67.1323L30.0303-67.1323L30.0303-70.459L28.1226-70.459ZM11.6885-24.4799L46.9815-24.4799L46.2315-26.7285L12.4385-26.7285ZM55.1196 0L57.7637 0L30.6382-70.459L29.4326-70.459L29.4326-67.1323Z"/>
  </g>
  <line id="Baseline-L" style="fill:none;stroke:#27AAE1;opacity:1;stroke-width:0.5;" x1="263" x2="3036" y1="1556" y2="1556"/>
  <line id="Capline-L" style="fill:none;stroke:#27AAE1;opacity:1;stroke-width:0.5;" x1="263" x2="3036" y1="1485.54" y2="1485.54"/>
  <line id="left-margin-Regular-M" style="fill:none;stroke:#00AEEF;stroke-width:0.5;opacity:1.0;" x1="1391.32" x2="1391.32" y1="1030.79" y2="1150.12"/>
  <line id="right-margin-Regular-M" style="fill:none;stroke:#00AEEF;stroke-width:0.5;opacity:1.0;" x1="1508.37" x2="1508.37" y1="1030.79" y2="1150.12"/>
 </g>
 <g id="Symbols">
  <g id="Black-L" transform="matrix(1 0 0 1 2854.19 1556)">
   <path d="M79.1958 32.7257C116.56 32.7257 147.154 2.15259 147.154-35.2113C147.154-72.5752 116.539-103.148 79.175-103.148C41.8307-103.148 11.2588-72.5752 11.2588-35.2113C11.2588 2.15259 41.8515 32.7257 79.1958 32.7257ZM41.9208-63.1947C50.4979-74.8858 64.074-81.8326 79.0373-81.8326C94.0215-81.8326 107.656-74.8858 116.312-63.274C118.551-60.2466 117.605-57.2118 114.234-57.2118L43.9408-57.2118C40.6492-57.2118 39.6809-60.2466 41.9208-63.1947ZM79.1154-21.366C72.6479-21.366 67.4129-26.5999 67.4129-33.1281C67.4129-39.5383 72.6479-44.7514 79.1154-44.7514C85.5852-44.7514 90.8203-39.5383 90.8203-33.1281C90.8203-26.5999 85.5852-21.366 79.1154-21.366ZM34.983-21.8938C34.1988-24.8536 35.4925-26.1316 38.1322-25.6939C53.1075-23.4132 64.3103-10.3816 64.2256 4.94795C64.2232 7.45116 62.4646 8.76889 60.0777 7.54087C47.6114 1.6265 38.622-8.93656 34.983-21.8938ZM123.271-21.8938C119.632-8.93656 110.643 1.6265 98.1762 7.54087C95.7894 8.76889 94.0308 7.45116 94.0284 4.94795C93.9449-10.378 105.122-23.4132 120.101-25.6939C122.741-26.1316 124.055-24.8536 123.271-21.8938Z"/>
  </g>
  <g id="Heavy-L" transform="matrix(1 0 0 1 2558.42 1556)">
   <path d="M78.2532 31.7694C115.056 31.7694 145.278 1.57794 145.278-35.2251C145.278-72.0281 115.026-102.22 78.2231-102.22C41.4446-102.22 11.2588-72.0281 11.2588-35.2251C11.2588 1.57794 41.4748 31.7694 78.2532 31.7694ZM39.1155-63.414C47.8326-75.9046 62.1634-83.5852 78.1036-83.5852C94.0741-83.5852 108.449-75.9046 117.241-63.4888C119.513-60.3916 118.514-57.179 115.007-57.179L41.3051-57.179C37.8727-57.179 36.8382-60.3916 39.1155-63.414ZM78.1728-20.5493C71.4187-20.5493 65.9527-26.0097 65.9527-32.8196C65.9527-39.5347 71.4187-44.9649 78.1728-44.9649C84.9381-44.9649 90.4042-39.5347 90.4042-32.8196C90.4042-26.0097 84.9381-20.5493 78.1728-20.5493ZM32.1655-21.7566C31.3333-24.8877 32.7879-26.2821 35.5504-25.8477C51.3581-23.6625 63.3255-9.87569 63.063 6.29828C63.0518 8.94695 61.1571 10.4195 58.5686 9.12485C45.4502 3.0357 35.9323-8.11647 32.1655-21.7566ZM124.222-21.7566C120.455-8.11647 110.937 3.0357 97.8185 9.12485C95.23 10.4195 93.3353 8.94695 93.324 6.29828C93.0672-9.85885 104.982-23.6625 120.806-25.8477C123.569-26.2821 125.054-24.8877 124.222-21.7566Z"/>
  </g>
  <g id="Bold-L" transform="matrix(1 0 0 1 2262.89 1556)">
   <path d="M77.0704 30.5711C113.182 30.5711 142.92 0.870872 142.92-35.2405C142.92-71.3519 113.144-101.052 77.0324-101.052C40.9458-101.052 11.2588-71.3519 11.2588-35.2405C11.2588 0.870872 40.9838 30.5711 77.0704 30.5711ZM35.4635-63.3328C44.305-76.9934 59.67-85.7224 76.936-85.7224C94.24-85.7224 109.634-76.9934 118.543-63.4C120.771-60.3076 119.741-57.0139 116.199-57.0139L37.7787-57.0139C34.3037-57.0139 33.222-60.3076 35.4635-63.3328ZM76.99-19.55C69.942-19.55 64.2363-25.2424 64.2363-32.3461C64.2363-39.3781 69.942-45.0325 76.99-45.0325C84.0644-45.0325 89.7701-39.3781 89.7701-32.3461C89.7701-25.2424 84.0644-19.55 76.99-19.55ZM28.6843-21.6621C27.828-24.8965 29.393-26.3995 32.242-25.9875C49.1763-23.9923 62.1783-9.17864 61.626 8.09254C61.5996 10.8584 59.5954 12.456 56.8429 11.1216C42.8507 4.83961 32.6051-7.09469 28.6843-21.6621ZM125.36-21.6621C121.439-7.09469 111.194 4.83961 97.2015 11.1216C94.449 12.456 92.4448 10.8584 92.4184 8.09254C91.8793-9.13895 104.79-23.9923 121.764-25.9875C124.613-26.3995 126.216-24.8965 125.36-21.6621Z"/>
  </g>
  <g id="Semibold-L" transform="matrix(1 0 0 1 1966.99 1556)">
   <path d="M76.2549 29.745C111.889 29.745 141.294 0.383422 141.294-35.2511C141.294-70.8857 111.846-100.247 76.2116-100.247C40.6019-100.247 11.2588-70.8857 11.2588-35.2511C11.2588 0.383422 40.6453 29.745 76.2549 29.745ZM32.9458-63.2768C41.8731-77.7441 57.9511-87.1958 76.1311-87.1958C94.3544-87.1958 110.451-77.7441 119.44-63.3387C121.638-60.2497 120.586-56.9 117.02-56.9L35.3475-56.9C31.8432-56.9 30.7291-60.2497 32.9458-63.2768ZM76.1745-18.861C68.9239-18.861 63.053-24.7135 63.053-32.0196C63.053-39.2701 68.9239-45.0791 76.1745-45.0791C83.4621-45.0791 89.333-39.2701 89.333-32.0196C89.333-24.7135 83.4621-18.861 76.1745-18.861ZM26.2845-21.5969C25.4115-24.9025 27.0525-26.4804 29.9613-26.084C47.6722-24.2196 61.3874-8.6981 60.6354 9.32949C60.5984 12.1762 58.5189 13.86 55.6532 12.4981C41.0585 6.08322 30.3113-6.39028 26.2845-21.5969ZM126.145-21.5969C122.118-6.39028 111.371 6.08322 96.7762 12.4981C93.9105 13.86 91.831 12.1762 91.794 9.32949C91.0604-8.64265 104.658-24.2196 122.425-26.084C125.333-26.4804 127.018-24.9025 126.145-21.5969Z"/>
  </g>
  <g id="Medium-L" transform="matrix(1 0 0 1 1670.9 1556)">
   <path d="M75.6366 29.1187C110.91 29.1187 140.062 0.0138167 140.062-35.2592C140.062-70.5322 110.862-99.637 75.5892-99.637C40.3412-99.637 11.2588-70.5322 11.2588-35.2592C11.2588 0.0138167 40.3886 29.1187 75.6366 29.1187ZM31.0367-63.2343C40.0291-78.3132 56.6478-88.3129 75.5207-88.3129C94.4411-88.3129 111.07-78.3132 120.121-63.2923C122.296-60.2058 121.227-56.8136 117.643-56.8136L33.5042-56.8136C29.9776-56.8136 28.8388-60.2058 31.0367-63.2343ZM75.5562-18.3387C68.152-18.3387 62.1558-24.3124 62.1558-31.772C62.1558-39.1882 68.152-45.1145 75.5562-45.1145C83.0053-45.1145 89.0015-39.1882 89.0015-31.772C89.0015-24.3124 83.0053-18.3387 75.5562-18.3387ZM24.4648-21.5474C23.5792-24.907 25.2779-26.5418 28.2319-26.1571C46.5318-24.392 60.7878-8.33373 59.8842 10.2674C59.8393 13.1754 57.7025 14.9245 54.7512 13.5419C39.6996 7.02617 28.572-5.85617 24.4648-21.5474ZM126.74-21.5474C122.633-5.85617 111.505 7.02617 96.4536 13.5419C93.5023 14.9245 91.3655 13.1754 91.3206 10.2674C90.4395-8.26634 104.558-24.392 122.925-26.1571C125.879-26.5418 127.626-24.907 126.74-21.5474Z"/>
  </g>
  <g id="Regular-L" transform="matrix(1 0 0 1 1374.99 1556)">
   <path d="M74.8301 28.3017C109.632 28.3017 138.454-0.468277 138.454-35.2697C138.454-70.0711 109.579-98.8411 74.7774-98.8411C40.0011-98.8411 11.2588-70.0711 11.2588-35.2697C11.2588-0.468277 40.0538 28.3017 74.8301 28.3017ZM28.5467-63.1789C37.624-79.0556 54.9478-89.7701 74.7246-89.7701C94.5542-89.7701 111.878-79.0556 121.008-63.2317C123.154-60.1485 122.063-56.701 118.455-56.701L31.0997-56.701C27.5442-56.701 26.3732-60.1485 28.5467-63.1789ZM74.7497-17.6573C67.1451-17.6573 60.9856-23.7893 60.9856-31.4492C60.9856-39.0814 67.1451-45.1606 74.7497-45.1606C82.4096-45.1606 88.5692-39.0814 88.5692-31.4492C88.5692-23.7893 82.4096-17.6573 74.7497-17.6573ZM22.0913-21.483C21.1893-24.913 22.9632-26.6218 25.9762-26.2525C45.0442-24.6168 60.0056-7.85847 58.9045 11.4908C58.8491 14.4787 56.6378 16.313 53.5746 14.9033C37.9272 8.25611 26.3034-5.1595 22.0913-21.483ZM127.516-21.483C123.304-5.1595 111.68 8.25611 96.033 14.9033C92.9697 16.313 90.7584 14.4787 90.7031 11.4908C89.6296-7.7755 104.428-24.6168 123.579-26.2525C126.592-26.6218 128.418-24.913 127.516-21.483Z"/>
  </g>
  <g id="Light-L" transform="matrix(1 0 0 1 1079.2 1556)">
   <path d="M73.9141 27.3856C108.257 27.3856 136.603-0.926323 136.603-35.2697C136.603-69.6131 108.224-97.925 73.8804-97.925C39.5239-97.925 11.2588-69.6131 11.2588-35.2697C11.2588-0.926323 39.5576 27.3856 73.9141 27.3856ZM24.8823-60.8505C33.7306-78.693 52.4094-91.0297 73.8467-91.0297C95.3176-91.0297 113.997-78.693 122.878-60.8842C124.452-58.3926 123.552-55.7849 120.783-55.7849L26.9773-55.7849C24.2425-55.7849 23.2623-58.3926 24.8823-60.8505ZM73.8336-17.0466C66.4199-17.0466 60.3939-23.0259 60.3939-30.5331C60.3939-37.9935 66.4199-43.9391 73.8336-43.9391C81.3408-43.9391 87.3668-37.9935 87.3668-30.5331C87.3668-23.0259 81.3408-17.0466 73.8336-17.0466ZM19.7439-21.9029C19.0517-24.7031 20.3294-26.2592 22.9798-26.0234C43.441-24.9794 59.6812-6.92329 57.9311 13.5138C57.8376 16.1772 55.9316 17.6681 53.3074 16.5065C36.6294 9.87836 24.0322-4.41517 19.7439-21.9029ZM128.051-21.9029C123.762-4.41517 111.165 9.87836 94.487 16.5065C91.8628 17.6681 89.9568 16.1772 89.8633 13.5138C88.16-6.78307 104.18-24.9794 124.781-26.0234C127.431-26.2592 128.743-24.7031 128.051-21.9029Z"/>
  </g>
  <g id="Thin-L" transform="matrix(1 0 0 1 783.716 1556)">
   <path d="M72.7024 26.174C106.44 26.174 134.155-1.53213 134.155-35.2697C134.155-69.0073 106.432-96.7134 72.694-96.7134C38.8929-96.7134 11.2588-69.0073 11.2588-35.2697C11.2588-1.53213 38.9013 26.174 72.7024 26.174ZM20.0359-57.771C28.5812-78.2134 49.0523-92.6957 72.6856-92.6957C96.3273-92.6957 116.798-78.2134 125.352-57.7795C126.168-56.0704 125.521-54.5733 123.863-54.5733L21.5251-54.5733C19.8756-54.5733 19.1479-56.0704 20.0359-57.771ZM72.622-16.2389C65.4607-16.2389 59.6114-22.0162 59.6114-29.3215C59.6114-36.5548 65.4607-42.3236 72.622-42.3236C79.9273-42.3236 85.7766-36.5548 85.7766-29.3215C85.7766-22.0162 79.9273-16.2389 72.622-16.2389ZM16.6391-22.4582C16.2246-24.4254 16.8461-25.7796 19.0169-25.7205C41.3207-25.459 59.2521-5.68644 56.6438 16.1894C56.4998 18.4238 54.9977 19.4602 52.954 18.6268C34.913 12.0239 21.0285-3.43074 16.6391-22.4582ZM128.757-22.4582C124.368-3.43074 110.483 12.0239 92.4425 18.6268C90.3988 19.4602 88.8967 18.4238 88.7527 16.1894C86.2164-5.47049 103.851-25.459 126.371-25.7205C128.542-25.7796 129.172-24.4254 128.757-22.4582Z"/>
  </g>
  <g id="Ultralight-L" transform="matrix(1 0 0 1 487.631 1556)">
   <path d="M72.0819 25.5534C105.509 25.5534 132.9-1.84242 132.9-35.2697C132.9-68.697 105.514-96.0928 72.0864-96.0928C38.5697-96.0928 11.2588-68.697 11.2588-35.2697C11.2588-1.84242 38.5652 25.5534 72.0819 25.5534ZM17.5536-56.1937C25.9438-77.9677 47.3328-93.549 72.0909-93.549C96.8444-93.549 118.233-77.9677 126.619-56.1892C127.047-54.8809 126.529-53.9527 125.44-53.9527L18.7325-53.9527C17.6389-53.9527 17.0405-54.8809 17.5536-56.1937ZM72.0014-15.8252C64.9694-15.8252 59.2106-21.499 59.2106-28.7009C59.2106-35.8178 64.9694-41.4962 72.0014-41.4962C79.2033-41.4962 84.9621-35.8178 84.9621-28.7009C84.9621-21.499 79.2033-15.8252 72.0014-15.8252ZM15.0489-22.7426C14.7766-24.2832 15.0619-25.534 16.987-25.5654C40.2347-25.7047 59.0323-5.05293 55.9844 17.5599C55.8146 19.5744 54.5193 20.3782 52.773 19.7128C34.0338 13.1229 19.4899-2.92652 15.0489-22.7426ZM129.119-22.7426C124.678-2.92652 110.134 13.1229 91.3952 19.7128C89.6489 20.3782 88.3536 19.5744 88.1838 17.5599C85.2209-4.7982 103.683-25.7047 127.186-25.5654C129.111-25.534 129.392-24.2832 129.119-22.7426Z"/>
  </g>
  <g id="Black-M" transform="matrix(1 0 0 1 2871.36 1126)">
   <path d="M62.0422 18.116C91.4096 18.116 115.367-5.83621 115.367-35.2035C115.367-64.5709 91.4041-88.5231 62.0367-88.5231C32.6752-88.5231 8.72266-64.5709 8.72266-35.2035C8.72266-5.83621 32.6807 18.116 62.0422 18.116ZM34.3923-56.3914C40.886-65.0282 50.939-69.9993 61.9171-69.9993C72.9006-69.9993 83.0107-65.0282 89.567-56.454C91.1956-54.2487 90.5333-52.1642 88.1528-52.1642L35.7494-52.1642C33.4315-52.1642 32.764-54.2487 34.3923-56.3914ZM61.9799-25.108C57.2416-25.108 53.4023-28.9476 53.4023-33.7425C53.4023-38.4235 57.2416-42.2575 61.9799-42.2575C66.7177-42.2575 70.557-38.4235 70.557-33.7425C70.557-28.9476 66.7177-25.108 61.9799-25.108ZM29.2063-25.0725C28.6683-27.1331 29.4652-28.0026 31.3555-27.6787C42.4309-25.9098 50.6263-16.2868 50.6255-4.98876C50.6261-3.21839 49.4219-2.3771 47.8055-3.23761C38.5681-7.66693 31.9259-15.4632 29.2063-25.0725ZM94.7585-25.0725C92.0388-15.4632 85.3967-7.66693 76.1593-3.23761C74.5428-2.3771 73.3387-3.21839 73.3393-4.98876C73.3382-16.2877 81.5293-25.9098 92.6038-27.6787C94.4941-28.0026 95.2965-27.1331 94.7585-25.0725Z"/>
  </g>
  <g id="Heavy-M" transform="matrix(1 0 0 1 2575.48 1126)">
   <path d="M61.2053 17.2657C90.0667 17.2657 113.704-6.35571 113.704-35.217C113.704-64.0783 90.0502-87.6997 61.1889-87.6997C32.3418-87.6997 8.72266-64.0783 8.72266-35.217C8.72266-6.35571 32.3582 17.2657 61.2053 17.2657ZM31.988-56.8206C38.6396-66.0576 49.3054-71.5964 61.0853-71.5964C72.8816-71.5964 83.591-66.0576 90.3026-56.8806C92.0162-54.5525 91.2852-52.2166 88.6938-52.2166L33.5532-52.2166C31.0219-52.2166 30.2721-54.5525 31.988-56.8206ZM61.143-24.366C56.1068-24.366 52.0295-28.441 52.0295-33.5254C52.0295-38.5203 56.1068-42.5789 61.143-42.5789C66.1838-42.5789 70.2611-38.5203 70.2611-33.5254C70.2611-28.441 66.1838-24.366 61.143-24.366ZM26.6685-24.8997C26.0643-27.1858 27.0642-28.1831 29.108-27.8501C40.8686-26.12 49.6935-15.8786 49.5788-3.85535C49.5743-1.91285 48.2089-0.88851 46.3549-1.83706C36.5751-6.43899 29.5061-14.7302 26.6685-24.8997ZM95.6386-24.8997C92.8009-14.7302 85.7319-6.43899 75.9522-1.83706C74.0981-0.88851 72.7328-1.91285 72.7282-3.85535C72.6158-15.8717 81.4152-26.12 93.1826-27.8501C95.2265-28.1831 96.2428-27.1858 95.6386-24.8997Z"/>
  </g>
  <g id="Bold-M" transform="matrix(1 0 0 1 2279.69 1126)">
   <path d="M60.2692 16.3144C88.5644 16.3144 111.844-6.93686 111.844-35.2321C111.844-63.5273 88.5358-86.7786 60.2405-86.7786C31.9688-86.7786 8.72266-63.5273 8.72266-35.2321C8.72266-6.93686 31.9974 16.3144 60.2692 16.3144ZM29.2984-57.3007C36.1268-67.2091 47.4779-73.383 60.1548-73.383C72.8603-73.383 84.2401-67.2091 91.1256-57.3578C92.9343-54.8923 92.1263-52.2753 89.299-52.2753L31.0964-52.2753C28.3263-52.2753 27.4846-54.8923 29.2984-57.3007ZM60.2069-23.5358C54.8375-23.5358 50.4938-27.8744 50.4938-33.2826C50.4938-38.6286 54.8375-42.9385 60.2069-42.9385C65.5865-42.9385 69.9302-38.6286 69.9302-33.2826C69.9302-27.8744 65.5865-23.5358 60.2069-23.5358ZM23.8296-24.7064C23.1513-27.2448 24.3783-28.385 26.5939-28.0419C39.121-26.3553 48.65-15.4219 48.408-2.58747C48.3977-0.452417 46.852 0.776688 44.7321-0.27034C34.3457-5.06537 26.7992-13.9102 23.8296-24.7064ZM96.623-24.7064C93.6534-13.9102 86.1069-5.06537 75.7205-0.27034C73.6006 0.776688 72.0549-0.452417 72.0446-2.58747C71.8077-15.4065 81.2876-26.3553 93.83-28.0419C96.0457-28.385 97.3013-27.2448 96.623-24.7064Z"/>
  </g>
  <g id="Semibold-M" transform="matrix(1 0 0 1 1983.62 1126)">
   <path d="M59.6238 15.6586C87.5288 15.6586 110.562-7.33749 110.562-35.2425C110.562-63.1475 87.4917-86.1436 59.5867-86.1436C31.7117-86.1436 8.72266-63.1475 8.72266-35.2425C8.72266-7.33749 31.7487 15.6586 59.6238 15.6586ZM27.4442-57.6316C34.3944-68.003 46.2181-74.6146 59.5134-74.6146C72.8457-74.6146 84.6875-68.003 91.6929-57.6868C93.5671-55.1265 92.7061-52.3158 89.7163-52.3158L29.4027-52.3158C26.4681-52.3158 25.5629-55.1265 27.4442-57.6316ZM59.5615-22.9636C53.9624-22.9636 49.4351-27.4838 49.4351-33.1152C49.4351-38.7032 53.9624-43.1864 59.5615-43.1864C65.1747-43.1864 69.7021-38.7032 69.7021-33.1152C69.7021-27.4838 65.1747-22.9636 59.5615-22.9636ZM21.8724-24.5731C21.1431-27.2855 22.5267-28.5242 24.8607-28.1741C37.9162-26.5174 47.9307-15.107 47.6008-1.7134C47.5866 0.554396 45.9165 1.92466 43.6134 0.809747C32.8088-4.1184 24.9331-13.3449 21.8724-24.5731ZM97.3018-24.5731C94.241-13.3449 86.3654-4.1184 75.5608 0.809747C73.2576 1.92466 71.5876 0.554396 71.5734-1.7134C71.2506-15.0857 81.1996-26.5174 94.2764-28.1741C96.6105-28.5242 98.0311-27.2855 97.3018-24.5731Z"/>
  </g>
  <g id="Medium-M" transform="matrix(1 0 0 1 1687.4 1126)">
   <path d="M59.1344 15.1614C86.7435 15.1614 109.59-7.64127 109.59-35.2504C109.59-62.8595 86.7001-85.6621 59.091-85.6621C31.5167-85.6621 8.72266-62.8595 8.72266-35.2504C8.72266-7.64127 31.5601 15.1614 59.1344 15.1614ZM26.0383-57.8826C33.0808-68.6049 45.2628-75.5485 59.027-75.5485C72.8346-75.5485 85.0268-68.6049 92.1231-57.9363C94.047-55.3042 93.1458-52.3464 90.0326-52.3464L28.1185-52.3464C25.059-52.3464 24.1058-55.3042 26.0383-57.8826ZM59.0721-22.5296C53.2989-22.5296 48.6323-27.1876 48.6323-32.9883C48.6323-38.7598 53.2989-43.3744 59.0721-43.3744C64.8625-43.3744 69.5291-38.7598 69.5291-32.9883C69.5291-27.1876 64.8625-22.5296 59.0721-22.5296ZM20.3884-24.472C19.6204-27.3163 21.1227-28.6297 23.5465-28.2744C37.0027-26.6404 47.3852-14.8683 46.9887-1.05064C46.9715 1.3178 45.2072 2.79511 42.7652 1.62871C31.6434-3.40037 23.5182-12.9163 20.3884-24.472ZM97.8164-24.472C94.6866-12.9163 86.5614-3.40037 75.4397 1.62871C72.9976 2.79511 71.2333 1.3178 71.2161-1.05064C70.8282-14.8425 81.1329-26.6404 94.6149-28.2744C97.0387-28.6297 98.5844-27.3163 97.8164-24.472Z"/>
  </g>
  <g id="Regular-M" transform="matrix(1 0 0 1 1391.32 1126)">
   <path d="M58.4961 14.5128C85.7192 14.5128 108.321-8.0375 108.321-35.2606C108.321-62.4838 85.6675-85.0341 58.4443-85.0341C31.2624-85.0341 8.72266-62.4838 8.72266-35.2606C8.72266-8.0375 31.3141 14.5128 58.4961 14.5128ZM24.2045-58.2099C31.3675-69.3901 44.0168-76.7666 58.3926-76.7666C72.8201-76.7666 85.4694-69.3901 92.6842-58.2617C94.6729-55.5358 93.7193-52.3864 90.4452-52.3864L26.4434-52.3864C23.2212-52.3864 22.2052-55.5358 24.2045-58.2099ZM58.4338-21.9636C52.4334-21.9636 47.5852-26.8013 47.5852-32.8227C47.5852-38.8336 52.4334-43.6196 58.4338-43.6196C64.4552-43.6196 69.3034-38.8336 69.3034-32.8227C69.3034-26.8013 64.4552-21.9636 58.4338-21.9636ZM18.4528-24.3402C17.6343-27.3565 19.2914-28.7674 21.8324-28.4051C35.8112-26.8008 46.6738-14.5569 46.1904-0.18618C46.1693 2.31355 44.2821 3.93047 41.6587 2.69693C30.1233-2.46381 21.6726-12.3572 18.4528-24.3402ZM98.4876-24.3402C95.2679-12.3572 86.8171-2.46381 75.2817 2.69693C72.6584 3.93047 70.7711 2.31355 70.75-0.18618C70.2772-14.5253 81.0458-26.8008 95.0563-28.4051C97.5973-28.7674 99.3061-27.3565 98.4876-24.3402Z"/>
  </g>
  <g id="Light-M" transform="matrix(1 0 0 1 1095.44 1126)">
   <path d="M57.6748 13.6915C84.4872 13.6915 106.662-8.44816 106.662-35.2606C106.662-62.0731 84.4526-84.2128 57.6401-84.2128C30.8346-84.2128 8.72266-62.0731 8.72266-35.2606C8.72266-8.44816 30.8693 13.6915 57.6748 13.6915ZM20.9192-56.1224C27.8769-69.0649 41.7411-77.8959 57.6055-77.8959C73.5045-77.8959 87.3687-69.0649 94.3611-56.157C95.8365-53.9616 95.0539-51.5651 92.5328-51.5651L22.7475-51.5651C20.261-51.5651 19.4161-53.9616 20.9192-56.1224ZM57.6125-21.4161C51.7832-21.4161 47.0548-26.1169 47.0548-32.0014C47.0548-37.8583 51.7832-42.5245 57.6125-42.5245C63.497-42.5245 68.2255-37.8583 68.2255-32.0014C68.2255-26.1169 63.497-21.4161 57.6125-21.4161ZM16.3482-24.7167C15.7179-27.1683 16.9301-28.4423 19.1459-28.1998C34.3739-27.1259 46.3829-13.7185 45.3178 1.62758C45.2624 3.83643 43.649 5.14535 41.4192 4.13425C28.9598-1.00938 19.6363-11.6898 16.3482-24.7167ZM98.9667-24.7167C95.6785-11.6898 86.3551-1.00938 73.8957 4.13425C71.6659 5.14535 70.0525 3.83643 69.9971 1.62758C68.9597-13.6355 80.8234-27.1259 96.1343-28.1998C98.3501-28.4423 99.597-27.1683 98.9667-24.7167Z"/>
  </g>
  <g id="Thin-M" transform="matrix(1 0 0 1 799.828 1126)">
   <path d="M56.5885 12.6052C82.8578 12.6052 104.466-8.9913 104.466-35.2606C104.466-61.53 82.8458-83.1265 56.5765-83.1265C30.2689-83.1265 8.72266-61.53 8.72266-35.2606C8.72266-8.9913 30.2809 12.6052 56.5885 12.6052ZM16.5741-53.3615C23.2602-68.635 38.7312-79.3895 56.5645-79.3895C74.4097-79.3895 89.8807-68.635 96.5789-53.3735C97.3754-51.8796 96.8191-50.4788 95.2937-50.4788L17.8593-50.4788C16.3459-50.4788 15.7273-51.8796 16.5741-53.3615ZM56.5262-20.6919C50.9233-20.6919 46.3532-25.2116 46.3532-30.9152C46.3532-36.5684 50.9233-41.0761 56.5262-41.0761C62.2297-41.0761 66.7997-36.5684 66.7997-30.9152C66.7997-25.2116 62.2297-20.6919 56.5262-20.6919ZM13.5646-25.2145C13.1832-26.9193 13.8071-28.0123 15.5929-27.9282C32.4729-27.5559 45.9982-12.6096 44.1636 4.02642C44.063 5.85055 42.8116 6.75212 41.1023 6.03522C27.4209 0.914224 16.9433-10.8072 13.5646-25.2145ZM99.6004-25.2145C96.2217-10.8072 85.7441 0.914224 72.0626 6.03522C70.3533 6.75212 69.102 5.85055 69.0014 4.02642C67.2171-12.4587 80.5292-27.5559 97.56-27.9282C99.3459-28.0123 99.9817-26.9193 99.6004-25.2145Z"/>
  </g>
  <g id="Ultralight-M" transform="matrix(1 0 0 1 503.679 1126)">
   <path d="M56.0321 12.0488C82.0233 12.0488 103.342-9.26949 103.342-35.2606C103.342-61.2518 82.0228-82.5701 56.0317-82.5701C29.9791-82.5701 8.72266-61.2518 8.72266-35.2606C8.72266-9.26949 29.9795 12.0488 56.0321 12.0488ZM14.3486-51.9473C20.8956-68.4147 37.1896-80.1545 56.0313-80.1545C74.8734-80.1545 91.1673-68.4147 97.7148-51.9478C98.1636-50.8132 97.7232-49.9224 96.7078-49.9224L15.3555-49.9224C14.3406-49.9224 13.8379-50.8132 14.3486-51.9473ZM55.9698-20.321C50.4828-20.321 45.9939-24.748 45.9939-30.3588C45.9939-35.9077 50.4828-40.3343 55.9698-40.3343C61.5806-40.3343 66.0695-35.9077 66.0695-30.3588C66.0695-24.748 61.5806-20.321 55.9698-20.321ZM12.1389-25.4696C11.885-26.7918 12.2075-27.7921 13.7731-27.7891C31.4992-27.7761 45.8011-12.0416 43.5724 5.2551C43.4487 6.88217 42.3828 7.5751 40.9401 7.00889C26.6327 1.89948 15.5639-10.3552 12.1389-25.4696ZM99.9249-25.4696C96.4999-10.3552 85.4311 1.89948 71.1237 7.00889C69.681 7.5751 68.6151 6.88217 68.4914 5.2551C66.3246-11.856 80.3785-27.7761 98.2903-27.7891C99.8559-27.7921 100.179-26.7918 99.9249-25.4696Z"/>
  </g>
  <g id="Black-S" transform="matrix(1 0 0 1 2884.57 696)">
   <path d="M48.8281 6.78711C71.9727 6.78711 90.8203-12.0605 90.8203-35.2051C90.8203-58.3496 71.9727-77.1973 48.8281-77.1973C25.6836-77.1973 6.83594-58.3496 6.83594-35.2051C6.83594-12.0605 25.6836 6.78711 48.8281 6.78711ZM27.4902-51.5625C32.5195-58.252 40.2832-62.0605 48.7305-62.0605C57.1777-62.0605 64.9902-58.252 70.0684-51.6113C71.2891-49.9512 70.8008-48.4375 69.043-48.4375L28.4668-48.4375C26.7578-48.4375 26.2695-49.9512 27.4902-51.5625ZM48.7793-27.4902C45.166-27.4902 42.2363-30.4199 42.2363-34.082C42.2363-37.6465 45.166-40.5762 48.7793-40.5762C52.3926-40.5762 55.3223-37.6465 55.3223-34.082C55.3223-30.4199 52.3926-27.4902 48.7793-27.4902ZM23.5352-27.3438C23.1445-28.8574 23.6816-29.4922 25.0977-29.248C33.6426-27.8809 39.9414-20.459 39.9414-11.7676C39.9414-10.4492 39.0625-9.86328 37.8906-10.498C30.7617-13.916 25.6348-19.9219 23.5352-27.3438ZM74.0234-27.3438C71.9238-19.9219 66.7969-13.916 59.668-10.498C58.4961-9.86328 57.6172-10.4492 57.6172-11.7676C57.6172-20.459 63.916-27.8809 72.4609-29.248C73.877-29.4922 74.4141-28.8574 74.0234-27.3438Z"/>
  </g>
  <g id="Heavy-S" transform="matrix(1 0 0 1 2588.47 696)">
   <path d="M48.2173 6.16479C70.9816 6.16479 89.6102-12.4524 89.6102-35.2166C89.6102-57.9808 70.97-76.598 48.2058-76.598C25.4531-76.598 6.83594-57.9808 6.83594-35.2166C6.83594-12.4524 25.4646 6.16479 48.2173 6.16479ZM25.8538-52.1963C31.0444-59.1739 39.1769-63.2821 48.1197-63.2821C57.074-63.2821 65.2438-59.1739 70.4832-52.2452C71.8422-50.4122 71.2733-48.5873 69.2389-48.5873L27.0608-48.5873C25.0752-48.5873 24.4948-50.4122 25.8538-52.1963ZM48.1685-26.9255C44.2786-26.9255 41.13-30.0742 41.13-34.0014C41.13-37.8539 44.2786-40.9911 48.1685-40.9911C52.0584-40.9911 55.207-37.8539 55.207-34.0014C55.207-30.0742 52.0584-26.9255 48.1685-26.9255ZM21.6336-27.1478C21.1623-28.9266 21.9299-29.6881 23.5188-29.4209C32.4901-28.0192 39.1808-20.217 39.1577-11.03C39.1577-9.52726 38.106-8.74541 36.6806-9.48389C29.2059-13.0517 23.8254-19.3802 21.6336-27.1478ZM74.7149-27.1478C72.5231-19.3802 67.1426-13.0517 59.668-9.48389C58.2426-8.74541 57.1908-9.52726 57.1908-11.03C57.1677-20.217 63.8469-28.0192 72.8182-29.4209C74.4071-29.6881 75.1862-28.9266 74.7149-27.1478Z"/>
  </g>
  <g id="Bold-S" transform="matrix(1 0 0 1 2292.43 696)">
   <path d="M47.5342 5.46875C69.873 5.46875 88.2568-12.8906 88.2568-35.2295C88.2568-57.5684 69.8486-75.9277 47.5098-75.9277C25.1953-75.9277 6.83594-57.5684 6.83594-35.2295C6.83594-12.8906 25.2197 5.46875 47.5342 5.46875ZM24.0234-52.9053C29.3945-60.2051 37.9395-64.6484 47.4365-64.6484C56.958-64.6484 65.5273-60.2051 70.9473-52.9541C72.4609-50.9277 71.8018-48.7549 69.458-48.7549L25.4883-48.7549C23.1934-48.7549 22.5098-50.9277 24.0234-52.9053ZM47.4854-26.2939C43.2861-26.2939 39.8926-29.6875 39.8926-33.9111C39.8926-38.0859 43.2861-41.4551 47.4854-41.4551C51.6846-41.4551 55.0781-38.0859 55.0781-33.9111C55.0781-29.6875 51.6846-26.2939 47.4854-26.2939ZM19.5068-26.9287C18.9453-29.0039 19.9707-29.9072 21.7529-29.6143C31.2012-28.1738 38.3301-19.9463 38.2812-10.2051C38.2812-8.49609 37.0361-7.49512 35.3271-8.34961C27.4658-12.085 21.8018-18.7744 19.5068-26.9287ZM75.4883-26.9287C73.1934-18.7744 67.5293-12.085 59.668-8.34961C57.959-7.49512 56.7139-8.49609 56.7139-10.2051C56.665-19.9463 63.7695-28.1738 73.2178-29.6143C75-29.9072 76.0498-29.0039 75.4883-26.9287Z"/>
  </g>
  <g id="Semibold-S" transform="matrix(1 0 0 1 1996.19 696)">
   <path d="M47.0632 4.98887C69.1088 4.98887 87.3237-13.1928 87.3237-35.2384C87.3237-57.284 69.0755-75.4656 47.0299-75.4656C25.0176-75.4656 6.83594-57.284 6.83594-35.2384C6.83594-13.1928 25.0509 4.98887 47.0632 4.98887ZM22.7615-53.394C28.257-60.916 37.0863-65.5904 46.9655-65.5904C56.878-65.5904 65.7229-60.916 71.2672-53.4429C72.8875-51.2832 72.1661-48.8704 69.6091-48.8704L24.4041-48.8704C21.8959-48.8704 21.1412-51.2832 22.7615-53.394ZM47.0144-25.8585C42.6019-25.8585 39.0395-29.4209 39.0395-33.8489C39.0395-38.2459 42.6019-41.775 47.0144-41.775C51.4269-41.775 54.9893-38.2459 54.9893-33.8489C54.9893-29.4209 51.4269-25.8585 47.0144-25.8585ZM18.0405-26.7776C17.4168-29.0572 18.6199-30.0583 20.5354-29.7476C30.3125-28.2805 37.7436-19.7597 37.677-9.63633C37.677-7.78516 36.2985-6.63311 34.394-7.56758C26.2661-11.4185 20.4065-18.3567 18.0405-26.7776ZM76.0215-26.7776C73.6555-18.3567 67.7959-11.4185 59.668-7.56758C57.7635-6.63311 56.3851-7.78516 56.3851-9.63633C56.3185-19.7597 63.7162-28.2805 73.4933-29.7476C75.4088-30.0583 76.6452-29.0572 76.0215-26.7776Z"/>
  </g>
  <g id="Medium-S" transform="matrix(1 0 0 1 1699.83 696)">
   <path d="M46.7061 4.625C68.5293 4.625 86.6162-13.4219 86.6162-35.2451C86.6162-57.0684 68.4893-75.1152 46.666-75.1152C24.8828-75.1152 6.83594-57.0684 6.83594-35.2451C6.83594-13.4219 24.9229 4.625 46.7061 4.625ZM21.8047-53.7646C27.3945-61.4551 36.4395-66.3047 46.6084-66.3047C56.8174-66.3047 65.8711-61.4551 71.5098-53.8135C73.2109-51.5527 72.4424-48.958 69.7236-48.958L23.582-48.958C20.9121-48.958 20.1035-51.5527 21.8047-53.7646ZM46.6572-25.5283C42.083-25.5283 38.3926-29.2188 38.3926-33.8018C38.3926-38.3672 42.083-42.0176 46.6572-42.0176C51.2314-42.0176 54.9219-38.3672 54.9219-33.8018C54.9219-29.2188 51.2314-25.5283 46.6572-25.5283ZM16.9287-26.6631C16.2578-29.0977 17.5957-30.1729 19.6123-29.8486C29.6387-28.3613 37.2988-19.6182 37.2188-9.20508C37.2188-7.24609 35.7393-5.97949 33.6865-6.97461C25.3564-10.9131 19.3486-18.04 16.9287-26.6631ZM76.4258-26.6631C74.0059-18.04 67.998-10.9131 59.668-6.97461C57.6152-5.97949 56.1357-7.24609 56.1357-9.20508C56.0557-19.6182 63.6758-28.3613 73.7021-29.8486C75.7188-30.1729 77.0967-29.0977 76.4258-26.6631Z"/>
  </g>
  <g id="Regular-S" transform="matrix(1 0 0 1 1403.58 696)">
   <path d="M46.2402 4.15039C67.7734 4.15039 85.6934-13.7207 85.6934-35.2539C85.6934-56.7871 67.7246-74.6582 46.1914-74.6582C24.707-74.6582 6.83594-56.7871 6.83594-35.2539C6.83594-13.7207 24.7559 4.15039 46.2402 4.15039ZM20.5566-54.248C26.2695-62.1582 35.5957-67.2363 46.1426-67.2363C56.7383-67.2363 66.0645-62.1582 71.8262-54.2969C73.6328-51.9043 72.8027-49.0723 69.873-49.0723L22.5098-49.0723C19.6289-49.0723 18.75-51.9043 20.5566-54.248ZM46.1914-25.0977C41.4062-25.0977 37.5488-28.9551 37.5488-33.7402C37.5488-38.5254 41.4062-42.334 46.1914-42.334C50.9766-42.334 54.834-38.5254 54.834-33.7402C54.834-28.9551 50.9766-25.0977 46.1914-25.0977ZM15.4785-26.5137C14.7461-29.1504 16.2598-30.3223 18.4082-29.9805C28.7598-28.4668 36.7188-19.4336 36.6211-8.64258C36.6211-6.54297 35.0098-5.12695 32.7637-6.20117C24.1699-10.2539 17.9688-17.627 15.4785-26.5137ZM76.9531-26.5137C74.4629-17.627 68.2617-10.2539 59.668-6.20117C57.4219-5.12695 55.8105-6.54297 55.8105-8.64258C55.7129-19.4336 63.623-28.4668 73.9746-29.9805C76.123-30.3223 77.6855-29.1504 76.9531-26.5137Z"/>
  </g>
  <g id="Light-S" transform="matrix(1 0 0 1 1107.6 696)">
   <path d="M45.5137 3.42383C66.6836 3.42383 84.2251-14.084 84.2251-35.2539C84.2251-56.4238 66.6499-73.9316 45.48-73.9316C24.3286-73.9316 6.83594-56.4238 6.83594-35.2539C6.83594-14.084 24.3623 3.42383 45.5137 3.42383ZM17.6504-52.4014C23.1817-61.8706 33.5825-68.2353 45.4463-68.2353C57.3437-68.2353 67.7446-61.8706 73.3096-52.4351C74.6621-50.5117 73.9834-48.3457 71.7197-48.3457L19.2403-48.3457C17.0103-48.3457 16.2827-50.5117 17.6504-52.4014ZM45.4648-24.6133C40.8311-24.6133 37.0796-28.3496 37.0796-33.0137C37.0796-37.6626 40.8311-41.3652 45.4648-41.3652C50.1289-41.3652 53.8804-37.6626 53.8804-33.0137C53.8804-28.3496 50.1289-24.6133 45.4648-24.6133ZM13.6167-26.8467C13.0508-28.9839 14.1709-30.0347 16.0318-29.7988C27.4883-28.7544 36.4614-18.6919 35.8491-7.0381C35.8189-5.19581 34.4497-4.05225 32.5518-4.9297C23.1406-8.9673 16.1675-17.0366 13.6167-26.8467ZM77.3769-26.8467C74.8262-17.0366 67.853-8.9673 58.4419-4.9297C56.544-4.05225 55.1748-5.19581 55.1445-7.0381C54.5474-18.6465 63.4263-28.7544 74.9282-29.7988C76.7891-30.0347 77.9429-28.9839 77.3769-26.8467Z"/>
  </g>
  <g id="Thin-S" transform="matrix(1 0 0 1 811.863 696)">
   <path d="M44.5527 2.4629C65.2422 2.4629 82.2832-14.5644 82.2832-35.2539C82.2832-55.9434 65.2285-72.9707 44.5391-72.9707C23.8281-72.9707 6.83594-55.9434 6.83594-35.2539C6.83594-14.5644 23.8418 2.4629 44.5527 2.4629ZM13.8067-49.959C19.0977-61.4902 30.92-69.5566 44.5254-69.5566C58.1445-69.5566 69.9668-61.4902 75.2715-49.9727C76.0234-48.6699 75.5449-47.3848 74.1621-47.3848L14.9161-47.3848C13.5469-47.3848 13.0196-48.6699 13.8067-49.959ZM44.5039-23.9727C40.0703-23.9727 36.459-27.5488 36.459-32.0527C36.459-36.5215 40.0703-40.084 44.5039-40.084C49.0078-40.084 52.6192-36.5215 52.6192-32.0527C52.6192-27.5488 49.0078-23.9727 44.5039-23.9727ZM11.1543-27.2871C10.8086-28.7637 11.4082-29.6543 12.8887-29.5586C25.8067-29.1348 36.1211-17.711 34.8281-4.91604C34.7578-3.41409 33.709-2.63088 32.2715-3.24807C21.7793-7.26565 13.7852-16.2559 11.1543-27.2871ZM77.9375-27.2871C75.3066-16.2559 67.3125-7.26565 56.8203-3.24807C55.3828-2.63088 54.334-3.41409 54.2637-4.91604C53.0059-17.6055 63.166-29.1348 76.1894-29.5586C77.6699-29.6543 78.2832-28.7637 77.9375-27.2871Z"/>
  </g>
  <g id="Ultralight-S" transform="matrix(1 0 0 1 515.649 696)">
   <path d="M44.0606 1.97072C64.5039 1.97072 81.2886-14.8105 81.2886-35.2539C81.2886-55.6973 64.5005-72.4785 44.0571-72.4785C23.5718-72.4785 6.83594-55.6973 6.83594-35.2539C6.83594-14.8105 23.5752 1.97072 44.0606 1.97072ZM11.838-48.7081C17.0059-61.2954 29.5562-70.2334 44.0537-70.2334C58.5547-70.2334 71.1049-61.2954 76.2763-48.7115C76.7207-47.7266 76.3447-46.8926 75.413-46.8926L12.7012-46.8926C11.773-46.8926 11.3482-47.7266 11.838-48.7081ZM44.0117-23.6445C39.6807-23.6445 36.1411-27.1387 36.1411-31.5606C36.1411-35.937 39.6807-39.4278 44.0117-39.4278C48.4336-39.4278 51.9732-35.937 51.9732-31.5606C51.9732-27.1387 48.4336-23.6445 44.0117-23.6445ZM9.89311-27.5127C9.6602-28.6509 9.99321-29.4595 11.2789-29.4356C24.9453-29.3296 35.9468-17.2085 34.3052-3.82914C34.2144-2.5015 33.3296-1.90286 32.1279-2.38675C21.0821-6.39407 12.565-15.856 9.89311-27.5127ZM78.2246-27.5127C75.5527-15.856 67.0357-6.39407 55.9898-2.38675C54.7881-1.90286 53.9033-2.5015 53.8125-3.82914C52.2163-17.0723 63.0327-29.3296 76.8354-29.4356C78.1211-29.4595 78.4575-28.6509 78.2246-27.5127Z"/>
  </g>
 </g>
</svg>
