<?xml version="1.0" encoding="UTF-8"?>
<!--Generator: Apple Native CoreSVG 175-->
<!DOCTYPE svg
PUBLIC "-//W3C//DTD SVG 1.1//EN"
       "http://www.w3.org/Graphics/SVG/1.1/DTD/svg11.dtd">
<svg version="1.1" xmlns="http://www.w3.org/2000/svg" xmlns:xlink="http://www.w3.org/1999/xlink" width="3300" height="2200">
 <!--glyph: "uni1007D6.medium", point size: 100.0, font version: "17.3d3e1", template writer version: "65.1"-->
 <g id="Notes">
  <rect height="2200" id="artboard" style="fill:white;opacity:1" width="3300" x="0" y="0"/>
  <line style="fill:none;stroke:black;opacity:1;stroke-width:0.5;" x1="263" x2="3036" y1="292" y2="292"/>
  <text style="stroke:none;fill:black;font-family:sans-serif;font-size:13;font-weight:bold;" transform="matrix(1 0 0 1 263 322)">Weight/Scale Variations</text>
  <text style="stroke:none;fill:black;font-family:sans-serif;font-size:13;text-anchor:middle;" transform="matrix(1 0 0 1 559.711 322)">Ultralight</text>
  <text style="stroke:none;fill:black;font-family:sans-serif;font-size:13;text-anchor:middle;" transform="matrix(1 0 0 1 856.422 322)">Thin</text>
  <text style="stroke:none;fill:black;font-family:sans-serif;font-size:13;text-anchor:middle;" transform="matrix(1 0 0 1 1153.13 322)">Light</text>
  <text style="stroke:none;fill:black;font-family:sans-serif;font-size:13;text-anchor:middle;" transform="matrix(1 0 0 1 1449.84 322)">Regular</text>
  <text style="stroke:none;fill:black;font-family:sans-serif;font-size:13;text-anchor:middle;" transform="matrix(1 0 0 1 1746.56 322)">Medium</text>
  <text style="stroke:none;fill:black;font-family:sans-serif;font-size:13;text-anchor:middle;" transform="matrix(1 0 0 1 2043.27 322)">Semibold</text>
  <text style="stroke:none;fill:black;font-family:sans-serif;font-size:13;text-anchor:middle;" transform="matrix(1 0 0 1 2339.98 322)">Bold</text>
  <text style="stroke:none;fill:black;font-family:sans-serif;font-size:13;text-anchor:middle;" transform="matrix(1 0 0 1 2636.69 322)">Heavy</text>
  <text style="stroke:none;fill:black;font-family:sans-serif;font-size:13;text-anchor:middle;" transform="matrix(1 0 0 1 2933.4 322)">Black</text>
  <line style="fill:none;stroke:black;opacity:1;stroke-width:0.5;" x1="263" x2="3036" y1="1903" y2="1903"/>
  <g transform="matrix(1 0 0 1 263 1933)">
   <path d="M9.24805 0.830078Q10.8691 0.830078 12.2949 0.214844Q13.7207-0.400391 14.8096-1.49414Q15.8984-2.58789 16.5186-4.01367Q17.1387-5.43945 17.1387-7.05078Q17.1387-8.66211 16.5186-10.0879Q15.8984-11.5137 14.8047-12.6074Q13.7109-13.7012 12.2852-14.3164Q10.8594-14.9316 9.23828-14.9316Q7.62695-14.9316 6.20117-14.3164Q4.77539-13.7012 3.69141-12.6074Q2.60742-11.5137 1.9873-10.0879Q1.36719-8.66211 1.36719-7.05078Q1.36719-5.43945 1.9873-4.01367Q2.60742-2.58789 3.69629-1.49414Q4.78516-0.400391 6.21094 0.214844Q7.63672 0.830078 9.24805 0.830078ZM9.24805-0.654297Q7.91992-0.654297 6.7627-1.14746Q5.60547-1.64062 4.73145-2.51953Q3.85742-3.39844 3.36426-4.56055Q2.87109-5.72266 2.87109-7.05078Q2.87109-8.37891 3.35938-9.54102Q3.84766-10.7031 4.72168-11.582Q5.5957-12.4609 6.75293-12.9541Q7.91016-13.4473 9.23828-13.4473Q10.5762-13.4473 11.7334-12.9541Q12.8906-12.4609 13.7695-11.582Q14.6484-10.7031 15.1465-9.54102Q15.6445-8.37891 15.6445-7.05078Q15.6445-5.72266 15.1514-4.56055Q14.6582-3.39844 13.7842-2.51953Q12.9102-1.64062 11.748-1.14746Q10.5859-0.654297 9.24805-0.654297ZM5.6543-7.05078Q5.6543-6.72852 5.85938-6.52832Q6.06445-6.32812 6.40625-6.32812L8.51562-6.32812L8.51562-4.20898Q8.51562-3.88672 8.71094-3.67676Q8.90625-3.4668 9.23828-3.4668Q9.56055-3.4668 9.77051-3.67676Q9.98047-3.88672 9.98047-4.20898L9.98047-6.32812L12.0898-6.32812Q12.4219-6.32812 12.627-6.52832Q12.832-6.72852 12.832-7.05078Q12.832-7.38281 12.627-7.58789Q12.4219-7.79297 12.0898-7.79297L9.98047-7.79297L9.98047-9.90234Q9.98047-10.2344 9.77051-10.4443Q9.56055-10.6543 9.23828-10.6543Q8.90625-10.6543 8.71094-10.4443Q8.51562-10.2344 8.51562-9.90234L8.51562-7.79297L6.40625-7.79297Q6.06445-7.79297 5.85938-7.58789Q5.6543-7.38281 5.6543-7.05078Z"/>
  </g>
  <g transform="matrix(1 0 0 1 281.867 1933)">
   <path d="M11.709 2.91016Q13.75 2.91016 15.5518 2.12891Q17.3535 1.34766 18.7305-0.0292969Q20.1074-1.40625 20.8887-3.20801Q21.6699-5.00977 21.6699-7.05078Q21.6699-9.0918 20.8887-10.8936Q20.1074-12.6953 18.7305-14.0723Q17.3535-15.4492 15.5469-16.2305Q13.7402-17.0117 11.6992-17.0117Q9.6582-17.0117 7.85645-16.2305Q6.05469-15.4492 4.68262-14.0723Q3.31055-12.6953 2.5293-10.8936Q1.74805-9.0918 1.74805-7.05078Q1.74805-5.00977 2.5293-3.20801Q3.31055-1.40625 4.6875-0.0292969Q6.06445 1.34766 7.86621 2.12891Q9.66797 2.91016 11.709 2.91016ZM11.709 1.25Q9.98047 1.25 8.47656 0.605469Q6.97266-0.0390625 5.83496-1.17676Q4.69727-2.31445 4.05762-3.81836Q3.41797-5.32227 3.41797-7.05078Q3.41797-8.7793 4.05762-10.2832Q4.69727-11.7871 5.83008-12.9297Q6.96289-14.0723 8.4668-14.7119Q9.9707-15.3516 11.6992-15.3516Q13.4277-15.3516 14.9316-14.7119Q16.4355-14.0723 17.5781-12.9297Q18.7207-11.7871 19.3652-10.2832Q20.0098-8.7793 20.0098-7.05078Q20.0098-5.32227 19.3701-3.81836Q18.7305-2.31445 17.5928-1.17676Q16.4551-0.0390625 14.9463 0.605469Q13.4375 1.25 11.709 1.25ZM7.17773-7.05078Q7.17773-6.69922 7.41211-6.47461Q7.64648-6.25 8.01758-6.25L10.8887-6.25L10.8887-3.36914Q10.8887-2.99805 11.1133-2.76855Q11.3379-2.53906 11.6895-2.53906Q12.0605-2.53906 12.29-2.76855Q12.5195-2.99805 12.5195-3.36914L12.5195-6.25L15.4004-6.25Q15.7715-6.25 16.001-6.47461Q16.2305-6.69922 16.2305-7.05078Q16.2305-7.42188 16.001-7.65137Q15.7715-7.88086 15.4004-7.88086L12.5195-7.88086L12.5195-10.752Q12.5195-11.1328 12.29-11.3623Q12.0605-11.5918 11.6895-11.5918Q11.3379-11.5918 11.1133-11.3574Q10.8887-11.123 10.8887-10.752L10.8887-7.88086L8.01758-7.88086Q7.63672-7.88086 7.40723-7.65137Q7.17773-7.42188 7.17773-7.05078Z"/>
  </g>
  <g transform="matrix(1 0 0 1 305.646 1933)">
   <path d="M14.9707 5.66406Q17.0605 5.66406 18.96 5.01465Q20.8594 4.36523 22.4512 3.19336Q24.043 2.02148 25.2197 0.429688Q26.3965-1.16211 27.0459-3.06641Q27.6953-4.9707 27.6953-7.05078Q27.6953-9.14062 27.0459-11.04Q26.3965-12.9395 25.2197-14.5312Q24.043-16.123 22.4512-17.2998Q20.8594-18.4766 18.9551-19.126Q17.0508-19.7754 14.9609-19.7754Q12.8711-19.7754 10.9717-19.126Q9.07227-18.4766 7.48535-17.2998Q5.89844-16.123 4.72168-14.5312Q3.54492-12.9395 2.90039-11.04Q2.25586-9.14062 2.25586-7.05078Q2.25586-4.9707 2.90527-3.06641Q3.55469-1.16211 4.72656 0.429688Q5.89844 2.02148 7.49023 3.19336Q9.08203 4.36523 10.9814 5.01465Q12.8809 5.66406 14.9707 5.66406ZM14.9707 3.84766Q13.1641 3.84766 11.5283 3.2959Q9.89258 2.74414 8.53516 1.74805Q7.17773 0.751953 6.17676-0.610352Q5.17578-1.97266 4.62891-3.6084Q4.08203-5.24414 4.08203-7.05078Q4.08203-8.86719 4.62891-10.5029Q5.17578-12.1387 6.17188-13.501Q7.16797-14.8633 8.52539-15.8594Q9.88281-16.8555 11.5186-17.4023Q13.1543-17.9492 14.9609-17.9492Q16.7773-17.9492 18.4131-17.4023Q20.0488-16.8555 21.4111-15.8594Q22.7734-14.8633 23.7695-13.501Q24.7656-12.1387 25.3174-10.5029Q25.8691-8.86719 25.8691-7.05078Q25.8789-5.24414 25.332-3.6084Q24.7852-1.97266 23.7842-0.610352Q22.7832 0.751953 21.4209 1.74805Q20.0586 2.74414 18.4229 3.2959Q16.7871 3.84766 14.9707 3.84766ZM9.19922-7.05078Q9.19922-6.66992 9.45801-6.4209Q9.7168-6.17188 10.1172-6.17188L14.0625-6.17188L14.0625-2.2168Q14.0625-1.81641 14.3115-1.55762Q14.5605-1.29883 14.9512-1.29883Q15.3516-1.29883 15.6104-1.55273Q15.8691-1.80664 15.8691-2.2168L15.8691-6.17188L19.8242-6.17188Q20.2246-6.17188 20.4785-6.4209Q20.7324-6.66992 20.7324-7.05078Q20.7324-7.46094 20.4785-7.71484Q20.2246-7.96875 19.8242-7.96875L15.8691-7.96875L15.8691-11.9141Q15.8691-12.3242 15.6104-12.583Q15.3516-12.8418 14.9512-12.8418Q14.5605-12.8418 14.3115-12.583Q14.0625-12.3242 14.0625-11.9141L14.0625-7.96875L10.1172-7.96875Q9.70703-7.96875 9.45312-7.71484Q9.19922-7.46094 9.19922-7.05078Z"/>
  </g>
  <text style="stroke:none;fill:black;font-family:sans-serif;font-size:13;font-weight:bold;" transform="matrix(1 0 0 1 263 1953)">Design Variations</text>
  <text style="stroke:none;fill:black;font-family:sans-serif;font-size:13;" transform="matrix(1 0 0 1 263 1971)">Symbols are supported in up to nine weights and three scales.</text>
  <text style="stroke:none;fill:black;font-family:sans-serif;font-size:13;" transform="matrix(1 0 0 1 263 1989)">For optimal layout with text and other symbols, vertically align</text>
  <text style="stroke:none;fill:black;font-family:sans-serif;font-size:13;" transform="matrix(1 0 0 1 263 2007)">symbols with the adjacent text.</text>
  <line style="fill:none;stroke:#00AEEF;stroke-width:0.5;opacity:1.0;" x1="776" x2="776" y1="1919" y2="1933"/>
  <g transform="matrix(1 0 0 1 776 1933)">
   <path d="M3.31055 0.15625Q3.70117 0.15625 3.91602-0.00976562Q4.13086-0.175781 4.26758-0.585938L5.52734-4.0332L11.2891-4.0332L12.5488-0.585938Q12.6855-0.175781 12.9004-0.00976562Q13.1152 0.15625 13.4961 0.15625Q13.8867 0.15625 14.1162-0.0585938Q14.3457-0.273438 14.3457-0.644531Q14.3457-0.869141 14.2383-1.17188L9.6582-13.3691Q9.48242-13.8184 9.17969-14.043Q8.87695-14.2676 8.4082-14.2676Q7.5-14.2676 7.17773-13.3789L2.59766-1.16211Q2.49023-0.859375 2.49023-0.634766Q2.49023-0.263672 2.70996-0.0537109Q2.92969 0.15625 3.31055 0.15625ZM6.00586-5.51758L8.37891-12.0898L8.42773-12.0898L10.8008-5.51758Z"/>
  </g>
  <line style="fill:none;stroke:#00AEEF;stroke-width:0.5;opacity:1.0;" x1="793.197" x2="793.197" y1="1919" y2="1933"/>
  <text style="stroke:none;fill:black;font-family:sans-serif;font-size:13;font-weight:bold;" transform="matrix(1 0 0 1 776 1953)">Margins</text>
  <text style="stroke:none;fill:black;font-family:sans-serif;font-size:13;" transform="matrix(1 0 0 1 776 1971)">Leading and trailing margins on the left and right side of each symbol</text>
  <text style="stroke:none;fill:black;font-family:sans-serif;font-size:13;" transform="matrix(1 0 0 1 776 1989)">can be adjusted by modifying the x-location of the margin guidelines.</text>
  <text style="stroke:none;fill:black;font-family:sans-serif;font-size:13;" transform="matrix(1 0 0 1 776 2007)">Modifications are automatically applied proportionally to all</text>
  <text style="stroke:none;fill:black;font-family:sans-serif;font-size:13;" transform="matrix(1 0 0 1 776 2025)">scales and weights.</text>
  <g transform="matrix(1 0 0 1 1289 1933)">
   <path d="M2.8418 1.86523L4.54102 3.57422Q5.18555 4.22852 5.90332 4.17969Q6.62109 4.13086 7.31445 3.35938L18.0078-8.42773L17.041-9.4043L6.42578 2.27539Q6.16211 2.57812 5.89355 2.61719Q5.625 2.65625 5.27344 2.30469L4.10156 1.14258Q3.75 0.791016 3.79395 0.522461Q3.83789 0.253906 4.14062-0.0195312L15.6152-10.8203L14.6387-11.7871L3.04688-0.898438Q2.30469-0.214844 2.25098 0.498047Q2.19727 1.21094 2.8418 1.86523ZM9.25781-16.3281Q8.94531-16.0254 8.90625-15.6348Q8.86719-15.2441 9.04297-14.9512Q9.21875-14.6777 9.55566-14.541Q9.89258-14.4043 10.3809-14.5215Q11.4746-14.7754 12.5977-14.7314Q13.7207-14.6875 14.7949-13.9844L14.209-12.5293Q13.9551-11.9043 14.0674-11.4404Q14.1797-10.9766 14.5801-10.5664L16.875-8.25195Q17.2363-7.88086 17.5781-7.82227Q17.9199-7.76367 18.3398-7.8418L19.4043-8.03711L20.0684-7.36328L20.0293-6.80664Q20-6.43555 20.1221-6.12305Q20.2441-5.81055 20.6055-5.44922L21.3672-4.70703Q21.7285-4.3457 22.1533-4.33105Q22.5781-4.31641 22.9297-4.66797L25.8398-7.58789Q26.1914-7.93945 26.1816-8.35449Q26.1719-8.76953 25.8105-9.13086L25.0391-9.89258Q24.6875-10.2539 24.3799-10.3857Q24.0723-10.5176 23.7109-10.4883L23.1348-10.4395L22.4902-11.0742L22.7344-12.1973Q22.832-12.6172 22.6953-12.9834Q22.5586-13.3496 22.1191-13.7891L19.9219-15.9766Q18.6719-17.2168 17.2607-17.8369Q15.8496-18.457 14.4189-18.4814Q12.9883-18.5059 11.665-17.959Q10.3418-17.4121 9.25781-16.3281ZM10.752-15.957Q11.6602-16.6211 12.7002-16.9043Q13.7402-17.1875 14.8047-17.085Q15.8691-16.9824 16.8701-16.5137Q17.8711-16.0449 18.7012-15.2051L21.1328-12.793Q21.3086-12.6172 21.3525-12.4512Q21.3965-12.2852 21.3379-12.0312L21.0156-10.5469L22.5195-9.0625L23.5059-9.12109Q23.6914-9.13086 23.7891-9.09668Q23.8867-9.0625 24.0332-8.91602L24.6094-8.33984L22.168-5.89844L21.5918-6.47461Q21.4453-6.62109 21.4062-6.71875Q21.3672-6.81641 21.377-7.01172L21.4453-7.98828L19.9512-9.47266L18.4277-9.21875Q18.1836-9.16992 18.042-9.2041Q17.9004-9.23828 17.7148-9.41406L15.7129-11.416Q15.5176-11.5918 15.4932-11.7529Q15.4688-11.9141 15.5859-12.1875L16.4648-14.2773Q15.293-15.3711 13.8281-15.791Q12.3633-16.2109 10.8398-15.7617Q10.7227-15.7324 10.6885-15.8057Q10.6543-15.8789 10.752-15.957Z"/>
  </g>
  <text style="stroke:none;fill:black;font-family:sans-serif;font-size:13;font-weight:bold;" transform="matrix(1 0 0 1 1289 1953)">Exporting</text>
  <text style="stroke:none;fill:black;font-family:sans-serif;font-size:13;" transform="matrix(1 0 0 1 1289 1971)">Symbols should be outlined when exporting to ensure the</text>
  <text style="stroke:none;fill:black;font-family:sans-serif;font-size:13;" transform="matrix(1 0 0 1 1289 1989)">design is preserved when submitting to Xcode.</text>
  <text id="template-version" style="stroke:none;fill:black;font-family:sans-serif;font-size:13;text-anchor:end;" transform="matrix(1 0 0 1 3036 1933)">Template v.3.0</text>
  <text style="stroke:none;fill:black;font-family:sans-serif;font-size:13;text-anchor:end;" transform="matrix(1 0 0 1 3036 1951)">Requires Xcode 13 or greater</text>
  <text id="descriptive-name" style="stroke:none;fill:black;font-family:sans-serif;font-size:13;text-anchor:end;" transform="matrix(1 0 0 1 3036 1969)">Generated from key.fill</text>
  <text style="stroke:none;fill:black;font-family:sans-serif;font-size:13;text-anchor:end;" transform="matrix(1 0 0 1 3036 1987)">Typeset at 100 points</text>
  <text style="stroke:none;fill:black;font-family:sans-serif;font-size:13;" transform="matrix(1 0 0 1 263 726)">Small</text>
  <text style="stroke:none;fill:black;font-family:sans-serif;font-size:13;" transform="matrix(1 0 0 1 263 1156)">Medium</text>
  <text style="stroke:none;fill:black;font-family:sans-serif;font-size:13;" transform="matrix(1 0 0 1 263 1586)">Large</text>
 </g>
 <g id="Guides">
  <g id="H-reference" style="fill:#27AAE1;stroke:none;" transform="matrix(1 0 0 1 339 696)">
   <path d="M0.993347 0L3.6377 0L29.3282-67.1326L30.0301-67.1326L30.0301-70.459L28.1227-70.459ZM11.6882-24.4797L46.9818-24.4797L46.2311-26.7288L12.4382-26.7288ZM55.1193 0L57.7637 0L30.6381-70.459L29.4327-70.459L29.4327-67.1326Z"/>
  </g>
  <line id="Baseline-S" style="fill:none;stroke:#27AAE1;opacity:1;stroke-width:0.5;" x1="263" x2="3036" y1="696" y2="696"/>
  <line id="Capline-S" style="fill:none;stroke:#27AAE1;opacity:1;stroke-width:0.5;" x1="263" x2="3036" y1="625.541" y2="625.541"/>
  <g id="H-reference" style="fill:#27AAE1;stroke:none;" transform="matrix(1 0 0 1 339 1126)">
   <path d="M0.993347 0L3.6377 0L29.3282-67.1326L30.0301-67.1326L30.0301-70.459L28.1227-70.459ZM11.6882-24.4797L46.9818-24.4797L46.2311-26.7288L12.4382-26.7288ZM55.1193 0L57.7637 0L30.6381-70.459L29.4327-70.459L29.4327-67.1326Z"/>
  </g>
  <line id="Baseline-M" style="fill:none;stroke:#27AAE1;opacity:1;stroke-width:0.5;" x1="263" x2="3036" y1="1126" y2="1126"/>
  <line id="Capline-M" style="fill:none;stroke:#27AAE1;opacity:1;stroke-width:0.5;" x1="263" x2="3036" y1="1055.54" y2="1055.54"/>
  <g id="H-reference" style="fill:#27AAE1;stroke:none;" transform="matrix(1 0 0 1 339 1556)">
   <path d="M0.993347 0L3.6377 0L29.3282-67.1326L30.0301-67.1326L30.0301-70.459L28.1227-70.459ZM11.6882-24.4797L46.9818-24.4797L46.2311-26.7288L12.4382-26.7288ZM55.1193 0L57.7637 0L30.6381-70.459L29.4327-70.459L29.4327-67.1326Z"/>
  </g>
  <line id="Baseline-L" style="fill:none;stroke:#27AAE1;opacity:1;stroke-width:0.5;" x1="263" x2="3036" y1="1556" y2="1556"/>
  <line id="Capline-L" style="fill:none;stroke:#27AAE1;opacity:1;stroke-width:0.5;" x1="263" x2="3036" y1="1485.54" y2="1485.54"/>
  <line id="left-margin-Regular-M" style="fill:none;stroke:#00AEEF;stroke-width:0.5;opacity:1.0;" x1="1406.21" x2="1406.21" y1="1030.79" y2="1150.12"/>
  <line id="right-margin-Regular-M" style="fill:none;stroke:#00AEEF;stroke-width:0.5;opacity:1.0;" x1="1493.48" x2="1493.48" y1="1030.79" y2="1150.12"/>
 </g>
 <g id="Symbols">
  <g id="Black-L" transform="matrix(1 0 0 1 2872.97 1556)">
   <path d="M60.4314-116.449Q51.1572-116.449 43.1251-113.024Q35.0929-109.599 29.0133-103.52Q22.9336-97.441 19.5088-89.4187Q16.084-81.3963 16.084-72.2025Q16.084-59.2513 22.8835-48.4195Q29.683-37.5876 41.3444-32.0775L41.3444 25.5795Q41.3444 27.5587 42.0763 29.5434Q42.8083 31.5282 44.3914 32.9569L56.455 43.7784Q58.3677 45.4367 61.1887 45.4789Q64.0096 45.5212 66.1016 43.4292L85.7458 23.785Q88.1263 21.3825 88.0971 18.1273Q88.0679 14.8722 85.6874 12.4321L77.17 3.89916L90.2118-9.19859Q92.5326-11.5582 92.5514-14.8432Q92.5702-18.1282 90.1677-20.5306L78.5478-32.213Q91.2372-38.8357 98.008-49.2423Q104.779-59.6489 104.779-72.2025Q104.779-81.3963 101.344-89.4181Q97.9084-97.4398 91.8288-103.519Q85.7491-109.599 77.7164-113.024Q69.6837-116.449 60.4314-116.449ZM60.4314-78.8796Q56.0055-78.8796 52.8475-82.0278Q49.6894-85.176 49.6894-89.6228Q49.6894-94.1279 52.8371-97.2463Q55.9847-100.365 60.4314-100.365Q64.8574-100.365 68.0154-97.2061Q71.1734-94.0475 71.1734-89.6228Q71.1734-85.176 68.0154-82.0278Q64.8574-78.8796 60.4314-78.8796Z"/>
  </g>
  <g id="Heavy-L" transform="matrix(1 0 0 1 2577.28 1556)">
   <path d="M59.4046-115.446Q50.3449-115.446 42.4975-112.103Q34.6501-108.761 28.7097-102.823Q22.7693-96.8856 19.4266-89.0505Q16.084-81.2154 16.084-72.2361Q16.084-59.366 22.9254-48.6798Q29.7668-37.9935 41.4568-32.7348L41.4568 25.9724Q41.4568 27.7552 42.111 29.4899Q42.7652 31.2247 44.1741 32.5298L55.8489 43.289Q57.4953 44.7268 59.9617 44.7899Q62.4281 44.8531 64.2543 43.0268L83.9651 23.316Q85.9977 21.2478 85.9753 18.4781Q85.953 15.7084 83.9205 13.6257L74.4718 4.19839L88.4542-9.81743Q90.4365-11.8197 90.4437-14.6145Q90.4509-17.4092 88.3826-19.4776L75.5248-32.4259Q88.6641-38.843 95.6946-49.2209Q102.725-59.5987 102.725-72.2361Q102.725-81.2154 99.3674-89.0477Q96.0097-96.8799 90.0693-102.82Q84.1288-108.761 76.2787-112.103Q68.4285-115.446 59.4046-115.446ZM59.4046-77.694Q54.9412-77.694 51.7572-80.8656Q48.5733-84.0372 48.5733-88.5309Q48.5733-93.0691 51.7421-96.2156Q54.911-99.3621 59.4046-99.3621Q63.868-99.3621 67.0519-96.1754Q70.2358-92.9887 70.2358-88.5309Q70.2358-84.0372 67.0519-80.8656Q63.868-77.694 59.4046-77.694Z"/>
  </g>
  <g id="Bold-L" transform="matrix(1 0 0 1 2281.83 1556)">
   <path d="M58.1516-114.201Q49.3532-114.201 41.7326-110.959Q34.112-107.716 28.3407-101.951Q22.5694-96.1867 19.3267-88.5785Q16.084-80.9702 16.084-72.2523Q16.084-59.4971 22.9642-48.9951Q29.8445-38.4931 41.5505-33.5344L41.5505 26.3075Q41.5505 27.852 42.1123 29.3016Q42.6742 30.7513 43.8828 31.9102L55.0959 42.5703Q56.4418 43.7613 58.4888 43.8438Q60.5357 43.9264 62.054 42.4082L81.8045 22.6576Q83.4291 20.982 83.4145 18.7781Q83.3999 16.5742 81.7753 14.9074L71.2634 4.4555L86.3169-10.6007Q87.899-12.1873 87.8946-14.4122Q87.8901-16.6371 86.2145-18.313L71.9317-32.7096Q85.5797-38.8805 92.8993-49.2089Q100.219-59.5373 100.219-72.2523Q100.219-80.9702 96.9573-88.5718Q93.6956-96.1734 87.9243-101.945Q82.1531-107.716 74.5259-110.959Q66.8987-114.201 58.1516-114.201ZM58.1516-76.3009Q53.6569-76.3009 50.4533-79.492Q47.2498-82.6831 47.2498-87.2158Q47.2498-91.7775 50.4343-94.9475Q53.6188-98.1174 58.1516-98.1174Q62.6462-98.1174 65.8497-94.9072Q69.0532-91.6971 69.0532-87.2158Q69.0532-82.6831 65.8497-79.492Q62.6462-76.3009 58.1516-76.3009Z"/>
  </g>
  <g id="Semibold-L" transform="matrix(1 0 0 1 1985.98 1556)">
   <path d="M57.2877-113.343Q48.6696-113.343 41.2053-110.169Q33.741-106.996 28.0863-101.35Q22.4316-95.7049 19.2578-88.253Q16.084-80.8012 16.084-72.2635Q16.084-59.5874 22.991-49.2124Q29.898-38.8375 41.615-34.0856L41.615 26.5386Q41.615 27.9187 42.1133 29.1718Q42.6115 30.4249 43.682 31.483L54.5767 42.0747Q55.7155 43.0957 57.4733 43.1916Q59.2312 43.2875 60.5371 41.9816L80.315 22.2037Q81.6584 20.7987 81.6491 18.9849Q81.6399 17.1711 80.2964 15.791L69.0516 4.63275L84.8434-11.1407Q86.1497-12.4407 86.1372-14.2728Q86.1247-16.1049 84.7197-17.5102L69.4547-32.9052Q83.4533-38.9064 90.9722-49.2007Q98.4912-59.4949 98.4912-72.2635Q98.4912-80.8012 95.2958-88.2437Q92.1003-95.6863 86.4456-101.341Q80.791-106.996 73.3175-110.169Q65.8441-113.343 57.2877-113.343ZM57.2877-75.3405Q52.7716-75.3405 49.5545-78.545Q46.3373-81.7495 46.3373-86.3092Q46.3373-90.8871 49.5327-94.0732Q52.728-97.2593 57.2877-97.2593Q61.8039-97.2593 65.0209-94.033Q68.2378-90.8067 68.2378-86.3092Q68.2378-81.7495 65.0209-78.545Q61.8039-75.3405 57.2877-75.3405Z"/>
  </g>
  <g id="Medium-L" transform="matrix(1 0 0 1 1689.92 1556)">
   <path d="M56.6327-112.693Q48.1512-112.693 40.8054-109.571Q33.4597-106.449 27.8934-100.895Q22.3271-95.3396 19.2056-88.0063Q16.084-80.673 16.084-72.2719Q16.084-59.6559 23.0113-49.3773Q29.9386-39.0986 41.664-34.5035L41.664 26.7138Q41.664 27.9693 42.114 29.0734Q42.5639 30.1775 43.5298 31.1591L54.1831 41.699Q55.1648 42.591 56.7034 42.6971Q58.242 42.8031 59.3869 41.6582L79.1855 21.8596Q80.3158 20.6598 80.3105 19.1417Q80.3053 17.6237 79.175 16.461L67.3745 4.76714L83.7262-11.5502Q84.8233-12.6328 84.8047-14.167Q84.7862-15.7012 83.5864-16.9014L67.5765-33.0535Q81.841-38.9261 89.511-49.1944Q97.1811-59.4627 97.1811-72.2719Q97.1811-80.673 94.0359-87.995Q90.8907-95.3169 85.3244-100.883Q79.7582-106.449 72.4013-109.571Q65.0444-112.693 56.6327-112.693ZM56.6327-74.6122Q52.1003-74.6122 48.8729-77.8269Q45.6455-81.0416 45.6455-85.6217Q45.6455-90.212 48.8491-93.4103Q52.0526-96.6086 56.6327-96.6086Q61.1652-96.6086 64.3924-93.3701Q67.6196-90.1316 67.6196-85.6217Q67.6196-81.0416 64.3924-77.8269Q61.1652-74.6122 56.6327-74.6122Z"/>
  </g>
  <g id="Regular-L" transform="matrix(1 0 0 1 1394.07 1556)">
   <path d="M55.7784-111.844Q47.4751-111.844 40.2839-108.79Q33.0927-105.737 27.6418-100.3Q22.1909-94.8631 19.1374-87.6845Q16.084-80.5059 16.084-72.2829Q16.084-59.7452 23.0378-49.5922Q29.9916-39.4393 41.7278-35.0486L41.7278 26.9423Q41.7278 28.0352 42.1149 28.945Q42.5019 29.8547 43.3312 30.7366L53.6697 41.209Q54.4465 41.9328 55.6991 42.052Q56.9518 42.1713 57.8866 41.2364L77.7124 21.4106Q78.5645 20.4785 78.5645 19.3463Q78.5645 18.214 77.7124 17.3349L65.187 4.94245L82.2689-12.0842Q83.0932-12.8834 83.0667-14.0291Q83.0402-15.1748 82.1081-16.1074L65.1266-33.2469Q79.7379-38.9517 87.6051-49.1862Q95.4723-59.4208 95.4723-72.2829Q95.4723-80.5059 92.3926-87.6705Q89.3129-94.8352 83.862-100.286Q78.411-105.737 71.2062-108.79Q64.0013-111.844 55.7784-111.844ZM55.7784-73.6624Q51.2246-73.6624 47.9839-76.8903Q44.7431-80.1183 44.7431-84.7251Q44.7431-89.3314 47.9574-92.5457Q51.1716-95.7599 55.7784-95.7599Q60.3322-95.7599 63.5727-92.5055Q66.8132-89.251 66.8132-84.7251Q66.8132-80.1183 63.5727-76.8903Q60.3322-73.6624 55.7784-73.6624Z"/>
  </g>
  <g id="Light-L" transform="matrix(1 0 0 1 1098.1 1556)">
   <path d="M55.0342-110.966Q46.8835-110.966 39.8355-107.97Q32.7875-104.974 27.4319-99.6416Q22.0764-94.3096 19.0802-87.2551Q16.084-80.2006 16.084-72.1303Q16.084-59.7645 22.9805-49.7641Q29.8771-39.7638 41.4989-35.5065L41.4989 26.198Q41.4989 27.1573 41.8478 28.0289Q42.1966 28.9005 42.9878 29.7249L53.1352 39.9876Q53.893 40.7114 54.9834 40.8019Q56.0738 40.8925 56.9324 40.0339L76.5099 20.4564Q77.2287 19.658 77.2287 18.6878Q77.2287 17.7176 76.5099 16.9533L63.8319 4.38899L81.0475-12.7332Q81.7192-13.4179 81.7021-14.4108Q81.6851-15.4038 80.8867-16.2029L63.6189-33.5714Q78.2684-39.1617 86.1259-49.2722Q93.9835-59.3826 93.9835-72.1303Q93.9835-80.2006 90.9707-87.2315Q87.9578-94.2625 82.6023-99.618Q77.2467-104.974 70.1756-107.97Q63.1044-110.966 55.0342-110.966ZM55.0342-73.1852Q50.5567-73.1852 47.3826-76.3654Q44.2085-79.5456 44.2085-84.0572Q44.2085-88.5679 47.3656-91.725Q50.5226-94.882 55.0342-94.882Q59.5116-94.882 62.6853-91.6847Q65.859-88.4875 65.859-84.0572Q65.859-79.5456 62.6853-76.3654Q59.5116-73.1852 55.0342-73.1852Z"/>
  </g>
  <g id="Thin-L" transform="matrix(1 0 0 1 802.373 1556)">
   <path d="M54.0498-109.805Q46.101-109.805 39.2424-106.884Q32.3837-103.964 27.1544-98.7707Q21.925-93.5776 19.0045-86.6872Q16.084-79.7969 16.084-71.9284Q16.084-59.7899 22.9048-49.9914Q29.7257-40.1929 41.1961-36.1121L41.1961 25.2137Q41.1961 25.9961 41.4945 26.8172Q41.7929 27.6384 42.5336 28.3869L52.4282 38.3722Q53.161 39.096 54.0368 39.1486Q54.9126 39.2012 55.6703 38.4436L74.9196 19.1943Q75.4619 18.5727 75.4619 17.8169Q75.4619 17.0612 74.9196 16.4487L62.0397 3.65701L79.4322-13.5916Q79.9019-14.1249 79.8974-14.9157Q79.8929-15.7066 79.2713-16.3293L61.6248-34.0006Q76.3247-39.4395 84.1696-49.3858Q92.0145-59.3322 92.0145-71.9284Q92.0145-79.7969 89.0901-86.651Q86.1656-93.505 80.9362-98.7344Q75.7069-103.964 68.8126-106.884Q61.9182-109.805 54.0498-109.805ZM54.0498-72.5542Q49.6733-72.5542 46.5875-75.6712Q43.5016-78.7882 43.5016-83.1738Q43.5016-87.5582 46.5829-90.6395Q49.6643-93.7208 54.0498-93.7208Q58.4263-93.7208 61.5116-90.5993Q64.5969-87.4777 64.5969-83.1738Q64.5969-78.7882 61.5116-75.6712Q58.4263-72.5542 54.0498-72.5542Z"/>
  </g>
  <g id="Ultralight-L" transform="matrix(1 0 0 1 506.166 1556)">
   <path d="M53.5457-109.21Q45.7002-109.21 38.9386-106.328Q32.177-103.447 27.0122-98.3247Q21.8474-93.2027 18.9657-86.3964Q16.084-79.5901 16.084-71.825Q16.084-59.803 22.8661-50.1079Q29.6482-40.4128 41.041-36.4223L41.041 24.7096Q41.041 25.4014 41.3135 26.1966Q41.5861 26.9919 42.3009 27.7016L52.0661 37.5448Q52.7861 38.2686 53.552 38.3018Q54.3179 38.3349 55.0238 37.629L74.105 18.5478Q74.557 18.0168 74.557 17.3709Q74.557 16.7249 74.105 16.1902L61.1217 3.28209L78.6048-14.0312Q78.9712-14.487 78.973-15.1743Q78.9749-15.8617 78.4439-16.3941L60.6034-34.2204Q75.3292-39.5818 83.1676-49.4441Q91.0059-59.3063 91.0059-71.825Q91.0059-79.5901 88.1268-86.3536Q85.2477-93.1171 80.0829-98.2819Q74.9181-103.447 68.1144-106.328Q61.3107-109.21 53.5457-109.21ZM53.5457-72.231Q49.2209-72.231 46.1802-75.3156Q43.1395-78.4003 43.1395-82.7213Q43.1395-87.041 46.182-90.0835Q49.2246-93.1261 53.5457-93.1261Q57.8705-93.1261 60.9105-90.0433Q63.9504-86.9605 63.9504-82.7213Q63.9504-78.4003 60.9105-75.3156Q57.8705-72.231 53.5457-72.231Z"/>
  </g>
  <g id="Black-M" transform="matrix(1 0 0 1 2885.8 1126)">
   <path d="M47.6004-98.8962Q40.2516-98.8962 33.8894-96.18Q27.5272-93.4638 22.7103-88.6467Q17.8934-83.8297 15.1772-77.4703Q12.4609-71.111 12.4609-63.8245Q12.4609-53.7442 17.6851-45.2479Q22.9092-36.7515 31.9036-32.2846L31.9036 11.4432Q31.9036 13.1272 32.5323 14.8747Q33.161 16.6221 34.5321 17.8273L44.1866 26.2364Q45.8947 27.7107 48.363 27.7215Q50.8313 27.7323 52.6701 25.8935L67.7984 10.7652Q69.9235 8.63486 69.895 5.71764Q69.8664 2.80043 67.7413 0.618452L61.9222-5.24703L71.2358-14.6183Q73.3042-16.738 73.33-19.6836Q73.3558-22.6293 71.2254-24.7596L63.2481-32.7534Q72.6976-38.0456 77.7187-46.1159Q82.7399-54.1862 82.7399-63.8245Q82.7399-71.111 80.021-77.4705Q77.302-83.8299 72.4851-88.6469Q67.6682-93.4638 61.3061-96.18Q54.944-98.8962 47.6004-98.8962ZM47.6004-70.0013Q44.214-70.0013 41.7987-72.4138Q39.3833-74.8262 39.3833-78.2181Q39.3833-81.6672 41.7959-84.0512Q44.2085-86.4353 47.6004-86.4353Q50.9868-86.4353 53.4022-84.02Q55.8175-81.6048 55.8175-78.2181Q55.8175-74.8262 53.4022-72.4138Q50.9868-70.0013 47.6004-70.0013Z"/>
  </g>
  <g id="Heavy-M" transform="matrix(1 0 0 1 2590.02 1126)">
   <path d="M46.6653-97.997Q39.5121-97.997 33.3173-95.3559Q27.1225-92.7147 22.4329-88.0262Q17.7433-83.3378 15.1021-77.1501Q12.4609-70.9623 12.4609-63.8714Q12.4609-53.8546 17.7313-45.4865Q23.0016-37.1184 32.0346-32.885L32.0346 11.896Q32.0346 13.4004 32.5909 14.9069Q33.1471 16.4134 34.3514 17.5032L43.6433 25.8706Q45.093 27.1293 47.2296 27.1633Q49.3662 27.1972 50.9522 25.6112L66.1685 10.3948Q67.9659 8.57883 67.9441 6.12126Q67.9223 3.66369 66.1249 1.82048L59.4095-4.90346L69.6304-15.1634Q71.3819-16.9444 71.3954-19.4249Q71.409-21.9053 69.593-23.7214L60.432-32.9316Q70.3178-38.0333 75.5937-46.087Q80.8696-54.1407 80.8696-63.8714Q80.8696-70.9623 78.2202-77.1489Q75.5709-83.3355 70.8813-88.0251Q66.1917-92.7147 59.9957-95.3559Q53.7998-97.997 46.6653-97.997ZM46.6653-68.8864Q43.2352-68.8864 40.7884-71.3261Q38.3415-73.7659 38.3415-77.2124Q38.3415-80.7025 40.7801-83.1193Q43.2188-85.5361 46.6653-85.5361Q50.0954-85.5361 52.5422-83.0881Q54.989-80.6402 54.989-77.2124Q54.989-73.7659 52.5422-71.3261Q50.0954-68.8864 46.6653-68.8864Z"/>
  </g>
  <g id="Bold-M" transform="matrix(1 0 0 1 2294.36 1126)">
   <path d="M45.6192-96.9912Q38.6848-96.9912 32.6773-94.434Q26.6697-91.8768 22.1226-87.3322Q17.5754-82.7876 15.0182-76.7918Q12.4609-70.796 12.4609-63.9239Q12.4609-53.9781 17.783-45.7534Q23.1051-37.5288 32.1812-33.5565L32.1812 12.4025Q32.1812 13.706 32.6563 14.9429Q33.1315 16.1799 34.1492 17.1405L43.0357 25.4615Q44.196 26.479 45.9616 26.5388Q47.7272 26.5986 49.0305 25.2953L64.3453 9.98051Q65.776 8.51615 65.7617 6.57276Q65.7475 4.62936 64.3168 3.16513L56.5987-4.51913L67.8345-15.7732Q69.2315-17.1752 69.2314-19.1354Q69.2313-21.0955 67.767-22.56L57.2818-33.131Q67.6557-38.0196 73.2165-46.0547Q78.7774-54.0897 78.7774-63.9239Q78.7774-70.796 76.2059-76.7892Q73.6343-82.7824 69.0872-87.3296Q64.54-91.8768 58.5299-94.434Q52.5198-96.9912 45.6192-96.9912ZM45.6192-67.6391Q42.1402-67.6391 39.6582-70.1094Q37.1761-72.5797 37.1761-76.0873Q37.1761-79.6234 39.6439-82.0768Q42.1116-84.5303 45.6192-84.5303Q49.0981-84.5303 51.5802-82.0457Q54.0622-79.5611 54.0622-76.0873Q54.0622-72.5797 51.5802-70.1094Q49.0981-67.6391 45.6192-67.6391Z"/>
  </g>
  <g id="Semibold-M" transform="matrix(1 0 0 1 1998.37 1126)">
   <path d="M44.898-96.2978Q38.1145-96.2978 32.2361-93.7984Q26.3576-91.2991 21.9086-86.8537Q17.4596-82.4083 14.9603-76.5448Q12.4609-70.6813 12.4609-63.9601Q12.4609-54.0632 17.8187-45.9374Q23.1764-37.8117 32.2822-34.0195L32.2822 12.7516Q32.2822 13.9166 32.7015 14.9678Q33.1207 16.019 34.0098 16.8905L42.6167 25.1794Q43.5777 26.0307 45.0875 26.1083Q46.5974 26.1859 47.7057 25.0775L63.0884 9.69487Q64.2663 8.47294 64.2572 6.88402Q64.2482 5.2951 63.0703 4.09212L54.661-4.25417L66.5964-16.1935Q67.749-17.3343 67.7395-18.9358Q67.73-20.5373 66.5081-21.7593L55.1101-33.2685Q65.8204-38.0101 71.5777-46.0324Q77.335-54.0546 77.335-63.9601Q77.335-70.6813 74.8172-76.5412Q72.2993-82.4011 67.8503-86.8501Q63.4013-91.2991 57.5194-93.7984Q51.6374-96.2978 44.898-96.2978ZM44.898-66.7793Q41.3854-66.7793 38.8791-69.2706Q36.3727-71.7619 36.3727-75.3117Q36.3727-78.8794 38.8605-81.3581Q41.3483-83.8369 44.898-83.8369Q48.4107-83.8369 50.9169-81.327Q53.4232-78.8171 53.4232-75.3117Q53.4232-71.7619 50.9169-69.2706Q48.4107-66.7793 44.898-66.7793Z"/>
  </g>
  <g id="Medium-M" transform="matrix(1 0 0 1 1702.2 1126)">
   <path d="M44.3512-95.772Q37.6821-95.772 31.9015-93.3165Q26.121-90.8611 21.7464-86.4909Q17.3719-82.1206 14.9164-76.3575Q12.4609-70.5944 12.4609-63.9875Q12.4609-54.1277 17.8457-46.077Q23.2305-38.0262 32.3588-34.3706L32.3588 13.0164Q32.3588 14.0763 32.7357 14.9866Q33.1126 15.8969 33.9041 16.701L42.2991 24.9656Q43.1089 25.6907 44.4248 25.7819Q45.7407 25.873 46.7012 24.9124L62.1354 9.47828Q63.1216 8.44018 63.1165 7.12003Q63.1113 5.79988 62.1251 4.795L53.1917-4.05327L65.6577-16.5123Q66.6249-17.455 66.6083-18.7845Q66.5917-20.114 65.5536-21.1522L53.4634-33.3727Q64.4288-38.0029 70.3351-46.0155Q76.2413-54.028 76.2413-63.9875Q76.2413-70.5944 73.7642-76.3532Q71.287-82.112 66.9125-86.4865Q62.5379-90.8611 56.7531-93.3165Q50.9683-95.772 44.3512-95.772ZM44.3512-66.1273Q40.813-66.1273 38.2883-68.6346Q35.7635-71.1419 35.7635-74.7235Q35.7635-78.3153 38.2665-80.8132Q40.7695-83.3111 44.3512-83.3111Q47.8894-83.3111 50.4141-80.7821Q52.9387-78.253 52.9387-74.7235Q52.9387-71.1419 50.4141-68.6346Q47.8894-66.1273 44.3512-66.1273Z"/>
  </g>
  <g id="Regular-M" transform="matrix(1 0 0 1 1406.21 1126)">
   <path d="M43.638-95.0862Q37.1181-95.0862 31.4652-92.688Q25.8123-90.2897 21.5349-86.0176Q17.2574-81.7455 14.8592-76.1132Q12.4609-70.4809 12.4609-64.0233Q12.4609-54.2119 17.881-46.259Q23.301-38.3061 32.4588-34.8284L32.4588 13.3617Q32.4588 14.2847 32.7804 15.0112Q33.1019 15.7378 33.7662 16.4537L41.8848 24.6866Q42.4974 25.2473 43.5603 25.3561Q44.6232 25.4648 45.391 24.6971L60.8923 9.19578Q61.6285 8.39744 61.6285 7.42787Q61.6285 6.4583 60.8923 5.7118L51.2753-3.79122L64.4332-16.928Q65.1588-17.6124 65.1328-18.5871Q65.1069-19.5618 64.3086-20.3603L51.3155-33.5086Q62.6137-37.9936 68.7143-45.9934Q74.8148-53.9933 74.8148-64.0233Q74.8148-70.4809 72.3908-76.1079Q69.9667-81.7349 65.6892-86.0123Q61.4118-90.2897 55.7537-92.688Q50.0956-95.0862 43.638-95.0862ZM43.638-65.2769Q40.0665-65.2769 37.5177-67.805Q34.9689-70.3331 34.9689-73.9564Q34.9689-77.5796 37.4918-80.1024Q40.0146-82.6253 43.638-82.6253Q47.2095-82.6253 49.7581-80.0713Q52.3068-77.5173 52.3068-73.9564Q52.3068-70.3331 49.7581-67.805Q47.2095-65.2769 43.638-65.2769Z"/>
  </g>
  <g id="Light-M" transform="matrix(1 0 0 1 1110.16 1126)">
   <path d="M42.9707-94.2991Q36.5876-94.2991 31.0631-91.9522Q25.5386-89.6052 21.3467-85.4273Q17.1548-81.2493 14.8079-75.7283Q12.4609-70.2073 12.4609-63.8865Q12.4609-54.2292 17.8296-46.4131Q23.1983-38.597 32.2535-35.239L32.2535 12.6944Q32.2535 13.4975 32.5409 14.1899Q32.8283 14.8822 33.4583 15.5467L41.4055 23.5916Q42.0012 24.1523 42.9186 24.2353Q43.8361 24.3183 44.5354 23.619L59.8142 8.34023Q60.4308 7.66177 60.4308 6.83752Q60.4308 6.01327 59.8142 5.3697L50.0604-4.28742L63.3381-17.5099Q63.9269-18.0916 63.9094-18.9294Q63.892-19.7671 63.2135-20.446L49.9637-33.7995Q61.2962-38.1819 67.3881-46.0705Q73.48-53.959 73.48-63.8865Q73.48-70.2073 71.1159-75.7143Q68.7518-81.2214 64.5599-85.4133Q60.3679-89.6052 54.8297-91.9522Q49.2915-94.2991 42.9707-94.2991ZM42.9707-64.8492Q39.4677-64.8492 36.9787-67.3344Q34.4897-69.8197 34.4897-73.3576Q34.4897-76.8951 36.9612-79.3666Q39.4328-81.8381 42.9707-81.8381Q46.4738-81.8381 48.9625-79.3355Q51.4513-76.8328 51.4513-73.3576Q51.4513-69.8197 48.9625-67.3344Q46.4738-64.8492 42.9707-64.8492Z"/>
  </g>
  <g id="Thin-M" transform="matrix(1 0 0 1 814.334 1126)">
   <path d="M42.0882-93.258Q35.8861-93.258 30.5314-90.979Q25.1766-88.6999 21.0978-84.6465Q17.019-80.593 14.74-75.2192Q12.4609-69.8453 12.4609-63.7055Q12.4609-54.252 17.7618-46.6169Q23.0626-38.9818 31.982-35.7819L31.982 11.812Q31.982 12.4565 32.2242 13.1036Q32.4663 13.7507 33.0511 14.3471L40.7717 22.1433Q41.3449 22.704 42.07 22.753Q42.795 22.802 43.4039 22.1932L58.3884 7.20869Q58.8468 6.68878 58.8468 6.05674Q58.8468 5.42469 58.3884 4.91723L48.4535-4.94368L61.8899-18.2795Q62.2976-18.7255 62.2914-19.382Q62.2852-20.0386 61.7653-20.5593L48.1759-34.1843Q59.5536-38.4309 65.6342-46.1724Q71.7147-53.9138 71.7147-63.7055Q71.7147-69.8453 69.4298-75.1938Q67.145-80.5423 63.0662-84.6211Q58.9874-88.6999 53.6077-90.979Q48.228-93.258 42.0882-93.258ZM42.0882-64.2834Q38.6757-64.2834 36.2658-66.712Q33.8559-69.1406 33.8559-72.5656Q33.8559-75.9898 36.2595-78.3934Q38.6632-80.7971 42.0882-80.7971Q45.5008-80.7971 47.9103-78.3623Q50.3197-75.9275 50.3197-72.5656Q50.3197-69.1406 47.9103-66.712Q45.5008-64.2834 42.0882-64.2834Z"/>
  </g>
  <g id="Ultralight-M" transform="matrix(1 0 0 1 518.075 1126)">
   <path d="M41.6362-92.7248Q35.5268-92.7248 30.259-90.4805Q24.9912-88.2362 20.9704-84.2466Q16.9495-80.2569 14.7052-74.9584Q12.4609-69.6599 12.4609-63.6128Q12.4609-54.2637 17.727-46.7213Q22.9931-39.1789 31.843-36.06L31.843 11.3599Q31.843 11.9233 32.0619 12.5472Q32.2809 13.1711 32.8425 13.7327L40.4471 21.4015Q41.0088 21.9623 41.6353 21.9938Q42.2618 22.0254 42.8243 21.4629L57.6581 6.62912Q58.0355 6.19042 58.0355 5.65682Q58.0355 5.12322 57.6581 4.68548L47.6305-5.27982L61.1481-18.6736Q61.4631-19.0501 61.4627-19.6139Q61.4622-20.1776 61.0235-20.6174L47.2602-34.3814Q58.6611-38.5585 64.7358-46.2245Q70.8105-53.8906 70.8105-63.6128Q70.8105-69.6599 68.5662-74.9272Q66.3219-80.1945 62.3011-84.2154Q58.2802-88.2362 52.9818-90.4805Q47.6833-92.7248 41.6362-92.7248ZM41.6362-63.9936Q38.27-63.9936 35.9006-66.3932Q33.5312-68.7928 33.5312-72.1599Q33.5312-75.5261 35.9001-77.895Q38.269-80.2639 41.6362-80.2639Q45.0024-80.2639 47.3713-77.8638Q49.7402-75.4638 49.7402-72.1599Q49.7402-68.7928 47.3713-66.3932Q45.0024-63.9936 41.6362-63.9936Z"/>
  </g>
  <g id="Black-S" transform="matrix(1 0 0 1 2895.85 696)">
   <path d="M37.5488-85.3516Q31.7383-85.3516 26.709-83.2031Q21.6797-81.0547 17.8711-77.2461Q14.0625-73.4375 11.9141-68.4082Q9.76562-63.3789 9.76562-57.6172Q9.76562-49.707 13.8428-43.0176Q17.9199-36.3281 24.9512-32.7637L24.9512 1.17188Q24.9512 2.53906 25.4639 3.97949Q25.9766 5.41992 27.0996 6.39648L34.7656 12.9883Q36.1816 14.209 38.208 14.209Q40.2344 14.209 41.748 12.6953L53.5645 0.878906Q55.3223-0.878906 55.2979-3.2959Q55.2734-5.71289 53.5156-7.51953L49.2188-11.8652L56.25-18.9453Q57.959-20.7031 57.9834-23.1445Q58.0078-25.5859 56.25-27.3438L50.3418-33.252Q57.6172-37.4512 61.4746-43.7744Q65.332-50.0977 65.332-57.6172Q65.332-63.3789 63.1836-68.4082Q61.0352-73.4375 57.2266-77.2461Q53.418-81.0547 48.3887-83.2031Q43.3594-85.3516 37.5488-85.3516ZM37.5488-62.793Q34.9121-62.793 33.0322-64.6729Q31.1523-66.5527 31.1523-69.1895Q31.1523-71.875 33.0322-73.7305Q34.9121-75.5859 37.5488-75.5859Q40.1855-75.5859 42.0654-73.7061Q43.9453-71.8262 43.9453-69.1895Q43.9453-66.5527 42.0654-64.6729Q40.1855-62.793 37.5488-62.793Z"/>
  </g>
  <g id="Heavy-S" transform="matrix(1 0 0 1 2599.85 696)">
   <path d="M36.8343-84.6831Q31.1736-84.6831 26.2711-82.5923Q21.3685-80.5015 17.6579-76.7909Q13.9473-73.0802 11.8564-68.1835Q9.76562-63.2867 9.76562-57.6748Q9.76562-49.7992 13.8889-43.202Q18.0121-36.6047 25.0895-33.2247L25.0895 1.64438Q25.0895 2.87327 25.5445 4.11202Q25.9996 5.35078 26.9844 6.23514L34.3623 12.8154Q35.5593 13.8517 37.3206 13.8748Q39.0819 13.8978 40.3882 12.5916L52.3083 0.671466Q53.801-0.832808 53.7824-2.87526Q53.7637-4.9177 52.271-6.44776L47.225-11.508L55.0169-19.3371Q56.4723-20.8184 56.4852-22.8795Q56.4981-24.9406 54.9938-26.4448L48.1061-33.3672Q55.7502-37.4166 59.8266-43.7398Q63.903-50.0631 63.903-57.6748Q63.903-63.2867 61.8064-68.1835Q59.7098-73.0802 55.9992-76.7909Q52.2886-80.5015 47.386-82.5923Q42.4835-84.6831 36.8343-84.6831ZM36.8343-61.8941Q34.1515-61.8941 32.237-63.8028Q30.3226-65.7114 30.3226-68.4058Q30.3226-71.1374 32.2313-73.0275Q34.14-74.9175 36.8343-74.9175Q39.5171-74.9175 41.4316-73.0031Q43.346-71.0886 43.346-68.4058Q43.346-65.7114 41.4316-63.8028Q39.5171-61.8941 36.8343-61.8941Z"/>
  </g>
  <g id="Bold-S" transform="matrix(1 0 0 1 2303.94 696)">
   <path d="M36.0352-83.9355Q30.542-83.9355 25.7812-81.9092Q21.0205-79.8828 17.4194-76.2817Q13.8184-72.6807 11.792-67.9321Q9.76562-63.1836 9.76562-57.7393Q9.76562-49.9023 13.9404-43.4082Q18.1152-36.9141 25.2441-33.7402L25.2441 2.17285Q25.2441 3.24707 25.6348 4.26025Q26.0254 5.27344 26.8555 6.05469L33.9111 12.6221Q34.8633 13.4521 36.3281 13.501Q37.793 13.5498 38.8672 12.4756L50.9033 0.439453Q52.0996-0.78125 52.0874-2.40479Q52.0752-4.02832 50.8789-5.24902L44.9951-11.1084L53.6377-19.7754Q54.8096-20.9473 54.8096-22.583Q54.8096-24.2188 53.5889-25.4395L45.6055-33.4961Q53.6621-37.3779 57.9834-43.7012Q62.3047-50.0244 62.3047-57.7393Q62.3047-63.1836 60.2661-67.9321Q58.2275-72.6807 54.6265-76.2817Q51.0254-79.8828 46.2646-81.9092Q41.5039-83.9355 36.0352-83.9355ZM36.0352-60.8887Q33.3008-60.8887 31.3477-62.8296Q29.3945-64.7705 29.3945-67.5293Q29.3945-70.3125 31.3354-72.2412Q33.2764-74.1699 36.0352-74.1699Q38.7695-74.1699 40.7227-72.2168Q42.6758-70.2637 42.6758-67.5293Q42.6758-64.7705 40.7227-62.8296Q38.7695-60.8887 36.0352-60.8887Z"/>
  </g>
  <g id="Semibold-S" transform="matrix(1 0 0 1 2007.78 696)">
   <path d="M35.4842-83.4201Q30.1065-83.4201 25.4436-81.4382Q20.7806-79.4562 17.255-75.9307Q13.7295-72.4052 11.7476-67.7588Q9.76562-63.1125 9.76562-57.7837Q9.76562-49.9734 13.976-43.5504Q18.1863-37.1273 25.3508-34.0957L25.3508 2.53721Q25.3508 3.50479 25.697 4.36245Q26.0432 5.22012 26.7666 5.93027L33.6001 12.4888Q34.3834 13.1767 35.6438 13.2433Q36.9043 13.3099 37.8186 12.3956L49.9347 0.279492Q50.9266-0.745703 50.9188-2.08042Q50.911-3.41514 49.9191-4.42256L43.4577-10.8329L52.6868-20.0775Q53.6632-21.0361 53.6543-22.3786Q53.6454-23.7211 52.6202-24.7463L43.8814-33.585Q52.2225-37.3513 56.7126-43.6745Q61.2027-49.9978 61.2027-57.7837Q61.2027-63.1125 59.2042-67.7588Q57.2056-72.4052 53.68-75.9307Q50.1545-79.4562 45.4915-81.4382Q40.8285-83.4201 35.4842-83.4201ZM35.4842-60.1955Q32.7143-60.1955 30.7345-62.1586Q28.7547-64.1218 28.7547-66.925Q28.7547-69.7438 30.7178-71.6991Q32.681-73.6545 35.4842-73.6545Q38.2541-73.6545 40.2339-71.6747Q42.2137-69.6949 42.2137-66.925Q42.2137-64.1218 40.2339-62.1586Q38.2541-60.1955 35.4842-60.1955Z"/>
  </g>
  <g id="Medium-S" transform="matrix(1 0 0 1 1711.49 696)">
   <path d="M35.0664-83.0293Q29.7764-83.0293 25.1875-81.0811Q20.5986-79.1328 17.1304-75.6646Q13.6621-72.1963 11.7139-67.6274Q9.76562-63.0586 9.76562-57.8174Q9.76562-50.0273 14.0029-43.6582Q18.2402-37.2891 25.4316-34.3652L25.4316 2.81348Q25.4316 3.7002 25.7441 4.43994Q26.0566 5.17969 26.6992 5.83594L33.3643 12.3877Q34.0195 12.9678 35.125 13.0479Q36.2305 13.1279 37.0234 12.335L49.2002 0.158203Q50.0371-0.71875 50.0327-1.83447Q50.0283-2.9502 49.1914-3.7959L42.292-10.624L51.9658-20.3066Q52.7939-21.1035 52.7783-22.2236Q52.7627-23.3438 51.8857-24.2207L42.5742-33.6523Q51.1309-37.3311 55.749-43.6543Q60.3672-49.9775 60.3672-57.8174Q60.3672-63.0586 58.3989-67.6274Q56.4307-72.1963 52.9624-75.6646Q49.4941-79.1328 44.9053-81.0811Q40.3164-83.0293 35.0664-83.0293ZM35.0664-59.6699Q32.2695-59.6699 30.2695-61.6499Q28.2695-63.6299 28.2695-66.4668Q28.2695-69.3125 30.2495-71.2881Q32.2295-73.2637 35.0664-73.2637Q37.8633-73.2637 39.8633-71.2637Q41.8633-69.2637 41.8633-66.4668Q41.8633-63.6299 39.8633-61.6499Q37.8633-59.6699 35.0664-59.6699Z"/>
  </g>
  <g id="Regular-S" transform="matrix(1 0 0 1 1415.32 696)">
   <path d="M34.5215-82.5195Q29.3457-82.5195 24.8535-80.6152Q20.3613-78.7109 16.9678-75.3174Q13.5742-71.9238 11.6699-67.4561Q9.76562-62.9883 9.76562-57.8613Q9.76562-50.0977 14.0381-43.7988Q18.3105-37.5 25.5371-34.7168L25.5371 3.17383Q25.5371 3.95508 25.8057 4.54102Q26.0742 5.12695 26.6113 5.71289L33.0566 12.2559Q33.5449 12.6953 34.4482 12.793Q35.3516 12.8906 35.9863 12.2559L48.2422 0Q48.877-0.683594 48.877-1.51367Q48.877-2.34375 48.2422-2.97852L40.7715-10.3516L51.0254-20.6055Q51.6602-21.1914 51.6357-22.0215Q51.6113-22.8516 50.9277-23.5352L40.8691-33.7402Q49.707-37.3047 54.4922-43.6279Q59.2773-49.9512 59.2773-57.8613Q59.2773-62.9883 57.3486-67.4561Q55.4199-71.9238 52.0264-75.3174Q48.6328-78.7109 44.1406-80.6152Q39.6484-82.5195 34.5215-82.5195ZM34.5215-58.9844Q31.6895-58.9844 29.6631-60.9863Q27.6367-62.9883 27.6367-65.8691Q27.6367-68.75 29.6387-70.752Q31.6406-72.7539 34.5215-72.7539Q37.3535-72.7539 39.3799-70.7275Q41.4062-68.7012 41.4062-65.8691Q41.4062-62.9883 39.3799-60.9863Q37.3535-58.9844 34.5215-58.9844Z"/>
  </g>
  <g id="Light-S" transform="matrix(1 0 0 1 1119.2 696)">
   <path d="M33.9312-81.8232Q28.8765-81.8232 24.4979-79.9643Q20.1192-78.1054 16.8013-74.7952Q13.4834-71.4849 11.6245-67.1155Q9.76562-62.7462 9.76562-57.7403Q9.76562-50.1129 13.9927-43.9351Q18.2198-37.7574 25.3555-35.08L25.3555 2.58357Q25.3555 3.25877 25.5938 3.81444Q25.8321 4.37012 26.339 4.91053L32.6327 11.2872Q33.106 11.7266 33.8806 11.8015Q34.6553 11.8764 35.2295 11.3022L47.2885-0.756836Q47.8175-1.33438 47.8175-2.0359Q47.8175-2.73743 47.2885-3.28115L39.6968-10.7905L50.0567-21.1202Q50.5704-21.6153 50.5535-22.3242Q50.5366-23.0331 49.9591-23.6109L39.6734-33.9976Q48.5415-37.4713 53.319-43.6961Q58.0966-49.9209 58.0966-57.7403Q58.0966-62.7462 56.2209-67.1079Q54.3452-71.4696 51.0273-74.7875Q47.7094-78.1054 43.3233-79.9643Q38.9371-81.8232 33.9312-81.8232ZM33.9312-58.606Q31.1597-58.606 29.1862-60.57Q27.2128-62.5341 27.2128-65.3394Q27.2128-68.1445 29.1693-70.101Q31.1259-72.0576 33.9312-72.0576Q36.7027-72.0576 38.6761-70.0766Q40.6494-68.0957 40.6494-65.3394Q40.6494-62.5341 38.6761-60.57Q36.7027-58.606 33.9312-58.606Z"/>
  </g>
  <g id="Thin-S" transform="matrix(1 0 0 1 823.272 696)">
   <path d="M33.1506-80.9023Q28.2559-80.9023 24.0275-79.1034Q19.799-77.3046 16.5812-74.1045Q13.3634-70.9043 11.5645-66.6652Q9.76562-62.426 9.76562-57.5802Q9.76562-50.1331 13.9327-44.1154Q18.0997-38.0978 25.1154-35.5603L25.1154 1.8029Q25.1154 2.33784 25.3136 2.85349Q25.5119 3.36914 25.9787 3.84935L32.072 10.006Q32.5254 10.4455 33.1299 10.4903Q33.7343 10.5351 34.2285 10.0409L46.0272-1.75781Q46.4163-2.1951 46.4163-2.7266Q46.4163-3.2581 46.0272-3.6814L38.2753-11.371L48.7756-21.801Q49.1292-22.176 49.1222-22.7247Q49.1152-23.2733 48.6779-23.7112L38.0918-34.338Q47-37.6916 51.7675-43.7862Q56.5349-49.8809 56.5349-57.5802Q56.5349-62.426 54.7293-66.6474Q52.9238-70.8689 49.7059-74.0867Q46.4881-77.3046 42.2422-79.1034Q37.9964-80.9023 33.1506-80.9023ZM33.1506-58.1055Q30.4591-58.1055 28.5556-60.0194Q26.6521-61.9334 26.6521-64.6388Q26.6521-67.3436 28.5486-69.2402Q30.4451-71.1367 33.1506-71.1367Q35.842-71.1367 37.7452-69.2157Q39.6484-67.2948 39.6484-64.6388Q39.6484-61.9334 37.7452-60.0194Q35.842-58.1055 33.1506-58.1055Z"/>
  </g>
  <g id="Ultralight-S" transform="matrix(1 0 0 1 526.961 696)">
   <path d="M32.7507-80.4306Q27.9381-80.4306 23.7865-78.6625Q19.635-76.8944 16.4684-73.7507Q13.3018-70.607 11.5337-66.4345Q9.76562-62.262 9.76562-57.4982Q9.76562-50.1434 13.9019-44.2078Q18.0382-38.2721 24.9924-35.8063L24.9924 1.40305Q24.9924 1.86615 25.1701 2.3613Q25.3479 2.85645 25.7942 3.30582L31.7848 9.34982Q32.2281 9.78928 32.7454 9.81865Q33.2626 9.84802 33.7158 9.39484L45.3812-2.27051Q45.6985-2.63596 45.6985-3.08037Q45.6985-3.52478 45.3812-3.88641L37.5473-11.6684L48.1194-22.1497Q48.391-22.4632 48.3891-22.9298Q48.3871-23.3963 48.0217-23.7625L37.2818-34.5123Q46.2105-37.8044 50.9727-43.8324Q55.735-49.8604 55.735-57.4982Q55.735-62.262 53.9654-66.4116Q52.1957-70.5612 49.0292-73.7278Q45.8626-76.8944 41.6885-78.6625Q37.5145-80.4306 32.7507-80.4306ZM32.7507-57.8491Q30.1003-57.8491 28.2326-59.7374Q26.3649-61.6257 26.3649-64.2799Q26.3649-66.9334 28.2307-68.7992Q30.0964-70.665 32.7507-70.665Q35.4012-70.665 37.2684-68.7748Q39.1357-66.8846 39.1357-64.2799Q39.1357-61.6257 37.2684-59.7374Q35.4012-57.8491 32.7507-57.8491Z"/>
  </g>
 </g>
</svg>
