<?xml version="1.0" encoding="UTF-8"?>
<!--Generator: Apple Native CoreSVG 175-->
<!DOCTYPE svg
PUBLIC "-//W3C//DTD SVG 1.1//EN"
       "http://www.w3.org/Graphics/SVG/1.1/DTD/svg11.dtd">
<svg version="1.1" xmlns="http://www.w3.org/2000/svg" xmlns:xlink="http://www.w3.org/1999/xlink" width="3300" height="2200">
 <!--glyph: "uni100EBE.medium", point size: 100.0, font version: "17.0d11e1", template writer version: "65.1"-->
 <g id="Notes">
  <rect height="2200" id="artboard" style="fill:white;opacity:1" width="3300" x="0" y="0"/>
  <line style="fill:none;stroke:black;opacity:1;stroke-width:0.5;" x1="263" x2="3036" y1="292" y2="292"/>
  <text style="stroke:none;fill:black;font-family:sans-serif;font-size:13;font-weight:bold;" transform="matrix(1 0 0 1 263 322)">Weight/Scale Variations</text>
  <text style="stroke:none;fill:black;font-family:sans-serif;font-size:13;text-anchor:middle;" transform="matrix(1 0 0 1 559.711 322)">Ultralight</text>
  <text style="stroke:none;fill:black;font-family:sans-serif;font-size:13;text-anchor:middle;" transform="matrix(1 0 0 1 856.422 322)">Thin</text>
  <text style="stroke:none;fill:black;font-family:sans-serif;font-size:13;text-anchor:middle;" transform="matrix(1 0 0 1 1153.13 322)">Light</text>
  <text style="stroke:none;fill:black;font-family:sans-serif;font-size:13;text-anchor:middle;" transform="matrix(1 0 0 1 1449.84 322)">Regular</text>
  <text style="stroke:none;fill:black;font-family:sans-serif;font-size:13;text-anchor:middle;" transform="matrix(1 0 0 1 1746.56 322)">Medium</text>
  <text style="stroke:none;fill:black;font-family:sans-serif;font-size:13;text-anchor:middle;" transform="matrix(1 0 0 1 2043.27 322)">Semibold</text>
  <text style="stroke:none;fill:black;font-family:sans-serif;font-size:13;text-anchor:middle;" transform="matrix(1 0 0 1 2339.98 322)">Bold</text>
  <text style="stroke:none;fill:black;font-family:sans-serif;font-size:13;text-anchor:middle;" transform="matrix(1 0 0 1 2636.69 322)">Heavy</text>
  <text style="stroke:none;fill:black;font-family:sans-serif;font-size:13;text-anchor:middle;" transform="matrix(1 0 0 1 2933.4 322)">Black</text>
  <line style="fill:none;stroke:black;opacity:1;stroke-width:0.5;" x1="263" x2="3036" y1="1903" y2="1903"/>
  <g transform="matrix(1 0 0 1 263 1933)">
   <path d="M9.24805 0.830078Q10.8691 0.830078 12.2949 0.214844Q13.7207-0.400391 14.8096-1.49414Q15.8984-2.58789 16.5186-4.01367Q17.1387-5.43945 17.1387-7.05078Q17.1387-8.66211 16.5186-10.0879Q15.8984-11.5137 14.8047-12.6074Q13.7109-13.7012 12.2852-14.3164Q10.8594-14.9316 9.23828-14.9316Q7.62695-14.9316 6.20117-14.3164Q4.77539-13.7012 3.69141-12.6074Q2.60742-11.5137 1.9873-10.0879Q1.36719-8.66211 1.36719-7.05078Q1.36719-5.43945 1.9873-4.01367Q2.60742-2.58789 3.69629-1.49414Q4.78516-0.400391 6.21094 0.214844Q7.63672 0.830078 9.24805 0.830078ZM9.24805-0.654297Q7.91992-0.654297 6.7627-1.14746Q5.60547-1.64062 4.73145-2.51953Q3.85742-3.39844 3.36426-4.56055Q2.87109-5.72266 2.87109-7.05078Q2.87109-8.37891 3.35938-9.54102Q3.84766-10.7031 4.72168-11.582Q5.5957-12.4609 6.75293-12.9541Q7.91016-13.4473 9.23828-13.4473Q10.5762-13.4473 11.7334-12.9541Q12.8906-12.4609 13.7695-11.582Q14.6484-10.7031 15.1465-9.54102Q15.6445-8.37891 15.6445-7.05078Q15.6445-5.72266 15.1514-4.56055Q14.6582-3.39844 13.7842-2.51953Q12.9102-1.64062 11.748-1.14746Q10.5859-0.654297 9.24805-0.654297ZM5.6543-7.05078Q5.6543-6.72852 5.85938-6.52832Q6.06445-6.32812 6.40625-6.32812L8.51562-6.32812L8.51562-4.20898Q8.51562-3.88672 8.71094-3.67676Q8.90625-3.4668 9.23828-3.4668Q9.56055-3.4668 9.77051-3.67676Q9.98047-3.88672 9.98047-4.20898L9.98047-6.32812L12.0898-6.32812Q12.4219-6.32812 12.627-6.52832Q12.832-6.72852 12.832-7.05078Q12.832-7.38281 12.627-7.58789Q12.4219-7.79297 12.0898-7.79297L9.98047-7.79297L9.98047-9.90234Q9.98047-10.2344 9.77051-10.4443Q9.56055-10.6543 9.23828-10.6543Q8.90625-10.6543 8.71094-10.4443Q8.51562-10.2344 8.51562-9.90234L8.51562-7.79297L6.40625-7.79297Q6.06445-7.79297 5.85938-7.58789Q5.6543-7.38281 5.6543-7.05078Z"/>
  </g>
  <g transform="matrix(1 0 0 1 281.867 1933)">
   <path d="M11.709 2.91016Q13.75 2.91016 15.5518 2.12891Q17.3535 1.34766 18.7305-0.0292969Q20.1074-1.40625 20.8887-3.20801Q21.6699-5.00977 21.6699-7.05078Q21.6699-9.0918 20.8887-10.8936Q20.1074-12.6953 18.7305-14.0723Q17.3535-15.4492 15.5469-16.2305Q13.7402-17.0117 11.6992-17.0117Q9.6582-17.0117 7.85645-16.2305Q6.05469-15.4492 4.68262-14.0723Q3.31055-12.6953 2.5293-10.8936Q1.74805-9.0918 1.74805-7.05078Q1.74805-5.00977 2.5293-3.20801Q3.31055-1.40625 4.6875-0.0292969Q6.06445 1.34766 7.86621 2.12891Q9.66797 2.91016 11.709 2.91016ZM11.709 1.25Q9.98047 1.25 8.47656 0.605469Q6.97266-0.0390625 5.83496-1.17676Q4.69727-2.31445 4.05762-3.81836Q3.41797-5.32227 3.41797-7.05078Q3.41797-8.7793 4.05762-10.2832Q4.69727-11.7871 5.83008-12.9297Q6.96289-14.0723 8.4668-14.7119Q9.9707-15.3516 11.6992-15.3516Q13.4277-15.3516 14.9316-14.7119Q16.4355-14.0723 17.5781-12.9297Q18.7207-11.7871 19.3652-10.2832Q20.0098-8.7793 20.0098-7.05078Q20.0098-5.32227 19.3701-3.81836Q18.7305-2.31445 17.5928-1.17676Q16.4551-0.0390625 14.9463 0.605469Q13.4375 1.25 11.709 1.25ZM7.17773-7.05078Q7.17773-6.69922 7.41211-6.47461Q7.64648-6.25 8.01758-6.25L10.8887-6.25L10.8887-3.36914Q10.8887-2.99805 11.1133-2.76855Q11.3379-2.53906 11.6895-2.53906Q12.0605-2.53906 12.29-2.76855Q12.5195-2.99805 12.5195-3.36914L12.5195-6.25L15.4004-6.25Q15.7715-6.25 16.001-6.47461Q16.2305-6.69922 16.2305-7.05078Q16.2305-7.42188 16.001-7.65137Q15.7715-7.88086 15.4004-7.88086L12.5195-7.88086L12.5195-10.752Q12.5195-11.1328 12.29-11.3623Q12.0605-11.5918 11.6895-11.5918Q11.3379-11.5918 11.1133-11.3574Q10.8887-11.123 10.8887-10.752L10.8887-7.88086L8.01758-7.88086Q7.63672-7.88086 7.40723-7.65137Q7.17773-7.42188 7.17773-7.05078Z"/>
  </g>
  <g transform="matrix(1 0 0 1 305.646 1933)">
   <path d="M14.9707 5.66406Q17.0605 5.66406 18.96 5.01465Q20.8594 4.36523 22.4512 3.19336Q24.043 2.02148 25.2197 0.429688Q26.3965-1.16211 27.0459-3.06641Q27.6953-4.9707 27.6953-7.05078Q27.6953-9.14062 27.0459-11.04Q26.3965-12.9395 25.2197-14.5312Q24.043-16.123 22.4512-17.2998Q20.8594-18.4766 18.9551-19.126Q17.0508-19.7754 14.9609-19.7754Q12.8711-19.7754 10.9717-19.126Q9.07227-18.4766 7.48535-17.2998Q5.89844-16.123 4.72168-14.5312Q3.54492-12.9395 2.90039-11.04Q2.25586-9.14062 2.25586-7.05078Q2.25586-4.9707 2.90527-3.06641Q3.55469-1.16211 4.72656 0.429688Q5.89844 2.02148 7.49023 3.19336Q9.08203 4.36523 10.9814 5.01465Q12.8809 5.66406 14.9707 5.66406ZM14.9707 3.84766Q13.1641 3.84766 11.5283 3.2959Q9.89258 2.74414 8.53516 1.74805Q7.17773 0.751953 6.17676-0.610352Q5.17578-1.97266 4.62891-3.6084Q4.08203-5.24414 4.08203-7.05078Q4.08203-8.86719 4.62891-10.5029Q5.17578-12.1387 6.17188-13.501Q7.16797-14.8633 8.52539-15.8594Q9.88281-16.8555 11.5186-17.4023Q13.1543-17.9492 14.9609-17.9492Q16.7773-17.9492 18.4131-17.4023Q20.0488-16.8555 21.4111-15.8594Q22.7734-14.8633 23.7695-13.501Q24.7656-12.1387 25.3174-10.5029Q25.8691-8.86719 25.8691-7.05078Q25.8789-5.24414 25.332-3.6084Q24.7852-1.97266 23.7842-0.610352Q22.7832 0.751953 21.4209 1.74805Q20.0586 2.74414 18.4229 3.2959Q16.7871 3.84766 14.9707 3.84766ZM9.19922-7.05078Q9.19922-6.66992 9.45801-6.4209Q9.7168-6.17188 10.1172-6.17188L14.0625-6.17188L14.0625-2.2168Q14.0625-1.81641 14.3115-1.55762Q14.5605-1.29883 14.9512-1.29883Q15.3516-1.29883 15.6104-1.55273Q15.8691-1.80664 15.8691-2.2168L15.8691-6.17188L19.8242-6.17188Q20.2246-6.17188 20.4785-6.4209Q20.7324-6.66992 20.7324-7.05078Q20.7324-7.46094 20.4785-7.71484Q20.2246-7.96875 19.8242-7.96875L15.8691-7.96875L15.8691-11.9141Q15.8691-12.3242 15.6104-12.583Q15.3516-12.8418 14.9512-12.8418Q14.5605-12.8418 14.3115-12.583Q14.0625-12.3242 14.0625-11.9141L14.0625-7.96875L10.1172-7.96875Q9.70703-7.96875 9.45312-7.71484Q9.19922-7.46094 9.19922-7.05078Z"/>
  </g>
  <text style="stroke:none;fill:black;font-family:sans-serif;font-size:13;font-weight:bold;" transform="matrix(1 0 0 1 263 1953)">Design Variations</text>
  <text style="stroke:none;fill:black;font-family:sans-serif;font-size:13;" transform="matrix(1 0 0 1 263 1971)">Symbols are supported in up to nine weights and three scales.</text>
  <text style="stroke:none;fill:black;font-family:sans-serif;font-size:13;" transform="matrix(1 0 0 1 263 1989)">For optimal layout with text and other symbols, vertically align</text>
  <text style="stroke:none;fill:black;font-family:sans-serif;font-size:13;" transform="matrix(1 0 0 1 263 2007)">symbols with the adjacent text.</text>
  <line style="fill:none;stroke:#00AEEF;stroke-width:0.5;opacity:1.0;" x1="776" x2="776" y1="1919" y2="1933"/>
  <g transform="matrix(1 0 0 1 776 1933)">
   <path d="M3.31055 0.15625Q3.70117 0.15625 3.91602-0.00976562Q4.13086-0.175781 4.26758-0.585938L5.52734-4.0332L11.2891-4.0332L12.5488-0.585938Q12.6855-0.175781 12.9004-0.00976562Q13.1152 0.15625 13.4961 0.15625Q13.8867 0.15625 14.1162-0.0585938Q14.3457-0.273438 14.3457-0.644531Q14.3457-0.869141 14.2383-1.17188L9.6582-13.3691Q9.48242-13.8184 9.17969-14.043Q8.87695-14.2676 8.4082-14.2676Q7.5-14.2676 7.17773-13.3789L2.59766-1.16211Q2.49023-0.859375 2.49023-0.634766Q2.49023-0.263672 2.70996-0.0537109Q2.92969 0.15625 3.31055 0.15625ZM6.00586-5.51758L8.37891-12.0898L8.42773-12.0898L10.8008-5.51758Z"/>
  </g>
  <line style="fill:none;stroke:#00AEEF;stroke-width:0.5;opacity:1.0;" x1="793.197" x2="793.197" y1="1919" y2="1933"/>
  <text style="stroke:none;fill:black;font-family:sans-serif;font-size:13;font-weight:bold;" transform="matrix(1 0 0 1 776 1953)">Margins</text>
  <text style="stroke:none;fill:black;font-family:sans-serif;font-size:13;" transform="matrix(1 0 0 1 776 1971)">Leading and trailing margins on the left and right side of each symbol</text>
  <text style="stroke:none;fill:black;font-family:sans-serif;font-size:13;" transform="matrix(1 0 0 1 776 1989)">can be adjusted by modifying the x-location of the margin guidelines.</text>
  <text style="stroke:none;fill:black;font-family:sans-serif;font-size:13;" transform="matrix(1 0 0 1 776 2007)">Modifications are automatically applied proportionally to all</text>
  <text style="stroke:none;fill:black;font-family:sans-serif;font-size:13;" transform="matrix(1 0 0 1 776 2025)">scales and weights.</text>
  <g transform="matrix(1 0 0 1 1289 1933)">
   <path d="M2.8418 1.86523L4.54102 3.57422Q5.18555 4.22852 5.90332 4.17969Q6.62109 4.13086 7.31445 3.35938L18.0078-8.42773L17.041-9.4043L6.42578 2.27539Q6.16211 2.57812 5.89355 2.61719Q5.625 2.65625 5.27344 2.30469L4.10156 1.14258Q3.75 0.791016 3.79395 0.522461Q3.83789 0.253906 4.14062-0.0195312L15.6152-10.8203L14.6387-11.7871L3.04688-0.898438Q2.30469-0.214844 2.25098 0.498047Q2.19727 1.21094 2.8418 1.86523ZM9.25781-16.3281Q8.94531-16.0254 8.90625-15.6348Q8.86719-15.2441 9.04297-14.9512Q9.21875-14.6777 9.55566-14.541Q9.89258-14.4043 10.3809-14.5215Q11.4746-14.7754 12.5977-14.7314Q13.7207-14.6875 14.7949-13.9844L14.209-12.5293Q13.9551-11.9043 14.0674-11.4404Q14.1797-10.9766 14.5801-10.5664L16.875-8.25195Q17.2363-7.88086 17.5781-7.82227Q17.9199-7.76367 18.3398-7.8418L19.4043-8.03711L20.0684-7.36328L20.0293-6.80664Q20-6.43555 20.1221-6.12305Q20.2441-5.81055 20.6055-5.44922L21.3672-4.70703Q21.7285-4.3457 22.1533-4.33105Q22.5781-4.31641 22.9297-4.66797L25.8398-7.58789Q26.1914-7.93945 26.1816-8.35449Q26.1719-8.76953 25.8105-9.13086L25.0391-9.89258Q24.6875-10.2539 24.3799-10.3857Q24.0723-10.5176 23.7109-10.4883L23.1348-10.4395L22.4902-11.0742L22.7344-12.1973Q22.832-12.6172 22.6953-12.9834Q22.5586-13.3496 22.1191-13.7891L19.9219-15.9766Q18.6719-17.2168 17.2607-17.8369Q15.8496-18.457 14.4189-18.4814Q12.9883-18.5059 11.665-17.959Q10.3418-17.4121 9.25781-16.3281ZM10.752-15.957Q11.6602-16.6211 12.7002-16.9043Q13.7402-17.1875 14.8047-17.085Q15.8691-16.9824 16.8701-16.5137Q17.8711-16.0449 18.7012-15.2051L21.1328-12.793Q21.3086-12.6172 21.3525-12.4512Q21.3965-12.2852 21.3379-12.0312L21.0156-10.5469L22.5195-9.0625L23.5059-9.12109Q23.6914-9.13086 23.7891-9.09668Q23.8867-9.0625 24.0332-8.91602L24.6094-8.33984L22.168-5.89844L21.5918-6.47461Q21.4453-6.62109 21.4062-6.71875Q21.3672-6.81641 21.377-7.01172L21.4453-7.98828L19.9512-9.47266L18.4277-9.21875Q18.1836-9.16992 18.042-9.2041Q17.9004-9.23828 17.7148-9.41406L15.7129-11.416Q15.5176-11.5918 15.4932-11.7529Q15.4688-11.9141 15.5859-12.1875L16.4648-14.2773Q15.293-15.3711 13.8281-15.791Q12.3633-16.2109 10.8398-15.7617Q10.7227-15.7324 10.6885-15.8057Q10.6543-15.8789 10.752-15.957Z"/>
  </g>
  <text style="stroke:none;fill:black;font-family:sans-serif;font-size:13;font-weight:bold;" transform="matrix(1 0 0 1 1289 1953)">Exporting</text>
  <text style="stroke:none;fill:black;font-family:sans-serif;font-size:13;" transform="matrix(1 0 0 1 1289 1971)">Symbols should be outlined when exporting to ensure the</text>
  <text style="stroke:none;fill:black;font-family:sans-serif;font-size:13;" transform="matrix(1 0 0 1 1289 1989)">design is preserved when submitting to Xcode.</text>
  <text id="template-version" style="stroke:none;fill:black;font-family:sans-serif;font-size:13;text-anchor:end;" transform="matrix(1 0 0 1 3036 1933)">Template v.3.0</text>
  <text style="stroke:none;fill:black;font-family:sans-serif;font-size:13;text-anchor:end;" transform="matrix(1 0 0 1 3036 1951)">Requires Xcode 13 or greater</text>
  <text id="descriptive-name" style="stroke:none;fill:black;font-family:sans-serif;font-size:13;text-anchor:end;" transform="matrix(1 0 0 1 3036 1969)">Generated from xmark.app</text>
  <text style="stroke:none;fill:black;font-family:sans-serif;font-size:13;text-anchor:end;" transform="matrix(1 0 0 1 3036 1987)">Typeset at 100 points</text>
  <text style="stroke:none;fill:black;font-family:sans-serif;font-size:13;" transform="matrix(1 0 0 1 263 726)">Small</text>
  <text style="stroke:none;fill:black;font-family:sans-serif;font-size:13;" transform="matrix(1 0 0 1 263 1156)">Medium</text>
  <text style="stroke:none;fill:black;font-family:sans-serif;font-size:13;" transform="matrix(1 0 0 1 263 1586)">Large</text>
 </g>
 <g id="Guides">
  <g id="H-reference" style="fill:#27AAE1;stroke:none;" transform="matrix(1 0 0 1 339 696)">
   <path d="M0.993347 0L3.6377 0L29.3282-67.1326L30.0301-67.1326L30.0301-70.459L28.1227-70.459ZM11.6882-24.4797L46.9818-24.4797L46.2311-26.7288L12.4382-26.7288ZM55.1193 0L57.7637 0L30.6381-70.459L29.4327-70.459L29.4327-67.1326Z"/>
  </g>
  <line id="Baseline-S" style="fill:none;stroke:#27AAE1;opacity:1;stroke-width:0.5;" x1="263" x2="3036" y1="696" y2="696"/>
  <line id="Capline-S" style="fill:none;stroke:#27AAE1;opacity:1;stroke-width:0.5;" x1="263" x2="3036" y1="625.541" y2="625.541"/>
  <g id="H-reference" style="fill:#27AAE1;stroke:none;" transform="matrix(1 0 0 1 339 1126)">
   <path d="M0.993347 0L3.6377 0L29.3282-67.1326L30.0301-67.1326L30.0301-70.459L28.1227-70.459ZM11.6882-24.4797L46.9818-24.4797L46.2311-26.7288L12.4382-26.7288ZM55.1193 0L57.7637 0L30.6381-70.459L29.4327-70.459L29.4327-67.1326Z"/>
  </g>
  <line id="Baseline-M" style="fill:none;stroke:#27AAE1;opacity:1;stroke-width:0.5;" x1="263" x2="3036" y1="1126" y2="1126"/>
  <line id="Capline-M" style="fill:none;stroke:#27AAE1;opacity:1;stroke-width:0.5;" x1="263" x2="3036" y1="1055.54" y2="1055.54"/>
  <g id="H-reference" style="fill:#27AAE1;stroke:none;" transform="matrix(1 0 0 1 339 1556)">
   <path d="M0.993347 0L3.6377 0L29.3282-67.1326L30.0301-67.1326L30.0301-70.459L28.1227-70.459ZM11.6882-24.4797L46.9818-24.4797L46.2311-26.7288L12.4382-26.7288ZM55.1193 0L57.7637 0L30.6381-70.459L29.4327-70.459L29.4327-67.1326Z"/>
  </g>
  <line id="Baseline-L" style="fill:none;stroke:#27AAE1;opacity:1;stroke-width:0.5;" x1="263" x2="3036" y1="1556" y2="1556"/>
  <line id="Capline-L" style="fill:none;stroke:#27AAE1;opacity:1;stroke-width:0.5;" x1="263" x2="3036" y1="1485.54" y2="1485.54"/>
  <line id="left-margin-Regular-M" style="fill:none;stroke:#00AEEF;stroke-width:0.5;opacity:1.0;" x1="1392.37" x2="1392.37" y1="1030.79" y2="1150.12"/>
  <line id="right-margin-Regular-M" style="fill:none;stroke:#00AEEF;stroke-width:0.5;opacity:1.0;" x1="1507.32" x2="1507.32" y1="1030.79" y2="1150.12"/>
 </g>
 <g id="Symbols">
  <g id="Black-L" transform="matrix(1 0 0 1 2856.13 1556)">
   <path d="M129.785-87.5488Q126.416-90.918 122.192-92.8223Q117.969-94.7266 112.622-95.5078Q107.275-96.2891 100.391-96.2891L54.1504-96.2891Q43.8477-96.2891 36.8408-94.4336Q29.834-92.5781 24.7559-87.5488Q19.6777-82.4707 17.8711-75.5371Q16.0645-68.6035 16.0645-58.252L16.0645-12.1582Q16.0645-5.22461 16.8213 0.12207Q17.5781 5.46875 19.4824 9.64355Q21.3867 13.8184 24.7559 17.1387Q28.1738 20.5566 32.373 22.4609Q36.5723 24.3652 41.9434 25.1465Q47.3145 25.9277 54.1504 25.9277L100.391 25.9277Q107.275 25.9277 112.646 25.1465Q118.018 24.3652 122.217 22.4609Q126.416 20.5566 129.785 17.1387Q133.154 13.7695 135.059 9.61914Q136.963 5.46875 137.72 0.12207Q138.477-5.22461 138.477-12.1582L138.477-58.252Q138.477-65.1367 137.72-70.5078Q136.963-75.8789 135.059-80.0293Q133.154-84.1797 129.785-87.5488ZM118.262-60.0098L118.262-10.4004Q118.262-5.41992 117.529-2.49023Q116.797 0.439453 114.941 2.34375Q113.086 4.15039 110.083 4.93164Q107.08 5.71289 102.148 5.71289L52.3926 5.71289Q47.4609 5.71289 44.458 4.93164Q41.4551 4.15039 39.5996 2.34375Q37.7441 0.439453 37.0361-2.49023Q36.3281-5.41992 36.3281-10.4004L36.3281-60.0098Q36.3281-64.9414 37.0361-67.8955Q37.7441-70.8496 39.5996-72.7051Q41.4551-74.5117 44.458-75.293Q47.4609-76.0742 52.3926-76.0742L102.148-76.0742Q107.08-76.0742 110.083-75.293Q113.086-74.5117 114.941-72.7051Q116.797-70.8496 117.529-67.8955Q118.262-64.9414 118.262-60.0098ZM59.2773-9.27734Q62.8906-9.27734 65.1855-11.6211L77.2949-23.6816L89.4531-11.6211Q91.8457-9.27734 95.4102-9.27734Q98.8281-9.27734 101.123-11.5967Q103.418-13.916 103.418-17.334Q103.418-20.459 100.977-22.8516L88.7695-35.1074L101.025-47.4609Q103.418-49.8535 103.418-52.9297Q103.418-56.3965 101.123-58.6914Q98.8281-60.9863 95.4102-60.9863Q91.8945-60.9863 89.5508-58.6426L77.2949-46.5332L65.1367-58.6426Q62.8418-60.9375 59.2773-60.9375Q55.8594-60.9375 53.5645-58.6426Q51.2695-56.3477 51.2695-52.9297Q51.2695-49.8047 53.6621-47.4121L65.9668-35.1074L53.6621-22.8516Q51.2695-20.459 51.2695-17.334Q51.2695-13.916 53.5645-11.5967Q55.8594-9.27734 59.2773-9.27734Z"/>
  </g>
  <g id="Heavy-L" transform="matrix(1 0 0 1 2560.35 1556)">
   <path d="M128.32-86.9629Q125-90.2344 120.874-92.0654Q116.748-93.8965 111.548-94.6045Q106.348-95.3125 99.7559-95.3125L52.832-95.3125Q43.0664-95.3125 36.2061-93.5791Q29.3457-91.8457 24.4141-86.9141Q19.4336-81.9824 17.749-75.1953Q16.0645-68.4082 16.0645-58.5938L16.0645-11.8652Q16.0645-5.22461 16.7725-0.0488281Q17.4805 5.12695 19.2871 9.22852Q21.0938 13.3301 24.3652 16.5527Q27.7344 19.873 31.8359 21.7041Q35.9375 23.5352 41.1621 24.2676Q46.3867 25 52.9297 25L99.7559 25Q106.348 25 111.572 24.2676Q116.797 23.5352 120.898 21.7041Q125 19.873 128.32 16.5527Q131.592 13.2812 133.398 9.2041Q135.205 5.12695 135.913-0.0488281Q136.621-5.22461 136.621-11.8652L136.621-58.4961Q136.621-65.0879 135.913-70.3125Q135.205-75.5371 133.398-79.6143Q131.592-83.6914 128.32-86.9629ZM119.141-60.2539L119.141-10.1074Q119.141-5.07812 118.335-1.7334Q117.529 1.61133 115.479 3.75977Q113.379 5.81055 109.961 6.66504Q106.543 7.51953 101.514 7.51953L51.1719 7.51953Q46.1426 7.51953 42.7246 6.66504Q39.3066 5.81055 37.207 3.75977Q35.1074 1.61133 34.3506-1.7334Q33.5938-5.07812 33.5938-10.1074L33.5938-60.2051Q33.5938-65.2832 34.3506-68.6523Q35.1074-72.0215 37.207-74.1211Q39.3066-76.1719 42.749-77.002Q46.1914-77.832 51.2207-77.832L101.514-77.832Q106.543-77.832 109.961-77.002Q113.379-76.1719 115.479-74.1211Q117.578-72.0215 118.359-68.6523Q119.141-65.2832 119.141-60.2539ZM57.4219-9.22852Q60.6445-9.22852 62.6953-11.3281L76.3672-24.9512L90.0391-11.3281Q92.1875-9.22852 95.3613-9.22852Q98.3887-9.22852 100.439-11.3037Q102.49-13.3789 102.49-16.4062Q102.49-19.2383 100.293-21.3379L86.5723-35.1074L100.342-48.9746Q102.49-51.123 102.49-53.9062Q102.49-56.9824 100.439-59.0332Q98.3887-61.084 95.3613-61.084Q92.2852-61.084 90.1367-58.9844L76.3672-45.3125L62.6465-58.9355Q60.5957-61.0352 57.4219-61.0352Q54.3945-61.0352 52.3438-58.9844Q50.293-56.9336 50.293-53.9062Q50.293-51.0742 52.4414-48.9258L66.2598-35.1074L52.4414-21.3379Q50.293-19.2383 50.293-16.4062Q50.293-13.3789 52.3438-11.3037Q54.3945-9.22852 57.4219-9.22852Z"/>
  </g>
  <g id="Bold-L" transform="matrix(1 0 0 1 2264.67 1556)">
   <path d="M126.66-86.2793Q123.438-89.502 119.409-91.2354Q115.381-92.9688 110.352-93.6279Q105.322-94.2871 99.0723-94.2871L51.3672-94.2871Q42.1875-94.2871 35.498-92.6758Q28.8086-91.0645 24.0234-86.2793Q19.1895-81.4941 17.627-74.8535Q16.0645-68.2129 16.0645-58.9844L16.0645-11.5723Q16.0645-5.27344 16.7236-0.244141Q17.3828 4.78516 19.0918 8.76465Q20.8008 12.7441 23.9746 15.918Q27.2461 19.1406 31.25 20.874Q35.2539 22.6074 40.2832 23.2666Q45.3125 23.9258 51.5625 23.9258L99.0723 23.9258Q105.322 23.9258 110.352 23.2666Q115.381 22.6074 119.409 20.874Q123.438 19.1406 126.66 15.918Q129.834 12.7441 131.567 8.76465Q133.301 4.78516 133.936-0.244141Q134.57-5.27344 134.57-11.5723L134.57-58.8379Q134.57-65.0879 133.936-70.1172Q133.301-75.1465 131.567-79.126Q129.834-83.1055 126.66-86.2793ZM120.117-60.5469L120.117-9.81445Q120.117-4.6875 119.263-0.854492Q118.408 2.97852 116.064 5.37109Q113.672 7.71484 109.814 8.61816Q105.957 9.52148 100.83 9.52148L49.8047 9.52148Q44.6777 9.52148 40.8203 8.61816Q36.9629 7.71484 34.5703 5.37109Q32.2266 2.97852 31.3721-0.854492Q30.5176-4.6875 30.5176-9.81445L30.5176-60.4004Q30.5176-65.625 31.3721-69.4824Q32.2266-73.3398 34.5703-75.7324Q36.9629-78.0762 40.8691-78.9551Q44.7754-79.834 49.9512-79.834L100.83-79.834Q105.957-79.834 109.814-78.9307Q113.672-78.0273 116.064-75.6836Q118.408-73.3398 119.263-69.5312Q120.117-65.7227 120.117-60.5469ZM55.4688-9.17969Q58.2031-9.17969 60.0098-11.0352L75.3906-26.3672L90.7715-11.0352Q92.6758-9.17969 95.3613-9.17969Q97.9492-9.17969 99.7314-10.9619Q101.514-12.7441 101.514-15.3809Q101.514-17.8223 99.6582-19.6777L84.1797-35.1562L99.707-50.7324Q101.562-52.5879 101.562-54.9805Q101.562-57.6172 99.7803-59.3994Q97.998-61.1816 95.3613-61.1816Q92.7734-61.1816 90.918-59.3262L75.3906-43.8965L59.9121-59.3262Q58.1543-61.1328 55.4688-61.1328Q52.832-61.1328 51.0498-59.3506Q49.2676-57.5684 49.2676-54.9805Q49.2676-52.4902 51.123-50.6836L66.6504-35.1562L51.123-19.6777Q49.2676-17.8223 49.2676-15.3809Q49.2676-12.7441 51.0498-10.9619Q52.832-9.17969 55.4688-9.17969Z"/>
  </g>
  <g id="Semibold-L" transform="matrix(1 0 0 1 1968.68 1556)">
   <path d="M125.488-85.8398Q122.363-88.9648 118.384-90.625Q114.404-92.2852 109.497-92.8955Q104.59-93.5059 98.584-93.5059L50.3418-93.5059Q41.5527-93.5059 34.9854-91.9922Q28.418-90.4785 23.7305-85.791Q18.9941-81.1035 17.5293-74.585Q16.0645-68.0664 16.0645-59.2285L16.0645-11.3281Q16.0645-5.27344 16.6748-0.390625Q17.2852 4.49219 18.9209 8.42285Q20.5566 12.3535 23.6816 15.4785Q26.8555 18.6035 30.8105 20.2881Q34.7656 21.9727 39.6729 22.583Q44.5801 23.1934 50.5859 23.1934L98.584 23.1934Q104.59 23.1934 109.497 22.583Q114.404 21.9727 118.384 20.2881Q122.363 18.6035 125.488 15.4785Q128.613 12.3535 130.273 8.42285Q131.934 4.49219 132.52-0.390625Q133.105-5.27344 133.105-11.3281L133.105-59.0332Q133.105-65.0391 132.52-69.9463Q131.934-74.8535 130.273-78.7842Q128.613-82.7148 125.488-85.8398ZM120.801-60.7422L120.801-9.61914Q120.801-4.39453 119.873-0.268555Q118.945 3.85742 116.455 6.44531Q113.867 9.0332 109.692 9.96094Q105.518 10.8887 100.293 10.8887L48.877 10.8887Q43.6523 10.8887 39.4775 9.93652Q35.3027 8.98438 32.7637 6.44531Q30.1758 3.85742 29.2969-0.268555Q28.418-4.39453 28.418-9.61914L28.418-60.5469Q28.418-65.8691 29.2969-70.0684Q30.1758-74.2676 32.7637-76.8066Q35.3027-79.3457 39.5264-80.2734Q43.75-81.2012 49.0723-81.2012L100.293-81.2012Q105.518-81.2012 109.692-80.249Q113.867-79.2969 116.455-76.7578Q118.994-74.2188 119.897-70.0928Q120.801-65.9668 120.801-60.7422ZM54.0039-9.13086Q56.4453-9.13086 58.0566-10.791L74.6094-27.3438L91.2109-10.791Q92.8711-9.13086 95.2637-9.13086Q97.5586-9.13086 99.1699-10.7178Q100.781-12.3047 100.781-14.6484Q100.781-16.8457 99.0723-18.5059L82.4707-35.1562L99.1211-51.9043Q100.781-53.5645 100.781-55.7129Q100.781-58.0566 99.1943-59.6436Q97.6074-61.2305 95.3125-61.2305Q93.0176-61.2305 91.3086-59.5703L74.6094-42.9199L57.959-59.5215Q56.3965-61.1816 54.0039-61.1816Q51.6602-61.1816 50.0732-59.5947Q48.4863-58.0078 48.4863-55.7129Q48.4863-53.4668 50.1465-51.8555L66.7969-35.1562L50.1465-18.5059Q48.4863-16.8457 48.4863-14.6484Q48.4863-12.3047 50.0732-10.7178Q51.6602-9.13086 54.0039-9.13086Z"/>
  </g>
  <g id="Medium-L" transform="matrix(1 0 0 1 1672.51 1556)">
   <path d="M124.609-85.4492Q121.533-88.5742 117.603-90.1855Q113.672-91.7969 108.862-92.3828Q104.053-92.9688 98.2422-92.9688L49.6094-92.9688Q41.0645-92.9688 34.6191-91.5039Q28.1738-90.0391 23.5352-85.4492Q18.8965-80.8105 17.4805-74.3896Q16.0645-67.9688 16.0645-59.4727L16.0645-11.1328Q16.0645-5.32227 16.6504-0.512695Q17.2363 4.29688 18.7988 8.17871Q20.3613 12.0605 23.4863 15.1367Q26.6113 18.2129 30.5176 19.8486Q34.4238 21.4844 39.2334 22.0703Q44.043 22.6562 49.8535 22.6562L98.2422 22.6562Q104.053 22.6562 108.862 22.0703Q113.672 21.4844 117.603 19.8486Q121.533 18.2129 124.609 15.1367Q127.686 12.0605 129.297 8.17871Q130.908 4.29688 131.47-0.512695Q132.031-5.32227 132.031-11.1328L132.031-59.1797Q132.031-65.0391 131.47-69.8486Q130.908-74.6582 129.297-78.54Q127.686-82.4219 124.609-85.4492ZM121.289-60.8887L121.289-9.42383Q121.289-4.19922 120.337 0.170898Q119.385 4.54102 116.748 7.27539Q114.062 10.0098 109.619 10.9619Q105.176 11.9141 99.9512 11.9141L48.1445 11.9141Q42.9199 11.9141 38.4766 10.9375Q34.0332 9.96094 31.3477 7.27539Q28.6621 4.54102 27.7344 0.170898Q26.8066-4.19922 26.8066-9.42383L26.8066-60.6445Q26.8066-66.0645 27.7344-70.5078Q28.6621-74.9512 31.3477-77.6367Q34.0332-80.3223 38.5254-81.2744Q43.0176-82.2266 48.3887-82.2266L99.9512-82.2266Q105.176-82.2266 109.619-81.25Q114.062-80.2734 116.748-77.5879Q119.434-74.9023 120.361-70.5322Q121.289-66.1621 121.289-60.8887ZM52.9297-9.08203Q55.1758-9.08203 56.6406-10.5957L74.0723-28.0762L91.6016-10.5957Q93.1152-9.08203 95.2637-9.08203Q97.3633-9.08203 98.8037-10.5469Q100.244-12.0117 100.244-14.1113Q100.244-16.1133 98.7305-17.627L81.2012-35.2051L98.7793-52.7832Q100.293-54.3457 100.293-56.2988Q100.293-58.3984 98.8525-59.8633Q97.4121-61.3281 95.3125-61.3281Q93.2617-61.3281 91.6992-59.7656L74.0723-42.1875L56.543-59.7168Q55.127-61.2305 52.9297-61.2305Q50.8789-61.2305 49.4141-59.79Q47.9492-58.3496 47.9492-56.25Q47.9492-54.1992 49.4629-52.7344L66.9922-35.2051L49.4629-17.627Q47.9492-16.1133 47.9492-14.1113Q47.9492-12.0117 49.4141-10.5469Q50.8789-9.08203 52.9297-9.08203Z"/>
  </g>
  <g id="Regular-L" transform="matrix(1 0 0 1 1376.5 1556)">
   <path d="M123.486-85.0098Q120.459-88.0371 116.602-89.5996Q112.744-91.1621 108.057-91.6992Q103.369-92.2363 97.7539-92.2363L48.584-92.2363Q40.4785-92.2363 34.1309-90.8691Q27.7832-89.502 23.2422-84.9609Q18.7012-80.4688 17.3828-74.1455Q16.0645-67.8223 16.0645-59.7168L16.0645-10.9375Q16.0645-5.32227 16.6016-0.634766Q17.1387 4.05273 18.6523 7.86133Q20.166 11.6699 23.1934 14.6973Q26.2695 17.7246 30.1025 19.2871Q33.9355 20.8496 38.623 21.3867Q43.3105 21.9238 48.9258 21.9238L97.7539 21.9238Q103.369 21.9238 108.057 21.3867Q112.744 20.8496 116.602 19.2871Q120.459 17.7246 123.486 14.6973Q126.514 11.6699 128.052 7.86133Q129.59 4.05273 130.103-0.634766Q130.615-5.32227 130.615-10.9375L130.615-59.375Q130.615-64.9902 130.103-69.6777Q129.59-74.3652 128.052-78.1982Q126.514-82.0312 123.486-85.0098ZM121.973-61.084L121.973-9.22852Q121.973-3.90625 120.972 0.78125Q119.971 5.46875 117.139 8.34961Q114.258 11.2793 109.521 12.2803Q104.785 13.2812 99.4629 13.2812L47.2168 13.2812Q41.8945 13.2812 37.1582 12.2559Q32.4219 11.2305 29.541 8.34961Q26.6602 5.46875 25.6836 0.78125Q24.707-3.90625 24.707-9.22852L24.707-60.791Q24.707-66.3086 25.6836-71.0693Q26.6602-75.8301 29.541-78.7109Q32.4219-81.5918 37.2314-82.5928Q42.041-83.5938 47.5098-83.5938L99.4629-83.5938Q104.785-83.5938 109.521-82.5684Q114.258-81.543 117.139-78.6621Q120.02-75.7812 120.996-71.1182Q121.973-66.4551 121.973-61.084ZM51.5625-9.0332Q53.4668-9.0332 54.7363-10.4004L73.3887-29.0527L92.041-10.4004Q93.4082-9.0332 95.2148-9.0332Q97.0215-9.0332 98.291-10.3027Q99.5605-11.5723 99.5605-13.3789Q99.5605-15.1855 98.2422-16.5039L79.541-35.2051L98.291-53.9551Q99.6094-55.3223 99.6094-57.0312Q99.6094-58.8379 98.3398-60.1074Q97.0703-61.377 95.2637-61.377Q93.5547-61.377 92.1875-60.0098L73.3887-41.2598L54.6387-59.9609Q53.418-61.2793 51.5625-61.2793Q49.7559-61.2793 48.4863-60.0342Q47.2168-58.7891 47.2168-56.9824Q47.2168-55.1758 48.5352-53.9062L67.2363-35.2051L48.5352-16.4551Q47.2168-15.1855 47.2168-13.3789Q47.2168-11.5723 48.4863-10.3027Q49.7559-9.0332 51.5625-9.0332Z"/>
  </g>
  <g id="Light-L" transform="matrix(1 0 0 1 1080.88 1556)">
   <path d="M121.582-84.2773Q118.848-87.0605 115.259-88.5498Q111.67-90.0391 107.08-90.625Q102.49-91.2109 96.6309-91.2109L47.3633-91.2109Q39.0137-91.2109 33.0566-89.7949Q27.0996-88.3789 22.9492-84.2285Q18.7988-80.0781 17.4316-74.1943Q16.0645-68.3105 16.0645-59.9121L16.0645-10.8887Q16.0645-4.98047 16.626-0.390625Q17.1875 4.19922 18.6523 7.71484Q20.1172 11.2305 22.9004 14.0137Q25.7324 16.748 29.2725 18.2617Q32.8125 19.7754 37.4023 20.3613Q41.9922 20.9473 47.9004 20.9473L96.6309 20.9473Q102.49 20.9473 107.08 20.3613Q111.67 19.7754 115.259 18.2617Q118.848 16.748 121.582 14.0137Q124.365 11.2305 125.854 7.69043Q127.344 4.15039 127.881-0.415039Q128.418-4.98047 128.418-10.8887L128.418-59.375Q128.418-65.2832 127.881-69.873Q127.344-74.4629 125.854-78.0029Q124.365-81.543 121.582-84.2773ZM121.826-61.0352L121.826-9.22852Q121.826-3.27148 120.679 1.46484Q119.531 6.20117 116.699 9.08203Q113.77 12.0605 108.984 13.1836Q104.199 14.3066 98.291 14.3066L46.2402 14.3066Q40.2832 14.3066 35.498 13.1592Q30.7129 12.0117 27.7832 9.08203Q24.9023 6.20117 23.7793 1.46484Q22.6562-3.27148 22.6562-9.22852L22.6562-60.5469Q22.6562-66.8457 23.7793-71.6797Q24.9023-76.5137 27.7832-79.4434Q30.6641-82.373 35.5713-83.4717Q40.4785-84.5703 46.6797-84.5703L98.291-84.5703Q104.199-84.5703 108.984-83.4229Q113.77-82.2754 116.699-79.3945Q119.58-76.4648 120.703-71.7529Q121.826-67.041 121.826-61.0352ZM50.0488-9.57031Q51.5137-9.57031 52.5879-10.6934L72.2656-30.3711L91.9434-10.6934Q93.0664-9.57031 94.5312-9.57031Q95.9473-9.57031 96.9482-10.5469Q97.9492-11.5234 97.9492-12.9395Q97.9492-14.3555 96.875-15.4297L77.0996-35.2051L96.875-54.9805Q97.9492-56.1035 97.9492-57.4707Q97.9492-58.8867 96.9482-59.8633Q95.9473-60.8398 94.5312-60.8398Q93.1641-60.8398 92.041-59.668L72.2656-39.9414L52.5391-59.668Q51.5137-60.7422 50.0488-60.7422Q48.6328-60.7422 47.6318-59.79Q46.6309-58.8379 46.6309-57.4219Q46.6309-56.0059 47.7051-54.9805L67.4805-35.2051L47.7051-15.3809Q46.6309-14.3555 46.6309-12.9395Q46.6309-11.5234 47.6318-10.5469Q48.6328-9.57031 50.0488-9.57031Z"/>
  </g>
  <g id="Thin-L" transform="matrix(1 0 0 1 785.614 1556)">
   <path d="M119.092-83.3008Q116.65-85.6934 113.477-87.1338Q110.303-88.5742 105.835-89.209Q101.367-89.8438 95.1172-89.8438L45.752-89.8438Q37.0117-89.8438 31.6162-88.3545Q26.2207-86.8652 22.6074-83.2031Q18.9453-79.5898 17.5049-74.2432Q16.0645-68.8965 16.0645-60.1562L16.0645-10.8398Q16.0645-4.54102 16.6748-0.0976562Q17.2852 4.3457 18.7012 7.51953Q20.1172 10.6934 22.5098 13.0859Q25 15.4785 28.1738 16.9189Q31.3477 18.3594 35.791 18.9697Q40.2344 19.5801 46.4844 19.5801L95.1172 19.5801Q101.367 19.5801 105.835 18.9697Q110.303 18.3594 113.477 16.9189Q116.65 15.4785 119.092 13.0859Q121.533 10.6445 122.949 7.49512Q124.365 4.3457 124.951-0.0976562Q125.537-4.54102 125.537-10.8398L125.537-59.375Q125.537-65.6738 124.951-70.1416Q124.365-74.6094 122.949-77.7588Q121.533-80.9082 119.092-83.3008ZM121.631-61.0352L121.631-9.22852Q121.631-2.44141 120.312 2.34375Q118.994 7.12891 116.113 10.0586Q113.184 13.0859 108.325 14.3799Q103.467 15.6738 96.7285 15.6738L44.873 15.6738Q38.1836 15.6738 33.3252 14.3555Q28.4668 13.0371 25.4883 10.0586Q22.5586 7.12891 21.2891 2.34375Q20.0195-2.44141 20.0195-9.22852L20.0195-60.2539Q20.0195-67.4805 21.2891-72.4609Q22.5586-77.4414 25.4395-80.3711Q28.3691-83.3984 33.4229-84.668Q38.4766-85.9375 45.6055-85.9375L96.7285-85.9375Q103.467-85.9375 108.325-84.5947Q113.184-83.252 116.113-80.3223Q119.043-77.3438 120.337-72.5586Q121.631-67.7734 121.631-61.0352ZM48.0469-10.3027Q49.0234-10.3027 49.8535-11.084L70.8496-32.1289L91.8945-11.084Q92.6758-10.3027 93.6035-10.3027Q94.5312-10.3027 95.166-10.8887Q95.8008-11.4746 95.8008-12.3535Q95.8008-13.2812 95.0684-14.0137L73.877-35.2051L95.0684-56.3965Q95.8008-57.1289 95.8008-58.0566Q95.8008-58.8867 95.1904-59.4727Q94.5801-60.0586 93.6523-60.0586Q92.7246-60.0586 91.8945-59.2773L70.8496-38.2324L49.8047-59.2773Q49.0234-60.0586 48.0469-60.0586Q47.168-60.0586 46.5332-59.4727Q45.8984-58.8867 45.8984-58.0566Q45.8984-57.1289 46.6309-56.3477L67.8223-35.2051L46.6309-14.0137Q45.8984-13.2812 45.8984-12.3535Q45.8984-11.4746 46.5332-10.8887Q47.168-10.3027 48.0469-10.3027Z"/>
  </g>
  <g id="Ultralight-L" transform="matrix(1 0 0 1 489.641 1556)">
   <path d="M117.822-82.7637Q115.576-85.0586 112.573-86.4502Q109.57-87.8418 105.176-88.501Q100.781-89.1602 94.3359-89.1602L44.9707-89.1602Q36.0352-89.1602 30.9082-87.6221Q25.7812-86.084 22.4121-82.7148Q19.043-79.3457 17.5537-74.292Q16.0645-69.2383 16.0645-60.2539L16.0645-10.791Q16.0645-4.3457 16.6992 0.0488281Q17.334 4.44336 18.7012 7.42188Q20.0684 10.4004 22.3145 12.5977Q24.6582 14.7949 27.6367 16.2109Q30.6152 17.627 34.9854 18.2861Q39.3555 18.9453 45.8008 18.9453L94.3359 18.9453Q100.781 18.9453 105.176 18.2861Q109.57 17.627 112.573 16.2109Q115.576 14.7949 117.822 12.5977Q120.068 10.3516 121.436 7.37305Q122.803 4.39453 123.438 0.0244141Q124.072-4.3457 124.072-10.791L124.072-59.375Q124.072-65.918 123.438-70.3125Q122.803-74.707 121.436-77.6367Q120.068-80.5664 117.822-82.7637ZM121.533-60.9863L121.533-9.22852Q121.533-2.00195 120.117 2.80762Q118.701 7.61719 115.82 10.5957Q112.842 13.5742 107.959 14.9658Q103.076 16.3574 95.8984 16.3574L44.2383 16.3574Q37.0605 16.3574 32.1777 14.9414Q27.2949 13.5254 24.3164 10.5957Q21.3867 7.61719 19.9951 2.80762Q18.6035-2.00195 18.6035-9.22852L18.6035-60.1074Q18.6035-67.8711 19.9707-72.9004Q21.3379-77.9297 24.2676-80.8594Q27.1973-83.8867 32.2998-85.2295Q37.4023-86.5723 45.0684-86.5723L95.8984-86.5723Q103.076-86.5723 107.959-85.1562Q112.842-83.7402 115.82-80.8105Q118.75-77.832 120.142-72.998Q121.533-68.1641 121.533-60.9863ZM47.0215-10.6445Q47.7051-10.6445 48.3887-11.3281L70.0684-33.0566L91.8457-11.3281Q92.4805-10.6445 93.1641-10.6445Q93.7988-10.6445 94.2627-11.0352Q94.7266-11.4258 94.7266-12.0605Q94.7266-12.7441 94.1406-13.2812L72.2656-35.2051L94.1406-57.0801Q94.6777-57.6172 94.6777-58.3496Q94.6777-58.9355 94.2383-59.3262Q93.7988-59.7168 93.1641-59.7168Q92.4805-59.7168 91.7969-59.0332L70.0684-37.3535L48.3887-59.0332Q47.7051-59.668 47.0215-59.668Q46.4355-59.668 45.9717-59.3018Q45.5078-58.9355 45.5078-58.3496Q45.5078-57.666 46.0449-57.0801L67.9688-35.2051L46.0449-13.2812Q45.5078-12.7441 45.5078-12.0605Q45.5078-11.4258 45.9717-11.0352Q46.4355-10.6445 47.0215-10.6445Z"/>
  </g>
  <g id="Black-M" transform="matrix(1 0 0 1 2873.1 1126)">
   <path d="M101.221-76.0254Q97.3145-79.9316 91.8945-81.4941Q86.4746-83.0566 77.9297-83.0566L42.6758-83.0566Q34.1797-83.0566 28.7354-81.4941Q23.291-79.9316 19.3848-76.0254Q15.5273-72.1191 13.9893-66.7725Q12.4512-61.4258 12.4512-52.832L12.4512-17.5781Q12.4512-8.98438 13.9893-3.58887Q15.5273 1.80664 19.3848 5.61523Q23.3398 9.52148 28.7598 11.084Q34.1797 12.6465 42.6758 12.6465L77.9297 12.6465Q86.4746 12.6465 91.8945 11.084Q97.3145 9.52148 101.221 5.61523Q105.127 1.75781 106.641-3.61328Q108.154-8.98438 108.154-17.5781L108.154-52.832Q108.154-61.4258 106.641-66.7969Q105.127-72.168 101.221-76.0254ZM90.8203-54.1992L90.8203-16.2109Q90.8203-12.2559 90.2588-10.3027Q89.6973-8.34961 88.4766-7.08008Q87.2559-5.85938 85.2539-5.27344Q83.252-4.6875 79.3457-4.6875L41.3086-4.6875Q37.4023-4.6875 35.4004-5.27344Q33.3984-5.85938 32.1289-7.08008Q30.9082-8.34961 30.3467-10.3027Q29.7852-12.2559 29.7852-16.2109L29.7852-54.1992Q29.7852-58.1543 30.3467-60.1074Q30.9082-62.0605 32.1289-63.2812Q33.3984-64.502 35.4004-65.1123Q37.4023-65.7227 41.3086-65.7227L79.3457-65.7227Q83.252-65.7227 85.2539-65.1123Q87.2559-64.502 88.4766-63.2812Q89.6973-62.0605 90.2588-60.1074Q90.8203-58.1543 90.8203-54.1992ZM46.9727-15.332Q50-15.332 51.9531-17.2852L60.3516-25.6348L68.7988-17.2852Q70.752-15.332 73.7793-15.332Q76.6113-15.332 78.4912-17.2363Q80.3711-19.1406 80.3711-22.0215Q80.3711-24.5605 78.3691-26.5625L69.873-35.1562L78.3691-43.75Q80.3711-45.752 80.3711-48.291Q80.3711-51.123 78.4912-53.0273Q76.6113-54.9316 73.7793-54.9316Q70.8008-54.9316 68.8477-53.0273L60.3516-44.5801L51.9531-52.9785Q50-54.9316 46.9727-54.9316Q44.1895-54.9316 42.2852-53.0273Q40.3809-51.123 40.3809-48.291Q40.3809-45.7031 42.3828-43.75L50.9766-35.1562L42.3828-26.5625Q40.3809-24.5605 40.3809-22.0215Q40.3809-19.1406 42.2852-17.2363Q44.1895-15.332 46.9727-15.332Z"/>
  </g>
  <g id="Heavy-M" transform="matrix(1 0 0 1 2577.05 1126)">
   <path d="M100.195-75.5859Q96.2891-79.4922 90.9424-80.9082Q85.5957-82.3242 77.5879-82.3242L41.6504-82.3242Q33.7402-82.3242 28.3447-80.9082Q22.9492-79.4922 19.0918-75.5859Q15.2832-71.7285 13.8672-66.4307Q12.4512-61.1328 12.4512-53.125L12.4512-17.2852Q12.4512-9.27734 13.8672-3.93066Q15.2832 1.41602 19.0918 5.22461Q22.998 9.08203 28.3691 10.498Q33.7402 11.9141 41.6992 11.9141L77.5879 11.9141Q85.5957 11.9141 90.9424 10.498Q96.2891 9.08203 100.195 5.22461Q104.053 1.36719 105.444-3.95508Q106.836-9.27734 106.836-17.2852L106.836-53.0762Q106.836-61.1328 105.444-66.4551Q104.053-71.7773 100.195-75.5859ZM91.6992-54.4434L91.6992-15.9668Q91.6992-12.0117 91.1133-9.66797Q90.5273-7.32422 89.0625-5.85938Q87.6465-4.39453 85.2539-3.78418Q82.8613-3.17383 78.9551-3.17383L40.332-3.17383Q36.4746-3.17383 34.082-3.78418Q31.6895-4.39453 30.1758-5.85938Q28.7109-7.32422 28.125-9.66797Q27.5391-12.0117 27.5391-15.9668L27.5391-54.4434Q27.5391-58.3496 28.125-60.7178Q28.7109-63.0859 30.1758-64.502Q31.6895-65.9668 34.082-66.6016Q36.4746-67.2363 40.3809-67.2363L78.9551-67.2363Q82.8613-67.2363 85.2539-66.6016Q87.6465-65.9668 89.0625-64.502Q90.5273-63.0371 91.1133-60.6934Q91.6992-58.3496 91.6992-54.4434ZM45.5078-15.1367Q48.2422-15.1367 50-16.9434L59.668-26.6113L69.3848-16.9434Q71.1426-15.1367 73.877-15.1367Q76.416-15.1367 78.125-16.8701Q79.834-18.6035 79.834-21.1914Q79.834-23.5352 78.0273-25.3418L68.2617-35.1562L78.0273-45.0195Q79.834-46.8262 79.834-49.1211Q79.834-51.709 78.125-53.418Q76.416-55.127 73.877-55.127Q71.2402-55.127 69.4824-53.418L59.668-43.6523L49.9512-53.3691Q48.1934-55.127 45.5078-55.127Q43.0176-55.127 41.2842-53.3936Q39.5508-51.6602 39.5508-49.1211Q39.5508-46.7773 41.3574-45.0195L51.1719-35.1562L41.3574-25.3418Q39.5508-23.5352 39.5508-21.1914Q39.5508-18.6035 41.2842-16.8701Q43.0176-15.1367 45.5078-15.1367Z"/>
  </g>
  <g id="Bold-M" transform="matrix(1 0 0 1 2281.09 1126)">
   <path d="M99.0234-75.1465Q95.166-78.9551 89.8682-80.249Q84.5703-81.543 77.1973-81.543L40.5273-81.543Q33.2031-81.543 27.9053-80.249Q22.6074-78.9551 18.7988-75.1465Q14.9902-71.3379 13.7207-66.0889Q12.4512-60.8398 12.4512-53.4668L12.4512-16.9922Q12.4512-9.57031 13.7207-4.29688Q14.9902 0.976562 18.7988 4.73633Q22.6562 8.59375 27.9297 9.86328Q33.2031 11.1328 40.5762 11.1328L77.1973 11.1328Q84.5703 11.1328 89.8682 9.86328Q95.166 8.59375 99.0234 4.73633Q102.832 0.976562 104.077-4.29688Q105.322-9.57031 105.322-16.9922L105.322-53.418Q105.322-60.8398 104.077-66.0889Q102.832-71.3379 99.0234-75.1465ZM92.7246-54.7852L92.7246-15.6738Q92.7246-11.7676 92.0898-9.00879Q91.4551-6.25 89.7461-4.49219Q88.0371-2.7832 85.2295-2.12402Q82.4219-1.46484 78.5645-1.46484L39.2578-1.46484Q35.4004-1.46484 32.5928-2.12402Q29.7852-2.7832 28.0273-4.49219Q26.3184-6.25 25.6836-9.00879Q25.0488-11.7676 25.0488-15.6738L25.0488-54.6875Q25.0488-58.5938 25.6836-61.4014Q26.3184-64.209 28.0273-65.918Q29.7363-67.627 32.5928-68.2861Q35.4492-68.9453 39.3066-68.9453L78.5645-68.9453Q82.4219-68.9453 85.2295-68.2861Q88.0371-67.627 89.7461-65.918Q91.5039-64.1602 92.1143-61.4014Q92.7246-58.6426 92.7246-54.7852ZM43.9453-14.9902Q46.2891-14.9902 47.8516-16.5527L58.9355-27.6855L70.1172-16.5527Q71.6797-14.9902 74.0234-14.9902Q76.2207-14.9902 77.7344-16.5283Q79.248-18.0664 79.248-20.3125Q79.248-22.3633 77.6855-23.9746L66.5039-35.2051L77.6855-46.4844Q79.2969-48.0469 79.2969-50.0977Q79.2969-52.3438 77.7832-53.8574Q76.2695-55.3711 74.0234-55.3711Q71.7773-55.3711 70.2148-53.8086L58.9355-42.627L47.8027-53.7598Q46.2891-55.3223 43.9453-55.3223Q41.748-55.3223 40.21-53.8086Q38.6719-52.2949 38.6719-50.0977Q38.6719-47.998 40.2832-46.4355L51.5137-35.2051L40.2832-23.9258Q38.6719-22.3633 38.6719-20.3125Q38.6719-18.0664 40.21-16.5283Q41.748-14.9902 43.9453-14.9902Z"/>
  </g>
  <g id="Semibold-M" transform="matrix(1 0 0 1 1984.9 1126)">
   <path d="M98.1934-74.8047Q94.3848-78.6133 89.1357-79.7852Q83.8867-80.957 76.9043-80.957L39.7461-80.957Q32.8613-80.957 27.6123-79.7852Q22.3633-78.6133 18.5547-74.8047Q14.7949-70.9961 13.623-65.8203Q12.4512-60.6445 12.4512-53.7109L12.4512-16.7969Q12.4512-9.76562 13.5986-4.54102Q14.7461 0.683594 18.5547 4.39453Q22.3633 8.20312 27.6123 9.39941Q32.8613 10.5957 39.7949 10.5957L76.9043 10.5957Q83.8867 10.5957 89.1357 9.39941Q94.3848 8.20312 98.1934 4.39453Q101.953 0.634766 103.125-4.56543Q104.297-9.76562 104.297-16.7969L104.297-53.6133Q104.297-60.5957 103.125-65.8203Q101.953-71.0449 98.1934-74.8047ZM93.4082-54.9805L93.4082-15.4297Q93.4082-11.5723 92.749-8.52051Q92.0898-5.46875 90.1855-3.51562Q88.3301-1.61133 85.2051-0.952148Q82.0801-0.292969 78.2715-0.292969L38.4766-0.292969Q34.668-0.292969 31.543-0.952148Q28.418-1.61133 26.5137-3.51562Q24.6094-5.46875 23.9746-8.52051Q23.3398-11.5723 23.3398-15.4297L23.3398-54.8828Q23.3398-58.7402 23.9746-61.8408Q24.6094-64.9414 26.5137-66.8457Q28.418-68.75 31.5674-69.4092Q34.7168-70.0684 38.5742-70.0684L78.2715-70.0684Q82.0801-70.0684 85.2051-69.4092Q88.3301-68.75 90.1855-66.8457Q92.1387-64.9414 92.7734-61.8652Q93.4082-58.7891 93.4082-54.9805ZM42.7734-14.8438Q44.9219-14.8438 46.2891-16.3086L58.3984-28.418L70.6055-16.3086Q72.0215-14.8438 74.0723-14.8438Q76.0742-14.8438 77.4414-16.2354Q78.8086-17.627 78.8086-19.6777Q78.8086-21.582 77.3926-22.998L65.2344-35.2051L77.4414-47.4609Q78.8574-48.877 78.8574-50.7324Q78.8574-52.7344 77.4902-54.126Q76.123-55.5176 74.1211-55.5176Q72.1191-55.5176 70.7031-54.1016L58.3984-41.8945L46.2402-54.0527Q44.873-55.4688 42.7734-55.4688Q40.8203-55.4688 39.4287-54.1016Q38.0371-52.7344 38.0371-50.7324Q38.0371-48.7793 39.4531-47.4121L51.6602-35.2051L39.4531-22.9492Q38.0371-21.582 38.0371-19.6777Q38.0371-17.627 39.4287-16.2354Q40.8203-14.8438 42.7734-14.8438Z"/>
  </g>
  <g id="Medium-M" transform="matrix(1 0 0 1 1688.58 1126)">
   <path d="M97.5586-74.5605Q93.7988-78.3203 88.5742-79.4189Q83.3496-80.5176 76.709-80.5176L39.1602-80.5176Q32.5684-80.5176 27.3682-79.4189Q22.168-78.3203 18.3594-74.5605Q14.6484-70.8008 13.5498-65.625Q12.4512-60.4492 12.4512-53.8574L12.4512-16.6016Q12.4512-9.96094 13.5254-4.76074Q14.5996 0.439453 18.3594 4.15039Q22.168 7.95898 27.3682 9.05762Q32.5684 10.1562 39.209 10.1562L76.709 10.1562Q83.3496 10.1562 88.5742 9.05762Q93.7988 7.95898 97.5586 4.15039Q101.318 0.439453 102.417-4.76074Q103.516-9.96094 103.516-16.6016L103.516-53.7598Q103.516-60.4004 102.417-65.6006Q101.318-70.8008 97.5586-74.5605ZM93.9453-55.127L93.9453-15.2832Q93.9453-11.4746 93.2617-8.17871Q92.5781-4.88281 90.5762-2.7832Q88.5254-0.78125 85.1807-0.0976562Q81.8359 0.585938 78.0762 0.585938L37.8906 0.585938Q34.1309 0.585938 30.7861-0.0976562Q27.4414-0.78125 25.3418-2.7832Q23.3398-4.88281 22.6807-8.17871Q22.0215-11.4746 22.0215-15.2832L22.0215-54.9805Q22.0215-58.8867 22.6807-62.207Q23.3398-65.5273 25.3418-67.5781Q27.3926-69.6289 30.7861-70.2881Q34.1797-70.9473 38.0371-70.9473L78.0762-70.9473Q81.8359-70.9473 85.1807-70.2637Q88.5254-69.5801 90.5762-67.5781Q92.627-65.5273 93.2861-62.2314Q93.9453-58.9355 93.9453-55.127ZM41.9434-14.7461Q43.8965-14.7461 45.166-16.0645L58.0078-28.9551L70.9473-16.0645Q72.2656-14.7461 74.1211-14.7461Q75.9277-14.7461 77.2217-16.04Q78.5156-17.334 78.5156-19.1895Q78.5156-20.9473 77.1973-22.2656L64.2578-35.2051L77.1973-48.1934Q78.5645-49.5117 78.5645-51.2695Q78.5645-53.0762 77.2705-54.3701Q75.9766-55.6641 74.1699-55.6641Q72.3633-55.6641 71.0449-54.2969L58.0078-41.3574L45.0684-54.248Q43.8477-55.5664 41.9434-55.5664Q40.1367-55.5664 38.8428-54.2969Q37.5488-53.0273 37.5488-51.2207Q37.5488-49.4141 38.8672-48.1445L51.8066-35.2051L38.8672-22.2168Q37.5488-20.9473 37.5488-19.1895Q37.5488-17.334 38.8428-16.04Q40.1367-14.7461 41.9434-14.7461Z"/>
  </g>
  <g id="Regular-M" transform="matrix(1 0 0 1 1392.37 1126)">
   <path d="M96.7773-74.2188Q93.0176-77.9785 87.8418-78.9795Q82.666-79.9805 76.416-79.9805L38.3789-79.9805Q32.2266-79.9805 27.0752-78.9795Q21.9238-77.9785 18.1641-74.2188Q14.4531-70.5078 13.4521-65.3809Q12.4512-60.2539 12.4512-54.1016L12.4512-16.4062Q12.4512-10.1562 13.4277-5.00488Q14.4043 0.146484 18.1641 3.85742Q21.9238 7.61719 27.0752 8.61816Q32.2266 9.61914 38.4766 9.61914L76.416 9.61914Q82.666 9.61914 87.8418 8.61816Q93.0176 7.61719 96.7773 3.85742Q100.488 0.146484 101.489-5.00488Q102.49-10.1562 102.49-16.4062L102.49-53.9551Q102.49-60.2051 101.489-65.3564Q100.488-70.5078 96.7773-74.2188ZM94.6289-55.3223L94.6289-15.0879Q94.6289-11.2793 93.9209-7.69043Q93.2129-4.10156 91.0156-1.85547Q88.8184 0.341797 85.1807 1.0498Q81.543 1.75781 77.7832 1.75781L37.1582 1.75781Q33.3984 1.75781 29.7607 1.0498Q26.123 0.341797 23.877-1.85547Q21.6797-4.10156 20.9961-7.69043Q20.3125-11.2793 20.3125-15.0879L20.3125-55.1758Q20.3125-59.0332 20.9961-62.6709Q21.6797-66.3086 23.877-68.5059Q26.0742-70.752 29.7607-71.4355Q33.4473-72.1191 37.3047-72.1191L77.7832-72.1191Q81.543-72.1191 85.1807-71.4111Q88.8184-70.7031 91.0156-68.5059Q93.2617-66.2598 93.9453-62.6709Q94.6289-59.082 94.6289-55.3223ZM40.8203-14.5996Q42.5293-14.5996 43.6523-15.8203L57.4707-29.6875L71.3867-15.8203Q72.5586-14.5996 74.1699-14.5996Q75.7812-14.5996 76.9287-15.7715Q78.0762-16.9434 78.0762-18.5547Q78.0762-20.166 76.9043-21.3379L63.0371-35.2051L76.9531-49.1699Q78.125-50.3418 78.125-51.9043Q78.125-53.5156 76.9775-54.6631Q75.8301-55.8105 74.2188-55.8105Q72.7051-55.8105 71.5332-54.5898L57.4707-40.6738L43.5547-54.541Q42.4805-55.7129 40.8203-55.7129Q39.209-55.7129 38.0615-54.5898Q36.9141-53.4668 36.9141-51.8555Q36.9141-50.2441 38.0859-49.1211L51.9531-35.2051L38.0859-21.2891Q36.9141-20.166 36.9141-18.5547Q36.9141-16.9434 38.0615-15.7715Q39.209-14.5996 40.8203-14.5996Z"/>
  </g>
  <g id="Light-M" transform="matrix(1 0 0 1 1096.65 1126)">
   <path d="M95.0684-73.584Q91.6504-76.9531 86.8408-78.0029Q82.0312-79.0527 75.3906-79.0527L37.2559-79.0527Q30.9082-79.0527 26.123-78.0029Q21.3379-76.9531 17.9199-73.5352Q14.5508-70.166 13.501-65.4053Q12.4512-60.6445 12.4512-54.248L12.4512-16.3574Q12.4512-9.7168 13.4766-4.93164Q14.502-0.146484 17.8711 3.22266Q21.3379 6.64062 26.123 7.69043Q30.9082 8.74023 37.5488 8.74023L75.3906 8.74023Q82.0312 8.74023 86.8652 7.69043Q91.6992 6.64062 95.0684 3.22266Q98.4375-0.146484 99.4873-4.93164Q100.537-9.7168 100.537-16.3574L100.537-53.9551Q100.537-60.5957 99.4873-65.4053Q98.4375-70.2148 95.0684-73.584ZM94.4824-55.2734L94.4824-15.0879Q94.4824-10.7422 93.6523-7.10449Q92.8223-3.4668 90.625-1.2207Q88.3789 1.02539 84.6924 1.85547Q81.0059 2.68555 76.709 2.68555L36.2793 2.68555Q31.9336 2.68555 28.2471 1.85547Q24.5605 1.02539 22.3145-1.2207Q20.0684-3.4668 19.2871-7.10449Q18.5059-10.7422 18.5059-15.0879L18.5059-54.9805Q18.5059-59.4727 19.2871-63.208Q20.0684-66.9434 22.3145-69.1406Q24.5117-71.4355 28.2959-72.2412Q32.0801-73.0469 36.5723-73.0469L76.709-73.0469Q81.0059-73.0469 84.6924-72.1924Q88.3789-71.3379 90.625-69.1406Q92.8711-66.8457 93.6768-63.2324Q94.4824-59.6191 94.4824-55.2734ZM39.4531-15.0879Q40.7715-15.0879 41.6992-16.1133L56.4453-30.8594L71.2891-16.1133Q72.2656-15.0879 73.5352-15.0879Q74.8047-15.0879 75.708-15.9912Q76.6113-16.8945 76.6113-18.1641Q76.6113-19.4336 75.6348-20.3613L60.8398-35.2051L75.6836-50.0977Q76.6113-51.0254 76.6113-52.2949Q76.6113-53.5645 75.7324-54.4434Q74.8535-55.3223 73.584-55.3223Q72.3633-55.3223 71.3867-54.2969L56.4453-39.502L41.6504-54.2969Q40.7715-55.2246 39.4531-55.2246Q38.1836-55.2246 37.2803-54.3701Q36.377-53.5156 36.377-52.2461Q36.377-50.9766 37.3047-50.0488L52.1484-35.2051L37.3047-20.3125Q36.377-19.4336 36.377-18.1641Q36.377-16.8945 37.2803-15.9912Q38.1836-15.0879 39.4531-15.0879Z"/>
  </g>
  <g id="Thin-M" transform="matrix(1 0 0 1 801.237 1126)">
   <path d="M92.8223-72.7051Q89.8926-75.6348 85.5469-76.7334Q81.2012-77.832 74.0234-77.832L35.791-77.832Q29.1504-77.832 24.8291-76.709Q20.5078-75.5859 17.5781-72.6562Q14.6484-69.7266 13.5498-65.4541Q12.4512-61.1816 12.4512-54.4922L12.4512-16.3574Q12.4512-9.13086 13.5254-4.80957Q14.5996-0.488281 17.5293 2.39258Q20.5078 5.32227 24.8535 6.44531Q29.1992 7.56836 36.3281 7.56836L74.0234 7.56836Q81.2012 7.56836 85.5713 6.44531Q89.9414 5.32227 92.8223 2.39258Q95.8008-0.537109 96.8506-4.83398Q97.9004-9.13086 97.9004-16.3574L97.9004-53.9551Q97.9004-61.1328 96.8506-65.4785Q95.8008-69.8242 92.8223-72.7051ZM94.3359-55.2246L94.3359-15.0879Q94.3359-9.96094 93.335-6.29883Q92.334-2.63672 90.0879-0.341797Q87.8418 1.95312 84.1064 2.9541Q80.3711 3.95508 75.3418 3.95508L35.1074 3.95508Q30.0293 3.95508 26.2939 2.92969Q22.5586 1.9043 20.2637-0.341797Q17.9688-2.63672 17.041-6.29883Q16.1133-9.96094 16.1133-15.0879L16.1133-54.7363Q16.1133-60.1074 17.041-63.9404Q17.9688-67.7734 20.2148-70.0195Q22.5098-72.3145 26.3672-73.2666Q30.2246-74.2188 35.5957-74.2188L75.3418-74.2188Q80.3711-74.2188 84.1064-73.2178Q87.8418-72.2168 90.0879-69.9707Q92.3828-67.6758 93.3594-63.9893Q94.3359-60.3027 94.3359-55.2246ZM37.6953-15.7715Q38.5254-15.7715 39.2578-16.4551L55.2246-32.4707L71.2402-16.4551Q71.9238-15.7715 72.7539-15.7715Q73.584-15.7715 74.1455-16.3086Q74.707-16.8457 74.707-17.627Q74.707-18.457 74.0723-19.0918L57.959-35.2051L74.0723-51.3184Q74.7559-51.9531 74.7559-52.7832Q74.7559-53.5645 74.1699-54.1016Q73.584-54.6387 72.7539-54.6387Q71.9727-54.6387 71.2891-53.9551L55.2246-37.9395L39.209-53.9551Q38.5254-54.6387 37.6953-54.6387Q36.8652-54.6387 36.3037-54.1016Q35.7422-53.5645 35.7422-52.7832Q35.7422-51.9531 36.377-51.3184L52.4902-35.2051L36.377-19.0918Q35.7422-18.457 35.7422-17.627Q35.7422-16.8457 36.3037-16.3086Q36.8652-15.7715 37.6953-15.7715Z"/>
  </g>
  <g id="Ultralight-M" transform="matrix(1 0 0 1 505.192 1126)">
   <path d="M91.6992-72.2656Q88.9648-74.9512 84.8633-76.0742Q80.7617-77.1973 73.3398-77.1973L35.0586-77.1973Q28.2227-77.1973 24.1699-76.0498Q20.1172-74.9023 17.4316-72.168Q14.7461-69.5312 13.5986-65.5029Q12.4512-61.4746 12.4512-54.5898L12.4512-16.3086Q12.4512-8.83789 13.5742-4.76074Q14.6973-0.683594 17.334 2.00195Q20.1172 4.6875 24.2188 5.81055Q28.3203 6.93359 35.6934 6.93359L73.3398 6.93359Q80.7617 6.93359 84.8877 5.81055Q89.0137 4.6875 91.6992 2.00195Q94.3848-0.732422 95.4834-4.78516Q96.582-8.83789 96.582-16.3086L96.582-53.9551Q96.582-61.4258 95.4834-65.5029Q94.3848-69.5801 91.6992-72.2656ZM94.2383-55.1758L94.2383-15.0879Q94.2383-9.61914 93.1641-5.9082Q92.0898-2.19727 89.8438 0.0976562Q87.5488 2.44141 83.7646 3.51562Q79.9805 4.58984 74.6094 4.58984L34.4727 4.58984Q29.0527 4.58984 25.2686 3.49121Q21.4844 2.39258 19.1895 0.0976562Q16.8945-2.19727 15.8691-5.9082Q14.8438-9.61914 14.8438-15.0879L14.8438-54.5898Q14.8438-60.4004 15.8691-64.2822Q16.8945-68.1641 19.1406-70.459Q21.4355-72.8027 25.3662-73.8281Q29.2969-74.8535 35.0586-74.8535L74.6094-74.8535Q79.9805-74.8535 83.7646-73.7549Q87.5488-72.6562 89.8438-70.3613Q92.1387-68.0664 93.1885-64.3799Q94.2383-60.6934 94.2383-55.1758ZM36.7188-16.1133Q37.3535-16.1133 37.8906-16.6504L54.4922-33.252L71.1426-16.6504Q71.6797-16.1133 72.2656-16.1133Q72.9004-16.1133 73.291-16.4551Q73.6816-16.7969 73.6816-17.3828Q73.6816-17.9199 73.1934-18.4082L56.4453-35.2051L73.1934-51.9531Q73.6816-52.4414 73.6816-53.0273Q73.6816-53.6133 73.291-53.9551Q72.9004-54.2969 72.3145-54.2969Q71.6797-54.2969 71.1426-53.7598L54.4922-37.1094L37.8906-53.7598Q37.3535-54.2969 36.7188-54.2969Q36.1328-54.2969 35.7422-53.9551Q35.3516-53.6133 35.3516-53.0273Q35.3516-52.4414 35.8398-51.9531L52.5879-35.2051L35.8398-18.4082Q35.3516-17.9199 35.3516-17.3828Q35.3516-16.7969 35.7422-16.4551Q36.1328-16.1133 36.7188-16.1133Z"/>
  </g>
  <g id="Black-S" transform="matrix(1 0 0 1 2885.99 696)">
   <path d="M79.541-67.2852Q76.4648-70.3125 72.2168-71.582Q67.9688-72.8516 61.1328-72.8516L33.6914-72.8516Q26.8555-72.8516 22.583-71.582Q18.3105-70.3125 15.2832-67.2852Q12.2559-64.2578 11.0107-60.0586Q9.76562-55.8594 9.76562-48.9258L9.76562-21.4844Q9.76562-14.5508 11.0107-10.3516Q12.2559-6.15234 15.2832-3.125Q18.3594-0.0976562 22.6074 1.17188Q26.8555 2.44141 33.6914 2.44141L61.1328 2.44141Q67.9688 2.44141 72.2412 1.17188Q76.5137-0.0976562 79.541-3.125Q82.5684-6.15234 83.8135-10.3516Q85.0586-14.5508 85.0586-21.4844L85.0586-48.9258Q85.0586-55.8594 83.8135-60.083Q82.5684-64.3066 79.541-67.2852ZM70.8984-50L70.8984-20.4102Q70.8984-17.2852 70.459-15.8691Q70.0195-14.4531 69.1406-13.5254Q68.2129-12.6465 66.7725-12.1826Q65.332-11.7188 62.207-11.7188L32.6172-11.7188Q29.4922-11.7188 28.0518-12.1826Q26.6113-12.6465 25.6836-13.5254Q24.8047-14.4531 24.3652-15.8691Q23.9258-17.2852 23.9258-20.4102L23.9258-50Q23.9258-53.1738 24.3652-54.5654Q24.8047-55.957 25.6836-56.8848Q26.6113-57.7637 28.0518-58.2275Q29.4922-58.6914 32.6172-58.6914L62.207-58.6914Q65.332-58.6914 66.7725-58.2275Q68.2129-57.7637 69.1406-56.8848Q70.0195-55.957 70.459-54.5654Q70.8984-53.1738 70.8984-50ZM37.1582-19.7266Q39.5996-19.7266 41.1621-21.2891L47.4121-27.4902L53.7109-21.2891Q55.2734-19.7266 57.7148-19.7266Q60.0098-19.7266 61.5234-21.2646Q63.0371-22.8027 63.0371-25.0977Q63.0371-27.1484 61.4258-28.7598L55.0781-35.1562L61.4258-41.5527Q63.0371-43.1641 63.0371-45.2148Q63.0371-47.5098 61.5234-49.0479Q60.0098-50.5859 57.7148-50.5859Q55.2734-50.5859 53.7109-49.0234L47.4121-42.7734L41.1621-49.0234Q39.5996-50.5859 37.1582-50.5859Q34.9121-50.5859 33.374-49.0479Q31.8359-47.5098 31.8359-45.2148Q31.8359-43.1641 33.4473-41.5527L39.8438-35.1562L33.4473-28.7598Q31.8359-27.1484 31.8359-25.0977Q31.8359-22.8027 33.374-21.2646Q34.9121-19.7266 37.1582-19.7266Z"/>
  </g>
  <g id="Heavy-S" transform="matrix(1 0 0 1 2589.73 696)">
   <path d="M78.8574-66.9922Q75.7812-70.0684 71.5332-71.2158Q67.2852-72.3633 60.9375-72.3633L32.959-72.3633Q26.6602-72.3633 22.3877-71.2158Q18.1152-70.0684 15.0879-66.9922Q12.0117-63.9648 10.8887-59.7656Q9.76562-55.5664 9.76562-49.1699L9.76562-21.2402Q9.76562-14.8438 10.8887-10.6445Q12.0117-6.44531 15.0879-3.41797Q18.1641-0.341797 22.4121 0.805664Q26.6602 1.95312 32.959 1.95312L60.9375 1.95312Q67.2852 1.95312 71.5576 0.805664Q75.8301-0.341797 78.8574-3.41797Q81.8848-6.44531 83.0322-10.6445Q84.1797-14.8438 84.1797-21.2402L84.1797-49.1699Q84.1797-55.5664 83.0322-59.79Q81.8848-64.0137 78.8574-66.9922ZM71.6797-50.2441L71.6797-20.166Q71.6797-17.1387 71.2402-15.4053Q70.8008-13.6719 69.7266-12.5488Q68.6035-11.4746 66.8213-11.0107Q65.0391-10.5469 62.0117-10.5469L31.8848-10.5469Q28.8574-10.5469 27.0996-11.0107Q25.3418-11.4746 24.2188-12.5488Q23.1445-13.6719 22.7051-15.4053Q22.2656-17.1387 22.2656-20.166L22.2656-50.1953Q22.2656-53.2715 22.7051-55.0049Q23.1445-56.7383 24.2188-57.8613Q25.3418-58.9355 27.0996-59.3994Q28.8574-59.8633 31.8848-59.8633L62.0117-59.8633Q65.0391-59.8633 66.8213-59.3994Q68.6035-58.9355 69.7266-57.8613Q70.8008-56.7383 71.2402-55.0049Q71.6797-53.2715 71.6797-50.2441ZM36.084-19.5312Q38.3301-19.5312 39.7461-20.9473L46.9727-28.1738L54.248-20.9473Q55.6641-19.5312 57.8613-19.5312Q59.9609-19.5312 61.3525-20.9473Q62.7441-22.3633 62.7441-24.4629Q62.7441-26.3672 61.2793-27.832L54.0039-35.1562L61.2793-42.5293Q62.793-43.9941 62.793-45.8984Q62.793-47.998 61.377-49.4141Q59.9609-50.8301 57.9102-50.8301Q55.7129-50.8301 54.248-49.3652L46.9727-42.1387L39.6973-49.3652Q38.2812-50.7812 36.084-50.7812Q34.0332-50.7812 32.6172-49.3896Q31.2012-47.998 31.2012-45.8984Q31.2012-43.9941 32.666-42.5293L40.0391-35.1562L32.666-27.832Q31.2012-26.3672 31.2012-24.4629Q31.2012-22.3633 32.6172-20.9473Q34.0332-19.5312 36.084-19.5312Z"/>
  </g>
  <g id="Bold-S" transform="matrix(1 0 0 1 2293.52 696)">
   <path d="M78.125-66.6992Q75-69.7754 70.7764-70.8008Q66.5527-71.8262 60.791-71.8262L32.1777-71.8262Q26.416-71.8262 22.168-70.8008Q17.9199-69.7754 14.8438-66.6992Q11.7676-63.623 10.7666-59.4482Q9.76562-55.2734 9.76562-49.4629L9.76562-20.9961Q9.76562-15.1855 10.7666-10.9863Q11.7676-6.78711 14.8438-3.71094Q17.9199-0.683594 22.168 0.366211Q26.416 1.41602 32.1777 1.41602L60.791 1.41602Q66.5527 1.41602 70.8008 0.366211Q75.0488-0.683594 78.125-3.71094Q81.1523-6.78711 82.1533-10.9863Q83.1543-15.1855 83.1543-20.9961L83.1543-49.4141Q83.1543-55.2734 82.1533-59.4727Q81.1523-63.6719 78.125-66.6992ZM72.5586-50.4883L72.5586-19.9219Q72.5586-17.041 72.0947-14.917Q71.6309-12.793 70.3613-11.4746Q68.9941-10.2051 66.8701-9.7168Q64.7461-9.22852 61.8652-9.22852L31.1035-9.22852Q28.1738-9.22852 26.0498-9.7168Q23.9258-10.2051 22.6074-11.4746Q21.2891-12.793 20.8252-14.917Q20.3613-17.041 20.3613-19.9219L20.3613-50.4883Q20.3613-53.418 20.8252-55.5176Q21.2891-57.6172 22.6074-58.9355Q23.9258-60.2539 26.0498-60.7422Q28.1738-61.2305 31.1035-61.2305L61.8652-61.2305Q64.7461-61.2305 66.8701-60.7422Q68.9941-60.2539 70.3613-58.9355Q71.6309-57.6172 72.0947-55.5176Q72.5586-53.418 72.5586-50.4883ZM34.9121-19.2871Q36.9141-19.2871 38.1836-20.6055L46.4844-28.9062L54.834-20.6055Q56.1523-19.2871 58.1055-19.2871Q59.9609-19.2871 61.2305-20.5811Q62.5-21.875 62.5-23.7305Q62.5-25.4883 61.1816-26.8066L52.7832-35.2051L61.1816-43.6523Q62.5-44.9707 62.5-46.6797Q62.5-48.5352 61.2305-49.8047Q59.9609-51.0742 58.1055-51.0742Q56.25-51.0742 54.9316-49.8047L46.4844-41.4062L38.1348-49.7559Q36.8652-51.0742 34.9121-51.0742Q33.1055-51.0742 31.8115-49.8047Q30.5176-48.5352 30.5176-46.6309Q30.5176-44.9219 31.8359-43.6035L40.2344-35.2051L31.8359-26.7578Q30.5176-25.4883 30.5176-23.7305Q30.5176-21.875 31.8115-20.5811Q33.1055-19.2871 34.9121-19.2871Z"/>
  </g>
  <g id="Semibold-S" transform="matrix(1 0 0 1 1997.15 696)">
   <path d="M77.5879-66.5039Q74.4629-69.5312 70.2393-70.4834Q66.0156-71.4355 60.6445-71.4355L31.5918-71.4355Q26.2207-71.4355 21.9727-70.4834Q17.7246-69.5312 14.6484-66.5039Q11.5723-63.3789 10.6689-59.2041Q9.76562-55.0293 9.76562-49.6094L9.76562-20.8008Q9.76562-15.3809 10.6689-11.1816Q11.5723-6.98242 14.6484-3.90625Q17.7734-0.878906 21.9971 0.0732422Q26.2207 1.02539 31.5918 1.02539L60.6445 1.02539Q66.0156 1.02539 70.2393 0.0732422Q74.4629-0.878906 77.5879-3.90625Q80.6152-6.98242 81.543-11.1816Q82.4707-15.3809 82.4707-20.8008L82.4707-49.6094Q82.4707-55.0293 81.543-59.2285Q80.6152-63.4277 77.5879-66.5039ZM73.1445-50.6836L73.1445-19.7266Q73.1445-16.8945 72.6807-14.5508Q72.2168-12.207 70.752-10.7422Q69.2871-9.27734 66.9189-8.78906Q64.5508-8.30078 61.7188-8.30078L30.5176-8.30078Q27.6855-8.30078 25.293-8.78906Q22.9004-9.27734 21.4355-10.7422Q20.0195-12.207 19.5312-14.5508Q19.043-16.8945 19.043-19.7266L19.043-50.6348Q19.043-53.5156 19.5312-55.8594Q20.0195-58.2031 21.4355-59.668Q22.9004-61.1328 25.293-61.6211Q27.6855-62.1094 30.5664-62.1094L61.7188-62.1094Q64.5508-62.1094 66.9189-61.6211Q69.2871-61.1328 70.752-59.668Q72.2168-58.2031 72.6807-55.8594Q73.1445-53.5156 73.1445-50.6836ZM34.0332-19.1406Q35.8398-19.1406 37.0117-20.3125L46.0938-29.4434L55.1758-20.3125Q56.3965-19.1406 58.1543-19.1406Q59.8633-19.1406 61.0352-20.3125Q62.207-21.4844 62.207-23.2422Q62.207-24.8535 60.9863-26.0742L51.9043-35.2051L61.0352-44.3848Q62.2559-45.6055 62.2559-47.168Q62.2559-48.9258 61.0596-50.0977Q59.8633-51.2695 58.2031-51.2695Q56.4941-51.2695 55.2734-50.0488L46.0938-40.918L36.9629-50Q35.791-51.2207 34.0332-51.2207Q32.373-51.2207 31.1768-50.0488Q29.9805-48.877 29.9805-47.168Q29.9805-45.5078 31.2012-44.3359L40.332-35.2051L31.2012-26.0254Q29.9805-24.8535 29.9805-23.2422Q29.9805-21.4844 31.1768-20.3125Q32.373-19.1406 34.0332-19.1406Z"/>
  </g>
  <g id="Medium-S" transform="matrix(1 0 0 1 1700.7 696)">
   <path d="M77.1973-66.3086Q74.0723-69.3848 69.8486-70.2637Q65.625-71.1426 60.5469-71.1426L31.1523-71.1426Q26.0742-71.1426 21.8506-70.2637Q17.627-69.3848 14.502-66.3086Q11.4746-63.2324 10.6201-59.0332Q9.76562-54.834 9.76562-49.7559L9.76562-20.7031Q9.76562-15.5762 10.6201-11.377Q11.4746-7.17773 14.502-4.10156Q17.627-1.02539 21.8506-0.146484Q26.0742 0.732422 31.1523 0.732422L60.5469 0.732422Q65.625 0.732422 69.8486-0.146484Q74.0723-1.02539 77.1973-4.10156Q80.2246-7.17773 81.0791-11.377Q81.9336-15.5762 81.9336-20.7031L81.9336-49.707Q81.9336-54.834 81.0791-59.0576Q80.2246-63.2812 77.1973-66.3086ZM73.6328-50.7812L73.6328-19.6289Q73.6328-16.8457 73.1445-14.2822Q72.6562-11.7188 71.0938-10.1562Q69.4824-8.59375 66.9189-8.10547Q64.3555-7.61719 61.6211-7.61719L30.0781-7.61719Q27.3438-7.61719 24.7559-8.10547Q22.168-8.59375 20.6055-10.1562Q19.043-11.7188 18.5547-14.2822Q18.0664-16.8457 18.0664-19.6289L18.0664-50.7812Q18.0664-53.5645 18.5547-56.1279Q19.043-58.6914 20.6055-60.2539Q22.168-61.8164 24.7559-62.3047Q27.3438-62.793 30.127-62.793L61.6211-62.793Q64.3555-62.793 66.9189-62.3047Q69.4824-61.8164 71.0938-60.2539Q72.6562-58.6914 73.1445-56.1279Q73.6328-53.5645 73.6328-50.7812ZM33.4473-18.9941Q35.1074-18.9941 36.1816-20.1172L45.8496-29.834L55.5176-20.1172Q56.6895-18.9941 58.3008-18.9941Q59.8633-18.9941 60.9619-20.1172Q62.0605-21.2402 62.0605-22.8516Q62.0605-24.3652 60.9375-25.5371L51.2695-35.2051L60.9863-44.9707Q62.1094-46.0938 62.1094-47.5586Q62.1094-49.1699 61.0107-50.2686Q59.9121-51.3672 58.3008-51.3672Q56.7871-51.3672 55.6152-50.2441L45.8496-40.5273L36.1328-50.2441Q35.0586-51.3672 33.4473-51.3672Q31.8848-51.3672 30.7617-50.2686Q29.6387-49.1699 29.6387-47.5586Q29.6387-45.9961 30.7617-44.9219L40.4297-35.2051L30.7617-25.4883Q29.6387-24.3652 29.6387-22.8516Q29.6387-21.2402 30.7617-20.1172Q31.8848-18.9941 33.4473-18.9941Z"/>
  </g>
  <g id="Regular-S" transform="matrix(1 0 0 1 1404.34 696)">
   <path d="M76.6602-66.1133Q73.5352-69.1895 69.3115-69.9707Q65.0879-70.752 60.4004-70.752L30.6152-70.752Q25.9277-70.752 21.7041-69.9707Q17.4805-69.1895 14.3555-66.1133Q11.2793-62.9883 10.5225-58.8135Q9.76562-54.6387 9.76562-49.9512L9.76562-20.5078Q9.76562-15.7715 10.5225-11.5723Q11.2793-7.37305 14.3555-4.29688Q17.4805-1.2207 21.7041-0.439453Q25.9277 0.341797 30.6152 0.341797L60.4004 0.341797Q65.0879 0.341797 69.3115-0.439453Q73.5352-1.2207 76.6602-4.29688Q79.7363-7.37305 80.4932-11.5723Q81.25-15.7715 81.25-20.5078L81.25-49.9023Q81.25-54.6387 80.4932-58.8379Q79.7363-63.0371 76.6602-66.1133ZM74.2188-50.9766L74.2188-19.4336Q74.2188-16.748 73.7305-13.9404Q73.2422-11.1328 71.5332-9.42383Q69.7754-7.71484 66.9678-7.20215Q64.1602-6.68945 61.4746-6.68945L29.541-6.68945Q26.8555-6.68945 24.0234-7.20215Q21.1914-7.71484 19.4824-9.42383Q17.7734-11.1328 17.2852-13.9404Q16.7969-16.748 16.7969-19.4336L16.7969-50.9277Q16.7969-53.6621 17.2852-56.4697Q17.7734-59.2773 19.4824-60.9863Q21.1914-62.6953 24.0234-63.208Q26.8555-63.7207 29.5898-63.7207L61.4746-63.7207Q64.1602-63.7207 66.9678-63.208Q69.7754-62.6953 71.5332-60.9863Q73.2422-59.2773 73.7305-56.4697Q74.2188-53.6621 74.2188-50.9766ZM32.6172-18.8477Q34.1309-18.8477 35.1074-19.873L45.5078-30.3223L55.9082-19.873Q56.9824-18.8477 58.3984-18.8477Q59.8145-18.8477 60.8398-19.873Q61.8652-20.8984 61.8652-22.3633Q61.8652-23.7793 60.8398-24.8047L50.4395-35.2051L60.8887-45.7031Q61.9141-46.7285 61.9141-48.0957Q61.9141-49.5605 60.8887-50.5615Q59.8633-51.5625 58.4473-51.5625Q57.1289-51.5625 56.0547-50.5371L45.5078-40.0391L35.0098-50.4883Q34.082-51.5137 32.6172-51.5137Q31.2012-51.5137 30.1758-50.5127Q29.1504-49.5117 29.1504-48.0469Q29.1504-46.6309 30.1758-45.6543L40.5762-35.2051L30.1758-24.7559Q29.1504-23.7793 29.1504-22.3633Q29.1504-20.8984 30.1758-19.873Q31.2012-18.8477 32.6172-18.8477Z"/>
  </g>
  <g id="Light-S" transform="matrix(1 0 0 1 1108.49 696)">
   <path d="M75.1465-65.5273Q72.3633-68.3105 68.457-69.1162Q64.5508-69.9219 59.4727-69.9219L29.6387-69.9219Q24.7559-69.9219 20.8496-69.0918Q16.9434-68.2617 14.1602-65.5273Q11.377-62.6953 10.5713-58.8379Q9.76562-54.9805 9.76562-50.0977L9.76562-20.459Q9.76562-15.3809 10.5713-11.499Q11.377-7.61719 14.1113-4.83398Q16.9434-2.09961 20.8496-1.26953Q24.7559-0.439453 29.7852-0.439453L59.4727-0.439453Q64.5508-0.439453 68.457-1.26953Q72.3633-2.09961 75.1465-4.83398Q77.9297-7.61719 78.7354-11.499Q79.541-15.3809 79.541-20.459L79.541-49.9023Q79.541-54.9805 78.7354-58.8623Q77.9297-62.7441 75.1465-65.5273ZM74.1211-50.9277L74.1211-19.4336Q74.1211-16.2598 73.5107-13.4277Q72.9004-10.5957 71.1914-8.83789Q69.4336-7.08008 66.5771-6.46973Q63.7207-5.85938 60.5469-5.85938L28.7598-5.85938Q25.5859-5.85938 22.7051-6.46973Q19.8242-7.08008 18.1152-8.83789Q16.3574-10.5957 15.7715-13.4277Q15.1855-16.2598 15.1855-19.4336L15.1855-50.7812Q15.1855-54.0527 15.7715-56.9336Q16.3574-59.8145 18.0664-61.5723Q19.8242-63.2812 22.7295-63.8916Q25.6348-64.502 28.9551-64.502L60.5469-64.502Q63.7207-64.502 66.5771-63.8916Q69.4336-63.2812 71.1914-61.5234Q72.9004-59.8145 73.5107-56.9824Q74.1211-54.1504 74.1211-50.9277ZM31.4453-19.2871Q32.6172-19.2871 33.4473-20.1172L44.6289-31.3965L55.8594-20.1172Q56.7383-19.2871 57.8613-19.2871Q58.9844-19.2871 59.79-20.0684Q60.5957-20.8496 60.5957-22.0215Q60.5957-23.1445 59.7656-23.9746L48.5352-35.2051L59.8145-46.5332Q60.6445-47.3633 60.6445-48.4375Q60.6445-49.5605 59.8389-50.3418Q59.0332-51.123 57.9102-51.123Q56.8359-51.123 55.957-50.293L44.6289-39.0137L33.3496-50.2441Q32.5684-51.0742 31.4453-51.0742Q30.3223-51.0742 29.5166-50.3174Q28.7109-49.5605 28.7109-48.3887Q28.7109-47.2656 29.541-46.4844L40.7715-35.2051L29.541-23.9258Q28.7109-23.1445 28.7109-22.0215Q28.7109-20.8496 29.5166-20.0684Q30.3223-19.2871 31.4453-19.2871Z"/>
  </g>
  <g id="Thin-S" transform="matrix(1 0 0 1 812.918 696)">
   <path d="M73.1934-64.7461Q70.752-67.1387 67.2607-67.9932Q63.7695-68.8477 58.3008-68.8477L28.3691-68.8477Q23.1934-68.8477 19.7266-67.9688Q16.2598-67.0898 13.8672-64.6973Q11.4746-62.3047 10.6201-58.8867Q9.76562-55.4688 9.76562-50.2441L9.76562-20.459Q9.76562-14.8926 10.6201-11.4258Q11.4746-7.95898 13.8184-5.61523Q16.2109-3.22266 19.7266-2.34375Q23.2422-1.46484 28.7109-1.46484L58.3008-1.46484Q63.7695-1.46484 67.2852-2.34375Q70.8008-3.22266 73.1934-5.61523Q75.5371-7.95898 76.3916-11.4258Q77.2461-14.8926 77.2461-20.459L77.2461-49.9023Q77.2461-55.4688 76.3916-58.9355Q75.5371-62.4023 73.1934-64.7461ZM73.9258-50.9277L73.9258-19.4336Q73.9258-15.5762 73.1934-12.6953Q72.4609-9.81445 70.7031-8.05664Q68.9453-6.25 66.0156-5.51758Q63.0859-4.78516 59.2773-4.78516L27.7344-4.78516Q23.9258-4.78516 20.9961-5.51758Q18.0664-6.25 16.2598-8.05664Q14.502-9.81445 13.7939-12.6953Q13.0859-15.5762 13.0859-19.4336L13.0859-50.5371Q13.0859-54.5898 13.7939-57.5684Q14.502-60.5469 16.2598-62.3047Q18.0176-64.1113 21.0205-64.8193Q24.0234-65.5273 28.0762-65.5273L59.2773-65.5273Q63.0859-65.5273 66.0156-64.7949Q68.9453-64.0625 70.7031-62.3047Q72.4609-60.498 73.1934-57.6172Q73.9258-54.7363 73.9258-50.9277ZM29.834-19.873Q30.5664-19.873 31.1523-20.459L43.457-32.7637L55.7617-20.459Q56.3477-19.873 57.1289-19.873Q57.8125-19.873 58.3252-20.3613Q58.8379-20.8496 58.8379-21.5332Q58.8379-22.2656 58.3008-22.8516L45.8984-35.2051L58.3008-47.6074Q58.8867-48.1934 58.8867-48.877Q58.8867-49.6094 58.374-50.0732Q57.8613-50.5371 57.1289-50.5371Q56.3965-50.5371 55.8105-49.9512L43.457-37.6465L31.1035-49.9512Q30.5664-50.5371 29.834-50.5371Q29.1016-50.5371 28.5889-50.0488Q28.0762-49.5605 28.0762-48.877Q28.0762-48.1445 28.6621-47.6074L41.0156-35.2051L28.6621-22.8027Q28.0762-22.2656 28.0762-21.5332Q28.0762-20.8496 28.5889-20.3613Q29.1016-19.873 29.834-19.873Z"/>
  </g>
  <g id="Ultralight-S" transform="matrix(1 0 0 1 516.792 696)">
   <path d="M72.168-64.3555Q69.9707-66.5039 66.6992-67.4072Q63.4277-68.3105 57.666-68.3105L27.6855-68.3105Q22.3633-68.3105 19.1162-67.3828Q15.8691-66.4551 13.7207-64.3066Q11.5723-62.1094 10.6689-58.9111Q9.76562-55.7129 9.76562-50.3418L9.76562-20.4102Q9.76562-14.6484 10.6445-11.377Q11.5234-8.10547 13.6719-5.95703Q15.8691-3.80859 19.1406-2.90527Q22.4121-2.00195 28.1738-2.00195L57.666-2.00195Q63.4277-2.00195 66.6992-2.90527Q69.9707-3.80859 72.168-5.95703Q74.3164-8.1543 75.1953-11.4014Q76.0742-14.6484 76.0742-20.4102L76.0742-49.9023Q76.0742-55.6641 75.1953-58.9355Q74.3164-62.207 72.168-64.3555ZM73.877-50.8789L73.877-19.4336Q73.877-15.2344 73.0713-12.3535Q72.2656-9.47266 70.459-7.66602Q68.7012-5.85938 65.7471-5.05371Q62.793-4.24805 58.6426-4.24805L27.1973-4.24805Q23.0469-4.24805 20.0928-5.05371Q17.1387-5.85938 15.332-7.66602Q13.5742-9.47266 12.7686-12.3535Q11.9629-15.2344 11.9629-19.4336L11.9629-50.4395Q11.9629-54.8828 12.7686-57.8857Q13.5742-60.8887 15.2832-62.6953Q17.0898-64.502 20.166-65.2832Q23.2422-66.0645 27.6367-66.0645L58.6426-66.0645Q62.793-66.0645 65.7471-65.2588Q68.7012-64.4531 70.459-62.6465Q72.2656-60.8887 73.0713-57.9834Q73.877-55.0781 73.877-50.8789ZM29.0039-20.166Q29.541-20.166 30.0293-20.6055L42.8711-33.4961L55.7617-20.6055Q56.2012-20.166 56.7383-20.166Q57.2754-20.166 57.6416-20.4834Q58.0078-20.8008 58.0078-21.2891Q58.0078-21.8262 57.5684-22.2656L44.6289-35.2051L57.5684-48.1445Q58.0078-48.584 58.0078-49.0723Q58.0078-49.6094 57.6416-49.9268Q57.2754-50.2441 56.7383-50.2441Q56.2012-50.2441 55.7617-49.8047L42.8711-36.9629L30.0293-49.8047Q29.541-50.2441 29.0039-50.2441Q28.5156-50.2441 28.1494-49.9268Q27.7832-49.6094 27.7832-49.1211Q27.7832-48.584 28.2227-48.1445L41.1621-35.2051L28.2227-22.2656Q27.7832-21.8262 27.7832-21.2891Q27.7832-20.8008 28.1494-20.4834Q28.5156-20.166 29.0039-20.166Z"/>
  </g>
 </g>
</svg>
