<?xml version="1.0" encoding="UTF-8"?>
<!--Generator: Apple Native CoreSVG 175-->
<!DOCTYPE svg
PUBLIC "-//W3C//DTD SVG 1.1//EN"
       "http://www.w3.org/Graphics/SVG/1.1/DTD/svg11.dtd">
<svg version="1.1" xmlns="http://www.w3.org/2000/svg" xmlns:xlink="http://www.w3.org/1999/xlink" width="3300" height="2200">
 <!--glyph: "uni1004DE.medium", point size: 100.0, font version: "17.0d12e1", template writer version: "65.1"-->
 <g id="Notes">
  <rect height="2200" id="artboard" style="fill:white;opacity:1" width="3300" x="0" y="0"/>
  <line style="fill:none;stroke:black;opacity:1;stroke-width:0.5;" x1="263" x2="3036" y1="292" y2="292"/>
  <text style="stroke:none;fill:black;font-family:sans-serif;font-size:13;font-weight:bold;" transform="matrix(1 0 0 1 263 322)">Weight/Scale Variations</text>
  <text style="stroke:none;fill:black;font-family:sans-serif;font-size:13;text-anchor:middle;" transform="matrix(1 0 0 1 559.711 322)">Ultralight</text>
  <text style="stroke:none;fill:black;font-family:sans-serif;font-size:13;text-anchor:middle;" transform="matrix(1 0 0 1 856.422 322)">Thin</text>
  <text style="stroke:none;fill:black;font-family:sans-serif;font-size:13;text-anchor:middle;" transform="matrix(1 0 0 1 1153.13 322)">Light</text>
  <text style="stroke:none;fill:black;font-family:sans-serif;font-size:13;text-anchor:middle;" transform="matrix(1 0 0 1 1449.84 322)">Regular</text>
  <text style="stroke:none;fill:black;font-family:sans-serif;font-size:13;text-anchor:middle;" transform="matrix(1 0 0 1 1746.56 322)">Medium</text>
  <text style="stroke:none;fill:black;font-family:sans-serif;font-size:13;text-anchor:middle;" transform="matrix(1 0 0 1 2043.27 322)">Semibold</text>
  <text style="stroke:none;fill:black;font-family:sans-serif;font-size:13;text-anchor:middle;" transform="matrix(1 0 0 1 2339.98 322)">Bold</text>
  <text style="stroke:none;fill:black;font-family:sans-serif;font-size:13;text-anchor:middle;" transform="matrix(1 0 0 1 2636.69 322)">Heavy</text>
  <text style="stroke:none;fill:black;font-family:sans-serif;font-size:13;text-anchor:middle;" transform="matrix(1 0 0 1 2933.4 322)">Black</text>
  <line style="fill:none;stroke:black;opacity:1;stroke-width:0.5;" x1="263" x2="3036" y1="1903" y2="1903"/>
  <g transform="matrix(1 0 0 1 263 1933)">
   <path d="M9.24805 0.830078Q10.8691 0.830078 12.2949 0.214844Q13.7207-0.400391 14.8096-1.49414Q15.8984-2.58789 16.5186-4.01367Q17.1387-5.43945 17.1387-7.05078Q17.1387-8.66211 16.5186-10.0879Q15.8984-11.5137 14.8047-12.6074Q13.7109-13.7012 12.2852-14.3164Q10.8594-14.9316 9.23828-14.9316Q7.62695-14.9316 6.20117-14.3164Q4.77539-13.7012 3.69141-12.6074Q2.60742-11.5137 1.9873-10.0879Q1.36719-8.66211 1.36719-7.05078Q1.36719-5.43945 1.9873-4.01367Q2.60742-2.58789 3.69629-1.49414Q4.78516-0.400391 6.21094 0.214844Q7.63672 0.830078 9.24805 0.830078ZM9.24805-0.654297Q7.91992-0.654297 6.7627-1.14746Q5.60547-1.64062 4.73145-2.51953Q3.85742-3.39844 3.36426-4.56055Q2.87109-5.72266 2.87109-7.05078Q2.87109-8.37891 3.35938-9.54102Q3.84766-10.7031 4.72168-11.582Q5.5957-12.4609 6.75293-12.9541Q7.91016-13.4473 9.23828-13.4473Q10.5762-13.4473 11.7334-12.9541Q12.8906-12.4609 13.7695-11.582Q14.6484-10.7031 15.1465-9.54102Q15.6445-8.37891 15.6445-7.05078Q15.6445-5.72266 15.1514-4.56055Q14.6582-3.39844 13.7842-2.51953Q12.9102-1.64062 11.748-1.14746Q10.5859-0.654297 9.24805-0.654297ZM5.6543-7.05078Q5.6543-6.72852 5.85938-6.52832Q6.06445-6.32812 6.40625-6.32812L8.51562-6.32812L8.51562-4.20898Q8.51562-3.88672 8.71094-3.67676Q8.90625-3.4668 9.23828-3.4668Q9.56055-3.4668 9.77051-3.67676Q9.98047-3.88672 9.98047-4.20898L9.98047-6.32812L12.0898-6.32812Q12.4219-6.32812 12.627-6.52832Q12.832-6.72852 12.832-7.05078Q12.832-7.38281 12.627-7.58789Q12.4219-7.79297 12.0898-7.79297L9.98047-7.79297L9.98047-9.90234Q9.98047-10.2344 9.77051-10.4443Q9.56055-10.6543 9.23828-10.6543Q8.90625-10.6543 8.71094-10.4443Q8.51562-10.2344 8.51562-9.90234L8.51562-7.79297L6.40625-7.79297Q6.06445-7.79297 5.85938-7.58789Q5.6543-7.38281 5.6543-7.05078Z"/>
  </g>
  <g transform="matrix(1 0 0 1 281.867 1933)">
   <path d="M11.709 2.91016Q13.75 2.91016 15.5518 2.12891Q17.3535 1.34766 18.7305-0.0292969Q20.1074-1.40625 20.8887-3.20801Q21.6699-5.00977 21.6699-7.05078Q21.6699-9.0918 20.8887-10.8936Q20.1074-12.6953 18.7305-14.0723Q17.3535-15.4492 15.5469-16.2305Q13.7402-17.0117 11.6992-17.0117Q9.6582-17.0117 7.85645-16.2305Q6.05469-15.4492 4.68262-14.0723Q3.31055-12.6953 2.5293-10.8936Q1.74805-9.0918 1.74805-7.05078Q1.74805-5.00977 2.5293-3.20801Q3.31055-1.40625 4.6875-0.0292969Q6.06445 1.34766 7.86621 2.12891Q9.66797 2.91016 11.709 2.91016ZM11.709 1.25Q9.98047 1.25 8.47656 0.605469Q6.97266-0.0390625 5.83496-1.17676Q4.69727-2.31445 4.05762-3.81836Q3.41797-5.32227 3.41797-7.05078Q3.41797-8.7793 4.05762-10.2832Q4.69727-11.7871 5.83008-12.9297Q6.96289-14.0723 8.4668-14.7119Q9.9707-15.3516 11.6992-15.3516Q13.4277-15.3516 14.9316-14.7119Q16.4355-14.0723 17.5781-12.9297Q18.7207-11.7871 19.3652-10.2832Q20.0098-8.7793 20.0098-7.05078Q20.0098-5.32227 19.3701-3.81836Q18.7305-2.31445 17.5928-1.17676Q16.4551-0.0390625 14.9463 0.605469Q13.4375 1.25 11.709 1.25ZM7.17773-7.05078Q7.17773-6.69922 7.41211-6.47461Q7.64648-6.25 8.01758-6.25L10.8887-6.25L10.8887-3.36914Q10.8887-2.99805 11.1133-2.76855Q11.3379-2.53906 11.6895-2.53906Q12.0605-2.53906 12.29-2.76855Q12.5195-2.99805 12.5195-3.36914L12.5195-6.25L15.4004-6.25Q15.7715-6.25 16.001-6.47461Q16.2305-6.69922 16.2305-7.05078Q16.2305-7.42188 16.001-7.65137Q15.7715-7.88086 15.4004-7.88086L12.5195-7.88086L12.5195-10.752Q12.5195-11.1328 12.29-11.3623Q12.0605-11.5918 11.6895-11.5918Q11.3379-11.5918 11.1133-11.3574Q10.8887-11.123 10.8887-10.752L10.8887-7.88086L8.01758-7.88086Q7.63672-7.88086 7.40723-7.65137Q7.17773-7.42188 7.17773-7.05078Z"/>
  </g>
  <g transform="matrix(1 0 0 1 305.646 1933)">
   <path d="M14.9707 5.66406Q17.0605 5.66406 18.96 5.01465Q20.8594 4.36523 22.4512 3.19336Q24.043 2.02148 25.2197 0.429688Q26.3965-1.16211 27.0459-3.06641Q27.6953-4.9707 27.6953-7.05078Q27.6953-9.14062 27.0459-11.04Q26.3965-12.9395 25.2197-14.5312Q24.043-16.123 22.4512-17.2998Q20.8594-18.4766 18.9551-19.126Q17.0508-19.7754 14.9609-19.7754Q12.8711-19.7754 10.9717-19.126Q9.07227-18.4766 7.48535-17.2998Q5.89844-16.123 4.72168-14.5312Q3.54492-12.9395 2.90039-11.04Q2.25586-9.14062 2.25586-7.05078Q2.25586-4.9707 2.90527-3.06641Q3.55469-1.16211 4.72656 0.429688Q5.89844 2.02148 7.49023 3.19336Q9.08203 4.36523 10.9814 5.01465Q12.8809 5.66406 14.9707 5.66406ZM14.9707 3.84766Q13.1641 3.84766 11.5283 3.2959Q9.89258 2.74414 8.53516 1.74805Q7.17773 0.751953 6.17676-0.610352Q5.17578-1.97266 4.62891-3.6084Q4.08203-5.24414 4.08203-7.05078Q4.08203-8.86719 4.62891-10.5029Q5.17578-12.1387 6.17188-13.501Q7.16797-14.8633 8.52539-15.8594Q9.88281-16.8555 11.5186-17.4023Q13.1543-17.9492 14.9609-17.9492Q16.7773-17.9492 18.4131-17.4023Q20.0488-16.8555 21.4111-15.8594Q22.7734-14.8633 23.7695-13.501Q24.7656-12.1387 25.3174-10.5029Q25.8691-8.86719 25.8691-7.05078Q25.8789-5.24414 25.332-3.6084Q24.7852-1.97266 23.7842-0.610352Q22.7832 0.751953 21.4209 1.74805Q20.0586 2.74414 18.4229 3.2959Q16.7871 3.84766 14.9707 3.84766ZM9.19922-7.05078Q9.19922-6.66992 9.45801-6.4209Q9.7168-6.17188 10.1172-6.17188L14.0625-6.17188L14.0625-2.2168Q14.0625-1.81641 14.3115-1.55762Q14.5605-1.29883 14.9512-1.29883Q15.3516-1.29883 15.6104-1.55273Q15.8691-1.80664 15.8691-2.2168L15.8691-6.17188L19.8242-6.17188Q20.2246-6.17188 20.4785-6.4209Q20.7324-6.66992 20.7324-7.05078Q20.7324-7.46094 20.4785-7.71484Q20.2246-7.96875 19.8242-7.96875L15.8691-7.96875L15.8691-11.9141Q15.8691-12.3242 15.6104-12.583Q15.3516-12.8418 14.9512-12.8418Q14.5605-12.8418 14.3115-12.583Q14.0625-12.3242 14.0625-11.9141L14.0625-7.96875L10.1172-7.96875Q9.70703-7.96875 9.45312-7.71484Q9.19922-7.46094 9.19922-7.05078Z"/>
  </g>
  <text style="stroke:none;fill:black;font-family:sans-serif;font-size:13;font-weight:bold;" transform="matrix(1 0 0 1 263 1953)">Design Variations</text>
  <text style="stroke:none;fill:black;font-family:sans-serif;font-size:13;" transform="matrix(1 0 0 1 263 1971)">Symbols are supported in up to nine weights and three scales.</text>
  <text style="stroke:none;fill:black;font-family:sans-serif;font-size:13;" transform="matrix(1 0 0 1 263 1989)">For optimal layout with text and other symbols, vertically align</text>
  <text style="stroke:none;fill:black;font-family:sans-serif;font-size:13;" transform="matrix(1 0 0 1 263 2007)">symbols with the adjacent text.</text>
  <line style="fill:none;stroke:#00AEEF;stroke-width:0.5;opacity:1.0;" x1="776" x2="776" y1="1919" y2="1933"/>
  <g transform="matrix(1 0 0 1 776 1933)">
   <path d="M3.31055 0.15625Q3.70117 0.15625 3.91602-0.00976562Q4.13086-0.175781 4.26758-0.585938L5.52734-4.0332L11.2891-4.0332L12.5488-0.585938Q12.6855-0.175781 12.9004-0.00976562Q13.1152 0.15625 13.4961 0.15625Q13.8867 0.15625 14.1162-0.0585938Q14.3457-0.273438 14.3457-0.644531Q14.3457-0.869141 14.2383-1.17188L9.6582-13.3691Q9.48242-13.8184 9.17969-14.043Q8.87695-14.2676 8.4082-14.2676Q7.5-14.2676 7.17773-13.3789L2.59766-1.16211Q2.49023-0.859375 2.49023-0.634766Q2.49023-0.263672 2.70996-0.0537109Q2.92969 0.15625 3.31055 0.15625ZM6.00586-5.51758L8.37891-12.0898L8.42773-12.0898L10.8008-5.51758Z"/>
  </g>
  <line style="fill:none;stroke:#00AEEF;stroke-width:0.5;opacity:1.0;" x1="793.197" x2="793.197" y1="1919" y2="1933"/>
  <text style="stroke:none;fill:black;font-family:sans-serif;font-size:13;font-weight:bold;" transform="matrix(1 0 0 1 776 1953)">Margins</text>
  <text style="stroke:none;fill:black;font-family:sans-serif;font-size:13;" transform="matrix(1 0 0 1 776 1971)">Leading and trailing margins on the left and right side of each symbol</text>
  <text style="stroke:none;fill:black;font-family:sans-serif;font-size:13;" transform="matrix(1 0 0 1 776 1989)">can be adjusted by modifying the x-location of the margin guidelines.</text>
  <text style="stroke:none;fill:black;font-family:sans-serif;font-size:13;" transform="matrix(1 0 0 1 776 2007)">Modifications are automatically applied proportionally to all</text>
  <text style="stroke:none;fill:black;font-family:sans-serif;font-size:13;" transform="matrix(1 0 0 1 776 2025)">scales and weights.</text>
  <g transform="matrix(1 0 0 1 1289 1933)">
   <path d="M2.8418 1.86523L4.54102 3.57422Q5.18555 4.22852 5.90332 4.17969Q6.62109 4.13086 7.31445 3.35938L18.0078-8.42773L17.041-9.4043L6.42578 2.27539Q6.16211 2.57812 5.89355 2.61719Q5.625 2.65625 5.27344 2.30469L4.10156 1.14258Q3.75 0.791016 3.79395 0.522461Q3.83789 0.253906 4.14062-0.0195312L15.6152-10.8203L14.6387-11.7871L3.04688-0.898438Q2.30469-0.214844 2.25098 0.498047Q2.19727 1.21094 2.8418 1.86523ZM9.25781-16.3281Q8.94531-16.0254 8.90625-15.6348Q8.86719-15.2441 9.04297-14.9512Q9.21875-14.6777 9.55566-14.541Q9.89258-14.4043 10.3809-14.5215Q11.4746-14.7754 12.5977-14.7314Q13.7207-14.6875 14.7949-13.9844L14.209-12.5293Q13.9551-11.9043 14.0674-11.4404Q14.1797-10.9766 14.5801-10.5664L16.875-8.25195Q17.2363-7.88086 17.5781-7.82227Q17.9199-7.76367 18.3398-7.8418L19.4043-8.03711L20.0684-7.36328L20.0293-6.80664Q20-6.43555 20.1221-6.12305Q20.2441-5.81055 20.6055-5.44922L21.3672-4.70703Q21.7285-4.3457 22.1533-4.33105Q22.5781-4.31641 22.9297-4.66797L25.8398-7.58789Q26.1914-7.93945 26.1816-8.35449Q26.1719-8.76953 25.8105-9.13086L25.0391-9.89258Q24.6875-10.2539 24.3799-10.3857Q24.0723-10.5176 23.7109-10.4883L23.1348-10.4395L22.4902-11.0742L22.7344-12.1973Q22.832-12.6172 22.6953-12.9834Q22.5586-13.3496 22.1191-13.7891L19.9219-15.9766Q18.6719-17.2168 17.2607-17.8369Q15.8496-18.457 14.4189-18.4814Q12.9883-18.5059 11.665-17.959Q10.3418-17.4121 9.25781-16.3281ZM10.752-15.957Q11.6602-16.6211 12.7002-16.9043Q13.7402-17.1875 14.8047-17.085Q15.8691-16.9824 16.8701-16.5137Q17.8711-16.0449 18.7012-15.2051L21.1328-12.793Q21.3086-12.6172 21.3525-12.4512Q21.3965-12.2852 21.3379-12.0312L21.0156-10.5469L22.5195-9.0625L23.5059-9.12109Q23.6914-9.13086 23.7891-9.09668Q23.8867-9.0625 24.0332-8.91602L24.6094-8.33984L22.168-5.89844L21.5918-6.47461Q21.4453-6.62109 21.4062-6.71875Q21.3672-6.81641 21.377-7.01172L21.4453-7.98828L19.9512-9.47266L18.4277-9.21875Q18.1836-9.16992 18.042-9.2041Q17.9004-9.23828 17.7148-9.41406L15.7129-11.416Q15.5176-11.5918 15.4932-11.7529Q15.4688-11.9141 15.5859-12.1875L16.4648-14.2773Q15.293-15.3711 13.8281-15.791Q12.3633-16.2109 10.8398-15.7617Q10.7227-15.7324 10.6885-15.8057Q10.6543-15.8789 10.752-15.957Z"/>
  </g>
  <text style="stroke:none;fill:black;font-family:sans-serif;font-size:13;font-weight:bold;" transform="matrix(1 0 0 1 1289 1953)">Exporting</text>
  <text style="stroke:none;fill:black;font-family:sans-serif;font-size:13;" transform="matrix(1 0 0 1 1289 1971)">Symbols should be outlined when exporting to ensure the</text>
  <text style="stroke:none;fill:black;font-family:sans-serif;font-size:13;" transform="matrix(1 0 0 1 1289 1989)">design is preserved when submitting to Xcode.</text>
  <text id="template-version" style="stroke:none;fill:black;font-family:sans-serif;font-size:13;text-anchor:end;" transform="matrix(1 0 0 1 3036 1933)">Template v.3.0</text>
  <text style="stroke:none;fill:black;font-family:sans-serif;font-size:13;text-anchor:end;" transform="matrix(1 0 0 1 3036 1951)">Requires Xcode 13 or greater</text>
  <text id="descriptive-name" style="stroke:none;fill:black;font-family:sans-serif;font-size:13;text-anchor:end;" transform="matrix(1 0 0 1 3036 1969)">Generated from circle.dashed</text>
  <text style="stroke:none;fill:black;font-family:sans-serif;font-size:13;text-anchor:end;" transform="matrix(1 0 0 1 3036 1987)">Typeset at 100 points</text>
  <text style="stroke:none;fill:black;font-family:sans-serif;font-size:13;" transform="matrix(1 0 0 1 263 726)">Small</text>
  <text style="stroke:none;fill:black;font-family:sans-serif;font-size:13;" transform="matrix(1 0 0 1 263 1156)">Medium</text>
  <text style="stroke:none;fill:black;font-family:sans-serif;font-size:13;" transform="matrix(1 0 0 1 263 1586)">Large</text>
 </g>
 <g id="Guides">
  <g id="H-reference" style="fill:#27AAE1;stroke:none;" transform="matrix(1 0 0 1 339 696)">
   <path d="M0.993347 0L3.6377 0L29.3282-67.1326L30.0301-67.1326L30.0301-70.459L28.1227-70.459ZM11.6882-24.4797L46.9818-24.4797L46.2311-26.7288L12.4382-26.7288ZM55.1193 0L57.7637 0L30.6381-70.459L29.4327-70.459L29.4327-67.1326Z"/>
  </g>
  <line id="Baseline-S" style="fill:none;stroke:#27AAE1;opacity:1;stroke-width:0.5;" x1="263" x2="3036" y1="696" y2="696"/>
  <line id="Capline-S" style="fill:none;stroke:#27AAE1;opacity:1;stroke-width:0.5;" x1="263" x2="3036" y1="625.541" y2="625.541"/>
  <g id="H-reference" style="fill:#27AAE1;stroke:none;" transform="matrix(1 0 0 1 339 1126)">
   <path d="M0.993347 0L3.6377 0L29.3282-67.1326L30.0301-67.1326L30.0301-70.459L28.1227-70.459ZM11.6882-24.4797L46.9818-24.4797L46.2311-26.7288L12.4382-26.7288ZM55.1193 0L57.7637 0L30.6381-70.459L29.4327-70.459L29.4327-67.1326Z"/>
  </g>
  <line id="Baseline-M" style="fill:none;stroke:#27AAE1;opacity:1;stroke-width:0.5;" x1="263" x2="3036" y1="1126" y2="1126"/>
  <line id="Capline-M" style="fill:none;stroke:#27AAE1;opacity:1;stroke-width:0.5;" x1="263" x2="3036" y1="1055.54" y2="1055.54"/>
  <g id="H-reference" style="fill:#27AAE1;stroke:none;" transform="matrix(1 0 0 1 339 1556)">
   <path d="M0.993347 0L3.6377 0L29.3282-67.1326L30.0301-67.1326L30.0301-70.459L28.1227-70.459ZM11.6882-24.4797L46.9818-24.4797L46.2311-26.7288L12.4382-26.7288ZM55.1193 0L57.7637 0L30.6381-70.459L29.4327-70.459L29.4327-67.1326Z"/>
  </g>
  <line id="Baseline-L" style="fill:none;stroke:#27AAE1;opacity:1;stroke-width:0.5;" x1="263" x2="3036" y1="1556" y2="1556"/>
  <line id="Capline-L" style="fill:none;stroke:#27AAE1;opacity:1;stroke-width:0.5;" x1="263" x2="3036" y1="1485.54" y2="1485.54"/>
  <line id="left-margin-Regular-M" style="fill:none;stroke:#00AEEF;stroke-width:0.5;opacity:1.0;" x1="1391.3" x2="1391.3" y1="1030.79" y2="1150.12"/>
  <line id="right-margin-Regular-M" style="fill:none;stroke:#00AEEF;stroke-width:0.5;opacity:1.0;" x1="1508.39" x2="1508.39" y1="1030.79" y2="1150.12"/>
 </g>
 <g id="Symbols">
  <g id="Black-L" transform="matrix(1 0 0 1 2854.05 1556)">
   <path d="M31.7383-35.2539Q31.7383-38.623 32.2021-41.8213Q32.666-45.0195 33.4473-48.0957L14.502-55.957Q12.9395-51.0742 12.1094-45.874Q11.2793-40.6738 11.2793-35.2539Q11.2793-29.8828 12.1094-24.6826Q12.9395-19.4824 14.5508-14.5508L33.4473-22.4609Q32.666-25.4883 32.2021-28.7109Q31.7383-31.9336 31.7383-35.2539ZM55.957-76.8066L48.0957-95.7031Q38.7695-90.8203 31.2744-83.3252Q23.7793-75.8301 18.8965-66.4551L37.793-58.5938Q40.9668-64.3066 45.6055-68.9697Q50.2441-73.6328 55.957-76.8066ZM79.2969-82.9102Q82.666-82.9102 85.8643-82.4463Q89.0625-81.9824 92.1387-81.1523L100-100.049Q95.1172-101.66 89.917-102.49Q84.7168-103.32 79.2969-103.32Q73.9258-103.32 68.7256-102.49Q63.5254-101.66 58.5938-100.049L66.5039-81.1523Q69.5312-81.9824 72.7539-82.4463Q75.9766-82.9102 79.2969-82.9102ZM120.85-58.5938L139.795-66.4551Q134.863-75.8301 127.368-83.3252Q119.873-90.8203 110.498-95.752L102.637-76.8066Q108.398-73.6328 113.037-68.9941Q117.676-64.3555 120.85-58.5938ZM126.953-35.2539Q126.953-31.9336 126.514-28.7109Q126.074-25.4883 125.244-22.4121L144.141-14.5508Q145.703-19.4824 146.558-24.6826Q147.412-29.8828 147.412-35.2539Q147.412-40.6738 146.558-45.874Q145.703-51.0742 144.141-56.0059L125.195-48.0957Q126.074-45.0195 126.514-41.8213Q126.953-38.623 126.953-35.2539ZM102.637 6.29883L110.498 25.1953Q119.873 20.3125 127.393 12.793Q134.912 5.27344 139.795-4.05273L120.898-11.9141Q117.676-6.20117 113.037-1.5625Q108.398 3.07617 102.637 6.29883ZM79.3457 12.3535Q75.9766 12.3535 72.7539 11.8896Q69.5312 11.4258 66.5039 10.5957L58.6426 29.541Q63.5254 31.1035 68.7256 31.958Q73.9258 32.8125 79.3457 32.8125Q84.7168 32.8125 89.917 31.958Q95.1172 31.1035 100.049 29.541L92.1387 10.6445Q89.0625 11.4258 85.8643 11.8896Q82.666 12.3535 79.3457 12.3535ZM37.793-11.9141L18.8965-4.05273Q23.7793 5.27344 31.2744 12.7686Q38.7695 20.2637 48.0957 25.1465L55.957 6.25Q50.2441 3.07617 45.6055-1.5625Q40.9668-6.20117 37.793-11.9141Z"/>
  </g>
  <g id="Heavy-L" transform="matrix(1 0 0 1 2558.4 1556)">
   <path d="M29.0649-35.2539Q29.0649-38.9 29.5864-42.3573Q30.1079-45.8145 31.0272-49.1096L14.5599-55.9456Q12.9738-51.0742 12.1265-45.874Q11.2793-40.6738 11.2793-35.2539Q11.2793-29.8828 12.1323-24.6826Q12.9852-19.4824 14.6088-14.5622L31.0272-21.4355Q30.1193-24.6933 29.5921-28.175Q29.0649-31.6566 29.0649-35.2539ZM54.6432-78.5126L47.8188-94.8853Q38.4697-90.0597 30.9689-82.5588Q23.468-75.058 18.6432-65.6715L35.0388-58.8356Q38.385-65.0673 43.404-70.1107Q48.423-75.1541 54.6432-78.5126ZM78.2364-84.5238Q81.8825-84.5238 85.3458-84.0023Q88.8092-83.4808 92.1158-82.5241L98.9281-98.9311Q94.0567-100.565 88.8565-101.418Q83.6563-102.271 78.2364-102.271Q72.8653-102.271 67.6594-101.418Q62.4535-100.565 57.5333-98.9311L64.4066-82.5241Q67.6758-83.4808 71.1578-84.0023Q74.6399-84.5238 78.2364-84.5238ZM121.495-58.847L137.928-65.6715Q133.054-75.0694 125.547-82.5703Q118.04-90.0711 108.654-94.9455L101.83-78.5126Q108.099-75.1541 113.118-70.1408Q118.137-65.1276 121.495-58.847ZM127.518-35.2539Q127.518-31.6566 127.015-28.1693Q126.512-24.6819 125.567-21.3867L141.962-14.5508Q143.559-19.471 144.431-24.6769Q145.303-29.8828 145.303-35.2539Q145.303-40.6738 144.431-45.874Q143.559-51.0742 141.962-55.9944L125.529-49.1211Q126.512-45.826 127.015-42.363Q127.518-38.9 127.518-35.2539ZM101.83 7.99332L108.654 24.3889Q118.052 19.5518 125.577 12.0323Q133.102 4.51279 137.917-4.83627L121.544-11.6608Q118.148-5.42908 113.129-0.41008Q108.11 4.60892 101.83 7.99332ZM78.2852 13.9786Q74.6399 13.9786 71.1578 13.4571Q67.6758 12.9356 64.4066 11.9675L57.5821 28.4233Q62.4649 30.0087 67.6708 30.8804Q72.8767 31.752 78.2852 31.752Q83.6678 31.752 88.8622 30.8861Q94.0567 30.0201 98.9769 28.4348L92.1043 12.0277Q88.7978 12.9356 85.3401 13.4571Q81.8825 13.9786 78.2852 13.9786ZM35.0502-11.6608L18.6432-4.83627Q23.4795 4.51279 30.9746 12.0136Q38.4697 19.5145 47.831 24.3401L54.6432 7.94449Q48.423 4.59747 43.4097-0.421524Q38.3965-5.44052 35.0502-11.6608Z"/>
  </g>
  <g id="Bold-L" transform="matrix(1 0 0 1 2262.87 1556)">
   <path d="M26.0742-35.2539Q26.0742-39.209 26.6602-42.9565Q27.2461-46.7041 28.3203-50.2441L14.624-55.9326Q13.0127-51.0742 12.146-45.874Q11.2793-40.6738 11.2793-35.2539Q11.2793-29.8828 12.1582-24.6826Q13.0371-19.4824 14.6729-14.5752L28.3203-20.2881Q27.2705-23.8037 26.6724-27.5757Q26.0742-31.3477 26.0742-35.2539ZM53.1738-80.4199L47.5098-93.9697Q38.1348-89.209 30.6274-81.7017Q23.1201-74.1943 18.3594-64.7949L31.958-59.1064Q35.498-65.918 40.9424-71.3867Q46.3867-76.8555 53.1738-80.4199ZM77.0508-86.3281Q81.0059-86.3281 84.7656-85.7422Q88.5254-85.1562 92.0898-84.0576L97.7295-97.6807Q92.8711-99.3408 87.6709-100.22Q82.4707-101.099 77.0508-101.099Q71.6797-101.099 66.4673-100.22Q61.2549-99.3408 56.3477-97.6807L62.0605-84.0576Q65.6006-85.1562 69.3726-85.7422Q73.1445-86.3281 77.0508-86.3281ZM122.217-59.1309L135.84-64.7949Q131.03-74.2188 123.511-81.7261Q115.991-89.2334 106.592-94.043L100.928-80.4199Q107.764-76.8555 113.208-71.4233Q118.652-65.9912 122.217-59.1309ZM128.149-35.2539Q128.149-31.3477 127.576-27.5635Q127.002-23.7793 125.928-20.2393L139.526-14.5508Q141.162-19.458 142.053-24.6704Q142.944-29.8828 142.944-35.2539Q142.944-40.6738 142.053-45.874Q141.162-51.0742 139.526-55.9814L125.903-50.2686Q127.002-46.7285 127.576-42.9688Q128.149-39.209 128.149-35.2539ZM100.928 9.8877L106.592 23.4863Q116.016 18.7012 123.547 11.1816Q131.079 3.66211 135.815-5.71289L122.266-11.377Q118.677-4.56543 113.232 0.878906Q107.788 6.32324 100.928 9.8877ZM77.0996 15.7959Q73.1445 15.7959 69.3726 15.21Q65.6006 14.624 62.0605 13.501L56.3965 27.1729Q61.2793 28.7842 66.4917 29.6753Q71.7041 30.5664 77.0996 30.5664Q82.4951 30.5664 87.6831 29.6875Q92.8711 28.8086 97.7783 27.1973L92.0654 13.5742Q88.501 14.624 84.7534 15.21Q81.0059 15.7959 77.0996 15.7959ZM31.9824-11.377L18.3594-5.71289Q23.1445 3.66211 30.6396 11.1694Q38.1348 18.6768 47.5342 23.4375L53.1738 9.83887Q46.3867 6.29883 40.9546 0.854492Q35.5225-4.58984 31.9824-11.377Z"/>
  </g>
  <g id="Semibold-L" transform="matrix(1 0 0 1 1966.97 1556)">
   <path d="M24.0128-35.2539Q24.0128-39.4226 24.6429-43.3701Q25.2731-47.3175 26.4542-51.0262L14.6683-55.9235Q13.0394-51.0742 12.1593-45.874Q11.2793-40.6738 11.2793-35.2539Q11.2793-29.8828 12.1761-24.6826Q13.073-19.4824 14.7171-14.5844L26.4542-19.4969Q25.3067-23.1903 24.6597-27.1622Q24.0128-31.134 24.0128-35.2539ZM52.1606-81.7352L47.2961-93.3388Q37.9036-88.6223 30.3917-81.1108Q22.8798-73.5992 18.1641-64.1907L29.834-59.2934Q33.5075-66.5047 39.2452-72.2668Q44.9829-78.0289 52.1606-81.7352ZM76.2329-87.5725Q80.4016-87.5725 84.3658-86.9419Q88.3301-86.3113 92.0723-85.1151L96.9032-96.8185Q92.0532-98.4962 86.853-99.3931Q81.6528-100.29 76.2329-100.29Q70.8618-100.29 65.6452-99.3931Q60.4286-98.4962 55.5298-96.8185L60.4431-85.1151Q64.1701-86.3113 68.1419-86.9419Q72.1138-87.5725 76.2329-87.5725ZM122.714-59.3262L134.4-64.1907Q129.635-73.632 122.107-81.144Q114.578-88.6559 105.17-93.4212L100.306-81.7352Q107.533-78.0289 113.27-72.3076Q119.008-66.5863 122.714-59.3262ZM128.585-35.2539Q128.585-31.134 127.962-27.1458Q127.34-23.1575 126.176-19.4481L137.846-14.5508Q139.509-19.4489 140.413-24.6658Q141.318-29.8828 141.318-35.2539Q141.318-40.6738 140.413-45.874Q139.509-51.0742 137.846-55.9723L126.161-51.0597Q127.34-47.3503 127.962-43.3865Q128.585-39.4226 128.585-35.2539ZM100.306 11.1938L105.17 22.8645Q114.612 18.1145 122.148 10.5949Q129.684 3.07541 134.367-6.31714L122.763-11.1816Q119.041-3.97034 113.304 1.76735Q107.566 7.50504 100.306 11.1938ZM76.2817 17.0486Q72.1138 17.0486 68.1419 16.4185Q64.1701 15.7883 60.4431 14.5584L55.5786 26.3107Q60.4614 27.9396 65.6784 28.8441Q70.8954 29.7485 76.2817 29.7485Q81.6864 29.7485 86.8698 28.8609Q92.0532 27.9732 96.9521 26.3443L92.0387 14.6408Q88.2965 15.7883 84.3491 16.4185Q80.4016 17.0486 76.2817 17.0486ZM29.8676-11.1816L18.1641-6.31714Q22.9134 3.07541 30.4085 10.5873Q37.9036 18.0992 47.3297 22.8157L52.1606 11.145Q44.9829 7.47223 39.2616 1.73454Q33.5403-4.00314 29.8676-11.1816Z"/>
  </g>
  <g id="Medium-L" transform="matrix(1 0 0 1 1670.87 1556)">
   <path d="M22.4495-35.2539Q22.4495-39.5844 23.1133-43.6832Q23.777-47.7821 25.0389-51.619L14.7018-55.9174Q13.0592-51.0742 12.1693-45.874Q11.2793-40.6738 11.2793-35.2539Q11.2793-29.8828 12.1895-24.6826Q13.0997-19.4824 14.7507-14.5905L25.0389-18.8972Q23.8174-22.7257 23.1335-26.849Q22.4495-30.9723 22.4495-35.2539ZM51.3924-82.7324L47.1344-92.8604Q37.7289-88.1775 30.2135-80.6625Q22.6982-73.1476 18.0153-63.7321L28.2234-59.4345Q31.9977-66.9495 37.9578-72.9336Q43.9178-78.9177 51.3924-82.7324ZM75.6134-88.5155Q79.9431-88.5155 84.0622-87.8513Q88.1813-87.1872 92.0586-85.9169L96.2761-96.1647Q91.4337-97.8561 86.2335-98.7663Q81.0333-99.6765 75.6134-99.6765Q70.2423-99.6765 65.0219-98.7663Q59.8015-97.8561 54.9103-96.1647L59.2171-85.9169Q63.0852-87.1872 67.2085-87.8513Q71.3318-88.5155 75.6134-88.5155ZM123.092-59.4749L133.308-63.7321Q128.577-73.1873 121.042-80.7026Q113.507-88.2179 104.092-92.9489L99.8337-82.7324Q107.358-78.9177 113.317-72.9778Q119.277-67.038 123.092-59.4749ZM128.915-35.2539Q128.915-30.9723 128.255-26.8288Q127.596-22.6852 126.365-18.8484L136.573-14.5508Q138.256-19.4427 139.17-24.6628Q140.085-29.8828 140.085-35.2539Q140.085-40.6738 139.17-45.874Q138.256-51.0742 136.573-55.9662L126.357-51.6594Q127.596-47.8226 128.255-43.7035Q128.915-39.5844 128.915-35.2539ZM99.8337 12.1849L104.092 22.3923Q113.547 17.6697 121.087 10.1501Q128.626 2.63062 133.269-6.77567L123.141-11.0329Q119.318-3.51868 113.358 2.44141Q107.397 8.40149 99.8337 12.1849ZM75.6622 17.9993Q71.3318 17.9993 67.2085 17.3351Q63.0852 16.671 59.2171 15.3603L54.9591 25.6569Q59.8419 27.2995 65.062 28.2143Q70.282 29.129 75.6622 29.129Q81.073 29.129 86.2534 28.2345Q91.4337 27.3399 96.3249 25.6973L92.0189 15.4495Q88.1416 16.671 84.0424 17.3351Q79.9431 17.9993 75.6622 17.9993ZM28.2639-11.0329L18.0153-6.77567Q22.7386 2.63062 30.2338 10.146Q37.7289 17.6613 47.1748 22.3434L51.3924 12.1361Q43.9178 8.36105 37.978 2.40135Q32.0381-3.55835 28.2639-11.0329Z"/>
  </g>
  <g id="Regular-L" transform="matrix(1 0 0 1 1374.97 1556)">
   <path d="M20.4102-35.2539Q20.4102-39.7949 21.1182-44.0918Q21.8262-48.3887 23.1934-52.3926L14.7461-55.9082Q13.0859-51.0742 12.1826-45.874Q11.2793-40.6738 11.2793-35.2539Q11.2793-29.8828 12.207-24.6826Q13.1348-19.4824 14.7949-14.5996L23.1934-18.1152Q21.875-22.1191 21.1426-26.4404Q20.4102-30.7617 20.4102-35.2539ZM50.3906-84.0332L46.9238-92.2363Q37.5-87.5977 29.9805-80.0781Q22.4609-72.5586 17.8223-63.1348L26.123-59.6191Q30.0293-67.5293 36.2793-73.8037Q42.5293-80.0781 50.3906-84.0332ZM74.8047-89.7461Q79.3457-89.7461 83.667-89.0381Q87.9883-88.3301 92.041-86.9629L95.459-95.3125Q90.625-97.0215 85.4248-97.9492Q80.2246-98.877 74.8047-98.877Q69.4336-98.877 64.209-97.9492Q58.9844-97.0215 54.1016-95.3125L57.6172-86.9629Q61.6699-88.3301 65.9912-89.0381Q70.3125-89.7461 74.8047-89.7461ZM123.584-59.668L131.885-63.1348Q127.197-72.6074 119.653-80.127Q112.109-87.6465 102.686-92.334L99.2188-84.0332Q107.129-80.0781 113.379-73.8525Q119.629-67.627 123.584-59.668ZM129.346-35.2539Q129.346-30.7617 128.638-26.416Q127.93-22.0703 126.611-18.0664L134.912-14.5508Q136.621-19.4336 137.549-24.6582Q138.477-29.8828 138.477-35.2539Q138.477-40.6738 137.549-45.874Q136.621-51.0742 134.912-55.957L126.611-52.4414Q127.93-48.4375 128.638-44.1162Q129.346-39.7949 129.346-35.2539ZM99.2188 13.4766L102.686 21.7773Q112.158 17.0898 119.702 9.57031Q127.246 2.05078 131.836-7.37305L123.633-10.8398Q119.678-2.92969 113.428 3.32031Q107.178 9.57031 99.2188 13.4766ZM74.8535 19.2383Q70.3125 19.2383 65.9912 18.5303Q61.6699 17.8223 57.6172 16.4062L54.1504 24.8047Q59.0332 26.4648 64.2578 27.3926Q69.4824 28.3203 74.8535 28.3203Q80.2734 28.3203 85.4492 27.417Q90.625 26.5137 95.5078 24.8535L91.9922 16.5039Q87.9395 17.8223 83.6426 18.5303Q79.3457 19.2383 74.8535 19.2383ZM26.1719-10.8398L17.8223-7.37305Q22.5098 2.05078 30.0049 9.57031Q37.5 17.0898 46.9727 21.7285L50.3906 13.4277Q42.5293 9.52148 36.3037 3.27148Q30.0781-2.97852 26.1719-10.8398Z"/>
  </g>
  <g id="Light-L" transform="matrix(1 0 0 1 1079.18 1556)">
   <path d="M18.1999-35.2539Q18.1999-40.0673 18.9762-44.6217Q19.7525-49.176 21.2708-53.4218L14.8674-56.105Q13.1462-51.2253 12.2128-45.9797Q11.2793-40.7341 11.2793-35.2539Q11.2793-29.8225 12.2299-24.577Q13.1805-19.3314 14.8857-14.418L21.2708-17.0708Q19.8013-21.3165 19.0006-25.9029Q18.1999-30.4893 18.1999-35.2539ZM49.4827-85.4408L46.8483-91.6458Q37.2879-87.0377 29.6928-79.4426Q22.0978-71.8475 17.4896-62.2719L23.7923-59.6191Q27.8343-68.029 34.4704-74.6819Q41.1064-81.3347 49.4827-85.4408ZM73.8968-91.0324Q78.7102-91.0324 83.2809-90.2412Q87.8517-89.4501 92.1471-87.9616L94.7479-94.2986Q89.8682-96.0526 84.6226-97.0032Q79.377-97.9538 73.8968-97.9538Q68.4647-97.9538 63.2023-97.0032Q57.9399-96.0526 53.0266-94.2986L55.7098-87.9616Q59.9899-89.4653 64.5607-90.2489Q69.1315-91.0324 73.8968-91.0324ZM124.084-59.6527L130.386-62.2719Q125.744-71.9109 118.124-79.5063Q110.505-87.1017 100.93-91.7435L98.2956-85.4408Q106.72-81.3347 113.348-74.7231Q119.977-68.1114 124.084-59.6527ZM129.709-35.2539Q129.709-30.4893 128.918-25.8862Q128.127-21.283 126.672-17.0372L132.975-14.3845Q134.729-19.297 135.68-24.5598Q136.63-29.8225 136.63-35.2539Q136.63-40.7341 135.68-45.9648Q134.729-51.1955 132.975-56.1081L126.702-53.4401Q128.157-49.2096 128.933-44.6384Q129.709-40.0673 129.709-35.2539ZM98.2956 14.8842L100.93 21.1868Q110.523 16.5451 118.143 8.95729Q125.763 1.36948 130.322-8.20541L124.117-10.8398Q120.01-2.42996 113.382 4.19083Q106.754 10.8116 98.2956 14.8842ZM73.9304 20.5101Q69.1315 20.5101 64.5607 19.7338Q59.9899 18.9575 55.7098 17.4049L53.0609 23.7755Q57.9735 25.4959 63.2359 26.4465Q68.4982 27.3972 73.9304 27.3972Q79.4106 27.3972 84.6241 26.4709Q89.8376 25.5447 94.751 23.8091L92.0677 17.5026Q87.7884 18.9575 83.234 19.7338Q78.6797 20.5101 73.9304 20.5101ZM23.8258-10.8398L17.5041-8.20541Q22.1619 1.36948 29.7325 8.95729Q37.3032 16.5451 46.9124 21.1685L49.5125 14.8506Q41.1064 10.7933 34.4948 4.16489Q27.8831-2.46353 23.8258-10.8398Z"/>
  </g>
  <g id="Thin-L" transform="matrix(1 0 0 1 783.689 1556)">
   <path d="M15.2779-35.2539Q15.2779-40.4274 16.1438-45.322Q17.0097-50.2167 18.7286-54.7829L15.0276-56.3652Q13.2263-51.4259 12.2528-46.1201Q11.2793-40.8142 11.2793-35.2539Q11.2793-29.7424 12.2597-24.4366Q13.2401-19.1307 15.0055-14.1777L18.7286-15.6898Q17.0586-20.256 16.1682-25.1926Q15.2779-30.1292 15.2779-35.2539ZM48.2811-87.3024L46.7484-90.8653Q37.0079-86.2968 29.3125-78.6015Q21.6171-70.9061 17.0486-61.1313L20.7092-59.6191Q24.9321-68.6897 32.0786-75.8427Q39.225-82.9956 48.2811-87.3024ZM72.6952-92.7345Q77.8694-92.7345 82.7705-91.8331Q87.6717-90.9317 92.2874-89.283L93.8065-92.9573Q88.8672-94.7716 83.5617-95.752Q78.2562-96.7323 72.6952-96.7323Q67.1837-96.7323 61.8713-95.752Q56.559-94.7716 51.6052-92.9573L53.1876-89.283Q57.7675-90.9668 62.669-91.8507Q67.5705-92.7345 72.6952-92.7345ZM124.744-59.6329L128.404-61.1313Q123.823-70.99 116.103-78.6854Q108.383-86.3808 98.6076-90.963L97.0741-87.3024Q106.18-82.9956 113.309-75.8739Q120.438-68.7523 124.744-59.6329ZM130.19-35.2539Q130.19-30.1292 129.288-25.1858Q128.387-20.2423 126.752-15.6761L130.412-14.164Q132.227-19.117 133.207-24.4297Q134.187-29.7424 134.187-35.2539Q134.187-40.8142 133.207-46.085Q132.227-51.3557 130.412-56.3087L126.822-54.7615Q128.457-50.2304 129.323-45.3289Q130.19-40.4274 130.19-35.2539ZM97.0741 16.7458L98.6076 20.4063Q108.362 15.8241 116.081 8.14629Q123.801 0.468445 128.32-9.30634L124.758-10.8398Q120.451-1.76926 113.322 5.34172Q106.194 12.4527 97.0741 16.7458ZM72.7089 22.1916Q67.5705 22.1916 62.669 21.3253Q57.7675 20.459 53.1876 18.7263L51.619 22.4144Q56.5727 24.2149 61.8851 25.1953Q67.1974 26.1757 72.7089 26.1757Q78.27 26.1757 83.5335 25.2197Q88.797 24.2638 93.75 22.4281L92.1677 18.824Q87.5877 20.459 82.6935 21.3253Q77.7992 22.1916 72.7089 22.1916ZM20.723-10.8398L17.0837-9.30634Q21.701 0.468445 29.372 8.14629Q37.043 15.8241 46.8323 20.4277L48.3513 16.732Q39.225 12.4748 32.103 5.34592Q24.9809-1.78299 20.723-10.8398Z"/>
  </g>
  <g id="Ultralight-L" transform="matrix(1 0 0 1 487.603 1556)">
   <path d="M13.7802-35.2539Q13.7802-40.612 14.6927-45.681Q15.6052-50.75 17.4263-55.4802L15.1093-56.4987Q13.2675-51.5282 12.2734-46.1918Q11.2793-40.8554 11.2793-35.2539Q11.2793-29.7012 12.2753-24.3649Q13.2713-19.0285 15.0673-14.0549L17.4263-14.9818Q15.654-19.7121 14.7171-24.8283Q13.7802-29.9446 13.7802-35.2539ZM47.6662-88.2561L46.6965-90.4655Q36.8645-85.9177 29.118-78.1712Q21.3715-70.4247 16.8236-60.5461L19.1299-59.6191Q23.4451-69.0277 30.8529-76.4374Q38.2607-83.847 47.6662-88.2561ZM72.0802-93.6058Q77.4384-93.6058 82.5089-92.6479Q87.5793-91.6901 92.3592-89.9597L93.325-92.2699Q88.3545-94.1154 83.0181-95.1111Q77.6817-96.1067 72.0802-96.1067Q66.5276-96.1067 61.1893-95.1111Q55.851-94.1154 50.8774-92.2699L51.8959-89.9597Q56.6292-91.7358 61.6997-92.6708Q66.7702-93.6058 72.0802-93.6058ZM125.082-59.6222L127.39-60.5461Q122.838-70.5185 115.067-78.265Q107.296-86.0115 97.4182-90.5632L96.4485-88.2561Q105.903-83.847 113.288-76.4637Q120.673-69.0804 125.082-59.6222ZM130.435-35.2539Q130.435-29.9446 129.478-24.8268Q128.52-19.709 126.793-14.9788L129.1-14.0511Q130.945-19.0247 131.941-24.3629Q132.937-29.7012 132.937-35.2539Q132.937-40.8554 131.941-46.1464Q130.945-51.4374 129.1-56.411L126.884-55.4382Q128.611-50.7538 129.523-45.6829Q130.435-40.612 130.435-35.2539ZM96.4485 17.6994L97.4182 20.0066Q107.254 15.4549 115.025 7.73125Q122.796 0.00762939 127.295-9.87091L125.086-10.8398Q120.676-1.43127 113.291 5.93147Q105.906 13.2942 96.4485 17.6994ZM72.0833 23.053Q66.7702 23.053 61.6997 22.1405Q56.6292 21.228 51.8959 19.4031L50.8812 21.7171Q55.8548 23.5588 61.1927 24.5544Q66.5306 25.5501 72.0833 25.5501Q77.6848 25.5501 82.9742 24.5789Q88.2637 23.6076 93.2373 21.7201L92.2195 19.5007Q87.4855 21.228 82.4165 22.1405Q77.3476 23.053 72.0833 23.053ZM19.133-10.8398L16.8686-9.87091Q21.4653 0.00762939 29.1874 7.73125Q36.9095 15.4549 46.7911 20.0485L47.757 17.6964Q38.2607 13.3362 30.8773 5.95093Q23.494-1.43433 19.133-10.8398Z"/>
  </g>
  <g id="Black-M" transform="matrix(1 0 0 1 2871.32 1126)">
   <path d="M26.123-35.2539Q26.123-37.6953 26.4404-40.0635Q26.7578-42.4316 27.3438-44.6777L11.2305-51.3672Q10.0098-47.5586 9.375-43.5059Q8.74023-39.4531 8.74023-35.2539Q8.74023-31.0547 9.375-27.0264Q10.0098-22.998 11.2305-19.1406L27.3438-25.8789Q26.7578-28.125 26.4404-30.4688Q26.123-32.8125 26.123-35.2539ZM44.1895-66.5039L37.5-82.6172Q30.2246-78.7598 24.3896-72.9248Q18.5547-67.0898 14.7461-59.8145L30.8594-53.125Q33.252-57.3242 36.6455-60.7178Q40.0391-64.1113 44.1895-66.5039ZM62.0605-71.1914Q64.502-71.1914 66.8701-70.874Q69.2383-70.5566 71.4844-69.9707L78.1738-86.084Q74.3652-87.3047 70.3125-87.9395Q66.2598-88.5742 62.0605-88.5742Q57.8613-88.5742 53.833-87.9395Q49.8047-87.3047 45.9473-86.084L52.6855-69.9707Q54.9316-70.5566 57.2754-70.874Q59.6191-71.1914 62.0605-71.1914ZM93.3105-53.125L109.424-59.8145Q105.566-67.0898 99.7314-72.9248Q93.8965-78.7598 86.6211-82.6172L79.9316-66.5039Q84.1309-64.1113 87.5244-60.7178Q90.918-57.3242 93.3105-53.125ZM98.0469-35.2539Q98.0469-32.8125 97.7051-30.4688Q97.3633-28.125 96.7773-25.8789L112.891-19.1406Q114.111-22.9492 114.771-27.002Q115.43-31.0547 115.43-35.2539Q115.43-39.4531 114.771-43.5059Q114.111-47.5586 112.891-51.3672L96.7773-44.6777Q97.3633-42.4316 97.7051-40.0635Q98.0469-37.6953 98.0469-35.2539ZM79.9316-4.05273L86.6211 12.0605Q93.9453 8.25195 99.7803 2.41699Q105.615-3.41797 109.424-10.6934L93.3105-17.3828Q90.918-13.2324 87.5244-9.81445Q84.1309-6.39648 79.9316-4.05273ZM62.0605 0.683594Q59.6191 0.683594 57.2754 0.366211Q54.9316 0.0488281 52.6855-0.537109L45.9473 15.5762Q49.8047 16.7969 53.833 17.4316Q57.8613 18.0664 62.0605 18.0664Q66.2598 18.0664 70.3125 17.4316Q74.3652 16.7969 78.1738 15.5762L71.4844-0.537109Q69.2383 0.0488281 66.8701 0.366211Q64.502 0.683594 62.0605 0.683594ZM30.8594-17.3828L14.7461-10.6934Q18.5547-3.41797 24.3896 2.41699Q30.2246 8.25195 37.5 12.0605L44.1895-4.05273Q40.0391-6.44531 36.6455-9.83887Q33.252-13.2324 30.8594-17.3828Z"/>
  </g>
  <g id="Heavy-M" transform="matrix(1 0 0 1 2575.44 1126)">
   <path d="M23.9906-35.2539Q23.9906-37.9028 24.3542-40.4667Q24.7177-43.0305 25.3845-45.4498L11.2648-51.3214Q10.0327-47.5243 9.38644-43.483Q8.74023-39.4417 8.74023-35.2539Q8.74023-31.0661 9.39217-27.0435Q10.0441-23.0209 11.2762-19.1864L25.3845-25.0954Q24.7177-27.5139 24.3542-30.0594Q23.9906-32.605 23.9906-35.2539ZM43.0946-67.8635L37.2467-81.9489Q29.9713-78.1372 24.1535-72.3198Q18.3357-66.5024 14.5615-59.227L28.6697-53.3669Q31.189-57.9468 34.8705-61.6341Q38.5521-65.3214 43.0946-67.8635ZM61.219-72.5052Q63.868-72.5052 66.4379-72.1416Q69.0079-71.7781 71.4386-71.0999L77.2865-85.2081Q73.4894-86.4517 69.4481-87.0979Q65.4068-87.7441 61.219-87.7441Q57.0312-87.7441 53.0029-87.0979Q48.9746-86.4517 45.1408-85.2081L51.049-71.0999Q53.4683-71.7781 56.0192-72.1416Q58.5701-72.5052 61.219-72.5052ZM93.8293-53.3783L107.925-59.227Q104.115-66.5024 98.2853-72.3255Q92.4561-78.1487 85.1921-81.9603L79.3442-67.8635Q83.9233-65.3328 87.6106-61.6512Q91.2979-57.9697 93.8293-53.3783ZM98.5191-35.2539Q98.5191-32.605 98.1373-30.0537Q97.7554-27.5024 97.0886-25.0839L111.185-19.175Q112.429-22.9721 113.094-27.0191Q113.759-31.0661 113.759-35.2539Q113.759-39.4417 113.094-43.4887Q112.429-47.5357 111.185-51.3329L97.0772-45.4613Q97.7554-43.0428 98.1373-40.4728Q98.5191-37.9028 98.5191-35.2539ZM79.3442-2.69318L85.1921 11.4151Q92.5049 7.64084 98.3284 1.8177Q104.152-4.00543 107.914-11.2808L93.8408-17.1295Q91.3101-12.587 87.6167-8.881Q83.9233-5.17502 79.3442-2.69318ZM61.2305 1.99738Q58.5701 1.99738 56.0192 1.63383Q53.4683 1.27029 51.049 0.592041L45.1523 14.7003Q48.9868 15.9325 53.0151 16.5844Q57.0435 17.2363 61.2305 17.2363Q65.4182 17.2363 69.4538 16.5901Q73.4894 15.9439 77.2865 14.7118L71.4264 0.603485Q68.9964 1.27029 66.4379 1.63383Q63.8794 1.99738 61.2305 1.99738ZM28.6697-17.1295L14.5729-11.2808Q18.3472-4.00543 24.165 1.81198Q29.9828 7.62939 37.2467 11.4037L43.0946-2.70462Q38.5521-5.22385 34.8705-8.90541Q31.189-12.587 28.6697-17.1295Z"/>
  </g>
  <g id="Bold-M" transform="matrix(1 0 0 1 2279.66 1126)">
   <path d="M21.6064-35.2539Q21.6064-38.1348 22.0215-40.918Q22.4365-43.7012 23.1934-46.3135L11.3037-51.2695Q10.0586-47.4854 9.39941-43.457Q8.74023-39.4287 8.74023-35.2539Q8.74023-31.0791 9.41162-27.063Q10.083-23.0469 11.3281-19.2383L23.1934-24.2188Q22.4365-26.8311 22.0215-29.6021Q21.6064-32.373 21.6064-35.2539ZM41.8701-69.3848L36.9629-81.2012Q29.6875-77.4414 23.8892-71.6431Q18.0908-65.8447 14.3555-58.5693L26.2207-53.6377Q28.8818-58.6426 32.8857-62.6587Q36.8896-66.6748 41.8701-69.3848ZM60.2783-73.9746Q63.1592-73.9746 65.9546-73.5596Q68.75-73.1445 71.3867-72.3633L76.2939-84.2285Q72.5098-85.498 68.4814-86.1572Q64.4531-86.8164 60.2783-86.8164Q56.1035-86.8164 52.0752-86.1572Q48.0469-85.498 44.2383-84.2285L49.2188-72.3633Q51.8311-73.1445 54.6143-73.5596Q57.3975-73.9746 60.2783-73.9746ZM94.4092-53.6621L106.25-58.5693Q102.49-65.8447 96.6675-71.6553Q90.8447-77.4658 83.5938-81.2256L78.6865-69.3848Q83.6914-66.6992 87.7075-62.6953Q91.7236-58.6914 94.4092-53.6621ZM99.0479-35.2539Q99.0479-32.373 98.6206-29.5898Q98.1934-26.8066 97.4365-24.1943L109.277-19.2139Q110.547-22.998 111.218-27.0386Q111.89-31.0791 111.89-35.2539Q111.89-39.4287 111.218-43.4692Q110.547-47.5098 109.277-51.2939L97.4121-46.3379Q98.1934-43.7256 98.6206-40.9302Q99.0479-38.1348 99.0479-35.2539ZM78.6865-1.17188L83.5938 10.6934Q90.8936 6.95801 96.7041 1.14746Q102.515-4.66309 106.226-11.9385L94.4336-16.8457Q91.748-11.8652 87.7197-7.83691Q83.6914-3.80859 78.6865-1.17188ZM60.3027 3.4668Q57.3975 3.4668 54.6143 3.05176Q51.8311 2.63672 49.2188 1.85547L44.2627 13.7207Q48.0713 14.9658 52.0996 15.6372Q56.1279 16.3086 60.3027 16.3086Q64.4775 16.3086 68.4937 15.6494Q72.5098 14.9902 76.2939 13.7451L71.3623 1.87988Q68.7256 2.63672 65.9546 3.05176Q63.1836 3.4668 60.3027 3.4668ZM26.2207-16.8457L14.3799-11.9385Q18.1152-4.66309 23.9136 1.13525Q29.7119 6.93359 36.9629 10.6689L41.8701-1.19629Q36.8896-3.85742 32.8857-7.86133Q28.8818-11.8652 26.2207-16.8457Z"/>
  </g>
  <g id="Semibold-M" transform="matrix(1 0 0 1 1983.6 1126)">
   <path d="M19.9623-35.2539Q19.9623-38.295 20.4128-41.2292Q20.8633-44.1635 21.6827-46.9086L11.3304-51.2337Q10.0761-47.4586 9.40819-43.4391Q8.74023-39.4196 8.74023-35.2539Q8.74023-31.0883 9.42497-27.0763Q10.1097-23.0644 11.364-19.2741L21.6827-23.6145Q20.8633-26.3603 20.4128-29.2866Q19.9623-32.2128 19.9623-35.2539ZM41.0255-70.4338L36.7676-80.6854Q29.4922-76.9615 23.7072-71.1765Q17.9222-65.3915 14.2136-58.1161L24.5323-53.8246Q27.2911-59.1225 31.517-63.3652Q35.743-67.6079 41.0255-70.4338ZM59.6298-74.9878Q62.6701-74.9878 65.6212-74.5373Q68.5722-74.0868 71.3509-73.2346L75.6096-83.5533Q71.8346-84.8404 67.815-85.5083Q63.7955-86.1763 59.6298-86.1763Q55.4634-86.1763 51.4351-85.5083Q47.4068-84.8404 43.6165-83.5533L47.9568-73.2346Q50.7027-74.0868 53.6457-74.5373Q56.5887-74.9878 59.6298-74.9878ZM94.809-53.8574L105.095-58.1161Q101.37-65.3915 95.5521-71.1933Q89.7339-76.9951 82.4921-80.719L78.2333-70.4338Q83.5312-67.6414 87.7739-63.4151Q92.0166-59.1888 94.809-53.8574ZM99.4125-35.2539Q99.4125-32.2128 98.954-29.2698Q98.4955-26.3268 97.6768-23.5809L107.962-19.2406Q109.249-23.0156 109.925-27.0519Q110.601-31.0883 110.601-35.2539Q110.601-39.4196 109.925-43.4559Q109.249-47.4922 107.962-51.2672L97.6433-46.9421Q98.4955-44.1963 98.954-41.2457Q99.4125-38.295 99.4125-35.2539ZM78.2333-0.122833L82.4921 10.1959Q89.7827 6.48727 95.5845 0.685501Q101.386-5.11627 105.061-12.3917L94.8425-16.6504Q92.0502-11.3678 87.7907-7.11708Q83.5312-2.86636 78.2333-0.122833ZM59.6626 4.47998Q56.5887 4.47998 53.6457 4.02946Q50.7027 3.57895 47.9568 2.72675L43.6493 13.0455Q47.4403 14.299 51.4687 14.9837Q55.497 15.6685 59.6626 15.6685Q63.829 15.6685 67.8318 15.0005Q71.8346 14.3326 75.6096 13.0783L71.3181 2.75955Q68.5387 3.57895 65.6212 4.02946Q62.7037 4.47998 59.6626 4.47998ZM24.5323-16.6504L14.2464-12.3917Q17.955-5.11627 23.74 0.668716Q29.525 6.4537 36.7676 10.1624L41.0255-0.156403Q35.743-2.91519 31.517-7.14149Q27.2911-11.3678 24.5323-16.6504Z"/>
  </g>
  <g id="Medium-M" transform="matrix(1 0 0 1 1687.37 1126)">
   <path d="M18.7157-35.2539Q18.7157-38.4163 19.1933-41.465Q19.6709-44.5137 20.5368-47.3602L11.3503-51.207Q10.0899-47.4388 9.41505-43.4261Q8.74023-39.4135 8.74023-35.2539Q8.74023-31.0944 9.43489-27.0863Q10.1295-23.0782 11.3907-19.3008L20.5368-23.156Q19.6709-26.0033 19.1933-29.0474Q18.7157-32.0915 18.7157-35.2539ZM40.3854-71.2288L36.6188-80.2948Q29.3434-76.5976 23.5687-70.8229Q17.794-65.0482 14.1052-57.7728L23.2521-53.9658Q26.0849-59.4864 30.4794-63.9008Q34.874-68.3151 40.3854-71.2288ZM59.1377-75.7561Q62.3001-75.7561 65.3687-75.2785Q68.4372-74.8009 71.3242-73.8945L75.0908-83.0406Q71.3219-84.3414 67.3092-85.0163Q63.2965-85.6911 59.1377-85.6911Q54.9782-85.6911 50.9499-85.0163Q46.9215-84.3414 43.1442-83.0406L47.0001-73.8945Q49.8466-74.8009 52.911-75.2785Q55.9753-75.7561 59.1377-75.7561ZM95.1126-54.0062L104.219-57.7728Q100.521-65.0482 94.7063-70.8431Q88.8916-76.638 81.6559-80.3352L77.89-71.2288Q83.4099-68.3556 87.8246-63.961Q92.2394-59.5665 95.1126-54.0062ZM99.6887-35.2539Q99.6887-32.0915 99.2065-29.0272Q98.7244-25.9628 97.8584-23.1163L106.965-19.2604Q108.266-23.0293 108.945-27.0618Q109.624-31.0944 109.624-35.2539Q109.624-39.4135 108.945-43.446Q108.266-47.4785 106.965-51.2474L97.818-47.4007Q98.7244-44.5534 99.2065-41.4848Q99.6887-38.4163 99.6887-35.2539ZM77.89 0.67215L81.6559 9.81827Q88.9404 6.13022 94.7353 0.33493Q100.53-5.46036 104.179-12.7357L95.1523-16.5016Q92.2791-10.9901 87.8445-6.5712Q83.4099-2.15225 77.89 0.67215ZM59.1774 5.24826Q55.9753 5.24826 52.911 4.77066Q49.8466 4.29306 47.0001 3.38669L43.1847 12.5328Q46.962 13.7939 50.9903 14.4886Q55.0186 15.1833 59.1774 15.1833Q63.3369 15.1833 67.3294 14.5084Q71.3219 13.8336 75.0908 12.5732L71.2845 3.42712Q68.3975 4.29306 65.3687 4.77066Q62.3398 5.24826 59.1774 5.24826ZM23.2521-16.5016L14.1457-12.7357Q17.8337-5.46036 23.6088 0.314713Q29.3839 6.08978 36.6188 9.77859L40.3854 0.631714Q34.874-2.20108 30.4794-6.59561Q26.0849-10.9901 23.2521-16.5016Z"/>
  </g>
  <g id="Regular-M" transform="matrix(1 0 0 1 1391.3 1126)">
   <path d="M17.0898-35.2539Q17.0898-38.5742 17.6025-41.7725Q18.1152-44.9707 19.043-47.9492L11.377-51.1719Q10.1074-47.4121 9.42383-43.4082Q8.74023-39.4043 8.74023-35.2539Q8.74023-31.1035 9.44824-27.0996Q10.1562-23.0957 11.4258-19.3359L19.043-22.5586Q18.1152-25.5371 17.6025-28.7354Q17.0898-31.9336 17.0898-35.2539ZM39.5508-72.2656L36.4258-79.7852Q29.1504-76.123 23.3887-70.3613Q17.627-64.5996 13.9648-57.3242L21.582-54.1504Q24.5117-59.9609 29.126-64.5996Q33.7402-69.2383 39.5508-72.2656ZM58.4961-76.7578Q61.8164-76.7578 65.0391-76.2451Q68.2617-75.7324 71.2891-74.7559L74.4141-82.373Q70.6543-83.6914 66.6504-84.375Q62.6465-85.0586 58.4961-85.0586Q54.3457-85.0586 50.3174-84.375Q46.2891-83.6914 42.5293-82.373L45.752-74.7559Q48.7305-75.7324 51.9531-76.2451Q55.1758-76.7578 58.4961-76.7578ZM95.5078-54.1992L103.076-57.3242Q99.4141-64.5996 93.6035-70.3857Q87.793-76.1719 80.5664-79.834L77.4414-72.2656Q83.252-69.2871 87.8906-64.6729Q92.5293-60.0586 95.5078-54.1992ZM100.049-35.2539Q100.049-31.9336 99.5361-28.7109Q99.0234-25.4883 98.0957-22.5098L105.664-19.2871Q106.982-23.0469 107.666-27.0752Q108.35-31.1035 108.35-35.2539Q108.35-39.4043 107.666-43.4326Q106.982-47.4609 105.664-51.2207L98.0469-47.998Q99.0234-45.0195 99.5361-41.7969Q100.049-38.5742 100.049-35.2539ZM77.4414 1.70898L80.5664 9.32617Q87.8418 5.66406 93.6279-0.12207Q99.4141-5.9082 103.027-13.1836L95.5566-16.3086Q92.5781-10.498 87.915-5.85938Q83.252-1.2207 77.4414 1.70898ZM58.5449 6.25Q55.1758 6.25 51.9531 5.7373Q48.7305 5.22461 45.752 4.24805L42.5781 11.8652Q46.3379 13.1348 50.3662 13.8428Q54.3945 14.5508 58.5449 14.5508Q62.6953 14.5508 66.6748 13.8672Q70.6543 13.1836 74.4141 11.9141L71.2402 4.29688Q68.2129 5.22461 65.0391 5.7373Q61.8652 6.25 58.5449 6.25ZM21.582-16.3086L14.0137-13.1836Q17.6758-5.9082 23.4375-0.146484Q29.1992 5.61523 36.4258 9.27734L39.5508 1.66016Q33.7402-1.26953 29.126-5.88379Q24.5117-10.498 21.582-16.3086Z"/>
  </g>
  <g id="Light-M" transform="matrix(1 0 0 1 1095.41 1126)">
   <path d="M15.107-35.2539Q15.107-38.8313 15.6803-42.2565Q16.2537-45.6818 17.3172-48.8724L11.483-51.3382Q10.1677-47.5487 9.45396-43.4994Q8.74023-39.4501 8.74023-35.2539Q8.74023-31.0577 9.47113-27.0084Q10.202-22.9591 11.5013-19.1696L17.3172-21.6202Q16.2689-24.8108 15.6879-28.2436Q15.107-31.6765 15.107-35.2539ZM38.7337-73.5222L36.3655-79.2557Q28.9688-75.6233 23.1316-69.7861Q17.2943-63.9488 13.6772-56.5674L19.4931-54.1504Q22.5441-60.4149 27.5063-65.3942Q32.4684-70.3735 38.7337-73.5222ZM57.679-77.9083Q61.2564-77.9083 64.6984-77.3273Q68.1404-76.7464 71.3799-75.6493L73.7633-81.4651Q69.973-82.8133 65.9313-83.5197Q61.8896-84.2262 57.679-84.2262Q53.4828-84.2262 49.4167-83.5197Q45.3506-82.8133 41.5756-81.4651L44.0414-75.6493Q47.2321-76.7616 50.6741-77.335Q54.1161-77.9083 57.679-77.9083ZM95.9465-54.184L101.729-56.5674Q98.1125-63.9641 92.2337-69.8181Q86.3548-75.6721 78.9925-79.3045L76.609-73.5222Q82.8888-70.4071 87.8605-65.4522Q92.8322-60.4973 95.9465-54.184ZM100.367-35.2539Q100.367-31.6765 99.786-28.2269Q99.205-24.7772 98.1415-21.5866L103.923-19.1505Q105.272-22.9256 105.986-26.9917Q106.699-31.0577 106.699-35.2539Q106.699-39.4501 105.986-43.5085Q105.272-47.567 103.923-51.342L98.1377-48.9059Q99.2203-45.7161 99.7936-42.2737Q100.367-38.8313 100.367-35.2539ZM76.609 2.9808L78.9925 8.79669Q86.3884 5.16434 92.2428-0.689697Q98.0972-6.54373 101.68-13.9252L95.9808-16.3086Q92.8658-10.0441 87.8773-5.0724Q82.8888-0.100708 76.609 2.9808ZM57.7126 7.38525Q54.1161 7.38525 50.6741 6.8119Q47.2321 6.23856 44.0414 5.14145L41.6092 10.9573Q45.3842 12.2719 49.4503 12.9951Q53.5164 13.7184 57.7126 13.7184Q61.9232 13.7184 65.9405 13.0196Q69.9577 12.3207 73.748 10.9909L71.3005 5.19028Q68.0916 6.25381 64.6832 6.81953Q61.2747 7.38525 57.7126 7.38525ZM19.4778-16.3086L13.726-13.9252Q17.3576-6.54373 23.1876-0.706482Q29.0176 5.13077 36.38 8.76236L38.7634 2.94647Q32.4837-0.134277 27.5215-5.08919Q22.5594-10.0441 19.4778-16.3086Z"/>
  </g>
  <g id="Thin-M" transform="matrix(1 0 0 1 799.793 1126)">
   <path d="M12.4847-35.2539Q12.4847-39.1716 13.1378-42.8974Q13.7909-46.6232 15.0352-50.0938L11.6234-51.5587Q10.2478-47.7287 9.49402-43.6192Q8.74023-39.5096 8.74023-35.2539Q8.74023-30.9982 9.50089-26.8887Q10.2615-22.7791 11.6013-18.9491L15.0352-20.3789Q13.826-23.8495 13.1554-27.5928Q12.4847-31.3362 12.4847-35.2539ZM37.6526-75.1831L36.2854-78.5545Q28.7285-74.9626 22.7909-69.0254Q16.8533-63.0882 13.2973-55.5664L16.7305-54.1504Q19.9417-61.0153 25.3643-66.4452Q30.7869-71.875 37.6526-75.1831ZM56.5979-79.4296Q60.5156-79.4296 64.2479-78.7586Q67.9802-78.0876 71.4996-76.8303L72.9027-80.2635Q69.072-81.6521 64.9803-82.3887Q60.8887-83.1253 56.5979-83.1253Q52.3422-83.1253 48.2258-82.3887Q44.1093-81.6521 40.3145-80.2635L41.7793-76.8303Q45.2499-78.1227 48.9826-78.7762Q52.7153-79.4296 56.5979-79.4296ZM96.5271-54.1641L99.9474-55.5664Q96.3905-63.1233 90.4221-69.0674Q84.4536-75.0114 76.9104-78.6034L75.5081-75.1831Q82.4081-71.8887 87.8204-66.4833Q93.2327-61.0779 96.5271-54.1641ZM100.787-35.2539Q100.787-31.3362 100.116-27.586Q99.4453-23.8358 98.201-20.3651L101.621-18.9705Q103.01-22.7654 103.764-26.8818Q104.517-30.9982 104.517-35.2539Q104.517-39.5096 103.764-43.6085Q103.01-47.7074 101.621-51.5022L98.2574-50.1076Q99.4804-46.637 100.134-42.9043Q100.787-39.1716 100.787-35.2539ZM75.5081 4.66232L76.9104 8.09555Q84.4673 4.50363 90.4114-1.44043Q96.3554-7.38449 99.8985-14.9063L96.5408-16.3086Q93.2457-9.44366 87.8269-4.03137Q82.4081 1.38092 75.5081 4.66232ZM56.6116 8.88672Q52.7153 8.88672 48.9826 8.23326Q45.2499 7.5798 41.7793 6.32248L40.3282 9.75571Q44.1231 11.1313 48.2391 11.8744Q52.3552 12.6175 56.6116 12.6175Q60.9024 12.6175 64.9696 11.8988Q69.0369 11.1801 72.8676 9.76944L71.3806 6.37131Q67.9314 7.6149 64.2128 8.25081Q60.4942 8.88672 56.6116 8.88672ZM16.6954-16.3086L13.3461-14.9063Q16.9373-7.38449 22.8573-1.44691Q28.7773 4.49066 36.3205 8.08182L37.7228 4.64859Q30.8228 1.36719 25.3998-4.03824Q19.9768-9.44366 16.6954-16.3086Z"/>
  </g>
  <g id="Ultralight-M" transform="matrix(1 0 0 1 503.641 1126)">
   <path d="M11.1412-35.2539Q11.1412-39.3463 11.8355-43.2255Q12.5298-47.1046 13.8664-50.7195L11.6951-51.6716Q10.289-47.821 9.51462-43.681Q8.74023-39.5409 8.74023-35.2539Q8.74023-30.9669 9.51653-26.8269Q10.2928-22.6868 11.6531-18.8362L13.8664-19.7433Q12.5755-23.3574 11.8584-27.2594Q11.1412-31.1615 11.1412-35.2539ZM37.0987-76.0345L36.2442-78.196Q28.6057-74.6246 22.617-68.6359Q16.6283-62.6472 13.102-55.0537L15.3152-54.1504Q18.6081-61.3235 24.2668-66.9838Q29.9255-72.644 37.0987-76.0345ZM56.044-80.2086Q60.1364-80.2086 64.0175-79.4918Q67.8986-78.775 71.5614-77.4353L72.4617-79.6486Q68.6111-81.0577 64.4936-81.8092Q60.376-82.5607 56.044-82.5607Q51.757-82.5607 47.6154-81.8092Q43.4738-81.0577 39.6683-79.6486L40.6204-77.4353Q44.2352-78.82 48.1163-79.5143Q51.9974-80.2086 56.044-80.2086ZM96.8246-54.1534L99.0349-55.0537Q95.5086-62.6923 89.4939-68.6829Q83.4793-74.6735 75.8438-78.2448L74.9435-76.0345Q82.1625-72.6471 87.7998-67.0113Q93.4372-61.3754 96.8246-54.1534ZM101.003-35.2539Q101.003-31.1615 100.285-27.2579Q99.5682-23.3543 98.2323-19.7395L100.442-18.8782Q101.851-22.6837 102.625-26.8253Q103.4-30.9669 103.4-35.2539Q103.4-39.5409 102.625-43.66Q101.851-47.7791 100.442-51.5839L98.3192-50.7225Q99.614-47.1085 100.308-43.2274Q101.003-39.3463 101.003-35.2539ZM74.9435 5.52368L75.8438 7.73697Q83.4824 4.16565 89.473-1.82495Q95.4636-7.81555 98.9861-15.4083L96.8285-16.3086Q93.441-9.13544 87.8017-3.49808Q82.1625 2.13928 74.9435 5.52368ZM56.0471 9.65576Q51.9974 9.65576 48.1163 8.96149Q44.2352 8.26721 40.6204 6.92749L39.6721 9.14078Q43.4769 10.5461 47.6189 11.2995Q51.7609 12.0529 56.0471 12.0529Q60.3798 12.0529 64.4726 11.3239Q68.5654 10.5949 72.4159 9.14383L71.4218 6.97632Q67.8497 8.31223 63.9721 8.98399Q60.0945 9.65576 56.0471 9.65576ZM15.2702-16.3086L13.1508-15.4083Q16.7221-7.81555 22.6883-1.82686Q28.6545 4.16183 36.2892 7.73315L37.1895 5.51987Q29.9713 2.13623 24.3126-3.4996Q18.6539-9.13544 15.2702-16.3086Z"/>
  </g>
  <g id="Black-S" transform="matrix(1 0 0 1 2884.57 696)">
   <path d="M20.9961-35.2539Q20.9961-38.8184 21.9238-42.4316L8.78906-47.9004Q7.86133-44.9219 7.34863-41.748Q6.83594-38.5742 6.83594-35.2539Q6.83594-31.9824 7.34863-28.8086Q7.86133-25.6348 8.78906-22.6074L21.9238-28.0762Q21.4844-29.7852 21.2402-31.5918Q20.9961-33.3984 20.9961-35.2539ZM34.9121-59.375L29.4434-72.5098Q23.7305-69.5312 19.165-64.9414Q14.5996-60.3516 11.5723-54.6387L24.707-49.1699Q26.5625-52.3438 29.1504-54.9561Q31.7383-57.5684 34.9121-59.375ZM48.8281-63.0859Q50.6836-63.0859 52.4902-62.8418Q54.2969-62.5977 56.0059-62.1582L61.4746-75.293Q58.4961-76.2695 55.3223-76.7578Q52.1484-77.2461 48.8281-77.2461Q45.5566-77.2461 42.3828-76.7578Q39.209-76.2695 36.1816-75.293L41.6504-62.1582Q45.2637-63.0859 48.8281-63.0859ZM72.9492-49.1699L86.084-54.6387Q83.1055-60.3516 78.5156-64.9414Q73.9258-69.5312 68.2129-72.5098L62.7441-59.375Q69.2383-55.6641 72.9492-49.1699ZM76.6602-35.2539Q76.6602-33.3984 76.416-31.5918Q76.1719-29.7852 75.7324-28.0762L88.8672-22.6074Q89.8438-25.6348 90.332-28.8086Q90.8203-31.9824 90.8203-35.2539Q90.8203-38.5742 90.332-41.748Q89.8438-44.9219 88.8672-47.9004L75.7324-42.4316Q76.6602-38.8184 76.6602-35.2539ZM62.7441-11.1328L68.2129 2.00195Q73.9258-1.02539 78.5156-5.59082Q83.1055-10.1562 86.084-15.8691L72.9492-21.3379Q71.1426-18.1641 68.5303-15.5762Q65.918-12.9883 62.7441-11.1328ZM48.8281-7.42188Q45.2637-7.42188 41.6504-8.34961L36.1816 4.78516Q39.209 5.71289 42.3828 6.22559Q45.5566 6.73828 48.8281 6.73828Q52.1484 6.73828 55.3223 6.22559Q58.4961 5.71289 61.4746 4.78516L56.0059-8.34961Q52.3926-7.42188 48.8281-7.42188ZM24.707-21.3379L11.5723-15.8691Q14.5996-10.1562 19.165-5.59082Q23.7305-1.02539 29.4434 2.00195L34.9121-11.1328Q28.418-14.8438 24.707-21.3379Z"/>
  </g>
  <g id="Heavy-S" transform="matrix(1 0 0 1 2588.47 696)">
   <path d="M19.429-35.2539Q19.429-39.1296 20.472-42.9848L8.80051-47.8424Q7.87277-44.8639 7.35435-41.7076Q6.83594-38.5513 6.83594-35.2539Q6.83594-31.9939 7.35435-28.8372Q7.87277-25.6805 8.81195-22.6654L20.472-27.523Q19.9745-29.3587 19.7018-31.3038Q19.429-33.2489 19.429-35.2539ZM34.0706-60.3775L29.2358-72.0024Q23.5458-69.059 18.9922-64.492Q14.4386-59.9251 11.4571-54.2351L23.0934-49.3774Q25.0526-52.8275 27.8423-55.6416Q30.632-58.4557 34.0706-60.3775ZM48.2056-64.0656Q50.2113-64.0656 52.1618-63.7867Q54.1122-63.5078 55.9479-63.0112L60.7948-74.659Q57.8278-75.6355 54.6711-76.1353Q51.5144-76.635 48.2056-76.635Q44.9455-76.635 41.7835-76.1353Q38.6215-75.6355 35.6171-74.659L40.4747-63.0112Q44.3184-64.0656 48.2056-64.0656ZM73.3292-49.3889L84.9777-54.2351Q82.0221-59.9251 77.4494-64.492Q72.8767-69.059 67.1875-72.0139L62.3405-60.3775Q69.4115-56.4362 73.3292-49.3889ZM77.0287-35.2539Q77.0287-33.2489 76.7559-31.2981Q76.4832-29.3472 75.9857-27.5116L87.6228-22.6654Q88.6108-25.6691 89.1106-28.8315Q89.6103-31.9939 89.6103-35.2539Q89.6103-38.5513 89.1106-41.7137Q88.6108-44.8761 87.6228-47.8424L75.9743-42.9962Q77.0287-39.1411 77.0287-35.2539ZM62.3405-10.1303L67.1875 1.50604Q72.8889-1.48621 77.4555-6.03447Q82.0221-10.5827 84.9777-16.2727L73.3414-21.1189Q71.431-17.6682 68.6169-14.8731Q65.8028-12.0781 62.3405-10.1303ZM48.217-6.44226Q44.3184-6.44226 40.4747-7.49664L35.6285 4.15115Q38.633 5.09033 41.7953 5.60875Q44.9577 6.12717 48.217 6.12717Q51.5259 6.12717 54.6825 5.61447Q57.8392 5.10178 60.8063 4.1626L55.9479-7.4852Q52.0813-6.44226 48.217-6.44226ZM23.1049-21.1189L11.4571-16.2727Q14.4501-10.5827 18.998-6.03447Q23.5458-1.48621 29.2358 1.4946L34.0706-10.1418Q27.0119-14.0717 23.1049-21.1189Z"/>
  </g>
  <g id="Bold-S" transform="matrix(1 0 0 1 2292.43 696)">
   <path d="M17.6758-35.2539Q17.6758-39.4775 18.8477-43.6035L8.81348-47.7783Q7.88574-44.7998 7.36084-41.6626Q6.83594-38.5254 6.83594-35.2539Q6.83594-32.0068 7.36084-28.8696Q7.88574-25.7324 8.83789-22.7295L18.8477-26.9043Q18.2861-28.8818 17.981-30.9814Q17.6758-33.0811 17.6758-35.2539ZM33.1299-61.499L29.0039-71.4355Q23.3398-68.5303 18.7988-63.9893Q14.2578-59.4482 11.3281-53.7842L21.2891-49.6094Q23.3643-53.3691 26.3794-56.4087Q29.3945-59.4482 33.1299-61.499ZM47.5098-65.1611Q49.6826-65.1611 51.7944-64.8438Q53.9062-64.5264 55.8838-63.9648L60.0342-73.9502Q57.0801-74.9268 53.9429-75.4395Q50.8057-75.9521 47.5098-75.9521Q44.2627-75.9521 41.1133-75.4395Q37.9639-74.9268 34.9854-73.9502L39.1602-63.9648Q43.2617-65.1611 47.5098-65.1611ZM73.7549-49.6338L83.7402-53.7842Q80.8105-59.4482 76.2573-63.9893Q71.7041-68.5303 66.04-71.46L61.8896-61.499Q69.6045-57.2998 73.7549-49.6338ZM77.4414-35.2539Q77.4414-33.0811 77.1362-30.9692Q76.8311-28.8574 76.2695-26.8799L86.2305-22.7295Q87.2314-25.708 87.7441-28.8574Q88.2568-32.0068 88.2568-35.2539Q88.2568-38.5254 87.7441-41.6748Q87.2314-44.8242 86.2305-47.7783L76.2451-43.6279Q77.4414-39.502 77.4414-35.2539ZM61.8896-9.00879L66.04 0.952148Q71.7285-2.00195 76.2695-6.53076Q80.8105-11.0596 83.7402-16.7236L73.7793-20.874Q71.7529-17.1143 68.7134-14.0869Q65.6738-11.0596 61.8896-9.00879ZM47.5342-5.34668Q43.2617-5.34668 39.1602-6.54297L35.0098 3.44238Q37.9883 4.39453 41.1377 4.91943Q44.2871 5.44434 47.5342 5.44434Q50.8301 5.44434 53.9673 4.93164Q57.1045 4.41895 60.0586 3.4668L55.8838-6.51855Q51.7334-5.34668 47.5342-5.34668ZM21.3135-20.874L11.3281-16.7236Q14.2822-11.0596 18.811-6.53076Q23.3398-2.00195 29.0039 0.927734L33.1299-9.0332Q25.4395-13.208 21.3135-20.874Z"/>
  </g>
  <g id="Semibold-S" transform="matrix(1 0 0 1 1996.19 696)">
   <path d="M16.4673-35.2539Q16.4673-39.7179 17.7277-44.03L8.82263-47.7341Q7.8949-44.7556 7.36542-41.6317Q6.83594-38.5078 6.83594-35.2539Q6.83594-32.016 7.36542-28.8921Q7.8949-25.7683 8.85544-22.7737L17.7277-26.4778Q17.1219-28.553 16.7946-30.7594Q16.4673-32.9659 16.4673-35.2539ZM32.4814-62.2719L28.8437-71.0442Q23.1979-68.1656 18.6657-63.6425Q14.1335-59.1194 11.2396-53.4729L20.0447-49.7696Q22.2-53.7422 25.3708-56.9374Q28.5416-60.1326 32.4814-62.2719ZM47.0299-65.9164Q49.3179-65.9164 51.5411-65.5724Q53.7643-65.2283 55.8395-64.6225L59.51-73.4612Q56.5643-74.4377 53.4405-74.9596Q50.3166-75.4814 47.0299-75.4814Q43.792-75.4814 40.6513-74.9596Q37.5107-74.4377 34.5497-73.4612L38.2538-64.6225Q42.5331-65.9164 47.0299-65.9164ZM74.0479-49.8024L82.8873-53.4729Q79.9751-59.1194 75.4353-63.6425Q70.8954-68.1656 65.2489-71.0777L61.5784-62.2719Q69.738-57.8949 74.0479-49.8024ZM77.726-35.2539Q77.726-32.9659 77.3987-30.7426Q77.0714-28.5194 76.4648-26.4442L85.2707-22.7737Q86.2808-25.7347 86.8023-28.8754Q87.3238-32.016 87.3238-35.2539Q87.3238-38.5078 86.8023-41.6481Q86.2808-44.7884 85.2707-47.7341L76.432-44.0636Q77.726-39.7507 77.726-35.2539ZM61.5784-8.23593L65.2489 0.569916Q70.929-2.35748 75.452-6.87294Q79.9751-11.3884 82.8873-17.0349L74.0814-20.7054Q71.9749-16.732 68.7801-13.5448Q65.5853-10.3577 61.5784-8.23593ZM47.0634-4.59137Q42.5331-4.59137 38.2538-5.88531L34.5833 2.95334Q37.5443 3.91464 40.6845 4.44412Q43.8248 4.9736 47.0634 4.9736Q50.3502 4.9736 53.474 4.46091Q56.5979 3.94821 59.5428 2.98691L55.8395-5.85175Q51.4931-4.59137 47.0634-4.59137ZM20.0783-20.7054L11.2396-17.0349Q14.167-11.3884 18.6825-6.87294Q23.1979-2.35748 28.8437 0.536346L32.4814-8.26874Q24.3553-12.6129 20.0783-20.7054Z"/>
  </g>
  <g id="Medium-S" transform="matrix(1 0 0 1 1699.83 696)">
   <path d="M15.551-35.2539Q15.551-39.8994 16.8785-44.3535L8.82874-47.7005Q7.901-44.722 7.36847-41.608Q6.83594-38.4941 6.83594-35.2539Q6.83594-32.0221 7.36847-28.9085Q7.901-25.795 8.86917-22.8073L16.8785-26.1543Q16.2392-28.3035 15.8951-30.5908Q15.551-32.8781 15.551-35.2539ZM31.9893-62.8586L28.7224-70.7481Q23.0896-67.8894 18.5642-63.3797Q14.0388-58.8699 11.1717-53.2372L19.1017-49.8909Q21.3173-54.0253 24.6059-57.3383Q27.8946-60.6514 31.9893-62.8586ZM46.666-66.4894Q49.0417-66.4894 51.3489-66.1251Q53.656-65.7608 55.806-65.1215L59.1125-73.0911Q56.1737-74.0677 53.0602-74.596Q49.9466-75.1244 46.666-75.1244Q43.4349-75.1244 40.3008-74.596Q37.1666-74.0677 34.2194-73.0911L37.5664-65.1215Q41.9807-66.4894 46.666-66.4894ZM74.2706-49.9306L82.2403-53.2372Q79.3419-58.8699 74.8119-63.3797Q70.282-67.8894 64.6492-70.7878L61.3426-62.8586Q69.8387-58.3466 74.2706-49.9306ZM77.9411-35.2539Q77.9411-32.8781 77.597-30.571Q77.253-28.2639 76.6136-26.1139L84.5428-22.8073Q85.5598-25.7545 86.0882-28.8883Q86.6165-32.0221 86.6165-35.2539Q86.6165-38.4941 86.0882-41.6279Q85.5598-44.7617 84.5428-47.7005L76.5732-44.3939Q77.9411-39.9391 77.9411-35.2539ZM61.3426-7.64923L64.6492 0.279999Q70.3224-2.6268 74.8322-7.13234Q79.3419-11.6379 82.2403-17.2707L74.3103-20.5772Q72.1436-16.4421 68.8305-13.1336Q65.5174-9.82513 61.3426-7.64923ZM46.7064-4.0184Q41.9807-4.0184 37.5664-5.38635L34.2598 2.58331Q37.207 3.55072 40.3408 4.08363Q43.4746 4.61655 46.7064 4.61655Q49.9863 4.61655 53.1002 4.10385Q56.2141 3.59116 59.1522 2.62299L55.806-5.34668Q51.3115-4.0184 46.7064-4.0184ZM19.1414-20.5772L11.1717-17.2707Q14.0793-11.6379 18.5844-7.13234Q23.0896-2.6268 28.7224 0.240326L31.9893-7.68967Q23.5329-12.1613 19.1414-20.5772Z"/>
  </g>
  <g id="Regular-S" transform="matrix(1 0 0 1 1403.58 696)">
   <path d="M14.3555-35.2539Q14.3555-40.1367 15.7715-44.7754L8.83789-47.6562Q7.91016-44.6777 7.37305-41.5771Q6.83594-38.4766 6.83594-35.2539Q6.83594-32.0312 7.37305-28.9307Q7.91016-25.8301 8.88672-22.8516L15.7715-25.7324Q15.0879-27.9785 14.7217-30.3711Q14.3555-32.7637 14.3555-35.2539ZM31.3477-63.623L28.5645-70.3613Q22.9492-67.5293 18.4326-63.0371Q13.916-58.5449 11.084-52.9297L17.8711-50.0488Q20.166-54.3945 23.6084-57.8613Q27.0508-61.3281 31.3477-63.623ZM46.1914-67.2363Q48.6816-67.2363 51.0986-66.8457Q53.5156-66.4551 55.7617-65.7715L58.5938-72.6074Q55.6641-73.584 52.5635-74.1211Q49.4629-74.6582 46.1914-74.6582Q42.9688-74.6582 39.8438-74.1211Q36.7188-73.584 33.7891-72.6074L36.6699-65.7715Q41.2598-67.2363 46.1914-67.2363ZM74.5605-50.0977L81.3965-52.9297Q78.5156-58.5449 73.999-63.0371Q69.4824-67.5293 63.8672-70.4102L61.0352-63.623Q69.9707-58.9355 74.5605-50.0977ZM78.2227-35.2539Q78.2227-32.7637 77.8564-30.3467Q77.4902-27.9297 76.8066-25.6836L83.5938-22.8516Q84.6191-25.7812 85.1562-28.9062Q85.6934-32.0312 85.6934-35.2539Q85.6934-38.4766 85.1562-41.6016Q84.6191-44.7266 83.5938-47.6562L76.7578-44.8242Q78.2227-40.1855 78.2227-35.2539ZM61.0352-6.88477L63.8672-0.0976562Q69.5312-2.97852 74.0234-7.4707Q78.5156-11.9629 81.3965-17.5781L74.6094-20.4102Q72.3633-16.0645 68.8965-12.5977Q65.4297-9.13086 61.0352-6.88477ZM46.2402-3.27148Q41.2598-3.27148 36.6699-4.73633L33.8379 2.09961Q36.7676 3.07617 39.8926 3.61328Q43.0176 4.15039 46.2402 4.15039Q49.5117 4.15039 52.6123 3.6377Q55.7129 3.125 58.6426 2.14844L55.7617-4.6875Q51.0742-3.27148 46.2402-3.27148ZM17.9199-20.4102L11.084-17.5781Q13.9648-11.9629 18.457-7.4707Q22.9492-2.97852 28.5645-0.146484L31.3477-6.93359Q22.4609-11.5723 17.9199-20.4102Z"/>
  </g>
  <g id="Light-S" transform="matrix(1 0 0 1 1107.6 696)">
   <path d="M12.5847-35.2539Q12.5847-40.6059 14.2426-45.578L8.92868-47.7928Q7.95593-44.8143 7.39594-41.6683Q6.83594-38.5223 6.83594-35.2539Q6.83594-31.9855 7.39594-28.8395Q7.95593-25.6935 8.96225-22.715L14.2426-24.9153Q13.4529-27.343 13.0188-29.9397Q12.5847-32.5363 12.5847-35.2539ZM30.6366-64.743L28.5042-69.8921Q22.7829-67.0753 18.2133-62.5225Q13.6436-57.9697 10.8269-52.2484L16.0248-50.0488Q18.425-54.7882 22.1779-58.5575Q25.9308-62.3268 30.6366-64.743ZM45.4803-68.235Q48.1972-68.235 50.8034-67.7917Q53.4096-67.3485 55.8525-66.5588L58.0185-71.8048Q55.0735-72.8119 51.9276-73.3719Q48.7816-73.9319 45.4803-73.9319Q42.2119-73.9319 39.0491-73.3719Q35.8864-72.8119 32.9414-71.8048L35.1562-66.5588Q40.094-68.235 45.4803-68.235ZM74.9695-50.0824L80.201-52.2484Q77.3499-57.9849 72.773-62.5378Q68.1961-67.0906 62.4748-69.9409L60.3088-64.743Q70.1073-59.8137 74.9695-50.0824ZM78.495-35.2539Q78.495-32.5363 78.0682-29.9229Q77.6413-27.3094 76.8524-24.881L82.0648-22.715Q83.1055-25.6599 83.6655-28.8227Q84.2255-31.9855 84.2255-35.2539Q84.2255-38.5223 83.6655-41.6775Q83.1055-44.8326 82.0648-47.7776L76.8333-45.6116Q78.495-40.6097 78.495-35.2539ZM60.3088-5.76477L62.4748-0.566864Q68.2297-3.41721 72.7898-7.97005Q77.3499-12.5229 80.1857-18.2442L75.0031-20.4102Q72.6204-15.6708 68.8587-11.9087Q65.097-8.14667 60.3088-5.76477ZM45.5139-2.2728Q40.094-2.2728 35.1562-3.94897L32.975 1.297Q35.92 2.30408 39.0827 2.86407Q42.2455 3.42407 45.5139 3.42407Q48.8152 3.42407 51.9539 2.88849Q55.0926 2.35291 58.0368 1.33133L55.822-3.90015Q50.7866-2.2728 45.5139-2.2728ZM16.0583-20.4102L10.8421-18.2442Q13.6925-12.5229 18.2453-7.97005Q22.7982-3.41721 28.5187-0.600433L30.6511-5.79834Q20.9015-10.6941 16.0583-20.4102Z"/>
  </g>
  <g id="Thin-S" transform="matrix(1 0 0 1 811.863 696)">
   <path d="M10.2425-35.2539Q10.2425-41.2262 12.2208-46.6385L9.04846-47.9729Q8.01544-44.9944 7.42569-41.7881Q6.83594-38.5818 6.83594-35.2539Q6.83594-31.926 7.42569-28.7197Q8.01544-25.5135 9.06219-22.5349L12.2208-23.8342Q11.2915-26.5022 10.767-29.3694Q10.2425-32.2365 10.2425-35.2539ZM29.6951-66.2247L28.4241-69.2719Q22.5624-66.4749 17.923-61.842Q13.2835-57.209 10.4866-51.3474L13.5818-50.0488Q16.1232-55.3085 20.2862-59.4784Q24.4492-63.6482 29.6951-66.2247ZM44.5389-69.5564Q47.5571-69.5564 50.4131-69.043Q53.2692-68.5295 55.9723-67.5995L57.2578-70.7443Q54.2931-71.7911 51.0868-72.3808Q47.8806-72.9706 44.5389-72.9706Q41.2109-72.9706 37.9982-72.3808Q34.7855-71.7911 31.8207-70.7443L33.1543-67.5995Q38.5529-69.5564 44.5389-69.5564ZM75.5096-50.0626L78.6194-51.3474Q75.8087-57.2441 71.1514-61.8771Q66.494-66.51 60.6331-69.3207L59.3475-66.2247Q70.2873-60.9749 75.5096-50.0626ZM78.8551-35.2539Q78.8551-32.2365 78.3485-29.3625Q77.8419-26.4885 76.9119-23.8205L80.043-22.5349Q81.1035-25.4997 81.6933-28.7128Q82.283-31.926 82.283-35.2539Q82.283-38.5818 81.6933-41.7774Q81.1035-44.973 80.043-47.9378L76.9333-46.6522Q78.8551-41.1697 78.8551-35.2539ZM59.3475-4.28314L60.6331-1.18713Q66.5077-3.9978 71.1582-8.63075Q75.8087-13.2637 78.5843-19.1246L75.5234-20.4102Q72.9607-15.1505 68.8084-10.9982Q64.6561-6.84586 59.3475-4.28314ZM44.5526-0.951385Q38.5529-0.951385 33.1543-2.90833L31.8344 0.236511Q34.7992 1.28326 38.0119 1.87302Q41.2247 2.46277 44.5526 2.46277Q47.8943 2.46277 51.083 1.89743Q54.2717 1.33209 57.2365 0.250244L55.9021-2.8595Q50.4066-0.951385 44.5526-0.951385ZM13.5956-20.4102L10.5217-19.1246Q13.3324-13.2637 17.9649-8.63075Q22.5975-3.9978 28.4592-1.20087L29.7302-4.29688Q18.84-9.53293 13.5956-20.4102Z"/>
  </g>
  <g id="Ultralight-S" transform="matrix(1 0 0 1 515.649 696)">
   <path d="M9.04236-35.2539Q9.04236-41.5443 11.1855-47.1825L9.11026-48.0652Q8.04672-45.0867 7.44133-41.8499Q6.83594-38.6131 6.83594-35.2539Q6.83594-31.8947 7.44133-28.6579Q8.04672-25.4211 9.11407-22.4426L11.1855-23.2803Q10.1837-26.0712 9.61304-29.0768Q9.04236-32.0824 9.04236-35.2539ZM29.2137-66.983L28.3829-68.9537Q22.4495-66.1667 17.7742-61.4929Q13.0989-56.8192 10.3119-50.8865L12.3314-50.0488Q14.9437-55.5756 19.3172-59.9503Q23.6908-64.325 29.2137-66.983ZM44.0575-70.2332Q47.2282-70.2332 50.2129-69.6838Q53.1975-69.1345 56.0341-68.1328L56.868-70.2003Q53.8933-71.2685 50.6565-71.8735Q47.4197-72.4785 44.0575-72.4785Q40.6982-72.4785 37.4596-71.8735Q34.2209-71.2685 31.2462-70.2003L32.1289-68.1328Q37.7632-70.2332 44.0575-70.2332ZM75.7866-50.0519L77.8091-50.8865Q75.0191-56.8649 70.3209-61.5387Q65.6227-66.2125 59.6893-69.0025L58.8554-66.983Q70.3796-61.5692 75.7866-50.0519ZM79.0398-35.2539Q79.0398-32.0824 78.492-29.0752Q77.9442-26.0681 76.9432-23.2765L79.0077-22.4426Q80.0781-25.4181 80.6835-28.6564Q81.2889-31.8947 81.2889-35.2539Q81.2889-38.6131 80.6835-41.8289Q80.0781-45.0447 79.0077-48.0194L76.9852-47.1855Q79.0398-41.4574 79.0398-35.2539ZM58.8554-3.52478L59.6893-1.50528Q65.6258-4.29535 70.3224-8.96912Q75.0191-13.6429 77.7634-19.5763L75.7904-20.4102Q73.1354-14.8834 68.7832-10.5312Q64.431-6.17905 58.8554-3.52478ZM44.0605-0.274658Q37.7632-0.274658 32.1289-2.37503L31.2492-0.307465Q34.2247 0.760651 37.4634 1.36566Q40.7021 1.97067 44.0605 1.97067Q47.4228 1.97067 50.6371 1.39008Q53.8513 0.809479 56.826-0.30365L55.9433-2.3262Q50.2113-0.274658 44.0605-0.274658ZM12.3344-20.4102L10.3577-19.5763Q13.1477-13.6429 17.8215-8.96912Q22.4953-4.29535 28.4279-1.50909L29.2587-3.52783Q17.7834-8.9386 12.3344-20.4102Z"/>
  </g>
 </g>
</svg>
