<?xml version="1.0" encoding="UTF-8"?>
<!--Generator: Apple Native CoreSVG 175.5-->
<!DOCTYPE svg
PUBLIC "-//W3C//DTD SVG 1.1//EN"
       "http://www.w3.org/Graphics/SVG/1.1/DTD/svg11.dtd">
<svg version="1.1" xmlns="http://www.w3.org/2000/svg" xmlns:xlink="http://www.w3.org/1999/xlink" width="3300" height="2200">
 <!--glyph: "uni1014B3.medium", point size: 100.0, font version: "18.0d12e2", template writer version: "101"-->
 <g id="Notes">
  <rect height="2200" id="artboard" style="fill:white;opacity:1" width="3300" x="0" y="0"/>
  <line style="fill:none;stroke:black;opacity:1;stroke-width:0.5;" x1="263" x2="3036" y1="292" y2="292"/>
  <text style="stroke:none;fill:black;font-family:sans-serif;font-size:13;font-weight:bold;" transform="matrix(1 0 0 1 263 322)">Weight/Scale Variations</text>
  <text style="stroke:none;fill:black;font-family:sans-serif;font-size:13;text-anchor:middle;" transform="matrix(1 0 0 1 559.711 322)">Ultralight</text>
  <text style="stroke:none;fill:black;font-family:sans-serif;font-size:13;text-anchor:middle;" transform="matrix(1 0 0 1 856.422 322)">Thin</text>
  <text style="stroke:none;fill:black;font-family:sans-serif;font-size:13;text-anchor:middle;" transform="matrix(1 0 0 1 1153.13 322)">Light</text>
  <text style="stroke:none;fill:black;font-family:sans-serif;font-size:13;text-anchor:middle;" transform="matrix(1 0 0 1 1449.84 322)">Regular</text>
  <text style="stroke:none;fill:black;font-family:sans-serif;font-size:13;text-anchor:middle;" transform="matrix(1 0 0 1 1746.56 322)">Medium</text>
  <text style="stroke:none;fill:black;font-family:sans-serif;font-size:13;text-anchor:middle;" transform="matrix(1 0 0 1 2043.27 322)">Semibold</text>
  <text style="stroke:none;fill:black;font-family:sans-serif;font-size:13;text-anchor:middle;" transform="matrix(1 0 0 1 2339.98 322)">Bold</text>
  <text style="stroke:none;fill:black;font-family:sans-serif;font-size:13;text-anchor:middle;" transform="matrix(1 0 0 1 2636.69 322)">Heavy</text>
  <text style="stroke:none;fill:black;font-family:sans-serif;font-size:13;text-anchor:middle;" transform="matrix(1 0 0 1 2933.4 322)">Black</text>
  <line style="fill:none;stroke:black;opacity:1;stroke-width:0.5;" x1="263" x2="3036" y1="1903" y2="1903"/>
  <g transform="matrix(1 0 0 1 263 1933)">
   <path d="M9.24805 0.830078C13.5547 0.830078 17.1387-2.74414 17.1387-7.05078C17.1387-11.3574 13.5449-14.9316 9.23828-14.9316C4.94141-14.9316 1.36719-11.3574 1.36719-7.05078C1.36719-2.74414 4.95117 0.830078 9.24805 0.830078ZM9.24805-0.654297C5.70312-0.654297 2.87109-3.49609 2.87109-7.05078C2.87109-10.6055 5.69336-13.4473 9.23828-13.4473C12.793-13.4473 15.6445-10.6055 15.6445-7.05078C15.6445-3.49609 12.8027-0.654297 9.24805-0.654297ZM5.6543-7.05078C5.6543-6.62109 5.95703-6.32812 6.40625-6.32812L8.50586-6.32812L8.50586-4.20898C8.50586-3.76953 8.79883-3.4668 9.22852-3.4668C9.67773-3.4668 9.9707-3.76953 9.9707-4.20898L9.9707-6.32812L12.0898-6.32812C12.5293-6.32812 12.832-6.62109 12.832-7.05078C12.832-7.49023 12.5293-7.79297 12.0898-7.79297L9.9707-7.79297L9.9707-9.90234C9.9707-10.3516 9.67773-10.6543 9.22852-10.6543C8.79883-10.6543 8.50586-10.3516 8.50586-9.90234L8.50586-7.79297L6.40625-7.79297C5.95703-7.79297 5.6543-7.49023 5.6543-7.05078Z"/>
  </g>
  <g transform="matrix(1 0 0 1 281.867 1933)">
   <path d="M11.709 2.91016C17.1582 2.91016 21.6699-1.61133 21.6699-7.05078C21.6699-12.5 17.1484-17.0117 11.6992-17.0117C6.25977-17.0117 1.74805-12.5 1.74805-7.05078C1.74805-1.61133 6.26953 2.91016 11.709 2.91016ZM11.709 1.25C7.09961 1.25 3.41797-2.44141 3.41797-7.05078C3.41797-11.6602 7.08984-15.3516 11.6992-15.3516C16.3086-15.3516 20.0098-11.6602 20.0098-7.05078C20.0098-2.44141 16.3184 1.25 11.709 1.25ZM7.17773-7.05078C7.17773-6.57227 7.50977-6.25 8.00781-6.25L10.8789-6.25L10.8789-3.36914C10.8789-2.88086 11.2109-2.53906 11.6895-2.53906C12.1777-2.53906 12.5195-2.87109 12.5195-3.36914L12.5195-6.25L15.4004-6.25C15.8887-6.25 16.2305-6.57227 16.2305-7.05078C16.2305-7.53906 15.8887-7.88086 15.4004-7.88086L12.5195-7.88086L12.5195-10.752C12.5195-11.25 12.1777-11.5918 11.6895-11.5918C11.2109-11.5918 10.8789-11.25 10.8789-10.752L10.8789-7.88086L8.00781-7.88086C7.50977-7.88086 7.17773-7.53906 7.17773-7.05078Z"/>
  </g>
  <g transform="matrix(1 0 0 1 305.646 1933)">
   <path d="M14.9707 5.66406C21.9336 5.66406 27.6953-0.0976562 27.6953-7.05078C27.6953-14.0137 21.9238-19.7754 14.9609-19.7754C8.00781-19.7754 2.25586-14.0137 2.25586-7.05078C2.25586-0.0976562 8.01758 5.66406 14.9707 5.66406ZM14.9707 3.84766C8.93555 3.84766 4.08203-1.01562 4.08203-7.05078C4.08203-13.0957 8.92578-17.9492 14.9609-17.9492C21.0059-17.9492 25.8691-13.0957 25.8691-7.05078C25.8691-1.01562 21.0156 3.84766 14.9707 3.84766ZM9.19922-7.05078C9.19922-6.5332 9.57031-6.17188 10.1172-6.17188L14.0625-6.17188L14.0625-2.2168C14.0625-1.67969 14.4336-1.29883 14.9512-1.29883C15.4883-1.29883 15.8594-1.66992 15.8594-2.2168L15.8594-6.17188L19.8145-6.17188C20.3516-6.17188 20.7324-6.5332 20.7324-7.05078C20.7324-7.59766 20.3613-7.96875 19.8145-7.96875L15.8594-7.96875L15.8594-11.9141C15.8594-12.4609 15.4883-12.8418 14.9512-12.8418C14.4336-12.8418 14.0625-12.4609 14.0625-11.9141L14.0625-7.96875L10.1172-7.96875C9.57031-7.96875 9.19922-7.59766 9.19922-7.05078Z"/>
  </g>
  <text style="stroke:none;fill:black;font-family:sans-serif;font-size:13;font-weight:bold;" transform="matrix(1 0 0 1 263 1953)">Design Variations</text>
  <text style="stroke:none;fill:black;font-family:sans-serif;font-size:13;" transform="matrix(1 0 0 1 263 1971)">Symbols are supported in up to nine weights and three scales.</text>
  <text style="stroke:none;fill:black;font-family:sans-serif;font-size:13;" transform="matrix(1 0 0 1 263 1989)">For optimal layout with text and other symbols, vertically align</text>
  <text style="stroke:none;fill:black;font-family:sans-serif;font-size:13;" transform="matrix(1 0 0 1 263 2007)">symbols with the adjacent text.</text>
  <line style="fill:none;stroke:#00AEEF;stroke-width:0.5;opacity:1.0;" x1="776" x2="776" y1="1919" y2="1933"/>
  <g transform="matrix(1 0 0 1 776 1933)">
   <path d="M3.31055 0.15625C3.82812 0.15625 4.08203-0.0390625 4.26758-0.585938L5.52734-4.0332L11.2891-4.0332L12.5488-0.585938C12.7344-0.0390625 12.9883 0.15625 13.4961 0.15625C14.0137 0.15625 14.3457-0.15625 14.3457-0.644531C14.3457-0.810547 14.3164-0.966797 14.2383-1.17188L9.6582-13.3691C9.43359-13.9648 9.0332-14.2676 8.4082-14.2676C7.80273-14.2676 7.39258-13.9746 7.17773-13.3789L2.59766-1.16211C2.51953-0.957031 2.49023-0.800781 2.49023-0.634766C2.49023-0.146484 2.80273 0.15625 3.31055 0.15625ZM6.00586-5.51758L8.37891-12.0898L8.42773-12.0898L10.8008-5.51758Z"/>
  </g>
  <line style="fill:none;stroke:#00AEEF;stroke-width:0.5;opacity:1.0;" x1="793.197" x2="793.197" y1="1919" y2="1933"/>
  <text style="stroke:none;fill:black;font-family:sans-serif;font-size:13;font-weight:bold;" transform="matrix(1 0 0 1 776 1953)">Margins</text>
  <text style="stroke:none;fill:black;font-family:sans-serif;font-size:13;" transform="matrix(1 0 0 1 776 1971)">Leading and trailing margins on the left and right side of each symbol</text>
  <text style="stroke:none;fill:black;font-family:sans-serif;font-size:13;" transform="matrix(1 0 0 1 776 1989)">can be adjusted by modifying the x-location of the margin guidelines.</text>
  <text style="stroke:none;fill:black;font-family:sans-serif;font-size:13;" transform="matrix(1 0 0 1 776 2007)">Modifications are automatically applied proportionally to all</text>
  <text style="stroke:none;fill:black;font-family:sans-serif;font-size:13;" transform="matrix(1 0 0 1 776 2025)">scales and weights.</text>
  <g transform="matrix(1 0 0 1 1289 1933)">
   <path d="M2.8418 1.86523L4.54102 3.57422C5.40039 4.44336 6.38672 4.38477 7.31445 3.35938L18.0078-8.42773L17.041-9.4043L6.42578 2.27539C6.07422 2.67578 5.74219 2.77344 5.27344 2.30469L4.10156 1.14258C3.63281 0.683594 3.74023 0.341797 4.14062-0.0195312L15.6152-10.8203L14.6387-11.7871L3.04688-0.898438C2.06055 0.0195312 1.98242 0.996094 2.8418 1.86523ZM9.25781-16.3281C8.83789-15.918 8.80859-15.3418 9.04297-14.9512C9.27734-14.5898 9.73633-14.3555 10.3809-14.5215C11.8457-14.8633 13.3691-14.9219 14.7949-13.9844L14.209-12.5293C13.8672-11.6992 14.043-11.1133 14.5801-10.5664L16.875-8.25195C17.3633-7.76367 17.7734-7.74414 18.3398-7.8418L19.4043-8.03711L20.0684-7.36328L20.0293-6.80664C19.9902-6.30859 20.1172-5.92773 20.6055-5.44922L21.3672-4.70703C21.8457-4.22852 22.4609-4.19922 22.9297-4.66797L25.8398-7.58789C26.3086-8.05664 26.2891-8.65234 25.8105-9.13086L25.0391-9.89258C24.5605-10.3711 24.1895-10.5273 23.7109-10.4883L23.1348-10.4395L22.4902-11.0742L22.7344-12.1973C22.8613-12.7637 22.7051-13.2031 22.1191-13.7891L19.9219-15.9766C16.582-19.2969 12.1484-19.2188 9.25781-16.3281ZM10.752-15.957C13.1836-17.7344 16.4746-17.4316 18.7012-15.2051L21.1328-12.793C21.3672-12.5586 21.4062-12.373 21.3379-12.0312L21.0156-10.5469L22.5195-9.0625L23.5059-9.12109C23.7598-9.13086 23.8379-9.11133 24.0332-8.91602L24.6094-8.33984L22.168-5.89844L21.5918-6.47461C21.3965-6.66992 21.3672-6.74805 21.377-7.01172L21.4453-7.98828L19.9512-9.47266L18.4277-9.21875C18.1055-9.15039 17.959-9.17969 17.7148-9.41406L15.7129-11.416C15.459-11.6504 15.4297-11.8164 15.5859-12.1875L16.4648-14.2773C14.9023-15.7324 12.8711-16.3574 10.8398-15.7617C10.6836-15.7227 10.625-15.8496 10.752-15.957Z"/>
  </g>
  <text style="stroke:none;fill:black;font-family:sans-serif;font-size:13;font-weight:bold;" transform="matrix(1 0 0 1 1289 1953)">Exporting</text>
  <text style="stroke:none;fill:black;font-family:sans-serif;font-size:13;" transform="matrix(1 0 0 1 1289 1971)">Symbols should be outlined when exporting to ensure the</text>
  <text style="stroke:none;fill:black;font-family:sans-serif;font-size:13;" transform="matrix(1 0 0 1 1289 1989)">design is preserved when submitting to Xcode.</text>
  <text id="template-version" style="stroke:none;fill:black;font-family:sans-serif;font-size:13;text-anchor:end;" transform="matrix(1 0 0 1 3036 1933)">Template v.4.0</text>
  <text style="stroke:none;fill:black;font-family:sans-serif;font-size:13;text-anchor:end;" transform="matrix(1 0 0 1 3036 1951)">Requires Xcode 14 or greater</text>
  <text id="descriptive-name" style="stroke:none;fill:black;font-family:sans-serif;font-size:13;text-anchor:end;" transform="matrix(1 0 0 1 3036 1969)">Generated from web.camera.fill</text>
  <text style="stroke:none;fill:black;font-family:sans-serif;font-size:13;text-anchor:end;" transform="matrix(1 0 0 1 3036 1987)">Typeset at 100 points</text>
  <text style="stroke:none;fill:black;font-family:sans-serif;font-size:13;" transform="matrix(1 0 0 1 263 726)">Small</text>
  <text style="stroke:none;fill:black;font-family:sans-serif;font-size:13;" transform="matrix(1 0 0 1 263 1156)">Medium</text>
  <text style="stroke:none;fill:black;font-family:sans-serif;font-size:13;" transform="matrix(1 0 0 1 263 1586)">Large</text>
 </g>
 <g id="Guides">
  <g id="H-reference" style="fill:#27AAE1;stroke:none;" transform="matrix(1 0 0 1 339 696)">
   <path d="M0.993654 0L3.63775 0L29.3281-67.1323L30.0303-67.1323L30.0303-70.459L28.1226-70.459ZM11.6885-24.4799L46.9815-24.4799L46.2315-26.7285L12.4385-26.7285ZM55.1196 0L57.7637 0L30.6382-70.459L29.4326-70.459L29.4326-67.1323Z"/>
  </g>
  <line id="Baseline-S" style="fill:none;stroke:#27AAE1;opacity:1;stroke-width:0.5;" x1="263" x2="3036" y1="696" y2="696"/>
  <line id="Capline-S" style="fill:none;stroke:#27AAE1;opacity:1;stroke-width:0.5;" x1="263" x2="3036" y1="625.541" y2="625.541"/>
  <g id="H-reference" style="fill:#27AAE1;stroke:none;" transform="matrix(1 0 0 1 339 1126)">
   <path d="M0.993654 0L3.63775 0L29.3281-67.1323L30.0303-67.1323L30.0303-70.459L28.1226-70.459ZM11.6885-24.4799L46.9815-24.4799L46.2315-26.7285L12.4385-26.7285ZM55.1196 0L57.7637 0L30.6382-70.459L29.4326-70.459L29.4326-67.1323Z"/>
  </g>
  <line id="Baseline-M" style="fill:none;stroke:#27AAE1;opacity:1;stroke-width:0.5;" x1="263" x2="3036" y1="1126" y2="1126"/>
  <line id="Capline-M" style="fill:none;stroke:#27AAE1;opacity:1;stroke-width:0.5;" x1="263" x2="3036" y1="1055.54" y2="1055.54"/>
  <g id="H-reference" style="fill:#27AAE1;stroke:none;" transform="matrix(1 0 0 1 339 1556)">
   <path d="M0.993654 0L3.63775 0L29.3281-67.1323L30.0303-67.1323L30.0303-70.459L28.1226-70.459ZM11.6885-24.4799L46.9815-24.4799L46.2315-26.7285L12.4385-26.7285ZM55.1196 0L57.7637 0L30.6382-70.459L29.4326-70.459L29.4326-67.1323Z"/>
  </g>
  <line id="Baseline-L" style="fill:none;stroke:#27AAE1;opacity:1;stroke-width:0.5;" x1="263" x2="3036" y1="1556" y2="1556"/>
  <line id="Capline-L" style="fill:none;stroke:#27AAE1;opacity:1;stroke-width:0.5;" x1="263" x2="3036" y1="1485.54" y2="1485.54"/>
  <line id="left-margin-Regular-M" style="fill:none;stroke:#00AEEF;stroke-width:0.5;opacity:1.0;" x1="1398.16" x2="1398.16" y1="1030.79" y2="1150.12"/>
  <line id="right-margin-Regular-M" style="fill:none;stroke:#00AEEF;stroke-width:0.5;opacity:1.0;" x1="1501.53" x2="1501.53" y1="1030.79" y2="1150.12"/>
 </g>
 <g id="Symbols">
  <g id="Black-L" transform="matrix(1 0 0 1 2860.52 1556)">
   <path d="M72.9324 8.37258C104.316 8.37258 129.678-17.1055 129.678-48.455C129.678-79.9189 104.316-105.359 72.9324-105.359C41.4673-105.359 16.084-79.9189 16.084-48.455C16.084-17.1055 41.4673 8.37258 72.9324 8.37258ZM72.9324-16.8923C55.2471-16.8923 41.3124-30.8478 41.3124-48.5134C41.3124-66.1975 55.2471-80.0738 72.9324-80.0738C90.5956-80.0738 104.471-66.1975 104.471-48.5134C104.471-30.8478 90.5956-16.8923 72.9324-16.8923ZM72.9324-36.6948C79.4963-36.6948 84.6473-41.9471 84.6473-48.5134C84.6473-55.0785 79.4963-60.2712 72.9324-60.2712C66.3453-60.2712 61.115-55.0785 61.115-48.5134C61.115-41.9471 66.3453-36.6948 72.9324-36.6948ZM64.3436 26.2897L81.4615 26.2897L81.4615-1.95789L64.3436-1.95789ZM48.0148 34.82L97.7099 34.82C102.409 34.82 106.299 30.9695 106.299 26.2897C106.299 21.5902 102.409 17.7605 97.7099 17.7605L48.016 17.7605C43.3374 17.7605 39.4857 21.5902 39.4857 26.2897C39.4857 30.9695 43.3362 34.82 48.0148 34.82Z"/>
  </g>
  <g id="Heavy-L" transform="matrix(1 0 0 1 2565.36 1556)">
   <path d="M71.3904 6.92886C101.903 6.92886 126.581-17.8328 126.581-48.3474C126.581-78.94 101.903-103.687 71.3904-103.687C40.7922-103.687 16.084-78.94 16.084-48.3474C16.084-17.8328 40.7922 6.92886 71.3904 6.92886ZM71.3904-17.1566C53.9204-17.1566 40.1606-30.9465 40.1606-48.392C40.1606-65.8565 53.9204-79.5716 71.3904-79.5716C88.8247-79.5716 102.534-65.8565 102.534-48.392C102.534-30.9465 88.8247-17.1566 71.3904-17.1566ZM71.3904-36.0592C78.2327-36.0592 83.6015-41.5386 83.6015-48.392C83.6015-55.2399 78.2327-60.669 71.3904-60.669C64.5068-60.669 59.0632-55.2399 59.0632-48.392C59.0632-41.5386 64.5068-36.0592 71.3904-36.0592ZM63.7112 25.5132L79.0195 25.5132L79.0195-1.98599L63.7112-1.98599ZM47.1804 33.1478L95.4698 33.1478C99.6784 33.1478 103.149 29.6972 103.149 25.5132C103.149 21.3046 99.6784 17.8842 95.4698 17.8842L47.1861 17.8842C43.0076 17.8842 39.5514 21.3046 39.5514 25.5132C39.5514 29.6972 43.002 33.1478 47.1804 33.1478Z"/>
  </g>
  <g id="Bold-L" transform="matrix(1 0 0 1 2270.54 1556)">
   <path d="M69.4996 5.19073C98.9433 5.19073 122.784-18.6947 122.784-48.1869C122.784-77.7111 98.9433-101.605 69.4996-101.605C39.9622-101.605 16.084-77.7111 16.084-48.1869C16.084-18.6947 39.9622 5.19073 69.4996 5.19073ZM69.4996-17.554C52.3506-17.554 38.8507-31.0918 38.8507-48.2161C38.8507-65.3519 52.3506-78.8226 69.4996-78.8226C86.5974-78.8226 100.055-65.3519 100.055-48.2161C100.055-31.0918 86.5974-17.554 69.4996-17.554ZM69.4996-35.3722C76.613-35.3722 82.1986-41.0762 82.1986-48.2161C82.1986-55.3428 76.613-61.0043 69.4996-61.0043C62.3217-61.0043 56.6689-55.3428 56.6689-48.2161C56.6689-41.0762 62.3217-35.3722 69.4996-35.3722ZM62.9796 24.575L75.9772 24.575L75.9772-2.00939L62.9796-2.00939ZM46.1507 31.0658L92.7256 31.0658C96.3048 31.0658 99.2456 28.1295 99.2456 24.575C99.2456 20.9959 96.3048 18.0975 92.7256 18.0975L46.1639 18.0975C42.6227 18.0975 39.6731 20.9959 39.6731 24.575C39.6731 28.1295 42.6095 31.0658 46.1507 31.0658Z"/>
  </g>
  <g id="Semibold-L" transform="matrix(1 0 0 1 1975.14 1556)">
   <path d="M68.1961 3.99247C96.9032 3.99247 120.166-19.2888 120.166-48.0762C120.166-76.8638 96.9032-100.17 68.1961-100.17C39.39-100.17 16.084-76.8638 16.084-48.0762C16.084-19.2888 39.39 3.99247 68.1961 3.99247ZM68.1961-17.8279C51.2683-17.8279 37.9476-31.192 37.9476-48.0948C37.9476-65.004 51.2683-78.3061 68.1961-78.3061C85.0619-78.3061 98.3455-65.004 98.3455-48.0948C98.3455-31.192 85.0619-17.8279 68.1961-17.8279ZM68.1961-34.8986C75.4965-34.8986 81.2315-40.7574 81.2315-48.0948C81.2315-55.4137 75.4965-61.2355 68.1961-61.2355C60.8153-61.2355 55.0183-55.4137 55.0183-48.0948C55.0183-40.7574 60.8153-34.8986 68.1961-34.8986ZM62.4752 23.9283L73.8798 23.9283L73.8798-2.02553L62.4752-2.02553ZM45.4408 29.6305L90.8339 29.6305C93.9791 29.6305 96.5547 27.0486 96.5547 23.9283C96.5547 20.783 93.9791 18.2445 90.8339 18.2445L45.4592 18.2445C42.3573 18.2445 39.757 20.783 39.757 23.9283C39.757 27.0486 42.3389 29.6305 45.4408 29.6305Z"/>
  </g>
  <g id="Medium-L" transform="matrix(1 0 0 1 1679.42 1556)">
   <path d="M67.2077 3.0839C95.3564 3.0839 118.181-19.7393 118.181-47.9923C118.181-76.2215 95.3564-99.0816 67.2077-99.0816C38.9561-99.0816 16.084-76.2215 16.084-47.9923C16.084-19.7393 38.9561 3.0839 67.2077 3.0839ZM67.2077-18.0356C50.4478-18.0356 37.2629-31.2679 37.2629-48.0028C37.2629-64.7403 50.4478-77.9146 67.2077-77.9146C83.8976-77.9146 97.0495-64.7403 97.0495-48.0028C97.0495-31.2679 83.8976-18.0356 67.2077-18.0356ZM67.2077-34.5395C74.6499-34.5395 80.4982-40.5157 80.4982-48.0028C80.4982-55.4675 74.6499-61.4108 67.2077-61.4108C59.6731-61.4108 53.7667-55.4675 53.7667-48.0028C53.7667-40.5157 59.6731-34.5395 67.2077-34.5395ZM62.0928 23.4379L72.2895 23.4379L72.2895-2.03777L62.0928-2.03777ZM44.9025 28.5422L89.3994 28.5422C92.2157 28.5422 94.5143 26.2291 94.5143 23.4379C94.5143 20.6216 92.2157 18.356 89.3994 18.356L44.9249 18.356C42.1561 18.356 39.8206 20.6216 39.8206 23.4379C39.8206 26.2291 42.1337 28.5422 44.9025 28.5422Z"/>
  </g>
  <g id="Regular-L" transform="matrix(1 0 0 1 1384.01 1556)">
   <path d="M65.9184 1.89881C93.3387 1.89881 115.592-20.3269 115.592-47.8829C115.592-75.3835 93.3387-97.662 65.9184-97.662C38.3901-97.662 16.084-75.3835 16.084-47.8829C16.084-20.3269 38.3901 1.89881 65.9184 1.89881ZM65.9184-18.3066C49.3774-18.3066 36.3698-31.367 36.3698-47.8829C36.3698-64.3962 49.3774-77.4039 65.9184-77.4039C82.379-77.4039 95.359-64.3962 95.359-47.8829C95.359-31.367 82.379-18.3066 65.9184-18.3066ZM65.9184-34.0711C73.5456-34.0711 79.5418-40.2004 79.5418-47.8829C79.5418-55.5377 73.5456-61.6394 65.9184-61.6394C58.1832-61.6394 52.1343-55.5377 52.1343-47.8829C52.1343-40.2004 58.1832-34.0711 65.9184-34.0711ZM61.594 22.7982L70.2152 22.7982L70.2152-2.05372L61.594-2.05372ZM44.2004 27.1226L87.5284 27.1226C89.9155 27.1226 91.8529 25.1602 91.8529 22.7982C91.8529 20.4111 89.9155 18.5014 87.5284 18.5014L44.228 18.5014C41.8937 18.5014 39.9036 20.4111 39.9036 22.7982C39.9036 25.1602 41.866 27.1226 44.2004 27.1226Z"/>
  </g>
  <g id="Light-L" transform="matrix(1 0 0 1 1088.48 1556)">
   <path d="M64.7352 1.02089C91.4874 1.02089 113.225-20.6704 113.225-47.5966C113.225-74.4293 91.4874-96.1543 64.7352-96.1543C37.8557-96.1543 16.084-74.4293 16.084-47.5966C16.084-20.6704 37.8557 1.02089 64.7352 1.02089ZM64.7352-19.0318C48.7667-19.0318 36.2171-31.6151 36.2171-47.5966C36.2171-63.5183 48.7667-76.0679 64.7352-76.0679C80.6232-76.0679 93.126-63.5183 93.126-47.5966C93.126-31.6151 80.6232-19.0318 64.7352-19.0318ZM64.7352-34.2428C72.076-34.2428 77.8814-40.1623 77.8814-47.5966C77.8814-54.9842 72.076-60.8569 64.7352-60.8569C57.2671-60.8569 51.4281-54.9842 51.4281-47.5966C51.4281-40.1623 57.2671-34.2428 64.7352-34.2428ZM61.4222 22.302L68.0013 22.302L68.0013-1.99647L61.4222-1.99647ZM43.5133 25.6149L85.8299 25.6149C87.6444 25.6149 89.1428 24.1296 89.1428 22.302C89.1428 20.4874 87.6444 19.0358 85.8299 19.0358L43.56 19.0358C41.7792 19.0358 40.2471 20.4874 40.2471 22.302C40.2471 24.1296 41.7324 25.6149 43.5133 25.6149Z"/>
  </g>
  <g id="Thin-L" transform="matrix(1 0 0 1 793.332 1556)">
   <path d="M63.1702-0.140233C89.039-0.140233 110.095-21.1248 110.095-47.218C110.095-73.1672 89.039-94.1602 63.1702-94.1602C37.149-94.1602 16.084-73.1672 16.084-47.218C16.084-21.1248 37.149-0.140233 63.1702-0.140233ZM63.1702-19.991C47.959-19.991 36.0152-31.9432 36.0152-47.218C36.0152-62.3572 47.959-74.301 63.1702-74.301C78.3009-74.301 90.1727-62.3572 90.1727-47.218C90.1727-31.9432 78.3009-19.991 63.1702-19.991ZM63.1702-34.47C70.1324-34.47 75.6853-40.1118 75.6853-47.218C75.6853-54.2522 70.1324-59.822 63.1702-59.822C56.0555-59.822 50.4942-54.2522 50.4942-47.218C50.4942-40.1118 56.0555-34.47 63.1702-34.47ZM61.1951 21.6457L65.0733 21.6457L65.0733-1.92074L61.1951-1.92074ZM42.6046 23.6208L83.5833 23.6208C84.6406 23.6208 85.5584 22.7665 85.5584 21.6457C85.5584 20.5884 84.6406 19.7426 83.5833 19.7426L42.6766 19.7426C41.6277 19.7426 40.7015 20.5884 40.7015 21.6457C40.7015 22.7665 41.5557 23.6208 42.6046 23.6208Z"/>
  </g>
  <g id="Ultralight-L" transform="matrix(1 0 0 1 497.423 1556)">
   <path d="M62.3686-0.734955C87.7849-0.734955 108.492-21.3575 108.492-47.024C108.492-72.5208 87.7849-93.1388 62.3686-93.1388C36.787-93.1388 16.084-72.5208 16.084-47.024C16.084-21.3575 36.787-0.734955 62.3686-0.734955ZM62.3686-20.4823C47.5453-20.4823 35.9118-32.1113 35.9118-47.024C35.9118-61.7625 47.5453-73.3959 62.3686-73.3959C77.1115-73.3959 88.6601-61.7625 88.6601-47.024C88.6601-32.1113 77.1115-20.4823 62.3686-20.4823ZM62.3686-34.5864C69.1369-34.5864 74.5605-40.0859 74.5605-47.024C74.5605-53.8773 69.1369-59.2919 62.3686-59.2919C55.4349-59.2919 50.0158-53.8773 50.0158-47.024C50.0158-40.0859 55.4349-34.5864 62.3686-34.5864ZM61.0787 21.3095L63.5735 21.3095L63.5735-1.88196L61.0787-1.88196ZM42.1391 22.5994L82.4327 22.5994C83.1021 22.5994 83.7226 22.0684 83.7226 21.3095C83.7226 20.6401 83.1021 20.1046 82.4327 20.1046L42.2241 20.1046C41.5501 20.1046 40.9342 20.6401 40.9342 21.3095C40.9342 22.0684 41.4652 22.5994 42.1391 22.5994Z"/>
  </g>
  <g id="Black-M" transform="matrix(1 0 0 1 2875.77 1126)">
   <path d="M57.6687-0.327311C82.6411-0.327311 102.809-20.6095 102.809-45.5295C102.809-70.5643 82.6411-90.7949 57.6687-90.7949C32.6342-90.7949 12.4609-70.5643 12.4609-45.5295C12.4609-20.6095 32.6342-0.327311 57.6687-0.327311ZM57.6687-20.894C43.8598-20.894 32.9757-31.7835 32.9757-45.5866C32.9757-59.3958 43.8598-70.2228 57.6687-70.2228C71.4723-70.2228 82.2996-59.3958 82.2996-45.5866C82.2996-31.7835 71.4723-20.894 57.6687-20.894ZM57.6687-36.9343C62.476-36.9343 66.2537-40.7799 66.2537-45.5866C66.2537-50.3937 62.476-54.1824 57.6687-54.1824C52.8564-54.1824 49.0161-50.3937 49.0161-45.5866C49.0161-40.7799 52.8564-36.9343 57.6687-36.9343ZM50.37 13.0321L64.9105 13.0321L64.9105-9.42067L50.37-9.42067ZM37.8231 20.2736L77.395 20.2736C81.3802 20.2736 84.6937 17.0115 84.6937 13.0321C84.6937 9.04688 81.3802 5.79022 77.395 5.79022L37.8229 5.79022C33.8432 5.79022 30.5813 9.04688 30.5813 13.0321C30.5813 17.0115 33.8435 20.2736 37.8231 20.2736Z"/>
  </g>
  <g id="Heavy-M" transform="matrix(1 0 0 1 2580.46 1126)">
   <path d="M56.2705-1.65765C80.4528-1.65765 99.999-21.2889 99.999-45.4508C99.999-69.6954 80.4528-89.2994 56.2705-89.2994C32.0236-89.2994 12.4609-69.6954 12.4609-45.4508C12.4609-21.2889 32.0236-1.65765 56.2705-1.65765ZM56.2705-21.0854C42.6191-21.0854 31.8638-31.8572 31.8638-45.4944C31.8638-59.1434 42.6191-69.8552 56.2705-69.8552C69.9031-69.8552 80.6125-59.1434 80.6125-45.4944C80.6125-31.8572 69.9031-21.0854 56.2705-21.0854ZM56.2705-36.2971C61.3763-36.2971 65.3845-40.384 65.3845-45.4944C65.3845-50.6025 61.3763-54.6435 56.2705-54.6435C51.1437-54.6435 47.0754-50.6025 47.0754-45.4944C47.0754-40.384 51.1437-36.2971 56.2705-36.2971ZM49.7676 12.3188L62.7274 12.3188L62.7274-9.45343L49.7676-9.45343ZM37.0708 18.7781L75.3619 18.7781C78.92 18.7781 81.8648 15.8628 81.8648 12.3188C81.8648 8.76067 78.92 5.86181 75.3619 5.86181L37.0731 5.86181C33.5314 5.86181 30.6138 8.76067 30.6138 12.3188C30.6138 15.8628 33.5291 18.7781 37.0708 18.7781Z"/>
  </g>
  <g id="Bold-M" transform="matrix(1 0 0 1 2285.32 1126)">
   <path d="M54.7064-3.14583C78.0047-3.14583 96.8557-22.0488 96.8557-45.3626C96.8557-68.7233 78.0047-87.6263 54.7064-87.6263C31.3406-87.6263 12.4609-68.7233 12.4609-45.3626C12.4609-22.0488 31.3406-3.14583 54.7064-3.14583ZM54.7064-21.2996C41.2313-21.2996 30.62-31.9396 30.62-45.3912C30.62-58.8611 41.2313-69.4439 54.7064-69.4439C68.1477-69.4439 78.7253-58.8611 78.7253-45.3912C78.7253-31.9396 68.1477-21.2996 54.7064-21.2996ZM54.7064-35.5842C60.1461-35.5842 64.4121-39.9412 64.4121-45.3912C64.4121-50.8361 60.1461-55.1593 54.7064-55.1593C49.2277-55.1593 44.9045-50.8361 44.9045-45.3912C44.9045-39.9412 49.2277-35.5842 54.7064-35.5842ZM49.0937 11.5209L60.2854 11.5209L60.2854-9.49007L49.0937-9.49007ZM36.2293 17.1051L73.0875 17.1051C76.1679 17.1051 78.7002 14.5778 78.7002 11.5209C78.7002 8.44049 76.1679 5.9419 73.0875 5.9419L36.2344 5.9419C33.1826 5.9419 30.6503 8.44049 30.6503 11.5209C30.6503 14.5778 33.1775 17.1051 36.2293 17.1051Z"/>
  </g>
  <g id="Semibold-M" transform="matrix(1 0 0 1 1989.69 1126)">
   <path d="M53.6281-4.17177C76.3171-4.17177 94.6888-22.5727 94.6888-45.3019C94.6888-68.0532 76.3171-86.473 53.6281-86.473C30.8697-86.473 12.4609-68.0532 12.4609-45.3019C12.4609-22.5727 30.8697-4.17177 53.6281-4.17177ZM53.6281-21.4473C40.2745-21.4473 29.7625-31.9964 29.7625-45.32C29.7625-58.6665 40.2745-69.1604 53.6281-69.1604C66.9375-69.1604 77.4243-58.6665 77.4243-45.32C77.4243-31.9964 66.9375-21.4473 53.6281-21.4473ZM53.6281-35.0928C59.2981-35.0928 63.7418-39.6359 63.7418-45.32C63.7418-50.9971 59.2981-55.5149 53.6281-55.5149C47.9069-55.5149 43.4079-50.9971 43.4079-45.32C43.4079-39.6359 47.9069-35.0928 53.6281-35.0928ZM48.6291 10.9709L58.6018 10.9709L58.6018-9.51533L48.6291-9.51533ZM35.6491 15.9517L71.5195 15.9517C74.2706 15.9517 76.5185 13.692 76.5185 10.9709C76.5185 8.21976 74.2706 5.99711 71.5195 5.99711L35.6562 5.99711C32.9422 5.99711 30.6754 8.21976 30.6754 10.9709C30.6754 13.692 32.9351 15.9517 35.6491 15.9517Z"/>
  </g>
  <g id="Medium-M" transform="matrix(1 0 0 1 1693.8 1126)">
   <path d="M52.8105-4.94968C75.0374-4.94968 93.0457-22.9699 93.0457-45.2558C93.0457-67.5451 75.0374-85.5985 52.8105-85.5985C30.5127-85.5985 12.4609-67.5451 12.4609-45.2558C12.4609-22.9699 30.5127-4.94968 52.8105-4.94968ZM52.8105-21.5593C39.5491-21.5593 29.1123-32.0395 29.1123-45.2661C29.1123-58.5189 39.5491-68.9454 52.8105-68.9454C66.0199-68.9454 76.4378-58.5189 76.4378-45.2661C76.4378-32.0395 66.0199-21.5593 52.8105-21.5593ZM52.8105-34.7202C58.655-34.7202 63.2335-39.4044 63.2335-45.2661C63.2335-51.1192 58.655-55.7846 52.8105-55.7846C46.9054-55.7846 42.2732-51.1192 42.2732-45.2661C42.2732-39.4044 46.9054-34.7202 52.8105-34.7202ZM48.2768 10.5538L57.3253 10.5538L57.3253-9.53448L48.2768-9.53448ZM35.2092 15.0772L70.3306 15.0772C72.832 15.0772 74.8643 13.0203 74.8643 10.5538C74.8643 8.0524 72.832 6.03897 70.3306 6.03897L35.2178 6.03897C32.7598 6.03897 30.6944 8.0524 30.6944 10.5538C30.6944 13.0203 32.7512 15.0772 35.2092 15.0772Z"/>
  </g>
  <g id="Regular-M" transform="matrix(1 0 0 1 1398.16 1126)">
   <path d="M51.7441-5.96435C73.3683-5.96435 90.9026-23.4881 90.9026-45.1957C90.9026-66.8823 73.3683-84.4578 51.7441-84.4578C30.047-84.4578 12.4609-66.8823 12.4609-45.1957C12.4609-23.4881 30.047-5.96435 51.7441-5.96435ZM51.7441-21.7053C38.6028-21.7053 28.2642-32.0957 28.2642-45.1957C28.2642-58.3265 38.6028-68.665 51.7441-68.665C64.8231-68.665 75.1511-58.3265 75.1511-45.1957C75.1511-32.0957 64.8231-21.7053 51.7441-21.7053ZM51.7441-34.2341C57.8163-34.2341 62.5705-39.1024 62.5705-45.1957C62.5705-51.2785 57.8163-56.1363 51.7441-56.1363C45.599-56.1363 40.793-51.2785 40.793-45.1957C40.793-39.1024 45.599-34.2341 51.7441-34.2341ZM47.8173 10.0098L55.6603 10.0098L55.6603-9.55946L47.8173-9.55946ZM34.6354 13.9365L68.7799 13.9365C70.9556 13.9365 72.7066 12.1442 72.7066 10.0098C72.7066 7.8341 70.9556 6.09357 68.7799 6.09357L34.6459 6.09357C32.522 6.09357 30.7192 7.8341 30.7192 10.0098C30.7192 12.1442 32.5115 13.9365 34.6354 13.9365Z"/>
  </g>
  <g id="Light-M" transform="matrix(1 0 0 1 1102.51 1126)">
   <path d="M50.6832-6.75145C71.7086-6.75145 88.7809-23.7961 88.7809-44.9391C88.7809-66.0268 71.7086-83.106 50.6832-83.106C29.5678-83.106 12.4609-66.0268 12.4609-44.9391C12.4609-23.7961 29.5678-6.75145 50.6832-6.75145ZM50.6832-22.3555C38.0552-22.3555 28.1273-32.3181 28.1273-44.9391C28.1273-57.5394 38.0552-67.4673 50.6832-67.4673C63.2488-67.4673 73.1491-57.5394 73.1491-44.9391C73.1491-32.3181 63.2488-22.3555 50.6832-22.3555ZM50.6832-34.3881C56.4987-34.3881 61.0819-39.0682 61.0819-44.9391C61.0819-50.7823 56.4987-55.4347 50.6832-55.4347C44.7777-55.4347 40.1599-50.7823 40.1599-44.9391C40.1599-39.0682 44.7777-34.3881 50.6832-34.3881ZM47.6633 9.56487L53.6754 9.56487L53.6754-9.50813L47.6633-9.50813ZM34.0194 12.5847L67.257 12.5847C68.9194 12.5847 70.2769 11.2202 70.2769 9.56487C70.2769 7.90254 68.9194 6.57268 67.257 6.57268L34.0471 6.57268C32.4194 6.57268 31.0272 7.90254 31.0272 9.56487C31.0272 11.2202 32.3917 12.5847 34.0194 12.5847Z"/>
  </g>
  <g id="Thin-M" transform="matrix(1 0 0 1 807.204 1126)">
   <path d="M49.2801-7.79246C69.5134-7.79246 85.9747-24.2034 85.9747-44.5996C85.9747-64.8952 69.5134-81.3182 49.2801-81.3182C28.9342-81.3182 12.4609-64.8952 12.4609-44.5996C12.4609-24.2034 28.9342-7.79246 49.2801-7.79246ZM49.2801-23.2155C37.3311-23.2155 27.9463-32.6123 27.9463-44.5996C27.9463-56.4984 37.3311-65.8831 49.2801-65.8831C61.1668-65.8831 70.5013-56.4984 70.5013-44.5996C70.5013-32.6123 61.1668-23.2155 49.2801-23.2155ZM49.2801-34.5918C54.7562-34.5918 59.113-39.023 59.113-44.5996C59.113-50.126 54.7562-54.5069 49.2801-54.5069C43.6914-54.5069 39.3226-50.126 39.3226-44.5996C39.3226-39.023 43.6914-34.5918 49.2801-34.5918ZM47.4597 8.97648L51.0502 8.97648L51.0502-9.44024L47.4597-9.44024ZM33.2047 10.7969L65.2429 10.7969C66.2263 10.7969 67.0633 9.99817 67.0633 8.97648C67.0633 7.99306 66.2263 7.20634 65.2429 7.20634L33.255 7.20634C32.2836 7.20634 31.4346 7.99306 31.4346 8.97648C31.4346 9.99817 32.2333 10.7969 33.2047 10.7969Z"/>
  </g>
  <g id="Ultralight-M" transform="matrix(1 0 0 1 511.212 1126)">
   <path d="M48.5614-8.32566C68.3891-8.32566 84.5373-24.4121 84.5373-44.4257C84.5373-64.3157 68.3891-80.4025 48.5614-80.4025C28.6096-80.4025 12.4609-64.3157 12.4609-44.4257C12.4609-24.4121 28.6096-8.32566 48.5614-8.32566ZM48.5614-23.656C36.9601-23.656 27.8536-32.763 27.8536-44.4257C27.8536-55.9652 36.9601-65.0717 48.5614-65.0717C60.1004-65.0717 69.1451-55.9652 69.1451-44.4257C69.1451-32.763 60.1004-23.656 48.5614-23.656ZM48.5614-34.6961C53.8637-34.6961 58.1046-38.9998 58.1046-44.4257C58.1046-49.7898 53.8637-54.0316 48.5614-54.0316C43.135-54.0316 38.8937-49.7898 38.8937-44.4257C38.8937-38.9998 43.135-34.6961 48.5614-34.6961ZM47.3554 8.6751L49.7057 8.6751L49.7057-9.40546L47.3554-9.40546ZM32.7874 9.8812L64.2113 9.8812C64.847 9.8812 65.4174 9.37224 65.4174 8.6751C65.4174 8.03943 64.847 7.53089 64.2113 7.53089L32.8493 7.53089C32.214 7.53089 31.6432 8.03943 31.6432 8.6751C31.6432 9.37224 32.1522 9.8812 32.7874 9.8812Z"/>
  </g>
  <g id="Black-S" transform="matrix(1 0 0 1 2887.87 696)">
   <path d="M45.5566-7.51953C65.332-7.51953 81.2988-23.584 81.2988-43.3105C81.2988-63.1348 65.332-79.1504 45.5566-79.1504C25.7324-79.1504 9.76562-63.1348 9.76562-43.3105C9.76562-23.584 25.7324-7.51953 45.5566-7.51953ZM45.5566-23.9746C34.7168-23.9746 26.1719-32.5195 26.1719-43.3594C26.1719-54.1992 34.7168-62.6953 45.5566-62.6953C56.3965-62.6953 64.8926-54.1992 64.8926-43.3594C64.8926-32.5195 56.3965-23.9746 45.5566-23.9746ZM45.5566-36.7676C49.2188-36.7676 52.0996-39.6973 52.0996-43.3594C52.0996-47.0215 49.2188-49.9023 45.5566-49.9023C41.8945-49.9023 38.9648-47.0215 38.9648-43.3594C38.9648-39.6973 41.8945-36.7676 45.5566-36.7676ZM39.6484 2.7832L51.416 2.7832L51.416-14.9902L39.6484-14.9902ZM29.834 8.64258L61.1816 8.64258C64.4043 8.64258 67.0898 6.00586 67.0898 2.7832C67.0898-0.439453 64.4043-3.07617 61.1816-3.07617L29.834-3.07617C26.6113-3.07617 23.9746-0.439453 23.9746 2.7832C23.9746 6.00586 26.6113 8.64258 29.834 8.64258Z"/>
  </g>
  <g id="Heavy-S" transform="matrix(1 0 0 1 2592.22 696)">
   <path d="M44.4964-8.55673C63.6725-8.55673 79.1668-24.1256 79.1668-43.276C79.1668-62.5009 63.6725-78.044 44.4964-78.044C25.2714-78.044 9.76562-62.5009 9.76562-43.276C9.76562-24.1256 25.2714-8.55673 44.4964-8.55673ZM44.4964-24.0553C33.7257-24.0553 25.2384-32.5541 25.2384-43.3133C25.2384-54.084 33.7257-62.534 44.4964-62.534C55.2556-62.534 63.7056-54.084 63.7056-43.3133C63.7056-32.5541 55.2556-24.0553 44.4964-24.0553ZM44.4964-36.2029C48.4466-36.2029 51.5464-39.3631 51.5464-43.3133C51.5464-47.2635 48.4466-50.3864 44.4964-50.3864C40.5346-50.3864 37.386-47.2635 37.386-43.3133C37.386-39.3631 40.5346-36.2029 44.4964-36.2029ZM39.1529 2.23003L49.8026 2.23003L49.8026-15.0248L39.1529-15.0248ZM29.2693 7.53623L59.6374 7.53623C62.5604 7.53623 64.9809 5.14152 64.9809 2.23003C64.9809-0.692991 62.5604-3.07617 59.6374-3.07617L29.2693-3.07617C26.3578-3.07617 23.9631-0.692991 23.9631 2.23003C23.9631 5.14152 26.3578 7.53623 29.2693 7.53623Z"/>
  </g>
  <g id="Bold-S" transform="matrix(1 0 0 1 2296.7 696)">
   <path d="M43.3105-9.7168C61.8164-9.7168 76.7822-24.7314 76.7822-43.2373C76.7822-61.792 61.8164-76.8066 43.3105-76.8066C24.7559-76.8066 9.76562-61.792 9.76562-43.2373C9.76562-24.7314 24.7559-9.7168 43.3105-9.7168ZM43.3105-24.1455C32.6172-24.1455 24.1943-32.5928 24.1943-43.2617C24.1943-53.9551 32.6172-62.3535 43.3105-62.3535C53.9795-62.3535 62.3779-53.9551 62.3779-43.2617C62.3779-32.5928 53.9795-24.1455 43.3105-24.1455ZM43.3105-35.5713C47.583-35.5713 50.9277-38.9893 50.9277-43.2617C50.9277-47.5342 47.583-50.9277 43.3105-50.9277C39.0137-50.9277 35.6201-47.5342 35.6201-43.2617C35.6201-38.9893 39.0137-35.5713 43.3105-35.5713ZM38.5986 1.61133L47.998 1.61133L47.998-15.0635L38.5986-15.0635ZM28.6377 6.29883L57.9102 6.29883C60.498 6.29883 62.6221 4.1748 62.6221 1.61133C62.6221-0.976562 60.498-3.07617 57.9102-3.07617L28.6377-3.07617C26.0742-3.07617 23.9502-0.976562 23.9502 1.61133C23.9502 4.1748 26.0742 6.29883 28.6377 6.29883Z"/>
  </g>
  <g id="Semibold-S" transform="matrix(1 0 0 1 2000.81 696)">
   <path d="M42.493-10.5166C60.5367-10.5166 75.1382-25.1491 75.1382-43.2106C75.1382-61.3032 60.5367-75.9535 42.493-75.9535C24.4004-75.9535 9.76562-61.3032 9.76562-43.2106C9.76562-25.1491 24.4004-10.5166 42.493-10.5166ZM42.493-24.2077C31.8529-24.2077 23.4745-32.6194 23.4745-43.2262C23.4745-53.8662 31.8529-62.2291 42.493-62.2291C53.0997-62.2291 61.4626-53.8662 61.4626-43.2262C61.4626-32.6194 53.0997-24.2077 42.493-24.2077ZM42.493-35.1358C46.9876-35.1358 50.5012-38.7315 50.5012-43.2262C50.5012-47.7208 46.9876-51.301 42.493-51.301C37.965-51.301 34.4026-47.7208 34.4026-43.2262C34.4026-38.7315 37.965-35.1358 42.493-35.1358ZM38.2165 1.18477L46.7539 1.18477L46.7539-15.0901L38.2165-15.0901ZM28.2022 5.4457L56.7193 5.4457C59.0762 5.4457 60.9958 3.5083 60.9958 1.18477C60.9958-1.17207 59.0762-3.07617 56.7193-3.07617L28.2022-3.07617C25.8787-3.07617 23.9413-1.17207 23.9413 1.18477C23.9413 3.5083 25.8787 5.4457 28.2022 5.4457Z"/>
  </g>
  <g id="Medium-S" transform="matrix(1 0 0 1 1704.73 696)">
   <path d="M41.873-11.123C59.5664-11.123 73.8916-25.4658 73.8916-43.1904C73.8916-60.9326 59.5664-75.3066 41.873-75.3066C24.1309-75.3066 9.76562-60.9326 9.76562-43.1904C9.76562-25.4658 24.1309-11.123 41.873-11.123ZM41.873-24.2549C31.2734-24.2549 22.9287-32.6396 22.9287-43.1992C22.9287-53.7988 31.2734-62.1348 41.873-62.1348C52.4326-62.1348 60.7686-53.7988 60.7686-43.1992C60.7686-32.6396 52.4326-24.2549 41.873-24.2549ZM41.873-34.8057C46.5361-34.8057 50.1777-38.5361 50.1777-43.1992C50.1777-47.8623 46.5361-51.584 41.873-51.584C37.1699-51.584 33.4795-47.8623 33.4795-43.1992C33.4795-38.5361 37.1699-34.8057 41.873-34.8057ZM37.9268 0.861328L45.8105 0.861328L45.8105-15.1104L37.9268-15.1104ZM27.8721 4.79883L55.8164 4.79883C57.998 4.79883 59.7627 3.00293 59.7627 0.861328C59.7627-1.32031 57.998-3.07617 55.8164-3.07617L27.8721-3.07617C25.7305-3.07617 23.9346-1.32031 23.9346 0.861328C23.9346 3.00293 25.7305 4.79883 27.8721 4.79883Z"/>
  </g>
  <g id="Regular-S" transform="matrix(1 0 0 1 1408.83 696)">
   <path d="M41.0645-11.9141C58.3008-11.9141 72.2656-25.8789 72.2656-43.1641C72.2656-60.4492 58.3008-74.4629 41.0645-74.4629C23.7793-74.4629 9.76562-60.4492 9.76562-43.1641C9.76562-25.8789 23.7793-11.9141 41.0645-11.9141ZM41.0645-24.3164C30.5176-24.3164 22.2168-32.666 22.2168-43.1641C22.2168-53.7109 30.5176-62.0117 41.0645-62.0117C51.5625-62.0117 59.8633-53.7109 59.8633-43.1641C59.8633-32.666 51.5625-24.3164 41.0645-24.3164ZM41.0645-34.375C45.9473-34.375 49.7559-38.2812 49.7559-43.1641C49.7559-48.0469 45.9473-51.9531 41.0645-51.9531C36.1328-51.9531 32.2754-48.0469 32.2754-43.1641C32.2754-38.2812 36.1328-34.375 41.0645-34.375ZM37.5488 0.439453L44.5801 0.439453L44.5801-15.1367L37.5488-15.1367ZM27.4414 3.95508L54.6387 3.95508C56.5918 3.95508 58.1543 2.34375 58.1543 0.439453C58.1543-1.51367 56.5918-3.07617 54.6387-3.07617L27.4414-3.07617C25.5371-3.07617 23.9258-1.51367 23.9258 0.439453C23.9258 2.34375 25.5371 3.95508 27.4414 3.95508Z"/>
  </g>
  <g id="Light-S" transform="matrix(1 0 0 1 1113.06 696)">
   <path d="M40.126-12.6103C56.8325-12.6103 70.3887-26.1514 70.3887-42.937C70.3887-59.6924 56.8325-73.2671 40.126-73.2671C23.3555-73.2671 9.76562-59.6924 9.76562-42.937C9.76562-26.1514 23.3555-12.6103 40.126-12.6103ZM40.126-24.8916C30.0332-24.8916 22.0957-32.8628 22.0957-42.937C22.0957-53.0147 30.0332-60.9522 40.126-60.9522C50.1699-60.9522 58.0923-53.0147 58.0923-42.937C58.0923-32.8628 50.1699-24.8916 40.126-24.8916ZM40.126-34.5112C44.7817-34.5112 48.439-38.251 48.439-42.937C48.439-47.6079 44.7817-51.3325 40.126-51.3325C35.4063-51.3325 31.7153-47.6079 31.7153-42.937C31.7153-38.251 35.4063-34.5112 40.126-34.5112ZM37.4126 0.0459015L42.8242 0.0459015L42.8242-15.0913L37.4126-15.0913ZM26.8965 2.75929L53.2915 2.75929C54.7905 2.75929 56.0049 1.52637 56.0049 0.0459015C56.0049-1.45313 54.7905-2.65235 53.2915-2.65235L26.9116-2.65235C25.4463-2.65235 24.1982-1.45313 24.1982 0.0459015C24.1982 1.52637 25.4312 2.75929 26.8965 2.75929Z"/>
  </g>
  <g id="Thin-S" transform="matrix(1 0 0 1 817.586 696)">
   <path d="M38.8848-13.5312C54.8907-13.5312 67.9063-26.5117 67.9063-42.6367C67.9063-58.6914 54.8907-71.6856 38.8848-71.6856C22.7949-71.6856 9.76562-58.6914 9.76562-42.6367C9.76562-26.5117 22.7949-13.5312 38.8848-13.5312ZM38.8848-25.6523C29.3926-25.6523 21.9355-33.123 21.9355-42.6367C21.9355-52.0938 29.3926-59.5508 38.8848-59.5508C48.3282-59.5508 55.75-52.0938 55.75-42.6367C55.75-33.123 48.3282-25.6523 38.8848-25.6523ZM38.8848-34.6914C43.2403-34.6914 46.6973-38.2109 46.6973-42.6367C46.6973-47.0274 43.2403-50.5117 38.8848-50.5117C34.4453-50.5117 30.9746-47.0274 30.9746-42.6367C30.9746-38.2109 34.4453-34.6914 38.8848-34.6914ZM37.2324-0.474602L40.502-0.474602L40.502-15.0313L37.2324-15.0313ZM26.1758 1.17776L51.5098 1.17776C52.4082 1.17776 53.1621 0.445327 53.1621-0.474602C53.1621-1.37305 52.4082-2.0918 51.5098-2.0918L26.2109-2.0918C25.3262-2.0918 24.5586-1.37305 24.5586-0.474602C24.5586 0.445327 25.291 1.17776 26.1758 1.17776Z"/>
  </g>
  <g id="Ultralight-S" transform="matrix(1 0 0 1 521.511 696)">
   <path d="M38.249-14.0029C53.896-14.0029 66.6348-26.6963 66.6348-42.4829C66.6348-58.1787 53.896-70.8755 38.249-70.8755C22.5078-70.8755 9.76562-58.1787 9.76562-42.4829C9.76562-26.6963 22.5078-14.0029 38.249-14.0029ZM38.249-26.042C29.0645-26.042 21.8535-33.2563 21.8535-42.4829C21.8535-51.6221 29.0645-58.833 38.249-58.833C47.3848-58.833 54.5503-51.6221 54.5503-42.4829C54.5503-33.2563 47.3848-26.042 38.249-26.042ZM38.249-34.7837C42.4507-34.7837 45.8052-38.1904 45.8052-42.4829C45.8052-46.73 42.4507-50.0913 38.249-50.0913C33.9531-50.0913 30.5952-46.73 30.5952-42.4829C30.5952-38.1904 33.9531-34.7837 38.249-34.7837ZM37.1401-0.741202L39.3125-0.741202L39.3125-15.0005L37.1401-15.0005ZM25.8067 0.367704L50.5972 0.367704C51.188 0.367704 51.7061-0.108379 51.7061-0.741202C51.7061-1.33203 51.188-1.8047 50.5972-1.8047L25.8521-1.8047C25.2647-1.8047 24.7432-1.33203 24.7432-0.741202C24.7432-0.108379 25.2192 0.367704 25.8067 0.367704Z"/>
  </g>
 </g>
</svg>
