<?xml version="1.0" encoding="UTF-8"?>
<!--Generator: Apple Native CoreSVG 175-->
<!DOCTYPE svg
PUBLIC "-//W3C//DTD SVG 1.1//EN"
       "http://www.w3.org/Graphics/SVG/1.1/DTD/svg11.dtd">
<svg version="1.1" xmlns="http://www.w3.org/2000/svg" xmlns:xlink="http://www.w3.org/1999/xlink" width="3300" height="2200">
 <!--glyph: "uni100B13.medium", point size: 100.0, font version: "17.3d3e1", template writer version: "65.1"-->
 <g id="Notes">
  <rect height="2200" id="artboard" style="fill:white;opacity:1" width="3300" x="0" y="0"/>
  <line style="fill:none;stroke:black;opacity:1;stroke-width:0.5;" x1="263" x2="3036" y1="292" y2="292"/>
  <text style="stroke:none;fill:black;font-family:sans-serif;font-size:13;font-weight:bold;" transform="matrix(1 0 0 1 263 322)">Weight/Scale Variations</text>
  <text style="stroke:none;fill:black;font-family:sans-serif;font-size:13;text-anchor:middle;" transform="matrix(1 0 0 1 559.711 322)">Ultralight</text>
  <text style="stroke:none;fill:black;font-family:sans-serif;font-size:13;text-anchor:middle;" transform="matrix(1 0 0 1 856.422 322)">Thin</text>
  <text style="stroke:none;fill:black;font-family:sans-serif;font-size:13;text-anchor:middle;" transform="matrix(1 0 0 1 1153.13 322)">Light</text>
  <text style="stroke:none;fill:black;font-family:sans-serif;font-size:13;text-anchor:middle;" transform="matrix(1 0 0 1 1449.84 322)">Regular</text>
  <text style="stroke:none;fill:black;font-family:sans-serif;font-size:13;text-anchor:middle;" transform="matrix(1 0 0 1 1746.56 322)">Medium</text>
  <text style="stroke:none;fill:black;font-family:sans-serif;font-size:13;text-anchor:middle;" transform="matrix(1 0 0 1 2043.27 322)">Semibold</text>
  <text style="stroke:none;fill:black;font-family:sans-serif;font-size:13;text-anchor:middle;" transform="matrix(1 0 0 1 2339.98 322)">Bold</text>
  <text style="stroke:none;fill:black;font-family:sans-serif;font-size:13;text-anchor:middle;" transform="matrix(1 0 0 1 2636.69 322)">Heavy</text>
  <text style="stroke:none;fill:black;font-family:sans-serif;font-size:13;text-anchor:middle;" transform="matrix(1 0 0 1 2933.4 322)">Black</text>
  <line style="fill:none;stroke:black;opacity:1;stroke-width:0.5;" x1="263" x2="3036" y1="1903" y2="1903"/>
  <g transform="matrix(1 0 0 1 263 1933)">
   <path d="M9.24805 0.830078Q10.8691 0.830078 12.2949 0.214844Q13.7207-0.400391 14.8096-1.49414Q15.8984-2.58789 16.5186-4.01367Q17.1387-5.43945 17.1387-7.05078Q17.1387-8.66211 16.5186-10.0879Q15.8984-11.5137 14.8047-12.6074Q13.7109-13.7012 12.2852-14.3164Q10.8594-14.9316 9.23828-14.9316Q7.62695-14.9316 6.20117-14.3164Q4.77539-13.7012 3.69141-12.6074Q2.60742-11.5137 1.9873-10.0879Q1.36719-8.66211 1.36719-7.05078Q1.36719-5.43945 1.9873-4.01367Q2.60742-2.58789 3.69629-1.49414Q4.78516-0.400391 6.21094 0.214844Q7.63672 0.830078 9.24805 0.830078ZM9.24805-0.654297Q7.91992-0.654297 6.7627-1.14746Q5.60547-1.64062 4.73145-2.51953Q3.85742-3.39844 3.36426-4.56055Q2.87109-5.72266 2.87109-7.05078Q2.87109-8.37891 3.35938-9.54102Q3.84766-10.7031 4.72168-11.582Q5.5957-12.4609 6.75293-12.9541Q7.91016-13.4473 9.23828-13.4473Q10.5762-13.4473 11.7334-12.9541Q12.8906-12.4609 13.7695-11.582Q14.6484-10.7031 15.1465-9.54102Q15.6445-8.37891 15.6445-7.05078Q15.6445-5.72266 15.1514-4.56055Q14.6582-3.39844 13.7842-2.51953Q12.9102-1.64062 11.748-1.14746Q10.5859-0.654297 9.24805-0.654297ZM5.6543-7.05078Q5.6543-6.72852 5.85938-6.52832Q6.06445-6.32812 6.40625-6.32812L8.51562-6.32812L8.51562-4.20898Q8.51562-3.88672 8.71094-3.67676Q8.90625-3.4668 9.23828-3.4668Q9.56055-3.4668 9.77051-3.67676Q9.98047-3.88672 9.98047-4.20898L9.98047-6.32812L12.0898-6.32812Q12.4219-6.32812 12.627-6.52832Q12.832-6.72852 12.832-7.05078Q12.832-7.38281 12.627-7.58789Q12.4219-7.79297 12.0898-7.79297L9.98047-7.79297L9.98047-9.90234Q9.98047-10.2344 9.77051-10.4443Q9.56055-10.6543 9.23828-10.6543Q8.90625-10.6543 8.71094-10.4443Q8.51562-10.2344 8.51562-9.90234L8.51562-7.79297L6.40625-7.79297Q6.06445-7.79297 5.85938-7.58789Q5.6543-7.38281 5.6543-7.05078Z"/>
  </g>
  <g transform="matrix(1 0 0 1 281.867 1933)">
   <path d="M11.709 2.91016Q13.75 2.91016 15.5518 2.12891Q17.3535 1.34766 18.7305-0.0292969Q20.1074-1.40625 20.8887-3.20801Q21.6699-5.00977 21.6699-7.05078Q21.6699-9.0918 20.8887-10.8936Q20.1074-12.6953 18.7305-14.0723Q17.3535-15.4492 15.5469-16.2305Q13.7402-17.0117 11.6992-17.0117Q9.6582-17.0117 7.85645-16.2305Q6.05469-15.4492 4.68262-14.0723Q3.31055-12.6953 2.5293-10.8936Q1.74805-9.0918 1.74805-7.05078Q1.74805-5.00977 2.5293-3.20801Q3.31055-1.40625 4.6875-0.0292969Q6.06445 1.34766 7.86621 2.12891Q9.66797 2.91016 11.709 2.91016ZM11.709 1.25Q9.98047 1.25 8.47656 0.605469Q6.97266-0.0390625 5.83496-1.17676Q4.69727-2.31445 4.05762-3.81836Q3.41797-5.32227 3.41797-7.05078Q3.41797-8.7793 4.05762-10.2832Q4.69727-11.7871 5.83008-12.9297Q6.96289-14.0723 8.4668-14.7119Q9.9707-15.3516 11.6992-15.3516Q13.4277-15.3516 14.9316-14.7119Q16.4355-14.0723 17.5781-12.9297Q18.7207-11.7871 19.3652-10.2832Q20.0098-8.7793 20.0098-7.05078Q20.0098-5.32227 19.3701-3.81836Q18.7305-2.31445 17.5928-1.17676Q16.4551-0.0390625 14.9463 0.605469Q13.4375 1.25 11.709 1.25ZM7.17773-7.05078Q7.17773-6.69922 7.41211-6.47461Q7.64648-6.25 8.01758-6.25L10.8887-6.25L10.8887-3.36914Q10.8887-2.99805 11.1133-2.76855Q11.3379-2.53906 11.6895-2.53906Q12.0605-2.53906 12.29-2.76855Q12.5195-2.99805 12.5195-3.36914L12.5195-6.25L15.4004-6.25Q15.7715-6.25 16.001-6.47461Q16.2305-6.69922 16.2305-7.05078Q16.2305-7.42188 16.001-7.65137Q15.7715-7.88086 15.4004-7.88086L12.5195-7.88086L12.5195-10.752Q12.5195-11.1328 12.29-11.3623Q12.0605-11.5918 11.6895-11.5918Q11.3379-11.5918 11.1133-11.3574Q10.8887-11.123 10.8887-10.752L10.8887-7.88086L8.01758-7.88086Q7.63672-7.88086 7.40723-7.65137Q7.17773-7.42188 7.17773-7.05078Z"/>
  </g>
  <g transform="matrix(1 0 0 1 305.646 1933)">
   <path d="M14.9707 5.66406Q17.0605 5.66406 18.96 5.01465Q20.8594 4.36523 22.4512 3.19336Q24.043 2.02148 25.2197 0.429688Q26.3965-1.16211 27.0459-3.06641Q27.6953-4.9707 27.6953-7.05078Q27.6953-9.14062 27.0459-11.04Q26.3965-12.9395 25.2197-14.5312Q24.043-16.123 22.4512-17.2998Q20.8594-18.4766 18.9551-19.126Q17.0508-19.7754 14.9609-19.7754Q12.8711-19.7754 10.9717-19.126Q9.07227-18.4766 7.48535-17.2998Q5.89844-16.123 4.72168-14.5312Q3.54492-12.9395 2.90039-11.04Q2.25586-9.14062 2.25586-7.05078Q2.25586-4.9707 2.90527-3.06641Q3.55469-1.16211 4.72656 0.429688Q5.89844 2.02148 7.49023 3.19336Q9.08203 4.36523 10.9814 5.01465Q12.8809 5.66406 14.9707 5.66406ZM14.9707 3.84766Q13.1641 3.84766 11.5283 3.2959Q9.89258 2.74414 8.53516 1.74805Q7.17773 0.751953 6.17676-0.610352Q5.17578-1.97266 4.62891-3.6084Q4.08203-5.24414 4.08203-7.05078Q4.08203-8.86719 4.62891-10.5029Q5.17578-12.1387 6.17188-13.501Q7.16797-14.8633 8.52539-15.8594Q9.88281-16.8555 11.5186-17.4023Q13.1543-17.9492 14.9609-17.9492Q16.7773-17.9492 18.4131-17.4023Q20.0488-16.8555 21.4111-15.8594Q22.7734-14.8633 23.7695-13.501Q24.7656-12.1387 25.3174-10.5029Q25.8691-8.86719 25.8691-7.05078Q25.8789-5.24414 25.332-3.6084Q24.7852-1.97266 23.7842-0.610352Q22.7832 0.751953 21.4209 1.74805Q20.0586 2.74414 18.4229 3.2959Q16.7871 3.84766 14.9707 3.84766ZM9.19922-7.05078Q9.19922-6.66992 9.45801-6.4209Q9.7168-6.17188 10.1172-6.17188L14.0625-6.17188L14.0625-2.2168Q14.0625-1.81641 14.3115-1.55762Q14.5605-1.29883 14.9512-1.29883Q15.3516-1.29883 15.6104-1.55273Q15.8691-1.80664 15.8691-2.2168L15.8691-6.17188L19.8242-6.17188Q20.2246-6.17188 20.4785-6.4209Q20.7324-6.66992 20.7324-7.05078Q20.7324-7.46094 20.4785-7.71484Q20.2246-7.96875 19.8242-7.96875L15.8691-7.96875L15.8691-11.9141Q15.8691-12.3242 15.6104-12.583Q15.3516-12.8418 14.9512-12.8418Q14.5605-12.8418 14.3115-12.583Q14.0625-12.3242 14.0625-11.9141L14.0625-7.96875L10.1172-7.96875Q9.70703-7.96875 9.45312-7.71484Q9.19922-7.46094 9.19922-7.05078Z"/>
  </g>
  <text style="stroke:none;fill:black;font-family:sans-serif;font-size:13;font-weight:bold;" transform="matrix(1 0 0 1 263 1953)">Design Variations</text>
  <text style="stroke:none;fill:black;font-family:sans-serif;font-size:13;" transform="matrix(1 0 0 1 263 1971)">Symbols are supported in up to nine weights and three scales.</text>
  <text style="stroke:none;fill:black;font-family:sans-serif;font-size:13;" transform="matrix(1 0 0 1 263 1989)">For optimal layout with text and other symbols, vertically align</text>
  <text style="stroke:none;fill:black;font-family:sans-serif;font-size:13;" transform="matrix(1 0 0 1 263 2007)">symbols with the adjacent text.</text>
  <line style="fill:none;stroke:#00AEEF;stroke-width:0.5;opacity:1.0;" x1="776" x2="776" y1="1919" y2="1933"/>
  <g transform="matrix(1 0 0 1 776 1933)">
   <path d="M3.31055 0.15625Q3.70117 0.15625 3.91602-0.00976562Q4.13086-0.175781 4.26758-0.585938L5.52734-4.0332L11.2891-4.0332L12.5488-0.585938Q12.6855-0.175781 12.9004-0.00976562Q13.1152 0.15625 13.4961 0.15625Q13.8867 0.15625 14.1162-0.0585938Q14.3457-0.273438 14.3457-0.644531Q14.3457-0.869141 14.2383-1.17188L9.6582-13.3691Q9.48242-13.8184 9.17969-14.043Q8.87695-14.2676 8.4082-14.2676Q7.5-14.2676 7.17773-13.3789L2.59766-1.16211Q2.49023-0.859375 2.49023-0.634766Q2.49023-0.263672 2.70996-0.0537109Q2.92969 0.15625 3.31055 0.15625ZM6.00586-5.51758L8.37891-12.0898L8.42773-12.0898L10.8008-5.51758Z"/>
  </g>
  <line style="fill:none;stroke:#00AEEF;stroke-width:0.5;opacity:1.0;" x1="793.197" x2="793.197" y1="1919" y2="1933"/>
  <text style="stroke:none;fill:black;font-family:sans-serif;font-size:13;font-weight:bold;" transform="matrix(1 0 0 1 776 1953)">Margins</text>
  <text style="stroke:none;fill:black;font-family:sans-serif;font-size:13;" transform="matrix(1 0 0 1 776 1971)">Leading and trailing margins on the left and right side of each symbol</text>
  <text style="stroke:none;fill:black;font-family:sans-serif;font-size:13;" transform="matrix(1 0 0 1 776 1989)">can be adjusted by modifying the x-location of the margin guidelines.</text>
  <text style="stroke:none;fill:black;font-family:sans-serif;font-size:13;" transform="matrix(1 0 0 1 776 2007)">Modifications are automatically applied proportionally to all</text>
  <text style="stroke:none;fill:black;font-family:sans-serif;font-size:13;" transform="matrix(1 0 0 1 776 2025)">scales and weights.</text>
  <g transform="matrix(1 0 0 1 1289 1933)">
   <path d="M2.8418 1.86523L4.54102 3.57422Q5.18555 4.22852 5.90332 4.17969Q6.62109 4.13086 7.31445 3.35938L18.0078-8.42773L17.041-9.4043L6.42578 2.27539Q6.16211 2.57812 5.89355 2.61719Q5.625 2.65625 5.27344 2.30469L4.10156 1.14258Q3.75 0.791016 3.79395 0.522461Q3.83789 0.253906 4.14062-0.0195312L15.6152-10.8203L14.6387-11.7871L3.04688-0.898438Q2.30469-0.214844 2.25098 0.498047Q2.19727 1.21094 2.8418 1.86523ZM9.25781-16.3281Q8.94531-16.0254 8.90625-15.6348Q8.86719-15.2441 9.04297-14.9512Q9.21875-14.6777 9.55566-14.541Q9.89258-14.4043 10.3809-14.5215Q11.4746-14.7754 12.5977-14.7314Q13.7207-14.6875 14.7949-13.9844L14.209-12.5293Q13.9551-11.9043 14.0674-11.4404Q14.1797-10.9766 14.5801-10.5664L16.875-8.25195Q17.2363-7.88086 17.5781-7.82227Q17.9199-7.76367 18.3398-7.8418L19.4043-8.03711L20.0684-7.36328L20.0293-6.80664Q20-6.43555 20.1221-6.12305Q20.2441-5.81055 20.6055-5.44922L21.3672-4.70703Q21.7285-4.3457 22.1533-4.33105Q22.5781-4.31641 22.9297-4.66797L25.8398-7.58789Q26.1914-7.93945 26.1816-8.35449Q26.1719-8.76953 25.8105-9.13086L25.0391-9.89258Q24.6875-10.2539 24.3799-10.3857Q24.0723-10.5176 23.7109-10.4883L23.1348-10.4395L22.4902-11.0742L22.7344-12.1973Q22.832-12.6172 22.6953-12.9834Q22.5586-13.3496 22.1191-13.7891L19.9219-15.9766Q18.6719-17.2168 17.2607-17.8369Q15.8496-18.457 14.4189-18.4814Q12.9883-18.5059 11.665-17.959Q10.3418-17.4121 9.25781-16.3281ZM10.752-15.957Q11.6602-16.6211 12.7002-16.9043Q13.7402-17.1875 14.8047-17.085Q15.8691-16.9824 16.8701-16.5137Q17.8711-16.0449 18.7012-15.2051L21.1328-12.793Q21.3086-12.6172 21.3525-12.4512Q21.3965-12.2852 21.3379-12.0312L21.0156-10.5469L22.5195-9.0625L23.5059-9.12109Q23.6914-9.13086 23.7891-9.09668Q23.8867-9.0625 24.0332-8.91602L24.6094-8.33984L22.168-5.89844L21.5918-6.47461Q21.4453-6.62109 21.4062-6.71875Q21.3672-6.81641 21.377-7.01172L21.4453-7.98828L19.9512-9.47266L18.4277-9.21875Q18.1836-9.16992 18.042-9.2041Q17.9004-9.23828 17.7148-9.41406L15.7129-11.416Q15.5176-11.5918 15.4932-11.7529Q15.4688-11.9141 15.5859-12.1875L16.4648-14.2773Q15.293-15.3711 13.8281-15.791Q12.3633-16.2109 10.8398-15.7617Q10.7227-15.7324 10.6885-15.8057Q10.6543-15.8789 10.752-15.957Z"/>
  </g>
  <text style="stroke:none;fill:black;font-family:sans-serif;font-size:13;font-weight:bold;" transform="matrix(1 0 0 1 1289 1953)">Exporting</text>
  <text style="stroke:none;fill:black;font-family:sans-serif;font-size:13;" transform="matrix(1 0 0 1 1289 1971)">Symbols should be outlined when exporting to ensure the</text>
  <text style="stroke:none;fill:black;font-family:sans-serif;font-size:13;" transform="matrix(1 0 0 1 1289 1989)">design is preserved when submitting to Xcode.</text>
  <text id="template-version" style="stroke:none;fill:black;font-family:sans-serif;font-size:13;text-anchor:end;" transform="matrix(1 0 0 1 3036 1933)">Template v.3.0</text>
  <text style="stroke:none;fill:black;font-family:sans-serif;font-size:13;text-anchor:end;" transform="matrix(1 0 0 1 3036 1951)">Requires Xcode 13 or greater</text>
  <text id="descriptive-name" style="stroke:none;fill:black;font-family:sans-serif;font-size:13;text-anchor:end;" transform="matrix(1 0 0 1 3036 1969)">Generated from books.vertical.fill</text>
  <text style="stroke:none;fill:black;font-family:sans-serif;font-size:13;text-anchor:end;" transform="matrix(1 0 0 1 3036 1987)">Typeset at 100 points</text>
  <text style="stroke:none;fill:black;font-family:sans-serif;font-size:13;" transform="matrix(1 0 0 1 263 726)">Small</text>
  <text style="stroke:none;fill:black;font-family:sans-serif;font-size:13;" transform="matrix(1 0 0 1 263 1156)">Medium</text>
  <text style="stroke:none;fill:black;font-family:sans-serif;font-size:13;" transform="matrix(1 0 0 1 263 1586)">Large</text>
 </g>
 <g id="Guides">
  <g id="H-reference" style="fill:#27AAE1;stroke:none;" transform="matrix(1 0 0 1 339 696)">
   <path d="M0.993347 0L3.6377 0L29.3282-67.1326L30.0301-67.1326L30.0301-70.459L28.1227-70.459ZM11.6882-24.4797L46.9818-24.4797L46.2311-26.7288L12.4382-26.7288ZM55.1193 0L57.7637 0L30.6381-70.459L29.4327-70.459L29.4327-67.1326Z"/>
  </g>
  <line id="Baseline-S" style="fill:none;stroke:#27AAE1;opacity:1;stroke-width:0.5;" x1="263" x2="3036" y1="696" y2="696"/>
  <line id="Capline-S" style="fill:none;stroke:#27AAE1;opacity:1;stroke-width:0.5;" x1="263" x2="3036" y1="625.541" y2="625.541"/>
  <g id="H-reference" style="fill:#27AAE1;stroke:none;" transform="matrix(1 0 0 1 339 1126)">
   <path d="M0.993347 0L3.6377 0L29.3282-67.1326L30.0301-67.1326L30.0301-70.459L28.1227-70.459ZM11.6882-24.4797L46.9818-24.4797L46.2311-26.7288L12.4382-26.7288ZM55.1193 0L57.7637 0L30.6381-70.459L29.4327-70.459L29.4327-67.1326Z"/>
  </g>
  <line id="Baseline-M" style="fill:none;stroke:#27AAE1;opacity:1;stroke-width:0.5;" x1="263" x2="3036" y1="1126" y2="1126"/>
  <line id="Capline-M" style="fill:none;stroke:#27AAE1;opacity:1;stroke-width:0.5;" x1="263" x2="3036" y1="1055.54" y2="1055.54"/>
  <g id="H-reference" style="fill:#27AAE1;stroke:none;" transform="matrix(1 0 0 1 339 1556)">
   <path d="M0.993347 0L3.6377 0L29.3282-67.1326L30.0301-67.1326L30.0301-70.459L28.1227-70.459ZM11.6882-24.4797L46.9818-24.4797L46.2311-26.7288L12.4382-26.7288ZM55.1193 0L57.7637 0L30.6381-70.459L29.4327-70.459L29.4327-67.1326Z"/>
  </g>
  <line id="Baseline-L" style="fill:none;stroke:#27AAE1;opacity:1;stroke-width:0.5;" x1="263" x2="3036" y1="1556" y2="1556"/>
  <line id="Capline-L" style="fill:none;stroke:#27AAE1;opacity:1;stroke-width:0.5;" x1="263" x2="3036" y1="1485.54" y2="1485.54"/>
  <line id="left-margin-Regular-M" style="fill:none;stroke:#00AEEF;stroke-width:0.5;opacity:1.0;" x1="1379" x2="1379" y1="1030.79" y2="1150.12"/>
  <line id="right-margin-Regular-M" style="fill:none;stroke:#00AEEF;stroke-width:0.5;opacity:1.0;" x1="1520.69" x2="1520.69" y1="1030.79" y2="1150.12"/>
 </g>
 <g id="Symbols">
  <g id="Black-L" transform="matrix(1 0 0 1 2829.05 1556)">
   <path d="M28.8136 35.1919L40.018 35.1919Q46.0423 35.1919 49.3949 31.807Q52.7476 28.4222 52.7476 22.461L52.7476-75.2855Q52.7476-81.3051 49.3949-84.6601Q46.0423-88.0152 40.018-88.0152L28.8136-88.0152Q22.8477-88.0152 19.4658-84.6601Q16.084-81.3051 16.084-75.2855L16.084 22.461Q16.084 28.4222 19.4658 31.807Q22.8477 35.1919 28.8136 35.1919ZM73.4297 35.1919L93.6614 35.1919Q99.7066 35.1919 103.059 31.807Q106.412 28.4222 106.412 22.461L106.412-50.3926Q106.412-56.4121 103.059-59.7677Q99.7066-63.1234 93.6614-63.1234L73.4297-63.1234Q67.4626-63.1234 64.0808-59.7677Q60.6989-56.4121 60.6989-50.3926L60.6989 22.461Q60.6989 28.4222 64.0808 31.807Q67.4626 35.1919 73.4297 35.1919ZM77.8622-36.1448Q75.6008-36.1448 74.034-37.6817Q72.4672-39.2187 72.4672-41.4009Q72.4672-43.6998 74.0048-45.2264Q75.5424-46.753 77.8622-46.753L89.5823-46.753Q92.2913-46.753 93.5848-45.2264Q94.8784-43.6998 94.8784-41.4009Q94.8784-39.2187 93.3512-37.6817Q91.824-36.1448 89.5823-36.1448ZM77.8622 18.8423Q75.5424 18.8423 74.0048 17.3053Q72.4672 15.7683 72.4672 13.5277Q72.4672 11.2872 74.034 9.73141Q75.6008 8.17563 77.8622 8.17563L89.5823 8.17563Q91.824 8.17563 93.3512 9.73141Q94.8784 11.2872 94.8784 13.5277Q94.8784 15.7683 93.3512 17.3053Q91.824 18.8423 89.5823 18.8423ZM127.094 35.1919L138.748 35.1919Q144.795 35.1919 148.147 31.807Q151.499 28.4222 151.499 22.461L151.499-94.2307Q151.499-100.25 148.147-103.605Q144.795-106.96 138.748-106.96L127.094-106.96Q121.107-106.96 117.736-103.605Q114.364-100.25 114.364-94.2307L114.364 22.461Q114.364 28.4222 117.736 31.807Q121.107 35.1919 127.094 35.1919ZM173.746 35.6107L181.265 34.7784Q187.231 34.1606 190.188 30.4391Q193.144 26.7176 192.546 20.7576L182.843-76.2481Q182.324-82.2677 178.577-85.2179Q174.83-88.1681 168.842-87.5491L161.324-86.7167Q155.357-86.177 152.431-82.4165Q149.505-78.656 150.043-72.6972L159.748 24.3098Q160.325 30.2697 164.042 33.2193Q167.76 36.1689 173.746 35.6107Z"/>
  </g>
  <g id="Heavy-L" transform="matrix(1 0 0 1 2535.61 1556)">
   <path d="M27.6454 34.4872L38.9453 34.4872Q44.4443 34.4872 47.4755 31.4196Q50.5067 28.352 50.5067 22.9202L50.5067-76.7943Q50.5067-82.2709 47.4755-85.3133Q44.4443-88.3557 38.9453-88.3557L27.6454-88.3557Q22.191-88.3557 19.1375-85.3133Q16.084-82.2709 16.084-76.7943L16.084 22.9202Q16.084 28.352 19.1375 31.4196Q22.191 34.4872 27.6454 34.4872ZM69.8252 34.4872L91.2254 34.4872Q96.7545 34.4872 99.7857 31.4196Q102.817 28.352 102.817 22.9202L102.817-52.7131Q102.817-58.1896 99.7857-61.2348Q96.7545-64.28 91.2254-64.28L69.8252-64.28Q64.3653-64.28 61.3117-61.2348Q58.2582-58.1896 58.2582-52.7131L58.2582 22.9202Q58.2582 28.352 61.3117 31.4196Q64.3653 34.4872 69.8252 34.4872ZM74.5616-38.4968Q72.4536-38.4968 70.9999-39.9254Q69.5462-41.354 69.5462-43.3871Q69.5462-45.5096 70.9776-46.9231Q72.409-48.3366 74.5616-48.3366L86.797-48.3366Q89.2373-48.3366 90.4751-46.9231Q91.7129-45.5096 91.7129-43.3871Q91.7129-41.354 90.2966-39.9254Q88.8803-38.4968 86.797-38.4968ZM74.5616 18.5739Q72.409 18.5739 70.9776 17.1453Q69.5462 15.7167 69.5462 13.6388Q69.5462 11.561 70.9999 10.1252Q72.4536 8.68945 74.5616 8.68945L86.797 8.68945Q88.8803 8.68945 90.2966 10.1252Q91.7129 11.561 91.7129 13.6388Q91.7129 15.7167 90.2966 17.1453Q88.8803 18.5739 86.797 18.5739ZM122.135 34.4872L134.601 34.4872Q140.135 34.4872 143.164 31.4196Q146.192 28.352 146.192 22.9202L146.192-95.3042Q146.192-100.781 143.164-103.823Q140.135-106.866 134.601-106.866L122.135-106.866Q116.651-106.866 113.612-103.823Q110.574-100.781 110.574-95.3042L110.574 22.9202Q110.574 28.352 113.612 31.4196Q116.651 34.4872 122.135 34.4872ZM167.728 34.8735L175.771 33.9238Q181.226 33.3331 183.895 29.968Q186.564 26.6029 185.997 21.1766L175.821-77.4107Q175.33-82.8873 171.959-85.5753Q168.588-88.2633 163.098-87.667L155.06-86.7172Q149.601-86.1957 146.957-82.796Q144.313-79.3963 144.829-73.9758L155.017 24.6174Q155.553 30.0436 158.898 32.7288Q162.243 35.414 167.728 34.8735Z"/>
  </g>
  <g id="Bold-L" transform="matrix(1 0 0 1 2242.97 1556)">
   <path d="M26.3573 33.656L37.6383 33.656Q42.5737 33.656 45.2427 30.9394Q47.9116 28.2227 47.9116 23.3696L47.9116-78.3858Q47.9116-83.2683 45.2427-85.9637Q42.5737-88.6591 37.6383-88.6591L26.3573-88.6591Q21.4511-88.6591 18.7675-85.9637Q16.084-83.2683 16.084-78.3858L16.084 23.3696Q16.084 28.2227 18.7675 30.9394Q21.4511 33.656 26.3573 33.656ZM65.6216 33.656L88.1685 33.656Q93.1417 33.656 95.8107 30.9394Q98.4796 28.2227 98.4796 23.3696L98.4796-55.2366Q98.4796-60.1191 95.8107-62.8211Q93.1417-65.523 88.1685-65.523L65.6216-65.523Q60.7024-65.523 58.0188-62.8211Q55.3353-60.1191 55.3353-55.2366L55.3353 23.3696Q55.3353 28.2227 58.0188 30.9394Q60.7024 33.656 65.6216 33.656ZM70.5483-41.342Q68.6546-41.342 67.3542-42.6212Q66.0537-43.9004 66.0537-45.7268Q66.0537-47.6116 67.3396-48.8719Q68.6254-50.1321 70.5483-50.1321L83.4885-50.1321Q85.5909-50.1321 86.7409-48.8719Q87.8909-47.6116 87.8909-45.7268Q87.8909-43.9004 86.6241-42.6212Q85.3572-41.342 83.4885-41.342ZM70.5483 18.303Q68.6254 18.303 67.3396 17.0238Q66.0537 15.7446 66.0537 13.8888Q66.0537 12.0332 67.3542 10.7585Q68.6546 9.48372 70.5483 9.48372L83.4885 9.48372Q85.3572 9.48372 86.6241 10.7585Q87.8909 12.0332 87.8909 13.8888Q87.8909 15.7446 86.6241 17.0238Q85.3572 18.303 83.4885 18.303ZM116.19 33.656L129.386 33.656Q134.372 33.656 137.035 30.9394Q139.697 28.2227 139.697 23.3696L139.697-96.2535Q139.697-101.136 137.035-103.831Q134.372-106.527 129.386-106.527L116.19-106.527Q111.245-106.527 108.581-103.831Q105.916-101.136 105.916-96.2535L105.916 23.3696Q105.916 28.2227 108.581 30.9394Q111.245 33.656 116.19 33.656ZM160.297 34.0114L168.777 32.9678Q173.683 32.4154 176.032 29.4436Q178.381 26.4718 177.854 21.6319L167.301-78.3633Q166.841-83.2458 163.894-85.6446Q160.948-88.0434 155.991-87.4777L147.523-86.4341Q142.604-85.9355 140.276-82.9368Q137.949-79.9381 138.434-75.1116L149.012 24.8972Q149.502 29.7371 152.427 32.1292Q155.353 34.5214 160.297 34.0114Z"/>
  </g>
  <g id="Semibold-L" transform="matrix(1 0 0 1 1949.06 1556)">
   <path d="M25.4692 33.0831L36.7373 33.0831Q41.2842 33.0831 43.7034 30.6083Q46.1226 28.1335 46.1226 23.6795L46.1226-79.483Q46.1226-83.9559 43.7034-86.4121Q41.2842-88.8682 36.7373-88.8682L25.4692-88.8682Q20.941-88.8682 18.5125-86.4121Q16.084-83.9559 16.084-79.483L16.084 23.6795Q16.084 28.1335 18.5125 30.6083Q20.941 33.0831 25.4692 33.0831ZM62.7238 33.0831L86.061 33.0831Q90.6511 33.0831 93.0703 30.6083Q95.4895 28.1335 95.4895 23.6795L95.4895-56.9764Q95.4895-61.4493 93.0703-63.9146Q90.6511-66.3799 86.061-66.3799L62.7238-66.3799Q58.1772-66.3799 55.7487-63.9146Q53.3202-61.4493 53.3202-56.9764L53.3202 23.6795Q53.3202 28.1335 55.7487 30.6083Q58.1772 33.0831 62.7238 33.0831ZM67.7816-43.3035Q66.0357-43.3035 64.8408-44.4797Q63.646-45.656 63.646-47.3398Q63.646-49.0607 64.8316-50.2154Q66.0171-51.37 67.7816-51.37L81.2077-51.37Q83.077-51.37 84.1665-50.2154Q85.256-49.0607 85.256-47.3398Q85.256-45.656 84.0922-44.4797Q82.9284-43.3035 81.2077-43.3035ZM67.7816 18.1163Q66.0171 18.1163 64.8316 16.9401Q63.646 15.7639 63.646 14.0612Q63.646 12.3588 64.8408 11.195Q66.0357 10.0313 67.7816 10.0313L81.2077 10.0313Q82.9284 10.0313 84.0922 11.195Q85.256 12.3588 85.256 14.0612Q85.256 15.7639 84.0922 16.9401Q82.9284 18.1163 81.2077 18.1163ZM112.091 33.0831L125.79 33.0831Q130.399 33.0831 132.809 30.6083Q135.219 28.1335 135.219 23.6795L135.219-96.9079Q135.219-101.381 132.809-103.837Q130.399-106.293 125.79-106.293L112.091-106.293Q107.519-106.293 105.112-103.837Q102.705-101.381 102.705-96.9079L102.705 23.6795Q102.705 28.1335 105.112 30.6083Q107.519 33.0831 112.091 33.0831ZM155.174 33.417L163.955 32.3087Q168.484 31.7828 170.612 29.0821Q172.74 26.3815 172.239 21.9458L161.428-79.02Q160.989-83.4929 158.335-85.6923Q155.68-87.8917 151.09-87.3472L142.327-86.2389Q137.781-85.7561 135.671-83.0339Q133.561-80.3117 134.025-75.8946L144.873 25.0901Q145.331 29.5258 147.967 31.7159Q150.602 33.906 155.174 33.417Z"/>
  </g>
  <g id="Medium-L" transform="matrix(1 0 0 1 1654.48 1556)">
   <path d="M24.7959 32.6486L36.0541 32.6486Q40.3064 32.6486 42.5362 30.3573Q44.7661 28.0659 44.7661 23.9144L44.7661-80.3149Q44.7661-84.4773 42.5362-86.7521Q40.3064-89.0268 36.0541-89.0268L24.7959-89.0268Q20.5542-89.0268 18.3191-86.7521Q16.084-84.4773 16.084-80.3149L16.084 23.9144Q16.084 28.0659 18.3191 30.3573Q20.5542 32.6486 24.7959 32.6486ZM60.5265 32.6486L84.4631 32.6486Q88.7626 32.6486 90.9924 30.3573Q93.2223 28.0659 93.2223 23.9144L93.2223-58.2955Q93.2223-62.4579 90.9924-64.7438Q88.7626-67.0297 84.4631-67.0297L60.5265-67.0297Q56.2625-67.0297 54.0274-64.7438Q51.7923-62.4579 51.7923-58.2955L51.7923 23.9144Q51.7923 28.0659 54.0274 30.3573Q56.2625 32.6486 60.5265 32.6486ZM65.6837-44.7908Q64.0499-44.7908 62.9351-45.8889Q61.8204-46.9871 61.8204-48.5628Q61.8204-50.1595 62.9299-51.2341Q64.0393-52.3086 65.6837-52.3086L79.4783-52.3086Q81.1709-52.3086 82.2145-51.2341Q83.2581-50.1595 83.2581-48.5628Q83.2581-46.9871 82.1724-45.8889Q81.0868-44.7908 79.4783-44.7908ZM65.6837 17.9748Q64.0393 17.9748 62.9299 16.8766Q61.8204 15.7785 61.8204 14.1919Q61.8204 12.6056 62.9351 11.5261Q64.0499 10.4465 65.6837 10.4465L79.4783 10.4465Q81.0868 10.4465 82.1724 11.5261Q83.2581 12.6056 83.2581 14.1919Q83.2581 15.7785 82.1724 16.8766Q81.0868 17.9748 79.4783 17.9748ZM108.983 32.6486L123.064 32.6486Q127.387 32.6486 129.605 30.3573Q131.824 28.0659 131.824 23.9144L131.824-97.4041Q131.824-101.566 129.605-103.841Q127.387-106.116 123.064-106.116L108.983-106.116Q104.693-106.116 102.482-103.841Q100.271-101.566 100.271-97.4041L100.271 23.9144Q100.271 28.0659 102.482 30.3573Q104.693 32.6486 108.983 32.6486ZM151.289 32.9663L160.299 31.809Q164.541 31.3031 166.502 28.808Q168.463 26.313 167.982 22.1838L156.975-79.5179Q156.552-83.6803 154.119-85.7285Q151.686-87.7767 147.375-87.2482L138.387-86.0909Q134.123-85.6201 132.179-83.1075Q130.234-80.5949 130.682-76.4883L141.734 25.2364Q142.168 29.3656 144.584 31.4025Q147 33.4394 151.289 32.9663Z"/>
  </g>
  <g id="Regular-L" transform="matrix(1 0 0 1 1360.55 1556)">
   <path d="M23.9176 32.0819L35.163 32.0819Q39.031 32.0819 41.0138 30.0298Q42.9967 27.9778 42.9967 24.2209L42.9967-81.4Q42.9967-85.1574 41.0138-87.1955Q39.031-89.2337 35.163-89.2337L23.9176-89.2337Q20.0497-89.2337 18.0668-87.1955Q16.084-85.1574 16.084-81.4L16.084 24.2209Q16.084 27.9778 18.0668 30.0298Q20.0497 32.0819 23.9176 32.0819ZM57.6604 32.0819L82.3788 32.0819Q86.2993 32.0819 88.2822 30.0298Q90.265 27.9778 90.265 24.2209L90.265-60.0161Q90.265-63.7735 88.2822-65.8253Q86.2993-67.8772 82.3788-67.8772L57.6604-67.8772Q53.765-67.8772 51.7822-65.8253Q49.7993-63.7735 49.7993-60.0161L49.7993 24.2209Q49.7993 27.9778 51.7822 30.0298Q53.765 32.0819 57.6604 32.0819ZM62.9474-46.7307Q61.4597-46.7307 60.4494-47.727Q59.4392-48.7233 59.4392-50.158Q59.4392-51.5928 60.4494-52.5628Q61.4597-53.5328 62.9474-53.5328L77.2225-53.5328Q78.6847-53.5328 79.6684-52.5628Q80.6521-51.5928 80.6521-50.158Q80.6521-48.7233 79.6684-47.727Q78.6847-46.7307 77.2225-46.7307ZM62.9474 17.7901Q61.4597 17.7901 60.4494 16.7938Q59.4392 15.7975 59.4392 14.3623Q59.4392 12.9276 60.4494 11.9578Q61.4597 10.988 62.9474 10.988L77.2225 10.988Q78.6847 10.988 79.6684 11.9578Q80.6521 12.9276 80.6521 14.3623Q80.6521 15.7975 79.6684 16.7938Q78.6847 17.7901 77.2225 17.7901ZM104.929 32.0819L119.509 32.0819Q123.457 32.0819 125.426 30.0298Q127.395 27.9778 127.395 24.2209L127.395-98.0513Q127.395-101.809 125.426-103.847Q123.457-105.885 119.509-105.885L104.929-105.885Q101.008-105.885 99.0515-103.847Q97.0951-101.809 97.0951-98.0513L97.0951 24.2209Q97.0951 27.9778 99.0515 30.0298Q101.008 32.0819 104.929 32.0819ZM146.223 32.3785L155.531 31.1572Q159.399 30.6774 161.142 28.4505Q162.884 26.2237 162.429 22.4942L151.166-80.1673Q150.764-83.9247 148.62-85.7757Q146.477-87.6268 142.529-87.1191L133.248-85.8978Q129.353-85.4427 127.624-83.2035Q125.895-80.9643 126.322-77.2627L137.641 25.4272Q138.043 29.1566 140.172 30.9937Q142.302 32.8308 146.223 32.3785Z"/>
  </g>
  <g id="Light-L" transform="matrix(1 0 0 1 1066.76 1556)">
   <path d="M24.0514 31.7767L34.3995 31.7767Q38.4394 31.7767 40.4031 29.6959Q42.3669 27.6151 42.3669 23.763L42.3669-80.7128Q42.3669-84.5658 40.4031-86.623Q38.4394-88.6802 34.3995-88.6802L24.0514-88.6802Q20.0115-88.6802 18.0478-86.623Q16.084-84.5658 16.084-80.7128L16.084 23.763Q16.084 27.6151 18.0478 29.6959Q20.0115 31.7767 24.0514 31.7767ZM56.439 31.7767L80.0124 31.7767Q84.0855 31.7767 86.0493 29.6959Q88.0131 27.6151 88.0131 23.763L88.0131-59.5008Q88.0131-63.3537 86.0493-65.4341Q84.0855-67.5145 80.0124-67.5145L56.439-67.5145Q52.3529-67.5145 50.3891-65.4341Q48.4253-63.3537 48.4253-59.5008L48.4253 23.763Q48.4253 27.6151 50.3891 29.6959Q52.3529 31.7767 56.439 31.7767ZM60.6573-48.2577Q59.4748-48.2577 58.6553-49.0536Q57.8359-49.8495 57.8359-50.9978Q57.8359-52.1462 58.6553-52.9255Q59.4748-53.7047 60.6573-53.7047L75.8485-53.7047Q77.0432-53.7047 77.8456-52.9255Q78.648-52.1462 78.648-50.9978Q78.648-49.8495 77.8456-49.0536Q77.0432-48.2577 75.8485-48.2577ZM60.6573 18.0002Q59.4748 18.0002 58.6553 17.2043Q57.8359 16.4084 57.8359 15.2592Q57.8359 14.1108 58.6553 13.332Q59.4748 12.5531 60.6573 12.5531L75.8485 12.5531Q77.0432 12.5531 77.8456 13.332Q78.648 14.1108 78.648 15.2592Q78.648 16.4084 77.8456 17.2043Q77.0432 18.0002 75.8485 18.0002ZM102.085 31.7767L115.405 31.7767Q119.526 31.7767 121.466 29.6959Q123.406 27.6151 123.406 23.763L123.406-96.2572Q123.406-100.11 121.466-102.167Q119.526-104.225 115.405-104.225L102.085-104.225Q98.0113-104.225 96.0645-102.167Q94.1178-100.11 94.1178-96.2572L94.1178 23.763Q94.1178 27.6151 96.0645 29.6959Q98.0113 31.7767 102.085 31.7767ZM141.241 32.1114L149.48 31.1572Q153.52 30.7348 155.273 28.4696Q157.025 26.2044 156.589 22.3986L146.433-77.6861Q146.031-81.539 143.906-83.4188Q141.782-85.2985 137.662-84.829L129.469-83.8748Q125.383-83.4386 123.654-81.1803Q121.925-78.922 122.314-75.1634L132.564 24.9693Q132.966 28.7751 135.067 30.6312Q137.168 32.4874 141.241 32.1114Z"/>
  </g>
  <g id="Thin-L" transform="matrix(1 0 0 1 773.907 1556)">
   <path d="M24.2282 31.3729L33.3898 31.3729Q37.6569 31.3729 39.5954 29.2542Q41.534 27.1354 41.534 23.1574L41.534-79.804Q41.534-83.7833 39.5954-85.8658Q37.6569-87.9482 33.3898-87.9482L24.2282-87.9482Q19.9611-87.9482 18.0225-85.8658Q16.084-83.7833 16.084-79.804L16.084 23.1574Q16.084 27.1354 18.0225 29.2542Q19.9611 31.3729 24.2282 31.3729ZM54.8237 31.3729L76.8826 31.3729Q81.1576 31.3729 83.0961 29.2542Q85.0347 27.1354 85.0347 23.1574L85.0347-58.8193Q85.0347-62.7986 83.0961-64.9167Q81.1576-67.0349 76.8826-67.0349L54.8237-67.0349Q50.4852-67.0349 48.5466-64.9167Q46.6081-62.7986 46.6081-58.8193L46.6081 23.1574Q46.6081 27.1354 48.5466 29.2542Q50.4852 31.3729 54.8237 31.3729ZM57.6284-50.2772Q56.8497-50.2772 56.2825-50.8081Q55.7154-51.3389 55.7154-52.1085Q55.7154-52.8782 56.2825-53.4051Q56.8497-53.932 57.6284-53.932L74.0313-53.932Q74.8723-53.932 75.4349-53.4051Q75.9975-52.8782 75.9975-52.1085Q75.9975-51.3389 75.4349-50.8081Q74.8723-50.2772 74.0313-50.2772ZM57.6284 18.2779Q56.8497 18.2779 56.2825 17.7471Q55.7154 17.2163 55.7154 16.4454Q55.7154 15.6758 56.2825 15.1494Q56.8497 14.6231 57.6284 14.6231L74.0313 14.6231Q74.8723 14.6231 75.4349 15.1494Q75.9975 15.6758 75.9975 16.4454Q75.9975 17.2163 75.4349 17.7471Q74.8723 18.2779 74.0313 18.2779ZM98.3243 31.3729L109.978 31.3729Q114.326 31.3729 116.228 29.2542Q118.13 27.1354 118.13 23.1574L118.13-93.8844Q118.13-97.8637 116.228-99.9462Q114.326-102.029 109.978-102.029L98.3243-102.029Q94.0481-102.029 92.1141-99.9462Q90.1801-97.8637 90.1801-93.8844L90.1801 23.1574Q90.1801 27.1354 92.1141 29.2542Q94.0481 31.3729 98.3243 31.3729ZM134.653 31.7581L141.479 31.1572Q145.746 30.8107 147.511 28.4948Q149.276 26.179 148.865 22.2722L140.173-74.4045Q139.771-78.3838 137.672-80.3015Q135.572-82.2192 131.226-81.8001L124.471-81.1992Q120.133-80.788 118.404-78.5045Q116.675-76.221 117.013-72.3868L125.85 24.3637Q126.252 28.2704 128.315 30.1518Q130.378 32.0332 134.653 31.7581Z"/>
  </g>
  <g id="Ultralight-L" transform="matrix(1 0 0 1 479.174 1556)">
   <path d="M24.3188 31.1661L32.8726 31.1661Q37.2561 31.1661 39.1818 29.028Q41.1074 26.8898 41.1074 22.8472L41.1074-79.3385Q41.1074-83.3825 39.1818-85.4779Q37.2561-87.5733 32.8726-87.5733L24.3188-87.5733Q19.9352-87.5733 18.0096-85.4779Q16.084-83.3825 16.084-79.3385L16.084 22.8472Q16.084 26.8898 18.0096 29.028Q19.9352 31.1661 24.3188 31.1661ZM53.9963 31.1661L75.2795 31.1661Q79.6579 31.1661 81.5835 29.028Q83.5091 26.8898 83.5091 22.8472L83.5091-58.4702Q83.5091-62.5143 81.5835-64.6517Q79.6579-66.7892 75.2795-66.7892L53.9963-66.7892Q49.5285-66.7892 47.6029-64.6517Q45.6773-62.5143 45.6773-58.4702L45.6773 22.8472Q45.6773 26.8898 47.6029 29.028Q49.5285 31.1661 53.9963 31.1661ZM56.077-51.3116Q55.5051-51.3116 55.0672-51.7067Q54.6293-52.1018 54.6293-52.6774Q54.6293-53.2531 55.0672-53.6508Q55.5051-54.0484 56.077-54.0484L73.1005-54.0484Q73.7603-54.0484 74.2001-53.6508Q74.6398-53.2531 74.6398-52.6774Q74.6398-52.1018 74.2001-51.7067Q73.7603-51.3116 73.1005-51.3116ZM56.077 18.4202Q55.5051 18.4202 55.0672 18.0251Q54.6293 17.6301 54.6293 17.053Q54.6293 16.4773 55.0672 16.0803Q55.5051 15.6834 56.077 15.6834L73.1005 15.6834Q73.7603 15.6834 74.2001 16.0803Q74.6398 16.4773 74.6398 17.053Q74.6398 17.6301 74.2001 18.0251Q73.7603 18.4202 73.1005 18.4202ZM96.398 31.1661L107.198 31.1661Q111.662 31.1661 113.545 29.028Q115.428 26.8898 115.428 22.8472L115.428-92.6691Q115.428-96.7131 113.545-98.8085Q111.662-100.904 107.198-100.904L96.398-100.904Q92.0182-100.904 90.0907-98.8085Q88.1632-96.7131 88.1632-92.6691L88.1632 22.8472Q88.1632 26.8898 90.0907 29.028Q92.0182 31.1661 96.398 31.1661ZM131.278 31.5772L137.38 31.1572Q141.764 30.8496 143.536 28.5078Q145.307 26.1659 144.909 22.2075L136.967-72.7236Q136.565-76.7677 134.478-78.7048Q132.392-80.6419 127.929-80.2488L121.912-79.8287Q117.444-79.4304 115.715-77.134Q113.986-74.8375 114.298-70.9647L122.411 24.0535Q122.813 28.0119 124.856 29.9062Q126.9 31.8006 131.278 31.5772Z"/>
  </g>
  <g id="Black-M" transform="matrix(1 0 0 1 2850.13 1126)">
   <path d="M23.3453 19.8932L31.822 19.8932Q36.9641 19.8932 39.8352 16.9942Q42.7063 14.0953 42.7063 9.0091L42.7063-64.8727Q42.7063-70.016 39.8352-72.8865Q36.9641-75.7571 31.822-75.7571L23.3453-75.7571Q18.2603-75.7571 15.3606-72.8865Q12.4609-70.016 12.4609-64.8727L12.4609 9.0091Q12.4609 14.0953 15.3606 16.9942Q18.2603 19.8932 23.3453 19.8932ZM59.8215 19.8932L74.3364 19.8932Q79.484 19.8932 82.3551 16.9942Q85.2262 14.0953 85.2262 9.0091L85.2262-44.9128Q85.2262-50.0561 82.3551-52.9265Q79.484-55.7969 74.3364-55.7969L59.8215-55.7969Q54.7368-55.7969 51.8371-52.9265Q48.9374-50.0561 48.9374-44.9128L48.9374 9.0091Q48.9374 14.0953 51.8371 16.9942Q54.7368 19.8932 59.8215 19.8932ZM62.8494-34.1241Q61.007-34.1241 59.7218-35.3808Q58.4366-36.6376 58.4366-38.4175Q58.4366-40.3115 59.6932-41.5655Q60.9499-42.8196 62.8494-42.8196L71.6107-42.8196Q73.9042-42.8196 74.9297-41.5655Q75.9552-40.3115 75.9552-38.4175Q75.9552-36.6376 74.7013-35.3808Q73.4474-34.1241 71.6107-34.1241ZM62.8494 6.92133Q60.9499 6.92133 59.6932 5.66455Q58.4366 4.40777 58.4366 2.57085Q58.4366 0.733916 59.7218-0.548668Q61.007-1.83125 62.8494-1.83125L71.6107-1.83125Q73.4474-1.83125 74.7013-0.548668Q75.9552 0.733916 75.9552 2.57085Q75.9552 4.40777 74.7013 5.66455Q73.4474 6.92133 71.6107 6.92133ZM102.341 19.8932L110.503 19.8932Q115.65 19.8932 118.521 16.9942Q121.392 14.0953 121.392 9.0091L121.392-79.7746Q121.392-84.9178 118.521-87.7884Q115.65-90.6589 110.503-90.6589L102.341-90.6589Q97.2509-90.6589 94.354-87.7884Q91.457-84.9178 91.457-79.7746L91.457 9.0091Q91.457 14.0953 94.354 16.9942Q97.2509 19.8932 102.341 19.8932ZM139.106 20.2508L144.336 19.743Q149.421 19.2489 151.959 16.0542Q154.498 12.8595 154.009 7.77306L147.05-65.673Q146.625-70.8163 143.401-73.3311Q140.176-75.8459 135.086-75.3521L129.856-74.8443Q124.772-74.4131 122.262-71.1869Q119.752-67.9608 120.183-62.8741L127.142 10.5717Q127.624 15.6582 130.82 18.1731Q134.016 20.6881 139.106 20.2508Z"/>
  </g>
  <g id="Heavy-M" transform="matrix(1 0 0 1 2556.35 1126)">
   <path d="M22.1909 19.2324L30.8439 19.2324Q35.4565 19.2324 38.0152 16.6463Q40.5738 14.0601 40.5738 9.50022L40.5738-66.4111Q40.5738-71.0147 38.0152-73.5779Q35.4565-76.1411 30.8439-76.1411L22.1909-76.1411Q17.6218-76.1411 15.0414-73.5779Q12.4609-71.0147 12.4609-66.4111L12.4609 9.50022Q12.4609 14.0601 15.0414 16.6463Q17.6218 19.2324 22.1909 19.2324ZM56.4105 19.2324L72.1733 19.2324Q76.8024 19.2324 79.361 16.6463Q81.9197 14.0601 81.9197 9.50022L81.9197-47.2288Q81.9197-51.8324 79.361-54.3967Q76.8024-56.961 72.1733-56.961L56.4105-56.961Q51.8392-56.961 49.2587-54.3967Q46.6783-51.8324 46.6783-47.2288L46.6783 9.50022Q46.6783 14.0601 49.2587 16.6463Q51.8392 19.2324 56.4105 19.2324ZM59.8342-36.2825Q58.1135-36.2825 56.9212-37.4518Q55.729-38.6211 55.729-40.2817Q55.729-42.0295 56.8994-43.1906Q58.0699-44.3518 59.8342-44.3518L69.0147-44.3518Q71.0702-44.3518 72.0579-43.1906Q73.0456-42.0295 73.0456-40.2817Q73.0456-38.6211 71.8834-37.4518Q70.7212-36.2825 69.0147-36.2825ZM59.8342 6.63955Q58.0699 6.63955 56.8994 5.47025Q55.729 4.30096 55.729 2.59668Q55.729 0.892432 56.9212-0.29046Q58.1135-1.47335 59.8342-1.47335L69.0147-1.47335Q70.7212-1.47335 71.8834-0.29046Q73.0456 0.892432 73.0456 2.59668Q73.0456 4.30096 71.8834 5.47025Q70.7212 6.63955 69.0147 6.63955ZM97.7563 19.2324L106.827 19.2324Q111.458 19.2324 114.016 16.6463Q116.573 14.0601 116.573 9.50022L116.573-80.9895Q116.573-85.5931 114.016-88.1562Q111.458-90.7194 106.827-90.7194L97.7563-90.7194Q93.1708-90.7194 90.5986-88.1562Q88.0264-85.5931 88.0264-80.9895L88.0264 9.50022Q88.0264 14.0601 90.5986 16.6463Q93.1708 19.2324 97.7563 19.2324ZM133.682 19.5548L139.523 18.9076Q144.092 18.4347 146.349 15.5919Q148.606 12.7491 148.147 8.19145L140.622-67.0384Q140.223-71.642 137.366-73.8979Q134.508-76.1538 129.92-75.6786L124.081-75.0314Q119.51-74.6162 117.276-71.7446Q115.043-68.873 115.455-64.3176L122.985 10.9146Q123.427 15.4723 126.262 17.727Q129.097 19.9818 133.682 19.5548Z"/>
  </g>
  <g id="Bold-M" transform="matrix(1 0 0 1 2262.92 1126)">
   <path d="M20.8995 18.4933L29.7497 18.4933Q33.7701 18.4933 35.9792 16.2571Q38.1883 14.0209 38.1883 10.0496L38.1883-68.132Q38.1883-72.1319 35.9792-74.3513Q33.7701-76.5706 29.7497-76.5706L20.8995-76.5706Q16.9077-76.5706 14.6843-74.3513Q12.4609-72.1319 12.4609-68.132L12.4609 10.0496Q12.4609 14.0209 14.6843 16.2571Q16.9077 18.4933 20.8995 18.4933ZM52.5947 18.4933L69.7536 18.4933Q73.8026 18.4933 76.0117 16.2571Q78.2208 14.0209 78.2208 10.0496L78.2208-49.8196Q78.2208-53.8195 76.0117-56.0414Q73.8026-58.2633 69.7536-58.2633L52.5947-58.2633Q48.5978-58.2633 46.3744-56.0414Q44.151-53.8195 44.151-49.8196L44.151 10.0496Q44.151 14.0209 46.3744 16.2571Q48.5978 18.4933 52.5947 18.4933ZM56.4612-38.697Q54.8767-38.697 53.7884-39.7684Q52.7001-40.8398 52.7001-42.3671Q52.7001-43.9515 53.7741-45.0086Q54.8482-46.0657 56.4612-46.0657L66.1106-46.0657Q67.8999-46.0657 68.8454-45.0086Q69.7909-43.9515 69.7909-42.3671Q69.7909-40.8398 68.7312-39.7684Q67.6715-38.697 66.1106-38.697ZM56.4612 6.32434Q54.8482 6.32434 53.7741 5.25291Q52.7001 4.18147 52.7001 2.62557Q52.7001 1.06975 53.7884-0.00161748Q54.8767-1.07299 56.4612-1.07299L66.1106-1.07299Q67.6715-1.07299 68.7312-0.00161748Q69.7909 1.06975 69.7909 2.62557Q69.7909 4.18147 68.7312 5.25291Q67.6715 6.32434 66.1106 6.32434ZM92.6273 18.4933L102.715 18.4933Q106.769 18.4933 108.975 16.2571Q111.182 14.0209 111.182 10.0496L111.182-82.3485Q111.182-86.3484 108.975-88.5678Q106.769-90.7871 102.715-90.7871L92.6273-90.7871Q88.6067-90.7871 86.3977-88.5678Q84.1887-86.3484 84.1887-82.3485L84.1887 10.0496Q84.1887 14.0209 86.3977 16.2571Q88.6067 18.4933 92.6273 18.4933ZM127.615 18.7761L134.14 17.973Q138.132 17.5238 140.073 15.0747Q142.015 12.6257 141.589 8.65948L133.431-68.5658Q133.063-72.5657 130.615-74.532Q128.167-76.4983 124.141-76.0438L117.621-75.2407Q113.624-74.8434 111.7-72.3684Q109.775-69.8934 110.167-65.9324L118.335 11.2982Q118.732 15.2644 121.163 17.2281Q123.594 19.1917 127.615 18.7761Z"/>
  </g>
  <g id="Semibold-M" transform="matrix(1 0 0 1 1968.47 1126)">
   <path d="M20.0093 17.9838L28.9953 17.9838Q32.6075 17.9838 34.5756 15.9888Q36.5437 13.9938 36.5437 10.4284L36.5437-69.3184Q36.5437-72.9021 34.5756-74.8844Q32.6075-76.8668 28.9953-76.8668L20.0093-76.8668Q16.4153-76.8668 14.4381-74.8844Q12.4609-72.9021 12.4609-69.3184L12.4609 10.4284Q12.4609 13.9938 14.4381 15.9888Q16.4153 17.9838 20.0093 17.9838ZM49.9642 17.9838L68.0855 17.9838Q71.7346 17.9838 73.7027 15.9888Q75.6708 13.9938 75.6708 10.4284L75.6708-51.6057Q75.6708-55.1894 73.7027-57.1752Q71.7346-59.1611 68.0855-59.1611L49.9642-59.1611Q46.3632-59.1611 44.386-57.1752Q42.4088-55.1894 42.4088-51.6057L42.4088 10.4284Q42.4088 13.9938 44.386 15.9888Q46.3632 17.9838 49.9642 17.9838ZM54.1359-40.3615Q52.6453-40.3615 51.6287-41.3655Q50.612-42.3694 50.612-43.8047Q50.612-45.2764 51.6196-46.2619Q52.6271-47.2473 54.1359-47.2473L64.1086-47.2473Q65.7144-47.2473 66.6307-46.2619Q67.5471-45.2764 67.5471-43.8047Q67.5471-42.3694 66.5581-41.3655Q65.5691-40.3615 64.1086-40.3615ZM54.1359 6.10703Q52.6271 6.10703 51.6196 5.10307Q50.612 4.0991 50.612 2.64549Q50.612 1.192 51.6287 0.197509Q52.6453-0.796981 54.1359-0.796981L64.1086-0.796981Q65.5691-0.796981 66.5581 0.197509Q67.5471 1.192 67.5471 2.64549Q67.5471 4.0991 66.5581 5.10307Q65.5691 6.10703 64.1086 6.10703ZM89.0913 17.9838L99.8799 17.9838Q103.536 17.9838 105.501 15.9888Q107.465 13.9938 107.465 10.4284L107.465-83.2855Q107.465-86.8692 105.501-88.8515Q103.536-90.8338 99.8799-90.8338L89.0913-90.8338Q85.4602-90.8338 83.5016-88.8515Q81.543-86.8692 81.543-83.2855L81.543 10.4284Q81.543 13.9938 83.5016 15.9888Q85.4602 17.9838 89.0913 17.9838ZM123.432 18.2393L130.428 17.3287Q134.022 16.8958 135.747 14.7182Q137.471 12.5405 137.068 8.98214L128.474-69.6188Q128.126-73.2025 125.961-74.9691Q123.795-76.7357 120.157-76.2956L113.168-75.385Q109.567-75.0001 107.855-72.7985Q106.143-70.5968 106.521-67.0456L115.13 11.5626Q115.496 15.121 117.648 16.8841Q119.801 18.6471 123.432 18.2393Z"/>
  </g>
  <g id="Medium-M" transform="matrix(1 0 0 1 1673.47 1126)">
   <path d="M19.3343 17.5974L28.4234 17.5974Q31.7259 17.5974 33.5113 15.7853Q35.2967 13.9733 35.2967 10.7155L35.2967-70.218Q35.2967-73.4861 33.5113-75.2887Q31.7259-77.0913 28.4234-77.0913L19.3343-77.0913Q16.042-77.0913 14.2515-75.2887Q12.4609-73.4861 12.4609-70.218L12.4609 10.7155Q12.4609 13.9733 14.2515 15.7853Q16.042 17.5974 19.3343 17.5974ZM47.9696 17.5974L66.8206 17.5974Q70.1665 17.5974 71.9519 15.7853Q73.7373 13.9733 73.7373 10.7155L73.7373-52.9599Q73.7373-56.2281 71.9519-58.0349Q70.1665-59.8418 66.8206-59.8418L47.9696-59.8418Q44.6688-59.8418 42.8783-58.0349Q41.0877-56.2281 41.0877-52.9599L41.0877 10.7155Q41.0877 13.9733 42.8783 15.7853Q44.6688 17.5974 47.9696 17.5974ZM52.3728-41.6236Q50.9533-41.6236 49.9911-42.5764Q49.0288-43.5292 49.0288-44.8948Q49.0288-46.281 49.9859-47.2122Q50.9431-48.1433 52.3728-48.1433L62.5906-48.1433Q64.0572-48.1433 64.9515-47.2122Q65.8458-46.281 65.8458-44.8948Q65.8458-43.5292 64.9104-42.5764Q63.975-41.6236 62.5906-41.6236ZM52.3728 5.94226Q50.9431 5.94226 49.9859 4.98945Q49.0288 4.03665 49.0288 2.6606Q49.0288 1.28469 49.9911 0.348495Q50.9533-0.5877 52.3728-0.5877L62.5906-0.5877Q63.975-0.5877 64.9104 0.348495Q65.8458 1.28469 65.8458 2.6606Q65.8458 4.03665 64.9104 4.98945Q63.975 5.94226 62.5906 5.94226ZM86.4102 17.5974L97.7304 17.5974Q101.085 17.5974 102.866 15.7853Q104.647 13.9733 104.647 10.7155L104.647-83.9959Q104.647-87.264 102.866-89.0666Q101.085-90.8692 97.7304-90.8692L86.4102-90.8692Q83.0745-90.8692 81.3057-89.0666Q79.5369-87.264 79.5369-83.9959L79.5369 10.7155Q79.5369 13.9733 81.3057 15.7853Q83.0745 17.5974 86.4102 17.5974ZM120.26 17.8323L127.614 16.8402Q130.907 16.4197 132.466 14.4478Q134.026 12.476 133.64 9.22679L124.715-70.4172Q124.383-73.6854 122.432-75.3006Q120.481-76.9158 117.136-76.4866L109.791-75.4945Q106.49-75.1189 104.94-73.1245Q103.39-71.1302 103.757-67.8897L112.699 11.7632Q113.041 15.0124 114.983 16.6232Q116.925 18.2341 120.26 17.8323Z"/>
  </g>
  <g id="Regular-M" transform="matrix(1 0 0 1 1379 1126)">
   <path d="M18.4538 17.0934L27.6773 17.0934Q30.5761 17.0934 32.1231 15.52Q33.6702 13.9465 33.6702 11.0901L33.6702-71.3913Q33.6702-74.2478 32.1231-75.816Q30.5761-77.3842 27.6773-77.3842L18.4538-77.3842Q15.5551-77.3842 14.008-75.816Q12.4609-74.2478 12.4609-71.3913L12.4609 11.0901Q12.4609 13.9465 14.008 15.52Q15.5551 17.0934 18.4538 17.0934ZM45.3679 17.0934L65.1708 17.0934Q68.1212 17.0934 69.6683 15.52Q71.2154 13.9465 71.2154 11.0901L71.2154-54.7264Q71.2154-57.5829 69.6683-59.1563Q68.1212-60.7297 65.1708-60.7297L45.3679-60.7297Q42.4588-60.7297 40.9117-59.1563Q39.3646-57.5829 39.3646-54.7264L39.3646 11.0901Q39.3646 13.9465 40.9117 15.52Q42.4588 17.0934 45.3679 17.0934ZM50.073-43.2698Q48.7464-43.2698 47.855-44.1559Q46.9636-45.042 46.9636-46.3167Q46.9636-47.5914 47.855-48.4517Q48.7464-49.3119 50.073-49.3119L60.6105-49.3119Q61.8957-49.3119 62.7612-48.4517Q63.6266-47.5914 63.6266-46.3167Q63.6266-45.042 62.7612-44.1559Q61.8957-43.2698 60.6105-43.2698ZM50.073 5.72734Q48.7464 5.72734 47.855 4.84126Q46.9636 3.95518 46.9636 2.6803Q46.9636 1.40559 47.855 0.545434Q48.7464-0.314725 50.073-0.314725L60.6105-0.314725Q61.8957-0.314725 62.7612 0.545434Q63.6266 1.40559 63.6266 2.6803Q63.6266 3.95518 62.7612 4.84126Q61.8957 5.72734 60.6105 5.72734ZM82.9131 17.0934L94.9268 17.0934Q97.8878 17.0934 99.4296 15.52Q100.971 13.9465 100.971 11.0901L100.971-84.9225Q100.971-87.7791 99.4296-89.3472Q97.8878-90.9154 94.9268-90.9154L82.9131-90.9154Q79.9626-90.9154 78.4414-89.3472Q76.9203-87.7791 76.9203-84.9225L76.9203 11.0901Q76.9203 13.9465 78.4414 15.52Q79.9626 17.0934 82.9131 17.0934ZM116.123 17.3015L123.944 16.203Q126.842 15.7986 128.187 14.0952Q129.532 12.3918 129.169 9.5459L119.812-71.4587Q119.501-74.3152 117.829-75.7329Q116.157-77.1506 113.196-76.7356L105.386-75.6372Q102.477-75.2738 101.138-73.5499Q99.7982-71.8259 100.151-68.9907L109.529 12.0247Q109.84 14.8706 111.507 16.283Q113.173 17.6954 116.123 17.3015Z"/>
  </g>
  <g id="Light-M" transform="matrix(1 0 0 1 1084.91 1126)">
   <path d="M18.5737 16.8198L26.9928 16.8198Q30.0457 16.8198 31.5756 15.2205Q33.1056 13.6213 33.1056 10.6796L33.1056-70.7752Q33.1056-73.7174 31.5756-75.3027Q30.0457-76.888 26.9928-76.888L18.5737-76.888Q15.5209-76.888 13.9909-75.3027Q12.4609-73.7174 12.4609-70.7752L12.4609 10.6796Q12.4609 13.6213 13.9909 15.2205Q15.5209 16.8198 18.5737 16.8198ZM44.2729 16.8198L63.0492 16.8198Q66.1365 16.8198 67.6664 15.2205Q69.1964 13.6213 69.1964 10.6796L69.1964-54.2644Q69.1964-57.2066 67.6664-58.8056Q66.1365-60.4045 63.0492-60.4045L44.2729-60.4045Q41.1927-60.4045 39.6627-58.8056Q38.1327-57.2066 38.1327-54.2644L38.1327 10.6796Q38.1327 13.6213 39.6627 15.2205Q41.1927 16.8198 44.2729 16.8198ZM48.0198-44.6388Q46.9669-44.6388 46.2466-45.3452Q45.5262-46.0517 45.5262-47.0696Q45.5262-48.0876 46.2466-48.7768Q46.9669-49.466 48.0198-49.466L59.3786-49.466Q60.424-49.466 61.127-48.7768Q61.8299-48.0876 61.8299-47.0696Q61.8299-46.0517 61.127-45.3452Q60.424-44.6388 59.3786-44.6388ZM48.0198 5.91564Q46.9669 5.91564 46.2466 5.20924Q45.5262 4.50284 45.5262 3.48439Q45.5262 2.46641 46.2466 1.77745Q46.9669 1.08849 48.0198 1.08849L59.3786 1.08849Q60.424 1.08849 61.127 1.77745Q61.8299 2.46641 61.8299 3.48439Q61.8299 4.50284 61.127 5.20924Q60.424 5.91564 59.3786 5.91564ZM80.3637 16.8198L91.2478 16.8198Q94.363 16.8198 95.879 15.2205Q97.395 13.6213 97.395 10.6796L97.395-83.3141Q97.395-86.2563 95.879-87.8415Q94.363-89.4268 91.2478-89.4268L80.3637-89.4268Q77.276-89.4268 75.7635-87.8415Q74.251-86.2563 74.251-83.3141L74.251 10.6796Q74.251 13.6213 75.7635 15.2205Q77.276 16.8198 80.3637 16.8198ZM111.657 17.062L118.519 16.203Q121.572 15.8501 122.926 14.1123Q124.279 12.3746 123.933 9.46023L115.568-69.2341Q115.257-72.1763 113.602-73.6198Q111.948-75.0632 108.833-74.6824L101.998-73.8234Q98.9182-73.477 97.5787-71.736Q96.2391-69.995 96.5576-67.1085L104.977 11.6142Q105.289 14.5285 106.93 15.958Q108.57 17.3875 111.657 17.062Z"/>
  </g>
  <g id="Thin-M" transform="matrix(1 0 0 1 791.657 1126)">
   <path d="M18.7322 16.4578L26.0875 16.4578Q29.3441 16.4578 30.8515 14.8245Q32.3588 13.1913 32.3588 10.1366L32.3588-69.9604Q32.3588-73.0159 30.8515-74.6238Q29.3441-76.2317 26.0875-76.2317L18.7322-76.2317Q15.4756-76.2317 13.9683-74.6238Q12.4609-73.0159 12.4609-69.9604L12.4609 10.1366Q12.4609 13.1913 13.9683 14.8245Q15.4756 16.4578 18.7322 16.4578ZM42.8247 16.4578L60.2432 16.4578Q63.5114 16.4578 65.0187 14.8245Q66.5261 13.1913 66.5261 10.1366L66.5261-53.6534Q66.5261-56.7089 65.0187-58.3417Q63.5114-59.9745 60.2432-59.9745L42.8247-59.9745Q39.5182-59.9745 38.0108-58.3417Q36.5035-56.7089 36.5035-53.6534L36.5035 10.1366Q36.5035 13.1913 38.0108 14.8245Q39.5182 16.4578 42.8247 16.4578ZM45.3042-46.4495Q44.6133-46.4495 44.1192-46.9182Q43.6251-47.387 43.6251-48.0654Q43.6251-48.7439 44.1192-49.2068Q44.6133-49.6698 45.3042-49.6698L57.7494-49.6698Q58.4777-49.6698 58.9656-49.2068Q59.4535-48.7439 59.4535-48.0654Q59.4535-47.387 58.9656-46.9182Q58.4777-46.4495 57.7494-46.4495ZM45.3042 6.16469Q44.6133 6.16469 44.1192 5.69592Q43.6251 5.22716 43.6251 4.54787Q43.6251 3.86943 44.1192 3.40689Q44.6133 2.94435 45.3042 2.94435L57.7494 2.94435Q58.4777 2.94435 58.9656 3.40689Q59.4535 3.86943 59.4535 4.54787Q59.4535 5.22716 58.9656 5.69592Q58.4777 6.16469 57.7494 6.16469ZM76.9919 16.4578L86.3822 16.4578Q89.7011 16.4578 91.1831 14.8245Q92.6651 13.1913 92.6651 10.1366L92.6651-81.1867Q92.6651-84.2422 91.1831-85.8501Q89.7011-87.458 86.3822-87.458L76.9919-87.458Q73.7228-87.458 72.2217-85.8501Q70.7206-84.2422 70.7206-81.1867L70.7206 10.1366Q70.7206 13.1913 72.2217 14.8245Q73.7228 16.4578 76.9919 16.4578ZM105.751 16.7453L111.345 16.203Q114.602 15.9181 115.967 14.1349Q117.332 12.3517 117.008 9.34693L109.956-66.2919Q109.644-69.3475 108.013-70.8249Q106.381-72.3024 103.063-71.9668L97.5175-71.4246Q94.2111-71.1006 92.8715-69.337Q91.532-67.5733 91.8052-64.6192L98.9577 11.0712Q99.2692 14.076 100.876 15.5282Q102.482 16.9803 105.751 16.7453Z"/>
  </g>
  <g id="Ultralight-M" transform="matrix(1 0 0 1 496.719 1126)">
   <path d="M18.8134 16.2724L25.6238 16.2724Q28.9848 16.2724 30.4806 14.6217Q31.9763 12.971 31.9763 9.85854L31.9763-69.5431Q31.9763-72.6566 30.4806-74.2761Q28.9848-75.8956 25.6238-75.8956L18.8134-75.8956Q15.4524-75.8956 13.9567-74.2761Q12.4609-72.6566 12.4609-69.5431L12.4609 9.85854Q12.4609 12.971 13.9567 14.6217Q15.4524 16.2724 18.8134 16.2724ZM42.0829 16.2724L58.8059 16.2724Q62.1669 16.2724 63.6626 14.6217Q65.1584 12.971 65.1584 9.85854L65.1584-53.3404Q65.1584-56.4539 63.6626-58.1041Q62.1669-59.7542 58.8059-59.7542L42.0829-59.7542Q38.6605-59.7542 37.1648-58.1041Q35.669-56.4539 35.669-53.3404L35.669 9.85854Q35.669 12.971 37.1648 14.6217Q38.6605 16.2724 42.0829 16.2724ZM43.9134-47.3768Q43.4079-47.3768 43.0296-47.7239Q42.6514-48.0709 42.6514-48.5755Q42.6514-49.08 43.0296-49.4271Q43.4079-49.7742 43.9134-49.7742L56.9149-49.7742Q57.4808-49.7742 57.8585-49.4271Q58.2363-49.08 58.2363-48.5755Q58.2363-48.0709 57.8585-47.7239Q57.4808-47.3768 56.9149-47.3768ZM43.9134 6.29225Q43.4079 6.29225 43.0296 5.9452Q42.6514 5.59815 42.6514 5.09258Q42.6514 4.58804 43.0296 4.24148Q43.4079 3.89491 43.9134 3.89491L56.9149 3.89491Q57.4808 3.89491 57.8585 4.24148Q58.2363 4.58804 58.2363 5.09258Q58.2363 5.59815 57.8585 5.9452Q57.4808 6.29225 56.9149 6.29225ZM75.2649 16.2724L83.89 16.2724Q87.3133 16.2724 88.7778 14.6217Q90.2424 12.971 90.2424 9.85854L90.2424-80.0971Q90.2424-83.2107 88.7778-84.8301Q87.3133-86.4496 83.89-86.4496L75.2649-86.4496Q71.9029-86.4496 70.4077-84.8301Q68.9124-83.2107 68.9124-80.0971L68.9124 9.85854Q68.9124 12.971 70.4077 14.6217Q71.9029 16.2724 75.2649 16.2724ZM102.725 16.583L107.671 16.203Q111.032 15.953 112.403 14.1465Q113.773 12.3401 113.461 9.28889L107.081-64.785Q106.77-67.8985 105.149-69.3935Q103.529-70.8884 100.107-70.576L95.2224-70.196Q91.8001-69.8835 90.4605-68.1082Q89.121-66.333 89.3711-63.3442L95.8744 10.7931Q96.186 13.8443 97.7751 15.308Q99.3643 16.7717 102.725 16.583Z"/>
  </g>
  <g id="Black-S" transform="matrix(1 0 0 1 2867.41 696)">
   <path d="M18.6523 8.1543L25.1953 8.1543Q29.3945 8.1543 31.7383 5.78613Q34.082 3.41797 34.082-0.732422L34.082-57.959Q34.082-62.1582 31.7383-64.502Q29.3945-66.8457 25.1953-66.8457L18.6523-66.8457Q14.502-66.8457 12.1338-64.502Q9.76562-62.1582 9.76562-57.959L9.76562-0.732422Q9.76562 3.41797 12.1338 5.78613Q14.502 8.1543 18.6523 8.1543ZM47.8516 8.1543L58.7891 8.1543Q62.9883 8.1543 65.332 5.78613Q67.6758 3.41797 67.6758-0.732422L67.6758-42.0898Q67.6758-46.2891 65.332-48.6328Q62.9883-50.9766 58.7891-50.9766L47.8516-50.9766Q43.7012-50.9766 41.333-48.6328Q38.9648-46.2891 38.9648-42.0898L38.9648-0.732422Q38.9648 3.41797 41.333 5.78613Q43.7012 8.1543 47.8516 8.1543ZM50.0488-33.7891Q48.584-33.7891 47.5586-34.79Q46.5332-35.791 46.5332-37.207Q46.5332-38.7207 47.5342-39.7217Q48.5352-40.7227 50.0488-40.7227L56.8359-40.7227Q58.6914-40.7227 59.4971-39.7217Q60.3027-38.7207 60.3027-37.207Q60.3027-35.791 59.3018-34.79Q58.3008-33.7891 56.8359-33.7891ZM50.0488-2.09961Q48.5352-2.09961 47.5342-3.10059Q46.5332-4.10156 46.5332-5.56641Q46.5332-7.03125 47.5586-8.05664Q48.584-9.08203 50.0488-9.08203L56.8359-9.08203Q58.3008-9.08203 59.3018-8.05664Q60.3027-7.03125 60.3027-5.56641Q60.3027-4.10156 59.3018-3.10059Q58.3008-2.09961 56.8359-2.09961ZM81.4453 8.1543L87.5 8.1543Q91.6992 8.1543 94.043 5.78613Q96.3867 3.41797 96.3867-0.732422L96.3867-69.6777Q96.3867-73.877 94.043-76.2207Q91.6992-78.5645 87.5-78.5645L81.4453-78.5645Q77.2949-78.5645 74.9268-76.2207Q72.5586-73.877 72.5586-69.6777L72.5586-0.732422Q72.5586 3.41797 74.9268 5.78613Q77.2949 8.1543 81.4453 8.1543ZM110.4 8.44727L114.258 8.10547Q118.408 7.71484 120.483 5.10254Q122.559 2.49023 122.168-1.66016L116.943-58.5449Q116.602-62.7441 113.965-64.7949Q111.328-66.8457 107.178-66.4551L103.32-66.1133Q99.1699-65.7715 97.1191-63.1348Q95.0684-60.498 95.4102-56.3477L100.635 0.537109Q101.025 4.6875 103.638 6.73828Q106.25 8.78906 110.4 8.44727Z"/>
  </g>
  <g id="Heavy-S" transform="matrix(1 0 0 1 2572.87 696)">
   <path d="M17.6497 7.62417L24.4462 7.62417Q28.1729 7.62417 30.2516 5.52683Q32.3303 3.42949 32.3303-0.259919L32.3303-59.3534Q32.3303-63.0802 30.2516-65.1588Q28.1729-67.2375 24.4462-67.2375L17.6497-67.2375Q13.9603-67.2375 11.863-65.1588Q9.76562-63.0802 9.76562-59.3534L9.76562-0.259919Q9.76562 3.42949 11.863 5.52683Q13.9603 7.62417 17.6497 7.62417ZM45.0742 7.62417L57.2102 7.62417Q60.9485 7.62417 63.0271 5.52683Q65.1058 3.42949 65.1058-0.259919L65.1058-44.1297Q65.1058-47.8564 63.0271-49.9351Q60.9485-52.0138 57.2102-52.0138L45.0742-52.0138Q41.3848-52.0138 39.2874-49.9351Q37.1901-47.8564 37.1901-44.1297L37.1901-0.259919Q37.1901 3.42949 39.2874 5.52683Q41.3848 7.62417 45.0742 7.62417ZM47.7324-35.4601Q46.3367-35.4601 45.3689-36.4092Q44.4012-37.3583 44.4012-38.7052Q44.4012-40.1267 45.3503-41.07Q46.2994-42.0134 47.7324-42.0134L54.7731-42.0134Q56.4557-42.0134 57.2498-41.07Q58.0439-40.1267 58.0439-38.7052Q58.0439-37.3583 57.1006-36.4092Q56.1572-35.4601 54.7731-35.4601ZM47.7324-2.36467Q46.2994-2.36467 45.3503-3.31379Q44.4012-4.26291 44.4012-5.64708Q44.4012-7.03125 45.3689-7.99326Q46.3367-8.95526 47.7324-8.95526L54.7731-8.95526Q56.1572-8.95526 57.1006-7.99326Q58.0439-7.03125 58.0439-5.64708Q58.0439-4.26291 57.1006-3.31379Q56.1572-2.36467 54.7731-2.36467ZM77.8497 7.62417L84.8263 7.62417Q88.5646 7.62417 90.6433 5.52683Q92.7219 3.42949 92.7219-0.259919L92.7219-70.9224Q92.7219-74.6491 90.6433-76.7278Q88.5646-78.8065 84.8263-78.8065L77.8497-78.8065Q74.1487-78.8065 72.0572-76.7278Q69.9656-74.6491 69.9656-70.9224L69.9656-0.259919Q69.9656 3.42949 72.0572 5.52683Q74.1487 7.62417 77.8497 7.62417ZM106.332 7.88257L110.835 7.39095Q114.524 7.01185 116.358 4.70495Q118.191 2.39804 117.823-1.29137L111.988-59.997Q111.669-63.7237 109.344-65.5498Q107.018-67.3758 103.317-66.9967L98.8142-66.5051Q95.1248-66.1748 93.3103-63.8435Q91.4958-61.5122 91.826-57.8228L97.6615 0.882843Q98.0175 4.57226 100.324 6.39831Q102.631 8.22436 106.332 7.88257Z"/>
  </g>
  <g id="Bold-S" transform="matrix(1 0 0 1 2278.59 696)">
   <path d="M16.5283 7.03125L23.6084 7.03125Q26.8066 7.03125 28.5889 5.23682Q30.3711 3.44238 30.3711 0.268555L30.3711-60.9131Q30.3711-64.1113 28.5889-65.8936Q26.8066-67.6758 23.6084-67.6758L16.5283-67.6758Q13.3545-67.6758 11.5601-65.8936Q9.76562-64.1113 9.76562-60.9131L9.76562 0.268555Q9.76562 3.44238 11.5601 5.23682Q13.3545 7.03125 16.5283 7.03125ZM41.9678 7.03125L55.4443 7.03125Q58.667 7.03125 60.4492 5.23682Q62.2314 3.44238 62.2314 0.268555L62.2314-46.4111Q62.2314-49.6094 60.4492-51.3916Q58.667-53.1738 55.4443-53.1738L41.9678-53.1738Q38.7939-53.1738 36.9995-51.3916Q35.2051-49.6094 35.2051-46.4111L35.2051 0.268555Q35.2051 3.44238 36.9995 5.23682Q38.7939 7.03125 41.9678 7.03125ZM45.1416-37.3291Q43.8232-37.3291 42.9199-38.2202Q42.0166-39.1113 42.0166-40.3809Q42.0166-41.6992 42.9077-42.5781Q43.7988-43.457 45.1416-43.457L52.4658-43.457Q53.9551-43.457 54.7363-42.5781Q55.5176-41.6992 55.5176-40.3809Q55.5176-39.1113 54.6387-38.2202Q53.7598-37.3291 52.4658-37.3291ZM45.1416-2.66113Q43.7988-2.66113 42.9077-3.55225Q42.0166-4.44336 42.0166-5.7373Q42.0166-7.03125 42.9199-7.92236Q43.8232-8.81348 45.1416-8.81348L52.4658-8.81348Q53.7598-8.81348 54.6387-7.92236Q55.5176-7.03125 55.5176-5.7373Q55.5176-4.44336 54.6387-3.55225Q53.7598-2.66113 52.4658-2.66113ZM73.8281 7.03125L81.8359 7.03125Q85.0586 7.03125 86.8408 5.23682Q88.623 3.44238 88.623 0.268555L88.623-72.3145Q88.623-75.5127 86.8408-77.2949Q85.0586-79.0771 81.8359-79.0771L73.8281-79.0771Q70.6299-79.0771 68.8477-77.2949Q67.0654-75.5127 67.0654-72.3145L67.0654 0.268555Q67.0654 3.44238 68.8477 5.23682Q70.6299 7.03125 73.8281 7.03125ZM101.782 7.25098L107.007 6.5918Q110.181 6.22559 111.743 4.26025Q113.306 2.29492 112.964-0.878906L106.445-61.6211Q106.152-64.8193 104.175-66.394Q102.197-67.9688 98.999-67.6025L93.7744-66.9434Q90.6006-66.626 89.0503-64.6362Q87.5-62.6465 87.8174-59.4727L94.3359 1.26953Q94.6533 4.44336 96.6187 6.01807Q98.584 7.59277 101.782 7.25098Z"/>
  </g>
  <g id="Semibold-S" transform="matrix(1 0 0 1 1983.55 696)">
   <path d="M15.7552 6.62246L23.0308 6.62246Q25.8646 6.62246 27.4425 5.03687Q29.0203 3.45127 29.0203 0.63291L29.0203-61.9884Q29.0203-64.8223 27.4425-66.4001Q25.8646-67.9779 23.0308-67.9779L15.7552-67.9779Q12.9368-67.9779 11.3512-66.4001Q9.76562-64.8223 9.76562-61.9884L9.76562 0.63291Q9.76562 3.45127 11.3512 5.03687Q12.9368 6.62246 15.7552 6.62246ZM39.8261 6.62246L54.2269 6.62246Q57.094 6.62246 58.6719 5.03687Q60.2497 3.45127 60.2497 0.63291L60.2497-47.9841Q60.2497-50.818 58.6719-52.3958Q57.094-53.9736 54.2269-53.9736L39.8261-53.9736Q37.0077-53.9736 35.4221-52.3958Q33.8365-50.818 33.8365-47.9841L33.8365 0.63291Q33.8365 3.45127 35.4221 5.03687Q37.0077 6.62246 39.8261 6.62246ZM43.3554-38.6177Q42.0903-38.6177 41.2314-39.4688Q40.3726-40.3199 40.3726-41.5361Q40.3726-42.7834 41.2237-43.6179Q42.0748-44.4523 43.3554-44.4523L50.8751-44.4523Q52.2311-44.4523 53.0034-43.6179Q53.7758-42.7834 53.7758-41.5361Q53.7758-40.3199 52.9413-39.4688Q52.1068-38.6177 50.8751-38.6177ZM43.3554-2.86553Q42.0748-2.86553 41.2237-3.71665Q40.3726-4.56777 40.3726-5.79951Q40.3726-7.03125 41.2314-7.87349Q42.0903-8.71572 43.3554-8.71572L50.8751-8.71572Q52.1068-8.71572 52.9413-7.87349Q53.7758-7.03125 53.7758-5.79951Q53.7758-4.56777 52.9413-3.71665Q52.1068-2.86553 50.8751-2.86553ZM71.0555 6.62246L79.7742 6.62246Q82.6414 6.62246 84.2192 5.03687Q85.7971 3.45127 85.7971 0.63291L85.7971-73.2742Q85.7971-76.1081 84.2192-77.6859Q82.6414-79.2638 79.7742-79.2638L71.0555-79.2638Q68.2038-79.2638 66.6349-77.6859Q65.0659-76.1081 65.0659-73.2742L65.0659 0.63291Q65.0659 3.45127 66.6349 5.03687Q68.2038 6.62246 71.0555 6.62246ZM98.6452 6.81553L104.367 6.04082Q107.186 5.6835 108.562 3.95366Q109.938 2.22383 109.614-0.594531L102.624-62.7408Q102.349-65.5747 100.611-66.9761Q98.8736-68.3775 96.022-68.0202L90.2997-67.2455Q87.4813-66.937 86.1132-65.1828Q84.7451-63.4285 85.0536-60.6102L92.0432 1.53613Q92.3339 4.35449 94.0637 5.75591Q95.7936 7.15732 98.6452 6.81553Z"/>
  </g>
  <g id="Medium-S" transform="matrix(1 0 0 1 1688.11 696)">
   <path d="M15.1689 6.3125L22.5928 6.3125Q25.1504 6.3125 26.5732 4.88525Q27.9961 3.45801 27.9961 0.90918L27.9961-62.8037Q27.9961-65.3613 26.5732-66.7842Q25.1504-68.207 22.5928-68.207L15.1689-68.207Q12.6201-68.207 11.1929-66.7842Q9.76562-65.3613 9.76562-62.8037L9.76562 0.90918Q9.76562 3.45801 11.1929 4.88525Q12.6201 6.3125 15.1689 6.3125ZM38.2021 6.3125L53.3037 6.3125Q55.9014 6.3125 57.3242 4.88525Q58.7471 3.45801 58.7471 0.90918L58.7471-49.1768Q58.7471-51.7344 57.3242-53.1572Q55.9014-54.5801 53.3037-54.5801L38.2021-54.5801Q35.6533-54.5801 34.2261-53.1572Q32.7988-51.7344 32.7988-49.1768L32.7988 0.90918Q32.7988 3.45801 34.2261 4.88525Q35.6533 6.3125 38.2021 6.3125ZM42.001-39.5947Q40.7764-39.5947 39.9512-40.4155Q39.126-41.2363 39.126-42.4121Q39.126-43.6055 39.9468-44.4062Q40.7676-45.207 42.001-45.207L49.6689-45.207Q50.9238-45.207 51.6895-44.4062Q52.4551-43.6055 52.4551-42.4121Q52.4551-41.2363 51.6543-40.4155Q50.8535-39.5947 49.6689-39.5947ZM42.001-3.02051Q40.7676-3.02051 39.9468-3.84131Q39.126-4.66211 39.126-5.84668Q39.126-7.03125 39.9512-7.83643Q40.7764-8.6416 42.001-8.6416L49.6689-8.6416Q50.8535-8.6416 51.6543-7.83643Q52.4551-7.03125 52.4551-5.84668Q52.4551-4.66211 51.6543-3.84131Q50.8535-3.02051 49.6689-3.02051ZM68.9531 6.3125L78.2109 6.3125Q80.8086 6.3125 82.2314 4.88525Q83.6543 3.45801 83.6543 0.90918L83.6543-74.002Q83.6543-76.5596 82.2314-77.9824Q80.8086-79.4053 78.2109-79.4053L68.9531-79.4053Q66.3643-79.4053 64.957-77.9824Q63.5498-76.5596 63.5498-74.002L63.5498 0.90918Q63.5498 3.45801 64.957 4.88525Q66.3643 6.3125 68.9531 6.3125ZM96.2666 6.48535L102.366 5.62305Q104.915 5.27246 106.149 3.72119Q107.384 2.16992 107.073-0.378906L99.7266-63.5898Q99.4648-66.1475 97.9092-67.4175Q96.3535-68.6875 93.7646-68.3369L87.665-67.4746Q85.1162-67.1729 83.8862-65.5972Q82.6562-64.0215 82.958-61.4727L90.3047 1.73828Q90.5752 4.28711 92.1265 5.55713Q93.6777 6.82715 96.2666 6.48535Z"/>
  </g>
  <g id="Regular-S" transform="matrix(1 0 0 1 1393.06 696)">
   <path d="M14.4043 5.9082L22.0215 5.9082Q24.2188 5.9082 25.4395 4.6875Q26.6602 3.4668 26.6602 1.26953L26.6602-63.8672Q26.6602-66.0645 25.4395-67.2852Q24.2188-68.5059 22.0215-68.5059L14.4043-68.5059Q12.207-68.5059 10.9863-67.2852Q9.76562-66.0645 9.76562-63.8672L9.76562 1.26953Q9.76562 3.4668 10.9863 4.6875Q12.207 5.9082 14.4043 5.9082ZM36.084 5.9082L52.0996 5.9082Q54.3457 5.9082 55.5664 4.6875Q56.7871 3.4668 56.7871 1.26953L56.7871-50.7324Q56.7871-52.9297 55.5664-54.1504Q54.3457-55.3711 52.0996-55.3711L36.084-55.3711Q33.8867-55.3711 32.666-54.1504Q31.4453-52.9297 31.4453-50.7324L31.4453 1.26953Q31.4453 3.4668 32.666 4.6875Q33.8867 5.9082 36.084 5.9082ZM40.2344-40.8691Q39.0625-40.8691 38.2812-41.6504Q37.5-42.4316 37.5-43.5547Q37.5-44.6777 38.2812-45.4346Q39.0625-46.1914 40.2344-46.1914L48.0957-46.1914Q49.2188-46.1914 49.9756-45.4346Q50.7324-44.6777 50.7324-43.5547Q50.7324-42.4316 49.9756-41.6504Q49.2188-40.8691 48.0957-40.8691ZM40.2344-3.22266Q39.0625-3.22266 38.2812-4.00391Q37.5-4.78516 37.5-5.9082Q37.5-7.03125 38.2812-7.78809Q39.0625-8.54492 40.2344-8.54492L48.0957-8.54492Q49.2188-8.54492 49.9756-7.78809Q50.7324-7.03125 50.7324-5.9082Q50.7324-4.78516 49.9756-4.00391Q49.2188-3.22266 48.0957-3.22266ZM66.2109 5.9082L76.1719 5.9082Q78.418 5.9082 79.6387 4.6875Q80.8594 3.4668 80.8594 1.26953L80.8594-74.9512Q80.8594-77.1484 79.6387-78.3691Q78.418-79.5898 76.1719-79.5898L66.2109-79.5898Q63.9648-79.5898 62.7686-78.3691Q61.5723-77.1484 61.5723-74.9512L61.5723 1.26953Q61.5723 3.4668 62.7686 4.6875Q63.9648 5.9082 66.2109 5.9082ZM93.1641 6.05469L99.7559 5.07812Q101.953 4.73633 103.003 3.41797Q104.053 2.09961 103.76-0.0976562L95.9473-64.6973Q95.7031-66.8945 94.3848-67.9932Q93.0664-69.0918 90.8203-68.75L84.2285-67.7734Q82.0312-67.4805 80.9814-66.1377Q79.9316-64.7949 80.2246-62.5977L88.0371 2.00195Q88.2812 4.19922 89.5996 5.29785Q90.918 6.39648 93.1641 6.05469Z"/>
  </g>
  <g id="Light-S" transform="matrix(1 0 0 1 1098.66 696)">
   <path d="M14.5103 5.6661L21.416 5.6661Q23.7495 5.6661 24.9551 4.42263Q26.1607 3.17917 26.1607 0.906372L26.1607-63.3222Q26.1607-65.5952 24.9551-66.8311Q23.7495-68.0669 21.416-68.0669L14.5103-68.0669Q12.1768-68.0669 10.9712-66.8311Q9.76562-65.5952 9.76562-63.3222L9.76562 0.906372Q9.76562 3.17917 10.9712 4.42263Q12.1768 5.6661 14.5103 5.6661ZM35.1153 5.6661L50.2228 5.6661Q52.5899 5.6661 53.7955 4.42263Q55.0011 3.17917 55.0011 0.906372L55.0011-50.3237Q55.0011-52.5968 53.7955-53.8401Q52.5899-55.0835 50.2228-55.0835L35.1153-55.0835Q32.7667-55.0835 31.5612-53.8401Q30.3556-52.5968 30.3556-50.3237L30.3556 0.906372Q30.3556 3.17917 31.5612 4.42263Q32.7667 5.6661 35.1153 5.6661ZM38.4181-42.0802Q37.4883-42.0802 36.8584-42.7025Q36.2284-43.3248 36.2284-44.2207Q36.2284-45.1167 36.8584-45.7222Q37.4883-46.3277 38.4181-46.3277L47.006-46.3277Q47.9169-46.3277 48.5299-45.7222Q49.143-45.1167 49.143-44.2207Q49.143-43.3248 48.5299-42.7025Q47.9169-42.0802 47.006-42.0802ZM38.4181-3.05608Q37.4883-3.05608 36.8584-3.67839Q36.2284-4.30069 36.2284-5.19689Q36.2284-6.09283 36.8584-6.69823Q37.4883-7.30362 38.4181-7.30362L47.006-7.30362Q47.9169-7.30362 48.5299-6.69823Q49.143-6.09283 49.143-5.19689Q49.143-4.30069 48.5299-3.67839Q47.9169-3.05608 47.006-3.05608ZM63.9557 5.6661L72.9174 5.6661Q75.2998 5.6661 76.4978 4.42263Q77.6957 3.17917 77.6957 0.906372L77.6957-73.5283Q77.6957-75.8013 76.4978-77.0372Q75.2998-78.273 72.9174-78.273L63.9557-78.273Q61.5883-78.273 60.3996-77.0372Q59.211-75.8013 59.211-73.5283L59.211 0.906372Q59.211 3.17917 60.3996 4.42263Q61.5883 5.6661 63.9557 5.6661ZM89.2133 5.84284L94.9575 5.07812Q97.2911 4.78185 98.3485 3.4331Q99.4059 2.08435 99.128-0.173442L92.1933-62.7294Q91.9492-65.0024 90.646-66.1238Q89.3428-67.2452 86.9606-66.9337L81.2314-66.169Q78.8829-65.891 77.833-64.5331Q76.7832-63.1752 77.0459-60.9327L84.0108 1.63879Q84.255 3.89659 85.5506 5.01035Q86.8462 6.12411 89.2133 5.84284Z"/>
  </g>
  <g id="Thin-S" transform="matrix(1 0 0 1 805.014 696)">
   <path d="M14.6506 5.34589L20.6151 5.34589Q23.129 5.34589 24.3145 4.07232Q25.5001 2.79876 25.5001 0.426065L25.5001-62.6014Q25.5001-64.9747 24.3145-66.2305Q23.129-67.4864 20.6151-67.4864L14.6506-67.4864Q12.1367-67.4864 10.9512-66.2305Q9.76562-64.9747 9.76562-62.6014L9.76562 0.426065Q9.76562 2.79876 10.9512 4.07232Q12.1367 5.34589 14.6506 5.34589ZM33.8341 5.34589L47.7405 5.34589Q50.2678 5.34589 51.4533 4.07232Q52.6389 2.79876 52.6389 0.426065L52.6389-49.7832Q52.6389-52.1565 51.4533-53.4298Q50.2678-54.7031 47.7405-54.7031L33.8341-54.7031Q31.2854-54.7031 30.0999-53.4298Q28.9143-52.1565 28.9143-49.7832L28.9143 0.426065Q28.9143 2.79876 30.0999 4.07232Q31.2854 5.34589 33.8341 5.34589ZM36.0159-43.6819Q35.4063-43.6819 34.9765-44.094Q34.5467-44.506 34.5467-45.1016Q34.5467-45.6972 34.9765-46.1026Q35.4063-46.508 36.0159-46.508L45.5647-46.508Q46.1951-46.508 46.618-46.1026Q47.0408-45.6972 47.0408-45.1016Q47.0408-44.506 46.618-44.094Q46.1951-43.6819 45.5647-43.6819ZM36.0159-2.83577Q35.4063-2.83577 34.9765-3.24786Q34.5467-3.65994 34.5467-4.25612Q34.5467-4.8517 34.9765-5.2568Q35.4063-5.6619 36.0159-5.6619L45.5647-5.6619Q46.1951-5.6619 46.618-5.2568Q47.0408-4.8517 47.0408-4.25612Q47.0408-3.65994 46.618-3.24786Q46.1951-2.83577 45.5647-2.83577ZM60.9729 5.34589L68.6132 5.34589Q71.1759 5.34589 72.3437 4.07232Q73.5115 2.79876 73.5115 0.426065L73.5115-71.6464Q73.5115-74.0197 72.3437-75.2755Q71.1759-76.5314 68.6132-76.5314L60.9729-76.5314Q58.4451-76.5314 57.2665-75.2755Q56.088-74.0197 56.088-71.6464L56.088 0.426065Q56.088 2.79876 57.2665 4.07232Q58.4451 5.34589 60.9729 5.34589ZM83.9881 5.56267L88.6112 5.07812Q91.1251 4.84206 92.1926 3.45311Q93.2601 2.06417 93.002-0.273674L87.2285-60.1267Q86.9844-62.5 85.7011-63.6515Q84.4179-64.803 81.8558-64.5315L77.2676-64.0469Q74.7188-63.7888 73.669-62.4109Q72.6192-61.033 72.8419-58.7306L78.6857 1.15849Q78.9299 3.49633 80.1954 4.63011Q81.4609 5.76388 83.9881 5.56267Z"/>
  </g>
  <g id="Ultralight-S" transform="matrix(1 0 0 1 509.872 696)">
   <path d="M14.7224 5.18188L20.2049 5.18188Q22.8111 5.18188 23.9864 3.8929Q25.1617 2.60391 25.1617 0.180054L25.1617-62.2322Q25.1617-64.6568 23.9864-65.9229Q22.8111-67.189 20.2049-67.189L14.7224-67.189Q12.1162-67.189 10.9409-65.9229Q9.76562-64.6568 9.76562-62.2322L9.76562 0.180054Q9.76562 2.60391 10.9409 3.8929Q12.1162 5.18188 14.7224 5.18188ZM33.1779 5.18188L46.4691 5.18188Q49.0784 5.18188 50.2537 3.8929Q51.429 2.60391 51.429 0.180054L51.429-49.5064Q51.429-51.931 50.2537-53.2196Q49.0784-54.5082 46.4691-54.5082L33.1779-54.5082Q30.5267-54.5082 29.3514-53.2196Q28.1761-51.931 28.1761-49.5064L28.1761 0.180054Q28.1761 2.60391 29.3514 3.8929Q30.5267 5.18188 33.1779 5.18188ZM34.7855-44.5023Q34.3399-44.5023 34.0126-44.8067Q33.6853-45.1111 33.6853-45.5528Q33.6853-45.9946 34.0126-46.2975Q34.3399-46.6003 34.7855-46.6003L44.8265-46.6003Q45.3133-46.6003 45.6387-46.2975Q45.9641-45.9946 45.9641-45.5528Q45.9641-45.1111 45.6387-44.8067Q45.3133-44.5023 44.8265-44.5023ZM34.7855-2.72293Q34.3399-2.72293 34.0126-3.02734Q33.6853-3.33176 33.6853-3.77426Q33.6853-4.216 34.0126-4.51851Q34.3399-4.82101 34.7855-4.82101L44.8265-4.82101Q45.3133-4.82101 45.6387-4.51851Q45.9641-4.216 45.9641-3.77426Q45.9641-3.33176 45.6387-3.02734Q45.3133-2.72293 44.8265-2.72293ZM59.4452 5.18188L66.4085 5.18188Q69.0636 5.18188 70.216 3.8929Q71.3684 2.60391 71.3684 0.180054L71.3684-70.6825Q71.3684-73.1071 70.216-74.3732Q69.0636-75.6393 66.4085-75.6393L59.4452-75.6393Q56.8352-75.6393 55.6618-74.3732Q54.4884-73.1071 54.4884-70.6825L54.4884 0.180054Q54.4884 2.60391 55.6618 3.8929Q56.8352 5.18188 59.4452 5.18188ZM81.3118 5.41916L85.3607 5.07812Q87.9669 4.87289 89.0396 3.46336Q90.1123 2.05383 89.8643-0.325012L84.6855-58.7936Q84.4414-61.2183 83.1684-62.3852Q81.8954-63.5521 79.2412-63.3011L75.2373-62.9601Q72.5861-62.7121 71.5363-61.3239Q70.4865-59.9358 70.6886-57.6027L75.9583 0.912476Q76.2024 3.29132 77.4525 4.43535Q78.7025 5.57938 81.3118 5.41916Z"/>
  </g>
 </g>
</svg>
